<?xml version="1.0" encoding="UTF-8" standalone="no"?>
<svg
   xmlns:dc="http://purl.org/dc/elements/1.1/"
   xmlns:cc="http://creativecommons.org/ns#"
   xmlns:rdf="http://www.w3.org/1999/02/22-rdf-syntax-ns#"
   xmlns:svg="http://www.w3.org/2000/svg"
   xmlns="http://www.w3.org/2000/svg"
   xmlns:sodipodi="http://sodipodi.sourceforge.net/DTD/sodipodi-0.dtd"
   xmlns:inkscape="http://www.inkscape.org/namespaces/inkscape"
   version="1.1"
   id="logo-tsvbayer04"
   x="0px"
   y="0px"
   viewBox="0 0 228.64 112.33999"
   enable-background="new 0 0 228.7 112.4"
   xml:space="preserve"
   sodipodi:docname="logo-tsvbayer04 84-90.svg"
   inkscape:version="1.0.2 (e86c870879, 2021-01-15, custom)"
   width="228.64"
   height="112.34"><metadata
   id="metadata64"><rdf:RDF><cc:Work
       rdf:about=""><dc:format>image/svg+xml</dc:format><dc:type
         rdf:resource="http://purl.org/dc/dcmitype/StillImage" /></cc:Work></rdf:RDF></metadata><defs
   id="defs62" /><sodipodi:namedview
   pagecolor="#ffffff"
   bordercolor="#666666"
   borderopacity="1"
   objecttolerance="10"
   gridtolerance="10"
   guidetolerance="10"
   inkscape:pageopacity="0"
   inkscape:pageshadow="2"
   inkscape:window-width="1920"
   inkscape:window-height="1017"
   id="namedview60"
   showgrid="false"
   inkscape:zoom="3.1320471"
   inkscape:cx="81.414393"
   inkscape:cy="36.138114"
   inkscape:window-x="-8"
   inkscape:window-y="-8"
   inkscape:window-maximized="1"
   inkscape:current-layer="logo-tsvbayer04"
   inkscape:document-rotation="0" />
<title
   id="title2">logo-tsvbayer04</title>
<path
   id="rechter-kasten"
   fill="#ffffff"
   stroke="#1a1a18"
   stroke-width="0.94"
   stroke-miterlimit="3.86"
   d="m 131.87,0.47 h 81.2 c 8.4,0 15.1,6.8 15.1,15.1 v 0 81.2 c 0,8.4 -6.8,15.1 -15.1,15.1 h -81.2 c -8.3,0 -15.1,-6.8 -15.1,-15.1 v -81.2 c 0.1,-8.3 6.8,-15.1 15.1,-15.1 0.1,0 0.1,0 0,0 z" />
<g
   id="bayer"
   transform="matrix(0.56482872,0,0,0.56482872,96.845592,-10.237977)">
	<path
   fill="#1a1a18"
   d="m 187.9,36.2 h -6 L 178,49.8 h -0.1 l -4,-13.6 h -6.6 l 5.9,14.5 c 0.4,1.1 1.6,4.2 1.6,5.2 0,1.3 -1,2.3 -2.3,2.2 -0.1,0 -0.2,0 -0.2,0 h -2.2 v 4.3 h 3 c 3.8,0 5.5,-0.1 7.1,-4.5 z"
   id="path5" />
	<path
   fill="#1a1a18"
   d="m 208.1,56.1 h 6 v -9.9 c 0,-2.5 1.7,-5.2 4.4,-5.4 0.8,-0.1 1.5,-0.1 2.3,0.1 v -5.5 c -0.6,0 -1.1,0 -1.7,0.1 -2.5,-0.1 -4.7,1.7 -5.1,4.1 h -0.1 v -3.4 h -5.8 z"
   id="path7" />
	<path
   fill="#1a1a18"
   d="m 154.6,50.2 c 0,-1.6 1.2,-2.2 2.6,-2.5 1.4,-0.3 3.8,-0.5 4.7,-1.1 0,0.9 0,2.3 0,3.2 -0.9,1.6 -2.5,2.6 -4.3,2.5 -1.4,0.1 -3,-0.5 -3,-2.1 z m 0.6,-7.9 c 0,-1.8 1.6,-2.5 3.4,-2.5 1.3,0 3.3,0.3 3.3,1.8 0,1.2 -0.5,1.4 -1.5,1.6 -4.4,0.9 -11.4,0.8 -11.4,7.3 0,4.1 3.6,6.2 7.3,6.2 2.3,0 4.2,-0.3 5.8,-2 0,0.5 0.1,1 0.3,1.5 h 5.9 c -0.8,-1.6 -0.6,-3.4 -0.6,-5.1 v -8.5 c 0,-5.6 -4.3,-7 -8.9,-7 -2.1,-0.1 -4.2,0.4 -6,1.3 -1.9,1.2 -3,3.3 -2.9,5.5 z"
   id="path9" />
	<path
   fill="#1a1a18"
   d="m 131.7,44.1 h 6.5 c 2.1,0 3.4,1.4 3.4,3.8 0,2.3 -1.8,3.3 -4,3.3 h -5.9 z m -6,12 h 12.8 c 5.9,0 9.6,-3.4 9.6,-8.2 -0.1,-2.9 -1.9,-5.5 -4.6,-6.5 2.3,-1 3.7,-3.3 3.7,-5.8 0,-5.5 -5.1,-7 -9.7,-6.9 h -11.9 z m 6,-22.4 h 6.3 c 1.6,-0.1 2.9,1 3.1,2.6 0,0.1 0,0.2 0,0.3 -0.1,1.6 -1.4,2.9 -3.1,2.9 h -6.3 z"
   id="path11" />
	<path
   fill="#1a1a18"
   d="m 192.6,43.5 c 0.2,-2.2 2.1,-3.9 4.3,-3.9 2.2,0 3.9,1.7 4,3.9 z m 14.3,4.2 c 0.3,-6.8 -3,-12.4 -9.9,-12.4 -5.7,0 -10.4,4.1 -10.4,10.7 0,6.6 4.3,10.6 10.6,10.6 4.3,0 8.3,-2.4 9.5,-6.4 h -5.8 c -0.6,1.5 -2.3,1.9 -3.8,1.9 -2.7,0 -4.3,-1.8 -4.4,-4.5 z"
   id="path13" />
</g>
<path
   id="Leverkusen"
   fill="#1a1a18"
   d="m 163.37,98.97 h -9.6 v 0 c -0.2,2.5 1.7,4.8 4.3,5 0.2,0 0.5,0 0.7,0 2,0 4,-0.9 4.5,-3.1 h -2.8 c -0.3,0.6 -1,1 -1.7,1 -1.1,0 -2,-0.9 -2,-2 0,0 0,-0.1 0,-0.1 h 6.7 c -0.1,-0.2 -0.1,-0.5 -0.1,-0.8 z m -35.3,-8.1 h -3.2 v 12.8 h 9 v -2.9 h -5.9 z m 16.1,8.1 h -9.6 v 0 c -0.2,2.5 1.7,4.8 4.3,5 0.2,0 0.5,0 0.7,0 2,0 4,-0.9 4.5,-3.1 h -2.8 c -0.3,0.6 -1,1 -1.7,1 -1.1,0 -2,-0.9 -2,-2 0,0 0,-0.1 0,-0.1 h 6.7 c -0.1,-0.2 -0.1,-0.5 -0.1,-0.8 z m 55.4,0 c -0.4,-0.4 -1,-0.7 -1.6,-0.8 -1.4,-0.3 -3.4,-0.5 -3.4,-1.4 0,-0.6 0.8,-0.7 1.3,-0.7 0.3,0 0.7,0.1 0.9,0.2 0.3,0.2 0.4,0.5 0.4,0.8 h 2.8 c -0.1,-2.4 -2.2,-3 -4.2,-3 -1.8,0 -4.1,0.6 -4.1,2.9 -0.1,0.8 0.3,1.5 0.9,2 1,0.5 2.1,0.9 3.3,1 0.5,0.1 1.5,0.3 1.5,1 0,0.7 -0.8,1 -1.4,1 -0.4,0 -0.8,-0.1 -1.1,-0.3 -0.3,-0.2 -0.5,-0.6 -0.5,-1 h -2.8 c 0.1,2.6 2.3,3.3 4.4,3.3 2.1,0 4.4,-0.8 4.4,-3.3 -0.1,-0.6 -0.3,-1.2 -0.8,-1.7 z m 18.1,0.3 v 4.5 h 3 v -4.8 h -3 z m -7.1,-0.3 h -9.6 v 0 c -0.2,2.5 1.7,4.8 4.3,5 0.2,0 0.5,0 0.7,0 2,0 4,-0.9 4.5,-3.1 h -2.8 c -0.3,0.6 -1,1 -1.7,1 -1.1,0 -2,-0.9 -2,-2 0,0 0,-0.1 0,-0.1 h 6.7 c -0.1,-0.3 -0.1,-0.5 -0.1,-0.8 z m -4.7,-4.8 c -2.7,0 -4.9,2.1 -4.9,4.7 0,0 0,0.1 0,0.1 h 9.6 c -0.2,-2.7 -1.8,-4.8 -4.7,-4.8 z m -2,4 c 0,-1.1 0.8,-2 1.9,-2 1,0 1.8,0.9 1.8,1.9 z m -64.4,-4 c -2.7,0 -4.9,2.1 -4.9,4.7 0,0 0,0.1 0,0.1 h 9.6 c -0.2,-2.7 -1.8,-4.8 -4.7,-4.8 z m -2,4 c 0.1,-1 0.9,-1.9 1.9,-1.9 1,0.1 1.8,0.9 1.8,1.9 z m 21.2,-4 c -2.7,0 -4.9,2.1 -4.9,4.7 0,0 0,0.1 0,0.1 h 9.6 c -0.2,-2.7 -1.8,-4.8 -4.7,-4.8 z m -1.9,4 c 0.1,-1 0.9,-1.9 1.9,-1.9 1,0.1 1.8,0.9 1.8,1.9 z m 60.6,-4 c -1.1,0 -2.2,0.6 -2.9,1.5 v 0 -1.3 h -2.9 v 9.3 h 3 v -5.1 c 0,-1 0.5,-2 1.6,-2 1.5,0 1.5,1.1 1.5,2.3 h 3 v -1.3 c 0,-1.2 -0.3,-3.4 -3.3,-3.4 z m -29.8,5.3 c 0,1.6 -1,2.1 -1.6,2.1 -0.9,0 -1.5,-0.4 -1.5,-1.7 v -5.4 h -3 v 5.6 c 0,2.4 0.8,4 3.4,4 1.1,0 2.2,-0.6 2.8,-1.5 v 0 1.3 h 2.9 v -9.3 h -3 z m -20,-3.4 v 0 -1.6 h -2.9 v 9.3 h 3 v -4.6 c 0,0 0,-0.1 0,-0.1 v 0 c 0,-1.2 1,-2.1 2.1,-2.1 0,0 0.1,0 0.1,0 0.4,0 0.8,0.1 1.1,0.2 v -2.8 c -0.2,-0.1 -0.5,-0.1 -0.7,-0.1 -1.2,-0.1 -2.4,0.6 -2.7,1.8 z m 9.8,1.9 3.3,-3.5 h -3.5 l -2.7,3.1 v -6.6 h -3 v 12.8 h 3 v -3 l 0.8,-0.8 2.2,3.8 h 3.6 l -3.1,-4.8 z m -27.9,1.1 -0.4,1.6 v 0 l -0.4,-1.6 -1.2,-4.6 h -3.1 l 1.5,4.6 1.5,4.7 h 3.4 l 1.5,-4.7 1.5,-4.6 h -3 z" />
<g
   id="tsv"
   transform="matrix(0.7308722,0,0,0.7308722,16.677958,-0.09073013)"
   style="fill:#1a1a18;fill-opacity:1">
	<polygon
   fill="#6f6f6e"
   points="146.8,8.7 163.8,8.7 163.8,12.4 157.8,12.4 157.8,29.5 153.1,29.5 153.1,12.4 146.8,12.4 "
   id="polygon17"
   style="fill:#1a1a18;fill-opacity:1" />
	<polygon
   fill="#6f6f6e"
   points="188.9,23.3 193.4,8.7 198,8.7 191.1,29.2 186.8,29.2 179.9,8.7 184.8,8.7 "
   id="polygon19"
   style="fill:#1a1a18;fill-opacity:1" />
	<path
   fill="#6f6f6e"
   d="m 172.2,8.3 c 2.4,-0.1 4.8,0.8 6.5,2.4 0.8,1 1.4,2.3 1.5,3.6 H 176 c 0,0 0,-2.5 -3.5,-2.5 -3.5,0 -3.7,1.5 -3.7,2.2 0,2 3.4,2.1 7.3,3.1 4.5,1.2 4.6,3.9 4.6,5.4 0,3.2 -2.4,6.7 -7.9,6.7 -9.4,0 -9.1,-6.5 -9.1,-6.5 h 4.5 c 0,0 0,2.6 4.4,2.6 3.4,0 3.6,-1.4 3.6,-2.1 0,-1.5 -0.8,-2.3 -6.3,-3.3 -5.5,-1 -5.5,-4.6 -5.5,-5.7 0,-1.1 0.4,-5.9 7.8,-5.9 z"
   id="path21"
   style="fill:#1a1a18;fill-opacity:1" />
</g>
<g
   id="_04"
   transform="matrix(2.4576385,0,0,2.4576385,-250.14051,-128.89829)"
   style="fill:#b3b3b3">
	<path
   fill="#6f6f6e"
   d="M 188.3,78.1 V 66 h -6.2 l -9.3,10.5 v 5.3 h 9.4 v 4.9 h 6.1 v -4.9 h 2.6 v -3.6 z m -6.2,-0.3 H 177 l 5.1,-5.9 z"
   id="path24"
   style="fill:#b3b3b3" />
	<path
   fill="#6f6f6e"
   d="m 162.4,65.5 c -6.1,0 -9.4,5.4 -9.4,11 0,5.6 3.6,10.6 9.4,10.6 5.8,0 9.4,-5 9.4,-10.6 0,-5.6 -3.3,-11 -9.4,-11 z m 0,17 c -2.3,0 -3.7,-2.9 -3.7,-6.1 0,-3.2 1.3,-6.3 3.7,-6.3 2.4,0 3.7,3.1 3.7,6.3 0,3.2 -1.4,6.1 -3.7,6.1 z"
   id="path26"
   style="fill:#b3b3b3" />
</g>
<g
   id="linker-kasten-inhalt"
   transform="translate(-0.03,-0.03)">
	<path
   fill="#e3000f"
   d="M 106.4,4 0.4,44.9 V 15.6 C 0.4,7.3 7.2,0.5 15.5,0.5 h 81.2 c 3.6,0 7,1.2 9.7,3.5 z"
   id="path29" />
	<path
   fill="#ffffff"
   d="M 0.5,44.9 106.5,4 c 3.5,2.9 5.5,7.1 5.5,11.6 V 67.7 L 6.2,108.6 C 2.6,105.7 0.5,101.4 0.5,96.8 Z"
   id="path31" />
	<path
   fill="#e3000f"
   d="M 6.2,108.6 111.9,67.7 v 29.1 c 0,8.4 -6.8,15.1 -15.1,15.1 H 15.6 c -3.4,0 -6.7,-1.2 -9.4,-3.3 z"
   id="path33" />
</g>
<path
   id="linker-kasten"
   fill="none"
   stroke="#1a1a18"
   stroke-width="0.94"
   stroke-miterlimit="3.86"
   d="m 15.57,111.87 c -8.4,0 -15.1,-6.8 -15.1,-15.1 v -81.2 c 0,-8.3 6.8,-15.1 15.1,-15.1 h 81.2 c 8.3,0 15.1,6.8 15.1,15.1 v 81.2 c 0,8.4 -6.8,15.1 -15.1,15.1 h -81.2 z" />
<g
   id="g57"
   transform="translate(-0.03,-0.03)">
	<path
   fill="#181715"
   d="m 54.2,36.5 h 3.3 c 0.4,0 0.7,-0.3 0.7,-0.7 0,-0.4 -0.3,-0.7 -0.7,-0.7 h -3.3 z m 0,3.1 h 3.4 c 0.4,0 0.7,-0.3 0.7,-0.7 0,-0.4 -0.3,-0.7 -0.7,-0.7 h -3.4 z m 5.3,-2.4 c 0.4,0.4 0.7,1 0.7,1.7 0,1.3 -1.1,2.4 -2.4,2.4 h -5.5 v -7.8 h 5.4 c 1.3,0 2.3,1 2.3,2.3 0,0.5 -0.2,1 -0.5,1.4 z"
   id="path37" />
	<path
   fill="#181715"
   d="m 60.7,50.6 h -2 l -0.6,-1.3 h -4.4 l -0.6,1.3 h -2 L 55,42.8 h 1.8 z m -4.8,-5.8 -1.4,2.8 h 2.7 z"
   id="path39" />
	<polygon
   fill="#181715"
   points="56.8,57.4 56.8,60.1 55,60.1 55,57.4 51,52.3 53.2,52.3 55.9,55.9 58.6,52.3 60.8,52.3 "
   id="polygon41" />
	<polygon
   fill="#181715"
   points="63.8,54 63.8,55.3 68.8,55.3 68.8,57 63.8,57 63.8,58.5 69,58.5 69,60.1 61.9,60.1 61.9,52.3 69,52.3 69,54 "
   id="polygon43" />
	<path
   fill="#181715"
   d="m 74.9,57.2 h -1.4 v 3 h -1.9 v -7.8 h 4.8 c 1.3,0 2.4,1.1 2.4,2.4 0,1.1 -0.7,2 -1.7,2.3 l 2.3,3.1 H 77.2 Z M 76.2,54 h -2.7 v 1.5 h 2.7 c 0.4,0 0.7,-0.3 0.7,-0.7 0,-0.5 -0.3,-0.8 -0.7,-0.8 z"
   id="path45" />
	<path
   fill="#181715"
   d="m 51.9,60.1 h -2 l -0.6,-1.3 h -4.4 l -0.6,1.3 h -2 l 3.9,-7.8 H 48 Z M 47,54.3 45.6,57.1 h 2.8 z"
   id="path47" />
	<path
   fill="#181715"
   d="m 35.2,55.3 h 3.3 c 0.4,0 0.7,-0.3 0.7,-0.7 0,-0.4 -0.3,-0.7 -0.7,-0.7 h -3.3 z m 0,3.2 h 3.4 c 0.4,0 0.7,-0.3 0.7,-0.7 0,-0.4 -0.3,-0.7 -0.7,-0.7 h -3.4 z m 5.3,-2.4 c 0.4,0.4 0.7,1 0.7,1.7 0,1.3 -1.1,2.4 -2.4,2.4 h -5.5 v -7.8 h 5.4 c 1.3,0 2.3,1 2.3,2.3 0,0.5 -0.2,1 -0.5,1.4 z"
   id="path49" />
	<polygon
   fill="#181715"
   points="54.2,63.5 54.2,64.8 59.2,64.8 59.2,66.5 54.2,66.5 54.2,68 59.4,68 59.4,69.7 52.4,69.7 52.4,61.8 59.4,61.8 59.4,63.5 "
   id="polygon51" />
	<path
   fill="#181715"
   d="m 58.1,73.9 c 0,-0.4 -0.3,-0.7 -0.7,-0.7 h -3.2 v 1.5 h 3.2 c 0.4,0 0.7,-0.3 0.7,-0.8 z m -5.7,5.4 v -7.8 h 5.2 c 1.3,0 2.4,1.1 2.4,2.4 0,1 -0.6,1.9 -1.5,2.2 l 2.4,3.2 h -2.2 l -2.2,-3 h -2.1 v 3 z"
   id="path53" />
	<path
   fill-rule="evenodd"
   clip-rule="evenodd"
   fill="#181715"
   d="m 30.5,56.2 c 0,-14.1 11.4,-25.4 25.4,-25.4 14.1,0 25.4,11.4 25.4,25.4 0,14.1 -11.4,25.4 -25.4,25.4 -14,0 -25.4,-11.4 -25.4,-25.4 z m 53.5,0 c 0,15.5 -12.6,28 -28,28 -15.5,0 -28,-12.6 -28,-28 0,-15.5 12.6,-28 28,-28 15.4,-0.1 28,12.5 28,28 z"
   id="path55" />
</g>
</svg>
