<?xml version="1.0" encoding="utf-8"?>
<!-- Generator: Adobe Illustrator 13.0.0, SVG Export Plug-In . SVG Version: 6.00 Build 14948)  -->
<!DOCTYPE svg PUBLIC "-//W3C//DTD SVG 1.0//EN" "http://www.w3.org/TR/2001/REC-SVG-20010904/DTD/svg10.dtd">
<svg version="1.0" xmlns="http://www.w3.org/2000/svg" xmlns:xlink="http://www.w3.org/1999/xlink" x="0px" y="0px"
	 width="453.78px" height="224.365px" viewBox="0 0 453.78 224.365" enable-background="new 0 0 453.78 224.365"
	 xml:space="preserve">
<g id="Ebene_6">
	<rect x="158.91" y="1.547" fill="#FFFFFF" width="125.25" height="221.291"/>
</g>
<g id="Ebene_1">
	<g id="XMLID_3_">
		<g>
			<path fill="#DD2E19" d="M221.97,144.114l0.06,59.25c0,19.89-3.12,19.5-23.01,19.5H24.3c-13.89,0-19.5-0.72-21.6-7.92
				L221.97,144.114z"/>
			<path d="M221.88,27.504l0.09,116.61L2.7,214.944c-0.93-3.12-1.2-7.44-1.2-13.44v-123l217.8-71.31h0.03
				C221.79,11.214,221.88,17.664,221.88,27.504z"/>
			<path fill="#DD2E19" d="M201.66,1.524c10.05,0,15.12,1.56,17.67,5.67h-0.03L1.5,78.504v-57c0-19.89,7.02-19.89,26.91-19.89
				L201.66,1.524z"/>
		</g>
		<g>
			<path fill="none" stroke="#000000" stroke-width="3" d="M221.97,144.114l0.06,59.25c0,19.89-3.12,19.5-23.01,19.5H24.3
				c-13.89,0-19.5-0.72-21.6-7.92c-0.93-3.12-1.2-7.44-1.2-13.44v-123v-57c0-19.89,7.02-19.89,26.91-19.89l173.25-0.09
				c10.05,0,15.12,1.56,17.67,5.67c2.46,4.02,2.55,10.47,2.55,20.31L221.97,144.114z"/>
			<line fill="none" stroke="#000000" stroke-width="3" x1="1.5" y1="78.504" x2="219.3" y2="7.194"/>
			<line fill="none" stroke="#000000" stroke-width="3" x1="221.97" y1="144.114" x2="2.7" y2="214.944"/>
		</g>
	</g>
</g>
<g id="Ebene_4">
	<path fill="#FFFFFF" stroke="#000000" stroke-width="3" d="M452.28,203.338c0,19.881-3.114,19.5-22.995,19.5h-174.75
		c-19.881,0-22.787-1.494-22.787-21.375v-180c0-19.882,7.031-19.872,26.912-19.872L431.91,1.5c19.881,0,20.221,6.082,20.221,25.964
		L452.28,203.338z"/>
</g>
<g id="Ebene_5">
	<g>
		<path d="M417.927,169.068v-22.244h-53.022c0,0-9.249-85.262,77.06-88.735v70.116h10.253l0.016,18.619h-10.269v22.244H417.927z
			 M417.927,128.205V90.43c-20.078-2.969-33.919,31.011-29.779,37.775H417.927z"/>
	</g>
	<ellipse fill="#FFFFFF" stroke="#000000" stroke-width="21.9574" cx="298.279" cy="114.219" rx="45.742" ry="45.992"/>
	<g>
		<path d="M246.563,197.715v-20.589h4.191v17.092h10.422v3.497H246.563z"/>
		<path d="M264.164,197.715v-20.759h15.392v3.512h-11.2v4.602h10.422v3.498h-10.422v5.65h11.597v3.497H264.164z"/>
		<path d="M288.803,197.715l-7.42-20.759h4.545l5.254,15.363l5.083-15.363h4.446l-7.434,20.759H288.803z"/>
		<path d="M302.85,197.715v-20.759h15.392v3.512h-11.2v4.602h10.422v3.498h-10.422v5.65h11.597v3.497H302.85z"/>
		<path d="M322.206,197.715v-20.759h8.821c2.219,0,3.831,0.187,4.836,0.56c1.006,0.373,1.811,1.036,2.414,1.989
			c0.604,0.953,0.906,2.044,0.906,3.271c0,1.557-0.457,2.844-1.373,3.858s-2.284,1.654-4.106,1.919
			c0.906,0.528,1.654,1.108,2.244,1.741s1.386,1.756,2.386,3.37l2.535,4.05h-5.013l-3.03-4.517
			c-1.076-1.615-1.813-2.632-2.209-3.052s-0.816-0.708-1.26-0.864c-0.444-0.155-1.147-0.233-2.11-0.233h-0.85v8.666H322.206z
			 M326.397,185.735h3.101c2.012,0,3.267-0.085,3.768-0.255c0.5-0.17,0.892-0.463,1.175-0.878s0.425-0.935,0.425-1.558
			c0-0.698-0.187-1.263-0.56-1.692s-0.899-0.701-1.579-0.814c-0.34-0.047-1.359-0.07-3.059-0.07h-3.271V185.735z"/>
		<path d="M343.191,197.715v-20.759h4.191v9.219l8.469-9.219h5.635l-7.816,8.086l8.242,12.673h-5.424l-5.707-9.742l-3.398,3.47
			v6.272H343.191z"/>
		<path d="M364.051,176.956h4.191v11.243c0,1.784,0.052,2.94,0.155,3.47c0.18,0.85,0.606,1.531,1.281,2.046s1.598,0.771,2.769,0.771
			c1.189,0,2.086-0.243,2.69-0.729s0.968-1.083,1.091-1.791c0.122-0.708,0.184-1.883,0.184-3.525v-11.484h4.191v10.903
			c0,2.492-0.113,4.253-0.34,5.282c-0.227,1.028-0.645,1.896-1.253,2.605c-0.609,0.707-1.423,1.271-2.442,1.691
			s-2.352,0.631-3.994,0.631c-1.982,0-3.485-0.229-4.51-0.688s-1.834-1.053-2.428-1.784c-0.596-0.731-0.987-1.498-1.176-2.301
			c-0.273-1.189-0.41-2.945-0.41-5.268V176.956z"/>
		<path d="M383.96,190.96l4.078-0.396c0.245,1.369,0.743,2.375,1.494,3.017c0.75,0.642,1.763,0.963,3.037,0.963
			c1.35,0,2.367-0.285,3.052-0.856s1.026-1.239,1.026-2.004c0-0.491-0.144-0.908-0.432-1.253s-0.791-0.645-1.509-0.899
			c-0.49-0.17-1.609-0.472-3.355-0.906c-2.247-0.557-3.823-1.241-4.729-2.053c-1.274-1.143-1.911-2.535-1.911-4.178
			c0-1.058,0.299-2.046,0.898-2.967c0.6-0.92,1.464-1.621,2.592-2.103s2.489-0.722,4.085-0.722c2.605,0,4.566,0.57,5.884,1.713
			c1.316,1.143,2.008,2.667,2.074,4.574l-4.191,0.184c-0.18-1.066-0.564-1.834-1.154-2.301c-0.59-0.468-1.475-0.701-2.654-0.701
			c-1.219,0-2.172,0.25-2.861,0.75c-0.443,0.321-0.665,0.751-0.665,1.289c0,0.491,0.208,0.911,0.623,1.26
			c0.528,0.444,1.813,0.906,3.852,1.389c2.039,0.48,3.547,0.979,4.524,1.493c0.977,0.515,1.741,1.218,2.294,2.11
			c0.552,0.892,0.828,1.994,0.828,3.307c0,1.189-0.33,2.303-0.991,3.342c-0.661,1.038-1.596,1.81-2.804,2.314
			s-2.714,0.758-4.517,0.758c-2.625,0-4.641-0.606-6.047-1.819S384.233,193.282,383.96,190.96z"/>
		<path d="M404.365,197.715v-20.759h15.392v3.512h-11.2v4.602h10.422v3.498h-10.422v5.65h11.597v3.497H404.365z"/>
		<path d="M423.75,197.715v-20.759h4.078l8.496,13.863v-13.863h3.895v20.759h-4.206l-8.368-13.537v13.537H423.75z"/>
	</g>
</g>
<g id="Ebene_3">
	<path fill-rule="evenodd" clip-rule="evenodd" d="M110.879,54.464c31.668,0,57.687,25.976,57.687,57.684
		c0,31.67-26.019,57.688-57.687,57.688c-31.708,0-57.684-26.019-57.684-57.688C53.195,80.44,79.171,54.464,110.879,54.464
		L110.879,54.464z"/>
	<path fill-rule="evenodd" clip-rule="evenodd" fill="none" stroke="#FFFFFF" d="M110.879,58.163
		c-15.164,0-29.962,6.586-40.125,17.845c-8.861,9.879-13.821,22.89-13.821,36.141c0,15.164,6.546,29.921,17.848,40.087
		c9.836,8.859,22.847,13.863,36.098,13.863c15.164,0,29.963-6.586,40.085-17.848c8.902-9.838,13.86-22.846,13.86-36.103
		c0-15.202-6.543-29.959-17.845-40.125C137.141,63.161,124.133,58.163,110.879,58.163L110.879,58.163z"/>
	<polygon fill-rule="evenodd" clip-rule="evenodd" fill="#FFFFFF" points="110.474,110.036 115.718,102.961 121.207,102.961 
		112.71,113.977 112.71,120.806 108.238,120.806 108.238,113.977 99.742,102.961 105.229,102.961 110.474,110.036 	"/>
	<polygon fill-rule="evenodd" clip-rule="evenodd" fill="#FFFFFF" points="94.782,102.961 103.563,120.806 98.521,120.806 
		96.897,117.272 87.871,117.272 86.245,120.806 81.203,120.806 89.985,102.961 94.782,102.961 	"/>
	<path fill-rule="evenodd" clip-rule="evenodd" fill="#FFFFFF" d="M62.097,102.961h11.016c3.089,0,6.708,0.489,6.708,4.31
		c0,1.954-1.14,2.968-2.804,3.659c2.316,0.53,3.779,2.279,3.779,4.673c0,3.826-2.886,5.203-6.258,5.203H62.097V102.961
		L62.097,102.961z"/>
	<polygon fill-rule="evenodd" clip-rule="evenodd" fill="#FFFFFF" points="139.419,117.595 139.419,120.806 122.102,120.806 
		122.102,102.961 138.93,102.961 138.93,106.172 126.613,106.172 126.613,110.077 138.524,110.077 138.524,113.288 126.613,113.288 
		126.613,117.595 139.419,117.595 	"/>
	<path fill-rule="evenodd" clip-rule="evenodd" fill="#FFFFFF" d="M146.573,113.695v7.11h-4.472v-17.845h11.993
		c3.497,0,6.952,1.219,6.952,5.326c0,3.132-1.789,4.796-4.635,5.408l5.326,7.11h-5.326l-4.676-7.11H146.573L146.573,113.695z"/>
	<path fill-rule="evenodd" clip-rule="evenodd" fill="#FFFFFF" d="M101.285,63.161h11.02c3.089,0,6.706,0.492,6.706,4.351
		c0,1.91-1.137,2.927-2.807,3.659c2.319,0.53,3.784,2.235,3.784,4.676c0,3.823-2.887,5.203-6.262,5.203h-12.441V63.161
		L101.285,63.161z"/>
	<polygon fill-rule="evenodd" clip-rule="evenodd" fill="#FFFFFF" points="113.075,83.042 121.816,100.89 116.816,100.89 
		115.19,97.351 106.164,97.351 104.497,100.89 99.499,100.89 108.278,83.042 113.075,83.042 	"/>
	<polygon fill-rule="evenodd" clip-rule="evenodd" fill="#FFFFFF" points="120.676,137.353 120.676,140.563 102.14,140.563 
		102.14,122.719 120.231,122.719 120.231,125.93 106.652,125.93 106.652,129.835 119.824,129.835 119.824,133.046 106.652,133.046 
		106.652,137.353 120.676,137.353 	"/>
	<path fill-rule="evenodd" clip-rule="evenodd" fill="#FFFFFF" d="M106.652,153.372v7.113h-4.512V142.6h12.035
		c3.494,0,6.91,1.219,6.91,5.323c0,3.132-1.749,4.84-4.594,5.449l5.325,7.113h-5.325l-4.717-7.113H106.652L106.652,153.372z"/>
	<polygon fill-rule="evenodd" clip-rule="evenodd" points="95.433,114.062 92.425,107.555 92.383,107.599 92.343,107.555 
		89.374,114.062 95.433,114.062 	"/>
	<path fill-rule="evenodd" clip-rule="evenodd" d="M66.569,109.834h6.543c1.22,0,2.278-0.407,2.357-1.79
		c0.123-1.506-1.096-1.872-2.357-1.872h-6.543V109.834L66.569,109.834z"/>
	<path fill-rule="evenodd" clip-rule="evenodd" d="M66.569,117.595h6.543c1.668,0,3.089-0.486,3.089-2.399
		c0-2.071-1.381-2.273-3.089-2.273h-6.543V117.595L66.569,117.595z"/>
	<path fill-rule="evenodd" clip-rule="evenodd" d="M146.573,110.481h7.033c1.422,0,2.887-0.404,2.887-2.153
		s-1.422-2.156-2.887-2.156h-7.033V110.481L146.573,110.481z"/>
	<path fill-rule="evenodd" clip-rule="evenodd" d="M105.757,70.031h6.548c1.219,0,2.273-0.404,2.395-1.749
		c0.085-1.541-1.137-1.866-2.395-1.866h-6.548V70.031L105.757,70.031z"/>
	<path fill-rule="evenodd" clip-rule="evenodd" stroke="#FFFFFF" d="M105.757,77.798h6.548c1.707,0,3.129-0.486,3.129-2.399
		c0-2.03-1.422-2.235-3.129-2.235h-6.548V77.798L105.757,77.798z"/>
	<polygon fill-rule="evenodd" clip-rule="evenodd" points="113.685,94.099 110.679,87.595 110.679,87.677 110.636,87.595 
		107.626,94.099 113.685,94.099 	"/>
	<path fill-rule="evenodd" clip-rule="evenodd" d="M106.652,150.117h6.993c1.463,0,2.886-0.401,2.886-2.112
		c0-1.746-1.422-2.153-2.886-2.153h-6.993V150.117L106.652,150.117z"/>
</g>
</svg>
