<svg height="316.227766" viewBox="0 0 400 400" width="316.227766" xmlns="http://www.w3.org/2000/svg"><g fill-rule="evenodd"><path d="m182.4 14.049c-9.021.956-15.284 7.314-15.319 15.551-.029 6.985 3.818 10.723 11.961 11.619 4.029.444 5.758 1.109 5.758 2.217 0 3.043-4.797 3.794-9.878 1.546-3.801-1.681-3.704-1.779-5.527 5.583-1.06 4.279-.922 4.734 1.701 5.588 14.562 4.742 27.917-1.841 27.897-13.753-.013-8.086-3.355-11.329-13.193-12.805-3.862-.58-4.6-.93-4.6-2.186 0-2.265 4.37-2.957 8.622-1.366 2.759 1.032 2.772 1.021 3.992-3.489 1.248-4.61 1.258-5.957.054-6.746-2.288-1.499-7.039-2.228-11.468-1.759m33.201.617c-7.364 1.446-12.231 6.67-12.708 13.638-.431 6.299 2.567 9.908 10.24 12.323 4.384 1.38 5.163 2.201 3.856 4.068-1.428 2.038-5.165 1.436-9.36-1.507-3.215-2.255-3.364-2.173-6.117 3.353-2.78 5.583-2.8 5.503 1.915 7.699 14.82 6.903 28.745 1.188 28.706-11.784-.018-6.051-3.047-9.513-10.533-12.035-3.454-1.164-4.48-1.86-4.325-2.933.342-2.36 4.279-2.387 8.151-.055 3.305 1.99 3.182 2.068 5.966-3.799 1.927-4.059 1.871-4.555-.692-6.156-2.978-1.861-3.91-2.206-7.776-2.88-3.953-.689-3.447-.694-7.323.068m-64.944 5.322c-7.729 2.686-7.431 1.025-2.691 15.029 4.937 14.587 5.004 15.822.913 16.849-3.024.759-3.524-.101-8.418-14.47-2.232-6.552-4.175-11.628-4.526-11.825-.56-.313-7.278 1.708-11.4 3.43-1.947.814-1.672 1.972 4.934 20.799 4.118 11.736 8.178 15.553 16.531 15.542 12.754-.017 21.87-8.535 20.387-19.05-.455-3.232-8.12-26.478-9.097-27.592-.755-.861-.062-.995-6.633 1.288m91.153-.008c-.335.649-.61 1.439-.61 1.754 0 .316-.269 1.45-.598 2.52s-1.5 5.276-2.601 9.346c-2.635 9.74-2.664 9.845-3.378 12.4-4.019 14.381-4.279 12.891 2.577 14.79 6.682 1.85 7.648 1.828 8.303-.19.406-1.254 4.209-15.085 6.873-25 .207-.77.639-2.3.961-3.4 3.016-10.322 3.094-9.955-2.427-11.378-1.93-.498-4.281-1.156-5.224-1.464-2.512-.818-3.187-.71-3.876.622m35.322 13.72c-1.017.935-7.313 7.01-13.989 13.5-6.677 6.49-12.726 12.367-13.441 13.06-2.028 1.963-1.845 2.191 4.298 5.335 1.87.957 3.99 2.07 4.712 2.473 1.935 1.079 2.579.923 4.461-1.085 1.146-1.223 1.855-1.698 2.165-1.453.254.201 2.307 1.313 4.562 2.471 4.45 2.287 4.502 2.364 3.63 5.274-.624 2.084-.032 2.632 6.556 6.07 6.533 3.41 6.333 3.42 6.921-.345.138-.88.416-2.5.619-3.6s.64-3.8.973-6c.332-2.2.783-4.99 1.002-6.2 1.216-6.718 3.599-21.978 3.599-23.051 0-1.487-.136-1.611-4-3.658-10.123-5.363-9.44-5.205-12.068-2.791m-171.371 6.888c-4.675 1.144-21.184 11.536-20.877 13.141.095.496 3.755 6.385 8.133 13.086 4.377 6.702 9.076 13.895 10.44 15.985 4.065 6.227 3.152 6.034 9.378 1.977 6.665-4.343 6.472-3.523 2.326-9.893-3.911-6.009-4.079-5.929 3.121-1.484 3.028 1.87 5.78 3.4 6.116 3.4.507 0 8.805-5.15 11.902-7.387 1.9-1.373 1.571-1.619-7.9-5.91-1.21-.548-3.045-1.38-4.078-1.85-1.033-.469-2.237-.853-2.676-.853-1.295 0-1.304-.573-.046-3.054 4.4-8.676-5.718-19.636-15.839-17.158m174.239 7.851c0 .575-3.151 11.245-3.392 11.486-.349.35-4.622-2.125-4.515-2.615.322-1.473 7.907-9.982 7.907-8.871m-172.206 5.394c2.546 1.668 1.165 7.753-1.554 6.847-.457-.152-3.84-4.934-3.84-5.427 0-1.302 3.977-2.349 5.394-1.42m206.806 7.869c-.88.221-2.167.648-2.86.95-.694.301-1.382.548-1.53.548-3.184 0-11.774 9.42-14.012 15.367-3.795 10.083 2.301 21.24 13.159 24.08 10.312 2.697 24.373-7.653 26.885-19.788 2.477-11.969-9.927-24.095-21.642-21.157m-106.661 5.598c-.034.715-.017 4.36.038 8.1.17 11.602-1.778 12.801-8.138 5.008-8.51-10.429-13.271-12.306-27.355-10.79-6.658.717-8.195 1.704-8.62 5.533-.454 4.097-1.86 5.054-6.864 4.673-3.971-.302-4.266-.112-4.632 2.996-.317 2.69-.816 3.318-2.368 2.982-2.542-.55-12.824-.7-14.681-.214-7.063 1.85-13.319 5.532-13.319 7.838 0 .887.381.941 8 1.125 12.374.299 20.976 2.94 29.526 9.066 4.813 3.449 5.306 3.3 4.966-1.501-.546-7.689 6.426-6.384 7.928 1.484 1.018 5.333 4.049 8.099 5.855 5.342 1.297-1.98.883-15.123-.707-22.413-.742-3.402.669-3.864 3.549-1.163 6.557 6.149 7.01 12.645 1.701 24.39-1.574 3.48-1.622 3.686-1.04 4.482.677.925 3.939.961 5.622.062 2.664-1.423 4.315-3.301 10.691-12.164 1.931-2.684 3.87-2.414 3.338.464-1.11 6.004-.494 7.234 2.721 5.428 3.637-2.043 5.581-.585 6.028 4.519.666 7.623.843 7.978 4.173 8.373 3.764.445 4.907 1.889 5.425 6.854.318 3.038 2.154 4.757 3.228 3.02.436-.705 3.149-1.642 4.08-1.409 1.436.361 1.807 1.507 1.333 4.121-.481 2.653-.639 6.806-.272 7.172.297.297 5.756-.617 6.731-1.127 2.682-1.403.487 2.377-2.703 4.653-5.59 3.99-6.543 9.579-3.334 19.562 1.987 6.18-.328 7.673-3.02 1.947-3.081-6.556-3.073-6.548-7.148-6.939-5.539-.531-6.631-2.522-6.655-12.128-.02-8.317-.293-9.378-2.985-11.59-6.003-4.93-7.303-7.06-7.784-12.76-.734-8.704-5.303-7.461-10.847 2.952-5.454 10.243-9.942 14.313-17.35 15.73-3.821.731-5.409 1.482-7.774 3.676-2.009 1.863-1.996 2.011.274 3.317 1.196.689.109 4.028-1.312 4.029-1.38.001-5.621 2.598-7.932 4.858-3.751 3.667-5.618 6.723-10.102 16.528-2.483 5.43-7.011 10.614-9.272 10.614-1.226 0-9.043 6.083-13.346 10.386-10.582 10.581-16.232 22.385-12.624 26.372 2.265 2.503 6.987-.493 10.014-6.353 2.843-5.505 4.156-6.51 6.042-4.623.779.779.991 1.419 1.024 3.1.196 9.749.326 12.389.703 14.216 1.341 6.495 4.492 5.373 9.262-3.298 1.982-3.603 2.13-3.8 2.862-3.8 1.189 0 1.76 4.892 2.126 18.2.395 14.376 1.131 21.056 2.373 21.532 2.845 1.092 8.61-5.212 9.631-10.532 1.317-6.867 5.796-5.709 5.8 1.5.001 3.985.593 4.872 3.301 4.947 4.494.125 5.196.939 2.21 2.562-11.327 6.157-23.11 16.882-23.11 21.036 0 2.382 2.638.98 8-4.252 6.752-6.588 9.861-8.488 16.779-10.249 3.761-.957 4.221-.649 4.221 2.828 0 3.011-.714 3.865-3.532 4.228-12.973 1.673-27.368 12.29-26.712 19.7.124 1.4 2.075.302 6.13-3.449 7.876-7.287 13.303-10.19 21.414-11.456 2.439-.381 2.124.103-1.81 2.778-12.401 8.434-18.242 14.795-20.082 21.868-1.377 5.295.357 5.008 5.082-.841 8.093-10.017 11.617-13.202 18.357-16.592 4.882-2.456 5.064-2.275 1.955 1.943-9.321 12.648-13.519 31.449-7.022 31.449 1.695 0 2.111-.865 2.462-5.114.529-6.412 1.506-9.969 4.253-15.486 2.61-5.245 7.775-11.364 8.553-10.136.679 1.071.259 9.187-.911 17.608-.676 4.865.374 5.785 4.53 3.972 1.772-.773 2.197-1.122 4.867-3.994 2.246-2.417 3.235-1.998 4.233 1.79.904 3.433 2.924 5.343 5.663 5.354 1.717.007 2.795 1.024 3.82 3.602 3.416 8.596 7.185 10.432 11.314 5.514 4.616-5.497 6.17-5.887 9.527-2.391 2.447 2.548 3.689 3.129 5.814 2.722 4.706-.9 4.438-.964 6.975 1.663 4.13 4.278 5.183 4.208 8.567-.571 3.203-4.522 4.17-4.784 8.353-2.261 3.806 2.294 4.476 1.974 5.202-2.484.643-3.951 2.168-5.092 4.798-3.588 3.531 2.018 9.912-2.653 11.329-8.293 2.725-10.848-3.032-18.057-12.413-15.542-8.944 2.397-12.618 2.574-17.716.852-5.079-1.716-7.318-1.588-11.886.679-8.397 4.166-13.777 4.568-24.515 1.832-3.538-.902-5-1.064-9.287-1.032-5.647.043-6.426-.238-7.688-2.767-.94-1.885-.795-3.337.43-4.3 1.434-1.128 1.452-1.124 6.464 1.383 11.019 5.511 23.267 6.544 32.078 2.704 10.409-4.536 6.125-13.417-12.537-25.993-6.421-4.328-7.034-5.282-5.641-8.774 1.681-4.215 2.106-4.27 5.753-.749 3.694 3.566 4.411 3.558 9.235-.1 2.103-1.595 3.217-1.637 7.833-.3 5.103 1.479 12.561 1.173 14.761-.605 1.133-.916 3.265-.844 5.182.175 3.015 1.603 5.265.876 7.984-2.58 2.278-2.896 3.407-2.607 4.008 1.025.969 5.854-6.056 13.592-18.174 20.018-10.003 5.305-10.154 14.738-.258 16.209 9.893 1.472 20.167-1.555 23.462-6.911 1.082-1.758 1.35-1.963 2.31-1.773.597.118 1.795.337 2.661.487 1.755.303 5.761 1.853 7.375 2.852.578.358 2.22 1.4 3.65 2.316 5.555 3.557 8.713 3.073 6.6-1.012-1.372-2.654-9.733-6.899-16.187-8.219-3.012-.616-3.576-1.729-1.513-2.986 3.466-2.114 17.423-.376 25.7 3.2 2.383 1.03 7.138 1.552 7.582.833 2.601-4.208-14.277-9.807-29.305-9.721-5.536.032-5.841-.32-1.877-2.168 5.584-2.603 22.437.649 33.009 6.369 5.012 2.712 7.591 2.873 7.591.473 0-1.7-2.281-3.636-7.273-6.174-2.726-1.385-3.924-2.328-6.63-5.218-8.182-8.736-17.904-11.967-27.27-9.064-1.195.371-2.298.674-2.452.674-.153 0-.356-1.064-.45-2.364-.129-1.786-.459-2.777-1.348-4.054-3.234-4.646-2.613-5.982 2.78-5.982 5.222 0 5.527-4.713 1.598-24.646-1.612-8.177-1.338-10.234 2.015-15.132 2.392-3.493 3.03-6.469 3.03-14.126 0-10.808-1.213-17.244-4.057-21.523-2.714-4.084-4.439-8.403-4.942-12.373-1.147-9.055-3.475-13.828-8.705-17.844-2.248-1.726-2.723-2.325-3.468-4.368-.961-2.635-1.989-3.588-3.868-3.588-1.669 0-2.112-.625-2.598-3.66-.662-4.128-1.741-5.175-5.701-5.53l-2.339-.21-.661-1.962c-1.02-3.028-1.875-3.355-4.288-1.639-3.613 2.569-5.607 1.328-5.262-3.274.247-3.306 2.358-11.165 3.233-12.041.853-.853 2.492-.008 2.848 1.467 1.136 4.715 1.631 5.111 5.577 4.46 3.341-.552 3.949-.303 4.928 2.015 1.174 2.778 2.234 2.694 7.875-.626 5.858-3.447 9.766.009 5.428 4.8-2.107 2.327-2.312 3.05-2.033 7.19.187 2.769.811 3.3 9.769 8.31 1.714.958 2.327.892 5.098-.55 3.407-1.773 7.859-.518 8.287 2.337.114.76-2.633 2.513-3.939 2.513-.862 0-4.029 1.656-4.245 2.22-.551 1.436.312 2.492 4.042 4.945 7.656 5.036 16.336 13.765 17.229 17.326.932 3.712-4.156 2.544-10.791-2.478-3.456-2.616-5.727-3.678-7.937-3.711-3.398-.052-3.54 1.178-.573 4.982 7.688 9.858 10.709 13.273 14.378 16.252 3.415 2.773 5.628 5.088 10.479 10.964 5.907 7.156 9.114 8.465 10.265 4.193.948-3.515-.188-7.481-3.379-11.794-2.755-3.725-2.607-4.181 1.256-3.859 3.992.333 4.328-.118 4.227-5.678-.215-11.795-5.463-23.559-12.291-27.553-3.104-1.815-3.22-1.981-4.277-6.13-2.516-9.864-9.63-15.275-20.091-15.278-3.775-.002-3.983-1.595-.718-5.484 6.483-7.72 3.432-12.917-7.583-12.917-6.326 0-8.027-1.107-8.301-5.402-.271-4.266-.739-4.42-6.584-2.167-3.833 1.477-4.673.48-4.684-5.557-.009-5.25-1.015-5.343-7.604-.705-3.107 2.187-4.792 1.134-6.274-3.92-1.214-4.138-3.409-4.982-5.87-2.258-3.29 3.641-4.091 7.412-4.645 21.854-.443 11.566-1.218 14.192-3.256 11.042-1.624-2.51-3.393-2.187-4.997.913-1.524 2.944-2.184 3.125-4.087 1.118-4.96-5.23-5.75-11.987-1.756-15.019 3.052-2.317 3.388-3.143 3.724-9.143.312-5.582.574-6.347 3.398-9.956 2.76-3.527 3.749-6.85 2.377-7.988-.685-.569-2.013.229-5.103 3.066-3.502 3.214-5.123 3.106-7.146-.479-2.268-4.018-6.288-5.832-6.426-2.899m-135.139.687c-14.526 3.061-22.145 20.565-14.295 32.838 9.795 15.311 30.804 13.781 38.778-2.825 7.41-15.432-7.418-33.609-24.483-30.013m248.278 7.595c3.293 2.008 2.315 6.274-2.46 10.742-7.537 7.05-14.042 2.295-8.026-5.867 3.512-4.766 7.571-6.652 10.486-4.875m-241.365 6.957c6.153 2.579 7.421 10.039 2.321 13.654-6.133 4.347-15.002-3.435-11.697-10.262 1.626-3.359 5.827-4.879 9.376-3.392m260.185 10.27c-9.925 2.507-15.03 12.291-10.614 20.342l1.18 2.15-1.532-.275c-.843-.151-2.072-.445-2.732-.654-2.22-.703-8.391-2.306-9.39-2.44-1.743-.233-1.322.878 2.893 7.629 4.464 7.148 5.274 7.988 8.166 8.471 1.062.177 4.001.724 6.531 1.215 11.532 2.236 18.516.592 24.199-5.699 10.79-11.943-3.051-34.693-18.701-30.739m-214.282 8.059c-14.255 2.035-27.352 15.334-28.562 29.003-1.611 18.193 9.665 32.926 25.203 32.929 1.683 0 2.143.42 2.143 1.956 0 1.433-1.008 2.074-4.406 2.801-8.831 1.891-15.679 6.732-22.694 16.043-1.575 2.09-4.131 5.237-5.68 6.993-5.787 6.56-5.576 8.306.78 6.449 4.479-1.308 5.818.257 2.439 2.852-2.869 2.204-3.519 3.605-4.187 9.024-1.448 11.742.612 11.357 15.548-2.907 1.54-1.471 6.76-5.975 11.6-10.009 17.82-14.853 19.106-16.643 14.8-20.619-3.123-2.883-3.012-3.982.6-5.957 3.921-2.144 6.374-4.997 9.489-11.034 4.494-8.71 8.218-12.565 16.111-16.675 3.373-1.756 10.872-4.916 11.675-4.919.289-.001 1.065-.437 1.725-.968l1.2-.966-.737-1.384c-.826-1.551-1.73-2.13-4.046-2.593l-1.584-.316-.016-3.785c-.066-14.894-22.083-28.677-41.401-25.918m-83.444 5.162c-2.26 1.098-4.312 3.137-6.325 6.287-2.608 4.083-8.712 16.428-8.571 17.337.094.609 2.868 2.201 11.524 6.614 23.294 11.875 24.551 12.479 25.222 12.12.704-.376 9.092-16.594 10.237-19.792 3.906-10.908-6.649-20.61-15.707-14.438l-1.552 1.057-.208-1.711c-.717-5.912-9.056-10.175-14.62-7.474m305.889 1.825c1.006.911 1.468 2.833 1.093 4.545-.899 4.1-7.218 5.021-9.107 1.326-2.348-4.591 4.16-9.359 8.014-5.871m-207.534 2.261c6.427 2.939 11.659 12.044 10.98 19.11-.306 3.186-1.615 4.504-6.107 6.147-8.872 3.247-11.925 6.517-12.597 13.494-.655 6.795-4.919 10.177-9.603 7.617-4.599-2.514-3.26-8.484 1.904-8.484 3.296 0 .885-3.868-2.771-4.446-3.345-.529-4.334-2.219-4.332-7.4.003-4.44 1.902-6.554 4.807-5.351.655.272 1.192.622 1.192.779 0 .598 3.108 3.618 3.723 3.618.355 0 1.029-.405 1.496-.9.879-.93.889-1.364.135-6.018-.603-3.723 2.157-4.072 5.384-.682 5.092 5.352 7.961 1.098 3.266-4.843-.808-1.022-1.88-2.957-2.382-4.299-1.793-4.794-4.055-5.747-10.924-4.605-3.936.654-4.355.661-4.939.078-3.557-3.558 14.198-6.819 20.768-3.815m-93.016 9.307c1.336.936.747 5.777-.704 5.777-.865 0-4.786-2.213-4.796-2.708-.055-2.615 3.397-4.542 5.5-3.069m43.025 4.116c-8.929 7.1-13.172 14.336-13.616 23.225-.268 5.377-.706 6.436-2.66 6.436-4.51 0-4.732 3.638-.339 5.528 2.948 1.268 3.212 1.774 1.827 3.508-3.377 4.228-3.034 6.256.903 5.342 6.069-1.408 6.548.004 1.541 4.541-15.111 13.689-17.968 19.171-10.472 20.093 3.836.472 4.25 1.762 2.502 7.805-2.495 8.624-2.49 17.398.013 27.372 1.859 7.402 3.096 7.173 9.748-1.799 3.605-4.861 4.561-6.933 6.37-13.799 1.577-5.981.849-8.991-2.173-8.991-6.896 0-5.304-6.81 4.092-17.501 6.002-6.83 8.686-10.197 11.716-14.699 6.712-9.974 5.909-14.128-2.987-15.451-5.094-.758-5.775-1.848-3.979-6.373 1.898-4.78 1.458-7.227-1.88-10.453-2.595-2.509-2.495-3.591 1.042-11.268 2.314-5.021 1.752-6.219-1.648-3.516m-28.567 1.497c1.478 1.243 1.593 2.613.432 5.162-1.092 2.396-1.24 2.43-4.244.951-3.192-1.571-3.305-1.804-1.94-4.012 2.039-3.296 3.638-3.88 5.752-2.101m199.849 15.546c.644.643.983 1.436.984 2.3.005 2.586.753 4.159 2.982 6.267 3.446 3.259 4.189 5.06 3.002 7.277-.962 1.798-2.618.569-5.693-4.226-.988-1.54-2.463-3.43-3.278-4.2-2.487-2.348-3.208-4.538-2.15-6.526 1.089-2.045 2.663-2.383 4.153-.892m-64.332.859c7.14 2.392 5.547 5.757-2.727 5.758-4.611.001-4.097-.189-8.386 3.102-4.339 3.329-8.061 2.356-5.15-1.346 5.894-7.497 10.273-9.52 16.263-7.514m152.314 1.344c-4.031.876-8.505 3.983-10.032 6.966-4.893 9.564.905 23.748 10.451 25.565 2.263.43 2.431-.037 1.434-3.984-1.837-7.271-2.03-7.745-3.495-8.61-2.378-1.403-2.346-4.264.06-5.411 2.203-1.051 2.089-1.274 4.965 9.689 2.237 8.524 2.359 8.684 5.641 7.39 18.146-7.152 9.984-35.738-9.024-31.605m-330.087 6.915c-.212.275-.698 2.48-1.08 4.9s-.831 5.127-.998 6.016c-.479 2.561.012 3.108 4.505 5.007 3.746 1.583 5.833 2.483 10.06 4.341.88.386 2.816 1.21 4.301 1.83 3.919 1.635 4.057 2.038.8 2.34-1.486.138-5.671.519-9.301.848-14.017 1.267-12.797.78-13.58 5.418-.279 1.65-.76 4.431-1.07 6.179-.711 4.013-.37 4.586 2.324 3.901.949-.242 3.346-.729 5.326-1.082 3.801-.679 4.645-.838 12.6-2.37 2.75-.53 6.62-1.262 8.6-1.627 15.284-2.815 14.358-2.399 15.168-6.806 1.617-8.804 2.677-7.331-10.568-14.688-8.474-4.707-11.047-6.141-14.4-8.026-13.181-7.411-12.133-6.901-12.687-6.181m340.198 5.723c1.277.894 1.198 2.959-.166 4.322-1.544 1.545-1.998 1.154-2.731-2.345-.139-.66-.346-1.515-.46-1.9-.274-.924 2.072-.978 3.357-.077m-157.911 4.546c0 1.579-.045 1.654-3.714 6.171-.723.89-1.24 2.149-1.474 3.586-.198 1.217-.642 2.758-.986 3.424-.92 1.779-.763 2.882.635 4.45 1.871 2.099 2.719 4.265 2.739 7 .019 2.65.688 4.415 2.916 7.694 2.664 3.922 4.12 10.003 2.623 10.952-1.682 1.066-3.331-.594-3.73-3.754-.802-6.35-3.415-8.284-9.01-6.667-4.105 1.186-5.346.915-12.942-2.824-8.707-4.286-12.188-3.957-16.179 1.53-3.119 4.288-5.758 5.102-5.997 1.849-.224-3.039 2.504-5.616 9.919-9.369 2.53-1.281 5.836-2.969 7.347-3.752 4.509-2.337 7.591-2.459 6.452-.256-.763 1.473-.769 4.417-.014 6.224 2.767 6.62 14.013 4.626 14.534-2.578.311-4.306-3.19-5.585-6.224-2.274-1.688 1.842-1.695 1.839-1.695-.926 0-2.408-.339-3.04-1.774-3.306-.45-.084-1.202-.979-1.8-2.143-.847-1.652-1.394-2.171-3.139-2.982-3.932-1.828-1.438-3.646 5.513-4.016 6.028-.322 9.037-2.006 13.179-7.375 2.067-2.678 2.821-2.855 2.821-.658m50.205 4.848c.461 1.453-.25 4.1-2.122 7.893-2.027 4.107-2.035 5.099-.055 6.573 1.269.945 2.593.482 3.785-1.324.962-1.457 7.948-7.959 8.552-7.959.254 0 .435.82.435 1.974 0 3.324.461 4.026 2.644 4.026 2.858 0 4.831.765 6.371 2.469 4.014 4.443-4.149 15.095-12.191 15.905-5.877.593-6.178 3.079-.945 7.813 5.651 5.111 11.161 13.813 8.748 13.813-.696 0-1.998 1.524-2.99 3.5-1.428 2.845-2.437 2.142-2.437-1.698 0-8.437-4.308-15.802-9.242-15.802-3.293 0-3.21 3.587.197 8.552 2.391 3.484 2.818 5.303 1.739 7.416-.901 1.767-1.396 1.404-1.699-1.249-.337-2.945-.866-4.124-3.201-7.137l-1.719-2.219-.137-4.381c-.214-6.802-2.829-11.134-8.416-13.945-4.084-2.054-3.516-3.73.694-2.045 7.452 2.981 9.945-3.965 3.947-10.992-2.154-2.524-2.096-2.929.469-3.236 1.082-.129 2.278-.372 2.657-.538.944-.415 2.711-4.275 2.711-5.921 0-2.094 1.658-3.213 2.205-1.488m94.764 15.142c-4.506 2.046-5.49 7.541-1.98 11.052 5.896 5.895 15.059-1.66 10.453-8.619-1.867-2.822-5.391-3.834-8.473-2.433m-91.22.076c-5.733 1.662-5.362 9.748.549 11.972 7.596 2.858 15.572-6.145 9.311-10.511-2.712-1.891-3.634-1.83-4.326.288-.756 2.313-2.083 2.216-2.083-.153 0-1.9-.925-2.328-3.451-1.596m36.299 1.783c-2.136.927-1.69 2.958 1.758 8 6.1 8.919 8.936 17.982 9.106 29.099.124 8.125-.137 8.351-5.623 4.867-5.256-3.338-6.489-3.422-6.489-.442 0 4.622 2.785 8.867 8.169 12.449 4.189 2.787 3.98 2.46 4.245 6.662.302 4.79 2.17 8.597 6.206 12.647 4.2 4.215 4.98 3.984 4.98-1.473 0-4.813.185-5.103 5.004-7.839 7.343-4.169 7.366-4.285 1.639-8.139-6.714-4.518-6.972-5.207-2.659-7.112 6.268-2.768 6.274-4.363.036-10.55-5.918-5.869-6.262-6.504-6.607-12.193-.336-5.532.1-6.527 3.766-8.606 6.661-3.779 5.948-6.312-3.179-11.295-5.326-2.908-17.043-7.043-18.92-6.677-.044.008-.688.279-1.432.602m91.352 4.582c-.759.328-15.694 5.179-29.6 9.614-10.587 3.376-9.8 2.597-9.8 9.704 0 5.6.053 5.749 2.4 6.659 1.415.549 3.533 1.417 5 2.049.44.19 5.12 2.082 10.4 4.205s12.468 5.016 15.973 6.429 6.595 2.484 6.868 2.38c.542-.208.809-2.218 1.152-8.685.328-6.177 2.036-5.155-17.993-10.763-4.692-1.314-5.506-1.565-5.693-1.752-.32-.32 1.37-.904 4.693-1.623 1.65-.357 4.26-.922 5.8-1.255 3.575-.774 5.369-1.178 8.626-1.944 1.444-.34 2.924-.618 3.29-.618 1.453 0 1.865-1.602 2.142-8.323l.267-6.477-1.362.027c-.75.015-1.723.183-2.163.373m-342.457 5.558c-2.78.715-5.471 3.152-6.695 6.063l-.516 1.227-1.089-1.427c-3.929-5.152-13.954-3.868-17.024 2.179-1.767 3.481-1.958 8.333-.892 22.68.374 5.036-.311 4.751 9.962 4.146 12.897-.76 19.309-1.131 25.111-1.453 8.012-.445 7.392.74 6.577-12.573-1.061-17.312-5.556-23.383-15.434-20.842m3.441 13.634c.935.5 1.616 2.453 1.616 4.636 0 1.935-.247 2.06-4.4 2.242l-2.2.096-.117-2.608c-.179-4.019 2.102-5.972 5.101-4.366m-14.982 3.078c.601.823 1.08 3.804.675 4.202-1.011.992-5.439.453-5.751-.699-.926-3.435 3.096-6.211 5.076-3.503m315.87 9.58c-6.045 3.081-4.251 12.304 2.502 12.864 6.894.572 10.224-8.024 4.731-12.214-1.776-1.354-5.241-1.665-7.233-.65m-228.072 4.823c-7.68 3.104-14.817 9.059-17.502 14.604-2.8 5.783-3.085 10.664-1.517 25.923 1.043 10.145.267 14.019-3.552 17.723-5.555 5.39-1.328 7.929 6.771 4.067 8.088-3.856 10.381-9.258 9.403-22.151-.743-9.793-.467-10.297 3.632-6.639 4.679 4.175 5.777 3.094 8.541-8.4.582-2.42 1.215-5.03 1.407-5.8 3.652-14.639.722-22.521-7.183-19.327m-31.977 4.427c-7.77 8.066-7.526 26.997.451 34.974 5.478 5.478 8.833.346 9.349-14.3.488-13.828-1.051-20.211-5.31-22.026-1.993-.849-2.525-.689-4.49 1.352m131.377 4.261c0 6.133-.084 5.839 2.759 9.636.546.729-.06 2.518-.95 2.8-2.05.651-4.391-1.694-5.005-5.013-.454-2.458 1.333-12.638 2.329-13.262.786-.493.867.052.867 5.839m48.86 6.945c.46.294.676 1.036.587 2.016-.079.873-3.805.46-3.976-.441-.28-1.473 1.936-2.503 3.389-1.575m-73.067 4.826c2.353 2.352 2.829 9.668.628 9.668-2.249 0-4.448-7.333-3.007-10.026.561-1.049 1.046-.976 2.379.358m-61.867 6.568c-1.248 1.319-7.902 10.426-11.617 15.9-9.556 14.08-9.245 23.056 1.171 33.78 4.603 4.741 6.518 4.439 8.098-1.275 1.612-5.832 2.803-8.972 4.667-12.305 4.844-8.659 5.736-23.545 2.001-33.375-1.637-4.309-2.378-4.776-4.32-2.725m161.184 5.322c2.338.573 5.989 2.627 7.09 3.987.55.679.535.716-.182.447-2.612-.981-10.713-1.92-15.318-1.774-3.911.123-4.9.046-4.9-.383 0-.918 2.027-2.47 3.549-2.717.798-.129 1.721-.299 2.051-.376 1.005-.235 5.263.215 7.71.816m-91.91 4.978c0 .513-.225 1.008-.5 1.1-.613.204-1.074-.871-.743-1.733.352-.917 1.243-.463 1.243.633m8.395 3.585c.293.923-.404 2.415-1.129 2.415-.702 0-1.466-.833-1.466-1.6 0-1.53 2.154-2.206 2.595-.815m6.372 9.458c.778.298.841 1.357.082 1.357-.678 0-1.539-.976-1.179-1.337.321-.321.315-.321 1.097-.02m-148.191 3.281c-1.417 1.077-8.651 6.499-16.076 12.047-7.425 5.549-13.5 10.361-13.5 10.692 0 .987 11.346 15.853 13.613 17.835 8.883 7.772 22.53 5.533 30.231-4.958 6.663-9.077 5.283-17.103-5.353-31.14-5.46-7.205-5.38-7.165-8.915-4.476m157.624-.905c0 .294-.16.632-.355.753-.477.295-1.378-.833-1.067-1.337.332-.536 1.422-.088 1.422.584m111 .596c-6.967 1.676-10.477 4.691-18.137 15.578-3.969 5.64-4.776 7.022-4.455 7.622.426.795 7.563 5.877 27.649 19.685 6.619 4.55 5.714 4.833 11.653-3.635 7.524-10.725 8.491-12.88 8.471-18.865-.04-11.821-13.954-23.085-25.181-20.385m6.6 15.198c4.782 2.449 6.278 8.171 3.081 11.781l-.881.995-5.8-4.01c-8.362-5.781-8.083-5.329-4.903-7.959 2.57-2.126 5.403-2.395 8.503-.807m-272.472 3.487c2.376 3.342 2.012 6.598-1.082 9.693-3.702 3.701-7.397 3.935-11.07.703-2.404-2.117-2.522-1.92 4.132-6.952 6.448-4.877 6.872-5.059 8.02-3.444m234.703 11.795c-5.899 4.708-6.006 3.825 1.569 12.937 5.503 6.619 6.647 8.168 6.03 8.168-.177 0-12.493-4.906-14.23-5.668-.55-.241-1.36-.599-1.8-.794-2.797-1.241-6.419-2.248-6.976-1.939-2.104 1.167-9.624 7.692-9.624 8.351 0 .401 1.777 2.692 7.795 10.05 3.788 4.631 11.273 13.848 14.13 17.4 3.706 4.609 3.937 4.782 5.231 3.937 2.969-1.939 8.844-7.074 8.844-7.731 0-.616-5.262-7.473-10.268-13.378-2.595-3.063-2.452-3.039 9.624 1.6 11.63 4.468 10.417 4.479 16.113-.139 5.987-4.853 6.916-2.484-8.269-21.081-1.65-2.021-3.63-4.457-4.4-5.413-6.289-7.807-8.196-9.995-8.713-9.995-.234 0-2.51 1.663-5.056 3.695m-212.07 6.48c-20.166 5.707-22.597 31.676-3.841 41.048 21.928 10.958 42.137-18.468 24.219-35.266-5.522-5.176-14.008-7.584-20.378-5.782m9.47 14.735c4.137 2.787 4.587 7.712 1.07 11.707-6.842 7.774-17.198-.581-11.359-9.165 2.201-3.236 7.366-4.513 10.289-2.542m167.569 3.925c-7.842 3.375-7.449 2.734-5.011 8.165.296.66 1.742 4.08 3.214 7.6s2.917 6.94 3.212 7.6c2.608 5.846 2.18 8.114-1.665 8.836-2.727.511-3.274-.246-7.546-10.436-1.476-3.52-2.922-6.94-3.214-7.6s-.996-2.28-1.566-3.6c-1.916-4.442-1.821-4.408-6.553-2.39-6.291 2.683-7.694 3.384-7.914 3.957-.188.49 3.934 10.866 6.926 17.433.552 1.21 1.327 3.021 1.724 4.024 4.095 10.355 11.69 14.438 21.285 11.443 12.115-3.782 17.409-12.709 13.56-22.867-1.521-4.015-9.723-23.166-10.15-23.7-.618-.773-1.359-.593-6.302 1.535m-141.026 1.465c-.35.825-1.796 4.38-3.213 7.9s-2.745 6.76-2.949 7.2c-.205.44-1.378 3.32-2.608 6.4-2.458 6.155-2.695 6.737-3.334 8.2-3.198 7.314-3.339 6.93 3.58 9.75 6.351 2.588 6.474 2.587 7.62-.045 1.67-3.839 2.215-5.134 2.734-6.505 1.201-3.173 1.379-2.771 1.852 4.182.551 8.12-.069 7.317 8.321 10.767 7.183 2.953 7.531 2.951 6.953-.054-.2-1.042-.79-4.325-1.31-7.295s-1.209-6.158-1.531-7.085c-.706-2.034-.644-2.113 1.678-2.124 8.158-.039 13.197-12.686 8.04-20.181-2.614-3.799-5.152-5.313-16.737-9.979-7.744-3.12-8.226-3.18-9.096-1.131m34.545 11.211c-.375.077-.77.444-.878.815-.272.934-1.324 7.39-1.658 10.174l-.275 2.3 1.746.024c2.013.027 5.45.546 5.775.872.122.122-.053 1.905-.389 3.963-.335 2.058-.906 5.631-1.267 7.941s-1.087 6.797-1.615 9.971c-.527 3.174-.958 5.894-.958 6.044 0 .149 1.395.497 3.1.773s4.609.751 6.452 1.057c4.644.769 4.848.749 4.848-.468 0-.562.17-1.777.378-2.7.207-.922.668-3.657 1.024-6.077s.806-5.3 1-6.4.672-4.136 1.062-6.746c.825-5.514.658-5.364 5.011-4.487 3.701.746 3.712.74 4.105-2.133.139-1.009.535-3.591.881-5.739.47-2.917.515-4.042.178-4.449-.525-.632-.627-.653-12.039-2.446-2.31-.363-5.28-.835-6.6-1.05-5.677-.922-9.246-1.37-9.881-1.239m70.281 1.112c-.44.063-2.69.323-5 .578s-4.511.55-4.891.656c-.847.235-1.268 1.778-2.112 7.743-.357 2.53-.81 5.5-1.006 6.6s-.475 3.035-.62 4.3c-.398 3.48-1.035 2.869-3.126-3-5.595-15.703-4.648-14.51-11.03-13.895-10.138.976-9.017-.819-9.61 15.395-.225 6.16-.609 14.739-.853 19.064s-.323 8.06-.174 8.3c.646 1.045 12.401-.173 13.281-1.376.521-.713.485-11.406-.061-18.269-.382-4.797.128-3.94 5.279 8.863 1.642 4.08 3.071 7.619 3.176 7.864.547 1.276 7.252 1.216 8.535-.077.424-.426 1.128-3.842 2.594-12.569.573-3.41 1.243-6.92 1.488-7.8l.447-1.6.357 1.2c.196.66.525 2.1.732 3.2.206 1.1.832 4.16 1.39 6.8s1.212 5.839 1.454 7.11c.662 3.483.178 3.403 11.75 1.937 2.394-.304 2.6-.907 1.597-4.658-.351-1.314-1.077-4.009-1.612-5.989-1.507-5.573-2.783-10.359-4.158-15.6-4.24-16.153-3.815-15.349-7.827-14.777m-93.642 2.161c2.58.981 3.3 3.132 1.846 5.516-1.014 1.663-4.062 1.817-5.919.298-.063-.052.271-1.062.741-2.246.471-1.184 1.013-2.557 1.205-3.052.39-1.004.667-1.071 2.127-.516" fill="#fadb53"/><path d="m181.3.271c-2.255.086-4.1.308-4.1.492s-2.159.463-4.798.621c-2.639.157-4.9.45-5.024.651s-1.025.365-2.002.365-1.776.154-1.776.341c0 .188-1.395.459-3.1.603s-3.16.441-3.233.659c-.074.218-.929.397-1.9.397-.972 0-1.767.166-1.767.368 0 .203-1.17.494-2.6.647s-2.6.437-2.6.632c0 .194-.45.353-1 .353s-1 .157-1 .348c0 .192-1.075.47-2.388.619-1.313.148-2.494.442-2.623.651-.13.21-.676.382-1.213.382s-.976.163-.976.362c0 .2-.9.487-2 .638s-2 .438-2 .638c0 .199-.45.362-1 .362s-1 .16-1 .355-.81.476-1.8.624c-.99.149-1.8.439-1.8.646 0 .206-.45.375-1 .375s-1 .178-1 .395c0 .218-.72.511-1.6.651-.88.141-1.6.413-1.6.605s-.27.349-.6.349-.6.16-.6.355-.81.476-1.8.624c-.99.149-1.8.439-1.8.646 0 .206-.27.375-.6.375s-.6.157-.6.349-.72.464-1.6.605c-.88.14-1.6.433-1.6.651 0 .217-.36.395-.8.395s-.8.166-.8.368c0 .203-.54.487-1.2.632s-1.2.429-1.2.632c0 .202-.36.368-.8.368s-.8.166-.8.368c0 .203-.54.487-1.2.632s-1.2.429-1.2.632c0 .202-.36.368-.8.368s-.8.16-.8.357c0 .196-.484.478-1.076.626-.592.149-1.378.618-1.747 1.043-.368.425-1.234.885-1.923 1.023-.69.138-1.254.409-1.254.601 0 .193-.27.35-.6.35s-.6.177-.6.392c0 .216-.45.506-1 .644s-1 .411-1 .607c0 .197-.27.357-.6.357s-.6.168-.6.373-.405.501-.9.657c-.495.157-1.181.607-1.524 1-.343.394-1.12.841-1.728.994-.607.152-1.315.614-1.572 1.026-.258.413-.791.75-1.185.75s-.82.27-.946.6c-.127.33-.438.6-.692.6s-.946.45-1.54 1c-.593.55-1.266 1-1.496 1-.229 0-.417.139-.417.309s-.63.648-1.4 1.063-1.4.894-1.4 1.064c0 .171-.338.417-.75.548-.413.131-1.394.863-2.18 1.627-.787.764-1.542 1.389-1.679 1.389-.136 0-.499.225-.806.5-1.222 1.096-1.763 1.5-2.008 1.5-.141 0-1.138.9-2.215 2s-2.119 2-2.315 2c-.197 0-2.171 1.8-4.388 4s-4.149 4-4.292 4c-.34 0-3.367 3.027-3.367 3.367 0 .143-1.8 2.075-4 4.292s-4 4.191-4 4.388c0 .196-.9 1.238-2 2.315s-2 2.074-2 2.215c0 .245-.404.786-1.5 2.008-.275.307-.5.684-.5.839s-.63.876-1.4 1.602-1.4 1.484-1.4 1.685c0 .2-.451.888-1.002 1.527-.552.639-1.104 1.477-1.227 1.862-.124.385-.393.7-.598.7s-.373.188-.373.417c0 .23-.45.903-1 1.496-.55.594-1 1.286-1 1.54s-.27.565-.6.692c-.33.126-.6.552-.6.946s-.337.927-.75 1.185c-.412.257-.874.965-1.026 1.572-.153.608-.6 1.385-.994 1.728-.393.343-.843 1.029-1 1.524-.156.495-.452.9-.657.9s-.373.27-.373.6-.16.6-.357.6c-.196 0-.469.45-.607 1s-.428 1-.644 1c-.215 0-.392.27-.392.6s-.157.6-.35.6c-.192 0-.463.564-.601 1.254-.138.689-.598 1.555-1.023 1.923-.425.369-.894 1.155-1.043 1.747-.148.592-.43 1.076-.626 1.076-.197 0-.357.36-.357.8s-.166.8-.368.8c-.203 0-.487.54-.632 1.2s-.429 1.2-.632 1.2c-.202 0-.368.36-.368.8s-.166.8-.368.8c-.203 0-.487.54-.632 1.2s-.429 1.2-.632 1.2c-.202 0-.368.36-.368.8s-.166.8-.368.8c-.203 0-.487.538-.631 1.195-.144.658-.429 1.299-.632 1.424-.203.126-.369.578-.369 1.005s-.16.776-.355.776c-.196 0-.474.63-.619 1.4-.144.77-.434 1.4-.644 1.4s-.382.45-.382 1-.164 1-.365 1-.486.72-.635 1.6-.434 1.6-.635 1.6-.365.349-.365.776-.17.882-.377 1.01-.498 1.038-.645 2.023c-.148.985-.428 1.791-.623 1.791s-.355.45-.355 1-.163 1-.362 1c-.2 0-.487.9-.638 2s-.438 2-.638 2c-.199 0-.362.45-.362 1s-.159 1-.354 1-.478.99-.629 2.2-.442 2.2-.646 2.2-.371.63-.371 1.4-.159 1.4-.353 1.4c-.195 0-.479 1.17-.632 2.6s-.444 2.6-.647 2.6c-.202 0-.368.63-.368 1.4s-.164 1.4-.364 1.4-.492 1.53-.647 3.4c-.156 1.87-.442 3.4-.636 3.4s-.353.9-.353 2-.16 2-.356 2-.488 2.025-.648 4.5c-.168 2.602-.482 4.62-.744 4.785-.637.403-.645 46.62-.008 47.03.249.16.569 2.215.73 4.685.158 2.42.453 4.46.656 4.533.204.074.37 1.019.37 2.1 0 1.082.159 1.967.353 1.967s.48 1.53.636 3.4c.155 1.87.447 3.4.647 3.4s.364.63.364 1.4.154 1.4.343 1.4.46 1.125.604 2.5c.143 1.375.439 2.56.657 2.633.218.074.396.749.396 1.5 0 .752.167 1.367.371 1.367s.495.99.646 2.2.434 2.2.629 2.2.354.45.354 1 .163 1 .362 1c.2 0 .487.9.638 2s.438 2 .638 2c.199 0 .362.45.362 1s.163 1 .362 1c.2 0 .487.9.638 2s.438 2 .638 2c.199 0 .362.36.362.8s.157.8.349.8.464.72.605 1.6c.14.88.433 1.6.651 1.6.217 0 .395.45.395 1s.172 1 .382 1 .5.63.644 1.4c.145.77.423 1.4.619 1.4.195 0 .355.45.355 1s.166 1 .368 1c.203 0 .487.54.632 1.2s.429 1.2.632 1.2c.202 0 .368.36.368.8s.166.8.368.8c.203 0 .487.54.632 1.2s.429 1.2.632 1.2c.202 0 .368.36.368.8s.166.8.368.8c.203 0 .487.54.632 1.2s.429 1.2.632 1.2c.202 0 .368.36.368.8s.166.8.368.8c.203 0 .487.54.632 1.2s.429 1.2.632 1.2c.202 0 .368.248.368.551s.27.775.6 1.049.6.836.6 1.249.18.751.4.751.4.27.4.6.16.6.357.6c.196 0 .469.45.607 1s.428 1 .644 1c.215 0 .392.27.392.6s.16.6.357.6c.196 0 .469.45.607 1s.428 1 .644 1c.215 0 .392.36.392.8s.184.8.41.8c.225 0 .583.455.794 1.01.211.556.657 1.115.99 1.243s.606.579.606 1.002c0 .424.27.874.6 1 .33.127.6.552.6.945s.27.818.6.945c.33.126.6.473.6.77 0 .298.45.932 1 1.41s1 1.101 1 1.384.36.774.8 1.091.8.805.8 1.085c0 .279.54 1.024 1.2 1.655s1.2 1.32 1.2 1.531c0 .212.405.765.9 1.229 1.14 1.07 1.9 1.995 1.9 2.314 0 .137.72.962 1.6 1.833s1.6 1.739 1.6 1.928c0 .19 1.53 1.885 3.4 3.768 1.87 1.882 3.4 3.542 3.4 3.687 0 .5 6.87 7.37 7.37 7.37.145 0 1.805 1.53 3.687 3.4 1.883 1.87 3.578 3.4 3.768 3.4.189 0 1.057.72 1.928 1.6s1.696 1.6 1.833 1.6c.319 0 1.244.76 2.314 1.9.464.495 1.017.9 1.229.9.211 0 .9.54 1.531 1.2s1.376 1.2 1.655 1.2c.28 0 .768.36 1.085.8s.808.8 1.091.8.906.45 1.384 1 1.112 1 1.41 1c.297 0 .644.27.77.6.127.33.552.6.945.6s.818.27.945.6c.126.33.576.6 1 .6.423 0 .874.273 1.002.606s.687.779 1.243.99c.555.211 1.01.569 1.01.794 0 .226.36.41.8.41s.8.177.8.392c0 .216.45.506 1 .644s1 .411 1 .607c0 .197.27.357.6.357s.6.177.6.392c0 .216.45.506 1 .644s1 .411 1 .607c0 .197.27.357.6.357s.6.18.6.4.338.4.751.4.975.27 1.249.6.746.6 1.049.6.551.166.551.368c0 .203.54.487 1.2.632s1.2.429 1.2.632c0 .202.36.368.8.368s.8.166.8.368c0 .203.54.487 1.2.632s1.2.429 1.2.632c0 .202.36.368.8.368s.8.166.8.368c0 .203.54.487 1.2.632s1.2.429 1.2.632c0 .202.36.368.8.368s.8.166.8.368c0 .203.54.487 1.2.632s1.2.429 1.2.632c0 .202.45.368 1 .368s1 .16 1 .355c0 .196.63.474 1.4.619.77.144 1.4.434 1.4.644s.45.382 1 .382 1 .178 1 .395c0 .218.72.511 1.6.651.88.141 1.6.413 1.6.605s.36.349.8.349.8.163.8.362c0 .2.9.487 2 .638s2 .438 2 .638c0 .199.45.362 1 .362s1 .163 1 .362c0 .2.9.487 2 .638s2 .438 2 .638c0 .199.45.362 1 .362s1 .159 1 .354.99.478 2.2.629 2.2.442 2.2.646.615.371 1.367.371c.751 0 1.426.178 1.5.396.073.218 1.258.514 2.633.657 1.375.144 2.5.415 2.5.604s.63.343 1.4.343 1.4.164 1.4.364 1.53.492 3.4.647c1.87.156 3.4.442 3.4.636s.885.353 1.967.353c1.081 0 2.026.166 2.1.37.073.203 2.113.498 4.533.656 2.47.161 4.525.481 4.685.73.41.637 46.627.629 47.03-.008.165-.262 2.183-.576 4.785-.744 2.475-.16 4.5-.452 4.5-.648s.9-.356 2-.356 2-.159 2-.353 1.53-.48 3.4-.636c1.87-.155 3.4-.447 3.4-.647s.63-.364 1.4-.364 1.4-.166 1.4-.368c0-.203 1.17-.494 2.6-.647s2.6-.437 2.6-.632c0-.194.63-.353 1.4-.353s1.4-.167 1.4-.371.99-.495 2.2-.646 2.2-.434 2.2-.629.45-.354 1-.354 1-.163 1-.362c0-.2.9-.487 2-.638s2-.438 2-.638c0-.199.45-.362 1-.362s1-.16 1-.355.806-.475 1.791-.623c.985-.147 1.895-.438 2.023-.645s.583-.377 1.01-.377.776-.164.776-.365.72-.486 1.6-.635 1.6-.434 1.6-.635.45-.365 1-.365 1-.172 1-.382.63-.5 1.4-.644c.77-.145 1.4-.423 1.4-.619 0-.195.349-.355.776-.355s.879-.166 1.005-.369c.125-.203.766-.488 1.424-.632.657-.144 1.195-.428 1.195-.631 0-.202.36-.368.8-.368s.8-.166.8-.368c0-.203.54-.487 1.2-.632s1.2-.429 1.2-.632c0-.202.36-.368.8-.368s.8-.166.8-.368c0-.203.54-.487 1.2-.632s1.2-.429 1.2-.632c0-.202.36-.368.8-.368s.8-.16.8-.357c0-.196.484-.478 1.076-.626.592-.149 1.378-.618 1.747-1.043.368-.425 1.234-.885 1.923-1.023.69-.138 1.254-.408 1.254-.601 0-.192.27-.35.6-.35s.6-.177.6-.392c0-.216.45-.506 1-.644s1-.411 1-.607c0-.197.27-.357.6-.357s.6-.168.6-.373.405-.499.9-.654c.495-.154.99-.392 1.1-.527.292-.359 1.661-1.188 2.71-1.641.501-.216 1.015-.666 1.143-.999s.579-.606 1.002-.606c.424 0 .874-.27 1-.6.127-.33.438-.6.692-.6s.946-.45 1.54-1c.593-.55 1.266-1 1.496-1 .229 0 .417-.168.417-.373s.315-.474.7-.598c.385-.123 1.223-.675 1.862-1.227.639-.551 1.327-1.002 1.527-1.002.201 0 .959-.63 1.685-1.4s1.447-1.4 1.602-1.4.532-.225.839-.5c1.222-1.096 1.763-1.5 2.008-1.5.141 0 1.138-.9 2.215-2s2.119-2 2.315-2c.197 0 2.171-1.8 4.388-4s4.149-4 4.292-4c.34 0 3.367-3.027 3.367-3.367 0-.143 1.8-2.075 4-4.292s4-4.191 4-4.388c0-.196.9-1.238 2-2.315s2-2.079 2-2.227c0-.147.225-.519.5-.826 1.078-1.202 1.5-1.761 1.5-1.988 0-.13.625-.88 1.389-1.667.764-.786 1.496-1.767 1.627-2.18.131-.412.377-.75.548-.75.17 0 .649-.63 1.064-1.4s.893-1.4 1.063-1.4.309-.188.309-.417c0-.23.45-.903 1-1.496.55-.594 1-1.286 1-1.54s.27-.565.6-.692c.33-.126.6-.552.6-.946s.337-.927.75-1.185c.412-.257.874-.965 1.026-1.572.153-.608.6-1.385.994-1.728.393-.343.843-1.029 1-1.524.156-.495.452-.9.657-.9s.373-.27.373-.6.16-.6.357-.6c.196 0 .469-.45.607-1s.428-1 .644-1c.215 0 .392-.27.392-.6s.158-.6.35-.6c.193 0 .463-.564.601-1.254.138-.689.598-1.555 1.023-1.923.425-.369.894-1.155 1.043-1.747.148-.592.43-1.076.626-1.076.197 0 .357-.36.357-.8s.166-.8.368-.8c.203 0 .487-.54.632-1.2s.429-1.2.632-1.2c.202 0 .368-.36.368-.8s.166-.8.368-.8c.203 0 .487-.54.632-1.2s.429-1.2.632-1.2c.202 0 .368-.36.368-.8s.178-.8.395-.8c.218 0 .511-.72.651-1.6.141-.88.413-1.6.605-1.6s.349-.27.349-.6.169-.6.375-.6c.207 0 .497-.81.646-1.8.148-.99.429-1.8.624-1.8s.355-.27.355-.6.157-.6.349-.6.464-.72.605-1.6c.14-.88.433-1.6.651-1.6.217 0 .395-.45.395-1s.169-1 .375-1c.207 0 .497-.81.646-1.8.148-.99.429-1.8.624-1.8s.355-.45.355-1 .163-1 .362-1c.2 0 .487-.9.638-2s.438-2 .638-2c.199 0 .362-.439.362-.976s.163-1.078.363-1.201c.199-.123.486-1.123.637-2.223s.438-2.1.637-2.223c.2-.123.363-.754.363-1.401s.159-1.176.353-1.176c.195 0 .479-1.17.632-2.6s.444-2.6.647-2.6c.202 0 .368-.795.368-1.767 0-.971.179-1.826.397-1.9.218-.073.515-1.528.659-3.233s.415-3.1.603-3.1c.187 0 .341-.799.341-1.776s.162-1.877.36-2c.199-.122.492-2.338.651-4.923.169-2.731.479-4.821.74-4.986.645-.41.638-45.026-.007-45.43-.269-.168-.575-2.207-.748-4.985-.161-2.585-.45-4.7-.644-4.7s-.352-.9-.352-2-.157-2-.348-2c-.192 0-.474-1.44-.628-3.2-.153-1.76-.447-3.2-.651-3.2-.205 0-.373-.709-.373-1.576s-.166-1.679-.369-1.805c-.202-.125-.493-1.396-.646-2.823-.153-1.428-.437-2.596-.632-2.596-.194 0-.353-.45-.353-1s-.157-1-.348-1c-.192 0-.471-1.08-.62-2.4-.15-1.32-.443-2.4-.652-2.4s-.38-.54-.38-1.2-.163-1.2-.362-1.2c-.2 0-.487-.9-.638-2s-.438-2-.638-2c-.199 0-.362-.45-.362-1s-.16-1-.355-1-.476-.81-.624-1.8c-.149-.99-.439-1.8-.646-1.8-.206 0-.375-.45-.375-1s-.178-1-.395-1c-.218 0-.511-.72-.651-1.6-.141-.88-.413-1.6-.605-1.6s-.349-.27-.349-.6-.16-.6-.355-.6-.476-.81-.624-1.8c-.149-.99-.439-1.8-.646-1.8-.206 0-.375-.27-.375-.6s-.178-.6-.395-.6c-.218 0-.511-.72-.651-1.6-.141-.88-.413-1.6-.605-1.6s-.349-.36-.349-.8-.166-.8-.368-.8c-.203 0-.487-.54-.632-1.2s-.429-1.2-.632-1.2c-.202 0-.368-.36-.368-.8s-.166-.8-.368-.8c-.203 0-.487-.54-.632-1.2s-.429-1.2-.632-1.2c-.202 0-.368-.36-.368-.8s-.16-.8-.357-.8c-.196 0-.459-.409-.584-.908s-.588-1.294-1.027-1.766c-.44-.472-.917-1.327-1.062-1.901-.144-.574-.577-1.264-.962-1.534s-.829-1.076-.986-1.791-.451-1.3-.654-1.3c-.202 0-.368-.27-.368-.6s-.168-.6-.373-.6-.501-.405-.657-.9c-.157-.495-.593-1.17-.97-1.5s-.813-1.005-.97-1.5c-.156-.495-.452-.9-.657-.9s-.373-.27-.373-.6-.18-.6-.4-.6-.4-.262-.4-.582-.428-1.01-.952-1.534c-.524-.523-1.076-1.342-1.227-1.818s-.443-.866-.648-.866-.373-.193-.373-.429c0-.235-.225-.679-.5-.986-1.107-1.234-1.5-1.764-1.5-2.022 0-.149-.45-.688-1-1.198s-1-1.124-1-1.365-.45-.855-1-1.365-1-1.131-1-1.381-.168-.454-.373-.454-.484-.351-.621-.78c-.136-.428-.598-.89-1.026-1.026-.429-.137-.78-.503-.78-.816 0-.312-.9-1.472-2-2.578s-2-2.182-2-2.392-1.89-2.263-4.2-4.562c-2.31-2.298-4.2-4.38-4.2-4.625s-.315-.565-.7-.71c-.385-.144-2.551-2.119-4.813-4.387s-4.285-4.124-4.495-4.124-1.286-.9-2.392-2-2.266-2-2.578-2c-.313 0-.679-.351-.816-.78-.136-.428-.598-.89-1.026-1.026-.429-.137-.78-.416-.78-.621s-.204-.373-.454-.373-.871-.45-1.381-1-1.124-1-1.365-1-.855-.45-1.365-1-1.054-1-1.209-1c-.156 0-.534-.225-.841-.5-1.323-1.187-1.776-1.5-2.168-1.5-.229 0-.417-.168-.417-.373s-.39-.497-.866-.648-1.295-.703-1.818-1.227c-.524-.524-1.214-.952-1.534-.952s-.582-.18-.582-.4-.27-.4-.6-.4-.6-.168-.6-.373-.405-.501-.9-.657c-.495-.157-1.17-.593-1.5-.97s-1.005-.813-1.5-.97c-.495-.156-.9-.452-.9-.657s-.27-.373-.6-.373-.6-.166-.6-.368c0-.203-.585-.497-1.3-.654s-1.521-.601-1.791-.986-.96-.818-1.534-.962c-.574-.145-1.429-.622-1.901-1.062-.472-.439-1.267-.902-1.766-1.027s-.908-.388-.908-.584c0-.197-.36-.357-.8-.357s-.8-.166-.8-.368c0-.203-.54-.487-1.2-.632s-1.2-.429-1.2-.632c0-.202-.36-.368-.8-.368s-.8-.166-.8-.368c0-.203-.54-.487-1.2-.632s-1.2-.429-1.2-.632c0-.202-.36-.368-.8-.368s-.8-.157-.8-.349-.72-.464-1.6-.605c-.88-.14-1.6-.433-1.6-.651 0-.217-.27-.395-.6-.395s-.6-.169-.6-.375c0-.207-.81-.497-1.8-.646-.99-.148-1.8-.429-1.8-.624s-.27-.355-.6-.355-.6-.157-.6-.349-.72-.464-1.6-.605c-.88-.14-1.6-.433-1.6-.651 0-.217-.45-.395-1-.395s-1-.169-1-.375c0-.207-.81-.497-1.8-.646-.99-.148-1.8-.429-1.8-.624s-.45-.355-1-.355-1-.163-1-.362c0-.2-.9-.487-2-.638s-2-.438-2-.638c0-.199-.54-.362-1.2-.362s-1.2-.171-1.2-.38-1.08-.502-2.4-.652c-1.32-.149-2.4-.428-2.4-.62 0-.191-.45-.348-1-.348s-1-.159-1-.353c0-.195-1.168-.479-2.596-.632-1.427-.153-2.698-.444-2.823-.646-.126-.203-.938-.369-1.805-.369s-1.576-.168-1.576-.373c0-.204-1.44-.498-3.2-.651-1.76-.154-3.2-.436-3.2-.628 0-.191-.9-.348-2-.348s-2-.158-2-.352-2.115-.483-4.7-.644-4.817-.48-4.961-.709c-.264-.42-32.836-.754-41.439-.424m9.668 14.366c4.234 1.205 4.478 1.886 2.846 7.917-1.22 4.51-1.233 4.521-3.992 3.489-4.252-1.591-8.622-.899-8.622 1.366 0 1.256.738 1.606 4.6 2.186 9.838 1.476 13.18 4.719 13.193 12.805.02 11.912-13.335 18.495-27.897 13.753-2.623-.854-2.761-1.309-1.701-5.588 1.823-7.362 1.726-7.264 5.527-5.583 5.081 2.248 9.878 1.497 9.878-1.546 0-1.108-1.729-1.773-5.758-2.217-8.143-.896-11.99-4.634-11.961-11.619.047-11.038 11.805-18.404 23.887-14.963m31.956-.039c3.866.674 4.798 1.019 7.776 2.88 2.563 1.601 2.619 2.097.692 6.156-2.784 5.867-2.661 5.789-5.966 3.799-3.872-2.332-7.809-2.305-8.151.055-.155 1.073.871 1.769 4.325 2.933 7.486 2.522 10.515 5.984 10.533 12.035.039 12.972-13.886 18.687-28.706 11.784-4.715-2.196-4.695-2.116-1.915-7.699 2.753-5.526 2.902-5.608 6.117-3.353 4.195 2.943 7.932 3.545 9.36 1.507 1.307-1.867.528-2.688-3.856-4.068-16.796-5.287-12.405-25.027 5.915-26.589.246-.021 1.99.231 3.876.56m-65.634 4.102c.977 1.114 8.642 24.36 9.097 27.592 1.483 10.515-7.633 19.033-20.387 19.05-8.353.011-12.413-3.806-16.531-15.542-6.606-18.827-6.881-19.985-4.934-20.799 4.122-1.722 10.84-3.743 11.4-3.43.351.197 2.294 5.273 4.526 11.825 4.894 14.369 5.394 15.229 8.418 14.47 4.091-1.027 4.024-2.262-.913-16.849-4.74-14.004-5.038-12.343 2.691-15.029 6.571-2.283 5.878-2.149 6.633-1.288m88.396.658c.943.308 3.294.966 5.224 1.464 5.521 1.423 5.443 1.056 2.427 11.378-.322 1.1-.754 2.63-.961 3.4-2.664 9.915-6.467 23.746-6.873 25-.655 2.018-1.621 2.04-8.303.19-6.856-1.899-6.596-.409-2.577-14.79.714-2.555.743-2.66 3.378-12.4 1.101-4.07 2.272-8.276 2.601-9.346s.598-2.204.598-2.52c0-2.461 1.608-3.313 4.486-2.376m37.754 14.093c10.381 5.456 9.76 5.03 9.76 6.698 0 1.073-2.383 16.333-3.599 23.051-.219 1.21-.67 4-1.002 6.2-.333 2.2-.77 4.9-.973 6s-.481 2.72-.619 3.6c-.588 3.765-.388 3.755-6.921.345-6.588-3.438-7.18-3.986-6.556-6.07.872-2.91.82-2.987-3.63-5.274-2.255-1.158-4.308-2.27-4.562-2.471-.31-.245-1.019.23-2.165 1.453-1.882 2.008-2.526 2.164-4.461 1.085-.722-.403-2.842-1.516-4.712-2.473-6.143-3.144-6.326-3.372-4.298-5.335.715-.693 6.764-6.57 13.441-13.06 15.269-14.843 15.662-15.2 16.688-15.2.467 0 2.091.653 3.609 1.451m-171.195 7.14c7.728 2.295 12.476 11.001 9.355 17.155-1.258 2.481-1.249 3.054.046 3.054.439 0 1.643.384 2.676.853 1.033.47 2.868 1.302 4.078 1.85 9.471 4.291 9.8 4.537 7.9 5.91-3.097 2.237-11.395 7.387-11.902 7.387-.336 0-3.088-1.53-6.116-3.4-7.2-4.445-7.032-4.525-3.121 1.484 4.146 6.37 4.339 5.55-2.326 9.893-6.226 4.057-5.313 4.25-9.378-1.977-1.364-2.09-6.063-9.283-10.44-15.985-4.378-6.701-8.038-12.59-8.133-13.086-.15-.787.737-1.498 6.905-5.539 11.873-7.777 15.419-9.095 20.456-7.599m163.555 11.82c-4.378 5.362-4.321 5.126-1.596 6.544 2.694 1.403 2.267 1.876 4.193-4.646 2.339-7.924 2.33-7.931-2.597-1.898m-171.9 1.677c-1.852 1.073-1.859.936.207 3.955 2.011 2.939 2.217 3.047 3.655 1.915 3.941-3.1.468-8.38-3.862-5.87m218.1 7.668c17.846 4.277 19.214 26.867 2.279 37.622-15.692 9.964-34.436-3.928-28.081-20.811 2.238-5.947 10.828-15.367 14.012-15.367.148 0 .836-.247 1.53-.548 3.297-1.434 6.755-1.736 10.26-.896m-110.185 5.229c.71.541 1.858 1.988 2.55 3.214 2.023 3.585 3.644 3.693 7.146.479 3.09-2.837 4.418-3.635 5.103-3.066 1.372 1.138.383 4.461-2.377 7.988-2.824 3.609-3.086 4.374-3.398 9.956-.336 6-.672 6.826-3.724 9.143-3.994 3.032-3.204 9.789 1.756 15.019 1.903 2.007 2.563 1.826 4.087-1.118 1.604-3.1 3.373-3.423 4.997-.913 2.038 3.15 2.813.524 3.256-11.042.554-14.442 1.355-18.213 4.645-21.854 2.461-2.724 4.656-1.88 5.87 2.258 1.482 5.054 3.167 6.107 6.274 3.92 6.589-4.638 7.595-4.545 7.604.705.011 6.037.851 7.034 4.684 5.557 5.845-2.253 6.313-2.099 6.584 2.167.274 4.295 1.975 5.402 8.301 5.402 11.015 0 14.066 5.197 7.583 12.917-3.265 3.889-3.057 5.482.718 5.484 10.461.003 17.575 5.414 20.091 15.278 1.057 4.149 1.173 4.315 4.277 6.13 6.828 3.994 12.076 15.758 12.291 27.553.101 5.56-.235 6.011-4.227 5.678-3.863-.322-4.011.134-1.256 3.859 3.191 4.313 4.327 8.279 3.379 11.794-1.151 4.272-4.358 2.963-10.265-4.193-4.851-5.876-7.064-8.191-10.479-10.964-3.669-2.979-6.69-6.394-14.378-16.252-4.929-6.321.723-7.165 8.51-1.271 6.635 5.022 11.723 6.19 10.791 2.478-.893-3.561-9.573-12.29-17.229-17.326-3.73-2.453-4.593-3.509-4.042-4.945.216-.564 3.383-2.22 4.245-2.22 1.306 0 4.053-1.753 3.939-2.513-.428-2.855-4.88-4.11-8.287-2.337-2.771 1.442-3.384 1.508-5.098.55-8.958-5.01-9.582-5.541-9.769-8.31-.279-4.14-.074-4.863 2.033-7.19 4.338-4.791.43-8.247-5.428-4.8-5.641 3.32-6.701 3.404-7.875.626-.979-2.318-1.587-2.567-4.928-2.015-3.946.651-4.441.255-5.577-4.46-.356-1.475-1.995-2.32-2.848-1.467-.875.876-2.986 8.735-3.233 12.041-.345 4.602 1.649 5.843 5.262 3.274 2.413-1.716 3.268-1.389 4.288 1.639l.661 1.962 2.339.21c3.96.355 5.039 1.402 5.701 5.53.486 3.035.929 3.66 2.598 3.66 1.879 0 2.907.953 3.868 3.588.745 2.043 1.22 2.642 3.468 4.368 5.23 4.016 7.558 8.789 8.705 17.844.503 3.97 2.228 8.289 4.942 12.373 5.124 7.711 5.731 28.778 1.027 35.649-3.353 4.898-3.627 6.955-2.015 15.132 3.929 19.933 3.624 24.646-1.598 24.646-5.393 0-6.014 1.336-2.78 5.982.889 1.277 1.219 2.268 1.348 4.054.094 1.3.297 2.364.45 2.364.154 0 1.257-.303 2.452-.674 9.366-2.903 19.088.328 27.27 9.064 2.706 2.89 3.904 3.833 6.63 5.218 4.992 2.538 7.273 4.474 7.273 6.174 0 2.4-2.579 2.239-7.591-.473-10.572-5.72-27.425-8.972-33.009-6.369-3.964 1.848-3.659 2.2 1.877 2.168 15.028-.086 31.906 5.513 29.305 9.721-.444.719-5.199.197-7.582-.833-8.277-3.576-22.234-5.314-25.7-3.2-2.063 1.257-1.499 2.37 1.513 2.986 6.454 1.32 14.815 5.565 16.187 8.219 2.113 4.085-1.045 4.569-6.6 1.012-1.43-.916-3.072-1.958-3.65-2.316-1.614-.999-5.62-2.549-7.375-2.852-.866-.15-2.064-.369-2.661-.487-.96-.19-1.228.015-2.31 1.773-3.295 5.356-13.569 8.383-23.462 6.911-9.896-1.471-9.745-10.904.258-16.209 12.118-6.426 19.143-14.164 18.174-20.018-.601-3.632-1.73-3.921-4.008-1.025-2.719 3.456-4.969 4.183-7.984 2.58-1.917-1.019-4.049-1.091-5.182-.175-2.2 1.778-9.658 2.084-14.761.605-4.616-1.337-5.73-1.295-7.833.3-4.824 3.658-5.541 3.666-9.235.1-3.647-3.521-4.072-3.466-5.753.749-1.393 3.492-.78 4.446 5.641 8.774 7.917 5.335 15.667 12.161 17.075 15.038 6.129 12.53-17.442 17.841-36.616 8.251-5.012-2.507-5.03-2.511-6.464-1.383-1.225.963-1.37 2.415-.43 4.3 1.262 2.529 2.041 2.81 7.688 2.767 4.287-.032 5.749.13 9.287 1.032 10.738 2.736 16.118 2.334 24.515-1.832 4.568-2.267 6.807-2.395 11.886-.679 5.098 1.722 8.772 1.545 17.716-.852 9.381-2.515 15.138 4.694 12.413 15.542-1.417 5.64-7.798 10.311-11.329 8.293-2.63-1.504-4.155-.363-4.798 3.588-.726 4.458-1.396 4.778-5.202 2.484-4.183-2.523-5.15-2.261-8.353 2.261-3.384 4.779-4.437 4.849-8.567.571-2.537-2.627-2.269-2.563-6.975-1.663-2.125.407-3.367-.174-5.814-2.722-3.357-3.496-4.911-3.106-9.527 2.391-4.129 4.918-7.898 3.082-11.314-5.514-1.025-2.578-2.103-3.595-3.82-3.602-2.739-.011-4.759-1.921-5.663-5.354-.998-3.788-1.987-4.207-4.233-1.79-2.67 2.872-3.095 3.221-4.867 3.994-4.156 1.813-5.206.893-4.53-3.972 1.17-8.421 1.59-16.537.911-17.608-.778-1.228-5.943 4.891-8.553 10.136-2.747 5.517-3.724 9.074-4.253 15.486-.351 4.249-.767 5.114-2.462 5.114-6.497 0-2.299-18.801 7.022-31.449 3.109-4.218 2.927-4.399-1.955-1.943-6.74 3.39-10.264 6.575-18.357 16.592-4.725 5.849-6.459 6.136-5.082.841 1.84-7.073 7.681-13.434 20.082-21.868 3.934-2.675 4.249-3.159 1.81-2.778-8.111 1.266-13.538 4.169-21.414 11.456-4.055 3.751-6.006 4.849-6.13 3.449-.656-7.41 13.739-18.027 26.712-19.7 2.818-.363 3.532-1.217 3.532-4.228 0-3.477-.46-3.785-4.221-2.828-6.918 1.761-10.027 3.661-16.779 10.249-5.362 5.232-8 6.634-8 4.252 0-4.154 11.783-14.879 23.11-21.036 2.986-1.623 2.284-2.437-2.21-2.562-2.708-.075-3.3-.962-3.301-4.947-.004-7.209-4.483-8.367-5.8-1.5-1.021 5.32-6.786 11.624-9.631 10.532-1.242-.476-1.978-7.156-2.373-21.532-.366-13.308-.937-18.2-2.126-18.2-.732 0-.88.197-2.862 3.8-4.77 8.671-7.921 9.793-9.262 3.298-.377-1.827-.507-4.467-.703-14.216-.033-1.681-.245-2.321-1.024-3.1-1.886-1.887-3.199-.882-6.042 4.623-3.027 5.86-7.749 8.856-10.014 6.353-3.608-3.987 2.042-15.791 12.624-26.372 4.303-4.303 12.12-10.386 13.346-10.386 2.261 0 6.789-5.184 9.272-10.614 4.484-9.805 6.351-12.861 10.102-16.528 2.311-2.26 6.552-4.857 7.932-4.858 1.421-.001 2.508-3.34 1.312-4.029-2.27-1.306-2.283-1.454-.274-3.317 2.365-2.194 3.953-2.945 7.774-3.676 7.408-1.417 11.896-5.487 17.35-15.73 5.544-10.413 10.113-11.656 10.847-2.952.481 5.7 1.781 7.83 7.784 12.76 2.692 2.212 2.965 3.273 2.985 11.59.024 9.606 1.116 11.597 6.655 12.128 4.075.391 4.067.383 7.148 6.939 2.692 5.726 5.007 4.233 3.02-1.947-3.209-9.983-2.256-15.572 3.334-19.562 3.19-2.276 5.385-6.056 2.703-4.653-.975.51-6.434 1.424-6.731 1.127-.367-.366-.209-4.519.272-7.172.474-2.614.103-3.76-1.333-4.121-.931-.233-3.644.704-4.08 1.409-1.074 1.737-2.91.018-3.228-3.02-.518-4.965-1.661-6.409-5.425-6.854-3.33-.395-3.507-.75-4.173-8.373-.447-5.104-2.391-6.562-6.028-4.519-3.215 1.806-3.831.576-2.721-5.428.532-2.878-1.407-3.148-3.338-.464-6.376 8.863-8.027 10.741-10.691 12.164-1.683.899-4.945.863-5.622-.062-.582-.796-.534-1.002 1.04-4.482 5.309-11.745 4.856-18.241-1.701-24.39-2.88-2.701-4.291-2.239-3.549 1.163 1.59 7.29 2.004 20.433.707 22.413-1.806 2.757-4.837-.009-5.855-5.342-1.502-7.868-8.474-9.173-7.928-1.484.34 4.801-.153 4.95-4.966 1.501-8.55-6.126-17.152-8.767-29.526-9.066-7.619-.184-8-.238-8-1.125 0-2.306 6.256-5.988 13.319-7.838 1.857-.486 12.139-.336 14.681.214 1.552.336 2.051-.292 2.368-2.982.366-3.108.661-3.298 4.632-2.996 5.004.381 6.41-.576 6.864-4.673.425-3.829 1.962-4.816 8.62-5.533 14.084-1.516 18.845.361 27.355 10.79 6.36 7.793 8.308 6.594 8.138-5.008-.145-9.91-.215-9.4 1.285-9.4.725 0 1.812.419 2.553.985m-129.232 1.227c13.058 3.401 20.312 18.102 14.7 29.788-7.974 16.606-28.983 18.136-38.778 2.825-10.245-16.016 5.568-37.434 24.078-32.613m233.914 7.186c-5.013 2.178-9.508 9.086-7.916 12.165 2.306 4.461 10.3 1.057 13.663-5.818 2.222-4.541-1.201-8.323-5.747-6.347m-243.628 7.699c-4.791 3.106-4.274 9.299 1.094 13.096 4.667 3.302 11.237-.15 11.237-5.903 0-6.167-7.324-10.44-12.331-7.193m277.656 10.836c11.237 5.533 15.548 21.343 8.074 29.615-5.683 6.291-12.667 7.935-24.199 5.699-2.53-.491-5.469-1.038-6.531-1.215-2.892-.483-3.702-1.323-8.166-8.471-4.215-6.751-4.636-7.862-2.893-7.629.999.134 7.17 1.737 9.39 2.44.66.209 1.889.503 2.732.654l1.532.275-1.18-2.15c-6.564-11.967 8.424-25.528 21.241-19.218m-214.59 6.857c16.051 1.845 31.031 14.374 31.082 25.996l.016 3.785 1.584.316c2.316.463 3.22 1.042 4.046 2.593l.737 1.384-1.2.966c-.66.531-1.436.967-1.725.968-.803.003-8.302 3.163-11.675 4.919-7.893 4.11-11.617 7.965-16.111 16.675-3.115 6.037-5.568 8.89-9.489 11.034-3.612 1.975-3.723 3.074-.6 5.957 4.306 3.976 3.02 5.766-14.8 20.619-4.84 4.034-10.06 8.538-11.6 10.009-14.936 14.264-16.996 14.649-15.548 2.907.668-5.419 1.318-6.82 4.187-9.024 3.379-2.595 2.04-4.16-2.439-2.852-6.356 1.857-6.567.111-.78-6.449 1.549-1.756 4.105-4.903 5.68-6.993 7.015-9.311 13.863-14.152 22.694-16.043 3.398-.727 4.406-1.368 4.406-2.801 0-1.536-.46-1.956-2.143-1.956-8.932-.002-17.569-5.321-21.526-13.255-12.374-24.816 7.233-51.971 35.204-48.755m-85.997 5.187c3.972 1.452 6.447 4.17 6.854 7.527l.208 1.711 1.552-1.057c9.058-6.172 19.613 3.53 15.707 14.438-1.145 3.198-9.533 19.416-10.237 19.792-.671.359-1.928-.245-25.222-12.12-8.656-4.413-11.43-6.005-11.524-6.614-.141-.909 5.963-13.254 8.571-17.337 4.074-6.375 8.521-8.376 14.091-6.34m293.862.825c-5.917 1.286-5.561 9.163.415 9.189 3.497.016 5.798-2.894 4.921-6.224-.58-2.205-2.9-3.495-5.336-2.965m-217.6 2.76c-8.864 2.338-10.045 5.711-1.502 4.291 6.869-1.142 9.131-.189 10.924 4.605.502 1.342 1.574 3.277 2.382 4.299 4.695 5.941 1.826 10.195-3.266 4.843-3.227-3.39-5.987-3.041-5.384.682.754 4.654.744 5.088-.135 6.018-.467.495-1.141.9-1.496.9-.615 0-3.723-3.02-3.723-3.618 0-.157-.537-.507-1.192-.779-2.905-1.203-4.804.911-4.807 5.351-.002 5.181.987 6.871 4.332 7.4 3.656.578 6.067 4.446 2.771 4.446-5.164 0-6.503 5.97-1.904 8.484 4.684 2.56 8.948-.822 9.603-7.617.672-6.977 3.725-10.247 12.597-13.494 5.71-2.089 7.016-4.485 5.82-10.677-2.316-11.991-12.828-18.349-25.02-15.134m-83.195 10.83c-1.379 2.185-1.294 2.451 1.193 3.708 2.764 1.397 2.924 1.385 3.622-.287 1.82-4.356-2.353-7.321-4.815-3.421m50.48 2.963c-.121.744-.706 2.409-1.301 3.7-3.537 7.677-3.637 8.759-1.042 11.268 3.338 3.226 3.778 5.673 1.88 10.453-1.796 4.525-1.115 5.615 3.979 6.373 8.896 1.323 9.699 5.477 2.987 15.451-3.03 4.502-5.714 7.869-11.716 14.699-9.396 10.691-10.988 17.501-4.092 17.501 3.022 0 3.75 3.01 2.173 8.991-1.809 6.866-2.765 8.938-6.37 13.799-6.652 8.972-7.889 9.201-9.748 1.799-2.503-9.974-2.508-18.748-.013-27.372 1.748-6.043 1.334-7.333-2.502-7.805-7.496-.922-4.639-6.404 10.472-20.093 5.007-4.537 4.528-5.949-1.541-4.541-3.937.914-4.28-1.114-.903-5.342 1.385-1.734 1.121-2.24-1.827-3.508-4.393-1.89-4.171-5.528.339-5.528 1.954 0 2.392-1.059 2.66-6.436.39-7.794 2.253-11.783 8.642-18.494 5.583-5.865 8.356-7.586 7.923-4.915m-35.339 1.354c-1.164.941-3.046 4.053-2.816 4.653.258.672 5.373 3.145 5.87 2.838.678-.419 2-3.686 2-4.942 0-2.393-3.232-4.023-5.054-2.549m200.619 15.404c-2.424 1.861-2.006 5.002 1.05 7.887.815.77 2.29 2.66 3.278 4.2 3.075 4.795 4.731 6.024 5.693 4.226 1.187-2.217.444-4.018-3.002-7.277-2.229-2.108-2.977-3.681-2.982-6.267-.004-2.335-2.432-4.001-4.037-2.769m-69.765 1.441c-2.494 1.146-9 8.141-9 9.674 0 1.735 3.582 1.214 6.373-.927 4.289-3.291 3.775-3.101 8.386-3.102 3.236 0 4.573-.166 5.641-.7 5.483-2.738-5.675-7.579-11.4-4.945m170.053 1.874c13.42 6.162 13.276 25.639-.229 30.962-3.282 1.294-3.404 1.134-5.641-7.39-2.876-10.963-2.762-10.74-4.965-9.689-2.406 1.147-2.438 4.008-.06 5.411 1.465.865 1.658 1.339 3.495 8.61.997 3.947.829 4.414-1.434 3.984-9.546-1.817-15.344-16.001-10.451-25.565 2.939-5.742 13.213-9.111 19.285-6.323m-333.316 8.719c2.895 1.621 5.893 3.301 6.663 3.734 3.353 1.885 5.926 3.319 14.4 8.026 13.245 7.357 12.185 5.884 10.568 14.688-.81 4.407.116 3.991-15.168 6.806-1.98.365-5.85 1.097-8.6 1.627-7.955 1.532-8.799 1.691-12.6 2.37-1.98.353-4.377.84-5.326 1.082-2.694.685-3.035.112-2.324-3.901.31-1.748.791-4.529 1.07-6.179.783-4.638-.437-4.151 13.58-5.418 3.63-.329 7.815-.71 9.301-.848 3.257-.302 3.119-.705-.8-2.34-1.485-.62-3.421-1.444-4.301-1.83-4.227-1.858-6.314-2.758-10.06-4.341-4.493-1.899-4.984-2.446-4.505-5.007.167-.889.616-3.596.998-6.016 1.014-6.426.393-6.212 7.104-2.453m330.817 3.353c.114.385.321 1.24.46 1.9.733 3.499 1.187 3.89 2.731 2.345 2.151-2.15.986-4.945-2.061-4.945-1.087 0-1.299.131-1.13.7m-157.375 5.127c-4.142 5.369-7.151 7.053-13.179 7.375-6.951.37-9.445 2.188-5.513 4.016 1.745.811 2.292 1.33 3.139 2.982.598 1.164 1.35 2.059 1.8 2.143 1.435.266 1.774.898 1.774 3.306 0 2.765.007 2.768 1.695.926 3.034-3.311 6.535-2.032 6.224 2.274-.521 7.204-11.767 9.198-14.534 2.578-.755-1.807-.749-4.751.014-6.224 1.139-2.203-1.943-2.081-6.452.256-1.511.783-4.817 2.471-7.347 3.752-7.415 3.753-10.143 6.33-9.919 9.369.239 3.253 2.878 2.439 5.997-1.849 3.991-5.487 7.472-5.816 16.179-1.53 7.596 3.739 8.837 4.01 12.942 2.824 5.595-1.617 8.208.317 9.01 6.667.399 3.16 2.048 4.82 3.73 3.754 1.497-.949.041-7.03-2.623-10.952-2.228-3.279-2.897-5.044-2.916-7.694-.02-2.735-.868-4.901-2.739-7-1.398-1.568-1.555-2.671-.635-4.45.344-.666.788-2.207.986-3.424.234-1.437.751-2.696 1.474-3.586 3.669-4.517 3.714-4.592 3.714-6.171 0-2.197-.754-2.02-2.821.658m51.301 3.853c-.264.264-.48 1.085-.48 1.825 0 1.646-1.767 5.506-2.711 5.921-.379.166-1.575.409-2.657.538-2.565.307-2.623.712-.469 3.236 5.998 7.027 3.505 13.973-3.947 10.992-4.21-1.685-4.778-.009-.694 2.045 5.587 2.811 8.202 7.143 8.416 13.945l.137 4.381 1.719 2.219c2.335 3.013 2.864 4.192 3.201 7.137.303 2.653.798 3.016 1.699 1.249 1.079-2.113.652-3.932-1.739-7.416-3.407-4.965-3.49-8.552-.197-8.552 4.934 0 9.242 7.365 9.242 15.802 0 3.84 1.009 4.543 2.437 1.698.992-1.976 2.294-3.5 2.99-3.5 2.413 0-3.097-8.702-8.748-13.813-5.233-4.734-4.932-7.22.945-7.813 6.072-.612 13.576-8.127 13.576-13.595 0-2.312-4.004-4.779-7.756-4.779-2.183 0-2.644-.702-2.644-4.026 0-1.154-.181-1.974-.435-1.974-.604 0-7.59 6.502-8.552 7.959-1.192 1.806-2.516 2.269-3.785 1.324-1.98-1.474-1.972-2.466.055-6.573 2.789-5.652 3.041-10.874.397-8.23m102.22 15.568c5.682 2.751 5.104 10.771-.92 12.759-5.072 1.674-10.268-3.494-8.598-8.552 1.389-4.209 5.636-6.086 9.518-4.207m-93.98.032c.264.264.48.962.48 1.551 0 2.369 1.327 2.466 2.083.153.692-2.118 1.614-2.179 4.326-.288 3.605 2.514 2.84 6.547-1.864 9.835-6.793 4.749-16.133-3.891-10.469-9.684 1.68-1.719 4.485-2.526 5.444-1.567m36.96 1.555c8.658 1.778 20.997 7.622 23.493 11.128 1.71 2.401.878 3.887-3.594 6.425-3.666 2.079-4.102 3.074-3.766 8.606.345 5.689.689 6.324 6.607 12.193 6.238 6.187 6.232 7.782-.036 10.55-4.313 1.905-4.055 2.594 2.659 7.112 5.727 3.854 5.704 3.97-1.639 8.139-4.819 2.736-5.004 3.026-5.004 7.839 0 5.457-.78 5.688-4.98 1.473-4.036-4.05-5.904-7.857-6.206-12.647-.265-4.202-.056-3.875-4.245-6.662-5.384-3.582-8.169-7.827-8.169-12.449 0-2.98 1.233-2.896 6.489.442 5.486 3.484 5.747 3.258 5.623-4.867-.17-11.117-3.006-20.18-9.106-29.099-3.878-5.671-3.962-7.893-.326-8.602.044-.009 1.034.18 2.2.419m90.978 10.842c-.277 6.721-.689 8.323-2.142 8.323-.366 0-1.846.278-3.29.618-3.257.766-5.051 1.17-8.626 1.944-1.54.333-4.15.898-5.8 1.255-3.323.719-5.013 1.303-4.693 1.623.187.187 1.001.438 5.693 1.752 20.029 5.608 18.321 4.586 17.993 10.763-.343 6.467-.61 8.477-1.152 8.685-.273.104-3.363-.967-6.868-2.38s-10.693-4.306-15.973-6.429-9.96-4.015-10.4-4.205c-1.467-.632-3.585-1.5-5-2.049-2.347-.91-2.4-1.059-2.4-6.659 0-7.107-.787-6.328 9.8-9.704 13.906-4.435 28.841-9.286 29.6-9.614.44-.19 1.413-.358 2.163-.373l1.362-.027zm-337.631.234c5.015 2.561 6.53 6.701 7.35 20.089.815 13.313 1.435 12.128-6.577 12.573-5.802.322-12.214.693-25.111 1.453-10.273.605-9.588.89-9.962-4.146-1.066-14.347-.875-19.199.892-22.68 3.07-6.047 13.095-7.331 17.024-2.179l1.089 1.427.516-1.227c2.338-5.559 9.354-8.08 14.779-5.31m-9.015 13.564c-.7.891-.825 1.522-.729 3.683l.117 2.608 2.2-.096c4.628-.202 5.367-1.177 3.958-5.219-.814-2.336-4.031-2.902-5.546-.976m-14.482 1.72c-.949.583-1.582 2.777-1.204 4.178.313 1.158.35 1.171 2.896 1.072 3.089-.122 3.192-.201 2.914-2.257-.366-2.713-2.647-4.195-4.606-2.993m326.975 10.905c5.493 4.19 2.163 12.786-4.731 12.214-8.926-.74-7.855-13.943 1.087-13.405 1.687.102 2.611.404 3.644 1.191m-229.139 4.492c2.944 2.945 3.312 9.81 1.017 19.008-.192.77-.825 3.38-1.407 5.8-2.764 11.494-3.862 12.575-8.541 8.4-4.099-3.658-4.375-3.154-3.632 6.639.978 12.893-1.315 18.295-9.403 22.151-8.099 3.862-12.326 1.323-6.771-4.067 3.819-3.704 4.595-7.578 3.552-17.723-2.329-22.659-.111-29.242 12.481-37.038 7.512-4.651 10.482-5.392 12.704-3.17m-33.653 2.756c4.259 1.815 5.798 8.198 5.31 22.026-.516 14.646-3.871 19.778-9.349 14.3-6.271-6.271-8.138-21.199-3.761-30.074 2.636-5.344 5.167-7.373 7.8-6.252m126.02-.226c-.996.624-2.783 10.804-2.329 13.262.614 3.319 2.955 5.664 5.005 5.013.89-.282 1.496-2.071.95-2.8-2.843-3.797-2.759-3.503-2.759-9.636 0-5.787-.081-6.332-.867-5.839m46.683 13.059c-.985 1.187-.335 2.011 1.688 2.141 1.912.123 2.119-.042 1.903-1.522-.182-1.251-2.706-1.686-3.591-.619m-72.402 4.193c-1.441 2.693.758 10.026 3.007 10.026 2.201 0 1.725-7.316-.628-9.668-1.333-1.334-1.818-1.407-2.379-.358m-56.595 6.598c5.165 7.884 4.869 26.697-.574 36.428-1.864 3.333-3.055 6.473-4.667 12.305-1.58 5.714-3.495 6.016-8.098 1.275-10.416-10.724-10.727-19.7-1.171-33.78 10.305-15.184 13.126-18.339 14.51-16.228m150.581 4.834c-.33.077-1.253.247-2.051.376-1.522.247-3.549 1.799-3.549 2.717 0 .429.989.506 4.9.383 4.605-.146 12.706.793 15.318 1.774 1.369.514-.149-1.016-2.508-2.528-2.786-1.786-9.584-3.314-12.11-2.722m-85.443 5.161c-.331.862.13 1.937.743 1.733.275-.092.5-.587.5-1.1 0-1.096-.891-1.55-1.243-.633m7.523 3.913c-.927.927-.277 2.72.986 2.72.725 0 1.422-1.492 1.129-2.415-.278-.878-1.383-1.037-2.115-.305m7.39 9.783c-.36.361.501 1.337 1.179 1.337.759 0 .696-1.059-.082-1.357-.782-.301-.776-.301-1.097.02m-138.179 7.737c10.636 14.037 12.016 22.063 5.353 31.14-7.701 10.491-21.348 12.73-30.231 4.958-2.267-1.982-13.613-16.848-13.613-17.835 0-.331 6.075-5.143 13.5-10.692 7.425-5.548 14.659-10.97 16.076-12.047 3.535-2.689 3.455-2.729 8.915 4.476m147.287-5.965c-.311.504.59 1.632 1.067 1.337.557-.344.416-1.263-.232-1.512-.323-.124-.699-.045-.835.175m121.694 1.943c9.56 3.181 15.88 10.975 15.909 19.622.02 5.985-.947 8.14-8.471 18.865-5.939 8.468-5.034 8.185-11.653 3.635-20.086-13.808-27.223-18.89-27.649-19.685-.45-.84 7.772-12.941 11.147-16.405 6.335-6.502 13.249-8.515 20.717-6.032m-8.472 13.638c-1.369.412-4.006 2.475-4.614 3.61-.5.935-.712.75 6.814 5.953l5.8 4.01.881-.995c4.765-5.38-1.818-14.703-8.881-12.578m-274.692 7.728c-6.654 5.032-6.536 4.835-4.132 6.952 7.015 6.174 17.534-2.826 12.152-10.396-1.148-1.615-1.572-1.433-8.02 3.444m249.329 5.956c1.161 1.342 4.707 5.647 7.163 8.695.77.956 2.75 3.392 4.4 5.413 15.185 18.597 14.256 16.228 8.269 21.081-5.696 4.618-4.483 4.607-16.113.139-12.076-4.639-12.219-4.663-9.624-1.6 5.006 5.905 10.268 12.762 10.268 13.378 0 .657-5.875 5.792-8.844 7.731-1.294.845-1.525.672-5.231-3.937-2.857-3.552-10.342-12.769-14.13-17.4-6.018-7.358-7.795-9.649-7.795-10.05 0-.659 7.52-7.184 9.624-8.351.557-.309 4.179.698 6.976 1.939 7.984 3.543 16.2 6.64 16.2 6.107 0-.196-2.79-3.711-6.2-7.813-7.575-9.112-7.468-8.229-1.569-12.937 5.263-4.2 5.096-4.139 6.606-2.395m-206.333 9.645c13.517 5.112 19.02 20.262 11.604 31.95-8.581 13.525-25.729 14.345-35.974 1.72-13.421-16.54 4.434-41.21 24.37-33.67m-10.565 14.207c-7.037 4.463-5.06 14.448 2.861 14.448 3.449 0 6.962-2.891 7.994-6.58 1.8-6.428-5.164-11.476-10.855-7.868m181.563 2.148c.427.534 8.629 19.685 10.15 23.7 3.849 10.158-1.445 19.085-13.56 22.867-9.595 2.995-17.19-1.088-21.285-11.443-.397-1.003-1.172-2.814-1.724-4.024-2.992-6.567-7.114-16.943-6.926-17.433.22-.573 1.623-1.274 7.914-3.957 4.732-2.018 4.637-2.052 6.553 2.39.57 1.32 1.274 2.94 1.566 3.6s1.738 4.08 3.214 7.6c4.272 10.19 4.819 10.947 7.546 10.436 3.845-.722 4.273-2.99 1.665-8.836-.295-.66-1.74-4.08-3.212-7.6s-2.918-6.94-3.214-7.6c-2.438-5.431-2.831-4.79 5.011-8.165 4.943-2.128 5.684-2.308 6.302-1.535m-138.232 4.131c11.585 4.666 14.123 6.18 16.737 9.979 5.157 7.495.118 20.142-8.04 20.181-2.322.011-2.384.09-1.678 2.124.322.927 1.011 4.115 1.531 7.085s1.11 6.253 1.31 7.295c.578 3.005.23 3.007-6.953.054-8.39-3.45-7.77-2.647-8.321-10.767-.473-6.953-.651-7.355-1.852-4.182-.519 1.371-1.064 2.666-2.734 6.505-1.146 2.632-1.269 2.633-7.62.045-6.919-2.82-6.778-2.436-3.58-9.75.639-1.463.876-2.045 3.334-8.2 1.23-3.08 2.403-5.96 2.608-6.4.204-.44 1.532-3.68 2.949-7.2 3.992-9.913 3.729-9.4 4.814-9.4.53 0 3.903 1.184 7.495 2.631m35.33 11.319c1.32.215 4.29.687 6.6 1.05 11.412 1.793 11.514 1.814 12.039 2.446.337.407.292 1.532-.178 4.449-.346 2.148-.742 4.73-.881 5.739-.393 2.873-.404 2.879-4.105 2.133-4.353-.877-4.186-1.027-5.011 4.487-.39 2.61-.868 5.646-1.062 6.746s-.644 3.98-1 6.4-.817 5.155-1.024 6.077c-.208.923-.378 2.138-.378 2.7 0 1.217-.204 1.237-4.848.468-1.843-.306-4.747-.781-6.452-1.057s-3.1-.624-3.1-.773c0-.15.431-2.87.958-6.044.528-3.174 1.254-7.661 1.615-9.971s.932-5.883 1.267-7.941c.336-2.058.511-3.841.389-3.963-.325-.326-3.762-.845-5.775-.872l-1.746-.024.275-2.3c.334-2.784 1.386-9.24 1.658-10.174.33-1.133 1.443-1.089 10.759.424m63.855.15c.575.473 1.461 3.41 4.372 14.5 1.375 5.241 2.651 10.027 4.158 15.6.535 1.98 1.261 4.675 1.612 5.989 1.003 3.751.797 4.354-1.597 4.658-11.572 1.466-11.088 1.546-11.75-1.937-.242-1.271-.896-4.47-1.454-7.11s-1.184-5.7-1.39-6.8c-.207-1.1-.536-2.54-.732-3.2l-.357-1.2-.447 1.6c-.245.88-.915 4.39-1.488 7.8-1.466 8.727-2.17 12.143-2.594 12.569-1.283 1.293-7.988 1.353-8.535.077-.105-.245-1.534-3.784-3.176-7.864-5.151-12.803-5.661-13.66-5.279-8.863.546 6.863.582 17.556.061 18.269-.88 1.203-12.635 2.421-13.281 1.376-.149-.24-.07-3.975.174-8.3s.628-12.904.853-19.064c.593-16.214-.528-14.419 9.61-15.395 6.382-.615 5.435-1.808 11.03 13.895 2.091 5.869 2.728 6.48 3.126 3 .145-1.265.424-3.2.62-4.3s.649-4.07 1.006-6.6c.844-5.965 1.265-7.508 2.112-7.743.38-.106 2.581-.401 4.891-.656s4.56-.515 5-.578c1.896-.27 2.886-.191 3.455.277m-99.224 2.4c-.192.495-.734 1.868-1.205 3.052-.47 1.184-.804 2.194-.741 2.246 1.857 1.519 4.905 1.365 5.919-.298 1.454-2.384.734-4.535-1.846-5.516-1.46-.555-1.737-.488-2.127.516" fill="#241c23"/></g></svg>