<?xml version="1.0" encoding="UTF-8" standalone="no"?>
<!-- Generator: Adobe Illustrator 20.0.0, SVG Export Plug-In . SVG Version: 6.00 Build 0)  -->

<svg
   version="1.1"
   x="0px"
   y="0px"
   viewBox="0 0 330.99998 301.3857"
   xml:space="preserve"
   id="svg19"
   width="331"
   height="301.38571"
   xmlns:xlink="http://www.w3.org/1999/xlink"
   xmlns="http://www.w3.org/2000/svg"
   xmlns:svg="http://www.w3.org/2000/svg"><defs
   id="defs19" />
<style
   type="text/css"
   id="style1">
	.st0{fill:#0066B2;}
	.st1{fill:#FFFFFF;}
	.st2{fill:#DC052D;}
	.st3{clip-path:url(#SVGID_2_);fill:#0066B2;}
</style>
<g
   id="Ringe"
   transform="matrix(0.40296138,0,0,0.40296138,51.262892,72.946893)">
	<path
   class="st0"
   d="M 283.5,0 C 126.9,0 0,126.9 0,283.5 0,440 126.9,566.9 283.5,566.9 440.1,566.9 567,440 567,283.4 566.9,126.9 440,0 283.5,0 Z"
   id="path1"
   style="fill:#286cfd;fill-opacity:1" />
	<path
   class="st1"
   d="m 283.5,14.2 c -148.7,0 -269.3,120.6 -269.3,269.3 0,148.7 120.6,269.3 269.3,269.3 148.7,0 269.3,-120.6 269.3,-269.3 C 552.8,134.7 432.2,14.2 283.5,14.2 Z"
   id="path2" />
	<path
   class="st2"
   d="M 283.5,26.9 C 141.8,26.9 27,141.8 27,283.4 26.9,425.1 141.8,540 283.5,540 425.1,540 540,425.1 540,283.5 540,141.8 425.1,26.9 283.5,26.9 Z m 0,416.7 c -88.5,0 -160.2,-71.7 -160.2,-160.2 0,-88.5 71.7,-160.2 160.2,-160.2 88.5,0 160.2,71.7 160.2,160.2 -0.1,88.5 -71.8,160.2 -160.2,160.2 z"
   id="path3"
   style="fill:#ed0038;fill-opacity:1" />
</g>
<g
   id="Rapport"
   transform="matrix(0.40296138,0,0,0.40296138,51.262892,72.946893)">
	<g
   id="g4">
		<defs
   id="defs3"><rect
     id="SVGID_1_"
     x="136"
     y="136"
     width="294.89999"
     height="294.89999" /></defs>
		<clipPath
   id="SVGID_2_">
			<use
   xlink:href="#SVGID_1_"
   style="overflow:visible"
   id="use3" />
		</clipPath>
		<path
   class="st3"
   d="m 142.7,327 c 6.7,21.7 18,40.8 32.5,56.4 V 317 l -37.6,-54.9 c -3.1,21.1 -1.7,43.2 5.1,64.9 m 75.8,52.7 v -76.1 l -43,-62.8 v -57.6 c -8,8.6 -14.8,18.1 -20.5,28.2 l 20.2,29.5 V 317 l 43,62.8 v 35.8 c 10.4,5.2 21.5,9.1 32.9,11.7 z m 43.3,-89.5 43,62.8 v 76.1 l -43,-62.8 v -76.1 l -43,-62.8 v -76.1 l 43,62.8 z m 43.3,-13.4 -43,-62.8 v -76.1 l 43,62.8 v 76.1 l 43,62.8 v 76.1 l -43,-62.8 z M 239.9,142.7 c -22,6.8 -41.2,18.3 -56.9,32.9 l 35.5,51.9 v 76.1 l 43,62.8 v 62.9 c 21.3,3.2 43.6,1.8 65.6,-5 22,-6.8 41.2,-18.3 56.9,-32.9 l -35.5,-51.9 v -76.1 l -43,-62.8 v -62.9 c -21.3,-3.2 -43.7,-1.8 -65.6,5 M 391.8,326.1 V 250 l -43,-62.8 v -35.8 c -10.4,-5.2 -21.5,-9.1 -32.9,-11.7 l 32.5,47.5 v 76.1 l 43,62.8 v 57.6 c 8,-8.6 14.8,-18.1 20.5,-28.2 z m 32.5,-86.2 c -6.7,-21.7 -18,-40.8 -32.5,-56.4 V 250 l 37.6,54.9 c 3,-21.2 1.6,-43.3 -5.1,-65"
   clip-path="url(#SVGID_2_)"
   id="path4"
   style="fill:#286cfd;fill-opacity:1" />
	</g>
</g>
<g
   id="Schrift"
   transform="matrix(0.40296138,0,0,0.40296138,51.262892,72.946893)">
	<g
   id="g11">
		<path
   class="st1"
   d="m 112,336.5 7.3,15.5 -11.8,22.4 c -1.8,3.3 -3.3,6.1 -3.3,6.1 l 0.2,0.3 c 0,0 3.1,0.2 6.9,0.5 l 25.2,2.3 9,14.5 -54.5,31.8 -8.7,-14 22.8,-13.3 c 5.3,-3.1 9.3,-5.3 9.3,-5.3 l -0.2,-0.3 c 0,0 -2.8,-0.2 -8.5,-1.1 l -23.2,-3.5 -0.2,-0.3 9.8,-21.3 c 2.4,-5.3 3.8,-7.7 3.8,-7.7 l -0.2,-0.3 c 0,0 -4,2.2 -9.5,5 l -23.6,11.9 -7,-14.9 z"
   id="path5" />
		<path
   class="st1"
   d="m 153.7,405.2 12.6,11.2 -25.2,30 c -4.1,5 -3.9,10.2 2.3,15.2 6.3,4.9 11.4,3.9 15.3,-1.3 l 23.3,-31.6 13.8,9.6 -23.9,32.3 c -10.9,14.8 -25.1,11.9 -37.4,2.3 -12.3,-9.7 -18.4,-22.8 -6.6,-36.9 z m 25.1,20.5 -15.5,10.8 -0.3,-0.2 6.9,-17.6 z"
   id="path6" />
		<path
   class="st1"
   d="m 205.4,443.8 16.4,6 9.3,31.7 c 2,6.8 2.8,10.5 2.8,10.5 l 0.5,0.1 c 0,0 1.1,-4.7 2.6,-10.5 l 6.7,-25.2 16,3.8 -16.3,61 -17,-4.1 -10.5,-33.1 c -2,-6.4 -2.9,-10.5 -2.9,-10.5 l -0.5,-0.1 c 0,0 -1.4,5 -3.2,10.3 l -8.6,25.7 -15.4,-5.7 z"
   id="path7" />
		<path
   class="st1"
   d="m 328.2,498.4 c 0.3,15 -9,25.2 -26.9,26.5 -16.7,1.1 -32.4,-6.5 -33.3,-30.9 -0.9,-24.7 12.8,-34 28.8,-35.1 17.4,-1.2 27.5,8.5 29.2,21.7 l -16.9,1.1 c -1.6,-5.7 -4.6,-9.1 -12.1,-8.6 -7,0.5 -11.8,6.9 -11.3,19.6 0.6,13.3 6.1,18.4 13.9,17.9 7.8,-0.5 11.2,-4.3 11.6,-11.1 z"
   id="path8" />
		<path
   class="st1"
   d="m 332,454.8 15.7,-6 8.9,21.3 19.6,-8.9 -10.2,-20.7 14.8,-7.9 28,56.6 -14.8,7.9 -11.1,-22.5 -20.5,9.3 9.6,23.1 -15.7,6 z"
   id="path9" />
		<path
   class="st1"
   d="m 390.6,425.2 30.2,-28.9 9.7,9.5 -18.9,18.1 7.2,8 18.3,-17.6 9.5,9.3 -18.9,18.1 7.9,8.8 21.3,-20.4 9.7,9.5 -33.8,32.4 z"
   id="path10" />
		<path
   class="st1"
   d="m 428.4,387.3 8.7,-15.2 32.8,-3.8 c 7.1,-0.8 10.8,-1 10.8,-1 l 0.2,-0.4 c 0,0 -4.5,-1.9 -9.9,-4.4 l -23.7,-10.9 6.4,-15.2 57.3,26.4 -6.9,16 -34.4,4.8 c -6.7,0.9 -10.8,1.1 -10.8,1.1 l -0.2,0.4 c 0,0 4.6,2.2 9.6,4.9 l 23.8,12.8 -8.2,14.3 z"
   id="path11" />
	</g>
	<g
   id="g19">
		<path
   class="st1"
   d="m 67.4,178.3 12.7,5 -10.1,28 11.8,3.9 9.5,-26.2 12.3,4.9 -9.2,25.4 22.1,7.2 -4.8,16.1 L 51.3,223 Z"
   id="path12" />
		<path
   class="st1"
   d="m 144.8,136.7 c 10.9,9.9 12.8,23.4 1.9,37.2 -10,12.6 -25.3,18.7 -45.2,3.9 -19.6,-14.5 -17,-31.7 -6.6,-44.9 11,-13.9 25.1,-15.1 36,-7.3 l -10.5,13.3 c -5.1,-2.9 -9.9,-2.6 -14.7,3.5 -4.8,6.1 -3.7,13.6 6.9,21.5 10.2,7.6 18.1,7.3 22.5,1.7 4.7,-6 3.8,-10.8 -0.8,-15.6 z"
   id="path13" />
		<path
   class="st1"
   d="m 186.2,65.3 c 11.2,-5.2 22.1,-6.3 26.9,5.1 3.9,9.3 1.4,13.4 -3.4,17.5 l 0.2,0.4 c 5.2,-1.2 12.2,-1 16.6,9.4 5.3,12.5 -2.8,19.8 -14,24.9 l -23.6,10.9 -28.3,-56.4 z m 9.5,22.8 c 4.4,-2 5.6,-4.1 3.9,-8.3 -1.7,-4.1 -4.6,-4.4 -8.8,-2.4 l -9.4,4.4 5.3,10.5 z m 10.7,23.1 c 4.8,-2.2 6.1,-4.1 4.1,-8.9 -1.9,-4.5 -5.2,-4.6 -10.1,-2.4 l -8.1,3.8 5.7,11.3 z"
   id="path14" />
		<path
   class="st1"
   d="m 301.1,106.7 h -17.9 l -5.2,-11.3 -21.7,1.9 -3.1,12 -17.6,3.1 17.5,-66 19.5,-1.7 z m -28,-23.5 -5.4,-12.3 C 265.8,66.7 264.4,63 264.4,63 h -0.3 c 0,0 -0.7,3.9 -1.9,8.3 l -3.2,13 z"
   id="path15" />
		<path
   class="st1"
   d="m 317,88.2 -14.7,-44.8 18.9,3.6 5.7,19 c 1.1,3.6 2,7.5 2,7.5 l 0.3,0.1 c 0,0 2.5,-3.1 4.9,-6 l 13.1,-14.9 18.7,4.6 -31.9,34.7 -4.9,20.9 -16.5,-3.6 z"
   id="path16" />
		<path
   class="st1"
   d="m 378.7,62.7 39.7,21.8 -6.9,11.7 -24.5,-13.4 -4.9,9.6 22.6,12.4 -6.8,11.4 -21.9,-12 -5.4,10.5 23.9,13.1 -6.9,11.7 -37.5,-20.6 z"
   id="path17" />
		<path
   class="st1"
   d="m 440.4,101.6 19.3,20.6 c 9.9,10.6 12.2,20.7 0.5,31 -7.5,6.6 -13,8.4 -19.6,5.8 l -10.1,25.4 -11.9,-14.6 9.2,-20.8 -5.5,-5.9 -14.9,14.9 -12.2,-11.6 z m -8.7,32.3 6.5,7 c 3.6,3.9 6.7,4 10.7,0.4 4,-3.5 3.9,-6.9 0.3,-10.7 l -6.9,-7.3 z"
   id="path18" />
		<path
   class="st1"
   d="m 456.3,242.6 -5.8,-16.5 18.6,-27.2 c 4,-5.8 6.3,-8.8 6.3,-8.8 l -0.2,-0.5 c 0,0 -4.3,2.2 -9.8,4.6 l -23.8,10.8 -7.2,-14.8 57.5,-26 7.6,15.7 -18.8,29.1 c -3.6,5.5 -6.3,8.9 -6.3,8.9 l 0.2,0.5 c 0,0 4.7,-2 10,-4.1 l 25.3,-9.6 5.4,15.6 z"
   id="path19" />
	</g>
</g>
<g
   id="g20"
   transform="matrix(-0.40296138,0,0,0.40296138,277.9233,65.342223)"><path
     id="polygon52"
     style="fill:#e3be68;fill-opacity:1;stroke-width:6.99999"
     class="cls-1"
     d="m 278.82565,-162.15505 -19.31998,59.5 19.31998,26.59998 z" /><path
     id="polygon54"
     style="fill:#ab872e;fill-opacity:1;stroke-width:6.99999"
     class="cls-5"
     d="m 278.82565,-162.15505 v 86.09998 l 19.39,-26.59998 z" /><path
     id="polygon56"
     style="fill:#e3be68;fill-opacity:1;stroke-width:6.99999"
     class="cls-1"
     d="m 247.53567,-65.83504 31.28998,-10.22003 -81.96998,-26.59998 z" /><path
     id="polygon58"
     style="fill:#ab872e;fill-opacity:1;stroke-width:6.99999"
     class="cls-5"
     d="m 196.85567,-102.65505 81.96998,26.59998 -19.31998,-26.59998 z" /><path
     id="polygon60"
     style="fill:#e3be68;fill-opacity:1;stroke-width:6.99999"
     class="cls-1"
     d="M 228.14567,-6.3350703 278.82565,-43.15504 v -32.90003 z" /><path
     id="polygon62"
     style="fill:#ab872e;fill-opacity:1;stroke-width:6.99999"
     class="cls-5"
     d="m 247.53567,-65.83504 -19.39,59.4999697 50.67998,-69.7199997 z" /><path
     id="polygon64"
     style="fill:#e3be68;fill-opacity:1;stroke-width:6.99999"
     class="cls-1"
     d="m 329.50568,-6.3350703 -19.32,-59.4999697 -31.36003,-10.22003 z" /><path
     id="polygon66"
     style="fill:#ab872e;fill-opacity:1;stroke-width:6.99999"
     class="cls-5"
     d="M 278.82565,-43.15504 329.50568,-6.3350703 278.82565,-76.05507 Z" /><path
     id="polygon68"
     style="fill:#e3be68;fill-opacity:1;stroke-width:6.99999"
     class="cls-1"
     d="m 278.82565,-76.05507 82.04002,-26.59998 h -62.65002 z" /><path
     id="polygon70"
     style="fill:#ab872e;fill-opacity:1;stroke-width:6.99999"
     class="cls-5"
     d="m 278.82565,-76.05507 31.36003,10.22003 50.67999,-36.82001 z" /></g><g
   id="g20-2"
   transform="matrix(-0.34358106,-0.21054674,-0.21054674,0.34358106,324.18416,141.19173)"><path
     id="polygon52-5"
     style="fill:#e3be68;fill-opacity:1;stroke-width:6.99999"
     class="cls-1"
     d="m 278.82565,-162.15505 -19.31998,59.5 19.31998,26.59998 z" /><path
     id="polygon54-8"
     style="fill:#ab872e;fill-opacity:1;stroke-width:6.99999"
     class="cls-5"
     d="m 278.82565,-162.15505 v 86.09998 l 19.39,-26.59998 z" /><path
     id="polygon56-8"
     style="fill:#e3be68;fill-opacity:1;stroke-width:6.99999"
     class="cls-1"
     d="m 247.53567,-65.83504 31.28998,-10.22003 -81.96998,-26.59998 z" /><path
     id="polygon58-9"
     style="fill:#ab872e;fill-opacity:1;stroke-width:6.99999"
     class="cls-5"
     d="m 196.85567,-102.65505 81.96998,26.59998 -19.31998,-26.59998 z" /><path
     id="polygon60-2"
     style="fill:#e3be68;fill-opacity:1;stroke-width:6.99999"
     class="cls-1"
     d="M 228.14567,-6.3350703 278.82565,-43.15504 v -32.90003 z" /><path
     id="polygon62-2"
     style="fill:#ab872e;fill-opacity:1;stroke-width:6.99999"
     class="cls-5"
     d="m 247.53567,-65.83504 -19.39,59.4999697 50.67998,-69.7199997 z" /><path
     id="polygon64-1"
     style="fill:#e3be68;fill-opacity:1;stroke-width:6.99999"
     class="cls-1"
     d="m 329.50568,-6.3350703 -19.32,-59.4999697 -31.36003,-10.22003 z" /><path
     id="polygon66-0"
     style="fill:#ab872e;fill-opacity:1;stroke-width:6.99999"
     class="cls-5"
     d="M 278.82565,-43.15504 329.50568,-6.3350703 278.82565,-76.05507 Z" /><path
     id="polygon68-4"
     style="fill:#e3be68;fill-opacity:1;stroke-width:6.99999"
     class="cls-1"
     d="m 278.82565,-76.05507 82.04002,-26.59998 h -62.65002 z" /><path
     id="polygon70-6"
     style="fill:#ab872e;fill-opacity:1;stroke-width:6.99999"
     class="cls-5"
     d="m 278.82565,-76.05507 31.36003,10.22003 50.67999,-36.82001 z" /></g><g
   id="g20-6"
   transform="matrix(-0.34358106,0.21054674,0.21054674,0.34358106,198.53755,23.780193)"><path
     id="polygon52-6"
     style="fill:#e3be68;fill-opacity:1;stroke-width:6.99999"
     class="cls-1"
     d="m 278.82565,-162.15505 -19.31998,59.5 19.31998,26.59998 z" /><path
     id="polygon54-2"
     style="fill:#ab872e;fill-opacity:1;stroke-width:6.99999"
     class="cls-5"
     d="m 278.82565,-162.15505 v 86.09998 l 19.39,-26.59998 z" /><path
     id="polygon56-7"
     style="fill:#e3be68;fill-opacity:1;stroke-width:6.99999"
     class="cls-1"
     d="m 247.53567,-65.83504 31.28998,-10.22003 -81.96998,-26.59998 z" /><path
     id="polygon58-7"
     style="fill:#ab872e;fill-opacity:1;stroke-width:6.99999"
     class="cls-5"
     d="m 196.85567,-102.65505 81.96998,26.59998 -19.31998,-26.59998 z" /><path
     id="polygon60-1"
     style="fill:#e3be68;fill-opacity:1;stroke-width:6.99999"
     class="cls-1"
     d="M 228.14567,-6.3350703 278.82565,-43.15504 v -32.90003 z" /><path
     id="polygon62-9"
     style="fill:#ab872e;fill-opacity:1;stroke-width:6.99999"
     class="cls-5"
     d="m 247.53567,-65.83504 -19.39,59.4999697 50.67998,-69.7199997 z" /><path
     id="polygon64-4"
     style="fill:#e3be68;fill-opacity:1;stroke-width:6.99999"
     class="cls-1"
     d="m 329.50568,-6.3350703 -19.32,-59.4999697 -31.36003,-10.22003 z" /><path
     id="polygon66-7"
     style="fill:#ab872e;fill-opacity:1;stroke-width:6.99999"
     class="cls-5"
     d="M 278.82565,-43.15504 329.50568,-6.3350703 278.82565,-76.05507 Z" /><path
     id="polygon68-8"
     style="fill:#e3be68;fill-opacity:1;stroke-width:6.99999"
     class="cls-1"
     d="m 278.82565,-76.05507 82.04002,-26.59998 h -62.65002 z" /><path
     id="polygon70-2"
     style="fill:#ab872e;fill-opacity:1;stroke-width:6.99999"
     class="cls-5"
     d="m 278.82565,-76.05507 31.36003,10.22003 50.67999,-36.82001 z" /></g><g
   id="g20-0"
   transform="matrix(-0.19965071,-0.35002495,-0.35002495,0.19965071,329.90942,229.23561)"><path
     id="polygon52-2"
     style="fill:#e3be68;fill-opacity:1;stroke-width:6.99999"
     class="cls-1"
     d="m 278.82565,-162.15505 -19.31998,59.5 19.31998,26.59998 z" /><path
     id="polygon54-5"
     style="fill:#ab872e;fill-opacity:1;stroke-width:6.99999"
     class="cls-5"
     d="m 278.82565,-162.15505 v 86.09998 l 19.39,-26.59998 z" /><path
     id="polygon56-1"
     style="fill:#e3be68;fill-opacity:1;stroke-width:6.99999"
     class="cls-1"
     d="m 247.53567,-65.83504 31.28998,-10.22003 -81.96998,-26.59998 z" /><path
     id="polygon58-4"
     style="fill:#ab872e;fill-opacity:1;stroke-width:6.99999"
     class="cls-5"
     d="m 196.85567,-102.65505 81.96998,26.59998 -19.31998,-26.59998 z" /><path
     id="polygon60-3"
     style="fill:#e3be68;fill-opacity:1;stroke-width:6.99999"
     class="cls-1"
     d="M 228.14567,-6.3350703 278.82565,-43.15504 v -32.90003 z" /><path
     id="polygon62-0"
     style="fill:#ab872e;fill-opacity:1;stroke-width:6.99999"
     class="cls-5"
     d="m 247.53567,-65.83504 -19.39,59.4999697 50.67998,-69.7199997 z" /><path
     id="polygon64-47"
     style="fill:#e3be68;fill-opacity:1;stroke-width:6.99999"
     class="cls-1"
     d="m 329.50568,-6.3350703 -19.32,-59.4999697 -31.36003,-10.22003 z" /><path
     id="polygon66-4"
     style="fill:#ab872e;fill-opacity:1;stroke-width:6.99999"
     class="cls-5"
     d="M 278.82565,-43.15504 329.50568,-6.3350703 278.82565,-76.05507 Z" /><path
     id="polygon68-0"
     style="fill:#e3be68;fill-opacity:1;stroke-width:6.99999"
     class="cls-1"
     d="m 278.82565,-76.05507 82.04002,-26.59998 h -62.65002 z" /><path
     id="polygon70-7"
     style="fill:#ab872e;fill-opacity:1;stroke-width:6.99999"
     class="cls-5"
     d="m 278.82565,-76.05507 31.36003,10.22003 50.67999,-36.82001 z" /></g><g
   id="g20-25"
   transform="matrix(-0.19965071,0.35002495,0.35002495,0.19965071,112.42605,33.919453)"><path
     id="polygon52-1"
     style="fill:#e3be68;fill-opacity:1;stroke-width:6.99999"
     class="cls-1"
     d="m 278.82565,-162.15505 -19.31998,59.5 19.31998,26.59998 z" /><path
     id="polygon54-53"
     style="fill:#ab872e;fill-opacity:1;stroke-width:6.99999"
     class="cls-5"
     d="m 278.82565,-162.15505 v 86.09998 l 19.39,-26.59998 z" /><path
     id="polygon56-5"
     style="fill:#e3be68;fill-opacity:1;stroke-width:6.99999"
     class="cls-1"
     d="m 247.53567,-65.83504 31.28998,-10.22003 -81.96998,-26.59998 z" /><path
     id="polygon58-42"
     style="fill:#ab872e;fill-opacity:1;stroke-width:6.99999"
     class="cls-5"
     d="m 196.85567,-102.65505 81.96998,26.59998 -19.31998,-26.59998 z" /><path
     id="polygon60-7"
     style="fill:#e3be68;fill-opacity:1;stroke-width:6.99999"
     class="cls-1"
     d="M 228.14567,-6.3350703 278.82565,-43.15504 v -32.90003 z" /><path
     id="polygon62-1"
     style="fill:#ab872e;fill-opacity:1;stroke-width:6.99999"
     class="cls-5"
     d="m 247.53567,-65.83504 -19.39,59.4999697 50.67998,-69.7199997 z" /><path
     id="polygon64-2"
     style="fill:#e3be68;fill-opacity:1;stroke-width:6.99999"
     class="cls-1"
     d="m 329.50568,-6.3350703 -19.32,-59.4999697 -31.36003,-10.22003 z" /><path
     id="polygon66-3"
     style="fill:#ab872e;fill-opacity:1;stroke-width:6.99999"
     class="cls-5"
     d="M 278.82565,-43.15504 329.50568,-6.3350703 278.82565,-76.05507 Z" /><path
     id="polygon68-3"
     style="fill:#e3be68;fill-opacity:1;stroke-width:6.99999"
     class="cls-1"
     d="m 278.82565,-76.05507 82.04002,-26.59998 h -62.65002 z" /><path
     id="polygon70-27"
     style="fill:#ab872e;fill-opacity:1;stroke-width:6.99999"
     class="cls-5"
     d="m 278.82565,-76.05507 31.36003,10.22003 50.67999,-36.82001 z" /></g></svg>
