<?xml version="1.0" encoding="UTF-8"?>
<svg width="1077.3" height="1077.3" version="1.2" viewBox="0 0 808 808" xmlns="http://www.w3.org/2000/svg" xmlns:cc="http://creativecommons.org/ns#" xmlns:dc="http://purl.org/dc/elements/1.1/" xmlns:rdf="http://www.w3.org/1999/02/22-rdf-syntax-ns#">
 <g>
  <ellipse cx="405.87" cy="405.2" rx="211.54" ry="210.19" fill="none" stroke="#fff" stroke-width="21.952"/>
  <g transform="matrix(.16309 0 0 .16266 -9.9887 8.4537)" fill="#fffefe" stroke-width=".46049">
   <path d="m22 2700c0-19 2-27 5-17 2 9 2 25 0 35-3 9-5 1-5-18z"/>
   <path d="m22 2300c0-19 2-27 5-17 2 9 2 25 0 35-3 9-5 1-5-18z"/>
  </g>
 </g>
 <g>
  <ellipse cx="402.89" cy="403.94" rx="369.04" ry="369.81" fill="none" stroke="#fff" stroke-width="21.84"/>
 </g>
 <g>
  <path d="m623 404.22c0 120.34-97.819 217.89-218.47 217.89-120.66 0-218.47-97.555-218.47-217.89 0-120.34 97.812-217.89 218.47-217.89 120.66 0 218.47 97.555 218.47 217.89m-218.47-359.63c-199.15 0-360.59 161.01-360.59 359.63 0 198.62 161.44 359.63 360.59 359.63s360.6-161.01 360.6-359.63c0-198.62-161.45-359.63-360.6-359.63z" fill="#f70000"/>
  <path d="m794.69 404.22c0 214.93-174.69 389.15-390.2 389.15-215.49 0-390.2-174.22-390.2-389.15 0-214.93 174.7-389.15 390.2-389.15 215.51 0 390.2 174.22 390.2 389.15m-390.2-374.97c-207.65 0-375.97 167.88-375.97 374.97s168.32 374.97 375.97 374.97 375.98-167.88 375.98-374.97c0-207.08-168.32-374.97-375.98-374.97z" fill="#f70000" stroke="#f70000" stroke-width=".12199"/>
  <path d="m607.36 404.22c0 111.75-90.83 202.33-202.88 202.33-112.04 0-202.87-90.58-202.87-202.33 0-111.75 90.829-202.33 202.87-202.33 112.05 0 202.88 90.585 202.88 202.33z" fill="#03316c"/>
 </g>
 <g fill="#fff">
  <g transform="matrix(1.2316 0 0 1.2316 -1143.1 -615.13)" stroke-width=".060897">
   <path d="m1450.6 759.15c-1.1675-3.1133-0.2594-6.0969 8.1725-24.777 5.1889-11.675 9.34-21.404 9.0805-21.664-0.2594-0.25944-7.005 2.9836-15.048 7.2644-8.0428 4.2808-14.918 7.7833-15.178 7.7833-1.2972 0-5.7078-10.767-4.7997-11.675 0.5189-0.64861 8.3022-4.9294 17.253-9.7291s20.366-10.897 25.426-13.621l9.2103-5.0592 2.5944 5.578 2.7242 5.578-9.5995 20.496c-5.3186 11.286-9.3399 20.756-9.0805 21.145 0.2594 0.25944 7.6536-2.5944 16.345-6.3564 9.0805-3.8917 16.215-6.2266 16.864-5.578 1.8161 1.9458 5.0592 10.767 4.1511 11.286-2.8539 1.6864-54.483 22.961-55.521 22.961-0.6486 0-1.8161-1.5567-2.5944-3.6322z"/>
   <path d="m1025.2 751.11c-13.491-5.7078-25.944-10.897-27.501-11.545-2.8539-1.2972-2.7242-1.4269 4.4106-19.199 3.8916-9.8589 7.2644-18.161 7.5239-18.421 0.3891-0.38916 12.324 3.7619 12.324 4.2808 0 0.12972-2.0755 5.4483-4.67 11.675-2.4647 6.3564-4.2808 11.675-4.1511 11.934 0.2595 0.25944 2.7242 1.2972 5.3186 2.4647 5.4484 2.2053 4.9295 2.8539 9.9886-10.378 1.6864-4.2808 3.3728-8.1725 3.8917-8.6914 0.908-1.1675 11.675 2.7242 11.675 4.2808 0 0.51889-2.0756 5.7078-4.5403 11.416l-4.4105 10.507 4.1511 1.8161c2.335 0.90805 7.1347 2.9836 10.897 4.5403l6.6158 2.9836-2.5944 6.3564c-1.427 3.5025-2.9836 6.3564-3.5025 6.3564-0.3892-0.12972-11.805-4.7997-25.426-10.378z"/>
   <path d="m1060.1 720.62c-4.4106-6.7455 4.0214-14.399 9.8589-9.0805 2.8538 2.5944 3.3727 8.4319 1.0377 10.767-2.7241 2.7242-8.5616 1.8161-10.897-1.6864z"/>
   <path d="m1419.4 700.26c-3.1133-5.8375-3.1133-18.161 0-26.074l2.335-6.3564-3.3727-3.5025-3.5025-3.6322-16.604 17.123-4.7998-4.67c-3.3727-3.3728-4.4105-5.3186-3.6322-6.6158 0.6486-1.1675 10.248-11.416 21.274-22.961l20.237-21.015 15.048 16.345c16.864 18.031 18.55 21.534 15.178 31.004-2.4648 7.005-8.6914 11.156-16.734 11.156-3.243 0-7.1347-0.90805-8.5616-1.9458-3.6322-2.7242-4.1511-2.4647-5.7078 3.5025-1.0378 3.6322-1.1675 6.8753-0.2594 10.248 1.1675 4.4105 0.908 5.0592-2.2053 7.2644-6.2267 4.5403-6.3564 4.5403-8.6914 0.12972zm30.485-33.728c1.4269-3.8917 0.5189-5.3186-9.2103-15.826l-8.1725-8.8211-4.2808 4.5403-4.2808 4.4105 8.6914 9.2103c6.8752 7.5239 9.3399 9.34 12.324 9.34 2.8538 0 4.1511-0.77833 4.9294-2.8539z"/>
   <path d="m1067.4 694.16c-17.642-5.4483-27.76-22.831-22.831-39.306 3.5024-12.064 14.01-21.274 27.112-23.609l4.7997-0.90805v5.9672c0 3.243 0 6.2266 0.1298 6.8753 0 0.51889-2.0756 1.4269-4.67 2.0756-6.0969 1.4269-13.232 8.5616-14.399 14.269-2.4647 13.232 11.545 25.296 25.166 21.664 6.0969-1.6864 12.842-8.5616 14.01-14.14 0.7783-4.0214 1.0377-4.1511 5.578-3.3728 2.5945 0.38917 5.4483 0.90806 6.3564 1.1675 4.4105 1.4269-1.2972 15.307-9.0805 22.053-8.5617 7.2644-22.053 10.248-32.171 7.2644z"/>
   <path d="m1357 647.2-17.123-10.378 13.102-25.555c7.1347-14.01 13.75-26.204 14.529-27.112 1.0377-1.1675 5.8374 1.0378 19.199 8.8211l17.902 10.378-2.5944 5.1889c-1.4269 2.7242-2.9836 5.0592-3.5025 5.0592-0.7783 0-15.956-8.1725-20.756-11.416-2.7242-1.6864-3.1133-1.5567-5.5781 2.5944-1.4269 2.335-2.5944 4.9294-2.5944 5.578 0 0.77833 4.67 4.1511 10.378 7.5239l10.378 6.2266-2.5944 5.1889c-1.427 2.7242-3.2431 5.0592-4.0214 5.0592-0.9081 0-5.8375-2.5944-11.026-5.8375l-9.5994-5.7078-2.5944 5.0592-2.5945 5.1889 4.7997 2.9836c2.7242 1.6864 7.6536 4.67 11.156 6.6158 3.3728 1.9458 6.097 4.1511 6.097 4.7997 0 1.6864-4.2809 10.248-5.0592 10.248-0.3892-0.12972-8.4319-4.7997-17.902-10.507z"/>
   <path d="m1155.7 637.99c-0.6486-1.6864-6.0969-14.269-12.194-27.89l-11.026-25.036 6.097-2.7242c25.296-11.286 30.614-13.102 35.544-12.453 9.5994 1.2972 16.345 11.545 13.75 20.756-0.6486 2.2053-1.1675 4.2808-1.1675 4.4105 0 0.25945 2.0755 1.1675 4.5403 2.2053 8.821 3.7619 12.324 15.177 7.1347 23.48-2.2053 3.5025-5.8375 5.7078-20.626 12.194-9.9886 4.4105-18.68 7.913-19.458 7.913s-1.9458-1.2972-2.5945-2.8539zm18.291-16.215c9.9886-4.1511 12.713-6.3564 12.713-10.248 0-5.7078-4.2808-6.2267-14.659-1.6864-5.0591 2.2053-9.7291 4.4106-10.248 4.9294-0.7784 0.64861 2.5944 10.507 3.5025 10.507 0.2594 0 4.1511-1.5567 8.6913-3.5025zm-5.4483-26.074c5.7078-2.8539 7.2644-4.1511 7.5239-7.005 0.3892-2.7242-0.2595-3.8917-2.5944-4.9294-2.4648-1.1675-4.7998-0.64861-12.713 2.7242-5.3186 2.2053-9.8589 4.1511-10.118 4.4105-0.2595 0.12972 0.5189 2.7242 1.6864 5.578 2.4647 5.9672 2.335 5.9672 16.215-0.77833z"/>
   <path d="m1301.8 623.59-5.0591-1.5567 7.913-8.9508c4.4106-4.9294 7.9131-9.34 7.9131-9.7291 0-0.38917-3.5025-9.7292-7.7834-20.756-4.2808-11.026-7.5238-20.237-7.2644-20.626 0.3892-0.25944 3.3728 0 6.7456 0.51889l6.0969 1.1675 5.3186 14.01c2.8539 7.6536 5.7078 13.88 6.0969 13.88 0.5189 0 4.7997-4.67 9.5994-10.248l8.5617-10.378 4.7997 2.7242c2.5944 1.5567 5.0592 2.9836 5.3186 3.1133 1.0378 0.90805-39.306 47.867-41.252 48.127-1.1675 0.12972-4.2808-0.51889-7.005-1.2972z"/>
   <path d="m1215.3 621.78c0-1.5567 19.069-60.969 20.107-62.656 0.3892-0.77833 5.9672-1.2972 12.972-1.2972 10.248 0 12.194 0.38916 12.972 2.335 0.5189 1.1675 5.1889 14.14 10.378 28.798 5.1888 14.659 9.8588 27.631 10.378 28.928 0.7783 1.9458 0.1297 2.2053-6.0969 2.2053h-7.005l-1.8161-5.4483-1.9458-5.4483-15.567 0.38917c-8.5616 0.12972-15.956 0.77833-16.475 1.1675-0.5188 0.51888-1.8161 3.243-2.7241 6.0969-1.8161 5.0592-1.9458 5.1889-8.4319 5.578-3.762 0.25944-6.7456-0.12972-6.7456-0.64861zm45.273-25.944c0.3891-0.25944-1.1675-5.8375-3.2431-12.453l-3.8916-11.934-9.34-0.77833-3.5025 11.416c-1.8161 6.2266-3.6322 12.324-4.0214 13.491-0.5189 1.9458 0.7783 2.0756 11.416 1.4269 6.6159-0.25944 12.324-0.77833 12.583-1.1675z"/>
   <path d="m1247.2 1098.2c-1.0493-0.6558-1.1805-3.935-0.2623-12.067 1.1805-12.461 0.9181-13.117-6.8207-13.117-2.6233 0-7.4765-0.3935-10.756-0.787l-5.9025-0.9182-0.9181 10.624c-0.5247 5.7714-1.4429 11.149-1.8364 11.936-0.6558 0.9182-3.148 1.1805-7.083 0.6558-5.6401-0.787-6.0336-1.0493-5.3778-4.3285 0.2623-1.8363 1.9675-15.215 3.8038-29.512 1.7052-14.297 3.4104-26.233 3.5415-26.364 0.2624-0.1311 3.0169 0 6.0337 0.3935l5.7713 0.5247-0.9181 11.674c-1.0494 13.379-1.9675 12.461 12.592 13.641l10.1 0.787 0.9182-11.28 0.9181-11.149h13.117l-0.787 6.9518c-0.3935 3.6727-1.3117 15.346-2.0987 25.84-2.0986 28.463-1.8363 27.545-7.6076 27.545-2.6234 0-5.509-0.5246-6.4272-1.0493z"/>
   <path d="m1284.9 1095.7c0-0.6558-1.8363-13.641-3.935-29.119-2.2298-15.478-3.6726-28.332-3.4103-28.594s7.87-1.574 16.92-2.8857l16.396-2.2298 0.5247 5.3778c0.3935 2.8857 0 5.6402-0.787 6.1649-0.6558 0.5246-5.6402 1.3116-10.887 1.8363l-9.7064 0.787 0.9182 6.1648c0.5247 3.2792 1.0493 6.296 1.3117 6.4272 0.1311 0.2623 4.5908-0.1312 9.8375-0.9182 10.624-1.7051 11.674-1.1805 11.674 5.9025v4.1974l-10.1 1.0493-10.231 1.1805 0.3935 5.2467c0.2623 2.8856 0.787 5.7713 1.1805 6.4271 0.6558 0.9182 12.592 0.2624 22.167-1.3116 4.0662-0.787 4.1974-0.5247 5.1155 4.722 0.5247 3.0168 0.6559 5.6401 0.3935 5.9025-0.3935 0.3935-34.366 4.5908-37.251 4.5908-0.2623 0-0.5247-0.3935-0.5247-0.9182z"/>
   <path d="m1170 1085.6c-20.856-9.1817-26.364-36.858-10.1-52.204 11.805-11.149 31.611-11.936 43.416-1.574l4.8531 4.3285-4.0661 4.0661-4.0662 4.1974-4.9843-3.4104c-9.1817-6.296-23.085-3.8038-28.988 5.2467-3.2792 4.8532-3.148 15.215 0.2623 19.806 5.2467 6.9518 9.3128 8.9193 18.232 8.9193h8.2635l0.9181 5.1155c0.5247 3.5415 0.2624 5.509-0.9181 6.296-2.7545 1.574-18.363 1.1805-22.823-0.787z"/>
   <path d="m1337.1 1056.4c-6.9519-14.953-12.198-27.676-11.674-28.201 0.3935-0.5247 2.8857-1.7052 5.3779-2.7545 4.5908-1.9675 4.5908-1.9675 23.61 8.2635 10.493 5.6402 19.15 10.1 19.544 9.8375 0.2623-0.2623-3.148-7.083-7.4765-15.084l-8.0012-14.56 5.7714-2.7545c3.2791-1.574 6.0336-2.6233 6.4271-2.2298 1.1805 1.3117 27.02 50.762 27.02 51.811 0 0.6559-1.8364 2.2299-4.0662 3.4104l-4.0662 2.361-21.249-11.149c-11.805-6.1648-21.774-11.149-22.298-11.149-0.3935 0 2.7545 7.083 7.083 15.74s7.87 16.527 7.87 17.445-2.2298 2.4922-4.8532 3.5415c-2.7545 1.0493-5.3778 2.0987-5.7713 2.361-0.3935 0.1312-6.4272-11.936-13.248-26.889z"/>
   <path d="m1120.3 1061c-3.2792-2.8857-3.4103-3.6727-4.8532-26.233-0.9181-12.854-1.9675-23.348-2.361-23.348s-5.9025 6.5583-12.33 14.56l-11.674 14.428-4.5908-4.4597c-4.5908-4.5908-4.5908-4.5908-2.0987-7.7388 12.854-16.134 36.464-44.334 37.12-44.334 0.3935 0.13117 2.2298 1.3117 4.0662 2.7545 3.148 2.6233 3.2791 3.4103 4.1973 25.053 0.5247 12.33 1.1805 22.561 1.4428 22.823 0.2624 0.2623 5.1155-6.296 10.624-14.691l10.1-15.215 3.5415 3.0168c1.9675 1.7052 4.0661 3.5415 4.722 4.0662 1.1805 0.9182-31.742 52.073-33.579 52.204-0.5247 0-2.4922-1.3116-4.3285-2.8856z"/>
   <path d="m1052.1 1004.3c-9.3128-4.0662-15.478-13.773-15.609-24.397 0-11.805 3.2792-16.265 22.954-31.611l17.183-13.379 3.148 3.8038c6.296 7.4765 6.6895 6.8207-10.756 20.856-8.9193 7.2142-16.789 14.691-17.576 16.527-3.6727 8.7882 6.0337 19.019 14.691 15.74 1.7051-0.65583 9.8375-6.5583 17.839-13.117 8.0012-6.5583 15.084-11.936 15.74-11.936 0.5247 0 3.0169 1.9675 5.3779 4.4597l4.3285 4.4597-4.3285 3.935c-16.789 14.691-27.283 23.085-30.955 24.659-5.3778 2.361-16.789 2.2298-22.036 0z"/>
   <path d="m1013.9 947.79c-4.0661-7.083-5.509-5.1155 13.772-17.97 14.56-9.7063 14.297-9.9687-8.657-10.1-8.9193-0.13117-16.134-0.52467-16.134-1.0493 0-0.65583 5.6402-7.2142 12.461-14.691 6.8206-7.6077 12.33-13.904 12.067-14.035-0.1312-0.26233-6.5583 0.52467-14.035 1.4428-21.249 2.8857-20.462 3.0168-21.511-4.1973-0.3935-3.4103-0.3935-6.5583 0.13116-7.083 0.65584-0.52466 14.56-2.6233 31.087-4.5908 25.184-2.8857 30.168-3.148 31.086-1.7052 2.7545 4.3285 0.787 7.4765-12.854 21.118l-14.166 14.166h17.314c9.444 0 18.101 0.3935 19.282 0.787 2.361 0.91816 5.509 9.5752 3.935 11.018-1.8364 1.574-48.925 32.792-49.581 32.792-0.3935 0-2.2299-2.6233-4.1974-5.9025z"/>
  </g>
  <path d="m634.25 588.56-30.071-22.592 11.842-15.425c6.544-8.5695 12.309-15.737 12.932-16.048 0.46743-0.46743 3.5836 1.2465 6.6998 3.5836l5.765 4.3627-6.8556 9.5044c-3.8952 5.2975-7.0114 10.283-7.0114 11.062 0 1.2465 9.816 9.5044 11.53 9.5044 0.31162 0 3.7394-4.2069 7.3231-9.3486l6.544-9.3486 4.5185 2.8046c2.6488 1.4023 4.9859 3.5836 5.4533 4.6743s-2.1813 5.9208-5.765 10.751l-6.6998 8.7253 3.7394 2.9604c8.8812 6.8556 8.7253 7.0114 23.527-14.958 0.62323-0.93485 3.5836 0.15581 7.4789 2.8046 4.5185 2.9604 6.0766 4.8301 4.9859 6.0766-0.77905 1.0907-6.6998 9.037-13.4 17.918-6.544 8.7253-12.153 15.893-12.309 15.737-0.15581 0-13.867-10.283-30.227-22.748z" stroke-width=".075001"/>
  <path d="m668.06 520.78c-14.958-0.93486-27.578-1.8697-27.89-2.1813-0.62324-0.62323 4.3627-12.932 6.0766-15.114 0.62324-0.77905 11.218-0.46743 23.527 0.46743 12.465 1.0907 24.151 1.5581 26.176 1.4023 2.9604-0.46743 0.31162-3.272-16.827-17.762-21.969-18.386-21.658-18.074-17.451-29.292 2.0255-5.2975-1.8697-7.9463 35.68 24.462 28.981 24.93 27.734 22.904 22.748 34.901l-2.0255 4.9859-11.374-0.31162c-6.2324 0-23.683-0.77905-38.641-1.5581z" stroke-width=".075001"/>
  <g stroke-width=".060897">
   <path d="m192.9 537.53c-2.7779-4.1668 1.9097-9.028 6.337-6.6842 2.5174 1.389 3.2119 4.1668 1.5626 6.5974-1.9098 2.9515-6.0766 2.9515-7.8998 0.0868z"/>
   <path d="m232.96 195.87c-5.1125-7.6688 3.5147-16.616 11.663-12.302 4.6332 2.5563 5.9113 7.6687 2.8758 12.142-3.5149 5.4321-11.184 5.4321-14.539 0.15977z"/>
   <path d="m224 574.5c-2.7779-4.1668 1.9097-9.028 6.337-6.6842 2.5174 1.389 3.2119 4.1668 1.5626 6.5974-1.9098 2.9515-6.0766 2.9515-7.8998 0.0868z"/>
   <path d="m718.92 482.27c-5.1125-7.6688 3.5147-16.616 11.663-12.302 4.6332 2.5563 5.9113 7.6687 2.8758 12.142-3.5149 5.4321-11.184 5.4321-14.539 0.15977z"/>
   <path d="m690.22 558.17c-5.1125-7.6688 3.5147-16.616 11.663-12.302 4.6332 2.5563 5.9113 7.6687 2.8758 12.142-3.5149 5.4321-11.184 5.4321-14.539 0.15977z"/>
  </g>
 </g>
 <g fill="#fff">
  <path d="m374.35 577.64c-2.6486-5.3102-10.906-22.421-18.54-38.057-7.6343-15.636-14.334-27.879-14.801-27.289-0.62321 0.73753-3.2718 15.488-6.0763 32.894-2.8044 17.406-5.4531 32.009-5.7646 32.304-0.31162 0.29503-3.2718-0.59003-6.6995-2.0651-5.6088-2.3601-6.8553-3.9827-15.269-21.093-4.9856-10.178-11.218-22.864-13.866-28.174l-4.674-9.7354-2.6486 16.078c-1.558 8.8504-2.9602 16.521-3.4276 16.963-2.337 2.0651-29.914-28.469-38.795-42.924l-4.3625-7.0803 4.9857-30.534c2.8044-16.963 5.2972-30.976 5.453-31.271 0.62321-0.44253 4.674 7.5228 25.707 51.037 6.3879 13.128 11.997 23.454 12.62 22.864 0.46741-0.59003 3.5834-17.553 6.6995-37.909 3.2718-20.208 6.2321-38.352 6.8553-40.269 0.93482-2.8026 2.337-0.88504 8.1017 11.063 3.7392 7.9654 11.062 23.159 16.359 33.632 5.1415 10.62 10.594 21.536 11.841 24.339l2.4928 5.0152 4.0508-24.191c2.1812-13.423 5.2972-32.156 6.6995-41.597 1.558-9.5879 3.2718-17.406 3.7392-17.406 0.62321 0 2.1812 2.2126 3.2718 5.0152 5.1415 11.801 33.342 68.738 34.276 68.738 0.46741 0 3.4276-16.816 6.6995-37.172 3.2718-20.503 6.3879-38.942 7.0111-40.859 1.2464-4.1302 1.0906-4.2777 25.084 45.285 9.1923 18.733 13.399 26.109 14.178 24.339 0.46742-1.4751 3.5834-19.618 6.8553-40.269 3.2718-20.651 6.3879-38.057 6.8553-38.647 0.4674-0.59003 9.3481 16.226 19.631 37.467l18.696 38.352 2.4928-15.341c1.4022-8.2604 4.5183-26.994 6.8553-41.302 2.337-14.456 4.674-26.256 5.2973-26.256 0.4674 0 9.0365 16.668 18.852 36.877 9.8155 20.356 18.229 36.877 18.696 36.877s3.5834-17.406 6.8553-38.647c3.2718-21.388 6.5437-39.827 7.1669-41.007 0.9348-1.4751 1.8696-0.73753 3.5834 2.9502 1.2464 2.8026 7.3227 15.341 13.399 27.731 12.308 25.371 12.153 23.601 4.3624 45.285-3.2718 9.1454-13.866 30.091-18.073 36.139-1.2464 1.6226-3.116-1.0326-8.7249-12.391-3.895-7.9654-7.4785-14.161-7.7901-13.866-0.31159 0.29501-2.8044 13.423-5.2972 29.059-4.5182 27.731-4.8298 28.764-9.8155 33.632-2.6486 2.6551-5.4531 4.8677-5.9205 4.8677-0.46742 0-7.4785-13.571-15.58-30.239s-14.957-30.239-15.58-30.239c-0.46741 0-3.5834 17.111-6.8553 38.057-3.4277 20.798-6.5437 39.237-7.1669 40.712-1.0906 3.0976 0.3116 5.9003-24.149-44.547-9.5039-19.323-14.178-27.584-14.957-25.814-0.46741 1.4751-3.5834 20.061-7.0111 41.449-3.2718 21.241-6.3879 38.647-6.8553 38.647-0.46742 0-8.8807-16.668-18.696-37.024-9.8155-20.356-18.229-37.172-18.696-37.467-0.46738-0.29503-3.7392 16.226-7.0111 36.582-8.4133 51.922-7.0111 47.792-12.62 36.434z"/>
  <path d="m244.62 418.53c-1.2508-2.941-7.6614-16.717-14.228-30.803l-12.039-25.385 4.847-15.634c4.847-15.169 19.388-45.662 21.89-45.662 0.62542 0 4.2216 6.6558 7.9742 14.705 6.2542 13.621 9.225 17.646 9.225 12.847 0-1.0835 2.189-15.169 4.6907-31.422 4.378-27.397 5.0034-29.719 9.225-33.898 2.5017-2.4766 5.1597-4.0245 5.9415-3.5601 0.7818 0.46438 8.1305 15.324 16.105 32.815 10.789 23.373 15.01 31.267 15.948 29.1 0.62543-1.5479 3.5962-20.122 6.7233-41.483 3.2835-21.206 6.0979-39.78 6.567-41.019 0.46907-1.5478 1.7199-0.15477 3.5962 3.8697 1.5635 3.4053 8.4432 18.11 15.323 32.815 6.8797 14.55 14.228 30.029 16.105 34.363 1.8763 4.4888 3.5962 7.7393 3.7526 7.5846 0.31273-0.30958 3.4398-19.658 7.036-43.031 3.5962-23.373 6.8797-42.876 7.1924-43.186 0.93815-0.92869 0.15635-2.4766 18.45 36.994 16.417 35.291 18.919 39.935 20.326 38.542 0.31271-0.30957 3.2835-17.646 6.4106-38.542 6.4106-42.721 7.036-45.662 8.5996-43.805 0.46907 0.61914 9.0686 18.42 18.763 39.471 9.8504 21.051 18.137 38.078 18.45 37.768 0.31273-0.30955 2.9708-16.098 5.7852-34.982 2.9708-19.039 5.6288-34.827 6.0979-35.137 0.3127-0.30961 3.4398 0.77393 6.8797 2.4766 5.6288 2.941 6.8796 4.7984 18.919 30.648 7.1924 15.169 13.447 28.171 14.072 28.79 0.78177 0.61913 2.189-5.2628 3.2835-13.157 3.1271-22.135 2.5017-21.67 14.385-9.1324 12.196 12.693 20.795 23.992 27.519 35.756l4.6907 8.5133-4.847 31.422c-2.6581 17.181-5.1598 31.267-5.7852 31.267-0.46908 0-8.9123-17.336-18.763-38.697-9.8504-21.361-18.294-38.697-18.919-38.697-0.46906 0-3.5962 17.646-6.8796 39.161-3.2835 21.361-6.4106 40.709-7.036 42.721-1.0945 4.334-1.0945 4.1793-25.017-47.52-9.225-19.658-13.447-27.397-14.228-25.54-0.46905 1.5479-3.5962 20.587-6.8797 42.257-3.2835 21.67-6.4106 39.935-6.8796 40.554-0.46908 0.61915-9.3814-17.181-19.701-39.316l-18.763-40.245-2.5017 15.943c-1.4072 8.8228-4.5343 28.481-6.8796 43.65-2.3454 15.014-4.847 27.397-5.4724 27.397-0.62543 0-2.5017-3.2506-4.2216-7.275-6.567-15.479-32.366-70.119-33.304-70.119-0.46906 0-3.5962 18.265-6.8797 40.709-3.2835 22.289-6.567 41.483-7.1924 42.566-0.93812 1.8574-15.636-27.707-32.991-66.094-4.378-9.9064-5.3161-10.99-6.0979-7.7394-0.62537 2.0122-3.7525 21.67-7.1923 43.65-3.2835 21.825-6.4106 39.78-6.8796 39.78-0.46909 0-8.7559-17.491-18.606-38.697-16.261-34.982-20.483-42.566-20.483-36.685 0 3.7149-12.508 82.192-13.134 82.811-0.46908 0.30957-1.7199-1.7026-2.9707-4.4888z"/>
 </g>
</svg>
