<svg xmlns="http://www.w3.org/2000/svg" width="300" height="171.56" viewBox="0 0 300 171.56">
 <g transform="matrix(1.8827 0 0 1.8827 2.1537 2.1537)">
  <path d="m78.6 0c-43.4 0-78.6 19.93-78.6 44.5 0 24.58 35.2 44.5 78.6 44.5 8.62 0 16.93-0.79 24.7-2.24l-0.11 0.31a19.4 19.4 0 0 0 4.93-1.3c2.02-0.47 4-0.99 5.94-1.53l-0.04 0.17c0.17-0.09 0.32-0.2 0.47-0.29 25.37-7.38 42.73-22.34 42.73-39.6 0-24.6-35.2-44.52-78.62-44.52z"/>
  <path d="m78.6 2.1797c-42.04 0-76.119 18.951-76.119 42.311 0 23.37 34.089 42.32 76.129 42.32 4.15 0 8.2099-0.18125 12.17-0.53125 0.46-1.03 1.1105-2.3697 1.2305-2.9297-1.47 0.11-3.1194 0.18945-4.3594 0.18945l-0.12109-0.58984a134.62 134.62 0 0 1-26.52-0.85938h-0.009766c-5.21-0.69-10.83-1.8489-13.67-2.6289l-0.19922-0.04102 2.4199-0.80078a35.73 35.73 0 0 0 4.2285-1.5391 2.88 2.88 0 0 1 0.27148-0.11914l1.5391-0.68164c-3.02-0.83-4.1094-1.6289-4.1094-1.6289 6.44-1.23 9.5898-3.4297 9.5898-3.4297-7.95-2.19-14.25-5.3398-14.25-5.3398 4.93-0.69 10-2.2012 10-2.2012-11.24-3.43-22.621-9.0293-22.621-9.0293 4.25 1.37 13.432 2.5996 13.432 2.5996-2.06-1.92-2.8809-3.4199-2.8809-3.4199 7.12 4.51 25.02 8.8105 25.02 8.8105-4.28-3.89-10.92-15.3-11.99-17.17 2.47 4.16 9.0312 8.6191 9.0312 8.6191-0.41-3.14 0.13867-4.3691 0.13867-4.3691 6.26 15.85 15.762 21.02 15.762 21.02-0.96-2.6-2.8809-12.801-2.8809-12.801 0.96 2.05 2.5996 3.1406 2.5996 3.1406-1.1-2.46-1.0996-6.9805-1.0996-6.9805 2.6 5.21 7.5391 7.9512 7.5391 7.9512l-0.28906-0.41992c-5.44-8.48-7.3605-15.971-8.0605-19.951-0.24-1.4-0.34891-2.3903-0.37891-2.8203-6.17 12.78-0.32156 24.88 0.14844 27.48-4.11-2.77-8.4581-13.601-9.0781-15.801-2.37-8.21-0.64-18.159 0-20.609l-0.25-0.23047c-4.81 5.92-3.9611 11.532-3.8711 13.102-3.09-4.19-3.4902-15.47-3.4902-16.59-7.27-4.34-8.3789-13.441-8.3789-13.441a91.67 91.67 0 0 0-9.8613 1.541c0.83 5.75 5.4098 16.2 5.5898 16.6l-0.05859 0.2793c-0.52-0.17-5.9902-4.5996-5.9902-4.5996 2.88 8.18 6.9805 14.92 6.9805 14.92 3.8 7.25 11.868 16.59 12.398 17.17l0.65039 0.7207c-5.43-1.44-18.189-9.1295-19.459-9.9395-16.38-10.4-20.251-17.392-20.951-18.262h-0.13867c2.24 11.12 10.548 19.471 10.898 19.811l0.12109 0.30078c-9.53-4.65-21.521-14.311-26.121-18.191 9.08-15.83 36.68-27.35 69.32-27.35l2.5195 0.019531c0.26-0.38 0.58-0.76992 1-1.1699 1.32-1.24 2.5203-2.27 7.8203 0a105.53 105.53 0 0 1 4.5215 2.0703c32.41 3.87 56.629 19.331 56.629 37.801 0 12.88-11.75 24.28-29.83 31.32a17.71 17.71 0 0 1-2.7793 4.7188c21.74-7.45 36.24-20.809 36.24-36.049h-0.01c0.02048-23.35-34.061-42.301-76.111-42.301zm4.291 7.7109c-1.1187 0.025-1.9055 0.099219-2.4805 0.19922a3.33 3.33 0 0 1-0.35938 0.07031c-2.51 0.44-5.9398 1.2291-7.3398 1.6191 1.75 0.1 4.6796-0.09961 7.3496-0.34961 2.8-0.26 5.3397-0.58922 5.9297-0.69922l7.1699 2.5293c0.63 0.23 2.3203-0.5293 2.3203-0.5293 1.1 0.43 5.3301 2.5095 6.8301 3.2695 0.3 0.15 0.68015 0.07922 0.91015-0.05078 0.6-0.32 0.74969-0.39836 1.4297-0.81836 1.06 0.53 7.4199 5 7.4199 5l-0.66992 0.18945c-6.85-2-11.92-3.2904-13.18-3.4004l-0.38086-0.33984 1.8496-0.25977c-4-0.85-11.69-1.5801-13.18-1.5801l-0.5-0.40039c1.13-0.24 4.5098-0.33984 4.5098-0.33984-1.9-0.52-5.2701-0.83984-8.3301-0.83984-0.68 0-1.3991 4.69e-4 -2.1191-0.01953-6.27-0.15-13.591-0.88117-16.311-1.4512-2.31-0.48-2.7403-0.51961-3.0703-0.59961-0.36-0.07-0.56961-0.12953-1.0996-0.26953-1.51-0.04-1.6992 0.77961-1.6992 0.84961-0.22 1.77 2.3785 4.1291 4.7285 5.3691 3.6 2.17 8.4218 3.3318 9.5918 3.5918 1.11 0.23 2.0499 0.29891 2.9199 0.37891 1.84 0.18 3.6793 0.68961 5.0293 1.0996 0.75 0.22 1.3492 0.41 1.6992 0.5-0.24-0.21-1.1488-1.3298-1.7188-2.0098a86.68 86.68 0 0 1-0.44141-0.54883h0.02148c-1-1.3-1.0312-2.1016-1.0312-2.1016 5.34 2.05 12.25 2.2012 12.25 2.2012 5.07 0.27 9.041 2.5996 9.041 2.5996a64.37 64.37 0 0 0 7 3.5c-0.08-0.02 0.41047 0.14961 1.4805 0.34961v-0.0098c0.6 0.04 1.08 0.1607 1.5 0.2207l0.29883 0.0293c2.59 0.15 3.4707 0.92969 3.4707 0.92969l-1.1406 0.87109c3.45-0.25 5.4805 0.96875 5.4805 0.96875l-1.2305 0.96094c3-0.1 5.4203 1.6995 6.8203 3.0195l0.35937 0.08008 0.42969 0.38086c0.72-0.4 1.1211-1.1816 1.1211-1.1816l4.3691-0.09961 0.78125 1.3301c0.1-0.13 0.22883-0.23984 0.29883-0.33984 0.64-0.66 1.3604-0.85047 1.6504-0.98047-0.34-0.65-1.1-1.549-3-2.959l-1.0508-0.76953-1.4492-0.99023 0.13086 0.04883a0.25 0.25 0 0 1-0.0508-0.03906c0.12 0.08-3.9604-1.321-4.9004-1.541a28.6 28.6 0 0 1-3.1992-0.99024c-3.28-1.66-2.8496-3.209-2.8496-3.209s2.0888-0.2993 3.0488 0.7207c0.21 0.22 0.7207 1.3398 0.7207 1.3398l0.54883 0.14844c0.2-1.7-0.0195-2.4396-0.18945-3.0996-0.34-1.26-5.9906-4.8202-7.1406-5.6602a17.8 17.8 0 0 0-6.6387-3.1602c-4.03-0.8-15.501-2.4189-19.291-2.6289-1.9-0.1-3.35-0.12461-4.4688-0.099609zm-76.58 31.789c11.86 8.85 37.12 19.85 43.08 21.33l1.5996 0.46094c-3.73 0.78-14.161 0.09-16.461 0 5.22 2.93 17.952 7.2785 21.352 7.9785-2.85 0.96-12.73 1.9805-14.4 2.0605 1.86 0.89 6.8004 2.1609 9.9004 2.8809 0.34 0.07-3.3104 1.239-7.1504 2.209-22.7-6.54-38.121-19.359-38.121-34.109 0-0.94 0.071172-1.8705 0.20117-2.8105z" fill="#fdb719"/>
  <path d="m85.418 5.459c-0.22375-0.0042188-0.41789 0.011016-0.58789 0.041016-1.44 0.34-1.6798 2.8391-1.7598 3.8691h0.33008s0.13047-3.0292 3.9805-2.1992l9.6992 2.0293h0.0293l-0.20899-0.29883c-1.46-0.25-7.051-2.2495-8.541-2.7695-1.335-0.4725-2.2702-0.65922-2.9414-0.67188zm-26.963 5.1855c-0.5125-0.0225-1.0755 0.04523-1.4355 0.36524-0.58 0.53-0.37969 1.7202 0.07031 2.6602 0.22 0.45 1.4003 2.7498 4.0703 4.7598 2.69 2 6.5608 3.5604 13.301 4.9004 0 0-2.11-2.4792-2.25-2.6992-1.19-0.25-6.0016-1.4101-9.6016-3.5801-2.34-1.25-4.9388-3.6009-4.7188-5.3809 0-0.07 0.18922-0.87961 1.6992-0.84961-0.16-0.04-0.62227-0.15328-1.1348-0.17578zm20.225 7.3262s0.02125 0.79961 1.0312 2.0996h-0.01172l0.44141 0.54883v-0.35938l0.33984 0.12109 0.0059 0.01172 0.11328 0.03711c1.78 0.54 3.7503 0.79961 5.5703 1.3496 3.32 0.97 7.3009-0.23898 10.461 1.041 3 1.28 6.2283 2.5089 9.4883 3.3789 0.28 0.04 0.57156 0.05031 0.85156 0.07031-1.54-0.67-5-2.25-7-3.5 0 0-3.971-2.3296-9.041-2.5996 0 0-6.9-0.14922-12.25-2.1992zm1.8066 2.4219-0.0059-2e-3 0.0098 0.0098zm12.793 3.2383s-0.06961 0.12883-0.09961 0.29883c-0.04 0.18-0.20047 1.4496 0.51953 3.5996a9.6 9.6 0 0 1-2.2891-0.62891c-1.5-0.52-2.7606-1.2706-4.1406-1.8906-1.02-0.26-2.9902-0.87891-2.9902-0.87891s-0.08883-0.10141-0.29883 0.05859c1.07 1.47 2.3992 2.8498 3.6992 4.2598a35.12 35.12 0 0 0 11.471 2.3809c4.82 0.56 9.7495 0.49969 14.439 1.9297-1.29 0.54-1.87 0.80117-3 1.7012-5.86 0.06-12.581 0.17914-18.471 1.1191a23.8 23.8 0 0 0-4.2383 1c8.6 0.12 17.359 0.97047 25.719 2.2305 0 0 4.1012 0.80031 5.9512 1.3203l-0.0801 0.18945c-4.95-0.44-9.9201-0.92078-14.83-0.80078-3.73 0.04-7.6213 0.15117-11.111 0.70117l0.03125 0.04883c7.15 0.56 14.259 1.6814 20.959 3.4414 1.7 0.57 3.5006 0.99828 5.1406 1.7383-0.07 0.08-0.1993 0.17172-0.2793 0.26172-4.9-1.5-10.331-1.6206-15.521-1.8906-2.11 0.03-4.1685-0.16125-6.2285 0.21875 0 0 12.219 2.28 17.299 5a0.81 0.81 0 0 1-0.16992 0.20117c-2.02-0.62-3.8001-0.90062-6.0801-1.3906-5.66-1.24-13.39-1.0291-17.1 3.8809-1.1 1.5-3.0699 4.7998-2.6699 10.26 0 0-4.931-2.7395-7.541-7.9395 0 0 0.0016 4.5185 1.1016 6.9785 0 0-1.6616-1.0984-2.6016-3.1484 0 0 1.9209 10.199 2.8809 12.809 0 0-9.4995-5.1793-15.77-21.029 0 0-0.54062 1.2289-0.14062 4.3789 0 0-6.5595-4.4589-9.0195-8.6289 1.08 1.87 7.7105 13.27 11.98 17.18 0 0-17.891-4.2903-25.021-8.8203a15 15 0 0 0 2.8809 3.4297s-9.1799-1.2296-13.42-2.5996c0 0 11.379 5.6013 22.619 9.0312 0 0-5.0798 1.5192-10.01 2.1992 0 0 6.2998 3.1398 14.26 5.3398 0 0-3.1596 2.1799-9.5996 3.4199 0 0 1.1011 0.81063 4.1211 1.6406l-1.5508 0.66992-0.25977 0.12891a35.16 35.16 0 0 1-4.2305 1.5312l-2.4297 0.79883a0.98 0.98 0 0 0 0.19922 0.05078c2.83 0.78 8.4597 1.9391 13.68 2.6191h0.01172c5.48-2.34 12.97-5.0995 19.17-5.7695l1.6699-0.15039c-3.12-1.78-5.8305-2.4103-8.3105-3.0703-0.51-0.16-0.69953-0.16812-1.2695-0.32812 0.73-0.08 0.89914-0.10109 1.6191-0.12109 1.73 0.03 3.6005 0.29969 5.3105 0.67969 1.1 0.32 2.1807 0.70016 3.2207 1.1602 1.84 0.8 3.5287 1.83 4.8887 3.25a8.3 8.3 0 0 1 1.4609 2.5996c0.21 0.69 0.31898 0.98008 0.45898 1.5801 0 0 2.6909-0.14898 4.3809-0.45898-0.14 0.95-0.65969 2.3895-1.1797 3.4395 2.08-0.41 4.2984-0.92914 6.1484-1.6191 0 0-0.69875 1.6091-1.2188 2.5391 2.14-0.54 5.4992-1.6101 8.1992-3.0801a21.7 21.7 0 0 1-0.95899 2.7402c3.64-0.98 9.1491-4.3003 10.539-5.5703 0.07 0.7 0.0397 1.0104-0.0703 1.9004 0.71999-0.6 0.45109-0.36922 0.87109-0.69922a18.1 18.1 0 0 0 3.9492-5.0703c0.6-1.27 1.1196-2.4011 1.3496-3.6211l-2.8398-0.21875c1.37-1.78 2.0702-3.9815 1.6602-5.7715a23.28 23.28 0 0 1-6.9492 4.9609c-0.62 0.18-2.1701 0.5293-3.3301 0.2793-0.3-0.08-0.68039-0.13867-0.90039-0.38867 0.63-0.62 1.1895-1.3503 1.6895-2.0703 0.89999-1.32 1.5605-3.0496 0.81054-4.5996-0.42 0.42-0.47953 0.56859-0.76953 0.80859-2.66 2.61-6.0198 5.8512-10.26 4.7812-1.84-0.92-4.33-2.4014-6.5-0.94141l-0.35156-0.41016c-0.54-1.19-0.99922-2.5684-1.1992-3.8984l0.26953-0.15039c2.45-1 4.9216-0.52062 6.6016 0.10938 2.22 0.61 3.2993 4.0202 6.0293 3.1602a8.52 8.52 0 0 0 3.8106-2.7891c-1.18-0.72-1.5014-2.5505-1.4414-3.5605 0.06-0.84 0.34992-1.8011 0.66992-2.3711 1.18-2.13 3.2704-4.5892 6.1504-4.6992 0.15 1.82-0.33883 3.8005-0.79883 5.5605-0.03 0.2-0.30086 0.6193-0.13086 0.5293a13.78 13.78 0 0 0 3.8906-3.2988c0.4-0.47 0.48938-0.66148 0.85938-1.2715 0.68-1.26 0.72953-1.6891 1.0195-2.5391a9.45 9.45 0 0 1 5.3008 0.07031c0.47 0.4 0.54906 1.1497 0.53907 1.6797a8.55 8.55 0 0 1-1.1484 3.3203c-0.15 0.22-0.90032 1.3601-1.0703 1.5801a9.59 9.59 0 0 0 3.2402-1.9707c1.27-1.13 3.0684-3.4705 2.8184-5.8105a5.26 5.26 0 0 1-1.6992-0.61914 10 10 0 0 1-1.8496-0.9707c-1.19 0.59-2.6995 0.94133-4.0195 1.1113-6.2 0.86-11.111 1.5091-14.631 5.3691-1.02 1.11-1.9001 3.5106-1.8301 5.6406-0.58-0.53-0.87039-0.81164-1.4004-1.1816-1.42-0.9-3.0294-1.7691-4.8594-1.5391 0.74 0.55 1.399 1.3291 1.459 1.7891-0.67-0.4-1.2891-0.59969-2.1191-0.92969-2.16-0.66-4.81 0.01016-6.5 1.1602 0 0-0.86-4.3195 1.25-8.0195 1.96-3.44 6.1309-4.4995 9.9609-4.4395 2.54 0.13 4.7388 0.84992 6.5488 1.4199 1.4 0.45 2.3509 0.6093 3.3808 0.7793 3.73 0.25 7.9392-0.64047 9.6192-1.7305 2.85-1.86 5.0008-4.5001 4.8808-8.0801a5.46 5.46 0 0 0-2.8516-5.1992c-0.9-0.32-1.7783-0.6193-2.7383-0.7793-1.03-2.24-2.2305-2.4199-2.2305-2.4199v-0.41992l2.1191 0.01953c0.87 0.02 1.4407 0.03992 2.2207 0.16992-1.4-1.32-3.8103-3.1095-6.8203-3.0195l1.2305-0.96094s-2.0305-1.2107-5.4805-0.9707l1.1406-0.86914s-0.88071-0.77969-3.4707-0.92969l-0.29883-0.03125c-0.43-0.06-0.92-0.17875-1.5-0.21875-0.22 0.4-0.62188 0.69883-0.92188 1.0488-0.2 0.18-0.30992 0.18141-0.66992 0.19141-1.63 0.02-4.0387 0.23008-5.3887 0.08008 0.57-0.7 0.73047-1.2012 0.73047-1.2012l-2-0.54883s-1.5009 1.7-3.4609 2c-0.52-0.12-0.75-0.45062-1-0.89062-0.2-0.33-0.33984-0.82031-0.33984-0.82031 0.33-0.27 1.3808-0.82914 1.5508-1.1191l-2.0312-0.25c-0.13-0.76-0.07031-0.99024-0.07031-0.99024-0.59-0.18-0.95008-0.27945-1.5801-0.43945zm33.891 4.4492c0.53 0.35 1.0092 0.67024 1.4492 0.99023l1.0606 0.75977c1.9 1.42 2.66 2.309 3 2.959 0.2-0.08 0.67969-0.22852 0.67969-0.22852s0.1807 0.24953 0.2207 0.51953c0 0.05-1.1003 1.3497-1.5703 2.9297-0.62 0.4-2.5597 1.5707-3.4297 3.4707-0.53 1.47-1.0003 6.5302-0.82031 8.6602 0.04 1.3 0.78093 3.5197 2.4609 4.1797a8.1 8.1 0 0 0 1.9902-1.9512c0.29-0.4 0.55883-0.73945 0.79883-1.4395-0.46-0.03-1.8494-0.08922-2.6094-0.19922-0.07-0.11-0.0794-0.16961-0.18945-0.34961 0.47-0.05 0.72914-0.08062 1.1191-0.14062a6.33 6.33 0 0 0 2.1191-0.59961c0.28-0.4 0.87117-1.7999 0.95117-2.9199l-2.9297 0.0098-0.21093-0.4805s2.4006-0.46906 3.3906-0.78906c0.15-1.04 0.43914-2.3409 0.36914-3.4609-1.07 0.27-3.5488 0.41016-3.5488 0.41016l-0.1914-0.35938s3.0009-1.1203 3.8809-1.8203c-0.06-1.13-0.25993-2.2314-0.41993-3.4414-0.26-1.76-0.73953-2.8787-1.2695-3.3887-1.73-1.48-3.9602-2.4295-6.1602-3.2695z" fill="#fff"/>
 </g>
</svg>