<svg xmlns="http://www.w3.org/2000/svg" width="349" height="77.6" viewBox="0 0 349 77.6">
 <path d="m47 33.2-31.3-1.34 30.6 6.4c18.1 3.29 33.1 9.31 45.2 18.1 5.93 4.36 10.2 8.47 12.7 12.3l5.48 8.47-1.53-23.8 22.2-7.71-8.26-2.07c-4.55-1.14-9.52-2.21-14.9-3.23l-1.7-26.3-16.4 23.3c-14.1-2.21-28.3-3.54-42.3-3.96"/>
 <path d="m33.7 1.33c-2.77 0-4.99 0.934-6.68 2.81-0.955 1.08-1.92 2.82-2.86 5.21l-7.46 19.2 23.9 1.07 2.77-7.01c0.142-0.447 0.418-0.895 0.825-1.34 0.833-0.914 1.93-1.37 3.29-1.37h24.5l-1.77 4.32h19.6l8.92-22.9h-65zm105 0-15.3 39.1 17.2 4.23-21.8 7.55-2.95 7.65c-1.2 3.05-1.96 5.32-2.25 6.82-0.407 2.51-0.164 4.62 0.73 6.3 1.44 2.46 4.23 3.68 8.35 3.68h46.7c4.85 0 8.7-1.6 11.5-4.79 1.69-1.85 3.36-5.03 5.03-9.54l23.9-61h-24.5l-20.2 51.7c-0.732 1.85-1.36 3.06-1.89 3.62-0.872 0.956-2.21 1.44-4.02 1.44h-15.2c-1.08 0-1.78-0.395-2.13-1.19-0.194-0.467-0.214-1.01-0.0604-1.65l21.3-54h-24.5zm84.7 0c-2.77 0-4.97 0.934-6.64 2.81-0.955 1.08-1.92 2.82-2.9 5.21l-15 38.6h46.7l-4.06 10.3h-27.4l1.58-4.32h-19.2l-5.48 14c-0.446 1.22-0.7 2.3-0.759 3.23-0.0609 1.12 0.182 2.15 0.73 3.11 0.955 1.69 2.73 2.53 5.31 2.53h56c2.81 0 5.01-0.934 6.65-2.81 0.955-1.08 1.9-2.82 2.86-5.21l15.4-39.2h-46.8l3.68-9.54h27.5l-1.68 4.32h19.2l4.93-12.6c0.61-1.62 1.01-2.91 1.19-3.87 0.243-1.5 0.0322-2.79-0.638-3.87-0.894-1.69-2.63-2.53-5.21-2.53h-56zm89.1 0-49.5 75.4h27.1l10.7-16.4h23.4v16.4h23.3v-75.4h-35.1zm11.9 23.3v17.3h-11.4zm-310 9.84-12.7 32.3v0.0915c-1.02 2.89-0.955 5.25 0.184 7.1 1.02 1.81 2.78 2.71 5.31 2.71h62.1l8.92-22.9h-20.5l-1.74 4.32h-22.6c-1.5 0-2.43-0.406-2.81-1.22-0.243-0.589-0.203-1.3 0.121-2.13l6.12-15.7-22.5-4.69z" fill="#FFFFFF"/>
</svg>
