<?xml version="1.0" encoding="UTF-8" standalone="no"?>
<!-- Created with Inkscape (http://www.inkscape.org/) -->

<svg
   version="1.1"
   id="svg9"
   xml:space="preserve"
   width="214.89012"
   height="27.102667"
   viewBox="0 0 214.89011 27.102667"
   sodipodi:docname="iowastate.pdf"
   inkscape:version="1.1.1 (3bf5ae0d25, 2021-09-20)"
   xmlns:inkscape="http://www.inkscape.org/namespaces/inkscape"
   xmlns:sodipodi="http://sodipodi.sourceforge.net/DTD/sodipodi-0.dtd"
   xmlns="http://www.w3.org/2000/svg"
   xmlns:svg="http://www.w3.org/2000/svg"><defs
     id="defs13"><clipPath
       clipPathUnits="userSpaceOnUse"
       id="clipPath133"><path
         d="M 0,792 H 1224 V 0 H 0 Z"
         id="path131" /></clipPath><clipPath
       clipPathUnits="userSpaceOnUse"
       id="clipPath497"><path
         d="M 0,792 H 1224 V 0 H 0 Z"
         id="path495" /></clipPath></defs><sodipodi:namedview
     id="namedview11"
     pagecolor="#ffffff"
     bordercolor="#666666"
     borderopacity="1.0"
     inkscape:pageshadow="2"
     inkscape:pageopacity="0.0"
     inkscape:pagecheckerboard="0"
     showgrid="false"
     inkscape:zoom="1.5132289"
     inkscape:cx="256.73578"
     inkscape:cy="32.711509"
     inkscape:window-width="2560"
     inkscape:window-height="1387"
     inkscape:window-x="1912"
     inkscape:window-y="-8"
     inkscape:window-maximized="1"
     inkscape:current-layer="g15" /><g
     id="g15"
     inkscape:groupmode="layer"
     inkscape:label="iowastate"
     transform="matrix(1.3333333,0,0,-1.3333333,-752.99985,463.83599)"><g
       id="g1399"
       transform="translate(670.1904,332.689)"><path
         d="M 0,0 V 10.068 H 0.853 L 0.743,7.991 h 5.309 l 0.381,7.197 h -18.438 l 0.38,-7.197 h 5.313 l -0.11,2.077 h 0.853 V 0 h -1.392 l -0.82,-5.12 h 9.99 L 1.389,0 Z"
         style="fill:#8a2432;fill-opacity:1;fill-rule:nonzero;stroke:none"
         id="path1401" /></g><g
       id="g1403"
       transform="translate(691.3555,340.6797)"><path
         d="M 0,0 H 5.308 L 5.199,2.078 H 6.054 V -7.991 H 4.662 l -0.819,-5.12 h 9.99 l -0.821,5.12 H 11.621 V 2.078 h 0.853 L 12.364,0 h 5.313 l 0.38,7.197 H -0.381 Z"
         style="fill:#8a2432;fill-opacity:1;fill-rule:nonzero;stroke:none"
         id="path1405" /></g><g
       id="g1407"
       transform="translate(720.2295,334.7676)"><path
         d="M 0,0 0.097,-2.079 H -2.725 V 0.364 H 0.799 L 2.028,5.481 H -2.725 V 7.99 H 0.097 L 0,5.912 h 5.308 l 0.38,7.197 H -10.263 L -9.444,7.99 h 1.149 V 5.481 h -2.102 l 1.019,-5.117 h 1.083 V -2.079 H -9.93 l -0.819,-5.12 H 5.677 L 5.31,0 Z"
         style="fill:#8a2432;fill-opacity:1;fill-rule:nonzero;stroke:none"
         id="path1409" /></g><g
       id="g1411"
       transform="translate(684.7881,336.896)"><path
         d="m 0,0 h -1.976 l 0.989,3.688 z M 8.45,0 H 5.895 L 2.977,10.98 H -5.016 L -8.9,-4.207 h -2.567 l 0.735,-5.118 6.551,-0.002 0.96,4.209 h 4.464 l 0.961,-4.209 6.55,0.002 0.734,5.118 H 7.879 Z"
         style="fill:#8a2432;fill-opacity:1;fill-rule:nonzero;stroke:none"
         id="path1413" /></g><g
       id="g1415"
       transform="translate(653.376,340.0171)"><path
         d="m 0,0 -5.8,0.134 c -0.091,0.001 -0.166,0.078 -0.166,0.17 v 2.273 c 0,0.09 0.073,0.163 0.164,0.163 H -1.67 L -1.782,0.663 H 3.504 L 3.886,7.852 H -7.167 c -2.408,0 -4.365,-1.959 -4.365,-4.365 v -3.61 c 0,-2.406 1.957,-4.408 4.362,-4.464 l 5.801,-0.134 c 0.092,-0.001 0.165,-0.077 0.165,-0.169 v -2.281 c 0,-0.09 -0.072,-0.163 -0.162,-0.163 h -4.517 l 0.11,2.078 h -5.284 l -0.381,-7.19 h 11.434 c 2.408,0 4.367,1.958 4.367,4.365 v 3.617 C 4.363,-2.06 2.405,-0.057 0,0"
         style="fill:#8a2432;fill-opacity:1;fill-rule:nonzero;stroke:none"
         id="path1417" /></g><g
       id="g1419"
       transform="translate(573.9219,342.7397)"><path
         d="M 0,0 0.822,5.116 H -9.172 L -8.351,0 h 1.393 v -10.069 h -1.393 l -0.821,-5.119 H 0.822 L 0,-10.069 H -1.39 V 0 Z"
         style="fill:#8a2432;fill-opacity:1;fill-rule:nonzero;stroke:none"
         id="path1421" /></g><g
       id="g1423"
       transform="translate(594.2056,342.7397)"><path
         d="m 0,0 3.671,-15.099 0.022,-0.089 h 5.302 l 2.786,9.747 2.761,-9.663 0.024,-0.084 h 5.301 L 23.56,0 h 1.609 l 1.229,5.116 h -7.437 l -2.09,-8.595 -2.433,8.511 -0.024,0.084 H 9.146 L 6.688,-3.479 4.598,5.116 H -2.839 L -1.609,0 Z"
         style="fill:#8a2432;fill-opacity:1;fill-rule:nonzero;stroke:none"
         id="path1425" /></g><g
       id="g1427"
       transform="translate(627.6689,336.876)"><path
         d="m 0,0 h -1.977 l 0.989,3.687 z m -11.469,-4.208 0.738,-5.116 6.55,-0.002 0.96,4.208 h 4.465 l 0.959,-4.208 6.55,0.002 0.735,5.116 H 7.878 L 8.45,0 H 5.894 L 2.976,10.98 H -5.016 L -8.9,-4.208 Z"
         style="fill:#8a2432;fill-opacity:1;fill-rule:nonzero;stroke:none"
         id="path1429" /></g><g
       id="g1431"
       transform="translate(581.6836,332.835)"><path
         d="m 0,0 v 9.905 h 4.381 c 0.091,0 0.163,-0.074 0.163,-0.163 L 4.544,0 c 0,-0.091 -0.072,-0.164 -0.163,-0.164 H 0.163 C 0.073,-0.164 0,-0.091 0,0 m -1.202,-5.264 h 6.924 c 2.407,0 4.365,1.957 4.365,4.366 v 11.549 c 0,2.405 -1.958,4.364 -4.365,4.364 h -6.924 c -2.406,0 -4.366,-1.959 -4.366,-4.364 V -0.898 c 0,-2.409 1.96,-4.366 4.366,-4.366"
         style="fill:#8a2432;fill-opacity:1;fill-rule:nonzero;stroke:none"
         id="path1433" /></g><g
       id="g1435"
       transform="translate(692.2998,341.7437)"><path
         d="M 0,0 H 3.308 L 3.198,2.077 H 6.173 V -10.118 H 4.626 L 4.145,-13.11 h 7.495 l -0.478,2.992 H 9.614 V 2.077 h 2.973 L 12.479,0 h 3.306 l 0.27,5.068 H -0.269 Z"
         style="fill:#ffc72a;fill-opacity:1;fill-rule:nonzero;stroke:none"
         id="path1437" /></g><g
       id="g1439"
       transform="translate(721.2861,333.7031)"><path
         d="m 0,0 0.098,-2.078 h -4.944 v 4.57 h 3.749 l 0.718,2.99 h -4.467 v 4.635 H 0.098 L 0,8.041 h 3.307 l 0.268,5.067 h -13.647 l 0.479,-2.991 h 1.306 V 5.482 h -1.801 l 0.48,-2.99 h 1.321 v -4.57 h -1.792 L -10.558,-5.07 H 3.563 L 3.307,0 Z"
         style="fill:#ffc72a;fill-opacity:1;fill-rule:nonzero;stroke:none"
         id="path1441" /></g><g
       id="g1443"
       transform="translate(683.4561,343.8154)"><path
         d="m 0,0 h 0.687 l 1.937,-7.983 h -4.561 z m 7.177,-10.974 h 0.946 l 0.429,2.991 H 6.409 L 3.489,2.996 H -2.847 L -6.75,-12.19 h -2.156 l 0.432,-2.991 4.79,-0.001 1.406,5.802 0.745,-1.594 h 4.874 l 1.031,-4.208 4.787,0.001 0.433,2.991 H 7.441 Z"
         style="fill:#ffc72a;fill-opacity:1;fill-rule:nonzero;stroke:none"
         id="path1445" /></g><g
       id="g1447"
       transform="translate(659.5117,341.7437)"><path
         d="M 0,0 H 3.308 L 3.198,2.077 H 6.171 V -10.118 H 4.624 L 4.145,-13.11 h 7.496 l -0.481,2.992 H 9.613 V 2.077 h 2.974 L 12.477,0 h 3.308 l 0.27,5.068 H -0.269 Z"
         style="fill:#ffc72a;fill-opacity:1;fill-rule:nonzero;stroke:none"
         id="path1449" /></g><g
       id="g1451"
       transform="translate(653.3799,338.9526)"><path
         d="m 0,0 -5.801,0.133 c -0.678,0.016 -1.232,0.581 -1.232,1.262 v 2.247 c 0,0.675 0.551,1.226 1.227,1.226 h 5.19 L -0.727,2.791 h 3.283 l 0.266,5.062 h -9.993 c -1.821,0 -3.303,-1.481 -3.303,-3.301 V 0.914 c 0,-1.817 1.481,-3.33 3.296,-3.372 l 5.802,-0.134 c 0.679,-0.015 1.232,-0.582 1.232,-1.262 v -2.252 c 0,-0.678 -0.55,-1.229 -1.226,-1.229 h -5.568 l 0.144,2.08 h -3.322 l -0.269,-5.064 h 10.377 c 1.823,0 3.304,1.482 3.304,3.303 v 3.642 C 3.296,-1.555 1.815,-0.042 0,0"
         style="fill:#ffc72a;fill-opacity:1;fill-rule:nonzero;stroke:none"
         id="path1453" /></g><g
       id="g1455"
       transform="translate(573.0156,343.8032)"><path
         d="M 0,0 0.479,2.989 H -7.016 L -6.538,0 h 1.551 v -12.196 h -1.551 l -0.478,-2.992 H 0.479 L 0,-12.196 H -1.548 V 0 Z"
         style="fill:#ffc72a;fill-opacity:1;fill-rule:nonzero;stroke:none"
         id="path1457" /></g><g
       id="g1459"
       transform="translate(595.043,343.8032)"><path
         d="m 0,0 3.704,-15.188 h 3.651 l 3.589,12.554 3.586,-12.554 h 3.663 L 21.886,0 h 1.606 l 0.719,2.989 H 18.96 L 16.117,-8.705 12.774,2.989 H 9.112 L 5.768,-8.705 2.924,2.989 H -2.329 L -1.608,0 Z"
         style="fill:#ffc72a;fill-opacity:1;fill-rule:nonzero;stroke:none"
         id="path1461" /></g><g
       id="g1463"
       transform="translate(626.3379,343.7954)"><path
         d="m 0,0 h 0.687 l 1.937,-7.983 h -4.561 z m -8.477,-15.182 h 4.792 l 1.405,5.803 0.747,-1.595 h 4.872 l 1.03,-4.208 H 9.16 l 0.429,2.991 H 7.442 l -0.266,1.217 h 0.945 l 0.431,2.991 H 6.407 L 3.489,2.997 h -6.338 l -3.902,-15.188 h -2.154 z"
         style="fill:#ffc72a;fill-opacity:1;fill-rule:nonzero;stroke:none"
         id="path1465" /></g><g
       id="g1467"
       transform="translate(579.8599,343.8032)"><path
         d="m 0,0 h 6.205 c 0.676,0 1.227,-0.55 1.227,-1.226 v -9.742 c 0,-0.678 -0.551,-1.228 -1.227,-1.228 H 1.987 c -0.676,0 -1.227,0.55 -1.227,1.228 v 10.131 z m 0.622,-15.17 h 6.923 c 1.82,0 3.302,1.482 3.302,3.303 v 11.55 c 0,1.819 -1.482,3.299 -3.302,3.299 H 0.622 c -1.82,0 -3.302,-1.48 -3.302,-3.299 v -11.55 c 0,-1.821 1.482,-3.303 3.302,-3.303"
         style="fill:#ffc72a;fill-opacity:1;fill-rule:nonzero;stroke:none"
         id="path1469" /></g></g></svg>
