<svg xmlns="http://www.w3.org/2000/svg" height="47.532" viewBox="0 0 126.84765 47.532231" width="126.85"><g transform="matrix(1.25 0 0 -1.25 -249.01 540.05)"><g transform="matrix(.5 0 0 .5 125.34 206.88)"><path d="m133.52 0c-11.226 0-22.825 4.8268-32.66 13.592-9.5 8.4662-16.353 19.923-18.799 31.432-2.615 12.308 0.01414 24.465 7.2129 33.355 6.325 7.8112 15.366 12.113 25.461 12.113 10.819 0 18.627-1.0255 28.887-6.4355l0.44141-0.23242 0.10156-0.48633 5.2461-24.674 0.62891-2.959-2.3418 1.9141-18.408 15.064c-4.17 3.555-7.8419 5.0684-12.297 5.0684-3.53 0-6.0615-1.0088-7.7402-3.0801-4.6975-5.8012-1.8227-19.328 0.27734-29.205 2.9362-13.811 6.9574-32.727 21.732-32.727 4.5362 0 6.6276 1.6023 9.1113 4.7598l11.977 15.205 1.4023 1.7812 0.47266-2.2168 5.2422-24.674 0.14844-0.69922-0.58984-0.40234c-8.12-5.5204-14.69-6.492-25.5-6.492zm-114.76 1.8652 1.353 1.7207 8.278 10.51-13.174 61.982-12.934 10.666-2.283 1.883h2.959 77.83 2.4316l-1.6523-1.7852c-0.0725-0.0775-7.2405-7.9-9.7617-17.812l-0.41211-1.623-1.293 1.0645-9.1758 7.5586h-21.004l5.8281-27.426h11.672l8.123 10.49 1.4043 1.8105 0.47656-2.2402 6.8594-32.275 0.63281-2.9785-2.3477 1.9355-12.75 10.518h-11.361l4.5488-21.402h18.133l6.1992 7.873 0.95312 1.2109 0.79297-1.3223c7.116-11.878 15.475-18.391 15.56-18.454l2.4727-1.9043h-3.1211-73.049-2.1895zm141.44 0 1.3535 1.7207 8.2774 10.51-10.75 50.58c-1.3575 6.3825-0.20563 11.89 3.4219 16.369 5.155 6.3675 14.943 10.02 26.852 10.02 7.2425 0 15.05-2.6284 21.424-7.2109 6.8075-4.8962 11.398-11.548 12.926-18.734l10.777-50.705 12.934-10.666 2.2812-1.8828h-2.959-33.566-2.1894l1.3555 1.7207 8.2754 10.51-10.75 50.58c-1.5338 7.21-8.5707 13.074-15.689 13.074-3.6188 0-6.6953-1.339-8.6641-3.7715-1.8962-2.34-2.5444-5.4856-1.8281-8.8594l10.777-50.705 12.934-10.666 2.2832-1.8828h-2.957-44.328-2.1894z" transform="matrix(.8 0 0 -.8 149.27 448.66)" fill="#ffc72c"/><path d="m133.52 0.53125c-11.096 0-22.57 4.7802-32.309 13.459-9.4162 8.3925-16.207 19.745-18.631 31.145-2.5825 12.15 0.0067 24.144 7.1055 32.91 6.2212 7.6825 15.118 11.914 25.049 11.914 10.734 0 18.476-1.0136 28.639-6.3711l0.22071-0.11719 5.6094-26.396-19.586 16.027c-4.2575 3.6325-8.0325 5.1797-12.625 5.1797-3.7012 0-6.368-1.0716-8.1543-3.2754-4.855-5.9975-2.0681-19.113 0.17187-29.65 2.9738-13.989 7.047-33.146 22.252-33.146 4.755 0 6.938 1.6697 9.5293 4.9609l12.676 16.098 5.5547-26.131-0.29492-0.20312c-8-5.4464-14.5-6.4038-25.2-6.4038zm-113.67 1.8652 9.109 11.566-13.266 62.407-14.218 11.727h80.527l-0.82812-0.89258c-0.0725-0.07875-7.326-7.9817-9.8848-18.043l-0.20703-0.81055-9.9707 8.2109h-21.852l6.0566-28.488h12.363l8.9824 11.602 7.416-34.885-14.072 11.605h-12.207l4.7754-22.465h18.82l6.8359 8.6816 0.39648-0.66211c7.177-11.974 15.608-18.534 15.693-18.599l1.2363-0.95312h-75.705zm141.44 0 9.1074 11.566-10.803 50.824c-1.3212 6.2188-0.2068 11.576 3.3144 15.924 4.98 6.1512 14.864 9.8223 26.439 9.8223 13.66 0 30.479-9.7591 33.83-25.525l10.814-50.887 14.219-11.725h-36.141l9.1074 11.566-10.803 50.824c-1.58 7.4412-8.8527 13.494-16.209 13.494-3.7825 0-7.0069-1.4088-9.0781-3.9688-1.9975-2.4662-2.6841-5.7709-1.9316-9.3047l10.814-50.887 14.219-11.725h-46.9z" transform="matrix(.8 0 0 -.8 149.27 448.66)" stroke="#ffc72c" fill="#582C83"/></g></g></svg>
