<?xml version="1.0" encoding="UTF-8"?>
<svg xmlns="http://www.w3.org/2000/svg" xml:space="preserve" viewBox="0 0 400 400">
  <radialGradient id="a" cx="207.47" cy="358.5" r="172.04" gradientTransform="matrix(1 0 0 .1553 0 302.84)" gradientUnits="userSpaceOnUse">
    <stop offset=".5" stop-opacity=".5"/>
    <stop offset="1" stop-opacity="0"/>
  </radialGradient>
  <ellipse cx="207.47" cy="358.5" fill="url(#a)" rx="178.97" ry="34"/>
  <path fill="#5E2B08" d="M389.053 260.9c-.049.015-.104.03-.154.046-.229.067-.476.14-.746.22.302-.255.514-.504.645-.747-.088-.373-.212-.741-.354-1.106h-.002.002c-.065-.169-.131-.336-.208-.503-.468-1.009-1.148-1.989-2.071-2.933-42.733-43.703-124.731-67.357-201.438-64.083-41.127 1.756-80.793 10.498-114.228 26.601-12.96 6.242-52.939 25.417-58.804 40.458-.25.64-.431 1.272-.553 1.896l.145.03c.042-.001.157.051.377.146-.259-.094-.377-.146-.377-.146-.06.001-.111.021-.16.053l-.107.758c-.096.983-.025 1.944.249 2.874.005.016.009.031.014.047.309 1.021.851 2.008 1.655 2.952 2.116 2.481 4.394 4.893 6.804 7.24 19.301 18.807 47.679 33.343 79.657 43.252 37.986 12.026 80.942 17.531 120.144 15.649 41.808-2.007 82.876-11.576 116.469-28.315 13.996-6.974 53.224-26.884 53.218-42.3-.002-.493-.065-1.333-.177-2.089z"/>
  <radialGradient id="b" cx="153.17" cy="221.17" r="228.96" gradientUnits="userSpaceOnUse">
    <stop offset="0" stop-color="#ad6913"/>
    <stop offset="1" stop-color="#6b3300"/>
  </radialGradient>
  <path fill="url(#b)" d="M389.2 256.78c-.471-1.53-1.154-3.017-2.082-4.447-42.952-66.27-125.37-102.14-202.47-97.173-41.338 2.662-81.208 15.919-114.81 40.338-13.026 9.465-53.21 38.54-59.105 61.348 4.514 2.629 33.874 14.85 189.76 14.85 150.28-.001 183.57-12.436 188.71-14.916z"/>
  <radialGradient id="c" cx="168.02" cy="243.14" r="233.51" gradientUnits="userSpaceOnUse">
    <stop offset="0" stop-color="#945613"/>
    <stop offset=".8648" stop-color="#713803"/>
    <stop offset="1" stop-color="#6b3300"/>
  </radialGradient>
  <path fill="url(#c)" d="M390.021 259.955c-.049.021-.104.046-.155.068-.23.103-.478.213-.75.334-10.588 4.713-52.869 21.232-188.627 21.232-167.906 0-188.524-18.086-190.44-20.588-.097 1.491-.025 2.947.25 4.357.005.023.009.047.014.07.31 1.55.855 3.046 1.664 4.477 2.127 3.763 4.417 7.419 6.839 10.98 19.4 28.518 47.923 50.56 80.065 65.585 38.181 18.236 81.357 26.584 120.76 23.73 42.022-3.043 83.301-17.553 117.066-42.937 14.067-10.575 53.496-40.766 53.49-64.143 0-.745-.062-2.02-.176-3.165z"/>
  <radialGradient id="d" cx="197.1" cy="218.35" r="198.57" gradientTransform="matrix(1 0 0 .7125 0 62.772)" gradientUnits="userSpaceOnUse">
    <stop offset=".6762" stop-color="#3f1c04" stop-opacity="0"/>
    <stop offset="1" stop-color="#3f1c04" stop-opacity=".69"/>
  </radialGradient>
  <path fill="url(#d)" d="M390.021 259.955c-.049.021-.104.046-.155.068-.23.103-.478.213-.75.334-10.588 4.713-52.869 21.232-188.627 21.232-167.906 0-188.524-18.086-190.44-20.588-.097 1.491-.025 2.947.25 4.357.005.023.009.047.014.07.31 1.55.855 3.046 1.664 4.477 2.127 3.763 4.417 7.419 6.839 10.98 19.4 28.518 47.923 50.56 80.065 65.585 38.181 18.236 81.357 26.584 120.76 23.73 42.022-3.043 83.301-17.553 117.066-42.937 14.067-10.575 53.496-40.766 53.49-64.143 0-.745-.062-2.02-.176-3.165z"/>
  <path fill="#AA5E0B" d="M389.408 257.547s-.001-.001-.002 0c0 0-37.406 19.453-188.917 19.453-153.547 0-186.136-15.01-189.793-17.007-.261-.143-.379-.221-.379-.221-.06.002-.112.033-.16.079l-.108 1.15c1.917 2.502 22.534 20.588 190.44 20.588 135.758 0 178.039-16.52 188.627-21.232.304-.387.517-.764.648-1.133-.088-.565-.212-1.123-.356-1.677z"/>
  <path fill="#3F1C04" d="M10.317 259.773c.043-.001.158.076.379.221C14.354 261.99 46.942 277 200.489 277c151.511 0 188.917-19.453 188.917-19.453l.002-.001c-.065-.255-.132-.51-.209-.762-5.142 2.479-38.427 14.915-188.71 14.915-155.888 0-185.248-12.221-189.762-14.85-.251.971-.434 1.93-.556 2.876l.146.048z"/>
  <path fill="#FFF" d="M110.39 268.96v8.31s41.884 2.411 90.101 2.726c46.511.304 90.101-3.495 90.101-3.495v-7.54s-60.101 3.234-90.101 2.734-90.101-2.735-90.101-2.735z"/>
  <path d="M118.475 254.943c-.073-1.264-1.846-2.275-4.037-2.275s-3.964 1.012-4.037 2.275h-.013v37.54c0 1.299 1.813 2.352 4.05 2.352 2.236 0 4.05-1.053 4.05-2.352h.017v-37.54h-.03z" opacity=".59"/>
  <path fill="#FFF" d="M117.12 254.29c-.065-1.252-1.663-2.255-3.638-2.255s-3.572 1.003-3.638 2.255h-.012v37.21c0 1.288 1.634 2.331 3.649 2.331 2.016 0 3.65-1.043 3.65-2.331h.015v-37.21h-.026z"/>
  <path d="M142.223 257.195c-.073-1.264-1.846-2.275-4.036-2.275-2.191 0-3.965 1.012-4.037 2.275h-.013v37.541c0 1.299 1.813 2.352 4.05 2.352 2.236 0 4.049-1.053 4.049-2.352h.017v-37.541h-.03z" opacity=".59"/>
  <path fill="#FFF" d="M140.71 256.51c-.065-1.252-1.663-2.255-3.638-2.255s-3.572 1.003-3.638 2.255h-.012v37.21c0 1.288 1.634 2.331 3.649 2.331 2.016 0 3.65-1.043 3.65-2.331h.015v-37.21h-.026z"/>
  <path d="M167.479 257.471c-.073-1.264-1.846-2.275-4.037-2.275s-3.964 1.012-4.037 2.275h-.013v37.54c0 1.299 1.813 2.352 4.05 2.352 2.236 0 4.05-1.053 4.05-2.352h.017v-37.54h-.03z" opacity=".59"/>
  <path fill="#FFF" d="M165.81 256.75c-.065-1.252-1.663-2.255-3.638-2.255s-3.572 1.003-3.637 2.255h-.012v37.21c0 1.288 1.633 2.331 3.649 2.331s3.65-1.043 3.65-2.331h.016v-37.21h-.028z"/>
  <path d="M192.734 257.745c-.073-1.264-1.846-2.275-4.036-2.275-2.191 0-3.965 1.012-4.037 2.275h-.013v37.541c0 1.299 1.813 2.352 4.05 2.352 2.236 0 4.049-1.053 4.049-2.352h.017v-37.541h-.03z" opacity=".59"/>
  <path fill="#FFF" d="M190.91 256.99c-.065-1.252-1.663-2.255-3.638-2.255s-3.572 1.003-3.637 2.255h-.012v37.21c0 1.288 1.633 2.331 3.649 2.331s3.65-1.043 3.65-2.331h.016v-37.21h-.028z"/>
  <path d="M217.984 257.547c-.072-1.264-1.846-2.275-4.036-2.275-2.191 0-3.965 1.012-4.037 2.275h-.013v37.54c0 1.299 1.813 2.352 4.05 2.352 2.236 0 4.05-1.053 4.05-2.352h.017v-37.54h-.031z" opacity=".59"/>
  <path fill="#FFF" d="M216.007 256.763c-.066-1.252-1.664-2.255-3.639-2.255s-3.572 1.003-3.637 2.255h-.012v37.21c0 1.288 1.633 2.331 3.648 2.331s3.65-1.043 3.65-2.331h.016v-37.21h-.026z"/>
  <path d="M243.229 256.739c-.073-1.264-1.846-2.275-4.037-2.275s-3.964 1.012-4.037 2.275h-.013v37.541c0 1.299 1.813 2.352 4.05 2.352s4.05-1.053 4.05-2.352h.017v-37.541h-.03z" opacity=".59"/>
  <path fill="#FFF" d="M241.096 255.922c-.066-1.252-1.664-2.255-3.639-2.255s-3.572 1.003-3.637 2.255h-.012v37.21c0 1.288 1.633 2.331 3.648 2.331s3.65-1.043 3.65-2.331h.016v-37.21h-.026z"/>
  <path d="M268.473 255.932c-.073-1.264-1.846-2.275-4.036-2.275-2.191 0-3.965 1.012-4.037 2.275h-.014v37.54c0 1.299 1.813 2.352 4.051 2.352 2.236 0 4.049-1.053 4.049-2.352h.018v-37.54h-.031z" opacity=".59"/>
  <path fill="#FFF" d="M266.184 255.082c-.066-1.252-1.664-2.255-3.639-2.255s-3.572 1.003-3.637 2.255h-.012v37.21c0 1.288 1.633 2.331 3.648 2.331s3.65-1.043 3.65-2.331h.016v-37.21h-.026z"/>
  <path d="M293.716 255.123c-.073-1.264-1.846-2.275-4.036-2.275-2.191 0-3.965 1.012-4.037 2.275h-.014v37.541c0 1.299 1.813 2.352 4.051 2.352 2.236 0 4.049-1.053 4.049-2.352h.018v-37.541h-.031z" opacity=".59"/>
  <path fill="#FFF" d="M291.271 254.241c-.066-1.252-1.664-2.255-3.639-2.255s-3.572 1.003-3.637 2.255h-.012v37.21c0 1.288 1.633 2.331 3.648 2.331s3.65-1.043 3.65-2.331h.016v-37.21h-.026z"/>
  <g xmlns:cc="http://web.resource.org/cc/" xmlns:dc="http://purl.org/dc/elements/1.1/" xmlns:inkscape="http://www.inkscape.org/namespaces/inkscape" xmlns:rdf="http://www.w3.org/1999/02/22-rdf-syntax-ns#" xmlns:sodipodi="http://sodipodi.sourceforge.net/DTD/sodipodi-0.dtd" xmlns:svg="http://www.w3.org/2000/svg">
    <linearGradient id="e" x1="446.19" x2="446.19" y1="-62.888" y2="169.97" gradientTransform="matrix(.8239 0 0 -.8239 -76.427 163.21)" gradientUnits="userSpaceOnUse">
      <stop offset=".0056" stop-color="#ed0000"/>
      <stop offset=".5449" stop-color="#8d0000"/>
      <stop offset="1" stop-color="#bd0000"/>
    </linearGradient>
    <path fill="url(#e)" d="M189.83 119.1c0 55.888 45.469 101.36 101.36 101.36 55.887 0 101.36-45.471 101.36-101.36S347.081 17.74 291.19 17.74c-55.889 0-101.36 45.469-101.36 101.36z"/>
    <linearGradient id="f" x1="446.19" x2="446.19" y1="-62.866" y2="169.99" gradientTransform="matrix(.8239 0 0 -.8239 -76.427 163.21)" gradientUnits="userSpaceOnUse">
      <stop offset=".0056" stop-color="#ff4242"/>
      <stop offset=".573" stop-color="#ff9494"/>
      <stop offset="1" stop-color="#ffdcdc"/>
    </linearGradient>
    <path fill="url(#f)" d="M195.93 119.1c0 52.527 42.734 95.261 95.261 95.261 52.525 0 95.258-42.733 95.258-95.261s-42.732-95.261-95.258-95.261c-52.527 0-95.261 42.734-95.261 95.261z"/>
    <linearGradient id="g" x1="446.19" x2="446.19" y1="-58.17" y2="165.26" gradientTransform="matrix(.8239 0 0 -.8239 -76.427 163.21)" gradientUnits="userSpaceOnUse">
      <stop offset="0" stop-color="#fff"/>
      <stop offset=".5" stop-color="red"/>
      <stop offset="1" stop-color="#ffc9c9"/>
    </linearGradient>
    <path fill="url(#g)" d="M199.15 119.1c0 50.756 41.294 92.04 92.044 92.04 50.754 0 92.045-41.284 92.045-92.04 0-50.751-41.291-92.043-92.045-92.043-50.751 0-92.044 41.292-92.044 92.043z"/>
    <path fill="#FFF" d="M291.189 38.554c-46.223 0-83.833 37.602-83.833 83.831 0 46.223 37.61 83.823 83.833 83.823 46.225 0 83.831-37.601 83.831-83.823.001-46.229-37.606-83.831-83.831-83.831z" opacity=".8"/>
    <path fill="#8D0000" d="M207.36 119.1c0 46.227 37.61 83.824 83.833 83.824 46.225 0 83.831-37.598 83.831-83.824 0-46.224-37.606-83.83-83.831-83.83-46.222 0-83.833 37.606-83.833 83.83z"/>
    <radialGradient id="h" cx="298.65" cy="-17.538" r="69.964" gradientTransform="matrix(1.1689 0 0 -1.1689 -57.898 98.596)" gradientUnits="userSpaceOnUse">
      <stop offset=".6011" stop-color="#fff"/>
      <stop offset=".8764" stop-color="#eaeaf0"/>
      <stop offset=".9142" stop-color="#e6e6ed"/>
      <stop offset=".95" stop-color="#dbdbe5"/>
      <stop offset=".9849" stop-color="#c8c8d7"/>
      <stop offset="1" stop-color="#bdbdcf"/>
    </radialGradient>
    <path fill="url(#h)" d="M209.41 119.1c0 45.092 36.686 81.775 81.779 81.775s81.781-36.684 81.781-81.775-36.687-81.778-81.781-81.778S209.41 74.008 209.41 119.1z"/>
    <path fill="#711" d="M216.178 116.424c-.91 0-1.648.738-1.648 1.647v2.05c0 .909.738 1.647 1.648 1.647h14.369c.91 0 1.648-.738 1.648-1.647v-2.05c0-.909-.738-1.647-1.648-1.647h-14.369z"/>
    <path fill="#A00000" d="M216.18 118.07h14.369v2.05H216.18z"/>
    <path fill="#711" d="M351.383 116.424c-.909 0-1.646.738-1.646 1.647v2.05c0 .909.737 1.647 1.646 1.647h14.377c.91 0 1.647-.738 1.647-1.647v-2.05c0-.909-.737-1.647-1.647-1.647h-14.377z"/>
    <path fill="#A00000" d="M351.38 118.07h14.377v2.05H351.38z"/>
    <path fill="#711" d="M290.164 177.646c-.91 0-1.648.737-1.648 1.647v14.37c0 .91.738 1.647 1.648 1.647h2.053c.91 0 1.648-.737 1.648-1.647v-14.37c0-.91-.738-1.647-1.648-1.647h-2.053z"/>
    <path fill="#A00000" d="M290.16 179.29h2.053v14.37h-2.053z"/>
    <path fill="#711" d="M290.164 42.437c-.91 0-1.648.738-1.648 1.648v14.37c0 .91.738 1.647 1.648 1.647h2.053c.91 0 1.648-.737 1.648-1.647v-14.37c0-.91-.738-1.648-1.648-1.648h-2.053z"/>
    <path fill="#A00000" d="M290.16 44.085h2.053v14.37h-2.053z"/>
    <linearGradient id="i" x1="435.93" x2="456.06" y1="57.956" y2="57.956" gradientTransform="matrix(.8239 0 0 -.8239 -76.427 163.21)" gradientUnits="userSpaceOnUse">
      <stop offset="0" stop-color="#fff"/>
      <stop offset="1" stop-color="#585868"/>
    </linearGradient>
    <path fill="url(#i)" d="M297.563 116.979c-.891-2.671-3.408-4.605-6.376-4.605-3.483 0-6.355 2.666-6.688 6.066 4.396.316 8.841-.02 13.064-1.461z"/>
    <path fill="none" stroke="#E0E0E0" stroke-linecap="round" stroke-linejoin="round" stroke-width="7.6101" d="m243.66 66.446 46.979 54.997"/>
    <path fill="none" stroke="#BFBFBF" stroke-linecap="round" stroke-linejoin="round" stroke-width="7.6101" d="m277.45 50.324 13.187 71.118"/>
    <path fill="none" stroke="gray" stroke-linecap="round" stroke-linejoin="round" stroke-width="7.6101" d="m314.78 53.26-24.14 68.183"/>
    <path fill="none" stroke="#000" stroke-linecap="round" stroke-linejoin="round" stroke-width="7.6101" d="m238.62 103.02 52.02 18.418 54.996-46.979"/>
  </g>
</svg>