<?xml version="1.0" encoding="UTF-8" standalone="no"?>
<svg xmlns:rdf="http://www.w3.org/1999/02/22-rdf-syntax-ns#" xmlns="http://www.w3.org/2000/svg" enable-background="new 0 0 105.479 29.64" xml:space="preserve" height="55.636" viewBox="0 0 199.62334 55.636251" width="199.62" version="1.1" y="0px" x="0px" xmlns:cc="http://creativecommons.org/ns#" xmlns:xlink="http://www.w3.org/1999/xlink" xmlns:dc="http://purl.org/dc/elements/1.1/"><g transform="matrix(1.875 0 0 1.875 .96938 .83937)"><g><path d="m105.15 2.582c-0.82-1.534-2.44-2.437-5.498-2.498l-77.777 0.028h-16.763l0.013 1.034c0.024 1.84 0.832 5.286 3.645 5.926 0.683 1.033 1.887 1.763 3.583 2.187-0.082 0.157-0.216 0.414-0.216 0.414-0.125 0.24-0.231 0.477-0.324 0.711-0.379 0.738-0.777 1.515-1.185 2.307h-10.61l0.019 1.038c0.003 0.2 0.127 4.681 3.519 5.701 0.422 0.761 1.186 1.556 2.543 2.082-0.563 1.099-0.915 1.781-0.915 1.781l-0.023 0.051c-0.168 0.35-0.368 0.917-0.368 1.631 0 0.673 0.186 1.325 0.539 1.886 0.526 0.834 1.642 1.829 3.975 1.829 0 0 58.063-0.012 78.658-0.017 6.334 0 7.515-0.742 9.955-6.427l6.547-14.938c1.029-2.239 1.166-3.815 0.68-4.726" clip-path="url(#SVGID_2_)" fill="#a3aaae"/><path d="m104.05 3.03c-0.65-1.216-2.14-1.94-4.516-1.932l-77.659 0.035h-15.728s0.06 4.729 3.265 5.009c0.583 1.262 2.085 2.056 4.479 2.379-0.415 0.794-0.848 1.624-0.848 1.624-0.117 0.224-0.215 0.444-0.297 0.658-0.476 0.924-0.981 1.909-1.494 2.908h-10.195s0.073 4.31 3.216 4.849c0.557 1.425 1.957 2.048 3.298 2.321l-1.473 2.866-0.019 0.04c-0.156 0.325-0.268 0.741-0.268 1.188 0 0.438 0.107 0.905 0.384 1.342 0.564 0.898 1.61 1.352 3.109 1.352l79.816-0.016c3.541 0 5.421-0.293 7.477-4.944l6.933-15.812c0.672-1.579 1.07-2.84 0.523-3.867" clip-path="url(#SVGID_2_)" fill="#011e41"/><path fill="#87714d" d="m48.262 2.4238c-3.009 0-4.1142 1.637-4.1582 1.707l-0.0078 0.011719-3.791 7.1055c-0.38 0.709-0.43225 1.3008-0.15625 1.7578 0.339 0.566 1.1085 0.8418 2.3555 0.8418h5.1758c0.13 0 3.1791-0.02127 4.2031-1.9473l3.9746-7.459c0.275-0.519 0.17211-0.89319 0.03711-1.1172-0.522-0.872-2.4363-0.90039-2.6523-0.90039h-4.9805zm-40.578 0.019531 0.056641 0.35547c0.238 1.488 1.4389 2.0451 2.7129 2.2461 0.008 0.049 0.01758 0.11328 0.01758 0.11328 0.281 1.758 3.368 2.1509 5.5 2.2109-0.358 0.688-1.7656 3.3828-1.7656 3.3828-0.139 0.267-0.44141 0.84436-0.44141 1.4434 0 0.254 0.05717 0.51295 0.20117 0.75195 0.368 0.607 1.1822 0.90039 2.4922 0.90039h8.5742l3.2109-6.2324h-6.3691l-1.3633 2.6484h1.1816c-0.2 0.389-0.39919 0.77408-0.49219 0.95508h-0.98047c-0.485 0.003-0.56717-0.11005-0.57617-0.12305-0.006-0.01-0.01367-0.03131-0.01367-0.07031 0-0.079 0.03155-0.23325 0.18555-0.53125 0 0 2.3242-4.5063 2.7852-5.4023h2.043c-0.073 0.145-0.38281 0.74805-0.38281 0.74805h4.9785l1.7363-3.3965h-0.50195-22.789zm28.809 0c-3.727 0-5.029 2.6944-5.123 2.9004-0.005 0.011-4.5371 8.5215-4.5371 8.5215h10.697l0.60156-1.1289 0.0078-0.05078c0.013-0.079 0.01953-0.15742 0.01953-0.23242 0-0.286-0.08863-0.54005-0.26562-0.74805-0.26-0.308-0.69089-0.48033-1.2129-0.48633h-2.7676c0.307-0.576 0.9707-1.8216 1.0957-2.0566h4.2402l1.4121-2.6484h-4.2422c0.161-0.301 0.33008-0.61719 0.33008-0.61719 0.283-0.534 0.84497-0.80469 1.668-0.80469h3.6641l1.4102-2.6484h-0.51172-6.4863zm21.912 0-6.1484 11.422h5.502s1.7534-3.287 2.0234-3.793c0.297 0.195 0.7137 0.46676 0.9707 0.63476-0.22 0.415-1.6777 3.1582-1.6777 3.1582h5.3555l2.3184-4.3516s-0.97644-0.55714-1.5234-0.86914c0.786-0.275 2.4551-0.85938 2.4551-0.85938l1.6934-3.1074c0.157-0.29 0.21289-0.53905 0.21289-0.74805 0-0.231-0.06844-0.41388-0.14844-0.54688-0.543-0.91-2.3955-0.93845-2.6055-0.93945h-8.4277zm16.666 0c-3.361 0.008-4.2895 1.8097-5.1875 3.5527-0.006 0.012-2.4824 4.7559-2.4824 4.7559-0.199 0.381-0.72724 1.3933-0.24024 2.1953 0.368 0.607 1.1841 0.90039 2.4941 0.90039h8.5723l3.2109-6.2324h-6.3672l-1.3652 2.6484h1.1836c-0.201 0.389-0.40014 0.77408-0.49414 0.95508h-0.98047c-0.486 0.003-0.56817-0.11005-0.57617-0.12305-0.006-0.01-0.01367-0.03131-0.01367-0.07031 0-0.079 0.0325-0.23325 0.1875-0.53125 0 0 2.3222-4.5063 2.7832-5.4023h2.0449c-0.074 0.145-0.38477 0.74805-0.38477 0.74805h4.9785l1.7383-3.3965h-0.50195-8.5996zm10.387 0-6.084 11.422h5.3613l6.082-11.422h-0.50976-4.8496zm8.5996 0-8.4609 11.422h5.6035s1.1292-1.7463 1.2852-1.9883h2.0723c-0.24 0.53-0.90625 1.9883-0.90625 1.9883h5.2578l3.459-7.8047 0.006-0.011719c0.53224-1.0767 0.60805-1.8982 0.22656-2.5117-0.456-0.737-1.5135-1.0938-3.2285-1.0938h-5.3145zm-45.006 2.4121h0.78906c0.078 0.004 0.2383 0.040281 0.2793 0.11328 0.009 0.015 0.01563 0.037359 0.01563 0.068359 0 0.071-0.03033 0.18098-0.11133 0.33398 0 0-2.6968 5.065-3.2168 6.041h-0.81445c-0.096 0-0.24334-0.03284-0.27734-0.08984-0.007-0.01-0.01172-0.02964-0.01172-0.05664 0-0.062 0.02338-0.16812 0.10938-0.32812 0 0 2.7183-5.103 3.2383-6.082zm47.928 0.49414c0.412 0.012 0.48138 0.10047 0.48438 0.10547 0.005 0.007 0.01172 0.025594 0.01172 0.058594 0 0.078-0.03689 0.24919-0.21289 0.61719-0.002 0.004-1.1216 2.4227-1.4336 3.0977h-1.2852c0.457-0.725 2.2845-3.6369 2.4355-3.8789zm-34.725 0.125h0.82227c0.3 0 0.39769 0.039641 0.42969 0.056641-0.002 0.021-0.01027 0.075453-0.07227 0.18945 0 0-0.28425 0.53081-0.40625 0.75781-0.141 0.049-0.93814 0.32936-1.6191 0.56836 0.345-0.642 0.7397-1.3773 0.8457-1.5723zm-35.409 9.4575c-2.587 0-3.6845 1.639-3.7305 1.709l-0.0059 0.0098-4.1055 7.4863c-0.138 0.25-0.50516 0.91505-0.16016 1.498 0.29 0.491 0.96822 0.72852 2.0742 0.72852h4.4043c0.11 0 2.7331-0.01936 3.7891-1.9434l4.0898-7.459c0.312-0.569 0.21131-0.97103 0.07031-1.207-0.47-0.795-2.0145-0.82226-2.1875-0.82226h-4.2383zm8.7324 0-5.0469 9.2051c-0.139 0.25-0.50416 0.91505-0.16016 1.498 0.29 0.491 0.96922 0.72852 2.0742 0.72852h4.4043c0.111 0 2.7341-0.01936 3.7891-1.9434l3.6934-6.7363c0.584-0.003 2.4079-0.01067 3.0059-0.01367-0.428 0.812-4.6484 8.8125-4.6484 8.8125h4.627l4.6484-8.8145c0.298 0 2.5101-0.000953 2.8711-0.002l-4.7148 8.8184h4.5977s2.2101-4.1764 2.3711-4.4824h0.92969c-0.388 0.733-2.373 4.4824-2.373 4.4824h4.5957l6.1758-11.551h-0.51758-4.0781s-2.0949 3.8885-2.2559 4.1895h-0.92578c0.391-0.724 2.2539-4.1895 2.2539-4.1895h-4.5957l-1.2266 2.291c0.124-0.324 0.22656-0.67386 0.22656-1.0059 0-0.236-0.05064-0.46311-0.18164-0.66211-0.275-0.417-0.82931-0.62109-1.6953-0.62109h-5.2051c-1.527 0-2.4798 0.63186-3.1348 1.3809l0.75977-1.3848h-4.6602s-4.7587 8.6792-4.9297 8.9902h-0.69141c-0.101 0-0.1555-0.0096-0.1875-0.01758 0.009-0.061 0.0517-0.19495 0.2207-0.50195l4.6465-8.4707h-4.6621zm35.014 0.002c-3.034 0-4.3845 2.8029-4.4395 2.9219-0.001 0-4.3594 8.1738-4.3594 8.1738l-0.24219 0.45508h8.4531l0.41016-0.86719 0.0078-0.01563c0.27199-0.50667 0.31219-0.97213 0.10938-1.3145-0.214-0.359-0.65641-0.54102-1.3164-0.54102h-1.5996c0.313-0.582 0.98338-1.8265 1.1094-2.0625h3.1895l1.4336-2.6621h-3.1895l0.33398-0.61719c0.288-0.537 0.75-0.80859 1.375-0.80859h2.7734l1.4336-2.6621h-0.51758-4.9648zm6.3672 0-6.1758 11.551h4.6445s1.9253-3.6386 2.2363-4.2246c0.249 0.217 0.46658 0.40459 0.64258 0.55859-0.198 0.38-1.9277 3.666-1.9277 3.666h4.5195l2.541-4.8047s-0.7705-0.57958-1.1875-0.89258c0.648-0.266 2.1445-0.87891 2.1445-0.87891l1.4688-2.7285c0.165-0.307 0.24805-0.59156 0.24805-0.85156 0-0.204-0.05034-0.39245-0.15234-0.56445-0.48-0.804-1.8947-0.83008-2.0547-0.83008h-6.9473zm-74.465 0.002 0.056641 0.35547c0.238 1.488 1.4399 2.0451 2.7129 2.2461 0.008 0.05 0.017578 0.11328 0.017578 0.11328 0.295 1.843 2.5802 2.1738 4.4512 2.2168-0.022 0.113-0.033203 0.22131-0.033203 0.32031 0 0.159 0.034844 0.29311 0.089844 0.41211 0.13 0.794 0.84105 1.2412 2.123 1.3262 0.005 0 1.5312 0.07227 1.5312 0.07227 0.579 0.032 0.67164 0.12467 0.68164 0.13867 0 0.001 0.002 0.0046 0.002 0.01563 0 0.036-0.01567 0.13833-0.13867 0.36133 0 0-0.63244 1.1571-0.77344 1.4141h-0.61524c-0.168 0-0.25092-0.01439-0.29492-0.02539 0.013-0.052 0.04453-0.15266 0.14453-0.34766 0.084-0.167 0.11523-0.31155 0.11523-0.43555 0-0.149-0.04566-0.26752-0.09766-0.35352-0.231-0.386-0.80033-0.47733-1.2363-0.48633h-2.834l-1.1289 2.0586c-0.021 0.043-0.32984 0.70225 0.035156 1.2812 0.31 0.491 0.98395 0.74023 2.002 0.74023h4.4922c0.121-0.001 2.8633-0.05756 3.7793-1.7266 0.002-0.004 1.4629-2.75 1.4629-2.75 0.242-0.436 0.32617-0.80166 0.32617-1.0977 0-0.27-0.06834-0.48358-0.15234-0.64258-0.268-0.504-0.88064-0.8333-1.6816-0.9043-0.002 0-1.5845-0.12872-1.6875-0.13672-0.179-0.025-0.68428-0.09945-0.73828-0.18945-0.002-0.001-0.0059-0.0083-0.0059-0.02734 0-0.058 0.02905-0.21914 0.24805-0.61914 0 0 0.33019-0.60248 0.49219-0.89648h1.0664c-0.135 0.256-0.50781 0.96289-0.50781 0.96289h4.4961s0.38881-0.73789 0.50781-0.96289h0.03906l1.2344-2.4336h-0.49609-19.686zm85.609 0.18555-0.08203 0.16797-5.4844 11.164h4.3984s1.5748-3.3248 2.1758-4.5918c0.166 1.334 0.57031 4.5918 0.57031 4.5918h1.627c0.87-0.058 2.4979-0.57505 3.6309-3.373-0.002 0.005 3.2207-7.541 3.2207-7.541l0.17774-0.41406-4.2148-0.002s-1.327 3.0302-1.875 4.2812c-0.194-1.302-0.63867-4.2812-0.63867-4.2812l-3.5059-0.002zm-60.73 2.252h0.63672c0.045 0.002 0.13234 0.0265 0.15234 0.0625 0.006 0.011 0.0098 0.02964 0.0098 0.05664 0 0.069-0.02877 0.19567-0.13477 0.38867 0 0-2.7795 5.068-3.3125 6.041h-0.66602c-0.061 0-0.13644-0.02392-0.14844-0.04492-0.004-0.006-0.0078-0.01806-0.0078-0.03906 0-0.06 0.02477-0.18381 0.13476-0.38281 0 0 2.7999-5.105 3.3359-6.082zm52.797 0.22266h0.64062c0.155 0 0.22772 0.01634 0.26172 0.02734-0.006 0.035-0.02589 0.10375-0.08789 0.21875 0 0-0.29406 0.54458-0.41406 0.76758-0.111 0.046-0.64284 0.265-1.2148 0.5 0.352-0.65 0.71445-1.3247 0.81445-1.5137z"/></g><path fill="#fff" d="m48.262 3.0352c-2.599 0-3.5646 1.3109-3.6426 1.4219-0.176 0.332-3.7754 7.0801-3.7754 7.0801-0.074 0.138-0.25781 0.48545-0.25781 0.81445 0 0.12 0.02394 0.23484 0.08594 0.33984 0.213 0.354 0.84703 0.54297 1.832 0.54297h5.1758c0.028 0 2.8111-0.02109 3.6621-1.6211 0 0 3.9707-7.459 3.9727-7.459 0.079-0.148 0.10352-0.25884 0.10352-0.33984 0-0.095-0.03283-0.14978-0.04883-0.17578-0.247-0.413-1.3959-0.60152-2.1289-0.60352h-4.9785zm-39.821 0.0214c0.351 1.013 1.4666 1.4764 3.5566 1.4824h5.6797l0.54492 0.00586-0.53516 0.86914h-6.4727c0.527 0.835 2.4268 1.3336 5.2578 1.3516l0.50195 0.00391-2.2266 4.2637c-0.105 0.201-0.36914 0.70906-0.36914 1.1641 0 0.155 0.03137 0.30459 0.10938 0.43359 0.241 0.396 0.92075 0.60547 1.9688 0.60547h8.1992c0.147-0.287 2.204-4.2758 2.582-5.0078h-4.9902c-0.11 0.213-0.48142 0.93488-0.73242 1.4219h1.1816l-1.123 2.1797h-1.3535c-0.567 0.003-0.92756-0.13302-1.1016-0.41602-0.227-0.369-0.03761-0.83517 0.15039-1.2012l2.9551-5.7344h3.4199s-0.30781 0.60305-0.38281 0.74805h3.5996c0.125-0.244 0.81233-1.5859 1.1113-2.1699h-8.0977-13.434zm28.049 0c-3.38 0-4.5194 2.4468-4.5664 2.5508l-0.0059 0.00977-0.0059 0.00977s-3.6325 6.824-4.0625 7.627h9.3086c0.109-0.205 0.33595-0.63003 0.37695-0.70703 0.003-0.031 0.0078-0.0628 0.0078-0.0918 0-0.141-0.04009-0.26047-0.12109-0.35547-0.143-0.17-0.41005-0.26553-0.74805-0.26953h-3.7832l1.748-3.2793h4.2402c0.112-0.209 0.49681-0.93383 0.75781-1.4238h-4.2422l0.81055-1.5176c0.273-0.516 0.87898-1.1309 2.209-1.1309h3.2988c0.111-0.209 0.49486-0.93188 0.75586-1.4219h-5.9785zm22.279 0c-0.16 0.299-5.0503 9.3813-5.4883 10.197h4.1094c0.159-0.298 2.1641-4.0625 2.1641-4.0625l2.002 1.3105s-1.1189 2.106-1.4629 2.752h3.9668c0.148-0.278 1.6352-3.0669 1.8672-3.5039-0.382-0.218-2.1738-1.2402-2.1738-1.2402s3.294-1.1526 3.5-1.2246c0.105-0.193 1.5781-2.8935 1.5801-2.8965 0.109-0.202 0.14062-0.35194 0.14062-0.46094 0-0.124-0.0425-0.19647-0.0625-0.23047-0.276-0.464-1.425-0.63862-2.082-0.64062h-8.0605zm16.303 0c-2.988 0.007-3.7544 1.4973-4.6504 3.2363l-2.4766 4.7402c-0.105 0.201-0.37109 0.70906-0.37109 1.1641 0 0.155 0.03137 0.30459 0.10938 0.43359 0.241 0.396 0.9207 0.60547 1.9707 0.60547h8.1973c0.148-0.287 2.2031-4.2758 2.5801-5.0078h-4.9883c-0.11 0.213-0.48142 0.93488-0.73242 1.4219h1.1816l-1.123 2.1797h-1.3555c-0.568 0.003-0.92656-0.13302-1.1016-0.41602-0.226-0.369-0.03566-0.83517 0.15234-1.2012l2.9551-5.7344h3.4199s-0.30781 0.60305-0.38281 0.74805h3.5996c0.125-0.244 0.81428-1.5859 1.1133-2.1699h-8.0977zm10.752 0c-0.161 0.301-4.9966 9.3833-5.4316 10.197h3.9727c0.161-0.302 4.9986-9.3843 5.4316-10.197h-3.9727zm8.541 0c-0.171 0.231-6.9027 9.3173-7.5547 10.197h4.0527c0.155-0.242 1.2871-1.9902 1.2871-1.9902h3.3574c0.000001 0-0.66425 1.4602-0.90625 1.9902h3.9082c0.155-0.347 3.3027-7.4531 3.3027-7.4531l0.006-0.013672c0.271-0.547 0.40625-0.99733 0.40625-1.3613 0-0.22-0.0485-0.40741-0.14649-0.56641-0.326-0.526-1.263-0.80373-2.707-0.80273h-5.0059zm-45.682 1.1875h1.1641 0.0078c0.059 0.001 0.56597 0.025016 0.79297 0.41602 0.156 0.266 0.12902 0.602-0.08398 1l-3.3887 6.3652h-1.1777c-0.058 0.001-0.57364 0.00014-0.80664-0.38086-0.159-0.26-0.13192-0.59514 0.08008-0.99414l3.4121-6.4063zm48.124 0.4903c0.425-0.008 0.93988 0.029625 1.1719 0.39062 0.236 0.366 0.03984 0.84762-0.16016 1.2656l-1.5977 3.4512h-2.7871l3.207-5.1035 0.16602-0.00391zm-34.92 0.12695h0.18359 1.0059c0.35 0 0.77489 0.041469 0.96289 0.35547 0.126 0.211 0.10555 0.47892-0.06445 0.79492l-0.522 0.9648-3.334 1.1699 1.768-3.2852zm-58.635 10.688c0.352 1.013 1.4656 1.4784 3.5566 1.4844h4.4785l0.53906 0.0098-0.5293 0.86523h-5.3008c0.4 0.896 1.7559 1.3416 4.1309 1.3516l0.41992 0.002-0.13086 0.39844c-0.081 0.248-0.10547 0.41539-0.10547 0.52539 0 0.107 0.02316 0.15773 0.03516 0.17773l0.0332 0.05469 0.0078 0.06055c0.026 0.183 0.10155 0.73994 1.5605 0.83594 0 0 1.5253 0.07422 1.5273 0.07422 0.501 0.027 0.99155 0.10022 1.1855 0.44922 0.056 0.101 0.08008 0.2065 0.08008 0.3125 0 0.23-0.10689 0.4642-0.21289 0.6582l-0.94922 1.7305h-0.97852c-0.321 0.000001-0.67389-0.03669-0.83789-0.30469-0.173-0.282-0.02637-0.62608 0.14062-0.95508 0.017-0.034 0.07002-0.14727 0.04101-0.19727-0.037-0.062-0.23675-0.17945-0.71875-0.18945h-2.4629c-0.144 0.265-0.93622 1.7065-0.94922 1.7285-0.006 0.014-0.072266 0.16942-0.072266 0.35742 0 0.103 0.020937 0.21736 0.085937 0.31836 0.187 0.295 0.69952 0.44922 1.4785 0.44922h4.4902c0.025 0 2.5021-0.0523 3.2441-1.4043 0 0 1.4618-2.747 1.4648-2.752 0.183-0.329 0.36092-0.79916 0.16992-1.1602-0.169-0.317-0.60436-0.53003-1.1934-0.58203l-1.7012-0.13672-0.0098-0.002c-0.617-0.089-1.0349-0.17444-1.2109-0.52344-0.162-0.325-0.01609-0.72084 0.25391-1.2148l0.66602-1.2148h2.4473s-0.37281 0.70689-0.50781 0.96289h3.1113c0.119-0.225 0.50586-0.96289 0.50586-0.96289h0.0332c0.101-0.201 0.38628-0.76103 0.61328-1.207h-5.5527-12.877zm44.963 0c-1.516 0-2.3574 0.70958-2.9414 1.5176 0.769-0.003 3.0859-0.01367 3.0859-0.01367l-4.6523 8.8164h3.2402c0.166-0.315 4.6484-8.8125 4.6484-8.8125s2.5258-0.002 2.8828-0.002c0.137-0.345 0.20703-0.62589 0.20703-0.83789 0-0.134-0.02603-0.24122-0.08203-0.32422-0.147-0.225-0.55469-0.34375-1.1797-0.34375h-5.209zm8.4551 0.002c-0.163 0.304-5.0757 9.4915-5.5137 10.314h3.1914c0.162-0.305 2.3711-4.4805 2.3711-4.4805h2.3281s-1.9841 3.7475-2.3711 4.4805h3.1953c0.162-0.304 5.0747-9.4915 5.5137-10.314h-3.1934c-0.161 0.301-2.2559 4.1895-2.2559 4.1895h-2.332s1.8668-3.4655 2.2578-4.1895h-3.1914zm13.922 0c-2.635 0-3.8307 2.463-3.8867 2.582 0 0.000001-3.692 6.9214-4.125 7.7324h7.0312c0.094-0.198 0.25586-0.53711 0.25586-0.53711l0.0039-0.0078c0.112-0.204 0.16992-0.39111 0.16992-0.53711 0-0.071-0.01397-0.13169-0.04297-0.17969-0.091-0.154-0.3692-0.23828-0.7832-0.23828h-2.6348l1.7754-3.2988h3.1895c0.114-0.209 0.50158-0.93178 0.76758-1.4258h-3.1895l0.82422-1.5293c0.398-0.742 1.0619-1.1348 1.9199-1.1348h2.4023c0.113-0.209 0.50253-0.93178 0.76953-1.4258h-4.4473zm6.7383 0c-0.163 0.304-5.0757 9.4915-5.5137 10.314h3.2383c0.161-0.305 2.4277-4.5859 2.4277-4.5859l1.5996 1.3945s-1.3217 2.5094-1.6797 3.1914h3.125c0.151-0.288 1.9071-3.6068 2.1191-4.0078-0.305-0.23-1.6367-1.2285-1.6367-1.2285s2.7563-1.132 2.9453-1.209c0.097-0.181 1.3652-2.5332 1.3652-2.5332 0.184-0.344 0.22042-0.61564 0.10742-0.80664-0.254-0.428-1.2104-0.5283-1.5234-0.5293h-6.5742zm-50.484 0.002c-2.194 0-3.1341 1.3159-3.2051 1.4199-0.156 0.286-4.0918 7.4648-4.0918 7.4648-0.07 0.125-0.22656 0.4082-0.22656 0.6582 0 0.08 0.01664 0.15566 0.05664 0.22266 0.093 0.158 0.41806 0.42383 1.5391 0.42383h4.4043c0.022-0.000001 2.3661-0.02309 3.2441-1.6211l4.09-7.461c0.208-0.378 0.11203-0.5388 0.08203-0.5918-0.228-0.386-1.2152-0.51362-1.6562-0.51562h-4.2363zm9.1035 0c-0.656 1.196-4.873 8.8848-4.873 8.8848-0.07 0.125-0.22461 0.4082-0.22461 0.6582 0 0.08 0.01664 0.15566 0.05664 0.22266 0.093 0.158 0.41711 0.42383 1.5371 0.42383h4.4043c0.024-0.000001 2.3671-0.02309 3.2441-1.6211 0 0 4.2442-7.7394 4.6992-8.5684h-3.2422c-0.171 0.312-4.9316 8.9922-4.9316 8.9922h-1.0586c-0.135 0-0.55038-0.0015-0.73438-0.3125-0.056-0.093-0.08008-0.19092-0.08008-0.29492 0-0.256 0.14173-0.54098 0.30273-0.83398 0 0 3.6936-6.7328 4.1406-7.5508h-3.2402zm52.525 0.16602c-0.153 0.31-4.5995 9.3597-4.9805 10.139h3.0645c0.152-0.32 2.8926-6.1035 2.8926-6.1035s0.69981 5.6305 0.75781 6.1035h1.0684c0.731-0.051 2.1013-0.50986 3.1113-3.0059 0 0.000001 2.7289-6.3909 3.0449-7.1309-0.646-0.001-2.6199 0-2.9219 0-0.145 0.332-2.5488 5.8184-2.5488 5.8184s-0.79919-5.3623-0.86719-5.8203h-2.6211zm-61.471 1.0332h1.0176 0.0078c0.048 0.002 0.46892 0.024 0.66992 0.375 0.155 0.271 0.11486 0.62574-0.11914 1.0527l-3.4902 6.3652h-1.0254c-0.049 0.001-0.4785-0.0017-0.6875-0.3457-0.159-0.263-0.12172-0.61302 0.11328-1.041l3.5137-6.4062zm52.797 0.22461h0.18359 0.82617c0.167 0.000001 0.61073 0.000266 0.80273 0.32227 0.191 0.321-0.01698 0.70894-0.08398 0.83594l-0.51758 0.96094-3.0215 1.2441 1.8105-3.3633z"/></g></svg>
