<?xml version="1.0" encoding="utf-8"?>
<!-- Generator: Adobe Illustrator 16.0.0, SVG Export Plug-In . SVG Version: 6.00 Build 0)  -->
<!DOCTYPE svg PUBLIC "-//W3C//DTD SVG 1.1//EN" "http://www.w3.org/Graphics/SVG/1.1/DTD/svg11.dtd">
<svg version="1.1" xmlns="http://www.w3.org/2000/svg" viewBox="0 0 325.469 56.067">
	<path id="reserved" fill="#FFFFFF" d="M322.385,48.828c1.407,0,2.581,1.118,2.581,2.574c0,1.447-1.174,2.576-2.581,2.576c-1.413,0-2.585-1.129-2.585-2.576C319.8,49.946,320.972,48.828,322.385,48.828 M322.385,54.479c1.72,0,3.084-1.363,3.084-3.076c0-1.715-1.364-3.078-3.084-3.078c-1.724,0-3.086,1.363-3.086,3.078C319.299,53.115,320.662,54.479,322.385,54.479 M322.915,51.558c0.465-0.013,0.925-0.269,0.925-0.946c0-0.727-0.564-0.914-1.188-0.914h-1.456v3.459h0.497v-1.599h0.646l0.888,1.599h0.567L322.915,51.558z M322.555,50.194c0.415,0,0.784,0.034,0.784,0.474c0,0.471-0.643,0.389-1.109,0.389h-0.538v-0.862H322.555z"/>
	<path id="outline" fill="#FFFFFF" d="M316.373,1.268L291.897,1.28l1.534,3.388c0,0,0.457,0.961-1.072,2.83l-23.402,29.838l14.307-36.311h-23.049l2.831,3.853c0,0-0.029-0.019-0.072-0.062c0.084,0.08,0.78,0.832,0.414,2.678c-0.052,0.115-7.28,18.621-7.28,18.621l-7.015-25.079h-21.846l2.697,3.585c0,0-0.02-0.018-0.053-0.061c0.051,0.061,1.113,1.555,0.154,4.918l-6.376,16.175c0.325-2.354,0.332-4.718-0.021-7.038c-1.712-11.146-11.057-18.46-23.23-18.609c-4.079-0.051-6.313,0.227-10.748,1.654c-4.185,1.347-8.046,3.727-8.046,3.727l3.485-4.232h-50.755l-6.762,18.844c0,0,5.76-5.311,10.17-4.51l10.064,0.179l-32.559,31.211c-0.542-0.167-0.429-0.128-0.946-0.302l17.879-45.352h-23.097l2.9,3.854c0,0,0.93,0.96,0.112,3.478c-0.463,1.162-7.532,18.989-12.094,30.49c-3.707-2.933-5.879-5.763-7.024-7.556c4.395-1.855,8.729-4.572,10.691-6.795c0.702-0.793,3.069-3.631,4.15-6.852c1.412-4.234,1.015-8.059-1.145-11.057c-2.545-3.533-7.335-5.477-13.506-5.477L68.869,1.408c0,0,2.622,3.834,2.579,3.791c0.041,0.041,1,1.02,0.191,3.528c-0.435,1.03-4.882,11.583-9.265,21.987L61.103,1.28H36.705l1.449,3.388c0,0,0.455,0.964-1.066,2.83L0,54.854h20.119l11.974-15.078h14.278l0.695,15.078l22.465-0.01l7.577-17.741c2.425,3.64,6.877,8.908,16.071,13.887c8.229,4.46,24.702,5.238,32.036,5.053c7.333-0.188,16.992-1.182,16.992-1.182l21.882-0.007l3.493-8.124c4.277,5.75,11.515,9.182,19.842,9.182c3.482,0,7.051-0.58,10.607-1.732c8.601-2.783,15.861-8.535,20.482-15.451l-2.328,5.909c-2.188,5.479-3.607,6.118-5.031,7.645c-1.371,1.474-2.487,2.277-2.487,2.277l4.572,0.032h16.186l11.257-28.238c9.174,27.044,9.823,28.52,9.823,28.52l24.85-0.019l12.026-15.078h14.272l0.684,15.078h16.388L316.373,1.268z M41.812,26.908l3.788-5.449l0.207,5.449H41.812z M91.966,16.398c-1.459,3.506-5.399,5.471-8.983,6.555l4.285-10.143c0.498-0.048,0.943-0.081,1.377-0.102c0.126-0.004,0.247-0.006,0.369-0.006c1.489,0,2.621,0.406,3.093,1.101C92.61,14.553,92.232,15.751,91.966,16.398 M163.678,37.292c0.142,0.903,0.338,1.79,0.594,2.676c-0.708,0.179-1.628,0.302-2.816,0.302l-16.134,0.006l22.866-22.143C164.463,24.104,162.696,30.859,163.678,37.292 M192.063,41.224c-1.635,0.53-3.174,0.796-4.576,0.796c-1.274,0-2.412-0.229-3.381-0.679c-2.106-0.977-3.505-3.068-3.938-5.909c-0.09-0.58-0.138-1.175-0.138-1.81c0-7.728,6.834-16.229,15.229-18.948c1.641-0.531,3.181-0.799,4.58-0.799c1.271,0,2.407,0.228,3.374,0.676c2.114,0.982,3.519,3.078,3.945,5.904C208.369,28.377,201.171,38.272,192.063,41.224M297.09,26.908l3.783-5.446l0.206,5.446H297.09z"/>
	<g id="arizona" fill="#C3002F">
		<path d="M114.152,9.295c0,0-7.729,19.49-12.424,31.32c2.674,1.998,6.077,3.979,10.388,5.648l17.005-42.875h-15.764C113.356,3.389,115.537,5.132,114.152,9.295"/>
		<path d="M295.218,3.442c0,0,1.483,2.163-1.154,5.397l-32.629,41.59L280.169,3.19h-15.767c0,0,1.84,1.481,1.057,4.949c-0.079,0.196-0.171,0.413-0.273,0.632l-7.3,18.747c-0.715,1.796-1.427,3.595-2.126,5.335l-8.378-29.652h-15.808c0,0,1.919,2.201,0.523,6.977l-13.908,35.27c-2.277,5.664-5.021,7.161-5.021,7.161h14.682l12.997-32.503c0,0,10.979,32.372,11.112,32.604l8.279-0.01l0.004-0.01h14.106l11.985-15.078h17.39l0.669,15.078h12.061l-2.174-49.247H295.218zM292.955,29.073l9.842-14.171l0.529,14.171H292.955z"/>
		<path d="M221.507,18.94c-2.048-13.35-16.178-20.134-31.548-15.165c-15.374,4.973-26.182,19.842-24.14,33.184c0.23,1.498,0.634,2.898,1.154,4.228c-0.942,0.585-2.621,1.249-5.515,1.249l-21.483,0.007l40.391-39.128h-44.546l-4.865,12.315c0,0,1.388-2.128,6.544-2.128h15.716l-35.979,34.467c0.405,0.117,0.807,0.231,1.213,0.332c12.1,3.153,17.117,3.488,19.603,3.795l6.298,0.6l18.296-0.006l4.641-10.73c4.415,9.947,16.764,14.467,30.076,10.158C212.743,47.143,223.554,32.289,221.507,18.94M192.728,43.281c-2.574,0.834-6.318,1.514-9.534,0.023c-2.784-1.289-4.619-3.965-5.161-7.533c-0.114-0.712-0.164-1.42-0.164-2.149c0-8.523,7.316-17.958,16.726-21.007c2.579-0.832,6.315-1.518,9.534-0.031c2.781,1.297,4.63,3.973,5.17,7.545C210.676,29.16,202.936,39.975,192.728,43.281"/>
		<path d="M89.923,30.357c4.89-1.693,10.171-4.863,12.145-7.091c0.976-1.106,2.872-3.577,3.719-6.108c2.682-8.045-2.376-13.682-12.589-13.682L72.873,3.574c0,0,2.179,1.746,0.797,5.912c0,0-7.658,18.164-13.035,30.935L59.001,3.442H39.936c0,0,1.484,2.166-1.146,5.396L4.388,52.689h14.68l11.983-15.078H48.44l0.675,15.078h11.363l7.631,0.043l8.654-20.346c1.667,2.643,4.872,9.892,17.445,16.699c13.057,7.074,41.903,4.916,44.094,4.496c-1.757-0.111-7.221-0.248-20.275-3.643C95.287,44.017,89.91,30.332,89.923,30.357 M37.675,29.073l9.841-14.175l0.537,14.175H37.675z M79.335,26.025l6.433-15.222c0.911-0.115,1.834-0.21,2.782-0.257c2.456-0.105,4.39,0.635,5.355,2.049c0.802,1.191,0.822,2.796,0.059,4.633C91.55,23.033,84.081,25.212,79.335,26.025"/>
	</g>
</svg>
