<svg xmlns="http://www.w3.org/2000/svg" width="296" height="89.484" viewBox="0 0 298 91.484">
 <g transform="matrix(1.3333 0 0 -1.3333 -202.04 178.34)">
  <path transform="matrix(.75 0 0 -.75 151.53 133.76)" d="m175.84 0.80469-10.334 6.1484c1.514 2.9854 4.9896 4.3203 8.1074 2.584l5.6133-3.207-3.3867-5.5254zm-163.76 10.66c-6.2716 0-10.014 3.7786-10.014 8.6523 0 3.5135 1.8528 6.46 6.7266 8.1211 4.5713 1.5499 5.4043 2.3064 5.4043 3.4395 0 0.9826-0.75739 1.6992-2.2305 1.6992-1.2458 0-2.1536-0.71689-2.3809-2.002-0.30247-1.0954-1.0572-1.5859-2.4551-1.5859h-5.5547c-0.18801 6.9894 3.2503 10.277 10.428 10.277 6.3861 0 10.088-3.2513 10.088-8.7676 0-3.7783-1.8504-6.5736-6.6113-8.3867-4.8738-1.8884-5.6289-2.5682-5.6289-3.5508 0-0.68013 0.56601-1.248 1.8887-1.248 0.75535 0 1.3987 0.11313 1.8516 0.94531 0.71775 1.2082 1.7377 1.7383 3.4004 1.7383h4.8359c0.18801-5.6667-3.7772-9.332-9.748-9.332zm111.04 0c-8.5769 0-14.85 6.0068-14.85 14.281s6.2727 14.281 14.85 14.281c8.5393 0 14.848-6.0068 14.848-14.281s-6.3084-14.281-14.848-14.281zm27.164 0c-6.2716 0-10.012 3.7786-10.012 8.6523 0 3.5135 1.8528 6.46 6.7266 8.1211 4.5713 1.5499 5.4023 2.3064 5.4023 3.4395 0 0.9826-0.75381 1.6992-2.2285 1.6992-1.2458 0-2.1536-0.71689-2.3809-2.002-0.30247-1.0954-1.0592-1.5859-2.457-1.5859h-5.5527c-0.18965 6.9894 3.2487 10.277 10.428 10.277 6.3861 0 10.088-3.2513 10.088-8.7676 0-3.7783-1.8523-6.5736-6.6133-8.3867-4.8738-1.8884-5.6289-2.5682-5.6289-3.5508 0-0.68013 0.56765-1.248 1.8887-1.248 0.75699 0 1.4006 0.11313 1.8535 0.94531 0.71774 1.2082 1.7377 1.7383 3.4004 1.7383h4.8359c0.18801-5.6667-3.7792-9.332-9.75-9.332zm51.498 0c-6.2716 0-10.014 3.7786-10.014 8.6523 0 3.5135 1.8528 6.46 6.7266 8.1211 4.5713 1.5499 5.4043 2.3064 5.4043 3.4395 0 0.9826-0.75576 1.6992-2.2305 1.6992-1.2458 0-2.1536-0.71689-2.3809-2.002-0.30246-1.0954-1.0572-1.5859-2.4551-1.5859h-5.5547c-0.18966 6.9894 3.2487 10.277 10.428 10.277 6.3861 0 10.088-3.2513 10.088-8.7676 0-3.7783-1.8504-6.5736-6.6113-8.3867-4.8738-1.8884-5.6289-2.5682-5.6289-3.5508 0-0.68013 0.56764-1.248 1.8887-1.248 0.75699 0 1.3987 0.11313 1.8516 0.94531 0.71775 1.2082 1.7377 1.7383 3.4004 1.7383h4.8359c0.18801-5.6667-3.7772-9.332-9.748-9.332zm-100.08 0.33789c-3.0606 0-3.9688 0.9084-3.9688 4.2715v14.092c0 1.7396-0.75444 2.4941-2.3027 2.4941-1.5875 0-2.4551-0.86901-2.4551-2.4941v-2.1543h-7.4453v2.6465c0 5.5163 3.7792 9.3691 9.9004 9.3691 6.2716 0 10.428-3.9657 10.428-9.3691v-18.855h-4.1562zm-68.611 0.001954-4.5723 11.9c-1.0202 2.7205 0.60325 5.2898 3.8535 5.7051v0.076172h-6.1582l-4.043 10.201h8.8027l1.1348-3.8535h8.5762l1.1328 3.8535h8.8027l-10.918-27.883h-6.6113zm19.041 0v27.883h7.3672v-14.471l6.8008 10.807c1.8131 2.871 4.2319 3.6641 7.8223 3.6641h1.4727v-27.883h-7.3672v14.508l-7.293-11.75c-1.321-2.1532-3.0595-2.7578-5.8945-2.7578h-2.9082zm110.78 0v22.367c0 3.023 2.5671 5.5156 5.8926 5.5156h12.393v-7.3691h-10.012c-0.15046 0-0.18946-0.03546-0.18946-0.1875v-2.9453h4.6856c2.7206 0 4.5332-1.5878 4.5332-4.0059v-3.1738h-9.2188v-2.834h5.4043c2.6829 0 4.4961-1.5863 4.4961-3.9668v-3.4004h-17.984zm50.023 0v7.3672h6.3457v20.516h8.125v-20.516h2.4551c2.6829 0 4.5352-1.588 4.5352-3.9668v-3.4004h-21.461zm28.072 0-4.5723 11.9c-1.0186 2.7205 0.60325 5.2898 3.8535 5.7051v0.076172h-6.1582l-4.043 10.201h8.8047l1.1328-3.8535h8.5762l1.1328 3.8535h8.8027l-10.918-27.883h-6.6113zm13.865 0v7.3672h6.3476v20.516h8.123v-20.516h2.457c2.6829 0 4.5332-1.588 4.5332-3.9668v-3.4004h-21.461zm23.652 0v22.367c0 3.023 2.5671 5.5156 5.8926 5.5156h12.393v-7.3691h-10.012c-0.15045 0-0.18945-0.03546-0.18945-0.1875v-2.9453h4.6855c2.7206 0 4.5332-1.5878 4.5332-4.0059v-3.1738h-9.2188v-2.834h5.4043c2.6829 0 4.4961-1.5863 4.4961-3.9668v-3.4004h-17.984zm-155.4 6.9902c3.8928 0 6.7637 2.8328 6.7637 6.9512s-2.8709 6.9512-6.7637 6.9512c-3.8912 0-6.7617-2.8328-6.7617-6.9512s2.8706-6.9512 6.7617-6.9512zm-86.748 2.416 2.3438 8.2754h-4.6484l2.3047-8.2754zm207.91 0 2.3438 8.2754h-4.6484l2.3047-8.2754zm-226.65 23.275c-10.043 0-16.033 6.0522-16.033 13.857 0 5.6275 2.9646 10.344 10.771 13.008 7.3196 2.4802 8.6523 3.6911 8.6523 5.5059 0 1.5744-1.213 2.7227-3.5723 2.7227-1.9963 0-3.4476-1.1486-3.8105-3.207-0.48395-1.7543-1.6954-2.541-3.9336-2.541h-8.8945c-0.30247 11.193 5.204 16.457 16.699 16.457 10.225 0 16.156-5.2035 16.156-14.037 0-6.0509-2.9642-10.528-10.588-13.432-7.8052-3.0263-9.0156-4.1147-9.0156-5.6875 0-1.0889 0.90814-1.998 3.0254-1.998 1.2099 0 2.2373 0.18283 2.9648 1.5137 1.1494 1.9358 2.7836 2.7832 5.4453 2.7832h7.7441c0.30247-9.0756-6.0518-14.945-15.611-14.945zm263.13 0c-10.043 0-16.033 6.0522-16.033 13.857 0 5.6275 2.9627 10.344 10.77 13.008 7.3213 2.4802 8.6524 3.6911 8.6524 5.5059 0 1.5744-1.2111 2.7227-3.5703 2.7227-1.9962 0-3.4476-1.1486-3.8105-3.207-0.48395-1.7543-1.6937-2.541-3.9336-2.541h-8.8945c-0.30246 11.193 5.204 16.457 16.699 16.457 10.225 0 16.154-5.2035 16.154-14.037 0-6.0509-2.9642-10.528-10.588-13.432-7.8052-3.0263-9.0156-4.1147-9.0156-5.6875 0-1.0889 0.90814-1.998 3.0254-1.998 1.2099 0 2.2389 0.18283 2.9648 1.5137 1.151 1.9358 2.7836 2.7832 5.4453 2.7832h7.7441c0.30247-9.0756-6.0499-14.945-15.609-14.945zm-243.96 0.54492v1.0879c0 5.9904 3.8133 10.287 10.893 10.227v0.12109h-10.893v33.217h12.949v-13.432h3.2676c6.8978 0 10.043-1.0283 13.674-4.2949 2.5407-2.3609 4.2363-7.139 4.2363-11.557 0-4.6579-1.7567-9.0163-4.9023-11.92-2.9053-2.5423-6.4741-3.4492-14.279-3.4492h-14.945zm45.379 0-7.3223 19.061c-1.6333 4.3555 0.96786 8.4693 6.1719 9.1348v0.12109h-9.8633l-6.4727 16.336h14.1l1.8145-6.1719h13.732l1.8164 6.1719h14.098l-17.486-44.652h-10.588zm30.494 0v1.0898c0 5.9904 3.8113 10.287 10.891 10.227v0.12109h-10.891v33.217h12.947v-33.277h3.3906c1.1494 0 2.54 0.42247 3.5684 1.0879 1.2099 0.8469 2.1777 2.6017 2.1777 4.5996 0 2.1777-0.96772 4.1139-1.9961 4.8398-1.3308 0.8469-2.36 1.0879-4.9023 1.0879h-0.36328c-1.3914 0-2.2981 1.2104-1.5117 2.7832l9.3184 18.879h13.25l-8.4102-16.096c2.1173-1.0284 4.4779-2.8443 5.9902-5.6875 0.48393-1.9358 1.0898-4.2333 1.0898-7.0781 0-4.5975-1.4529-9.1981-5.2051-12.283-2.2987-2.0584-6.5934-3.5098-14.279-3.5098h-15.064zm79.02 0-7.3203 19.061c-1.6333 4.3555 0.96786 8.4693 6.1719 9.1348v0.12109h-9.8633l-6.4746 16.336h14.098l1.8164-6.1719h13.732l1.8164 6.1719h14.098l-17.486-44.652h-10.588zm30.494 0v44.654h11.797v-23.174l10.893 17.305c2.9036 4.5991 6.7766 5.8691 12.523 5.8691h2.3613v-44.654h-11.799v23.234l-11.678-18.816c-2.1189-3.4497-4.9005-4.418-9.4375-4.418h-4.6602zm-74.238 0.001953v11.797h10.164v32.854h13.01v-32.854h3.9316c4.2966 0 7.2598-2.5408 7.2598-6.3535v-5.4434h-34.365zm-98.199 11.373h2.7227c1.8148 0 2.661 0.12136 3.6289 0.42383 1.7559 0.60493 2.4824 1.7541 2.4824 3.752 0 1.9358-0.72601 3.3286-2.2988 3.873-0.96952 0.30246-1.8161 0.36133-3.6309 0.36133h-2.9043v-8.4102zm37.693 3.6914 3.752 13.25h-7.4434l3.6914-13.25zm109.52 0 3.75 13.25h-7.4434l3.6934-13.25z" fill="#0038a8"/>
 </g>
</svg>
