<?xml version="1.0" encoding="UTF-8" standalone="no"?>
<svg xmlns:rdf="http://www.w3.org/1999/02/22-rdf-syntax-ns#" xmlns="http://www.w3.org/2000/svg" xml:space="preserve" height="32.046" viewBox="0 0 145.0695 32.046188" width="145.07" version="1.1" xmlns:cc="http://creativecommons.org/ns#" xmlns:dc="http://purl.org/dc/elements/1.1/"><g transform="matrix(0 1.25 1.25 0 -1088.8 -363.4)"><g><path d="m61.014 0.90625l-8.289 0.00195h-0.252l-0.209 0.1426-5.657 3.916-0.259 0.1777-0.071 0.3067-4.707 20.6-0.099 0.435 0.312 0.315 3.871 3.906 0.237 0.24h0.338l8.289-0.002h0.253l0.209-0.144 5.631-3.906 0.258-0.178 4.779-20.906 0.098-0.4321-0.31-0.3164-3.844-3.9141-0.238-0.24215h-0.34zm79.636 0.26175l-8.32 0.0019h-1.44-2.22l1.71 1.4219 0.63 0.5215-10.11 25.303-1.53 1.057-2.14 1.465h2.59 1.25 6.48l0.57-0.002 0.19-0.534 1.69-4.728h4.05l-0.38 4.205-0.02 0.18-0.08 0.877h0.88 6.71 0.76l0.04-0.752 1.79-28.162 0.05-0.854h-3.15zm-21.09 0.0019l-0.34 0.002h-14.39-2.17v0.0019h-0.97-9.483l-2.172 0.002 1.651 1.4121 0.824 0.7051-5.789 25.176-1.414 1.019-1.381 0.994-1.744-1.8 2.3-9.903 0.112-0.49-0.389-0.316-2.551-2.065 3.272-2.191 0.265-0.178 0.071-0.31 1.679-7.352 0.1-0.4278-0.309-0.3125-3.644-3.7168-0.234-0.2422h-0.338l-14.061 0.002h-2.178l1.657 1.4141 0.812 0.6953-5.799 25.17-1.404 1.037-1.965 1.449h2.442l8.039-0.002h0.638l2.637-11.541h2.736l-2.416 10.559-0.224 0.982h1.008l8.039-0.002h0.812l-0.002 0.002h1.086 1.402l9.479-0.002h1.934l-0.002-0.002h1.209 14.395 0.25l0.21-0.146 5.55-3.877 0.25-0.178 0.07-0.3 4.67-20.409 0.09-0.4255-0.3-0.3144-3.78-3.875-0.24-0.2442zm-92.894 0.0117l-16.939 0.0039h-2.1743l2.4723 2.1153-5.7301 25.172-1.4629 1.017-2.1035 1.463h2.5625l9.484-0.002h1.946l-1.379-1.373-0.883-0.879 2.324-10.027 3.703-0.002 0.682 0.764 1.035 1.154 2.029-8.877 0.485-2.1133-1.744 1.2893-1.18 0.871h-3.426l0.824-3.6076h6.735l0.681 0.7617 1.036 1.1559 1.806-7.9039 0.153-0.6641 1.279 1.0957 0.826 0.707-5.787 25.16-1.422 1.033-2.004 1.455 2.475-0.002 15.939-0.002h0.641l1.357-5.935 0.235-1.03 0.482-2.111-1.742 1.287-1.18 0.871-5.455 0.002 4.69-20.519 1.371-0.8421 2.416-1.4883h-2.838l-9.481 0.002h-1.73v-0.002h-1.008zm76.774 0.6622l0.86 0.7421 0.83 0.709-5.749 25.166-1.447 1.019-1.295 0.911-1.694-1.702 5.795-25.181 1.37-0.8478 1.33-0.8164zm-47.522 4.6542l1.021 0.9082-3.851 16.846-1.793 1.131-1.02-0.906 3.854-16.852 1.789-1.127zm58.252 0.1094l1.01 0.8965-3.84 16.785-1.78 1.117-1-0.896 3.83-16.785 1.78-1.1176zm-35.529 1.5371l-1.002 4.3865h-2.733l1.002-4.3845 2.733-0.002zm56.779 2.8165l-0.29 3.033-0.46 4.715h-2.09l2.84-7.748z" transform="matrix(0 .8 .8 0 290.72 871.05)" fill="#fa4616"/><path d="m61.014 1.7168l-8.289 0.002-5.659 3.914-4.707 20.597 3.87 3.907 8.289-0.002 5.632-3.906 4.707-20.598-3.843-3.9142zm69.876 0.2559l1.08 0.8945-10.39 26.028-0.02 0.044-1.74 1.196h1.25l6.48-0.002 1.83-5.096 0.05-0.168h3.92 1.59l-0.47 5.084-0.02 0.18h6.71l1.64-25.953 0.14-2.2073h-2.29-8.32-1.44zm-11.67 0.0019l-14.39 0.002 1.2 1.0234v0.0059l-5.93 25.935-1.705 1.196 14.395-0.002 5.55-3.875 4.66-20.41-3.78-3.8754zm-17.53 0.002l-9.483 0.0019 1.195 1.0215-5.966 25.943-1.661 1.196h9.479l-1.192-1.196 5.968-25.943 1.66-1.0234zm-33.235 0.0058l1.184 1.0098-5.977 25.936-1.642 1.213h8.039l2.636-11.543h4.381l-2.638 11.543 8.039-0.002-1.176-1.213 2.398-10.33-3.396-2.75 4.176-2.797 1.681-7.3517-3.644-3.7149h-14.061zm-41.789 0.0039l-16.939 0.002 1.191 1.0176-5.9102 25.947-1.7168 1.195 9.484-0.002-1.199-1.193 2.57-11.086h4.698l0.922 1.029 1.683-7.365-1.392 1.03-4.698 0.001 1.192-5.2143 7.734-0.002 0.922 1.0293 1.459-6.3887zm2.738 0l1.194 1.0235-5.961 25.928-1.668 1.208 15.939-0.001 1.449-6.34-1.392 1.027-6.727 0.002 4.991-21.83 1.656-1.0177h-9.481zm26.598 3.502l1.83 1.6289v0.0098h0.004l-4.035 17.652h-0.002-0.028l-2.56 1.614-1.811-1.614h-0.025l4.035-17.65 0.004-0.0118 2.588-1.6289zm58.248 0.1172l1.81 1.6152-4.02 17.601h-0.04l-2.52 1.584-1.77-1.582h-0.05l0.01-0.031 4.02-17.572 2.56-1.6155zm21.68 1.6289h0.66l-0.67 6.8376-0.52 5.44h-0.72-3.25l4.5-12.278zm-60.662 0.1074h4.38l-1.369 5.9922h-4.381l1.37-5.9922z" transform="matrix(0 .8 .8 0 290.72 871.05)" fill="#003087"/></g></g></svg>
