<?xml version="1.0" encoding="UTF-8" standalone="no"?>
<!-- Created with Inkscape (http://www.inkscape.org/) -->

<svg
   version="1.1"
   id="svg2"
   width="287.99893"
   height="44.327999"
   viewBox="0 0 287.99893 44.327999"
   xmlns="http://www.w3.org/2000/svg"
   xmlns:svg="http://www.w3.org/2000/svg">
  <defs
     id="defs6" />
  <g
     id="g9396"
     transform="matrix(1.3333333,0,0,-1.3333333,-958.91171,205.20066)">
    <path
       d="m 923.479,153.4623 v -15.953 l -13.131,15.953 h -12.97 v -32.37 h 12 v 16.085 l 13.168,-16.085 h 12.637 v 32.37 z"
       style="fill:#c7b784;fill-opacity:1;fill-rule:nonzero;stroke:none"
       id="path1030"
       clip-path="none" />
    <path
       d="m 806.8738,153.4623 h -15.232 l -10.603,-11.287 v 11.287 h -12.591 v -32.37 h 12.591 v 11.287 l 10.603,-11.287 h 15.232 l -15.205,16.185 z"
       style="fill:#c7b784;fill-opacity:1;fill-rule:nonzero;stroke:none"
       id="path1034"
       clip-path="none" />
    <path
       d="m 880.3774,137.2775 c 0,-4.974 -2.813,-7.497 -8.359,-7.497 -5.547,0 -8.36,2.523 -8.36,7.497 0,4.974 2.813,7.497 8.36,7.497 5.546,0 8.359,-2.523 8.359,-7.497 m -8.294,16.623 c -14.321,0 -20.707,-5.127 -20.707,-16.623 0,-11.496 6.386,-16.623 20.707,-16.623 14.322,0 20.708,5.127 20.708,16.623 0,11.496 -6.386,16.623 -20.708,16.623"
       style="fill:#c7b784;fill-opacity:1;fill-rule:nonzero;stroke:none"
       id="path1038"
       clip-path="none" />
    <path
       d="m 835.0482,142.2755 c 0,-1.404 -0.959,-2.547 -2.137,-2.547 h -10.371 v 5.094 h 10.371 c 1.178,0 2.137,-1.143 2.137,-2.547 m 5.733,-10.569 c 3.754,1.422 6.438,5.814 6.438,10.857 0,6.01 -4.339,10.899 -9.672,10.899 h -27.303 v -32.37 h 12.296 v 9.996 h 3.537 l 9.37,-9.996 h 15.276 z"
       style="fill:#c7b784;fill-opacity:1;fill-rule:nonzero;stroke:none"
       id="path1042"
       clip-path="none" />
    <path
       d="m 746.1888,134.7579 h -6.893 l 3.394,6.865 z m 3.033,18.704 h -12.759 l -17.279,-32.369 h 13.355 l 2.478,5.013 h 15.582 l 2.554,-5.013 h 13.349 z"
       style="fill:#c7b784;fill-opacity:1;fill-rule:nonzero;stroke:none"
       id="path1046"
       clip-path="none" />
    <path
       d="m 909.7002,152.09 h -10.95 v -29.625 h 9.255 v 18.555 l 15.191,-18.555 h 10.615 v 29.625 h -8.96 v -18.408 z"
       style="fill:#011e41;fill-opacity:1;fill-rule:nonzero;stroke:none"
       id="path1050"
       clip-path="none" />
    <path
       d="m 803.7018,152.09 h -11.466 l -12.569,-13.379 v 13.379 h -9.847 v -29.625 h 9.847 v 13.379 l 12.569,-13.379 h 11.466 l -13.916,14.812 z"
       style="fill:#011e41;fill-opacity:1;fill-rule:nonzero;stroke:none"
       id="path1054"
       clip-path="none" />
    <path
       d="m 872.0179,128.4084 c -6.367,0 -9.732,3.067 -9.732,8.869 0,5.802 3.365,8.869 9.732,8.869 6.367,0 9.732,-3.067 9.732,-8.869 0,-5.802 -3.365,-8.869 -9.732,-8.869 m 0.066,24.12 c -13.553,0 -19.336,-4.561 -19.336,-15.251 0,-10.69 5.783,-15.25 19.336,-15.25 13.553,0 19.335,4.56 19.335,15.25 0,10.69 -5.782,15.251 -19.335,15.251"
       style="fill:#011e41;fill-opacity:1;fill-rule:nonzero;stroke:none"
       id="path1058"
       clip-path="none" />
    <path
       d="m 832.9113,138.3562 h -11.743 v 7.839 h 11.743 c 1.935,0 3.509,-1.758 3.509,-3.92 0,-2.161 -1.574,-3.919 -3.509,-3.919 m 6.245,-5.677 c 3.815,0.647 6.691,4.897 6.691,9.885 0,5.252 -3.723,9.526 -8.3,9.526 h -25.93 v -29.625 h 9.551 v 9.996 h 5.503 l 9.37,-9.996 h 11.516 l -9.408,10.043 z"
       style="fill:#011e41;fill-opacity:1;fill-rule:nonzero;stroke:none"
       id="path1062"
       clip-path="none" />
    <path
       d="m 737.0859,133.3856 5.585,11.296 5.757,-11.296 z m 0.2,18.704 -15.814,-29.625 h 10.214 l 2.479,5.013 h 17.274 l 2.555,-5.013 h 10.22 l -15.815,29.625 z"
       style="fill:#011e41;fill-opacity:1;fill-rule:nonzero;stroke:none"
       id="path1066"
       clip-path="none" />
  </g>
</svg>
