<?xml version="1.0" encoding="UTF-8" standalone="no"?>
<svg xmlns:rdf="http://www.w3.org/1999/02/22-rdf-syntax-ns#" xmlns="http://www.w3.org/2000/svg" xml:space="preserve" viewBox="-138 284.7 84.099995 55.482108" height="55.482" width="84.1" version="1.1" y="0px" x="0px" xmlns:cc="http://creativecommons.org/ns#" xmlns:xlink="http://www.w3.org/1999/xlink" xmlns:dc="http://purl.org/dc/elements/1.1/"><defs><clipPath id="v"><use xlink:href="#bg" height="100%" width="100%" y="0" x="0"/></clipPath><clipPath id="k"><use xlink:href="#av" height="100%" width="100%" y="0" x="0"/></clipPath><clipPath id="e"><use xlink:href="#an" height="100%" width="100%" y="0" x="0"/></clipPath><clipPath id="a"><use xlink:href="#ah" height="100%" width="100%" y="0" x="0"/></clipPath><clipPath id="af"><use xlink:href="#ag" height="100%" width="100%" y="0" x="0"/></clipPath><clipPath id="ae"><use xlink:href="#bl" height="100%" width="100%" y="0" x="0"/></clipPath><clipPath id="ad"><use xlink:href="#bk" height="100%" width="100%" y="0" x="0"/></clipPath><clipPath id="ac"><use xlink:href="#bj" height="100%" width="100%" y="0" x="0"/></clipPath><clipPath id="ab"><use xlink:href="#bi" height="100%" width="100%" y="0" x="0"/></clipPath><clipPath id="aa"><use xlink:href="#bh" height="100%" width="100%" y="0" x="0"/></clipPath><clipPath id="z"><use xlink:href="#bf" height="100%" width="100%" y="0" x="0"/></clipPath><clipPath id="y"><use xlink:href="#be" height="100%" width="100%" y="0" x="0"/></clipPath><clipPath id="x"><use xlink:href="#bd" height="100%" width="100%" y="0" x="0"/></clipPath><clipPath id="w"><use xlink:href="#bc" height="100%" width="100%" y="0" x="0"/></clipPath><clipPath id="u"><use xlink:href="#bb" height="100%" width="100%" y="0" x="0"/></clipPath><clipPath id="t"><use xlink:href="#ba" height="100%" width="100%" y="0" x="0"/></clipPath><clipPath id="s"><use xlink:href="#az" height="100%" width="100%" y="0" x="0"/></clipPath><clipPath id="r"><use xlink:href="#ay" height="100%" width="100%" y="0" x="0"/></clipPath><clipPath id="q"><use xlink:href="#ax" height="100%" width="100%" y="0" x="0"/></clipPath><clipPath id="p"><use xlink:href="#aw" height="100%" width="100%" y="0" x="0"/></clipPath><clipPath id="o"><use xlink:href="#au" height="100%" width="100%" y="0" x="0"/></clipPath><clipPath id="n"><use xlink:href="#at" height="100%" width="100%" y="0" x="0"/></clipPath><clipPath id="m"><use xlink:href="#as" height="100%" width="100%" y="0" x="0"/></clipPath><clipPath id="b"><use xlink:href="#ai" height="100%" width="100%" y="0" x="0"/></clipPath><clipPath id="c"><use xlink:href="#aj" height="100%" width="100%" y="0" x="0"/></clipPath><clipPath id="d"><use xlink:href="#ak" height="100%" width="100%" y="0" x="0"/></clipPath><clipPath id="f"><use xlink:href="#al" height="100%" width="100%" y="0" x="0"/></clipPath><clipPath id="g"><use xlink:href="#am" height="100%" width="100%" y="0" x="0"/></clipPath><clipPath id="h"><use xlink:href="#ao" height="100%" width="100%" y="0" x="0"/></clipPath><clipPath id="i"><use xlink:href="#ap" height="100%" width="100%" y="0" x="0"/></clipPath><clipPath id="j"><use xlink:href="#aq" height="100%" width="100%" y="0" x="0"/></clipPath><clipPath id="l"><use xlink:href="#ar" height="100%" width="100%" y="0" x="0"/></clipPath><rect id="bg" y="288.4" x="-133.4" height="218.2" width="328.5"/><rect id="av" y="288.4" x="-144.2" height="218.2" width="350.1"/><rect id="an" y="288.4" x="-133.4" height="218.2" width="328.5"/><rect id="ah" y="288.4" x="-133.4" height="218.2" width="328.5"/><rect id="ag" y="288.4" x="-144.2" height="218.2" width="350.1"/><rect id="bl" y="288.4" x="-144.2" height="218.2" width="350.1"/><rect id="bk" y="288.4" x="-144.2" height="218.2" width="350.1"/><rect id="bj" y="288.4" x="-144.2" height="218.2" width="350.1"/><rect id="bi" y="288.4" x="-144.2" height="218.2" width="350.1"/><rect id="bh" y="288.4" x="-144.2" height="218.2" width="350.1"/><rect id="bf" y="288.4" x="-144.2" height="218.2" width="350.1"/><rect id="be" y="288.4" x="-144.2" height="218.2" width="350.1"/><rect id="bd" y="288.4" x="-144.2" height="218.2" width="350.1"/><rect id="bc" y="288.4" x="-144.2" height="218.2" width="350.1"/><rect id="bb" y="288.4" x="-144.2" height="218.2" width="350.1"/><rect id="ba" y="288.4" x="-144.2" height="218.2" width="350.1"/><rect id="az" y="288.4" x="-144.2" height="218.2" width="350.1"/><rect id="ay" y="288.4" x="-144.2" height="218.2" width="350.1"/><rect id="ax" y="288.4" x="-144.2" height="218.2" width="350.1"/><rect id="aw" y="288.4" x="-144.2" height="218.2" width="350.1"/><rect id="au" y="288.4" x="-144.2" height="218.2" width="350.1"/><rect id="at" y="288.4" x="-144.2" height="218.2" width="350.1"/><rect id="as" y="288.4" x="-144.2" height="218.2" width="350.1"/><rect id="ai" y="288.4" x="-144.2" height="218.2" width="350.1"/><rect id="aj" y="288.4" x="-144.2" height="218.2" width="350.1"/><rect id="ak" y="288.4" x="-144.2" height="218.2" width="350.1"/><rect id="al" y="288.4" x="-144.2" height="218.2" width="350.1"/><rect id="am" y="288.4" x="-144.2" height="218.2" width="350.1"/><rect id="ao" y="288.4" x="-144.2" height="218.2" width="350.1"/><rect id="ap" y="288.4" x="-144.2" height="218.2" width="350.1"/><rect id="aq" y="288.4" x="-144.2" height="218.2" width="350.1"/><rect id="ar" y="288.4" x="-144.2" height="218.2" width="350.1"/></defs><style type="text/css">
	.st0{clip-path:url(#v);fill:#FFFFFF;}
	.st1{clip-path:url(#k);fill:#FFFFFF;}
	.st2{clip-path:url(#e);fill:#EEB210;}
	.st3{clip-path:url(#a);fill:#EEB210;}
	.st4{clip-path:url(#af);fill:#003876;}
	.st5{clip-path:url(#ae);fill:#EEB210;}
	.st6{clip-path:url(#ad);fill:#EEB210;}
	.st7{clip-path:url(#ac);fill:#4D4D4C;}
	.st8{clip-path:url(#ab);fill:#FFFFFF;}
	.st9{clip-path:url(#aa);fill:#EEB210;}
	.st10{clip-path:url(#z);fill:#EEB210;}
	.st11{clip-path:url(#y);fill:#EEB210;}
	.st12{clip-path:url(#x);fill:#003876;}
	.st13{clip-path:url(#w);fill:#EEB210;}
	.st14{clip-path:url(#u);fill:#003876;}
	.st15{clip-path:url(#t);fill:#EEB210;}
	.st16{clip-path:url(#s);fill:#003876;}
	.st17{clip-path:url(#r);fill:#4D4D4C;}
	.st18{clip-path:url(#q);fill:#003876;}
	.st19{clip-path:url(#p);fill:#003876;}
	.st20{clip-path:url(#o);fill:#FFFFFF;}
	.st21{clip-path:url(#n);fill:#EEB210;}
	.st22{clip-path:url(#m);fill:#003876;}
	.st23{clip-path:url(#l);fill:#003876;}
	.st24{clip-path:url(#SVGID_50_);fill:none;stroke:#EEB210;stroke-miterlimit:3.864;}
	.st25{clip-path:url(#j);fill:#003876;}
	.st26{clip-path:url(#SVGID_54_);fill:none;stroke:#EEB210;stroke-miterlimit:3.864;}
	.st27{clip-path:url(#i);fill:#003876;}
	.st28{clip-path:url(#SVGID_58_);fill:none;stroke:#EEB210;stroke-miterlimit:3.864;}
	.st29{clip-path:url(#h);fill:#003876;}
	.st30{clip-path:url(#SVGID_62_);fill:none;stroke:#EEB210;stroke-miterlimit:3.864;}
	.st31{clip-path:url(#g);fill:#003876;}
	.st32{clip-path:url(#SVGID_66_);fill:none;stroke:#EEB210;stroke-miterlimit:3.864;}
	.st33{clip-path:url(#f);fill:#003876;}
	.st34{clip-path:url(#SVGID_70_);fill:none;stroke:#EEB210;stroke-miterlimit:3.864;}
	.st35{clip-path:url(#d);fill:#003876;}
	.st36{clip-path:url(#SVGID_74_);fill:none;stroke:#EEB210;stroke-miterlimit:3.864;}
	.st37{clip-path:url(#c);fill:#003876;}
	.st38{clip-path:url(#SVGID_78_);fill:none;stroke:#EEB210;stroke-miterlimit:3.864;}
	.st39{clip-path:url(#b);fill:#003876;}
</style><g style="" transform="translate(-.10565 -.36608)"><path d="m-0.8 294.9c-36.8-0.2-71.8 9.1-95.8 31.5-0.1-1.5-1.2-11.7-1.2-11.7l-10 12.6-1.8 2.3c-8.4 10.6-17.6 23.7-21.1 40.4-0.9 4.4-1.4 8.6-1.4 12.8 0 7.9 1.7 16 5.2 25-2.9-0.6-6.4-1.3-6.4-1.3l4.7 9c14.3 27.5 39.5 47.3 73.3 58.6 13.6 4.5 21.2 5.1 25.5 5.6-26.1-9.5-43.7-28.2-54.8-45.8 2.3 0.5 4.5 0.9 4.5 0.9l-3.3-8.3c-2.8-7-4.1-16.1-4.1-23.5 0-3.8 0.3-7.1 1-9.4 3.5-11.4 31.8-24 48.6-21.8-1.5 0.2-5.2 0.9-5.2 0.9s14.6 0.6 26.9 3.7 27.3 7.4 40.4 13.2c5.8 2.6 23.2 11.3 36 20l-2.2-3.8s1 0.2 3.8 2.1c4.3 2.9 8.7 8.4 9 9.4 0 0.7-0.5 0.9-3.6 1.6-4.1 0.9-8.5 1.6-8.5 1.6s4.2 4.2 10.6 6.3 10.6 2.3 14.6 1.9c3.5 5.2 10 11 21.8 14.1 17.8 4.7 32.8 0.6 43.5-3.9 2.3 4.8 3.5 9.3 3.5 13.1 0 1.2-0.1 2.4-0.4 3.5-1 3.9-8.2 10.1-13 11.9s-6.1 2.3-7.6 2.8c1.8 1.5 6.3 3.7 8.3 4.4 2.7 1 6 1.6 7.8 1.9 8.2 1.4 16.5 0.7 23.7-1.6 9.3-3 16.1-8.9 19.8-16.9 2.8-6.2 3.9-12.2 3.9-17.9 0-14.6-7.3-26.7-11.1-32 2.1-2.1 3.3-4.8 3.4-7.8v-0.4c0-8.3-7.8-17.7-15.7-23.4-2.2-9.3-7.8-18.6-17.5-28.9-4.6-4.9-10.2-9.6-16.1-14.7-5.4-4.6-23.2-16.9-28-23.5 0 0 3.3 7.3 4.3 9.5-12-8.1-31.6-17.8-43.7-22.6l-16.5-6.5s4.1 5.2 7.3 9.4c-13.6-4.3-29-7.6-34.8-8.3h0.2c-12.2-1.8-31.1-2.8-37-2.3 1.2 0.9 5 3.5 9.2 6.3" clip-path="url(#v)" class="st0" transform="matrix(.25 0 0 .25 -103.48 213.39)" fill="#fff"/><path d="m-58.2 474.8c-34.2-13.1-57.3-34.4-70.2-59.2h0.2c0-0.1-0.1-0.1-0.1-0.2l-4.2-0.8c13 24.7 36.1 46 70 59.1 7.2 2.8 12.7 4.4 17.4 5.6-3.8-1.1-8-2.5-13.1-4.5" clip-path="url(#k)" class="st1" transform="matrix(.25 0 0 .25 -103.48 213.39)" fill="#fff"/><g><path d="m-84.3 378.8c1.8-1.3 3.8-2.5 6.2-3.7l1.4-2.1c-3 1.2-5.5 3.3-7.6 5.8" clip-path="url(#e)" class="st2" transform="matrix(.25 0 0 .25 -103.48 213.39)" fill="#efab00"/><path d="m-119.1 418.2c-7.6-16-10.4-28.7-7.2-43.5 3.6-16.7 13.1-29.5 20.2-38.5l-0.5-6.1c-6.7 8.7-19.8 23.4-24 43.7-3.1 14.7-0.3 27.4 7.4 43.4l-5.6-1.1c13 24.8 36.1 46.1 70.2 59.2 7.2 2.8 12.7 4.5 17.4 5.6-3.7-1.1-8-2.5-13.1-4.5-34.2-13.1-57.4-34.5-70.4-59.4l5.6 1.2z" clip-path="url(#a)" class="st3" transform="matrix(.25 0 0 .25 -103.48 213.39)" fill="#efab00"/><path d="m-88 428.5c-4.4-11.4-5.4-27.9-3.1-35.9 1.4-4.9 3.7-9.9 6.9-13.8 2.1-2.6 5.2-5 7.9-6.4l-1.7 2.7-5.6 8c8.8-8.3 32.8-18 58.5-16.3 2.2 0.1 4.4 0.4 6.6 0.7l-10.2 2.3-2.5 0.5c2.5-0.2 6.6 0.2 11.6 1.1 11.4 2 33 8.3 46.2 14.1 7.4 3.2 17.9 8.1 30.4 16.5-1.3-2.5-2.5-5-3.9-7.3 6.5 4.9 14.4 11.3 16.3 13.3 4.4 4.7 8.3 9.2 8.1 12-0.2 2.7-6 2.5-6.2 2.8 7.3 2.3 13.2 2.3 15.5 0.8-3.3-3.7-4.5-7.6-5.1-12.8-2.3-3.2-16.1-21.3-50.5-32 0 0 2.8 2 6.8 4.9-6.2-2.9-13.6-6-20.7-8.5-5.6-1.9-19.7-5.9-28.1-7.7l9.2-2.3c-16.5-8-51.3-5.2-67.1 2.6l6.9-9.1c-20.3 4.2-30.4 18-33.9 27.2-3.8 10.1-4.4 24.9-0.1 38.6l-6.1-1.3c0.6 1.7 1.3 3.4 2.1 5.1 4.5 9.7 11.5 18.4 20.8 27.4-11.3-6.8-22-17.1-30.1-27.4-2.9-3.7-5.4-7.3-7.5-10.8l5.4 1.1c-8.4-15.4-12.5-27.4-8.3-43.9 0-0.1 0.2-0.7 0.2-0.8 2.2-8.4 9-20.5 14.6-27.8l1.7 10.3c35.9-44.2 80.9-54 134.7-44.6-1.1-1.3-3.7-5.7-6.9-8.6 22.3 0.1 56 16.1 62.2 19.6l-4.9-7.9c16.7 7.4 33.9 16.9 44.8 26.6-0.6-1.6-1.6-5.2-2-6.2 1.9 1.5 15.9 13.5 23.6 20.6 12 11.2 17.3 23.6 19.9 31.4 0.2-0.1-0.4-4.1-0.4-4.9 6.4 6.6 13.4 15.8 9.1 23.3l-0.6 0.9-3.8-2.2 1 1.4c1.1 1.6 7.3 10.8 10 22.6 1.9 8.1 2.2 17.5-1.9 26.4-3.8 8.3-12.2 13.4-21 15.1-4.5 0.9-10.1 1.3-13.4 0.8 1.1 0.2 10-3.9 13.7-10.9 2.7-5.2 2.1-13.6-0.2-19.6-1.3-3.5-3-7.2-5-10.3-0.7-1.1-1-1.5-1-1.5-10.7-15.8-28.1-23.5-36.5-25.6-11.1-2.7-19.6 0.7-21.8 8 0 0-0.3 1.9-0.2 2.7 0-0.1 0.1-0.1 0.2-0.2 0.9-0.2 2-0.3 3.2-0.3 2.4 0 5.2 0.2 7.4 0.5 3.5 0.4 10.2 1.6 13.3 2.2-2.8-1.5-10.9-3.8-14-4.1-0.5 0-0.9-0.1-1.4-0.1-1.9-0.2-3.6-0.3-5-0.1 0.2-0.1 0.3-0.1 0.3-0.1l0.9-1.1c3.6-3.9 10.4-4.1 16.2-2.7 6.7 1.7 18.8 6.9 28 16.8-5.3 2.2-18.3 6-32.8 1.3-12.3-4-13-11.5-13-11.9 0 0.4-3 9.8 10.8 14.8 0 0 0.3 0.1 1.1 0.4 13.1 4.4 23.4 1.9 29.5-0.4 1.9-0.7 3.4-1.4 4.4-1.9l1.4-0.7c0.7 0.8 1.4 1.7 2 2.6 0 0 0.4 0.5 1.3 1.8-9.4 4.2-24 8.5-41.8 3.9-5.4-1.4-9.6-3.5-12.9-5.7-8.1-5.5-10.4-12-10.5-12.3l0.1 1.8c0 0.3 0.4 5.3 4.8 10.5 3.2 3.9 8.6 7.9 17.6 10.2 19 5 34.7-0.9 44.6-5.4 4 7 7.5 16.3 5.6 24-1.2 4.9-7 10.4-13.6 13.7 0.9 0.4 3.3 1 5 1.3 13.2 2.2 31.6-0.5 38.5-15.7 4.6-10 4-19.9 1.6-28.2-2.3-7.9-6.3-14.4-9.2-18.2 0-1.2-0.5-3.7-0.3-3.9 8.8-5.1 0-18.9-11.6-26.7-1.6-8.8-6.7-17.9-16.8-28.6-8.6-9.1-20.6-17.6-33.9-30.4 0.4 1.3 2.6 8.4 2.5 8.3-6.8-6.9-34.9-21.8-50.7-28.1 1.3 1.7 4.3 5.8 6.5 9-13.1-6.8-40.3-13-49.5-14.2-6.2-1.1-12.5-1.2-19.2-1.5 2.7 1.8 6.5 4.8 8.7 6.6-47.1-5.3-90.9 11.2-116.2 40l-0.5-5.3-0.7-7.9c-1.2 1.6-2.7 3.3-4.2 5.3-7.1 9-16.6 21.9-20.2 38.6-3.2 14.8-0.4 27.5 7.2 43.5l-5.6-1.1c2.6 5.1 5.7 10 9.2 14.8 13.7 18.5 33.9 34.2 61.1 44.6 5.1 2 9.4 3.4 13.1 4.5 4.3 1.2 7.9 2 11.3 2.7-33.9-12.3-53.9-30.8-63.7-51.7-0.2-0.3-0.3-0.7-0.5-1l4.9 1m0.1-0.2 1 0.2c0-0.1-0.1-0.1-0.1-0.2" clip-path="url(#af)" class="st4" transform="matrix(.25 0 0 .25 -103.48 213.39)" fill="#003976"/><path d="m171.1 407.2c-2.5 1.2-4.9 1.2-6.6 1-4.6 0.5-8.6-1-8.8-1.1 0 0 2 0.1 4.7-0.4-3.3-0.2-6.5-1.3-9.5-3.1-1.5 0-2.8 0.1-4.1-0.1 4.4 3.7 7.7 7 9.8 9.9 5.6 6.7 10 13.3 10 13.3s-6-6.7-9.1-9.8c-5.5-5.5-13.4-11-20.9-15.5-14.2-7.3-18.9-9.3-29.2-9.5-10.5-0.2-19.8 5.7-22.5 12.4-1 4-0.5 9 1.5 13.6l-0.1-1.7c0.1 0.5 3.4 13 22.1 17.9 17.8 4.6 32.4 0.3 41.8-3.9-1-1.6-2.1-3-3.3-4.4l-1.4 0.7c-4.3 2.1-16.6 7.9-33.9 2.3-6.4-2.1-9.5-5-10.9-7.8-2.1-2.2-3.5-4.8-3.6-7.8-0.2 0-0.4 0.1-0.6 0.1l-0.2 0.2c0-0.8 0.2-2.7 0.2-2.7 2.3-7.3 10.7-10.7 21.8-8 8.7 2.1 26.9 10.3 37.5 27.1 2 3.1 3.7 6.8 5 10.3 2.2 6 2.8 14.4 0.2 19.6-3.6 7-12.6 11.1-13.7 10.9 3.3 0.5 8.9 0.1 13.4-0.8 8.8-1.7 17.2-6.7 21-15.1 0.7-1.6 1.3-3.1 1.7-4.7 3.1-18.2-10.6-43.6-12.3-42.9" clip-path="url(#ae)" class="st5" transform="matrix(.25 0 0 .25 -103.48 213.39)" fill="#efab00"/><path d="m174.2 394.8c-2.7-5.3-6.4-6.1-6.4-6.1l-0.2 6.2s-1.4-5.3-2.2-7.9c-2.7-9-10.7-21.1-19.9-29.6 0.6 1.3 1.1 2.6 1 3.7-5-6.1-19.3-17.7-19.3-17.7l1.8 5.4s-0.9-1.2-2-2.5c-9.5-11.2-35.7-24.9-43.6-29l3.6 5.4c-0.6-0.3-1.5-0.8-2.6-1.4l3.5 6-18.5-8.6 9.9 0.3c-2.8-1.3-6.2-2.8-9.9-4.3-9.1-3.2-19.1-5.8-31-8-2.1-0.4-4.3-0.7-6.5-1 1.9 1.3 5.3 5.9 6.9 7.4-39-5.5-71.1-2.8-96.2 6.7-16.5 7.6-31.7 19.5-45.6 36.6l-0.4-2.4-0.1 0.1-1.3-7.7c-5.6 7.3-12.4 19.4-14.6 27.8 0 0.1-0.2 0.7-0.2 0.8-1.9 7.5-2.1 14-0.9 20.4 1.6 6.9 4.7 13.6 8.8 21.2l-0.9-0.2c0.4 0.8 0.9 1.6 1.3 2.5l-4.3-0.9c7.2 11.2 18.5 23.6 31 32.4-8.1-8.6-14-17.2-17.5-26.9l0.5 0.1c-0.3-0.8-0.6-1.6-0.9-2.4l5.9 1.2c-0.4-1.6-0.8-3.3-1.1-4.9-2.8-12.3-2-24.8 1.4-33.7 2.8-7.2 14.2-23.3 33.4-28.3l-2.9 4.2c1.2-0.3 2.5-0.7 3.8-0.9l-4.4 5.9c15.7-6.5 38-8.7 65.1-0.8l-2.7 0.4c0.8 0.3 1.6 0.6 2.3 1l-4.6 1.1c8.2 2 18.4 4.9 23 6.5 4.9 1.7 10.9 4.5 16.7 7.5-1.5-1.1-2.4-1.7-2.4-1.7 8.6 2.7 16 5.8 22.1 9.1l-1.1-1.9c8.9 4.9 15.3 10.1 18.6 13.5l0.1 0.1c6.4 5.4 9.8 9.8 10.8 11.3 0.3 2.9 0.8 5.3 1.8 7.6-2.7-12.4 0.1-16 1.1-18.2 0.3-0.6 0.7-1.2 1.1-1.7 4.1-6.3 13.3-9.8 21.3-9.5 8.2 0.3 16.2 2.5 24.1 7.3-1.5-1.7-1.6-4-1.1-5.6 0.1-0.2 0.2-0.5 0.3-0.7 0.1-0.5 0.2-1 0.4-1.4 0.5-1 1.4-1.7 2.3-2.1-0.6-1.9-2.6-5.9-7.3-6.4-3.1-0.3-4.5 0.8-4.6 0.8 0-0.1 1-1.7 2.6-2.4-1.6-0.9-5.7 0-5.8 0 0.2-0.1 4-3.7 9.8-1.8 1.2 0.4 2.2 0.9 3.1 1.5-0.8-1.2-1.3-1.9-1.4-1.9 0.7 0 5.1 1.3 7.5 6.3 0.5 1.1 1.9 4.1 2.6 5.6 1.3 2.8 3.9 6.8 6.6 9.6 4.4 4.5 9.2 6 14.6 6 5.6 0 7.6-3.7 7.6-3.9 0 0.1 0.1 2.7-1.5 4.6 1.2-0.7 2.8-2.3 3.2-3.4 0.6-1.5 0.2-4.5-0.4-5.1 0.3 0.3 3.8 3.4 3.1 6.6-0.1 0.6-0.3 1.3-0.8 1.9 0.5 0.4 1.1 0.8 1.8 1.3l-1-1.4 3.1 1.8c1.5-1.2 1.2-6.4-1.4-11.4" clip-path="url(#ad)" class="st6" transform="matrix(.25 0 0 .25 -103.48 213.39)" fill="#efab00"/><path d="m132.9 386.8c-0.4-1.7-2.3-6.2-7.4-6.8-3.1-0.3-4.5 0.8-4.6 0.8 0 0 1-1.7 2.6-2.4-1.6-0.9-5.7 0-5.8 0 0.2-0.1 4-3.7 9.8-1.8 1.2 0.4 2.2 0.9 3.1 1.5-0.8-1.2-1.3-1.9-1.4-1.9 0.7 0 5.1 1.3 7.5 6.3 0.5 1.1 1.9 4.1 2.6 5.6 1.3 2.8 3.9 6.8 6.6 9.6 3.7 3.8 7.7 5.5 12.2 5.9-2.4-0.6-4-2-3.7-3.5 3.4 1.4 6.7 2 8.4-2s0.8-17.6-15-34.9c0.2 1 0.6 2.6 0.6 4.4-4.1-5.9-12.5-14.7-17.7-18.7 0.2 1 1.1 4.5 1.5 5.9-2.8-2.9-10.5-9.5-10.5-9.5l1.6 4.9-1.8-2.2c-8.6-10.3-32.5-22.7-39.8-26.4l3.2 5.2-2.4-1.2 3.2 5.5-16.9-7.9 9.1 0.3c-2.6-1.2-5.6-2.5-9-3.9-8.3-2.9-17.4-5.3-28.3-7.3-1.9-0.4-3.9-0.7-5.9-0.9 1.5 1 4 4.3 5.6 6-16.8-2.4-32.4-3.2-46.7-2.6 26.9-0.1 75.6 13.8 95.3 27.4 16.4 11.2 13.7 13.9-3.9 6-39.2-17.5-70.9-18.5-70.9-18.5l-21.7 13.1s36.4 4.8 61.6 18.2c21.7 11.6 14.2 12.2-7.3 4.5-32-11.8-66.8-13.8-82.9-11.7 14.3 0.5 39.3 3.8 49.1 7.1-2.5 0.8-8.8 3.5-11.8 4.3 5.4-0.4 65.8 18.2 82.3 39.9 0.1-0.7 0.2-1.4 0.3-2.2 2-9 13.5-14.1 23.1-13.8 8.2 0.3 16.1 2.5 24.1 7.3-1.5-1.7-1.6-4-1.1-5.6 0.4-1.5 1.4-2.6 2-2.7 0.4-0.6 0.7-1 1.1-1.3" clip-path="url(#ac)" class="st7" transform="matrix(.25 0 0 .25 -103.48 213.39)" stroke="#4d4d4c" fill="#4d4d4c"/></g><path d="m125.1 368.2c-5.1-0.3-9.6 2.1-12.2 5.2-2.1 2.5-2.4 6.5-1.1 9.2-0.5-2.9 0.9-5.5 2.5-7.4 2.1-2.6 6.5-4.2 10.8-4.3 4.9-0.1 10.8 1.5 14 5.6-2.2-4.9-6.6-8-14-8.3" clip-path="url(#ab)" class="st8" transform="matrix(.25 0 0 .25 -103.48 213.39)" fill="#fff"/><g fill="#efab00"><path d="m125.7 369c-5.3-0.3-9.9 2.1-12.6 5.4-2.2 2.6-2.4 6.7-1.1 9.5-0.5-3 0.9-5.7 2.6-7.7 2.2-2.6 6.7-4.4 11.2-4.5 5.1-0.1 11.2 1.5 14.5 5.8-2.4-4.9-6.9-8.1-14.6-8.5" clip-path="url(#aa)" class="st9" transform="matrix(.25 0 0 .25 -103.48 213.39)"/><path d="m9.8 298.4c-48-3.4-86.2 9.5-110.5 34.2l0.5 5.4c23.4-26.7 61.7-41.3 110.4-39-0.1-0.2-0.3-0.4-0.4-0.6" clip-path="url(#z)" class="st10" transform="matrix(.25 0 0 .25 -103.48 213.39)"/><path d="m-120.9 443.6c0.3 2.7 6.5 10 17.2 17.3 13.7 9.4 20.8 10.7 23.5 10.9-9.9-4.6-16.5-8.4-23.2-13-9.5-6.6-15.6-12.7-17.5-15.2" clip-path="url(#y)" class="st11" transform="matrix(.25 0 0 .25 -103.48 213.39)"/></g><g><path d="m158.4 416.3c-0.7-0.7-1.4-1.5-2.1-2.2-2.5-2.7-5.4-5.8-11.3-10.3 0 0-1.9-1.4-2-1.4h0.3 0.1c1.6 0 2.5-0.8 3.5-1.6h0.1c-0.8-0.7-1.7-1.5-2.4-2.3-0.5 0.2-1 0.3-1.6 0.3-0.5 0-1.1-0.1-1.7-0.3-2.1-0.7-3.1-2.5-2.9-4l2.6 0.3s-0.6-1.1-1.6-2.2c0.4-0.3 0.8-0.5 1.3-0.5h0.2c-0.9-1.4-1.7-2.9-2.6-4.1-0.6-0.4-2.1-1.3-3.6-1.3-0.6 0-1.2 0.1-1.6 0.4-0.3-1.8-2.3-6.4-7.5-7-0.4 0-0.7-0.1-1.1-0.1-2.3 0-3.4 0.9-3.4 0.9v-0.1c0.7-1.1 1.6-1.9 2.5-2.3-0.5-0.2-1.2-0.4-2.2-0.4-1.7 0-3.5 0.4-3.6 0.4l0.1-0.1c1.9-1.5 4.1-2.2 6.4-2.2 1.1 0 2.2 0.2 3.3 0.5s2.1 0.9 2.9 1.3l0.2 0.1c-0.8-1.1-1.3-1.8-1.4-1.8 0.8 0 5.1 1.3 7.5 6.3 0.2 0.5 0.7 1.4 1.1 2.4 0.5 1.1 1.1 2.4 1.5 3.2 1.3 2.7 3.8 6.7 6.6 9.6 4 4.1 8.6 6 14.4 6h0.2c5.6 0 7.6-3.8 7.6-3.9v0.1c0 1.9-0.5 3.4-1.5 4.5 1.2-0.7 2.7-2.3 3.1-3.4 0.6-1.5 0.2-4.5-0.4-5.1 0.1 0 0.1 0.1 0.2 0.1 3 3 3.3 5.1 3 6.5s-1 3-3.5 4.2c-2 1-4.2 1.5-6.7 1.5-2.1 0-4.4-0.4-6.7-1.1-0.1 0-0.2-0.1-0.2-0.1h0.2 0.1c0.5 0 2.2 0 4.4-0.4-3.1-0.1-6.3-1.2-9.5-3.1h-0.5-1.4c-0.9 0-1.6 0-2.3-0.1 6.1 4.8 10 9 11.9 12.8z" clip-path="url(#x)" class="st12" transform="matrix(.25 0 0 .25 -103.48 213.39)" fill="#003976"/><path d="m161.4 390c-3.7-0.9-5.9-3.4-8.4-7.4l-1.8-2.8c-6.3-9.3-11.2-12.6-14.9-13.9 2.5 0.1 10.1 2.9 16.8 12.8l1.9 2.8c2.3 3.9 3.5 7.8 6.4 8.5" clip-path="url(#w)" class="st13" transform="matrix(.25 0 0 .25 -103.48 213.39)" fill="#efab00"/><path d="m159.4 390.8c-3.7-0.9-5.9-3.4-8.4-7.4l-1.8-2.8c-6.3-9.3-11.2-12.6-14.9-13.9 2.5 0.1 10.1 2.9 16.8 12.8l1.9 2.8c2.4 3.9 3.5 7.8 6.4 8.5" clip-path="url(#u)" class="st14" transform="matrix(.25 0 0 .25 -103.48 213.39)" fill="#003976"/><path d="m89.4 391.8 3.3-0.8c-12.7-9.7-29-18.6-45.8-25.1-5.3-2-14.2-5.2-19.6-6.7 4.7 1.6 10.1 3.5 13.7 4.9 18.8 7.3 34.9 16.4 48.4 27.7" clip-path="url(#t)" class="st15" transform="matrix(.25 0 0 .25 -103.48 213.39)" fill="#efab00"/><path d="m132.7 397.3c-2.3-2.3-3-5.4-0.8-9.5-0.6 0.1-1.6 1.2-2 2.7-0.5 1.7-0.4 4 1.1 5.6-8-4.7-15.9-7-24.1-7.3-9.6-0.3-21.1 4.9-23.1 13.8-0.9 4.1-0.1 7-0.1 7s0.3-2.4 0.6-3.4c1.4-7.6 11.6-14.7 23.1-14.5 10.4 0.2 15.1 2.3 29.8 9.8l2.3 0.5c-2.3-1.6-4.5-3.2-6.8-4.7" clip-path="url(#s)" class="st16" transform="matrix(.25 0 0 .25 -103.48 213.39)" fill="#003976"/></g><path d="m77.3 340.8 1.7-1.3c-14.2-7.3-30.4-12.8-48.1-16-5.5-1-14.9-2.5-20.5-3 4.9 0.7 10.6 1.6 14.4 2.3 19.8 3.6 37.2 9.3 52.5 18" clip-path="url(#r)" class="st17" fill-opacity=".94118" transform="matrix(.25 0 0 .25 -103.48 213.39)" stroke="#4d4d4c" fill="#4d4d4c"/><path d="m-110.1 325.8c-7 8.9-18.7 22.3-22.5 41l0.3 6c3.6-17.6 15-37.8 22.2-47" clip-path="url(#q)" class="st18" transform="matrix(.25 0 0 .25 -103.48 213.39)" fill="#003976"/><path d="m85 472h-1-150-1.7l0.4-1.6 8.6-31.9 0.3-1h1 5.4l15.4-67.6h-6.1-1.6l0.3-1.5 5.7-31.4 0.2-1.1h1.1l147.2-0.4h1.6l-0.3 1.5-5.7 31.4-0.2 1.1h-1.1l-21 0.1-26.8 23.9c2.3 5.6 15.1 37 18 44.1h17.9 1.7l-0.4 1.6-8.6 31.9-0.3 0.9z" clip-path="url(#p)" class="st19" transform="matrix(.25 0 0 .25 -103.48 213.39)" fill="#003976"/><path d="m82.1 367.2-28.5 25.5 0.3 0.8s0.3 0.6 0.7 1.7c3.2 7.8 16 39.2 17.9 44l0.3 0.8h18l-7.9 29.3h-147.2l7.9-29.3h6.4l16.6-72.8h-7.8l5.3-28.9 144.6-0.4-5.3 28.9-20.9 0.1-0.4 0.3" clip-path="url(#o)" class="st20" transform="matrix(.25 0 0 .25 -103.48 213.39)" fill="#fff"/><polygon clip-path="url(#n)" transform="matrix(.25 0 0 .25 -103.48 213.39)" class="st21" points="99.8 364.3 99 364.3 82.3 364.3 48.7 391.8 69.8 443.2 84.2 443.1 85.5 443.1 85.1 444.4 79.4 465.8 79.2 466.5 78.5 466.5 6.2 466.5 5 466.5 5.3 465.3 10.5 444.1 10.7 443.4 11.5 443.4 23.6 443.3 14.7 421.7 -5.2 438.7 -6.3 443.4 2.6 443.4 3.8 443.4 3.5 444.6 -1.7 465.7 -1.9 466.5 -2.6 466.5 -58.6 466.5 -59.8 466.5 -59.5 465.2 -53.8 444.3 -53.6 443.5 -52.9 443.5 -47 443.5 -27.8 364.3 -35.4 364.3 -36.6 364.3 -36.4 363.2 -32.7 342.5 -32.5 341.7 -31.7 341.7 24 341.7 25.2 341.7 24.9 342.9 19.8 363.6 19.7 364.3 18.9 364.3 12.9 364.3 8.8 381.1 28.4 364.3 26.1 364.3 24.8 364.3 25.1 363.1 30.2 342.5 30.4 341.7 31.2 341.7 102.7 341.7 103.8 341.7 103.6 342.9 99.9 363.5" fill="#efab00"/><polygon clip-path="url(#m)" transform="matrix(.25 0 0 .25 -103.48 213.39)" class="st22" points="5.5 386.5 33.7 362.4 27.3 362.4 31.9 343.7 101.5 343.7 98.1 362.4 81.6 362.4 46.3 391.2 68.5 445.1 82.9 445.1 77.7 464.5 7.5 464.5 12.2 445.3 26.5 445.3 15.4 418.5 -6.9 437.6 -8.8 445.4 1.3 445.3 -3.4 464.5 -57.3 464.5 -52.1 445.5 -45.4 445.5 -25.3 362.4 -34.3 362.4 -30.9 343.7 22.8 343.7 18.1 362.4 11.3 362.4" fill="#003976"/><g style="" stroke="#efab00" fill="#003976"><polygon clip-path="url(#l)" transform="matrix(.25 0 0 .25 -103.48 213.39)" points="-64.2 489.3 -73.9 489.3 -73 484.3 -60.8 484.3 -59.7 478 -80.8 478 -85.6 505.1 -76.7 505.1 -75 495.6 -65.3 495.6" class="st23"/><path d="m-46.9 483.9c3.9-0.1 4.8 3.8 4.1 7.5-0.8 4.5-2.9 7.8-6.7 7.8-4.3 0-4.6-4.3-3.9-7.8 0.5-3.4 2.5-7.5 6.5-7.5m1.2-6.6c-8.5 0-15.2 5.5-16.7 14.1-1.6 9.2 3.1 14.5 11.7 14.5 8 0 15.2-5.2 16.8-14.5 1.3-7.2-2.1-14.1-11.8-14.1" clip-path="url(#j)" class="st25" transform="matrix(.25 0 0 .25 -103.48 213.39)"/><path d="m-18.5 483.9c3.9-0.1 4.8 3.8 4.1 7.5-0.8 4.5-2.9 7.8-6.7 7.8-4.3 0-4.6-4.3-3.9-7.8 0.5-3.4 2.5-7.5 6.5-7.5m1.2-6.6c-8.5 0-15.2 5.5-16.7 14.1-1.6 9.2 3.1 14.5 11.7 14.5 8 0 15.2-5.2 16.8-14.5 1.3-7.2-2.1-14.1-11.8-14.1" clip-path="url(#i)" class="st27" transform="matrix(.25 0 0 .25 -103.48 213.39)"/><polygon clip-path="url(#h)" transform="matrix(.25 0 0 .25 -103.48 213.39)" points="20.1 485.1 21.4 478 -3.5 478 -4.8 485.1 3.2 485.1 -0.3 505.1 8.6 505.1 12.1 485.1" class="st29"/><path d="m31.2 493.8c2.8 0 4.9 0.2 4.5 2.5-0.4 2-2.1 2.5-4.3 2.5h-3.9l0.9-5h2.8zm2-9.5c1.9 0 3.6 0 3.2 2.1-0.3 1.6-1.7 2.4-3.5 2.4h-3.7l0.8-4.5h3.2zm-2.5 20.8c7.1 0 12.1-2.1 13.1-8.2 0.5-2.9-0.6-5.5-3.4-6.2 1.9-1.1 4.1-3.1 4.6-5.9 1-5.4-3.7-6.8-9.8-6.8h-13l-4.8 27.2h13.3v-0.1z" clip-path="url(#g)" class="st31" transform="matrix(.25 0 0 .25 -103.48 213.39)"/><path d="m60.2 495.9h-5.6l4.5-9.7 1.1 9.7zm-10 9.2 1.7-3.6h8.9l0.4 3.6h8.9l-4.9-27.2h-9.2l-14.5 27.2h8.7z" clip-path="url(#f)" class="st33" transform="matrix(.25 0 0 .25 -103.48 213.39)"/><polygon clip-path="url(#d)" transform="matrix(.25 0 0 .25 -103.48 213.39)" points="70.3 505.1 91.4 505.1 92.5 498.8 80.3 498.8 84 478 75 478" class="st35"/><polygon clip-path="url(#c)" transform="matrix(.25 0 0 .25 -103.48 213.39)" points="92.4 505.1 113.5 505.1 114.6 498.8 102.4 498.8 106.1 478 97.2 478" class="st37"/></g><path d="m47.9 337.5c0.5-0.4 1.9-1.5 2.7-1.8-23.1-9.9-63.8-10.7-89.4-2.7 5.8-1.5 10.8-2.4 14.9-3 19-3.1 56.8 1.2 71.8 7.5" clip-path="url(#b)" class="st39" transform="matrix(.25 0 0 .25 -103.48 213.39)" fill="#003976"/></g></svg>