<svg width="126" height="18" viewBox="0 0 126 18" fill="none" xmlns="http://www.w3.org/2000/svg">
<g clip-path="url(#clip0_2568_113570)">
<path d="M107.873 0.15353L109.689 4.57412L111.505 0.15353H107.873Z" fill="#B3B3B3" stroke="#B3B3B3" stroke-width="0.59"/>
<path d="M74.483 2.08588L74.8589 1.38176L63.7995 1.29706L67.5689 4.62706C67.2777 5.15647 65.176 9.01588 64.5777 10.1171L58.5742 0.201176C58.5742 0.201176 53.8095 9.10588 53.1107 10.3976L47.7107 1.39765L41.2942 1.46647L50.543 18H54.3071L54.4501 17.7776C54.5665 17.5976 56.9224 13.8653 58.156 11.7106C59.3577 13.8653 61.6765 17.5924 61.7877 17.7724L61.9412 18H65.7107L65.8483 17.7459C66.0971 17.2324 73.4189 4.10823 74.483 2.08588Z" fill="#B3B3B3"/>
<path d="M97.8565 4.76471V14.67C97.1312 15.2471 94.3677 17.9947 94.3677 17.9947H108C108 17.9947 104.855 15.2524 104.077 14.67V4.76471C104.824 4.18236 108 1.44 108 1.44H94.3677L97.8565 4.76471Z" fill="#B3B3B3"/>
<path d="M115.147 4.76471V14.6382C114.427 15.2153 111.674 17.9524 111.674 17.9524H125.248C125.248 17.9524 122.114 15.2206 121.341 14.6382V4.76471C122.114 4.18765 125.248 1.45059 125.248 1.45059H111.674L115.147 4.76471Z" fill="#B3B3B3"/>
<path d="M20.7106 4.86L23.3259 1.49824L14.7124 1.45059V7.08353C13.8701 6.99194 13.0237 6.94423 12.1765 6.94059C11.2084 6.94548 10.2414 7.00735 9.28059 7.12588V1.45059L0.645882 1.49824L3.26118 4.86V14.6541L0 17.9365H9.25941V11.1706C10.2258 11.0329 11.2004 10.9604 12.1765 10.9535C13.0315 10.957 13.8855 11.0136 14.7335 11.1229V17.9365H23.9982L20.7318 14.6541L20.7106 4.86Z" fill="#B3B3B3"/>
<path d="M29.4247 1.42941L32.4952 4.73294C30.3088 8.55529 24.7129 18 24.7129 18H30.5364L31.7647 15.6865C33.0282 15.4626 34.3091 15.351 35.5923 15.3529C36.8078 15.359 38.0207 15.4653 39.2188 15.6706L40.5423 18H47.5358L38.1176 1.42412L29.4247 1.42941ZM36.7252 11.2129C36.3388 11.2129 35.9629 11.1812 35.5923 11.1812C35.137 11.1812 34.6658 11.1812 34.1841 11.2288L35.4388 8.92059C35.8517 9.66176 36.3123 10.4771 36.7252 11.2129Z" fill="#B3B3B3"/>
<path d="M84.1181 1.41353H75.7323L78.8029 4.72235C76.627 8.55 71.8517 17.19 71.804 17.28L71.407 18H76.8176L78.0723 15.6865C79.3359 15.4632 80.6167 15.3516 81.8999 15.3529C83.1173 15.3562 84.3322 15.4624 85.5317 15.6706L86.8552 18.0212H93.8487L84.404 1.41353H84.1181ZM83.0593 11.2076C82.6729 11.2076 82.297 11.1812 81.9211 11.1812C81.5452 11.1812 80.9946 11.1812 80.5129 11.2235C80.9152 10.4771 81.3811 9.63529 81.7676 8.91529C82.1646 9.65647 82.6199 10.4718 83.0382 11.2076H83.0593Z" fill="#B3B3B3"/>
<path d="M108.466 0.497646L109.768 3.67412L111.076 0.497646H108.466Z" fill="#005837"/>
<path d="M64.6781 11.1176L58.6799 1.18059L53.2111 11.3824L47.5199 1.89L42.1729 1.94823L50.9081 17.4971H54.1217C54.1217 17.4971 57.2981 12.5206 58.2299 10.6782C59.1723 12.5259 62.2693 17.4971 62.2693 17.4971H65.4828L74.1175 1.85823L65.1546 1.79471L68.2411 4.52118L64.6781 11.1176Z" fill="#005837"/>
<path d="M95.6169 1.92176C95.6169 1.92176 97.9411 4.23529 98.4228 4.52118V14.9135C97.8934 15.2259 95.6169 17.5129 95.6169 17.5129H106.782C106.782 17.5129 104.167 15.2259 103.664 14.9188V4.52118C104.167 4.20882 106.782 1.92176 106.782 1.92176H95.6169Z" fill="#005837"/>
<path d="M112.924 1.93765C112.924 1.93765 115.205 4.21941 115.714 4.52647V14.8818C115.184 15.1888 112.924 17.4706 112.924 17.4706H124.041C124.041 17.4706 121.437 15.1941 120.939 14.8871V4.52647C121.437 4.21412 124.041 1.93765 124.041 1.93765H112.924Z" fill="#005837"/>
<path d="M22.9288 17.4706L20.3241 14.8553V4.70118L22.4417 1.95882L15.2629 1.92176V7.59176C14.2581 7.47003 13.2468 7.40992 12.2347 7.41176C11.1099 7.41345 9.98666 7.49305 8.87291 7.65V1.92176L1.67821 1.95882L3.79586 4.70118V14.85L1.20703 17.4706H8.87291V10.7576C9.98462 10.5791 11.1087 10.4888 12.2347 10.4876C13.2478 10.4884 14.2596 10.5591 15.2629 10.6994V17.4706H22.9288Z" fill="#005837"/>
<path d="M46.7841 17.5182L37.89 1.90588H30.6159L33.1729 4.65883C31.0553 8.36471 25.6394 17.5129 25.6394 17.5129H30.3088L31.5371 15.2418C32.9012 14.9774 34.2875 14.8444 35.6771 14.8447C36.9944 14.847 38.3089 14.9657 39.6053 15.1994L40.9023 17.5129L46.7841 17.5182ZM35.6718 11.6471C34.9147 11.6471 34.1629 11.6841 33.4218 11.7529L35.4706 7.94118V7.87765L37.6359 11.7265C37.0059 11.6947 36.3441 11.6471 35.6718 11.6471Z" fill="#005837"/>
<path d="M5.03467 8.38589L6.58584 6.83471L5.03467 5.28353V8.38589Z" fill="#B3B3B3"/>
<path d="M5.03467 11.4353L6.58584 9.88412L5.03467 8.33294V11.4353Z" fill="#B3B3B3"/>
<path d="M5.03467 14.49L6.58584 12.9335L5.03467 11.3824V14.49Z" fill="#B3B3B3"/>
<path d="M99.7253 8.27471L101.335 6.67059L99.7253 5.06118V8.27471Z" fill="#B3B3B3"/>
<path d="M99.7253 11.4353L101.335 9.82588L99.7253 8.22176V11.4353Z" fill="#B3B3B3"/>
<path d="M99.7253 14.5959L101.335 12.9865L99.7253 11.3771V14.5959Z" fill="#B3B3B3"/>
<path d="M19.2706 11.3824L17.7141 12.9335L19.2706 14.49V11.3824Z" fill="#B3B3B3"/>
<path d="M19.2706 8.33294L17.7141 9.88412L19.2706 11.4353V8.33294Z" fill="#B3B3B3"/>
<path d="M19.2706 5.28353L17.7141 6.83471L19.2706 8.38589V5.28353Z" fill="#B3B3B3"/>
<path d="M119.822 11.3612L118.223 12.96L119.822 14.5641V11.3612Z" fill="#B3B3B3"/>
<path d="M119.822 8.21118L118.223 9.8153L119.822 11.4194V8.21118Z" fill="#B3B3B3"/>
<path d="M119.822 5.06647L118.223 6.6653L119.822 8.26941V5.06647Z" fill="#B3B3B3"/>
<path d="M41.3629 10.4029L40.7964 12.6L42.9934 13.1665L41.3629 10.4029Z" fill="#B3B3B3"/>
<path d="M39.7642 7.68706L39.1978 9.88412L41.3948 10.4506L39.7642 7.68706Z" fill="#B3B3B3"/>
<path d="M38.1653 4.97118L37.5989 7.16823L39.7959 7.73471L38.1653 4.97118Z" fill="#B3B3B3"/>
<path d="M93.0971 17.5182L84.1765 1.90059H76.9183L79.4807 4.65353C77.363 8.35941 72.3071 17.5129 72.3071 17.5129H76.6112L77.8448 15.2365C79.2095 14.9765 80.5956 14.8453 81.9848 14.8447C83.3022 14.8443 84.617 14.963 85.913 15.1994L87.2154 17.5129L93.0971 17.5182ZM81.9848 11.6471C81.2224 11.6471 80.4707 11.6841 79.7295 11.7529L81.7942 7.94118V7.87765L83.9542 11.7265C83.3136 11.6947 82.6518 11.6471 81.9848 11.6471Z" fill="#005837"/>
<path d="M87.6758 10.3976L87.104 12.5947L89.3064 13.1665L87.6758 10.3976Z" fill="#B3B3B3"/>
<path d="M86.0771 7.68177L85.5054 9.87883L87.7024 10.4453L86.0771 7.68177Z" fill="#B3B3B3"/>
<path d="M84.4783 4.96589L83.9065 7.16294L86.1035 7.72941L84.4783 4.96589Z" fill="#B3B3B3"/>
<path d="M61.3005 13.5582L63.5029 14.1618L62.8994 16.3641L61.3005 13.5582Z" fill="#B3B3B3"/>
<path d="M59.7283 10.8053L61.9306 11.4088L61.3271 13.6112L59.7283 10.8053Z" fill="#B3B3B3"/>
<path d="M58.1611 8.05235L60.3582 8.65588L59.76 10.8582L58.1611 8.05235Z" fill="#B3B3B3"/>
</g>
<defs>
<clipPath id="clip0_2568_113570">
<rect width="125.248" height="18" fill="white"/>
</clipPath>
</defs>
</svg>