<?xml version="1.0" encoding="UTF-8" standalone="no"?>
<svg xmlns:rdf="http://www.w3.org/1999/02/22-rdf-syntax-ns#" xmlns="http://www.w3.org/2000/svg" xml:space="preserve" height="62.434" viewBox="0 0 152.2525 62.43375" width="152.25" version="1.1" xmlns:cc="http://creativecommons.org/ns#" xmlns:dc="http://purl.org/dc/elements/1.1/"><g transform="matrix(1.25 0 0 -1.25 -562.39 894.61)"><g style=""><path d="m135.91 1.0664c-1.6138 0-1.8833 0.4382-2.4883 2.2207l-7.1309 21.428h7.2324l1.4453-5.0801h7.2324l1.4805 5.0801h7.6348l-7.1309-21.428c-0.5725-1.7488-0.87523-2.2207-2.4902-2.2207h-5.7852zm-18.641 0.10352v23.543h7.2305v-23.543h-7.2305zm-109.01 0.002c-2.455 0-3.7331 0.43695-4.6406 1.3457-1.3788 1.345-2.5566 3.9338-2.5566 10.424 0 6.4912 1.1779 9.0795 2.5566 10.426 0.9075 0.9075 2.1856 1.3457 4.6406 1.3457h7.8027c2.185 0 3.732-0.40391 4.707-1.3789 1.3112-1.3125 2.3535-3.296 2.3535-8.9785v-2.8594h-11.305l1.9883 4.877h2.3906v0.16797c0 1.6812-0.47078 2.3216-0.70703 2.5566-0.20125 0.20125-0.57047 0.26758-1.5117 0.26758h-3.1953c-1.0425 0-1.3476-0.06633-1.5488-0.26758-0.3014-0.304-0.7372-1.415-0.7372-6.158 0-4.7408 0.4358-5.783 0.7383-6.0855 0.2012-0.2025 0.5063-0.2696 1.5487-0.2696h3.0254c1.0088 0 1.3117 0.10078 1.4805 0.26953 0.235 0.235 0.67328 0.50422 0.70703 2.3867h6.9258c-0.10125-4.0012-0.80617-5.7176-1.9824-6.8613-0.90875-0.87375-2.3225-1.209-4.8438-1.209h-7.8359zm16.791 0v23.541h19.236v-5.4473h-12.006v-2.8516h-0.0078v-1.1191h6.8516l-2.0547-5.043h-4.7969v-0.88281h0.0078v-2.75h12.006v-5.4473h-19.236zm28.035 0c-2.4562 0-3.7351 0.4382-4.6426 1.3457-1.3788 1.3462-2.5566 3.9345-2.5566 10.426 0 6.4912 1.1779 9.0795 2.5566 10.426 0.9075 0.9075 2.1863 1.3457 4.6426 1.3457h7.834c2.455 0 3.7331-0.4382 4.6406-1.3457 1.3788-1.3462 2.5566-3.9345 2.5566-10.426 0-6.4912-1.1779-9.0795-2.5566-10.426-0.9075-0.9075-2.1856-1.3457-4.6406-1.3457h-7.834zm17.148 0v23.543h7.2324v-18.195h3.9004c1.3112 0 1.6478 0.066328 1.8828 0.26758 0.3375 0.3025 0.53906 0.84195 0.53906 2.2207 0 1.3787-0.16906 1.9496-0.53906 2.2871-0.20125 0.20125-0.57156 0.26953-1.8828 0.26953h-2.6172l2.0703 5.0781h0.17773c1.48 0 1.7829 0.135 2.1191 0.4375 0.37 0.33625 0.57117 0.67117 0.63867 2.4199 0.0675 2.0188 0.16734 3.6336 0.40234 5.2148h7.3652c-0.135-1.2788-0.30164-3.566-0.36914-5.8535-0.1-3.3962-1.447-4.1702-3.8008-4.709v-0.06641c2.7238-0.53875 4.0352-1.8502 4.0352-6.2227 0-3.2625-0.50438-4.4399-1.5469-5.4824-0.9075-0.9075-2.2185-1.209-4.5723-1.209h-15.035zm30.111 0c-2.455 0-3.7331 0.43695-4.6406 1.3457-1.3788 1.345-2.5566 3.9338-2.5566 10.424 0 6.4912 1.1779 9.0795 2.5566 10.426 0.9075 0.9075 2.1856 1.3457 4.6406 1.3457h7.8027c2.1862 0 3.732-0.40391 4.707-1.3789 1.3125-1.3125 2.3555-3.296 2.3555-8.9785v-2.8594h-11.307l1.9863 4.877h2.3926v0.16797c0 1.6812-0.47203 2.3216-0.70703 2.5566-0.20125 0.20125-0.57117 0.26758-1.5137 0.26758h-3.1953c-1.0412 0-1.3437-0.06633-1.5449-0.26758-0.30375-0.3025-0.74023-1.4138-0.74023-6.1562 0-4.7412 0.43648-5.7834 0.74023-6.0859 0.20125-0.2025 0.50367-0.26953 1.5449-0.26953h3.0274c1.0088 0 1.3117 0.10078 1.4805 0.26953 0.235 0.235 0.67328 0.50422 0.70703 2.3867h6.9277c-0.10125-4.0012-0.80812-5.7176-1.9844-6.8613-0.90875-0.87375-2.3206-1.209-4.8418-1.209h-7.8379zm-44.84 5.4824h2.9922c1.0088 0 1.3463 0.068281 1.5488 0.26953 0.235 0.235 0.63867 0.87328 0.63867 6.0195 0 5.145-0.40367 5.7845-0.63867 6.0195-0.2025 0.20125-0.54008 0.26953-1.5488 0.26953h-2.9922c-1.0088 0-1.3456-0.06828-1.5469-0.26953-0.235-0.235-0.63867-0.84078-0.63867-6.0195 0-5.1462 0.40367-5.7845 0.63867-6.0195 0.20125-0.20125 0.53812-0.26953 1.5469-0.26953zm82.893 1.0059h0.36914l2.0195 6.9297h-4.4062l2.0176-6.9297zm-64.572 21.395c-1.6138 0-1.882 0.44016-2.4883 2.2227l-7.1309 21.426h7.2324l1.4473-5.0781h7.2305l1.4805 5.0781h7.6348l-7.1309-21.426c-0.5725-1.7488-0.87453-2.2227-2.4883-2.2227h-5.7871zm-43.381 0.10547c-1.7825 0-2.9266 0.43828-3.6328 1.1445-1.0762 1.075-1.8164 2.9587-1.8164 5.9512 0 3.2612 0.60492 4.674 1.5137 5.584 0.74 0.73875 1.7153 1.1098 3.1953 1.2773l6.9609 0.80859c0.94125 0.1 1.5805 0.23359 1.748 0.40234 0.2025 0.20125 0.30273 0.6732 0.30273 1.3457 0 0.84125-0.10023 1.3112-0.30273 1.5137-0.1675 0.16625-0.73984 0.23438-1.7148 0.23438h-3.3965c-0.97625 0-1.3788-0.06828-1.5801-0.26953-0.16875-0.1675-0.30359-0.63797-0.37109-2.3867h-6.625c0 4.1362 0.47102 5.8512 1.4473 6.8262 0.84 0.84125 2.0512 1.1094 4.1699 1.1094h9.7188c1.8838 0 2.993-0.43633 3.6992-1.1426 1.0762-1.0762 1.8164-2.9932 1.8164-6.2207 0-3.1625-0.57297-4.642-1.4805-5.5508-0.70625-0.70625-1.5464-1.0761-3.1602-1.2773l-7.0293-0.80664c-1.1438-0.135-1.5805-0.20234-1.748-0.37109-0.2025-0.20125-0.30273-0.6057-0.30273-1.3457 0-0.7725 0.09883-1.2095 0.26758-1.377 0.135-0.13625 0.5382-0.16797 1.3457-0.16797h3.3633c0.875 0 1.2116 0.06703 1.4141 0.26953 0.20125 0.20125 0.30164 0.60398 0.36914 2.084h6.625c-0.03375-4.0712-0.57328-5.5486-1.582-6.5586-0.74-0.73875-1.9837-1.0762-4.1699-1.0762h-9.0449zm78.049 0v23.543h19.236v-5.4473h-12.008v-2.8535h-0.006v-1.1172h6.8496l-2.0547-5.043h-4.7949v-0.88281h0.006v-2.75h12.008v-5.4492h-19.236zm-61.82 0.002v5.5137h6.8945v18.027h7.2305v-18.027h6.6484l1.9004-5.5137h-22.674zm37.441 0 1.8457 5.5137h6.5332v18.027h7.2305v-18.027h6.752v-5.5137h-22.361zm-7.7988 6.4863h0.37109l2.0176 6.9297h-4.4062l2.0176-6.9297z" transform="matrix(.8 0 0 -.8 449.92 715.69)" fill="#0039a6"/><path d="m469.86 666.49h82.255v3.9911h-82.255v-3.9911z" fill="#c00"/></g></g></svg>
