<?xml version="1.0" encoding="UTF-8" standalone="no"?>
<svg xmlns:rdf="http://www.w3.org/1999/02/22-rdf-syntax-ns#" xmlns="http://www.w3.org/2000/svg" xml:space="preserve" height="46.618" viewBox="0 0 128.19423 46.617499" width="128.19" version="1.1" xmlns:cc="http://creativecommons.org/ns#" xmlns:dc="http://purl.org/dc/elements/1.1/"><g transform="matrix(1.25 0 0 -1.25 -352.78 140.94)"><g transform="translate(.36393 .36393)"><path d="m14.238 3.332c-1.13 0-1.9562 0.057578-2.4824 0.17383-2.1025 0.4675-3.6055 2.0748-4.5117 4.8223l-0.56836 1.7188c-0.375 0.7275-2.161 6.3796-2.291 6.9434l-0.74609 2.2617c-0.36 1.0912-0.51852 1.9287-0.47852 2.5137 0.075 1.0125 0.64469 1.6751 1.7109 1.9863 0.46125 0.13625 1.2653 0.20312 2.4141 0.20312h8.6465c-0.15997 0.02119-0.35894 0.03473-0.48438 0.0625-2.1025 0.4675-3.6055 2.0741-4.5117 4.8203l-0.56836 1.7207c-0.375 0.7275-2.161 6.3784-2.291 6.9434l-0.74609 2.2598c-0.36 1.0912-0.51852 1.9299-0.47852 2.5137 0.075 1.0125 0.64469 1.6751 1.7109 1.9863 0.46125 0.1375 1.2653 0.20508 2.4141 0.20508h12.795l2.5059-7.5957h-1.3555l2.2285-6.3691h0.35352l1.4316-2.002h2.2539l-4.2031 6.0508h0.91406l-4.873 12.109h102.38l1.334-12.238-2.209-0.68359 1.0801-10.164h-7.8164l-4.6035 6.6562-3.0703-0.94922 1.3945-3.4219h1.1719l0.93164-2.2852h-5.5l-1.7461 4.5469-1.6484-0.50977-1.5723-4.0371h-5.7559l-0.92969 2.2852h1.1719l-0.25391 0.625-3.5156 1.002 0.66211-1.627h1.1992l0.92969-2.2852h-6.0762v-2.4082l-1.6055-1.1426h3.2402l0.83789-10.928h-7.7715l-3.9219 5.998-5.4395-0.16016 1.3184-3.5605h1.7969l-0.34961 0.94922h3.4434l1.1914-3.2246h-15.342l-0.56641 1.5332h-1.6719l0.56836-1.5332h-7.873c-1.3662 0-2.4337 0.17047-3.2012 0.51172-0.54538 0.23845-0.96302 0.58553-1.2793 1.0215h-4.2988l0.12305-1.5332h-7.7715l-1.0059 1.5332h-3.4609c0.001-0.06967 0.0062-0.14375-0.002-0.20117-0.0925-0.61875-0.61109-1.0164-1.5586-1.1914-0.50625-0.0925-1.2819-0.14062-2.3281-0.14062h-3.4941c-0.97875 0-1.7144 0.048125-2.2031 0.14062-0.87125 0.165-1.5688 0.49961-2.0938 1.0059-0.11294 0.10751-0.22192 0.24036-0.32812 0.38672h-3.8223v-0.63867h2.7383l2.1973-6.6602h-12.412zm-1.8828 4.7266h8.0137l-0.18555 0.5293h-8.0039l0.17578-0.5293zm84.531 1.0391-0.8418 2.2754h1.1387l-2.3574 6.375h-1.7773l-0.20508 2.2754h12.734l1.5586-4.209h-4.5566l-0.7168 1.9336h-2.1758l2.3574-6.375h1.1387l0.84375-2.2754h-7.1406zm-8.0742 1.7949-0.58008 4.5801h-2.252l2.832-4.5801zm-18.229 0.48047h1.7988l-1.2656 3.418-0.70117-0.02149v-2.9434l0.16797-0.45312zm14.652 5.9863h2.3574l-0.20312 1.5332-2.1543-1.5332zm-64.631 5.0039h0.625v1.4785h-1.1133l0.48828-1.4785zm100.35 3.0156-0.75391 4.6016h-2.2656l3.0195-4.6016zm-85.227 3.121h1.5371l-0.24219 1.4805h-2.2676l0.973-1.48zm6.127 0h3.2246l-2.4199 5.9297h-0.90625l0.88086-2.1641h-1.2227l0.443-3.766zm14.764 0h3.2578l-1.3887 3.4082c-0.21125 0.51875-0.32133 0.89039-0.33008 1.1191-0.01125 0.61125 0.39289 1.0366 1.2129 1.2754 0.2093 0.0565 0.50414 0.08961 0.78516 0.12695h-3.8164l0.88086-2.1641h-1.1953l0.48-1.181c0.3925-0.96375 0.13109-1.5909-0.78516-1.8809-0.16625-0.05125-0.4568-0.10938-0.87305-0.17188 0.706-0.12888 1.2885-0.30908 1.7715-0.53125zm8.1719 0h2.6738l-1.5352 3.7656h-2.6738l1.534-3.766zm7.5547 0.01563 2.0684 0.92969-1.1504 2.8203h-1.1445l-0.65625 1.6094-1.9434 0.55469h-2.0664c0.16421-0.02212 0.36613-0.03571 0.5-0.06445 1.005-0.21875 1.7727-0.64289 2.3027-1.2754 0.295-0.35125 0.6175-0.96031 0.96875-1.8203l1.1211-2.7539zm-22.971 1.5742h2.75l-1.3555 3.3262c-0.19375 0.47625-0.11914 0.79297 0.22461 0.94922 0.06692 0.02868 0.21791 0.04237 0.32227 0.06445h-3.709l1.7676-4.3398zm29.561 0.25586 2.1719 0.04102-0.33984 0.83594-2.4766 0.70703 0.64453-1.584zm-45.334 1.5312h3.0293l-0.43164 2.5527h-4.2207l1.623-2.5527zm84.918 0h1.2988l-0.0644 0.38086-1.2344-0.38086zm-105.04 4.3984v3.0938h-1.0312l1.0312-3.0938z" transform="matrix(.8 0 0 -.8 281.5 112.83)" fill="#111"/><g fill="none"><g stroke="#111" stroke-width="3.586"><path d="m295.84 93.751h11.468l-3.809-5.328h-3.296l0.542 1.546h-6.412l-2.88-8.639h6.413l0.655 1.998h3.997l-2.005-6.076h-10.235c-0.919 0-1.563 0.054-1.932 0.164-0.853 0.249-1.309 0.779-1.369 1.589-0.032 0.467 0.095 1.137 0.383 2.01l0.597 1.809c0.104 0.452 1.533 4.973 1.833 5.555l0.455 1.376c0.725 2.197 1.927 3.482 3.609 3.856 0.42 0.093 1.082 0.14 1.986 0.14z" stroke-miterlimit="3.864"/><g stroke-miterlimit="3"><path d="m309.18 93.966h6.254l-0.816-6.953h0.978l-0.744-1.829h-4.421l0.362 2.14h-2.424l-1.36-2.14h-3.928l6.099 8.782z"/><path d="m311.11 88.841 0.603 3.682-2.416-3.682h1.813z"/><path d="m317.5 92.137 0.745 1.829h7.496c1.956 0 2.916-0.395 2.88-1.182-0.006-0.182-0.087-0.464-0.243-0.846-0.283-0.696-0.567-1.178-0.852-1.443-0.441-0.415-1.16-0.713-2.157-0.895 0.333-0.05 0.565-0.096 0.698-0.137 0.733-0.232 0.943-0.734 0.629-1.505l-0.385-0.946h0.957l-0.744-1.828h-2.71c-0.787 0-1.297 0.05-1.528 0.149-0.275 0.125-0.335 0.378-0.18 0.759l1.085 2.662h-2.2l-1.454-3.57h-3.957l2.837 6.953h-0.917z"/><path d="m324.57 92.137h-2.2l-0.709-1.741h2.2l0.709 1.741z"/><path d="m334.42 93.966h2.811c0.842 0 1.466-0.038 1.869-0.112 0.758-0.141 1.164-0.46 1.22-0.958 0.031-0.29-0.092-0.775-0.369-1.455l-1.479-3.632c-0.281-0.688-0.54-1.174-0.776-1.455-0.424-0.506-1.038-0.846-1.842-1.021-0.461-0.099-1.147-0.149-2.057-0.149h-2.608c-0.977 0-1.711 0.067-2.2 0.199-0.656 0.191-0.979 0.531-0.97 1.02 0.007 0.183 0.094 0.481 0.263 0.896l1.748 4.291c0.273 0.672 0.573 1.157 0.898 1.455 0.437 0.407 1.009 0.676 1.715 0.809 0.397 0.074 0.989 0.112 1.777 0.112z"/><path d="m334.23 87.013 2.087 5.125h-2.138l-2.088-5.125h2.139z"/><path d="m341.27 92.137 0.745 1.829h5.745l-0.745-1.829h-0.917l-2.087-5.125h1.751l0.634 1.555h3.667l-1.378-3.383h-10.247l0.745 1.828h0.916l2.088 5.125h-0.917z"/><path d="m352.25 92.137 0.745 1.829h5.827l-0.745-1.829h-0.958l-2.087-5.125h0.957l-0.745-1.828h-5.826l0.745 1.828h0.937l2.087 5.125h-0.937z"/><path d="m367.99 93.966h4.4l-0.745-1.829h-0.937l-2.087-5.124h0.937l-0.745-1.829h-4.583l-2.018 5.1-1.914-5.1h-4.461l0.745 1.829h0.936l2.088 5.124h-0.937l0.744 1.829h4.605l2.001-5.137 1.971 5.137z"/><path d="m370.92 87.012 4.808 6.953h6.254l-0.933-8.781h-4.07l0.363 2.139h-2.425l-1.361-2.139h-4.44l0.745 1.828h1.059z"/><path d="m377.66 88.84 0.603 3.682-2.416-3.682h1.813z"/></g></g><g stroke="#a27752" stroke-miterlimit="3.864" stroke-width="1.118"><path d="m309.18 93.708h6.254l-0.816-6.953h0.978l-0.744-1.828h-4.421l0.362 2.139h-2.424l-1.36-2.139h-3.928l6.099 8.781z"/><path d="m311.11 88.583 0.603 3.682-2.416-3.682h1.813z"/><path d="m317.5 91.88 0.745 1.828h7.496c1.956 0 2.916-0.394 2.88-1.181-0.006-0.182-0.087-0.464-0.243-0.846-0.283-0.696-0.567-1.178-0.852-1.443-0.441-0.415-1.16-0.713-2.157-0.895 0.333-0.05 0.565-0.096 0.698-0.137 0.733-0.232 0.943-0.734 0.629-1.505l-0.385-0.946h0.957l-0.744-1.828h-2.71c-0.787 0-1.297 0.05-1.528 0.149-0.275 0.125-0.335 0.378-0.18 0.759l1.085 2.662h-2.2l-1.454-3.57h-3.957l2.837 6.953h-0.917z"/><path d="m324.57 91.88h-2.2l-0.709-1.741h2.2l0.709 1.741z"/><path d="m334.42 93.708h2.811c0.842 0 1.466-0.037 1.869-0.112 0.758-0.141 1.164-0.46 1.22-0.958 0.031-0.289-0.092-0.775-0.369-1.455l-1.479-3.631c-0.281-0.689-0.54-1.174-0.776-1.456-0.424-0.506-1.038-0.846-1.842-1.02-0.461-0.099-1.147-0.149-2.057-0.149h-2.608c-0.977 0-1.711 0.066-2.2 0.199-0.656 0.19-0.979 0.531-0.97 1.02 0.007 0.182 0.094 0.481 0.263 0.895l1.748 4.291c0.273 0.672 0.573 1.157 0.898 1.456 0.437 0.406 1.009 0.676 1.715 0.808 0.397 0.075 0.989 0.112 1.777 0.112z"/><path d="m334.23 86.755 2.087 5.125h-2.138l-2.088-5.125h2.139z"/><path d="m341.27 91.88 0.745 1.828h5.745l-0.745-1.828h-0.917l-2.087-5.125h1.751l0.634 1.555h3.667l-1.378-3.383h-10.247l0.745 1.828h0.916l2.088 5.125h-0.917z"/><path d="m352.25 91.88 0.745 1.828h5.827l-0.745-1.828h-0.958l-2.087-5.125h0.957l-0.745-1.828h-5.826l0.745 1.828h0.937l2.087 5.125h-0.937z"/><path d="m367.99 93.708h4.4l-0.745-1.828h-0.937l-2.087-5.125h0.937l-0.745-1.828h-4.583l-2.018 5.099-1.914-5.099h-4.461l0.745 1.828h0.936l2.088 5.125h-0.937l0.744 1.828h4.605l2.001-5.137 1.971 5.137z"/><path d="m370.92 86.755 4.808 6.953h6.254l-0.933-8.781h-4.07l0.363 2.139h-2.425l-1.361-2.139h-4.44l0.745 1.828h1.059z"/><path d="m377.66 88.583 0.603 3.682-2.416-3.682h1.813z"/></g></g><g stroke="#006f71" stroke-width="0.32" fill="#fff"><g fill-rule="evenodd"><path d="m309.18 93.708h6.254l-0.816-6.953h0.978l-0.744-1.828h-4.421l0.362 2.139h-2.424l-1.36-2.139h-3.928l6.099 8.781zm1.926-5.125 0.603 3.683-2.416-3.683h1.813"/><path d="m317.5 91.88 0.745 1.828h7.496c1.956 0 2.916-0.394 2.88-1.181-0.006-0.182-0.087-0.464-0.243-0.846-0.283-0.696-0.567-1.178-0.852-1.443-0.441-0.415-1.16-0.713-2.157-0.895 0.333-0.05 0.565-0.096 0.698-0.137 0.733-0.232 0.943-0.734 0.629-1.505l-0.385-0.946h0.957l-0.744-1.828h-2.71c-0.787 0-1.297 0.05-1.528 0.149-0.275 0.125-0.335 0.378-0.18 0.759l1.085 2.662h-2.2l-1.454-3.57h-3.957l2.837 6.953h-0.917zm7.069 0h-2.2l-0.71-1.741h2.2l0.71 1.741"/><path d="m334.42 93.708h2.811c0.842 0 1.466-0.037 1.869-0.112 0.758-0.141 1.164-0.46 1.22-0.958 0.031-0.289-0.092-0.775-0.369-1.455l-1.479-3.631c-0.281-0.689-0.54-1.174-0.776-1.456-0.424-0.506-1.038-0.846-1.842-1.02-0.461-0.099-1.147-0.149-2.057-0.149h-2.608c-0.977 0-1.711 0.066-2.2 0.199-0.656 0.19-0.979 0.531-0.97 1.02 0.007 0.182 0.094 0.481 0.263 0.895l1.748 4.291c0.273 0.672 0.573 1.157 0.898 1.456 0.437 0.406 1.009 0.676 1.715 0.808 0.397 0.075 0.989 0.112 1.777 0.112zm-0.184-6.953 2.088 5.125h-2.139l-2.088-5.125h2.139"/></g><g><path d="m341.27 91.88 0.745 1.828h5.745l-0.745-1.828h-0.917l-2.087-5.125h1.751l0.634 1.555h3.667l-1.378-3.383h-10.247l0.745 1.828h0.916l2.088 5.125h-0.917"/><path d="m352.25 91.88 0.745 1.828h5.827l-0.745-1.828h-0.958l-2.087-5.125h0.957l-0.745-1.828h-5.826l0.745 1.828h0.937l2.087 5.125h-0.937"/><path d="m367.99 93.708h4.4l-0.745-1.828h-0.937l-2.087-5.125h0.937l-0.745-1.828h-4.583l-2.018 5.099-1.914-5.099h-4.461l0.745 1.828h0.936l2.088 5.125h-0.937l0.744 1.828h4.605l2.001-5.137 1.971 5.137"/></g><path d="m370.92 86.755 4.808 6.953h6.254l-0.933-8.781h-4.07l0.363 2.139h-2.425l-1.361-2.139h-4.44l0.745 1.828h1.059zm6.734 1.828 0.603 3.682-2.416-3.682h1.813" fill-rule="evenodd"/></g><path d="m295.84 93.751h11.468l-3.809-5.328h-3.296l0.542 1.546h-6.412l-2.88-8.639h6.413l0.655 1.998h3.997l-2.005-6.076h-10.235c-0.919 0-1.563 0.054-1.932 0.164-0.853 0.249-1.309 0.779-1.369 1.589-0.032 0.467 0.095 1.137 0.383 2.01l0.597 1.809c0.104 0.452 1.533 4.973 1.833 5.555l0.455 1.376c0.725 2.197 1.927 3.482 3.609 3.856 0.42 0.093 1.082 0.14 1.986 0.14z" stroke="#a27752" stroke-miterlimit="3.864" stroke-width="1.118" fill="none"/><path d="m295.84 93.751h11.468l-3.809-5.328h-3.296l0.542 1.546h-6.412l-2.88-8.639h6.413l0.655 1.998h3.997l-2.005-6.076h-10.235c-0.919 0-1.563 0.054-1.932 0.164-0.853 0.249-1.309 0.779-1.369 1.589-0.032 0.467 0.095 1.137 0.383 2.01l0.597 1.809c0.104 0.452 1.533 4.973 1.833 5.555l0.455 1.376c0.725 2.197 1.927 3.482 3.609 3.856 0.42 0.093 1.082 0.14 1.986 0.14" stroke="#006f71" stroke-width="0.32" fill="#fff"/><g stroke-miterlimit="3.864" fill="none"><g stroke="#111" stroke-width="3.586"><path d="m305.62 105.55h2.795c0.837 0 1.458-0.038 1.863-0.112 0.758-0.14 1.173-0.458 1.247-0.953 0.041-0.289-0.063-0.772-0.314-1.449l-1.337-3.614c-0.254-0.685-0.493-1.169-0.718-1.449-0.402-0.503-1-0.842-1.793-1.015-0.456-0.099-1.136-0.148-2.04-0.148h-2.593c-0.972 0-1.703 0.065-2.195 0.197-0.658 0.19-0.992 0.529-1.001 1.016 0 0.181 0.076 0.478 0.228 0.891l1.581 4.271c0.247 0.669 0.527 1.151 0.839 1.448 0.42 0.405 0.979 0.673 1.676 0.805 0.391 0.074 0.979 0.112 1.762 0.112z"/><path d="m305.7 98.626 1.887 5.1h-2.126l-1.887-5.1h2.126z"/><path d="m315.1 105.55h6.218l-0.556-6.921h0.972l-0.673-1.819h-4.395l0.282 2.129h-2.411l-1.273-2.129h-3.903l5.739 8.74z"/><path d="m317.21 100.45 0.465 3.665-2.268-3.665h1.803z"/><path d="m328.25 105.55h6.299l-0.953-2.575h-3.463l0.279 0.755h-2.187l-0.591-1.597h2.613c1.201 0 2.011-0.128 2.43-0.384 0.49-0.28 0.601-0.784 0.332-1.51l-0.518-1.4c-0.152-0.412-0.332-0.734-0.539-0.965-0.627-0.71-1.819-1.064-3.574-1.064h-6.4l0.99 2.673h3.686l-0.316-0.854h2.187l0.651 1.758h-2.856c-2.147 0-2.986 0.632-2.519 1.894l0.536 1.449c0.241 0.652 0.691 1.122 1.352 1.411 0.614 0.273 1.468 0.409 2.561 0.409z"/><path d="m335.88 105.55h12.273l-0.954-2.58h-2.754l0.28 0.76h-1.438l-1.887-5.101h0.932l-0.673-1.819h-5.752l0.673 1.819h0.931l1.888 5.101h-1.438l-0.281-0.76h-2.754l0.954 2.58z"/><path d="m345.2 98.627 4.525 6.921h6.217l-0.67-8.741h-3.981l0.281 2.13h-2.409l-1.275-2.13h-4.415l0.674 1.82h1.053z"/><path d="m352.08 100.45 0.465 3.665-2.267-3.665h1.802z"/><path d="m358.33 103.73 0.673 1.82h5.712l-0.674-1.82h-0.911l-1.887-5.1h1.741l0.573 1.547h3.645l-1.246-3.367h-10.187l0.163 1.82h1.422l1.887 5.1h-0.911z"/><path d="m292.89 110.16h9.93l-1.758-5.328h-3.809l0.542 1.546h-6.412l-2.88-8.639h6.413l0.655 1.998h3.997l-2.005-6.076h-10.235c-0.919 0-1.563 0.054-1.932 0.163-0.853 0.249-1.309 0.779-1.369 1.589-0.032 0.468 0.095 1.137 0.383 2.01l0.597 1.81c0.104 0.451 1.533 4.972 1.833 5.554l0.455 1.376c0.725 2.198 1.927 3.483 3.609 3.857 0.421 0.093 1.082 0.14 1.986 0.14z"/></g><g stroke="#a27752" stroke-width="1.118"><path d="m305.62 105.55h2.795c0.837 0 1.458-0.038 1.863-0.112 0.758-0.14 1.173-0.458 1.247-0.953 0.041-0.289-0.063-0.772-0.314-1.449l-1.337-3.614c-0.254-0.685-0.493-1.169-0.718-1.449-0.402-0.503-1-0.842-1.793-1.015-0.456-0.099-1.136-0.148-2.04-0.148h-2.593c-0.972 0-1.703 0.065-2.195 0.197-0.658 0.19-0.992 0.529-1.001 1.016 0 0.181 0.076 0.478 0.228 0.891l1.581 4.271c0.247 0.669 0.527 1.151 0.839 1.448 0.42 0.405 0.979 0.673 1.676 0.805 0.391 0.074 0.979 0.112 1.762 0.112z"/><path d="m305.7 98.626 1.887 5.1h-2.126l-1.887-5.1h2.126z"/><path d="m315.1 105.55h6.218l-0.556-6.921h0.972l-0.673-1.819h-4.395l0.282 2.129h-2.411l-1.273-2.129h-3.903l5.739 8.74z"/><path d="m317.21 100.45 0.465 3.665-2.268-3.665h1.803z"/><path d="m328.25 105.55h6.299l-0.953-2.575h-3.463l0.279 0.755h-2.187l-0.591-1.597h2.613c1.201 0 2.011-0.128 2.43-0.384 0.49-0.28 0.601-0.784 0.332-1.51l-0.518-1.4c-0.152-0.412-0.332-0.734-0.539-0.965-0.627-0.71-1.819-1.064-3.574-1.064h-6.4l0.99 2.673h3.686l-0.316-0.854h2.187l0.651 1.758h-2.856c-2.147 0-2.986 0.632-2.519 1.894l0.536 1.449c0.241 0.652 0.691 1.122 1.352 1.411 0.614 0.273 1.468 0.409 2.561 0.409z"/><path d="m335.88 105.55h12.273l-0.954-2.58h-2.754l0.28 0.76h-1.438l-1.887-5.101h0.932l-0.673-1.819h-5.752l0.673 1.819h0.931l1.888 5.101h-1.438l-0.281-0.76h-2.754l0.954 2.58z"/><path d="m345.2 98.627 4.525 6.921h6.217l-0.67-8.741h-3.981l0.281 2.13h-2.409l-1.275-2.13h-4.415l0.674 1.82h1.053z"/><path d="m352.08 100.45 0.465 3.665-2.267-3.665h1.802z"/><path d="m358.33 103.73 0.673 1.82h5.712l-0.674-1.82h-0.911l-1.887-5.1h1.741l0.573 1.547h3.645l-1.246-3.367h-10.187l0.163 1.82h1.422l1.887 5.1h-0.911z"/><path d="m292.89 110.16h9.93l-1.758-5.328h-3.809l0.542 1.546h-6.412l-2.88-8.639h6.413l0.655 1.998h3.997l-2.005-6.076h-10.235c-0.919 0-1.563 0.054-1.932 0.163-0.853 0.249-1.309 0.779-1.369 1.589-0.032 0.468 0.095 1.137 0.383 2.01l0.597 1.81c0.104 0.451 1.533 4.972 1.833 5.554l0.455 1.376c0.725 2.198 1.927 3.483 3.609 3.857 0.421 0.093 1.082 0.14 1.986 0.14z"/></g></g><g stroke="#006f71" stroke-width="0.32" fill="#fff"><path d="m305.62 105.55h2.795c0.837 0 1.458-0.038 1.863-0.112 0.758-0.14 1.173-0.458 1.247-0.953 0.041-0.289-0.063-0.772-0.314-1.449l-1.337-3.614c-0.254-0.685-0.493-1.169-0.718-1.449-0.402-0.503-1-0.842-1.793-1.015-0.456-0.099-1.136-0.148-2.04-0.148h-2.593c-0.972 0-1.703 0.065-2.195 0.197-0.658 0.19-0.992 0.529-1.001 1.016 0 0.181 0.076 0.478 0.228 0.891l1.581 4.271c0.247 0.669 0.527 1.151 0.839 1.448 0.42 0.405 0.979 0.673 1.676 0.805 0.391 0.074 0.979 0.112 1.762 0.112zm0.072-6.921 1.888 5.101h-2.127l-1.887-5.101h2.126" fill-rule="evenodd"/><path d="m315.1 105.55h6.218l-0.556-6.921h0.972l-0.673-1.819h-4.395l0.282 2.129h-2.411l-1.273-2.129h-3.903l5.739 8.74zm2.103-5.101 0.464 3.665-2.267-3.665h1.803" fill-rule="evenodd"/><path d="m328.25 105.55h6.299l-0.953-2.575h-3.463l0.279 0.755h-2.187l-0.591-1.597h2.613c1.201 0 2.011-0.128 2.43-0.384 0.49-0.28 0.601-0.784 0.332-1.51l-0.518-1.4c-0.152-0.412-0.332-0.734-0.539-0.965-0.627-0.71-1.819-1.064-3.574-1.064h-6.4l0.99 2.673h3.686l-0.316-0.854h2.187l0.651 1.758h-2.856c-2.147 0-2.986 0.632-2.519 1.894l0.536 1.449c0.241 0.652 0.691 1.122 1.352 1.411 0.614 0.273 1.468 0.409 2.561 0.409"/><path d="m335.88 105.55h12.273l-0.954-2.58h-2.754l0.28 0.76h-1.438l-1.887-5.101h0.932l-0.673-1.819h-5.752l0.673 1.819h0.931l1.888 5.101h-1.438l-0.281-0.76h-2.754l0.954 2.58"/><path d="m345.2 98.627 4.525 6.921h6.217l-0.67-8.741h-3.981l0.281 2.13h-2.409l-1.275-2.13h-4.415l0.674 1.82h1.053zm6.884 1.82 0.464 3.664-2.267-3.664h1.803" fill-rule="evenodd"/><path d="m358.33 103.73 0.673 1.82h5.712l-0.674-1.82h-0.911l-1.887-5.1h1.741l0.573 1.547h3.645l-1.246-3.367h-10.187l0.163 1.82h1.422l1.887 5.1h-0.911"/><path d="m292.89 110.16h9.93l-1.758-5.328h-3.809l0.542 1.546h-6.412l-2.88-8.639h6.413l0.655 1.998h3.997l-2.005-6.076h-10.235c-0.919 0-1.563 0.054-1.932 0.163-0.853 0.249-1.309 0.779-1.369 1.589-0.032 0.468 0.095 1.137 0.383 2.01l0.597 1.81c0.104 0.451 1.533 4.972 1.833 5.554l0.455 1.376c0.725 2.198 1.927 3.483 3.609 3.857 0.421 0.093 1.082 0.14 1.986 0.14"/></g><path d="m32.338 38.043c-0.48375 0-0.83469 0.01844-1.0547 0.05469-0.87875 0.1475-1.4505 0.65453-1.7168 1.5195l-1.0566 3.4414c-0.105 0.34375-0.13555 0.60726-0.0918 0.79102 0.0775 0.31875 0.34906 0.52945 0.82031 0.62695 0.20375 0.0425 0.55172 0.06445 1.043 0.06445h3.6289l0.73242-2.3926h-2.1387l-0.32031 1.0391h-1.3125l1.1641-3.793h1.3145l-0.22852 0.74609h2.0391l0.64258-2.0977h-3.4648zm4.9883 0-0.41406 1.3516h0.57422l-1.1621 3.793h-0.57617l-0.41406 1.3535h2.9629l0.80273-2.6152h1.252l-0.80273 2.6152h2.9902l0.41406-1.3535h-0.57422l1.1641-3.793h0.57422l0.41406-1.3516h-2.9883l-0.77539 2.5215h-1.25l0.77539-2.5215h-2.9668zm10.281 0-2.791 5.1465h-0.65234l-0.41406 1.3516h2.7266l0.78516-1.582h1.4883l-0.17188 1.582h2.7148l0.41602-1.3516h-0.60156l0.3418-5.1465h-3.8418zm6.918 0-0.41602 1.3516h0.57422l-1.1621 3.793h-0.57617l-0.41602 1.3535h2.7402l0.92188-3.168c0.06875-0.22 0.11297-0.42172 0.13672-0.60547 0.04375 0.39875 0.15578 0.81219 0.33203 1.2422l1.0234 2.5312h2.8145l0.41602-1.3535h-0.57617l1.1641-3.793h0.57422l0.41602-1.3516h-2.7012l-0.80078 2.6055c-0.13125 0.42875-0.22852 0.82781-0.29102 1.1953-0.04375-0.31875-0.1268-0.63547-0.24805-0.94922l-1.0996-2.8516h-2.8262zm9.3027 0-0.73828 2.4023h1.7031l0.32226-1.0508h0.88672l-1.1641 3.793h-0.57422l-0.41602 1.3535h3.5527l0.41602-1.3535h-0.57617l1.1641-3.793h0.88867l-0.32422 1.0508h1.7012l0.73828-2.4023h-7.5801zm8.9043 0-0.41406 1.3516h0.57422l-1.1621 3.793h-0.57617l-0.41602 1.3535h3.5781l0.41602-1.3535h-0.58789l1.1641-3.793h0.58789l0.41406-1.3516h-3.5781zm7.5293 0c-0.48375 0-0.83469 0.01844-1.0547 0.05469-0.87875 0.1475-1.4505 0.65453-1.7168 1.5195l-1.0566 3.4414c-0.105 0.34375-0.13875 0.60726-0.09375 0.79102 0.07625 0.31875 0.35031 0.52945 0.82031 0.62695 0.20375 0.0425 0.55242 0.06445 1.0449 0.06445h3.627l0.73438-2.3926h-2.1387l-0.32031 1.0391h-1.3125l1.1641-3.793h1.3145l-0.22852 0.74609h2.0391l0.64258-2.0977h-3.4648zm5.0137 0-0.41406 1.3516h0.5625l-1.1641 3.793h-0.5625l-0.41602 1.3535h6.293l0.76758-2.5039h-2.252l-0.35352 1.1504h-1.0762l1.166-3.793h0.5625l0.41406-1.3516h-3.5273zm7.791 0-0.41406 1.3516h0.57617l-1.166 3.793h-0.57422l-0.41406 1.3535h6.3652l0.67383-2.1914h-2.1523l-0.25781 0.83789h-1.2754l0.41797-1.3633h1.8008l0.36719-1.1953h-1.8008l0.37891-1.2344h1.2773l-0.23828 0.77344h2.0137l0.65234-2.125h-6.2305zm7.8164 0-0.41406 1.3516h0.57617l-1.166 3.793h-0.57422l-0.41602 1.3535h6.3672l0.67383-2.1914h-2.1524l-0.25781 0.83789h-1.2754l0.41797-1.3633h1.8008l0.36719-1.1953h-1.8008l0.3789-1.2344h1.2754l-0.23632 0.77344h2.0137l0.65234-2.125h-6.2305zm7.8301 0-0.41797 1.3516h0.56446l-1.1641 3.793h-0.5625l-0.41601 1.3535h2.9902l0.81055-2.6426h1.3516l-0.60547 1.9707c-0.0875 0.2825-0.0423 0.46805 0.12891 0.56055 0.14375 0.0725 0.4564 0.11133 0.9414 0.11133h1.6621l0.41602-1.3535h-0.58789l0.21484-0.69922c0.175-0.57 0.0363-0.94398-0.41992-1.1152-0.0812-0.03-0.22664-0.06211-0.43164-0.09961 0.60875-0.135 1.0415-0.35656 1.3027-0.66406 0.16875-0.19625 0.33344-0.55141 0.49219-1.0664 0.0862-0.2825 0.12891-0.49195 0.12891-0.62695 0.004-0.58375-0.59563-0.87305-1.7969-0.87305h-4.6016zm10.83 0c-0.675 0-1.2013 0.10023-1.5801 0.30273-0.40875 0.215-0.68719 0.56383-0.83594 1.0488l-0.33203 1.0781c-0.2875 0.93875 0.23235 1.4082 1.5586 1.4082h1.7637l-0.40235 1.3066h-1.3496l0.19336-0.63477h-2.2773l-0.60937 1.9883h3.9531c1.0838 0 1.8195-0.26547 2.207-0.79297 0.1275-0.17125 0.23828-0.41055 0.33203-0.7168l0.32032-1.0391c0.16624-0.54 0.0955-0.91625-0.20704-1.125-0.25875-0.19-0.7575-0.28516-1.5-0.28516h-1.6133l0.36328-1.1875h1.3516l-0.17188 0.5625h2.1387l0.58789-1.9141h-3.8906zm-70.348 1.0664-0.28711 2.7266h-1.1133l1.4004-2.7266zm62.09 0.28516h1.3516l-0.39453 1.2891h-1.3516l0.39454-1.2891z" transform="matrix(.8 0 0 -.8 281.5 112.83)" fill="#a27752"/></g></g></svg>
