<?xml version="1.0" encoding="UTF-8" standalone="no"?>
<!-- Created with Inkscape (http://www.inkscape.org/) -->

<svg
   version="1.1"
   id="svg2"
   width="102.16533"
   height="72.806824"
   viewBox="0 0 102.16533 72.806824"
   xmlns="http://www.w3.org/2000/svg"
   xmlns:svg="http://www.w3.org/2000/svg">
  <defs
     id="defs6" />
  <g
     id="g12204"
     transform="matrix(1.3333333,0,0,-1.3333333,-927.54411,527.29239)">
    <g
       aria-label="FOOTBALL"
       transform="matrix(1,0,0,-1,706.5142,340.981)"
       id="text6214"
       style="font-weight:300;font-size:8.25px;font-family:'Rubik Light';-inkscape-font-specification:Rubik-Light;fill:#011e41">
      <path
         d="m 1.0070801,-6.0142822 h 3.0494385 v 0.3343506 H 1.4139404 v 2.3082275 h 2.3847657 v 0.3262939 H 1.4139404 V 0 H 1.0070801 Z"
         id="path11975" />
      <path
         d="m 11.310621,-5.055542 q -0.580078,-0.7532959 -1.5670163,-0.7532959 -0.9869385,0 -1.571045,0.7532959 -0.5800781,0.7532959 -0.5800781,2.0544434 0,1.2930908 0.5800781,2.04638669 0.5841065,0.75329589 1.571045,0.75329589 0.9869383,0 1.5670163,-0.75329589 0.57605,-0.75329589 0.57605,-2.04638669 0,-1.3011475 -0.57605,-2.0544434 z M 9.7436047,-6.1230469 q 1.1682133,0 1.8691403,0.8459473 0.700928,0.8499756 0.700928,2.276001 0,1.421997 -0.700928,2.2679443 -0.700927,0.84997559 -1.8691403,0.84997559 -1.1722413,0 -1.8771973,-0.84594727 -0.7009277,-0.84594722 -0.7009277,-2.27197262 0,-1.4260254 0.7009277,-2.276001 0.704956,-0.8459473 1.8771973,-0.8459473 z"
         id="path11977" />
      <path
         d="m 18.628371,-5.055542 q -0.580078,-0.7532959 -1.567016,-0.7532959 -0.986939,0 -1.571045,0.7532959 -0.580078,0.7532959 -0.580078,2.0544434 0,1.2930908 0.580078,2.04638669 0.584106,0.75329589 1.571045,0.75329589 0.986938,0 1.567016,-0.75329589 0.57605,-0.75329589 0.57605,-2.04638669 0,-1.3011475 -0.57605,-2.0544434 z m -1.567016,-1.0675049 q 1.168213,0 1.86914,0.8459473 0.700928,0.8499756 0.700928,2.276001 0,1.421997 -0.700928,2.2679443 -0.700927,0.84997559 -1.86914,0.84997559 -1.172242,0 -1.877198,-0.84594727 -0.700927,-0.84594722 -0.700927,-2.27197262 0,-1.4260254 0.700927,-2.276001 0.704956,-0.8459473 1.877198,-0.8459473 z"
         id="path11979" />
      <path
         d="m 21.218775,-6.0142822 h 4.67688 V -5.68396 h -2.13501 V 0 h -0.40686 v -5.68396 h -2.13501 z"
         id="path11981" />
      <path
         d="m 29.096718,-2.9970703 v 2.67077635 h 1.51062 q 0.765381,0 1.135986,-0.33032226 0.370606,-0.32629395 0.370606,-1.00708009 0,-0.6848144 -0.370606,-1.0070801 -0.370605,-0.3262939 -1.135986,-0.3262939 z m 0,-2.6868897 v 2.3565674 h 1.409912 q 0.692871,0 1.03125,-0.290039 0.338379,-0.2900391 0.338379,-0.8942871 0,-0.5921631 -0.338379,-0.8781739 Q 31.199501,-5.68396 30.50663,-5.68396 Z m -0.402832,-0.3303222 h 1.873169 q 0.825805,0 1.272949,0.3867187 0.447144,0.3867188 0.447144,1.0997315 0,0.5881347 -0.229615,0.8781738 -0.253784,0.3222656 -0.612304,0.4390869 0.519653,0.1369629 0.781494,0.50354 0.294067,0.4108887 0.294067,1.0231934 0,0.80566407 -0.487427,1.24475099 Q 31.545937,0 30.647621,0 h -1.953735 z"
         id="path11983" />
      <path
         d="m 37.646858,-5.6074219 -1.289062,3.3837891 h 2.557983 z m -0.257812,-0.4068603 h 0.52771 L 40.216927,0 H 39.757698 L 39.040657,-1.8892822 H 36.232918 L 35.519905,0 h -0.427002 z"
         id="path11985" />
      <path
         d="m 43.205006,-6.0142822 h 0.402832 v 5.68395993 h 2.928589 V 0 h -3.331421 z"
         id="path11987" />
      <path
         d="m 49.574005,-6.0142822 h 0.402832 v 5.68395993 h 2.928589 V 0 h -3.331421 z"
         id="path11989" />
    </g>
    <path
       d="m 734.4921,386.9173 8.336,-12.596 h -16.672 z m 28.049,-24.74 -22.462,33.292 h -23.859 l -5.734,-8.513 h 12.964 l -16.698,-24.779 h -5.36 l -5.734,-8.514 h 28.004 l 5.609,8.514 h -11.151 l 2.782,4.204 h 23.052 l 2.083,3.09 4.827,-7.294 h -6.071 l -5.733,-8.514 h 27.613 l 5.609,8.514 z"
       style="fill:#c7b784;fill-opacity:1;fill-rule:nonzero;stroke:none"
       id="path6218" />
    <path
       d="m 723.2829,372.7771 10.405,15.723 h 1.608 l 10.406,-15.723 z m 38.437,-12.144 -22.415,33.223 -0.047,0.069 h -22.216 l -3.654,-5.425 h 12.965 l -18.78,-27.867 h -5.359 l -3.654,-5.425 h 24.271 l 3.574,5.425 h -11.159 l 4.826,7.292 h 23.061 l 2.916,4.326 7.689,-11.618 h -8.123 l -3.654,-5.425 h 23.88 l 3.575,5.425 z"
       style="fill:#011e41;fill-opacity:1;fill-rule:nonzero;stroke:none"
       id="path6222" />
  </g>
</svg>
