<?xml version="1.0" encoding="UTF-8" standalone="no"?>
<svg xmlns:rdf="http://www.w3.org/1999/02/22-rdf-syntax-ns#" xmlns="http://www.w3.org/2000/svg" enable-background="new 108.156 102.588 144.454 185.179" xml:space="preserve" height="187.18" viewBox="108.156 102.588 146.67434 187.17786" width="146.67" version="1.0" y="0px" x="0px" xmlns:cc="http://creativecommons.org/ns#" xmlns:dc="http://purl.org/dc/elements/1.1/"><g transform="translate(1.0202 .97915)"><path id="path6150_4_" d="m228.31 242.84m-118.65-138.65c0.003 20.344 0.007 40.688 0.01 61.031 0.002 15.752 1.949 31.004 6.855 46.024 6.288 19.249 18.007 40.454 34.038 53.393 9.442 7.62 18.93 15.348 29.488 21.396 10.251-5.874 19.679-12.981 28.416-20.919 16.205-14.722 27.929-33.135 35.447-53.659 9.403-25.671 7.18-53.416 7.188-80.286 0.003-9.028 0.006-18.056 0.009-27.084-47.149 0.035-94.3 0.069-141.45 0.104z" stroke="#000" stroke-width="3" fill="#0279a0"/><path d="m134.84 236.96v0.0105c0.0736-0.0368 0.042-0.0158 0-0.0105" fill="#25408f"/><path d="m224.07 174.27v-6.7069s-8.7621 3.8686-23.795 1.7188c-14.26-2.0289-20.205 1.8922-20.205 1.8922s-5.9448-3.9211-20.205-1.8922c-21.619 3.0854-25.929-2.6596-23.8-1.7188v6.7069h-4v50.833h41.482s2.0079 2.5598 6.5229 2.5598c4.5203 0 6.5072-2.5598 6.5072-2.5598h41.513v-50.833h-4.021z" stroke="#000" stroke-width="2.3653" fill="#e3961b"/><path d="m127.3 108.03s-2.7645 8.1207-3.2695 9.5977c-1.524-0.3-9.9492-1.9707-9.9492-1.9707s5.6548 6.4639 6.6738 7.6309c-1.02 1.172-6.6738 7.6367-6.6738 7.6367s8.4252-1.6696 9.9492-1.9746c0.505 1.472 3.2695 9.5977 3.2695 9.5977s2.7695-8.1257 3.2695-9.5977c1.524 0.305 9.9512 1.9746 9.9512 1.9746s-5.6616-6.4647-6.6816-7.6367c1.02-1.167 6.6816-7.6309 6.6816-7.6309s-8.4272 1.6707-9.9512 1.9707c-0.5-1.477-3.2695-9.5977-3.2695-9.5977zm39.598 64.24c-2.0053 0.0307-4.3272 0.19035-7.0059 0.53516-14.286 1.856-20.32-0.0742-20.32-0.0742v44.227s5.1466 3.2895 19.434 1.4395c14.286-1.844 19.322 1.6035 19.322 1.6035v-45.588s-2.7401-2.2756-11.43-2.1426zm53.693 0.0352s-6.0294 2.3869-20.314 0.54688c-14.288-1.844-18.434 1.6035-18.434 1.6035v45.588s5.0412-3.4474 19.326-1.6074c14.281 1.85 19.422-1.4473 19.422-1.4473v-44.684z" stroke="#000" fill="#fff"/><path id="path6098_2_" d="m247.08 245.75-0.17346 0.042" stroke="#ae8f3f" stroke-width="5.2562" fill="#006"/><g><path d="m209.3 187.32" stroke="#0c2340" stroke-width="0.45" fill="#7b6210"/><path d="m138.91 187.32" stroke="#0c2340" stroke-width="0.45" fill="#7b6210"/><path id="path6150_3_" d="m139.24 242.24c-3.9182 0-6.041 0.83399-6.041 0.83399l8.3379 11.014c7.3904 0.005 8.6292 4.6758 18.217 4.6758 8.0648 0 9.8482-5.0606 19.686-5.0606 9.8422 0 11.615 5.0606 19.674 5.0606 9.5944 0 10.879-4.5145 18.307-4.5195l8.1465-11.146c0.007 0-0.33008-0.0977-0.33008-0.0977s-1.7007-0.74023-5.5879-0.74023c-8.229 0-10.697 5.0566-20.523 5.0566-5.9502 0-8.343-3.4628-13.363-4.1914-3.1253-0.45634-9.4978-0.46493-12.625-0.0176-5.0338 0.71957-7.4277 4.1875-13.383 4.1875-9.8228 0-12.285-5.0547-20.514-5.0547zm40.84 21.891c-9.6415 0-11.388 5.0644-19.291 5.0644 0 0-1.9267-0.0895-2.8476-0.30078-0.38954-0.0856-0.73447-0.21597-1.0625-0.37305l12.535 10.488c3.0989-1.4579 4.9311-3.6895 10.668-3.6895 5.6874 0 7.646 1.8429 10.734 3.3008l12.029-9.9062c-0.1925 0.0693-0.39562 0.13041-0.61914 0.17969-0.92662 0.21128-2.8652 0.30078-2.8652 0.30078-7.8977 0-9.635-5.0644-19.281-5.0644zm22.766 4.584c1.411-0.50823 2.1118-1.557 3.875-3.1914l-3.875 3.1914zm-45.967-0.19336-3.7598-3.1465c1.584 1.4706 2.5191 2.5524 3.7598 3.1465z" stroke="#000" stroke-width="0.9" fill="#fff"/><path d="m158.9 181.51c-0.058 0-0.11572 0.01-0.13672 0.0469-0.084 0.447-0.26937 1.2445-0.48437 1.9375 0.057 0.121 0.31139 0.16799 0.40039 0.084 0.462-1.046 0.79259-1.1816 1.9336-1.1816h0.69922c0.32 0 0.33008 0.0306 0.33008 0.56055v5.5156c0 1.357-0.12122 1.3929-0.69922 1.4609l-0.51953 0.0527c-0.085 0.068-0.0737 0.31505 0.0312 0.37305 0.789-0.036 1.3781-0.0469 1.9141-0.0469 0.547 0 1.0982 0.0109 1.8242 0.0469 0.095-0.058 0.10548-0.28305 0.0215-0.37305l-0.44727-0.0527c-0.578-0.068-0.6875-0.10494-0.6875-1.4609v-5.5156c0-0.53-0.001-0.56055 0.33985-0.56055h0.69336c1.33 0 1.5666 0.25309 1.7246 1.2461 0.105 0.089 0.32567 0.0629 0.38867-0.0371-0.048-0.415 0.0638-1.5093 0.17383-2.0293-0.011-0.052-0.0792-0.0664-0.15821-0.0664-0.042 0-0.10058 0.0159-0.14258 0.0469-0.158 0.305-0.33617 0.34179-0.95117 0.34179h-5.0508c-0.835 0-1.0093-0.0218-1.0723-0.34179-0.026-0.037-0.072-0.0469-0.125-0.0469zm11.066 0.17578c-0.026 0-0.45253 0.52428-0.89453 0.61328 0.032 0.211-0.0781 0.52079-0.2461 0.92579l-1.7461 4.5527c-0.268 0.683-0.47714 1.2178-0.61914 1.5488-0.189 0.421-0.33085 0.54347-0.71485 0.60547l-0.3789 0.0527c-0.089 0.11-0.0792 0.30504 0.01 0.37304 0.458-0.031 0.85172-0.0469 1.2617-0.0469 0.525 0.016 0.94118 0.0159 1.3672 0.0469 0.1-0.058 0.11135-0.28304 0.0273-0.37304l-0.375-0.0527c-0.478-0.073-0.52543-0.11019-0.27343-0.86719l0.45895-1.3457c0.131-0.336 0.163-0.33594 0.5-0.33594h1.6914c0.363 0 0.47251-0.00006 0.60351 0.33594l0.52149 1.5469c0.168 0.557 0.1212 0.63488-0.3418 0.67188l-0.27344 0.0469c-0.074 0.079-0.062 0.30504 0.043 0.37304 0.437-0.026 1.0196-0.0469 1.5606-0.0469 0.652 0 1.1304 0.0159 1.6504 0.0469 0.1-0.068 0.0995-0.28304-0.0215-0.37304l-0.1836-0.0469c-0.663-0.11-0.71491-0.19964-1.0039-1.0566l-1.8301-5.3516c-0.215-0.573-0.37899-1.1611-0.58399-1.7441-0.042-0.058-0.11498-0.0996-0.20898-0.0996zm44.271 0.002c-2.423 0-4.1465 1.9304-4.1465 4.5254 0 2.266 1.5081 4.3008 4.1211 4.3008 2.344 0 4.0684-1.8665 4.0684-4.3945 0-2.318-1.367-4.4316-4.043-4.4316zm-20.295 0.17188c-0.109 0.042-0.11416 0.26828-0.0352 0.36328l0.19336 0.0215c0.6 0.094 0.70508 0.13133 0.70508 1.4863v4.7422c0 1.357-0.10508 1.3949-0.70508 1.4629l-0.45117 0.0508c-0.084 0.084-0.0648 0.31505 0.0312 0.37305 0.557-0.036 1.3156-0.0469 1.8516-0.0469h1.4121c0.737 0 1.1677 0.00072 1.6777 0.0117 0.521 0 0.74091 0.0102 1.0039 0.0352 0.185-0.357 0.45797-1.3174 0.54297-1.8594-0.085-0.13-0.30039-0.17236-0.40039-0.0684-0.442 1.025-0.53157 1.399-2.1016 1.373-1.036 0-1.0568-0.0953-1.2148-0.27929-0.19-0.221-0.2168-0.68408-0.2168-1.3301v-1.4609c0-0.322 0.016-0.35156 0.29297-0.35156h0.41602c1.072 0 1.3009 0.0306 1.3789 0.55664l0.0937 0.51562c0.084 0.063 0.32577 0.0634 0.38477-0.0156-0.021-0.405-0.043-0.85693-0.043-1.3359 0-0.489 0.022-0.93011 0.043-1.2871-0.059-0.089-0.30077-0.0897-0.38477-0.0117l-0.0937 0.42578c-0.078 0.568-0.3069 0.56836-1.3789 0.56836h-0.41602c-0.277 0-0.29297-0.00089-0.29297-0.33789v-2.3066c0-0.725 0.001-0.75782 0.53125-0.75782h0.64649c0.331 0 0.7039 0.0332 1.0039 0.11719 0.383 0.104 0.58235 0.4243 0.77735 1.1543 0.084 0.084 0.3479 0.0631 0.3789-0.0469-0.057-0.546-0.13745-1.5567-0.18945-1.7617-0.159 0.016-0.8835 0.0371-1.6875 0.0371h-2.166c-0.267 0-0.55646-0.00049-0.81446-0.0215-0.289 0-0.54644-0.005-0.77344-0.0156zm-49.588 0.002c-0.11 0.032-0.11011 0.25265-0.0371 0.34765l0.30078 0.0586c0.526 0.11 0.63542 0.28263 0.98242 1.1406l2.1914 5.3672c0.236 0.542 0.42698 1.1616 0.58398 1.6816 0.063 0.037 0.15038 0.0586 0.23438 0.0586 0.1 0 0.19579-0.0206 0.21679-0.0586 0.215-0.651 0.8036-2.1496 1.3086-3.3066l0.69922-1.582c0.578-1.293 0.93106-2.1448 1.2891-2.7598 0.221-0.368 0.4892-0.45748 0.7832-0.52148l0.32032-0.0625c0.052-0.11 0.0796-0.30529-0.0254-0.36329-0.352 0.017-0.77371 0.0332-1.2207 0.0332-0.415 0-0.84132-0.0172-1.3613-0.0332-0.089 0.059-0.10962 0.25329-0.0156 0.36329l0.36329 0.0781c0.373 0.095 0.41398 0.20593 0.20898 0.71093-0.667 1.745-1.4136 3.5047-2.1016 5.0977-0.121-0.284-0.46346-1.0413-0.68946-1.6133l-0.9082-2.2656c-0.504-1.304-0.60937-1.581-0.60937-1.707 0-0.101 0.10381-0.15951 0.38281-0.22851l0.31055-0.0723c0.116-0.101 0.0945-0.29529-0.0215-0.36329-0.662 0.017-1.0932 0.0332-1.6562 0.0332-0.489 0-1.0303-0.0172-1.5293-0.0332zm9.7422 0.002c-0.1 0.042-0.11221 0.26328-0.0332 0.36328l0.26953 0.0254c0.589 0.084 0.69922 0.12642 0.69922 1.4824v4.7402c0 1.352-0.11122 1.3929-0.69922 1.4609l-0.26953 0.0469c-0.078 0.09-0.0668 0.31505 0.0332 0.37305 0.536-0.031 1.1079-0.041 1.6699-0.041 0.541 0 1.0984 0.01 1.6504 0.041 0.095-0.058 0.10072-0.28305 0.0117-0.37305l-0.26367-0.0469c-0.589-0.068-0.69922-0.10893-0.69922-1.4609v-4.7402c0-1.356 0.11022-1.3984 0.69922-1.4824l0.26367-0.0254c0.089-0.099 0.0833-0.32128-0.0117-0.36328-0.551 0.016-1.1084 0.0312-1.6504 0.0312-0.578 0-1.1339-0.0143-1.6699-0.0312zm49.871 0c-1.161 0-1.8758 0.0298-2.7168 0.0937-0.1 0.073-0.10048 0.29528-0.0215 0.36328l0.2461 0.0312c0.562 0.074 0.5625 0.22217 0.5625 1.4512v4.668h0.002c0 1.355-0.10235 1.3958-0.65235 1.4648l-0.26367 0.0488c-0.073 0.089-0.0567 0.31505 0.0273 0.37305 0.52-0.032 1.0513-0.0488 1.4863-0.0488 0.232 0 0.46881 0.0168 0.75781 0.0488 0.289 0.005 0.37823 0.0312 0.74023 0.0312 1.067 0 1.877-0.15238 2.707-0.60938 1.462-0.805 2.1191-2.2657 2.1191-3.6797 0-1.893-0.99507-3.2592-2.4141-3.8262-0.852-0.326-1.4711-0.41016-2.5801-0.41016zm-13.676 0.043c-1.108 0-2.2251 0.35029-3.0391 1.0293-0.815 0.693-1.3867 1.793-1.3867 3.207 0 1.593 0.67154 2.6958 1.5605 3.3418 0.788 0.558 1.7284 0.79883 2.8164 0.79883 0.715 0 1.4738-0.1982 1.7148-0.2832 0.132-0.031 0.25196-0.0884 0.37696-0.10938 0.153-0.23 0.44639-1.03 0.52539-1.834-0.048-0.111-0.23031-0.16969-0.32031-0.0547-0.305 0.789-0.90788 1.8106-2.2969 1.8106-1.418 0-2.875-1.2746-2.875-3.8496 0-2.475 1.4147-3.5684 2.8027-3.5684 1.45 0 1.9349 1.0106 2.1289 1.7676 0.079 0.084 0.2738 0.0785 0.3418-0.0215-0.101-0.904-0.12635-1.6084-0.15235-1.8984-0.101-0.026-0.16964-0.0314-0.30664-0.0684-0.504-0.148-1.2706-0.26758-1.8906-0.26758zm23.789 0.28711c1.845 0 2.627 2.2432 2.627 4.1562 0 2.565-1.061 3.6523-2.375 3.6523-1.987 0-2.666-2.3951-2.666-4.1621 0-2.717 1.2681-3.6465 2.4141-3.6465zm-10.029 0.17383c1.951 0 3.3106 1.2193 3.3106 3.7363 0 2.171-0.95511 3.7695-3.0371 3.7695-1.24 0-0.92578-0.66234-0.92578-1.9023v-4.4883c0-0.604 0.0175-0.86741 0.10547-0.94141 0.068-0.078 0.0479-0.17382 0.54687-0.17382zm-34.795 1.373h0.0312c0.053 0.095 0.12956 0.32967 0.35156 1.0137l0.53711 1.5195c0.158 0.458 0.0634 0.52734-0.31054 0.52734h-1.3184c-0.305 0-0.42608-0.0127-0.20508-0.55469l0.53516-1.4922c0.226-0.6 0.3269-0.91867 0.3789-1.0137zm22.531 12.188c-1.803 0-2.7285 1.077-2.7285 2.334 0 1.145 0.811 1.9132 1.75 2.4492l0.53711 0.31054c0.925 0.542 1.25 1.1253 1.25 1.8613 0 0.772-0.52447 1.3594-1.4805 1.3594-1.194 0-1.8668-1.3617-2.0938-2.0137-0.084-0.089-0.30482-0.083-0.38282 0.043-0.006 0.799 0.15782 1.6763 0.38282 1.9453 0.243 0.157 0.87939 0.54583 2.0254 0.54883 1.787 0 2.8594-1.0522 2.8594-2.4922 0-1.293-0.87873-2.0967-1.6777-2.5117l-0.77344-0.4375c-0.831-0.431-1.1875-1.0149-1.1875-1.5449 0-0.684 0.4092-1.3457 1.4082-1.3457 1.052 0 1.4887 0.86044 1.6777 1.5234 0.106 0.089 0.32653 0.068 0.39453-0.043 0-0.604-0.13167-1.4395-0.26367-1.7285-0.578-0.101-1.0513-0.25781-1.6973-0.25781zm21.73 0c-1.808 0-2.7285 1.077-2.7285 2.334 0 1.145 0.81985 1.9132 1.7558 2.4492l0.54688 0.31054c0.904 0.542 1.25 1.1253 1.25 1.8613 0 0.772-0.54656 1.3594-1.4766 1.3594-1.219 0-1.8704-1.3617-2.1074-2.0137-0.105-0.089-0.31091-0.083-0.37891 0.043-0.022 0.799 0.13719 1.6763 0.36719 1.9453 0.253 0.157 0.88906 0.54583 2.0391 0.54883 1.792 0 2.8711-1.0522 2.8711-2.4922 0-1.293-0.90022-2.0967-1.6992-2.5117l-0.77734-0.4375c-0.815-0.431-1.1719-1.0149-1.1719-1.5449 0-0.684 0.40457-1.3457 1.3926-1.3457 1.052 0 1.4977 0.86044 1.6777 1.5234 0.116 0.089 0.34253 0.068 0.39453-0.043 0-0.604-0.12067-1.4395-0.26367-1.7285-0.572-0.101-1.0494-0.25781-1.6914-0.25781zm-57.762 0.16992c-0.105 0.047-0.11134 0.25671-0.0273 0.34571l0.21094 0.0488c0.589 0.079 0.69922 0.12556 0.69922 1.4766h-0.004v3.2383c0 1.282 0.2544 2.1803 0.8164 2.7383 0.579 0.556 1.3756 0.81445 2.5586 0.81445 0.836 0 1.7781-0.25203 2.4141-0.95703 0.641-0.715 0.81445-1.7803 0.81445-2.9473v-1.5352c0-0.988 0.00069-2.1231 0.17969-2.4961 0.084-0.205 0.31392-0.26327 0.54492-0.32227l0.27344-0.0508c0.1-0.095 0.0746-0.29551-0.0254-0.35351-0.457 0.015-0.79431 0.0312-1.3203 0.0312-0.478 0-0.94938-0.0152-1.3594-0.0312-0.131 0.032-0.14834 0.25851-0.0273 0.35351l0.24219 0.041c0.316 0.042 0.51609 0.13203 0.62109 0.33203 0.226 0.362 0.23047 1.5561 0.23047 2.4961v1.6074c0 1.939-0.66615 3.2012-2.2852 3.2012-1.724 0-2.2344-1.4862-2.2344-3.2422v-2.918c0-1.351 0.10559-1.3986 0.6836-1.4766l0.27343-0.0488c0.095-0.089 0.0727-0.2987-0.0273-0.3457-0.536 0.015-1.0982 0.0293-1.6602 0.0293-0.541 0-1.0928-0.0133-1.5918-0.0293zm9.5625 0c-0.116 0.047-0.11539 0.30114-0.0254 0.36914l0.34766 0.0352c0.583 0.101 0.6875 0.1368 0.6875 1.4668v4.7461c0 1.33-0.1045 1.3664-0.6875 1.4394l-0.36914 0.0586c-0.116 0.074-0.0785 0.33104 0.0215 0.37304 0.515-0.026 1.1357-0.0312 1.7617-0.0312h1.2871c0.704 0 1.3244 0.00086 1.8184 0.006 0.51 0 0.9034 0.0104 1.1504 0.0254 0.163-0.341 0.43125-1.3097 0.53125-1.8457-0.074-0.1-0.25168-0.13612-0.38868-0.0781-0.567 1.319-0.76653 1.3828-2.1445 1.3828-0.993 0-1.1882-0.10006-1.3242-0.28906-0.195-0.216-0.20507-0.66869-0.20507-1.3047v-4.4824c0-1.33 0.0956-1.3658 0.68359-1.4668l0.27148-0.0352c0.1-0.068 0.0905-0.32214-0.0195-0.36914-0.557 0.016-1.1101 0.0312-1.6621 0.0312-0.557 0-1.1194-0.0163-1.7344-0.0312zm32.762 0c-1.13 0-1.8771 0.0105-2.7441 0.10547-0.095 0.051-0.0955 0.27242-0.0215 0.35742l0.44141 0.0566c0.515 0.063 0.53125 0.26283 0.53125 1.4238v4.6719c0 1.346-0.10031 1.3885-0.69532 1.4785l-0.1875 0.0215c-0.1 0.095-0.0902 0.33104 0.01 0.37304 0.51501-0.025 1.0664-0.0312 1.6074-0.0312 0.536 0 1.0941 0.006 1.8301 0.0312 0.089-0.042 0.0984-0.27804 0.0254-0.37304l-0.45703-0.0527c-0.583-0.057-0.6875-0.0993-0.6875-1.4453v-5.5762c0-0.5 0.00024-0.53516 0.61524-0.53516 1.145 0 1.7871 0.89836 1.7871 1.9434s-0.41564 1.8864-1.5566 2.1074c-0.041 0.085-0.0374 0.24718 0.0586 0.32618 0.094 0.016 0.19368 0.0156 0.30468 0.0156 0.973 0 2.7695-0.54133 2.7695-2.4863 0-0.83-0.40979-1.5072-1.0508-1.9062-0.558-0.342-1.4241-0.50586-2.5801-0.50586zm4.6621 0c-0.115 0.042-0.12002 0.27624-0.041 0.36524l0.21484 0.0215c0.573 0.079 0.6836 0.12642 0.6836 1.4824v4.75h-0.002c0 1.346-0.1096 1.3883-0.6836 1.4453l-0.46679 0.0527c-0.084 0.095-0.0797 0.33105 0.0312 0.37305 0.547-0.026 1.2978-0.0312 1.8438-0.0312h1.4082c0.747 0 1.357 0.00086 1.873 0.006 0.515 0 0.77092 0.004 1.0449 0.0254 0.185-0.342 0.44063-1.3147 0.51563-1.8457-0.074-0.137-0.2843-0.16712-0.4043-0.0781-0.421 1.035-0.54228 1.3971-2.1133 1.3711-1.041 0-1.2545-0.0893-1.3965-0.27734-0.189-0.216-0.22265-0.66736-0.22265-1.3184v-1.4297c0-0.315 0.0218-0.34375 0.30078-0.34375h0.58398c1.094 0 1.3077 0.0265 1.3867 0.5625l0.084 0.50391c0.095 0.09 0.34153 0.0902 0.39453-0.01 0-0.399-0.0312-0.85171-0.0312-1.3457 0-0.457 0.0312-0.92058 0.0312-1.2676-0.053-0.105-0.29953-0.10485-0.39453-0.006l-0.084 0.42188c-0.079 0.557-0.29272 0.56055-1.3867 0.56055h-0.58398c-0.278 0-0.30078-0.005-0.30078-0.33008v-2.3594c0-0.736 0.001-0.75781 0.5371-0.75781h0.83008c0.33 0 0.71629 0.0215 0.98828 0.10547 0.39501 0.11 0.58811 0.42601 0.78711 1.166 0.101 0.085 0.34863 0.0583 0.39063-0.0527-0.079-0.553-0.14208-1.5448-0.20508-1.7598-0.147 0.01-0.87802 0.0293-1.666 0.0293h-2.3652c-0.262 0-0.55231 0.001-0.82031-0.0195-0.284 0-0.55072-0.005-0.76172-0.01zm-52.887 0.002c-1.13 0-2.0648 0.0305-2.8848 0.10352-0.1 0.058-0.10049 0.29542-0.0215 0.35742l0.24218 0.0312c0.542 0.068 0.5625 0.23117 0.5625 1.4512v4.6738c0 1.351-0.11048 1.3878-0.64648 1.4668l-0.25781 0.0312c-0.073 0.095-0.0725 0.33105 0.0215 0.37305 0.515-0.026 1.0298-0.0312 1.4668-0.0312 0.221 0 0.46896 0.005 0.75196 0.0312 0.273 0.021 0.57682 0.041 0.92382 0.041 1.051 0 2.0561-0.16628 2.8711-0.61328 1.435-0.81 2.0762-2.2609 2.0762-3.6699 0-1.907-0.98786-3.2585-2.3809-3.8145-0.836-0.342-1.6206-0.43164-2.7246-0.43164zm0.26953 0.50391c1.929 0 3.2637 1.23 3.2637 3.748 0 2.16-0.93937 3.7734-2.9844 3.7734-1.225 0-1.3144-0.67725-1.3144-1.9063v-4.4902c0-0.6 0.009-0.87217 0.0937-0.95117 0.079-0.068 0.4574-0.17383 0.9414-0.17383zm21.367 2.4297c0.002 0-1.0448-0.0728-1.2598 1.4102l-0.0215 0.0996 0.37891-0.0117 0.0312-0.0781c0.116-0.337 0.27125-0.74609 0.78125-0.74609 0.174 0 0.36891 0.0522 0.87891 0.2832l0.13086 0.0644c1.009 0.468 1.1354 0.51968 1.4824 0.51368 0.531 0.021 1.1667-0.42021 1.3027-1.4082l0.0117-0.0996-0.39062 0.006-0.0156 0.0684c-0.11 0.541-0.36807 0.79297-0.78907 0.79297-0.231-0.01-0.29887-0.0325-1.1719-0.4375-0.81-0.373-1.0706-0.45703-1.3496-0.45703z" stroke="#000" stroke-width=".5"/></g><path d="m132.42 242.82"/><path d="m168.31 110.57 5.498 9.5215v21.691h-28.047l-9.4609-5.4785v22.346l9.4609-5.4785h28.047l-0.2207 15.971s3.7654 0.5042 6.4824 2.0332c2.707-1.529 6.5312-2.041 6.5312-2.041l0.21094-15.963h28.027v0.002l9.4648 5.4766v-22.344l-9.4648 5.4766-28.027 0.0273v-21.719l5.498-9.5215h-24zm5.1504 115.13 0.1875 28.943s4.2556-0.96286 6.4024-0.98437c2.8276-0.0264 6.5293 0.79687 6.5293 0.79687l0.043-28.738s-1.5585 2.4853-6.6309 2.5059c-4.738 0.0205-6.5312-2.5234-6.5312-2.5234z" stroke="#000" stroke-width=".98976" fill="#e3961b"/><path d="m228.31 242.84"/></g></svg>
