<svg xmlns="http://www.w3.org/2000/svg" height="50" viewBox="0 0 208.69845 50.000068" width="208.7">
 <path fill="#c92939" d="m1.2248 1.0202v2.5488 2.5518h1.1982 1.2012v7.6494 7.6494h-1.2012-1.1982v2.5488 2.5518h5.8623 5.8623l-0.08789-2.4756c-0.08123-2.3075-0.1324-2.4829-0.76172-2.5723-0.64245-0.09124-0.67676-0.22446-0.67676-2.7744v-2.6777h4.2012 4.2012v2.6982c0 2.68-0.0055 2.7012-0.75 2.7012-0.74115 0-0.75 0.02883-0.75 2.5488v2.5518h5.71 5.7129l-0.08789-2.4756-0.08496-2.4756-0.97559-0.09375-0.97558-0.09375v-7.6113-7.6113l0.97558-0.09668 0.97559-0.09375 0.08496-2.4727 0.08789-2.4756h-5.7129-5.71v2.5488c0 2.52 0.0088 2.5518 0.75 2.5518 0.73755 0 0.75 0.039415 0.75 2.3994v2.3994h-4.2012-4.2012v-2.3789c0-2.2388 0.04155-2.3854 0.67676-2.4756 0.62932-0.089376 0.68048-0.26185 0.76172-2.5693l0.08789-2.4756h-5.8623-5.8623zm36.568 0-2.373 2.0244-2.373 2.0244-0.01172 8.6104-0.01172 8.6074 2.4434 2.1182h0.0029l2.4434 2.1152h7.0371 7.0371l2.3584-2.0244 2.3584-2.0273 0.01172-8.7422 0.0088-8.7422-2.3261-1.9805-2.3232-1.9775-7.1426-0.00295-7.1396-0.00295zm22.23 0v2.5488 2.5518h1.3506 1.3506v8.2002 8.2002l2.3232 1.9893 2.3262 1.9863 7.1572 0.01172 7.1543 0.01172 2.3613-2.0244 2.3584-2.0273 0.0088-8.1563 0.0088-8.1592 1.4268-0.09082 1.4238-0.09375 0.08789-2.4727 0.08789-2.4756h-6.3252-6.3252l0.08789 2.4756c0.08634 2.4524 0.09366 2.4753 0.91113 2.5693l0.82617 0.09375v7.6318 7.6289h-4.0488-4.0518v-7.6289-7.6289l0.67676-0.09668c0.62932-0.089377 0.6805-0.26185 0.76172-2.5693l0.08496-2.4756h-6.0117-6.0117zm51.58 0-7.2627 0.00879-7.2656 0.00879-2.3262 2.0156-2.3262 2.0156v3.4922 3.4893l2.0596 1.6846 2.0596 1.6846h6.041 6.041v3.1494 3.1494h-4.1836-4.1836l-0.0908-1.4238-0.0908-1.4238h-3.75-3.75l-0.09082 1.6816-0.08789 1.6846 2.4639 2.1416 2.4609 2.1416h7.0225 7.0195l2.3818-2.0244 2.3789-2.0215v-4.3652-4.3652l-1.8691-1.5615-1.8691-1.5615h-6.082-6.0791v-2.25-2.25h4.1982 4.2012v0.89941 0.89941h3.75 3.75v-1.4795c0-1.467-0.0179-1.4968-2.2588-3.4512l-2.2617-1.9687zm6.9199 0v3.8994 3.8994h3.1494 3.1523v-1.3506-1.3477h2.0977 2.1006v7.6494 7.6494h-1.1982-1.2012v2.5488 2.5518h6.4629 6.46l-0.085-2.4756-0.0879-2.4756-1.2744-0.09082-1.2744-0.09375v-7.6318-7.6318h2.25 2.25v1.3477 1.3506h3.1494 3.1494v-3.8994-3.8994h-14.549-14.552zm36.56 0-2.3789 2.0215-2.3789 2.0244v8.5986 8.6016l2.4082 2.127h0.003l2.4082 2.127h7.0547 7.0547l2.376-2.0244 2.3731-2.0273 0.0117-8.7275 0.009-8.7275-2.3643-1.998-2.3672-1.9951h-7.1045-7.1045zm21.642 0v2.5488 2.5518h1.3506 1.3477v7.6494 7.6494h-1.3477-1.3506v2.5488 2.5518h5.8506 5.8506v-2.5518-2.5488h-1.2012-1.2012l0.009-5.4756c0.009-4.9449 0.0545-5.4169 0.46288-4.875 0.2487 0.33 2.9769 3.9407 6.0615 8.0244l5.6074 7.4268h3.6797 3.6797v-10.201-10.198h1.2012 1.1982v-2.5518-2.5488h-5.8623-5.8594l0.085 2.4756 0.0879 2.4727 1.125 0.09375 1.125 0.09375v4.8428c0 2.7579-0.11239 4.718-0.26074 4.5557-0.1433-0.15675-2.6573-3.4904-5.5869-7.4092l-5.3262-7.125h-5.3642-5.3613zm-135.9 5.1006h4.1982 4.2012v7.6494 7.6494h-4.2012-4.1982v-7.6494-7.6494zm117.3 0h4.0488 4.0518v7.6494 7.6494h-4.0518-4.0488v-7.6494-7.6494zm-84.299 26.681v1.6582c0 1.6433 0.0079 1.6611 0.89941 1.6611h0.89942v5.2236 5.2236l1.3916 1.2275 1.3916 1.2246h4.6436 4.6406l1.4648-1.2275 1.4678-1.2275v-5.2236-5.2207h0.89941c0.89085 0 0.89942-0.01901 0.89942-1.6523v-1.6494h-3.8994-3.8994v1.6494c0 1.2667 0.10572 1.6523 0.45117 1.6523 0.38182 0 0.44824 0.74824 0.44824 4.9482v4.9512h-2.5488-2.5518v-4.9512c0-4.792 0.02214-4.9482 0.61816-4.9482 0.55425 0 0.60604-0.15835 0.52441-1.5762l-0.09082-1.5762-3.8262-0.08203-3.8232-0.08496zm-31.854 0.01758-1.623 1.3857-1.623 1.3887v5.4229 5.4199l1.4238 1.2773 1.4268 1.2803 4.7432 0.01172 4.7432 0.01465 1.4824-1.2744c1.4241-1.2264 1.4794-1.3356 1.4795-2.8506v-1.5762h-2.5488-2.5518v1.3506 1.3506h-2.5488-2.5488v-4.9512-4.9482h2.5312 2.5312l0.09375 1.125 0.09375 1.125h2.3994 2.3994l0.09082-1.377c0.08675-1.3347 0.03807-1.4178-1.5498-2.7744l-1.6377-1.4004h-4.4033-4.4033zm17.874 0-1.5439 1.2744-1.541 1.2773-0.01758 5.6016-0.01758 5.6016 1.4238 1.2217 1.4268 1.2217h4.5938l4.5938 0.0029 1.4795-1.2744 1.4824-1.2773v-5.4375-5.4375l-1.623-1.3887-1.623-1.3857h-4.3184-4.3154zm37.702 0-1.4883 1.2744-1.4912 1.2773-0.02051 5.5869-0.02343 5.5869 1.3447 1.2363 1.3418 1.2393h6.1582 6.1553v-4.5117-4.5088l-3.0732 0.08496-3.0762 0.08496-0.0937 1.2979c-0.0792 1.1009 0.00004 1.3219 0.52441 1.459 0.51802 0.13546 0.61817 0.40168 0.61817 1.6289v1.4648h-2.5488-2.5488v-4.9512-4.9482h2.5283 2.5312l0.0937 0.82324c0.0941 0.81748 0.11691 0.82772 2.5693 0.91406l2.4756 0.08496v-1.1895c0-1.0587-0.17229-1.3376-1.5703-2.5605l-1.5674-1.374h-4.4209-4.418zm35.077 0v1.6494c0 1.6333 0.008 1.6523 0.89941 1.6523h0.89941v4.7783 4.7812l-0.82324 0.09375c-0.76947 0.08854-0.83242 0.20092-0.91699 1.6699l-0.0908 1.5762h3.917 3.9141v-1.6494c0-1.45-0.0704-1.6523-0.59766-1.6523-0.52-0.000002-0.60058-0.2-0.60058-1.5v-1.5h1.5c1.4642 0 1.5192 0.03608 2.3848 1.4268 0.5617 0.90246 0.78173 1.5269 0.60059 1.708-0.15722 0.15722-0.28711 0.93359-0.28711 1.7256v1.4414h3.75 3.75v-1.6494c0-1.5967-0.0249-1.651-0.82324-1.6641-0.67998-0.01118-1.0282-0.33949-1.9805-1.8633l-1.1572-1.8486 1.0811-0.86719 1.081-0.86719-0.006-2.4463-0.006-2.4434-1.5234-1.2773-1.5264-1.2744h-6.7178-6.7207zm23.06 0-1.6289 1.4092-1.6318 1.4062v2.1299 2.127l1.333 1.1162 1.333 1.1133h3.7676 3.7676v1.9482 1.9512h-2.5488-2.5518v-0.89941-0.90234h-2.5488-2.5518v1.0225c0 0.84971 0.25838 1.257 1.5322 2.4023v-0.0029l1.5322 1.3799h4.5879 4.585l1.5264-1.2744 1.5264-1.2773 0.006-2.6191 0.006-2.6221-1.125-1.0459-1.125-1.0459-3.9756-0.0088-3.9756-0.0059v-1.5-1.5h2.5518c2.35 0 2.5488 0.04472 2.5488 0.59766s0.19882 0.60058 2.5488 0.60058h2.5518v-0.86426c0-0.67412-0.35619-1.1677-1.623-2.25l-1.623-1.3857h-4.3975-4.3975zm-37.195 0.14942-2.874 6.5273c-2.779 6.3101-2.9023 6.5244-3.7324 6.5244-0.83005 0-0.8584 0.0495-0.8584 1.5v1.5h3.75 3.75v-1.5c0-1.3-0.0806-1.5-0.60059-1.5-0.69277 0-0.69579-0.01027-0.30762-1.0312 0.28695-0.75468 0.35174-0.77051 3.2725-0.77051h2.9766l0.31348 0.90234c0.29294 0.84034 0.26676 0.89941-0.41895 0.89941-0.68128 0-0.73535 0.1085-0.73535 1.5v1.5h3.8994 3.9024v-1.5c0-1.4353-0.0368-1.5017-0.82618-1.5059-0.7897-0.0041-0.94155-0.28272-3.5684-6.5244l-2.7451-6.5215h-2.5986-2.5986zm-56.965 3.1523h2.5518 2.5488v4.9482 4.9512h-2.5488-2.5518v-4.9512-4.9482zm77.701 0h2.5488 2.5518v1.6494 1.6494h-2.5518-2.5488v-1.6494-1.6494zm-18.3 1.799c0.12101 0 0.5009 0.675 0.84375 1.5l0.62403 1.5h-1.4678-1.4648l0.62402-1.5c0.34286-0.825 0.71982-1.5 0.84082-1.5z"/>
</svg>
