<?xml version="1.0" encoding="UTF-8" standalone="no"?>
<svg xmlns:rdf="http://www.w3.org/1999/02/22-rdf-syntax-ns#" xmlns="http://www.w3.org/2000/svg" xml:space="preserve" height="36.523" viewBox="0 0 91 36.523441" width="91" version="1.1" xmlns:cc="http://creativecommons.org/ns#" xmlns:dc="http://purl.org/dc/elements/1.1/"><g transform="matrix(1.25 0 0 -1.25 -132.87 793.81)"><g transform="translate(.42723 .34178)"><path d="m1.0801 1.1367 2.8906 4.8672v18.219l-2.3516 4.7891h16.27l-2.3535-4.7891v-5.7793h1.7168c0.2975 0 0.53906-0.24281 0.53906-0.53906v-0.25l12.016 6.8828-1.7578 4.4746h29.408l-2.3535-4.7891v-18.305l1.3086-2.6621 1.2656 2.6152-0.01172 7.877v9.9102l6.791 5.3867h17.551l6.793-5.3887-0.01563-17.783 2.2949-4.7363h-16.033l2.3496 4.7812 0.002 12.701-0.01953 0.02539-0.9375 0.29688h-6.416l-0.93945-0.29688-0.01953-0.02539 0.0039-2.9941v-9.707l2.3496-4.7812h-13.965-29.912s1.9066 3.873 2.3691 4.8105v4.4805l-15.264-8.5449-0.87891-0.74609h-12.689zm41.42 2.2227l1.2734 2.5859-0.01563 18.365-1.0977 2.7949-1.418-2.8828v-18.305l1.258-2.558z" transform="matrix(.8 0 0 -.8 105.43 635.16)" fill="#9ea2a2"/><path d="m2.9746 2.2129 2.0742 3.4961v18.764l-1.6992 3.4609h12.807l-1.6992-3.4609v-9.9707l16.518 9.4609v0.55469l-1.3438 3.416h12.234l-1.7012-3.4609v-18.805l1.7012-3.4551h-12.592s1.463 2.9705 1.7168 3.4805v6.5723l-16.945-9.4844-0.6543-0.56836h-10.416zm40.16 0s1.4643 2.9724 1.7168 3.4824l-0.01562 18.82-1.3438 3.418h12.232l-1.6992-3.4609v-18.805l1.6992-3.4551h-12.59zm13.971 0 1.6523 3.4121-0.01367 8.123v9.3887l6.0898 4.8301h16.799l6.0898-4.832-0.01563-17.51 1.6523-3.4121h-12.582l1.6953 3.4531 0.0039 13.328-0.45508 0.57812-1.4141 0.44726h-6.748l-1.4141-0.44726-0.45703-0.57812 0.0039-3.3711v-9.957l1.6973-3.4531h-12.584zm-41.206 14.174-0.277 1.425h0.25391s0.1082-0.68172 0.12695-0.88672l0.29492 0.88672h0.20898c0.06875-0.155 0.26609-0.84766 0.27734-0.87891l0.14453 0.87891h0.25586l-0.2793-1.4258h-0.1582l-0.34375 1.0098-0.34375-1.0098h-0.16016zm-1.0977 0.0078v0.23242h0.31836v1.1855h0.24805v-1.1855h0.31641v-0.23242h-0.88281zm-4.5156 15.498 0.18359 0.44336-1.7148 3.7773-0.49023 0.54492h2.8184l-0.12305-0.54492 0.18359-0.4082 0.12305-0.06641h2.0234l0.12109 0.06641 0.18359 0.4082-0.12109 0.54492h3.002l-0.49023-0.54492-1.7168-3.7773 0.18359-0.44336h-4.166zm8.1953 0-0.82227 1.3613 1.2754-0.23828h0.95508l0.12305 0.06836v2.8594l-0.42969 0.7168h3.25l-0.42969-0.7168v-2.8594l0.12109-0.06836h0.95703l1.2754 0.23828-0.82226-1.3613h-5.4531zm8.7441 0 0.30469 0.54297v3.6777l-0.30469 0.54492h2.9395l-0.30469-0.54492v-1.3613l0.12109-0.06836h1.4727l0.12109 0.06836v1.3613l-0.30469 0.54492h2.9414l-0.30664-0.54492v-3.6777l0.30664-0.54297h-2.9414l0.30469 0.54297v1.0234l-0.12109 0.06836h-1.4727l-0.12109-0.06836v-1.0234l0.30469-0.54297h-2.9395zm10.4 0 0.30664 0.54492v3.6758l-0.30664 0.54492h5.0254l0.83398-1.3945-1.2637 0.23828h-1.7168l-0.18359-0.10352v-2.8926l0.36914-0.61328h-3.0645zm8.1895 0 0.30664 0.54492v3.6758l-0.30664 0.54492h5.332l0.83398-1.3945-1.2871 0.23828h-2.0586l-0.18359-0.10352v-0.64648l0.12109-0.06836h0.79688l0.91992 0.16992v-1.4297l-0.91992 0.17188h-0.79688l-0.12109-0.06836v-0.47656l0.09766-0.06836h2.1074l1.0781 0.20508-0.77148-1.2949h-5.1484zm8.5605 0-0.82031 1.3613 1.2734-0.23828h0.95703l0.12305 0.06836v2.8594l-0.42969 0.7168h3.248l-0.42969-0.7168v-2.8594l0.12305-0.06836h0.95703l1.2734 0.23828-0.82227-1.3613h-5.4531zm8.7441 0 0.30664 0.54297v3.6777l-0.30664 0.54492h3.002l-0.30664-0.54492v-3.6777l0.30664-0.54297h-3.002zm8.0723 0-1.7148 0.95312v2.8594l1.7148 0.95312h3.4316l0.83398-1.3945-1.4707 0.27148h-0.95703l-0.73438-0.20312-0.30664-0.3418v-1.4277l0.30664-0.3418 0.73438-0.20312h0.83398l1.4707 0.27148-0.83203-1.3965h-3.3105zm8.498 0-1.5938 0.88477v1.125l1.1035 0.61133 1.9004 0.23828 0.30664 0.16992v0.27344l-0.18555 0.20313-0.36719 0.10352h-1.752l-1.2871-0.24023 0.83203 1.3965h3.6172l1.5938-0.88476v-1.3262l-1.166-0.64844-1.9004-0.23828-0.24414-0.13477v-0.13672l0.18359-0.20508 0.36914-0.10352h1.7402l1.0527 0.20508-0.77148-1.293h-3.4316zm-67.418 0.95312 0.06055 0.23828 0.61328 1.4629-0.12305 0.07031h-1.1035l-0.12305-0.07031 0.61328-1.4629 0.0625-0.23828z" fill-rule="evenodd" transform="matrix(.8 0 0 -.8 105.43 635.16)"/><path d="m5.3633 3.5703 1.0449 1.7676v19.451l-0.87891 1.7852h8.4473l-0.87695-1.7852v-12.631l19.232 11.018v1.5977l-0.70703 1.8008h8.0605l-0.87891-1.7852v-19.437l0.87891-1.7812h-8.2324l0.89648 1.7461v9.2363l-19.32-10.982h-7.666zm39.953 0 0.89258 1.7461-0.01563 19.457-0.70703 1.8008h8.0605l-0.87891-1.7852v-19.437l0.87891-1.7812h-8.2305zm13.945 0 0.84766 1.7461-0.01367 17.166 5.209 4.1328h15.857l5.207-4.1328-0.01367-17.166 0.84766-1.7461h-8.2559l0.87695 1.7812 0.0039 14.111-1.0039 1.2715-2.0078 0.63672h-7.168l-2.0078-0.63672-1.0039-1.2715 0.0039-14.111 0.87695-1.7812h-8.2559z" transform="matrix(.8 0 0 -.8 105.43 635.16)" fill="#ba0c2f"/><path d="m32.816 4.4141 0.38086 0.65234v9.8223l0.90625 0.51367v-10.988h-1.2871zm13.863 0 0.37891 0.65234-0.01563 19.867-0.3125 0.79297h5.4531l-0.53516-0.90625h-3.6152l-0.002-20.406h-1.3516zm14.012 0 0.38086 0.65234-0.01953 16.879 5.041 3.6758h13.357l1.4629-0.95312-14.199 0.0918-4.5527-3.2363 0.01758-17.109h-1.4883zm19.789 0 0.37891 0.65234-0.002 14.705-0.97852 1.2676 0.94531-0.29883 1.3008-1.4336 0.002-14.893h-1.6465zm-73.627 0.00977 0.40234 0.68359v19.877l-0.36328 0.74219h5.7207l-0.5332-0.90625h-3.875l-0.042969-20.387-1.3086-0.00977zm6.2207 5.5312v1.1895l20.107 11.652v2.1367l-0.31055 0.79297h5.4512l-0.53516-0.90625h-3.707l0.0059-2.8066-21.011-12.059z" transform="matrix(.8 0 0 -.8 105.43 635.16)" fill="#fff"/></g></g></svg>
