<svg xmlns="http://www.w3.org/2000/svg" width="242" height="144" viewBox="0 0 242 144">
 <g transform="matrix(1.3333 0 0 -1.3333 -806.65 240.94)">
  <path d="m780.76 89.449c-1.9454 6.3095-2.982 9.5329-5.0173 15.663-0.55854 1.6709-1.1123 3.3465-1.6614 5.0268-1.7087 0.2982-3.5973 0.5964-5.2966 0.89933-2.698 0.4828-4.4162 0.84726-6.4657 1.1881v29.153c2.059 0.33607 3.7819 0.70527 6.4704 1.1881 1.6945 0.2982 3.5737 0.60113 5.2729 0.8946 0.55853 1.6756 1.1171 3.3465 1.6756 5.0078 2.0448 6.1155 3.0814 9.3152 5.0221 15.544 1.6803 5.3913 3.1808 10.716 4.8611 15.975-5.2398-1.0035-49.25-12.969-89.782-12.969-45.364 0-87.117 12.122-89.602 12.894 1.6898-5.2729 3.3891-10.612 5.0741-16.013 1.9596-6.2716 2.9962-9.4572 5.0315-15.506 0.55853-1.6661 1.1218-3.337 1.6803-5.0079 1.6993-0.29346 3.5784-0.59166 5.2729-0.89933 3.0435-0.5396 5.0931-0.8946 7.4597-1.278 3.5926-5.4575 6.0965-9.2631 9.3956-13.594-3.6447-4.9274-6.3521-9.1637-10.271-15.369-2.1963-0.355-4.1558-0.70054-7.0195-1.207-1.7087-0.30767-3.7677-0.60587-5.4764-0.90407-0.5538-1.6851-1.1076-3.3559-1.6614-5.0268-2.0117-6.0302-3.0483-9.2536-5.0268-15.667-1.6661-5.3818-3.3323-10.697-4.9889-15.951 16.5 3.0151 48.644 12.922 89.99 12.875 35.188-0.03787 81.172-10.754 90.061-12.851-1.6709 5.2493-3.3275 10.56-4.9984 15.937" fill="#003DA5"/>
  <path d="m670.1 95.444c8.7898 0.6958 17.357 1.0035 25.792 0.93246 25.816-0.20353 50.391-3.8719 76.112-10.286-1.9738 6.4941-2.9631 9.6276-4.9605 15.696-5.5569 0.923-8.3827 1.349-14.077 2.1111v45.833c5.6942 0.76207 8.52 1.1833 14.077 2.1111 1.9975 6.0161 2.9867 9.1258 4.9605 15.568-34.184-8.5436-66.338-12.24-102.06-9.4335v-11.351c3.9381-0.213 4.6102-0.30766 8.5626-0.43073-4.2269-4.9795-6.3426-7.4881-10.555-12.709-3.8482 5.3913-5.7747 8.1697-9.585 14.034 3.408-0.355 3.8435-0.53013 7.2893-0.80467v11.393c-16.117 2.2341-32.66 5.2208-45.393 8.6383 1.9833-6.4231 2.8021-8.9696 4.7901-14.972 4.3736-0.71947 6.5793-1.065 11.024-1.6851 6.3095-9.8264 9.5045-14.19 15.947-22.355-6.7497-8.8418-10.096-13.575-16.718-24.315-4.3121-0.60113-6.442-0.94193-10.678-1.6425-1.9927-6.0681-2.7927-9.017-4.7664-15.506 15.554 3.8009 29.304 6.3947 45.454 8.6194v11.876c-4.1085-0.27927-4.8659-0.47333-8.9318-0.86146 4.4399 6.4089 6.674 9.4098 11.152 15.203 4.5298-5.6374 6.8065-8.3212 11.351-13.675-4.0328-0.1562-4.757-0.284-8.7803-0.5538zm54.892 51.446c2.5749 0.1846 4.3547 0.28873 6.9248 0.5112v-41.189c-2.5702 0.22247-3.8529 0.32187-6.4326 0.5112h-0.49226zm-25.096-1.0413c1.6377 0.0189 2.4613 0.0284 4.0991 0.0568v-38.207c-1.136 0.0237-1.704 0.0284-2.84 0.0426-7.171 8.2597-10.764 12.169-17.93 20.42 6.6645 7.1284 10.006 10.541 16.671 17.688" fill="#fff"/>
 </g>
</svg>