<svg xmlns="http://www.w3.org/2000/svg" height="266.97" viewBox="0 0 246.51252 266.97" width="246.51"><g transform="matrix(1.25 0 0 -1.25 -56.022 550.86)"><g><path d="m129.06 278.34h-6.34l2.212 6.062h37.198l2.026-6.062h-6.416v-50.454h83.466v50.454h-12.716l-36.838 110.78h9.694v50.738h-114.4v-50.74h8.496l-36.83-110.78h-13.012v-50.454h83.464v50.454z" fill="#fff"/><path d="m125.31 231.64h-75.978v42.954h11.974l39.32 118.27h-9.946v43.256h106.92v-43.256h-11.14l39.322-118.27h11.678v-42.954h-75.982v42.954h7.872l-4.524 13.566h-42.518l-4.94-13.566h7.944v-42.954z" fill="#006747"/><path d="m116.34 295.72h54.114l9.468-28.688h-10.582v-27.544h60.56v27.544h-9.446l-44.272 133.7 13.856-0.002v27.536h-91.498v-27.536h12.374l-44.278-133.7h-9.442v-27.544h60.262v27.544h-10.59l9.474 28.688z" fill="#fff"/><path d="m148.62 307.66-14.128 21.882-28.144-5.502 19.284 21.336-12.996 23.268 25.392-10.016 29.712 45.424-13.768-52.82 30.484-15.75-32.206-2.198-3.63-25.624z" fill="#cfc493"/><path d="m102.28 424.52v-20.056h13.806l-9.7156-29.331 30.188-11.903 40.091 61.291h-74.369zm74.65 0-5.225-20.056h14.581v20.056h-9.3563zm-5.5406-21.256-13.05-50.084 35.75-18.466-22.7 68.55zm-65.634-30-36.422-109.97h-8.4v-20.05h52.775v20.05h-12.025l11.947 36.169h35.819l-16.734 25.919-36.691-7.1687 25.025 27.678-15.294 27.375zm89.088-40.831-39.322-2.6812-4.2875-30.291h21.922l11.938-36.169h-12.012v-20.05h53.075v20.05h-8.4156l-22.897 69.141z" fill="#006747"/></g></g></svg>
