<?xml version="1.0" encoding="UTF-8" standalone="no"?>
<svg
   xmlns:dc="http://purl.org/dc/elements/1.1/"
   xmlns:cc="http://creativecommons.org/ns#"
   xmlns:rdf="http://www.w3.org/1999/02/22-rdf-syntax-ns#"
   xmlns:svg="http://www.w3.org/2000/svg"
   xmlns="http://www.w3.org/2000/svg"
   xmlns:xlink="http://www.w3.org/1999/xlink"
   xmlns:sodipodi="http://sodipodi.sourceforge.net/DTD/sodipodi-0.dtd"
   xmlns:inkscape="http://www.inkscape.org/namespaces/inkscape"
   width="365"
   height="451"
   id="svg2"
   version="1.1"
   inkscape:version="0.91 r13725"
   sodipodi:docname="Blason Gazélec Ajaccio.svg">
  <metadata
     id="metadata99">
    <rdf:RDF>
      <cc:Work
         rdf:about="">
        <dc:format>image/svg+xml</dc:format>
        <dc:type
           rdf:resource="http://purl.org/dc/dcmitype/StillImage" />
        <dc:title>Coat of Arms of Corsica</dc:title>
      </cc:Work>
    </rdf:RDF>
  </metadata>
  <sodipodi:namedview
     pagecolor="#ffffff"
     bordercolor="#666666"
     borderopacity="1"
     objecttolerance="10"
     gridtolerance="10"
     guidetolerance="10"
     inkscape:pageopacity="0"
     inkscape:pageshadow="2"
     inkscape:window-width="1280"
     inkscape:window-height="695"
     id="namedview97"
     showgrid="false"
     inkscape:zoom="0.472"
     inkscape:cx="227.54363"
     inkscape:cy="280.83103"
     inkscape:window-x="0"
     inkscape:window-y="1"
     inkscape:window-maximized="1"
     inkscape:current-layer="svg2" />
  <title
     id="title4">Coat of Arms of Corsica</title>
  <defs
     id="defs6">
    <radialGradient
       id="GradientCoA"
       spreadMethod="pad"
       gradientUnits="userSpaceOnUse"
       r="475"
       fy="380"
       fx="300"
       cy="320"
       cx="320"
       gradientTransform="matrix(0.4743415,0,0,0.5270465,-17.977291,14.981076)">
      <stop
         offset="0.2"
         style="stop-color:#FFF"
         id="stop9" />
      <stop
         offset="1"
         style="stop-color:#CCC"
         id="stop11" />
    </radialGradient>
    <g
       id="f">
      <rect
         id="rect1964"
         style="fill:#28166f"
         y="-30"
         x="-50"
         height="60"
         width="100" />
      <g
         id="g1966"
         style="fill:#ffffff"
         transform="translate(0,-20)">
        <path
           id="path1968"
           d="m -1.2116,27.8178 c 0,-5.6426 -0.8798,-7.3463 -3.3301,-13.8374 C -5.709,10.8879 -5.0241,7.1025 -2.8585,3.6009 -2.0824,2.346 -1.1136,1.2135 0,0 1.1136,1.2135 2.0824,2.346 2.8585,3.6009 5.0241,7.1025 5.709,10.8879 4.5417,13.9804 2.0914,20.4715 1.2116,22.1752 1.2116,27.8178 l -2.4232,0 z"
           inkscape:connector-curvature="0" />
        <path
           id="rwi"
           d="m 2.9221,27.6725 c 0,-5.9516 2.3166,-9.8432 5.5786,-11.0121 1.4485,-0.519 3.3069,-0.2735 5.0186,1.4466 2.1186,2.129 2.7358,7.9934 -3.4838,9.1213 0.6583,-0.9559 0.6191,-3.0816 -0.714,-3.7874 -0.9904,-0.5244 -2.1125,-0.2532 -2.6753,0.1234 -0.8237,0.5513 -1.7291,2.1059 -1.679,4.1082 l -2.0451,0 z"
           inkscape:connector-curvature="0" />
        <path
           id="path1971"
           d="M 1.7773,30.1835 C 1.7899,32.1913 2.7952,33.5181 4.5165,34.257 4.2948,34.9549 3.2566,36.3776 1.8314,36.2812 1.5499,37.787 1.2822,38.6324 0,40 c -1.2822,-1.3676 -1.5499,-2.213 -1.8314,-3.7188 -1.4252,0.0964 -2.4634,-1.3263 -2.6851,-2.0242 1.7213,-0.7389 2.7266,-2.0657 2.7392,-4.0735 l 3.5546,0 z"
           inkscape:connector-curvature="0" />
        <use
           xlink:href="#rwi"
           height="400"
           width="800"
           y="0"
           x="0"
           id="use1973"
           transform="scale(-1,1)" />
        <rect
           id="rect1975"
           y="27.33077"
           x="-7.9229999"
           height="3.2179999"
           width="15.846" />
      </g>
    </g>
  </defs>
  <g
     transform="matrix(2.817149,0,0,2.817149,119.16355,45.58861)"
     id="g3266"
     style="fill:#ffffff;fill-opacity:1;stroke:#000000;stroke-width:1;stroke-miterlimit:4;stroke-dasharray:none;stroke-opacity:1" />
  <g
     id="g3692"
     transform="translate(0,-71)" />
  <g
     id="g3713"
     transform="translate(0.99960025,-71)"
     style="fill:none" />
  <path
     sodipodi:nodetypes="ccccccscc"
     inkscape:connector-curvature="0"
     id="path3514"
     d="m 286.45878,413.5918 c 42.09677,-4.60192 59.66035,-35.41004 77.53922,-48.84039 l 0,-364.25141237 -182.11221,0 -181.38579122,0 0,364.25141237 C 18.378871,378.18176 35.942456,408.98988 78.039218,413.5918 c 64.001452,6.99651 65.475372,12.95829 104.345502,36.9082 0,0 40.07261,-29.91169 104.07406,-36.9082 z"
     style="fill:#ea484e;fill-opacity:1;fill-rule:evenodd;stroke:none;stroke-width:1px;stroke-linecap:butt;stroke-linejoin:miter;stroke-opacity:1" />
  <path
     style="fill:#05538d;fill-opacity:1;fill-rule:evenodd;stroke:none;stroke-width:1px;stroke-linecap:butt;stroke-linejoin:miter;stroke-opacity:1"
     d="m 363.998,78.236058 0,-77.73606037 -182.11221,0 -181.38579122,0 0,77.73606037 z"
     id="path3516"
     inkscape:connector-curvature="0"
     sodipodi:nodetypes="cccccc" />
  <g
     id="g4618"
     transform="translate(-2.2996589,4)">
    <g
       style="fill:#ffffff;stroke:none"
       transform="matrix(-0.99786975,0,0,0.99786975,-13.912444,-6.136823)"
       id="g3707">
      <path
         id="path3709"
         transform="matrix(-1,0,0,1,-396.46822,0)"
         d="m -115.81836,176.30664 c -20.17983,0.0616 -40.1495,16.7631 -51.00781,60.22656 l -17.77735,41 c 38.78214,-2.77884 36.47086,-43.07236 59.26758,-40.64453 14.56795,1.55148 30.03823,26.64489 38.24219,84.48242 68.049408,-52.02151 19.06973,-145.21045 -28.72461,-145.06445 z m 1.85742,26.66797 c 20.594068,0.57185 32.548893,17.56766 30.597659,41.875 -22.115409,-26.04258 -24.969379,-32.20167 -58.425779,-34.45508 10.38867,-5.35246 19.76958,-7.64369 27.82812,-7.41992 z"
         style="fill:#ffffff;fill-rule:evenodd;stroke:none;stroke-width:1px;stroke-linecap:butt;stroke-linejoin:miter;stroke-opacity:1"
         inkscape:connector-curvature="0" />
    </g>
    <g
       transform="matrix(0.99786975,0,0,0.99786975,381.7112,-6.136823)"
       style="fill:#ffffff;stroke:none"
       id="g3721">
      <path
         sodipodi:nodetypes="ccccccc"
         inkscape:connector-curvature="0"
         id="path3684"
         d="M -197.31055,98.548828 C -261.95033,166.0034 -224.54164,236.54528 -207.75,277.80859 l 20.91406,0 c 11.00018,-37.44551 52.28016,-108.73498 -10.47461,-179.259762 z m 0,42.931642 c 12.23293,29.68556 13.59088,56.65237 0,91.38476 -15.50468,-35.23219 -13.97396,-61.07431 0,-91.38476 z"
         style="fill:#ffffff;fill-rule:evenodd;stroke:none;stroke-width:1px;stroke-linecap:butt;stroke-linejoin:miter;stroke-opacity:1" />
    </g>
    <g
       id="g3729"
       transform="matrix(0.99786975,0,0,0.99786975,382.60152,-6.136823)"
       style="fill:#ffffff;stroke:none">
      <path
         inkscape:connector-curvature="0"
         style="fill:#ffffff;fill-rule:evenodd;stroke:none;stroke-width:1px;stroke-linecap:butt;stroke-linejoin:miter;stroke-opacity:1"
         d="m -115.81836,176.30664 c -20.17983,0.0616 -40.1495,16.7631 -51.00781,60.22656 l -17.77735,41 c 38.78214,-2.77884 36.47086,-43.07236 59.26758,-40.64453 14.56795,1.55148 30.03823,26.64489 38.24219,84.48242 68.049408,-52.02151 19.06973,-145.21045 -28.72461,-145.06445 z m 1.85742,26.66797 c 20.594068,0.57185 32.548893,17.56766 30.597659,41.875 -22.115409,-26.04258 -24.969379,-32.20167 -58.425779,-34.45508 10.38867,-5.35246 19.76958,-7.64369 27.82812,-7.41992 z"
         transform="matrix(-1,0,0,1,-396.46822,0)"
         id="path3731" />
    </g>
    <g
       transform="matrix(-0.99786975,0,0,-0.99786975,-14.617818,616.89056)"
       id="g3733"
       style="fill:#ffffff;stroke:none">
      <path
         sodipodi:nodetypes="ccccccc"
         inkscape:connector-curvature="0"
         style="fill:#ffffff;fill-rule:evenodd;stroke:none;stroke-width:0.60744572px;stroke-linecap:butt;stroke-linejoin:miter;stroke-opacity:1"
         d="m -199.66575,213.24988 c -39.26516,40.97499 -16.54141,79.82536 -6.3414,104.89058 l 12.70415,0 c 6.68202,-22.74612 31.75736,-62.0506 -6.36275,-104.89058 z m 0,26.07864 c 7.45675,17.78092 8.29736,28.83928 0,49.51129 -9.41826,-21.40165 -8.48843,-31.09933 0,-49.51129 z"
         id="path3735" />
    </g>
    <path
       sodipodi:nodetypes="ccc"
       inkscape:connector-curvature="0"
       id="path3741"
       d="m 110.31744,293.78695 c -10.925675,56.43392 43.76192,38.32072 65.14761,6.49835 -35.70446,116.4176 -118.989558,48.18403 -65.14761,-6.49835 z"
       style="fill:#ffffff;fill-rule:evenodd;stroke:none;stroke-width:1px;stroke-linecap:butt;stroke-linejoin:miter;stroke-opacity:1" />
    <path
       style="fill:#ffffff;fill-rule:evenodd;stroke:none;stroke-width:1px;stroke-linecap:butt;stroke-linejoin:miter;stroke-opacity:1"
       d="m 259.60212,293.78695 c 10.92567,56.43392 -43.76192,38.32072 -65.14761,6.49835 35.70446,116.4176 118.98956,48.18403 65.14761,-6.49835 z"
       id="path3743"
       inkscape:connector-curvature="0"
       sodipodi:nodetypes="ccc" />
    <path
       sodipodi:nodetypes="cssc"
       inkscape:connector-curvature="0"
       id="path4551"
       d="m 173.99785,302.80957 c -9.45971,-2.1805 -15.69241,-0.97382 -21.65436,-0.56359 -23.22575,1.59814 -25.86927,-41.11842 -5.65301,-41.12963 3.04132,-0.002 9.72058,0.63457 11.45139,-1.64646"
       style="fill:none;fill-rule:evenodd;stroke:#ffffff;stroke-width:5.98721838;stroke-linecap:butt;stroke-linejoin:miter;stroke-miterlimit:4;stroke-dasharray:none;stroke-opacity:1" />
    <path
       style="fill:none;fill-rule:evenodd;stroke:#ffffff;stroke-width:5.98721838;stroke-linecap:butt;stroke-linejoin:miter;stroke-miterlimit:4;stroke-dasharray:none;stroke-opacity:1"
       d="m 195.39116,302.80957 c 9.4597,-2.1805 15.69241,-0.97382 21.65435,-0.56359 23.22576,1.59814 25.86927,-41.11842 5.65301,-41.12963 -3.04132,-0.002 -9.72058,0.63457 -11.45138,-1.64646"
       id="path4553"
       inkscape:connector-curvature="0"
       sodipodi:nodetypes="cssc" />
  </g>
  <g
     id="g4637"
     transform="matrix(1.0928094,0,0,1.0928094,-19.535221,-1.3834376)">
    <path
       sodipodi:nodetypes="ccccccc"
       inkscape:connector-curvature="0"
       id="path4559"
       d="m 228.03926,16.943904 13.97018,0 -19.05624,30.305305 33.65324,0 -7.98548,8.718388 -43.53271,0 z"
       style="fill:#ffffff;fill-rule:evenodd;stroke:none;stroke-width:1px;stroke-linecap:butt;stroke-linejoin:miter;stroke-opacity:1" />
    <path
       style="fill:#ffffff;fill-rule:evenodd;stroke:none;stroke-width:1px;stroke-linecap:butt;stroke-linejoin:miter;stroke-opacity:1"
       d="m 285.91144,16.943904 35.92331,0 -7.09331,8.741535 -19.46266,0.212165 -5.36441,7.585991 19.54903,0 -3.88149,5.278731 -18.84897,0 -5.90756,8.486883 29.66177,0 -7.98548,8.718388 -39.54123,0 z"
       id="path4561"
       inkscape:connector-curvature="0"
       sodipodi:nodetypes="ccccccccccccc" />
    <path
       sodipodi:nodetypes="ccccc"
       inkscape:connector-curvature="0"
       id="path4563"
       d="m 130.24802,16.943904 15.96592,0 -22.636,39.023693 -16.28092,0 z"
       style="fill:#ffffff;fill-rule:evenodd;stroke:none;stroke-width:1px;stroke-linecap:butt;stroke-linejoin:miter;stroke-opacity:1" />
    <path
       style="fill:#ffffff;fill-rule:evenodd;stroke:none;stroke-width:1px;stroke-linecap:butt;stroke-linejoin:miter;stroke-opacity:1"
       d="m 168.16707,16.943904 13.97018,0 -19.05624,30.305305 33.65325,0 -7.98548,8.718388 -43.53271,0 z"
       id="path4565"
       inkscape:connector-curvature="0"
       sodipodi:nodetypes="ccccccc" />
    <path
       sodipodi:nodetypes="ccccccc"
       inkscape:connector-curvature="0"
       id="path4567"
       d="m 70.375838,16.943904 13.970177,0 -19.056239,30.305305 33.653247,0 -7.985483,8.718388 -43.532706,0 z"
       style="fill:#ffffff;fill-rule:evenodd;stroke:none;stroke-width:1px;stroke-linecap:butt;stroke-linejoin:miter;stroke-opacity:1" />
  </g>
</svg>
