<svg height="359.708241" viewBox="0 0 541 700" width="278.003083" xmlns="http://www.w3.org/2000/svg"><g fill-rule="evenodd" transform="matrix(1.2344956375 0 0 -1.234721425 -97.06024375 717.87938375)"><path d="m78.6234 452.508v-4.152c0-103.227 24.1226-199.557 75.7626-284.352 35.3-57.965 84.73-114.0239 143.087-149.4263l.17-.0972.201.1211c58.338 35.4035 107.754 91.4514 143.046 149.4024 51.639 84.794 75.762 181.125 75.762 284.352v4.152z" fill="#e94625"/><path d="m511.082 452.508v-4.152c0-99.843-22.841-195.89-74.95-281.454-34.309-56.337-82.036-110.8426-138.496-145.8911-56.438 35.0133-104.167 89.5261-138.493 145.8911-52.109 85.566-74.9489 181.611-74.9489 281.454v4.152z" fill="#fff"/><path d="m131.546 452.508v-4.152c0-91.108 20.474-178.718 68.04-256.826 25.173-41.334 58.788-82.347 98.055-112.8534 39.266 30.5054 72.873 71.5144 98.049 112.8534 47.567 78.108 68.04 165.719 68.04 256.826v4.152z" fill="#e94625"/><path d="m516.6523 581.41h-438.027l-.0016-133.054h438.0286z" fill="#525e98"/></g><g fill="#231f20" transform="matrix(1.2344956375 0 0 -1.234721425 -97.06024375 717.87938375)"><path d="m91.3957 413.309 6.3742.223-.5816 16.67 28.8727 1.007-.245 6.997-35.2461-1.229z"/><path d="m91.9988 401.499 35.2202 1.846-.367 6.992-35.2196-1.846z"/><path d="m94.6797 371.634 6.3553.556-1.4545 16.617 28.7805 2.517-.61 6.975-35.1354-3.074z"/><path d="m99.0945 343.793 6.3175.887-2.322 16.518 28.609 4.02-.974 6.934-34.9258-4.909z"/><path d="m105.327 315.341 6.103 1.296-3.862 18.168 8.939 1.899 3.397-15.979 6.103 1.298-3.397 15.978 7.249 1.542 3.696-17.389 6.104 1.296-5.133 24.149-34.497-7.332z"/><path d="m136.211 271.407c3.929 1.235 6.933 2.805 8.994 4.693 1.988 1.875 3.32 3.842 3.99 5.912.681 2.025.974 3.955.869 5.781-.193 1.841-.465 3.316-.81 4.444-.331 1.081-.915 2.409-1.765 3.982-.929 1.549-2.252 2.994-3.968 4.352-1.71 1.336-3.919 2.227-6.612 2.663-2.786.484-6.161.128-10.11-1.043-3.904-1.23-6.849-2.805-8.817-4.744-2.027-1.879-3.384-3.86-4.054-5.923-.671-2.089-.946-4.022-.833-5.821.039-.459.085-.89.124-1.298.021-.404.054-.796.113-1.181.118-.726.256-1.343.409-1.844.346-1.128.985-2.491 1.931-4.101.919-1.579 2.224-3.02 3.932-4.314 1.71-1.343 3.939-2.221 6.675-2.652 2.691-.434 6.006-.072 9.932 1.094zm-2.047 6.696c-2.31-.707-4.316-1.038-6.023-.995-1.705.113-3.126.475-4.269 1.076-1.157.622-2.056 1.374-2.695 2.258-.692.894-1.18 1.814-1.469 2.762-.266.871-.365 1.866-.283 2.971.018 1.145.336 2.293.948 3.449.611 1.145 1.593 2.216 2.953 3.231 1.373 1.055 3.21 1.932 5.52 2.638 2.381.728 4.427 1.038 6.131.925 1.719-.074 3.139-.411 4.277-1.021 1.141-.62 2.053-1.394 2.725-2.327.607-.894 1.042-1.787 1.309-2.657.289-.949.438-1.971.442-3.075-.05-1.095-.382-2.223-.978-3.383-.604-1.134-1.587-2.231-2.96-3.284-1.369-.983-3.248-1.841-5.628-2.568"/><path d="m131.22 234.311 5.953 2.285-5.977 15.573 26.971 10.354-2.508 6.536-32.926-12.641z"/><path d="m173.963 226.061-3.234 7.264-16.702-.175 11.176 12.587-3.351 7.524-15.35-19.499-12.163-5.416 2.847-6.395 12.075 5.376z"/><path d="m160.717 175.609 31.14 16.558-4.756 8.942-27.369-7.81-.041.08 21.717 18.439-4.79 9.007-31.14-16.556 3.064-5.763 26.014 13.833.042-.081-23.158-19.203 3.215-6.045 28.958 8.294.03-.057-26.014-13.832z"/><path d="m200.72 158.354c6.105 4.13 7.378 9.087 3.819 14.869l-8.344 12.85-29.58-19.21 3.813-5.872 10.665 6.928 4.38-6.745c1.24-1.91 2.631-3.194 4.17-3.863 1.472-.764 2.925-1.108 4.366-1.041 1.485.057 2.802.315 3.943.755 1.159.44 2.082.883 2.768 1.329zm-3.511 6.067c-.336-.218-.771-.48-1.317-.798-.535-.259-1.149-.423-1.841-.501-.663-.05-1.361.112-2.105.458-.743.349-1.474 1.084-2.201 2.204l-3.542 5.452 8.695 5.646 3.023-4.657c2.298-3.477 2.064-6.079-.712-7.804"/><path d="m189.958 132.132 28.89 20.229-4.017 5.735-28.89-20.229z"/><path d="m209.815 102.301 5.38-.463.646 5.107c1.734.014 3.609.408 5.615 1.177 2.021.767 4.165 2.037 6.437 3.813 3.226 2.56 5.468 5.103 6.714 7.604 1.184 2.463 1.725 4.777 1.608 6.95-.09 2.133-.509 4.04-1.261 5.709-.841 1.648-1.624 2.928-2.349 3.857-.695.89-1.719 1.921-3.074 3.085-1.422 1.114-3.177 1.987-5.266 2.642-2.075.634-4.455.674-7.126.116-2.774-.546-5.798-2.088-9.064-4.598-3.205-2.547-5.389-5.073-6.537-7.581-1.215-2.486-1.77-4.823-1.656-6.989.12-2.191.557-4.093 1.308-5.732.201-.416.398-.801.579-1.168.16-.363.337-.723.531-1.062.37-.635.72-1.161 1.042-1.575.651-.833 1.573-1.763 2.767-2.797 1.193-1.009 2.659-1.859 4.392-2.551zm13.768 15.151c-2.582-1.976-4.876-3.123-6.898-3.447l.539 4.963-5.331.345-.555-4.705c-1.317.624-2.343 1.431-3.079 2.426-.56.717-1.009 1.611-1.33 2.673-.392 1.075-.508 2.261-.349 3.561.158 1.286.692 2.637 1.597 4.073.904 1.475 2.305 2.954 4.209 4.441 1.962 1.532 3.761 2.555 5.392 3.06 1.631.546 3.078.743 4.359.579 1.287-.169 2.415-.565 3.377-1.196.886-.617 1.615-1.294 2.175-2.011.61-.781 1.116-1.682 1.515-2.711.345-1.042.44-2.214.299-3.51-.157-1.274-.682-2.652-1.586-4.126-.926-1.41-2.373-2.883-4.334-4.415"/><path d="m247.579 83.8086 16.769 15.6371-4.876 5.2283-16.983-15.8377c-3.219-3.0918-6.396-2.975-9.541.3492-1.129 1.2102-1.664 2.6254-1.591 4.2395.003 1.6172.895 3.266 2.677 4.9703l16.738 15.6087-4.842 5.192-17.092-15.939c-2.593-2.417-4.102-4.9898-4.51-7.7093-.133-2.3079.247-4.3829 1.138-6.2504.927-1.8231 1.936-3.3118 3.014-4.468 6.054-6.6375 12.42-6.9688 19.099-1.0207"/><path d="m266.527 50.7098 4.175 4.6375-13.803 12.4273 6.115 6.7918 12.14-10.9309 4.175 4.6364-12.14 10.9312 4.959 5.5063 13.211-11.8946 4.176 4.6375-18.347 16.5184-23.599-26.2086z"/><path d="m344.084 76.752c-1.079 1.1988-2.156 2.0386-3.232 2.5121-1.088.4863-2.161.7105-3.229.6742-2.152-.1199-4.285-.7856-6.407-1.9903l-7.457-3.8703c-.675-.3882-1.466-.6601-2.366-.8089-.916-.22-1.83.1585-2.747 1.1406-.569.6336-.889 1.2699-.95 1.9219-.128.6449-.072 1.2687.162 1.8648.506 1.2492 1.276 2.3398 2.312 3.2715 1.124 1.0137 2.153 1.7074 3.076 2.0652.927.2922 1.764.3539 2.514.1922.709-.0891 1.332-.302 1.853-.6254.484-.3551.885-.6894 1.196-.9848l4.989 4.493c-.72.8512-1.677 1.6309-2.871 2.3203-1.186.6949-2.52 1.1348-4.006 1.3285-1.534.2497-3.191.0918-4.942-.4832-1.76-.6156-3.6-1.7656-5.522-3.4511-2.014-1.8133-3.391-3.5391-4.132-5.175-.749-1.6879-1.095-3.2774-1.026-4.759.082-1.4137.409-2.7063.98-3.866.578-1.1547 1.205-2.1102 1.88-2.8594 1.276-1.4176 2.556-2.3594 3.845-2.8399 1.226-.5277 2.456-.7199 3.698-.5695 1.211.1633 2.411.5055 3.616 1.0281 1.234.5262 2.452 1.1184 3.653 1.7684l3.286 1.7703c1.619.918 3.031 1.5164 4.247 1.8188 1.197.2843 2.259-.0614 3.18-1.0375.615-.6809.973-1.3731 1.081-2.0684.073-.7281-.029-1.4371-.308-2.118-.626-1.4457-1.593-2.7339-2.917-3.8828-1.131-1.0183-2.169-1.6656-3.13-1.9457-.962-.3496-1.827-.4789-2.604-.3734-.752.1601-1.417.4222-1.987.7883-.557.3359-1.015.6851-1.368 1.0281l-4.99-4.493c.721-.8496 1.684-1.6238 2.871-2.3187 1.153-.7688 2.524-1.2742 4.123-1.5207 1.584-.2047 3.33.0238 5.249.6922 1.936.6531 4.035 1.9691 6.289 3.9566.596.5359 1.354 1.3715 2.265 2.4902.901 1.1293 1.655 2.4817 2.283 4.061.618 1.6015.795 3.3257.543 5.1613-.28 1.8394-1.283 3.7363-3 5.6934"/><path d="m358.159 110.076c-5.485 4.923-10.602 4.96-15.352.107l-10.448-11.2053 25.794-24.0531 4.774 5.1207-9.3 8.6723 5.484 5.8816c1.553 1.6656 2.462 3.3242 2.739 4.9801.385 1.6127.368 3.1057-.045 4.4867-.416 1.429-.985 2.644-1.687 3.645-.707 1.018-1.361 1.807-1.959 2.365zm-5.038-4.876c.294-.273.653-.631 1.092-1.085.38-.455.689-1.012.933-1.665.208-.63.222-1.347.064-2.154-.157-.8042-.695-1.6917-1.604-2.6679l-4.436-4.7547-7.58 7.0696 3.786 4.061c2.818 3.069 5.4 3.472 7.745 1.196"/><path d="m389.799 138.71c-3.265 2.509-6.274 4.07-9.003 4.676-2.675.552-5.052.517-7.131-.122-2.049-.603-3.798-1.471-5.234-2.605-1.397-1.214-2.45-2.283-3.175-3.212-.697-.89-1.449-2.133-2.249-3.73-.737-1.649-1.162-3.562-1.29-5.746-.113-2.167.423-4.487 1.611-6.944 1.201-2.56 3.429-5.121 6.654-7.682 3.247-2.495 6.226-4.003 8.943-4.503 2.702-.583 5.103-.558 7.177.077 2.095.647 3.836 1.532 5.246 2.656.354.295.681.58.991.845.319.25.622.503.903.771.526.513.954.981 1.276 1.393.727.929 1.476 2.236 2.253 3.933.766 1.659 1.198 3.554 1.279 5.695.118 2.171-.442 4.502-1.658 6.988-1.188 2.457-3.386 4.964-6.593 7.51zm-4.31-5.517c1.905-1.488 3.325-2.941 4.27-4.364.886-1.461 1.404-2.832 1.568-4.113.153-1.306.052-2.473-.307-3.502-.334-1.081-.809-2.007-1.419-2.789-.56-.717-1.319-1.369-2.27-1.936-.948-.64-2.072-1.041-3.371-1.201-1.287-.158-2.727.033-4.34.565-1.65.52-3.424 1.522-5.327 3.01-1.961 1.532-3.389 3.03-4.274 4.491-.925 1.45-1.464 2.806-1.616 4.089-.148 1.289-.036 2.48.344 3.566.383 1.01.865 1.879 1.425 2.596.61.782 1.363 1.491 2.264 2.127.927.586 2.041.963 3.333 1.139 1.276.155 2.738-.021 4.388-.541 1.591-.557 3.371-1.605 5.332-3.137"/><path d="m427.63 162.239c-3.539-1.343-6.701 2.666-10.431 4.304-2.468 1.084-6.026 1.168-7.497-1.584.761 3.421.597 7.062-3.431 9.736-2.428 1.612-5.073 2.143-7.819 1.75-2.783-.439-5.089-2.006-6.929-4.717l-9.271-14.278 29.618-19.234 3.814 5.871-11.571 7.513 2.832 4.363c2.628 5.255 5.729 4.547 8.903 2.907 2.469-1.275 4.684-3.715 7.353-3.151zm-25.355 6.753c1.207-.785 1.943-1.788 2.195-3.006.287-1.319-.061-2.744-1.052-4.268l-4.416-6.799-7.828 5.085 4.731 7.285c.979 1.446 2.061 2.256 3.258 2.416 1.191.105 2.225-.137 3.112-.713"/><path d="m419.109 205.195-5.457 3.025-13.196-23.806 5.458-3.025 4.887 8.817 25.388-14.073 3.395 6.122-25.389 14.073z"/><path d="m451.114 204.223-31.7 15.461-3.069-6.293 31.701-15.461z"/><path d="m466.347 238.067-32.465 13.781-2.55-6.007 22.613-9.598-.036-.084-27.815-2.657-2.869-6.762 32.464-13.78 2.55 6.008-23.147 9.825.035.084 28.487 2.755z"/><path d="m480.579 275.837-17.986 6.193-4.555-13.232 5.628-1.938 2.516 7.31c1.536-.893 2.656-1.843 3.372-2.859.765-1.025 1.254-2.044 1.468-3.035.212-.939.287-1.779.219-2.526-.1-.772-.212-1.347-.347-1.743-.396-1.144-.957-2.172-1.694-3.08-.714-.992-1.66-1.775-2.841-2.339-.591-.263-1.246-.479-1.972-.645-.676-.157-1.435-.25-2.275-.274-1.642-.065-3.599.287-5.869 1.068-4.234 1.511-7.001 3.511-8.284 6.022-1.214 2.358-1.401 4.762-.566 7.184.406 1.178.969 2.135 1.702 2.878.743.725 1.52 1.269 2.336 1.63.814.352 1.563.561 2.249.62.715.067 1.236.043 1.57-.071l2.278 6.619c-1.203.327-2.559.464-4.072.397-1.466-.135-2.958-.566-4.48-1.289-1.518-.69-2.933-1.779-4.246-3.275-1.31-1.49-2.379-3.443-3.216-5.873-1.698-5.331-1.268-9.843 1.292-13.548 2.607-3.749 6.276-6.423 11.018-8.02 5.876-1.954 10.753-1.972 14.627-.049 3.878 1.774 6.494 4.65 7.862 8.62.464 1.445.712 2.77.737 3.974.023 1.151-.082 2.202-.318 3.131-.266.958-.582 1.803-.953 2.536-.363.732-.736 1.38-1.133 1.941l4.408-.756z"/><path d="m484.347 339.007-1.452-6.84c4.117-1.813 5.768-4.685 4.962-8.631-.641-2.86-2.281-4.672-4.933-5.44-2.537-.792-5.395-.846-8.575-.171-2.474.527-4.433 1.236-5.876 2.13-1.449.861-2.533 1.785-3.235 2.779-.703 1.063-1.143 2.102-1.3 3.098-.126.982-.097 1.872.073 2.672.304 1.425.76 2.552 1.383 3.39.569.825 1.224 1.422 1.969 1.783.753.351 1.477.599 2.179.752.749.065 1.406.085 1.971.057l1.453 6.841c-2.773.464-5.696-.13-8.765-1.772-3.16-1.679-5.305-4.916-6.43-9.732-.925-4.35-.17-8.243 2.274-11.676 2.441-3.517 6.689-5.943 12.722-7.292 5.967-1.235 10.768-.775 14.402 1.384 3.629 2.075 5.93 5.336 6.905 9.766.839 4.1.324 7.591-1.551 10.46-1.769 2.827-4.495 4.973-8.176 6.442"/><path d="m501.264 367.041-6.299.997-2.61-16.475-28.533 4.521-1.096-6.916 34.834-5.517z"/><path d="m491.812 401.001-22.84 1.997-.622-7.121 23.133-2.023c4.452-.325 6.49-2.764 6.124-7.326-.143-1.648-.837-2.992-2.086-4.018-1.203-1.08-3.025-1.52-5.483-1.336l-22.801 1.994-.619-7.073 23.282-2.036c3.532-.309 6.454.291 8.747 1.806 1.804 1.446 3.092 3.117 3.885 5.029.734 1.908 1.165 3.655 1.303 5.23.882 8.94-3.132 13.893-12.023 14.877"/><path d="m495.632 439.085c-1.807.097-3.489-.18-5.044-.831-1.564-.715-2.801-2.081-3.698-4.082-.183.391-.422.834-.724 1.328-.288.445-.681.9-1.173 1.361-.516.468-1.215.862-2.098 1.17-.841.292-1.868.459-3.078.501-.942.034-1.946-.079-2.996-.338-1.033-.274-2.018-.781-2.953-1.526-.984-.729-1.797-1.74-2.434-3.055-.596-1.347-.926-3.048-.998-5.109l-.568-16.27 35.247-1.231.494 14.182c.118 3.331-.094 5.739-.632 7.217-.267.803-.588 1.478-.962 2.031-.333.53-.741 1.027-1.226 1.495-1.866 1.941-4.255 2.99-7.157 3.157zm-15.216-7.294c1.374-.079 2.363-.589 2.954-1.543.589-.938.86-2.121.81-3.544l-.285-8.192-7.702.27.28 8.003c.056 1.611.354 2.863.9 3.761.589.882 1.604 1.296 3.043 1.245zm14.177.317c3.468-.178 5.124-2.038 4.97-5.572l-.3-8.56-9.42.329.312 8.912c.046 1.334.397 2.492 1.054 3.477.691.968 1.82 1.444 3.384 1.414"/><g fill-rule="evenodd"><path d="m467.091 300.76c2.313 0 4.189-1.876 4.189-4.189s-1.876-4.189-4.189-4.189c-2.314 0-4.19 1.876-4.19 4.189s1.876 4.189 4.19 4.189"/><path d="m124.946 315.662c2.313 0 4.189-1.876 4.189-4.189s-1.876-4.189-4.189-4.189c-2.314 0-4.189 1.876-4.189 4.189s1.875 4.189 4.189 4.189"/></g></g><g fill="#fff" fill-rule="evenodd"><g transform="matrix(1.2344956375 0 0 -1.234721425 -97.0528375 717.87938375)"><path d="m120.548 465.661v103.781h19.042v-88.021l18.209.066v-15.761z"/><path d="m180.49 465.726v17.882h17.977v-17.882z"/><path d="m297.85742 32.136719c-21.24125 0-31.86328 12.563906-31.86328 37.691406v55.710935c0 11.77625 1.98055 20.2125 7.06055 27.78125 4.60625 6.86625 12.97679 11.5918 23.99804 11.5918 11.46875 0 19.54985-3.17555 24.2461-9.49805 5.18375-6.975 7.78711-16.93375 7.78711-29.875v-55.710935c0-12.1575-2.66555-21.49-7.99805-28.03125-5.95375-7.265-14.10922-9.660156-23.23047-9.660156zm-.23437 19.986328c5.21875.06875 8.02148 2.462734 8.02148 10.708984v68.654299c0 8.9675-1.92523 13.88086-8.02148 13.88086-5.84375 0-8.44571-4.72031-8.43946-13.25781l.0684-69.277349c.7275-7.56375 3.1511-10.778984 8.3711-10.708984z" transform="matrix(.8 0 0 -.8 0 596)"/><path d="m323.208 524.712c-3.088 4.494-6.602 12.086-6.329 20.212s1.862 14.225 5.997 19.135c4.135 4.912 10.548 7.727 19.044 7.727 7.298 0 13.822-1.915 18.585-7.728 3.781-4.637 5.883-11.035 6.313-19.201h-18.669v2.373c0 6.598-2.841 8.363-6.417 8.567-3.577.203-6.882-2.07-6.996-8.117-.068-3.673-.274-5.36 2.422-8.756 7.152-9.009 18.978-16.768 25.357-26.621 3.145-4.856 5.099-9.997 5.133-19.727.038-10.361-2.235-13.835-6.377-19.412-3.755-5.054-10.819-7.598-19.995-7.598-8.817 0-15.514 3.781-19.199 9.273-4.536 6.761-5.646 14.471-5.646 22.444h18.556l-.006-5.475c-.005-6.829 2.077-10.607 6.752-10.607 4.877 0 6.397 3.336 6.416 8.712.021 6.094-1.525 10.242-3.844 13.15-6.885 8.637-15.145 12.986-21.097 21.649z"/><path d="m424.245 495.568v44.569c0 20.102 8.496 30.153 25.489 30.153 7.297 0 13.822-1.915 18.585-7.727 4.266-5.233 6.397-12.7 6.397-22.426v-.366h-18.753v5.964c0 6.597-2.242 8.511-6.418 8.566-4.175.056-6.113-2.515-6.696-8.566l-.054-55.422c-.006-6.83 2.076-10.607 6.752-10.607 4.877 0 6.416 3.931 6.416 11.105v2.882h18.729c-.24-9.445-2.313-16.788-6.205-22.025-3.757-5.058-10.222-7.598-19.397-7.598-8.817 0-15.515 3.781-19.199 9.274-4.064 6.055-5.646 12.803-5.646 22.224z"/><path d="m284.826 465.825v17.786h17.978v-17.786z"/><path d="m387.868 465.825v17.786h17.976v-17.786z"/></g><g transform="matrix(1.2344956375 0 0 -1.234721425 -97.0472825 717.87938375)"><path d="m297.632 436.518c-9.846-15.498-23.813-43.333-24.755-70.932-1.218-35.752 12.518-79.874 19.075-115.042h11.469c5.762 31.99 20.668 81.332 18.93 115.638-1.224 24.189-13.703 54.641-24.719 70.336z"/><path d="m256.801 243.391h81.662v-13.113h-81.662z"/><path d="m216.235 274.983c-1.692 16.888 7.604 26.954 20.265 27.12 13.479.176 32.985-17.893 38.152-51.559h9.241c-3.874 23.623-12.789 85.792-57.525 87.026-15.334.424-34.332-11.624-34.272-30.102.044-13.838 8.84-24.736 24.139-32.485z"/><path d="m379.02 274.983c1.692 16.888-7.605 26.954-20.266 27.12-13.478.176-32.984-17.893-38.151-51.559h-9.242c3.875 23.623 12.789 85.792 57.525 87.026 15.335.424 34.333-11.624 34.273-30.102-.045-13.838-8.841-24.736-24.139-32.485z"/><path d="m291.886 222.307c-4.977-12.367-8.013-28.472-6.869-41.289 1.337-14.953 5.522-26.731 12.615-38.899 7.493 12.231 12.415 27.368 12.92 42.188.405 11.897-2.66 27.566-7.127 38z"/><path d="m281.732 222.307c-2.372-14.912-13.127-51.859-37.979-51.678-9.194.067-18.958 6.782-18.467 16.97.239 4.926 4.578 11.888 11.947 10.772 5.672-.859 7.66-4.782 7.688-7.846.019-1.836-.797-3.547-.829-5.127-.046-2.209 1.215-3.805 4.488-3.784 6.844.045 9.978 5.254 11.798 7.575 5.304 6.763 10.572 19.857 12.843 33.118z"/><path d="m313.563 222.307c2.372-14.912 13.128-51.859 37.979-51.678 9.194.067 18.959 6.782 18.467 16.97-.238 4.926-4.578 11.888-11.946 10.772-5.673-.859-7.66-4.782-7.69-7.846-.018-1.836.798-3.547.831-5.127.046-2.209-1.216-3.805-4.489-3.784-6.844.045-9.977 5.254-11.798 7.575-5.304 6.763-10.571 19.857-12.843 33.118z"/></g></g></svg>