<?xml version="1.0" encoding="utf-8"?>
<svg xmlns="http://www.w3.org/2000/svg" xml:space="preserve" width="250" height="250">
  <path fill="#021540" d="M181.694 46.417c-9.393-5.837-23.635-6.044-33.907-1.166v35.943c11.693-5.551 23.093-5.551 33.907 1.17V46.417m-33.907 92.931c11.693 5.551 23.093 5.551 33.907-1.17V99.604c-10.814-6.721-22.214-6.721-33.907-1.17v40.914zm0 65.168 13.453 6.43c5.847-3.507 14.606-7.6 20.454-9.349V156c-10.814 6.727-22.214 6.727-33.907 1.176v47.34zM115.65 54.6v142.024l11.106 1.758V42.037c-5.263.578-11.106 4.089-11.106 12.563zM58.956 6.964h112.22c27.468 0 46.175 18.707 46.175 44.422 0 24.544-7.023 121.567 2.33 161.896-25.708-1.753-51.429 9.94-68.97 32.149-18.114-9.937-29.801-11.107-50.257-11.107-16.366 0-39.75 5.261-57.864 12.272-6.899 2.672-4.676-.879-.587-6.716 10.519-15.032 31.562-33.611 53.77-42.383V46.708c-8.178 8.188-11.684 16.949-11.684 33.315v89.423c0 15.777-5.848 26.884-14.613 34.485-8.771 7.596-19.873 9.936-25.715 11.105-5.847 1.166-8.183 0-3.511-5.846 4.677-5.847 9.354-10.521 9.354-31.563v-42.662c-4.676 1.747-10.351 6.537-13.442 11.102-3.072 4.527-5.843 3.233-5.843-1.755 0-14.029 8.761-27.464 19.285-32.724v-10.524c-4.676 1.753-9.936 6.43-13.442 11.102-3.26 4.347-5.843 3.447-5.843-1.752 0-14.026 8.761-27.468 19.285-32.728 0-21.625 8.766-29.226 22.796-36.821C52.235 37.38 34.116 14.001 32.017 2.5c6.479 3.318 18.169 4.444 26.939 4.464z"/>
</svg>