<svg xmlns="http://www.w3.org/2000/svg" xml:space="preserve" style="enable-background:new 0 0 512 512" viewBox="0 0 512 512"><title>Cincinnati Reds Cap Insignia</title><path d="M 512,0 V 512 H 0 V 0 Z" fill="#c6011f" /><g><path d="m 283.13707,403.85942 c -101.57737,0 -141.51022,-43.58475 -188.540474,-93.5262 C 75.300127,289.84497 63.240873,271.34746 32.003331,248.31087 l 6.429937,14.84395 c 30.037444,24.56293 42.429596,42.31808 61.719402,62.78468 47.03692,49.97808 86.28899,89.28175 187.87301,89.28175 88.91888,0 157.77065,-43.94927 190.12505,-98.00702 l -4.85197,-11.37847 c -32.38439,54.07605 -101.2145,98.02366 -190.16169,98.02366 m 5.97552,-242.76632 c 58.4287,0 102.52613,26.9781 117.32512,50.37755 H 480 c -1.34824,-2.6815 -4.64394,-11.5932 -4.64394,-11.5932 h -70.25159 c -14.80733,-23.39944 -60.92545,-50.37089 -119.35582,-50.37089 -99.35526,0 -138.34767,66.02212 -138.34767,97.6658 0,18.31109 5.34801,34.43004 14.41451,48.14047 -5.93226,-11.17041 -7.33376,-27.97014 -7.33376,-38.84427 0,-31.62704 37.51102,-95.37546 134.63086,-95.37546" fill="#000000" /><path d="m 285.74865,149.5049 c 58.42871,0 104.54849,26.9781 119.35582,50.37755 h 70.25159 C 442.78527,135.5348 358.6884,96.778746 274.5849,96.778746 c -82.59215,0 -145.71805,47.644454 -181.925775,90.548424 -35.134121,41.57738 -51.258066,54.91163 -57.436664,59.10283 -2.26704,1.53466 -3.222459,1.88254 -3.222459,1.88254 31.2442,23.03658 43.303453,41.53243 62.593266,62.02234 47.036912,49.94145 86.969772,93.5262 188.540462,93.5262 88.94887,0 157.77732,-43.9476 190.16335,-98.03032 h -69.45929 c -32.51922,24.68943 -72.3189,44.58512 -122.91117,44.58512 -46.73398,0 -95.54857,-19.48955 -119.10448,-55.09639 -9.07315,-13.71875 -14.42116,-29.8377 -14.42116,-48.14047 0,-31.652 38.99241,-97.67412 138.34767,-97.67412" fill="#f9f9f9" /></g></svg>