<?xml version="1.0" encoding="UTF-8" standalone="no"?>
<svg
   xmlns:dc="http://purl.org/dc/elements/1.1/"
   xmlns:cc="http://creativecommons.org/ns#"
   xmlns:rdf="http://www.w3.org/1999/02/22-rdf-syntax-ns#"
   xmlns:svg="http://www.w3.org/2000/svg"
   xmlns="http://www.w3.org/2000/svg"
   xmlns:xlink="http://www.w3.org/1999/xlink"
   width="402"
   height="229"
   viewBox="0 0 401.99999 229"
   id="svg4212"
   version="1.1">
  <defs
     id="defs4214">
    <pattern
       xlink:href="#Strips1_5"
       id="pattern5599"
       patternTransform="matrix(9.1394239,0,0,9.7943283,59.85591,831.60092)" />
    <pattern
       id="Strips1_5"
       patternTransform="translate(0,0) scale(10,10)"
       height="1"
       width="6"
       patternUnits="userSpaceOnUse">
      <rect
         id="rect4887"
         height="2"
         width="1"
         y="-0.5"
         x="0"
         style="fill:#0a3a99;stroke:none" />
    </pattern>
  </defs>
  <g
     id="layer1"
     transform="translate(0,-823.36216)">
    <rect
       style="fill:#ffffff;fill-opacity:1;stroke:none"
       id="rect5576"
       width="402.00842"
       height="229.00366"
       x="0"
       y="823.36218" />
    <rect
       style="fill:url(#pattern5599);fill-opacity:1;fill-rule:evenodd;stroke:none;stroke-width:1px;stroke-linecap:butt;stroke-linejoin:miter;stroke-opacity:1"
       id="rect3336"
       width="402.00534"
       height="228.99832"
       x="0"
       y="823.36218" />
    <rect
       style="fill:#ffffff;fill-opacity:1;stroke:none"
       id="rect5601"
       width="223.52966"
       height="53.452747"
       x="89.235168"
       y="846.06104" />
    <rect
       style="fill:#ffffff;fill-opacity:1;stroke:none"
       id="rect4154"
       width="124.74239"
       height="112.50352"
       x="138.6288"
       y="920.08813" />
    <g
       style="fill:#0a3a99;">
      <path
         d="m 94.478394,880.53943 8.789066,-0.85449 q 0.79345,4.42505 3.20434,6.50024 2.44141,2.0752 6.56128,2.0752 4.36401,0 6.56128,-1.83106 2.22778,-1.86157 2.22778,-4.33349 0,-1.58692 -0.94604,-2.68555 -0.91553,-1.12915 -3.23486,-1.95313 -1.58692,-0.54931 -7.23267,-1.95312 -7.26318,-1.80054 -10.19287,-4.42505 -4.119875,-3.69263 -4.119875,-9.00269 0,-3.41796 1.922608,-6.37817 1.953125,-2.99072 5.584717,-4.54712 3.66211,-1.5564 8.81958,-1.5564 8.42285,0 12.66479,3.69263 4.27247,3.69263 4.48609,9.85718 l -9.0332,0.39673 q -0.57984,-3.44849 -2.50245,-4.94385 -1.89209,-1.52588 -5.70678,-1.52588 -3.93677,0 -6.16455,1.61743 -1.43433,1.0376 -1.43433,2.7771 0,1.58692 1.34277,2.71607 1.70899,1.43432 8.30078,2.99072 6.5918,1.5564 9.73511,3.23486 3.17383,1.64795 4.94385,4.54712 1.80054,2.86865 1.80054,7.1106 0,3.84521 -2.13623,7.20215 -2.13623,3.35693 -6.04248,5.00488 -3.90625,1.61743 -9.73511,1.61743 -8.48389,0 -13.031008,-3.90625 -4.547119,-3.93677 -5.432128,-11.44409 z"
         style=""
         id="path4865" />
      <path
         d="m 178.8595,895.09631 -9.82666,0 -3.90625,-10.16235 -17.8833,0 -3.69263,10.16235 -9.58252,0 17.42554,-44.73877 9.552,0 17.91382,44.73877 z m -16.63208,-17.70019 -6.16455,-16.60156 -6.04248,16.60156 12.20703,0 z"
         style=""
         id="path4867" />
      <path
         d="m 183.8949,895.09631 0,-44.73877 8.78906,0 18.31055,29.87671 0,-29.87671 8.39233,0 0,44.73877 -9.06372,0 -18.03589,-29.1748 0,29.1748 -8.39233,0 z"
         style=""
         id="path4869" />
      <path
         d="m 239.04016,895.09631 0,-37.17041 -13.27515,0 0,-7.56836 35.55298,0 0,7.56836 -13.24463,0 0,37.17041 -9.0332,0 z"
         style=""
         id="path4871" />
      <path
         d="m 264.12561,873.00159 q 0,-6.83594 2.04468,-11.47461 1.52588,-3.41797 4.15039,-6.13404 2.65503,-2.71606 5.79834,-4.02832 4.18091,-1.77002 9.64355,-1.77002 9.8877,0 15.80811,6.13404 5.95093,6.13403 5.95093,17.05932 0,10.83374 -5.8899,16.96778 -5.88989,6.10351 -15.74707,6.10351 -9.97924,0 -15.86914,-6.073 -5.88989,-6.10351 -5.88989,-16.78466 z m 9.30786,-0.30518 q 0,7.59888 3.50952,11.53565 3.50952,3.90625 8.91114,3.90625 5.40161,0 8.85009,-3.87574 3.47901,-3.90625 3.47901,-11.68823 0,-7.69043 -3.38745,-11.47461 -3.35694,-3.78418 -8.94165,-3.78418 -5.58472,0 -9.00269,3.84522 -3.41797,3.81469 -3.41797,11.53564 z"
         style=""
         id="path4873" />
    </g>
    <g
       style="fill:#0a3a99;">
      <path
         d="m 175.16309,1010.4235 0,-84.12504 -26.75,0 0,15.875 10.625,0 0,68.25004 -12,0 0,15.875 41.375,0 0,-15.875 -13.25,0 z"
         style=""
         id="path4876" />
      <path
         d="m 239.33691,926.29846 -26.625,0 q -4.625,0 -9.375,3.625 -6.25,4.75 -6.25,12.875 l 0,67.00004 q 0,8.125 6.25,12.875 4.75,3.625 9.375,3.625 l 26.625,0 q 4.625,0 9.375,-3.625 6.25,-4.75 6.25,-12.875 l 0,-67.00004 q 0,-8.125 -6.25,-12.875 -4.75,-3.625 -9.375,-3.625 z m -0.375,79.00004 q 0,2.25 -1.625,3.875 -1.5,1.5 -3.75,1.5 l -15.75,0 q -2.25,0 -3.875,-1.5 -1.5,-1.625 -1.5,-3.875 l 0,-57.75004 q 0,-2.25 1.5,-3.75 1.625,-1.625 3.875,-1.625 l 15.75,0 q 2.25,0 3.75,1.625 1.625,1.5 1.625,3.75 l 0,57.75004 z"
         style=""
         id="path4878" />
    </g>
  </g>
</svg>
