<svg xmlns="http://www.w3.org/2000/svg" width="183" height="250"><path d="M177.466 153.361c.44-.788.625-1.576.625-2.293 0-1.29-.563-2.376-1.209-2.918-1.576-1.362-4.27-1.639-6.153.532l-.153.194-.082.205a3.58 3.58 0 0 0-.317 1.454c0 .194.021.368.051.532-.604-.144-1.249-.369-1.822-.758-.082-.051-7.863-5.283-7.863-12.185v-.144c.092-6.378 1.105-9.777 6.522-11.989 0 .03-.011.051-.011.082 0 .471.072.952.235 1.393.369 1.014 1.178 1.72 2.263 2.027 1.434.399 2.898.163 4.014-.614 1.055-.748 1.71-1.945 1.792-3.267v-.051-.123c0-2.918-3.256-6.164-5.272-7.71-.451-.44-7.689-7.516-10.454-13.178-.973-2.314-2.386-6.471-2.386-8.56 0-.154.021-.297.041-.44v-.041c.174-1.863.665-3.266 1.178-4.311.379.41.859.778 1.525 1.034l.215.082.246.021c2.856.153 4.535-1.966 4.658-4.044.093-1.362-.973-3.542-3.583-4.116l-.175-.041s-.153.01-.174.01l-.174.01c-.205.01-.42.021-.604.041.011-.205.031-.419.031-.635V83.232l-.041-.164c-.666-2.591-2.867-3.584-4.229-3.451-1.966.174-3.912 1.741-3.912 4.321 0 .144 0 .297.021.471l.021.225.082.225c.276.625.604 1.106.942 1.485-.41.235-.942.46-1.618.614-.521.062-8.15.932-15.103-2.959l-.041-.021-.04-.021c-8.191-3.921-10.608-4.761-11.253-4.945-.819-.307-7.475-2.713-12.082-1.218-2.242.716-3.911 2.252-5.109 3.757-.471-1.034-1.208-2.088-2.406-3.031-4.096-3.85-13.239-3.532-13.925-3.501h-.471c-.696-.031-9.83-.348-13.925 3.501-1.198.942-1.946 1.997-2.406 3.031-1.198-1.505-2.877-3.041-5.109-3.757-4.607-1.495-11.273.911-12.082 1.218-.645.184-3.071 1.024-11.252 4.945l-.041.021-.041.021c-6.952 3.891-14.59 3.021-15.112 2.959a6.109 6.109 0 0 1-1.618-.614c.348-.379.676-.86.942-1.485l.092-.225.021-.225c.021-.174.021-.328.021-.471 0-2.58-1.956-4.147-3.911-4.321-1.362-.133-3.563.86-4.229 3.451l-.041.164V83.56c0 .226.021.43.031.635-.185-.021-.389-.031-.583-.041l-.205-.01-.174-.01-.164.041c-2.611.574-3.676 2.754-3.594 4.116.133 2.079 1.813 4.198 4.669 4.044l.246-.021.215-.082a3.973 3.973 0 0 0 1.525-1.034c.512 1.044 1.003 2.447 1.177 4.311v.041c.021.144.031.287.031.44 0 2.089-1.413 6.246-2.375 8.56-2.764 5.662-10.003 12.737-10.454 13.178-2.027 1.546-5.283 4.792-5.283 7.71 0 .041 0 .082.01.123v.051c.082 1.321.737 2.519 1.792 3.267 1.116.777 2.581 1.014 4.014.614 1.085-.308 1.895-1.014 2.252-2.027.174-.44.246-.922.246-1.393 0-.031-.01-.052-.01-.082 5.406 2.212 6.42 5.611 6.522 11.989v.144c0 6.901-7.781 12.134-7.863 12.185-.573.389-1.219.614-1.823.758.031-.164.051-.338.051-.532 0-.451-.092-.942-.317-1.454l-.092-.205-.143-.194c-1.884-2.171-4.577-1.895-6.154-.532-.655.542-1.208 1.628-1.208 2.918 0 .717.184 1.505.625 2.293l.215.379c.01 0 .123.123.123.123.194.194.389.358.583.512-.194.175-.389.338-.583.522l-.123.123-.102.164a4.743 4.743 0 0 0-.737 2.519c0 1.279.553 2.365 1.208 2.908 1.577 1.371 4.27 1.628 6.154-.533l.143-.184.092-.226c.225-.502.317-.993.317-1.443 0-.297-.051-.584-.123-.851.635.103 1.301.297 1.895.696l.123.093.154.062c1.945.788 4.782 4.105 5.765 5.375 1.7 2.591 2.846 6.983 3.973 11.222l1.27 4.628c1.229 4.106 1.802 5.161 2.836 7.075l1.618 3.103c2.979 5.232 6.962 8.13 11.856 8.642.84.082 1.607.03 2.304-.103a11.117 11.117 0 0 0-.235 2.212c0 1.157.184 2.468.655 3.911 1.311 4.208 7.679 7.577 12.778 9.646l2.99 1.188c5.447 2.16 13.679 5.406 18.297 8.313 3.481 2.191 6 5.796 7.311 8.007a3.904 3.904 0 0 0-.543.276c-1.095.676-1.689 1.833-1.689 3.287 0 1.505.655 2.386 1.229 2.867.635.532 1.403.768 2.068.859.133.707.338 1.557.737 2.376.83 1.72 2.273 2.948 2.437 3.092l.965.799.973-.799c.164-.144 1.607-1.372 2.437-3.092.399-.819.604-1.669.717-2.376.687-.092 1.454-.327 2.089-.859.573-.481 1.229-1.362 1.229-2.867 0-1.454-.594-2.611-1.689-3.287-.174-.112-.368-.194-.542-.276 1.311-2.211 3.829-5.815 7.311-8.007 4.617-2.907 12.85-6.153 18.286-8.313l3-1.188c5.1-2.068 11.458-5.438 12.778-9.666.481-1.434.655-2.733.655-3.891 0-.819-.092-1.546-.235-2.212a8.041 8.041 0 0 0 2.304.103c4.895-.512 8.877-3.409 11.847-8.642l.021-.021 1.607-3.082c1.034-1.914 1.607-2.969 2.826-7.075l1.279-4.628c1.116-4.238 2.273-8.631 3.973-11.222.973-1.27 3.819-4.587 5.765-5.375l.153-.062.123-.093c.594-.399 1.26-.594 1.884-.696a3.767 3.767 0 0 0-.112.851c0 .45.092.941.317 1.443l.082.226.153.184c1.884 2.161 4.577 1.904 6.153.533.646-.543 1.209-1.629 1.209-2.908a4.61 4.61 0 0 0-.758-2.519l-.082-.164-.123-.123c-.194-.185-.399-.348-.584-.522.185-.153.39-.317.584-.512 0 0 .092-.092.103-.112l.233-.39zm-1.567 6.103c-.758.655-2.58 1.29-4.014-.379-.84-1.976 1.361-3.103 1.361-3.103s-3.184-.839-5.683.83c-2.805 1.137-6.45 5.907-6.45 5.907-2.488 3.799-3.778 10.689-5.447 16.301-1.669 5.61-2.058 5.222-4.32 9.85-3.491 6.144-7.741 7.577-10.7 7.884-2.948.308-4.996-1.434-4.996-1.434s2.724 3.257.982 8.499c-1.055 3.399-6.665 6.594-11.897 8.703-5.231 2.119-15.84 6.062-21.522 9.624-5.682 3.563-8.918 10.525-8.918 10.525.185-.081 3.144-.43 3.144 2.335s-3.185 2.232-3.185 2.232 0 1.74-.706 3.204c-.717 1.485-2.048 2.591-2.048 2.591s-1.331-1.105-2.048-2.591c-.707-1.464-.707-3.204-.707-3.204s-3.184.532-3.184-2.232 2.949-2.416 3.133-2.335c0 0-3.226-6.962-8.908-10.525-5.683-3.563-16.29-7.505-21.522-9.624-5.232-2.109-10.843-5.304-11.897-8.703-1.751-5.242.983-8.499.983-8.499s-2.058 1.741-5.007 1.434c-2.949-.307-7.198-1.74-10.689-7.884-2.273-4.628-2.652-4.239-4.321-9.85-1.669-5.611-2.959-12.502-5.447-16.301 0 0-3.645-4.771-6.451-5.907-2.498-1.669-5.683-.83-5.683-.83s2.191 1.127 1.362 3.103c-1.433 1.669-3.276 1.034-4.014.379-.532-.45-1.146-1.904-.164-3.481 1.597-1.597 3.041-1.607 3.041-1.607s-1.444 0-3.041-1.587c-.983-1.587-.369-3.03.164-3.481.737-.655 2.581-1.29 4.014.369.83 1.976-1.362 3.112-1.362 3.112s3.185.451 5.683-1.208c0 0 8.672-5.703 8.54-13.617-.123-7.926-1.761-11.939-10.3-14.325.757 1.126 1.464 3.809-.635 4.392-2.078.574-3.768-.696-3.891-2.508-.072-2.16 2.775-5.16 4.771-6.655 0 0 7.843-7.546 10.822-13.679 0 0 2.867-6.798 2.488-9.819-.481-5.15-3.225-7.495-3.225-7.495s.46 2.171-1.536 2.938c-2.201.133-3.01-1.628-3.072-2.621-.041-.696.574-2.129 2.396-2.529 2.263.041 3.256 1.065 3.256 1.065s-.993-1.034-.952-3.276c.451-1.833 1.905-2.396 2.611-2.325.973.092 2.713.963 2.509 3.154-.84 1.966-2.12 1.71-2.12 1.71s.993 1.833 3.932 2.468c0 0 8.396 1.198 16.105-3.133 9.502-4.536 11.079-4.863 11.079-4.863s6.789-2.632 11.15-1.219c4.351 1.403 6.409 6.666 6.409 6.666s-.717-3.748 2.55-6.225c3.696-3.583 12.911-3.144 12.911-3.144h.532s9.215-.44 12.912 3.144c3.266 2.478 2.549 6.225 2.549 6.225s2.048-5.263 6.41-6.666c4.361-1.413 11.15 1.219 11.15 1.219s1.576.328 11.058 4.863c7.73 4.331 16.126 3.133 16.126 3.133 2.938-.635 3.932-2.468 3.932-2.468s-1.3.256-2.119-1.71c-.205-2.191 1.525-3.062 2.509-3.154.706-.071 2.16.492 2.61 2.325.041 2.242-.962 3.276-.962 3.276s1.003-1.024 3.267-1.065c1.822.399 2.437 1.833 2.396 2.529-.062.993-.87 2.754-3.071 2.621-1.997-.768-1.547-2.938-1.547-2.938s-2.733 2.345-3.215 7.495c-.379 3.021 2.478 9.819 2.478 9.819 2.99 6.133 10.833 13.679 10.833 13.679 1.997 1.495 4.843 4.495 4.762 6.655-.123 1.812-1.803 3.083-3.892 2.508-2.088-.583-1.382-3.266-.635-4.392-8.528 2.385-10.167 6.399-10.29 14.325-.133 7.914 8.539 13.617 8.539 13.617 2.499 1.659 5.683 1.208 5.683 1.208s-2.201-1.137-1.361-3.112c1.434-1.659 3.256-1.024 4.014-.369.532.451 1.137 1.895.144 3.481-1.577 1.587-3.021 1.587-3.021 1.587s1.443.011 3.021 1.607c.991 1.577.387 3.031-.146 3.481"/><path fill="#231F20" d="M74.35 87.874s-1.403-3.87-3.123-4.741c-1.73-.86-7.556-1.188-12.194.646-4.639 1.833-11.54 4.956-14.775 5.938-9.492 4.628-18.225-2.058-18.225-2.058s5.068 4.751 2.805 14.672c-1.413 5.068-2.805 8.519-6.573 12.072-3.778 3.563-9.604 8.099-9.604 8.099s4.956-1.29 9.809 2.806c3.451 4.085 6.799 9.389 4.321 17.14-4.208 11.651-14.129 11.549-14.129 11.549s9.481.963 13.7 11.427c4.208 10.465 4.638 16.73 7.976 21.563 6.645 12.799 12.553 6.809 12.553 6.809s-2.417.563-3.062-1.464c.01-2.212 1.813-2.908 2.806-2.908.696 0 2.088.696 2.386 2.55-.185 2.253-1.27 3.185-1.27 3.185s1.096-.932 3.348-.758c1.782.573 2.253 2.058 2.15 2.754-.154.973-1.126 2.652-3.297 2.314-1.915-.952-.983-3.246-.983-3.246s-2.621 2.519-1.208 5.468c1.413 2.959 2.324 4.055 14.765 8.733 3.01.993 4.229 1.352 14.14 5.908 11.99 6.45 14.836 19.085 14.836 19.085s2.847-12.635 14.836-19.085c9.901-4.557 11.141-4.915 14.141-5.908 12.43-4.679 13.352-5.774 14.764-8.733 1.413-2.949-1.208-5.468-1.208-5.468s.942 2.294-.982 3.246c-2.181.338-3.144-1.342-3.297-2.314-.113-.696.379-2.181 2.16-2.754 2.242-.174 3.327.758 3.327.758s-1.085-.932-1.259-3.185c.286-1.854 1.679-2.55 2.386-2.55.982 0 2.795.696 2.806 2.908-.646 2.027-3.062 1.464-3.062 1.464s5.897 5.99 12.553-6.809c3.348-4.833 3.778-11.099 7.976-21.563 4.209-10.464 13.7-11.427 13.7-11.427s-9.922.103-14.13-11.549c-2.478-7.751.86-13.055 4.311-17.14 4.854-4.096 9.819-2.806 9.819-2.806s-5.826-4.536-9.594-8.099c-3.778-3.553-5.182-7.003-6.573-12.072-2.273-9.921 2.795-14.672 2.795-14.672s-8.734 6.686-18.235 2.058c-3.226-.983-10.137-4.106-14.775-5.938-4.628-1.833-10.464-1.505-12.174-.646-1.73.871-3.133 4.741-3.133 4.741l-.103.338s1.679-2.038 3.43-.44c1.547 2.037.031 3.645-.85 4.218-.624.399-2.283.563-3.604-.921-1.137-2.12-.696-3.584-.696-3.584s-.44 1.464-2.561 2.591c-1.925.522-3.204-.543-3.501-1.219-.431-.973-.522-3.031 1.617-3.983 2.273-.246 2.744 2.345 2.744 2.345v-.112s1.29-3.43-1.167-5.396c-2.478-1.966-4.331-1.352-7.096-1.352-2.744.676-5.201.901-5.201.901h-.338s-2.447-.225-5.202-.901c-2.744 0-4.607-.614-7.075 1.352-2.478 1.966-1.177 5.396-1.177 5.396l-.01.112s.481-2.59 2.744-2.345c2.15.952 2.048 3.01 1.628 3.983-.307.676-1.587 1.741-3.502 1.219-2.119-1.126-2.57-2.591-2.57-2.591s.44 1.464-.696 3.584c-1.311 1.484-2.959 1.321-3.594.921-.891-.573-2.386-2.181-.85-4.218 1.75-1.598 3.43.44 3.43.44l-.104-.338z"/><path fill="#F6EB14" d="M147.169 113.583c0 10.434-8.447 18.891-18.881 18.891-10.433 0-18.9-8.458-18.9-18.891s8.468-18.88 18.9-18.88c10.434 0 18.881 8.447 18.881 18.88"/><path fill="none" stroke="#231F20" stroke-width=".377" stroke-linecap="round" stroke-linejoin="round" d="M134.514 121.856l-.164-2.672.993-.839m-6.676-3.768l-.594.092.174.839m.666-1.095l1.669-.082v-.911m.665-2.672l.093.911m-.758.839l1.26-.174m.163.594l-.082-1.096m0 2.673l.748-1.249m-4.178-.502l.922.839m-2.837.748l.737.666m-1.238-2.171l.163 1.014m-1.505-1.761l.748 1.085m-2.253-.922l1.331 1.423v.666m9.451-6.43v.993m-6.86 3.932l.921-.747-.082-.594 4.096-3.921 1.505 1.331-.419 1.096.245 1.751 3-2.386 1.188.993m-12.042.562l3.522-3.43 3.174 3.348m-5.272 1.915l-2.539-2.836m-1.72.84s1.331-.256 1.587-.594c.052-.071.093-.153.134-.246.143-.389.194-.921.194-.921l1.434-1.505 4.341 4.516m1.003 17.466h.665l.174-1.003.328-.502h.584m.338.082l.839.584-.338.583h-.338l-.256-.583m-3.256-2.509v1.003m-.338 1.26l-.071-1.68m2.427 2.007l-.144-.081-1.208-.748m.512 2.171v-1.004m2.498-1.587h.676m.164 1.004v-1.505m-1.843-2.929l-.42-1.341m1.515 1.843l1.506 1.587.245.583m-4.259-1.259l.338-.83 1.238 1.423 1.014.246m-6.184 2.929l.921-1.249v-1.761l.584-.42 1.669-2.089h.583m4.424-3.43v-1.331m-.42 2.263v-1.259m-1.239 2.262l.666-.676m-1.843-.081l2.007 2.007m-2.427-4.516v1.843m-3.84 2.417l1.751-2.334m-3.512-.677l.921 1.26m.082-1.669v1.003h1.096v1.341m1.167-3.931l-1.085.922m0-2.591l.747-1.177 1.26-.583.84-.082.911.501.501 1.003.338 1.413-.092 1.259m-11.611-8.6s.502.921.666 1.659c.174.758.758 2.672.758 2.672m5.098 3.102v1.341m-.082-.593h-1.014m0-.42v.676m-.082-1.762h1.096v-.911m-1.177 1.495v-1.075m-1.751 11.283h1.751l.245-.839h-2.252m-1.086 2.836v-1.331h1.086v1.167h-.502l.379.379h-.717m.338-2.048v-.583h-.758v-.676h-.317m-1.177 1.761v-.584h1.833m-2.754-.174h.501m-.501.84v-1.424m.838 2.755v-.84m4.424-4.505l.758.839m.419.154v.676m-.757-3.092l1.003 1.505m-2.672-4.352l1.587 1.936m-1.004-4.608l.666 1.598m-4.506 2.835l1.659-1.085m-1.412-1.925l1.004-1.003m2.425 8.611l-1.925-2.509m-1.331 1.26l1.331-1.096m-1.085 2.263l.829-.83m3.349-9.614l-1.925-1.341h-.584l-1.915 1.423-.174 2.334-.338.921-.164 3.01-.583 2.345-.492.737.819.338.338.502m11.54.595h2.253m-5.437 0h2.252m-11.866 0h2.263m11.283-13.628v-1.504m.174 4.934v-1.587m3.255.747v1.331h-1.423v.84h-1.925v-.583m.502 6.685l.922-1.423s.84-1.751.84-2.007c0-.246.42-1.413.42-1.413l1.331-1.423m3.511-1.167s-1.086 2.672-1.26 3.01c-.163.328-1.249 1.587-1.249 1.587l-.256-.758.174-.921 1.26-2.007.737-.737m-5.928 8.017l2.263-3.092.164-2.181 1.505-1.833m-2.673 8.437l1.167-.994.747-1.423-.338-.676-1.156 1.423-1.014.912m1.342-10.188v-2.508m.511-.327v-1.178m-1.351.502v-.993m-.409 3.255v-1.587m2.835.328v3.512h.758v1.167m-.338-8.017l1.423-.84v-.666m-2.098-.583l1.178-.42.338-1.177m-5.519 1.679l1.249-.922.174 1.26s.502.409.829.409c.338 0 .84-.829.84-.829v-.921m5.15 7.505v1.618m-1.127-1.331v.43m1.803 2.457s-1.525-1.126-1.618-1.557c-.092-.43-.768.901-1.146.901-.369 0-.901-.666-.901-.666l-.133-2.089.327-.051v-1.556m2.324-.521v2.038m-2.611-2.991l-.717-.522m2.672-.286l-1.146 1.136m.092-3.686l-3.461 3.266m6.738.092s-1.526.103-1.751-.328c-.246-.43-.86-1.382-1.188-2.611-.338-1.229-.717-2.089-1.045-2.181-.327-.102-1.044.615-1.044.615m-2.058-1.935s-.215-1.618-.03-1.904c.194-.276.194-.471.194-.471l1.751 1.607m-4.219 21.144c.134.246.81.574.81.809 0 .246.809.287.809.625 0 .317.809.993.809.993s.512.328.747.185c.236-.144 3.185-3.42 3.748-4.219.563-.798 2.847-6.45 2.847-9.676 0-3.225-1.229-6.911-3.317-9.86-2.089-2.938-4.926-4.311-5.355-4.311-.768-.338-1.566.522-1.761.993-.185.471.051 1.515.327 1.997.287.471.625 1.085.287 1.894-.235.563-1.372 1.505-1.997 1.945l-1.034-.952c-.9-1.229-1.464-5.549-1.464-5.549s.563-.195 1.034-.144c.471.041 1.525.287 1.525.287s-1.146-2.56-2.806-2.232v-.512s-1.75-.051-2.56.378c-.799.43-2.181 1.751-2.231 1.936-.041.184.676.573.676.573s-.287 4.505-.625 4.833c-.327.338-1.331 1.423-1.751 1.423-.43 0-1.945-1.321-2.272-2.13-.338-.809-.481-1.28-.195-1.75.287-.481.522-1.526.328-1.997-.185-.471-.993-1.331-1.751-.993-.43 0-3.267 1.372-5.354 4.311-2.089 2.949-3.318 6.635-3.318 9.86 0 3.226 2.273 8.877 2.847 9.676.563.799 3.502 4.075 3.748 4.219.225.144.747-.185.747-.185s.809-.676.809-.993c0-.338.81-.379.81-.625 0-.235.665-.563.809-.809m.989-6.349v.615m-.235-9.01l2.037-2.939.573 1.044m-2.898 8.868l.052 1.136m.327-5.171v3.707m-.563 6.921s.431-.246.563-.666c.144-.43.052-.901.052-.901s-.86-2.232-1.096-2.898c-.236-.655-.707-1.607-.707-1.607m-.952-3.696v-1.566m-.327 5.447s.941-.133.941-.328c0-.184.144-1.945.144-1.945l-.276-.512-.052-.768m-6.88 0v1.618m1.147-1.331v.43m3.737 0v.993m.092-4.075v1.986h.431v.809m1.945 10.945s-1.004-2.846-1.413-3.501c-.43-.666-.676-2.744-1.146-3.328-.472-.563-.851-1.843-.851-1.843l.901-.758 1.28 1.895.563 1.331.472 2.273 1.238 1.751-.051 1.239m-2.939.562v-.901s-1.045-2.273-1.239-2.836c-.185-.573-.993-2.713-1.219-3.184-.245-.471-.717-1.177-.717-1.177m3.646 10.146s-.092-.809-.092-.993c0-.194-1.936-2.427-2.182-3.144-.235-.696-.85-2.601-.993-3.123-.133-.522-1.525-3.133-1.525-3.133m-1.751.523s1.526-1.126 1.618-1.557c.092-.43.758.901 1.137.901.389 0 .9-.666.9-.666l.144-2.089-.338-.051v-1.556m-2.313-.521v2.038m16.77-15.553s-.092-.328-.471-.328-.901.225-.901.225.379.533.584.533c.185 0 .42-.154.42-.154m2.509 7.106l-.584.594-.706-.707.737-.737.163.164m-1.023.542l-.737.737-.696-.707.727-.737.706.707zm-1.66 0l-.727.737-.717-.707.747-.737.697.707zm-3.532-.45l.45.451-.727.737-.399-.399m2.55-.339l-.737.737-.707-.707.737-.737.707.707zm-8.918 5.089l1.188-.993 1.598 1.7m-5.448-.472l.717-.522m-2.652-.286l1.137 1.136m2.692-3.082l-1.607 1.669m-1.178-2.273l3.46 3.266m-1.054-3.849l2.048 1.863 1.607-1.188m-3.03-.296l1.658-1.597 1.946 2.365m-9.922 2.794s1.525.103 1.761-.328.851-1.382 1.188-2.611.716-2.089 1.044-2.181c.327-.102 1.044.615 1.044.615m2.561-2.273s-.287-1.28-.472-1.566c-.194-.276-.194-.471-.194-.471l-1.761 1.607"/><path fill="#F6EB14" d="M110.094 193.867c0 10.443-8.457 18.9-18.88 18.9-10.434 0-18.891-8.457-18.891-18.9 0-10.424 8.457-18.881 18.891-18.881 10.423 0 18.88 8.457 18.88 18.881"/><path fill="none" stroke="#231F20" stroke-width=".377" stroke-linecap="round" stroke-linejoin="round" d="M97.438 202.15l-.164-2.673.993-.84m-6.675-3.767l-.583.082.164.84m.675-1.086l1.659-.081v-.922m.676-2.662l.082.901m-.758.839l1.26-.163m.173.594l-.092-1.096m.001 2.672l.747-1.249m-4.168-.502l.922.84m-2.847.748l.748.665m-1.249-2.171l.164 1.014m-1.505-1.761l.757 1.085m-2.252-.921l1.331 1.423v.666m9.44-6.431v.993m-6.85 3.932l.922-.747-.092-.594 4.106-3.922 1.495 1.331-.42 1.096.256 1.751 3-2.386 1.178.982m-12.032.575l3.512-3.431 3.174 3.349m-5.273 1.914l-2.54-2.836m-1.719.84s1.331-.256 1.587-.594a1.39 1.39 0 0 0 .133-.246c.154-.389.205-.921.205-.921l1.423-1.506 4.341 4.516m1.004 17.468h.676l.164-1.004.327-.501h.584m.338.081l.839.584-.338.584h-.338l-.245-.584m-3.267-2.519v1.014m-.327 1.259l-.093-1.679M95.104 209l-.134-.082-1.208-.758m.503 2.171v-1.004m2.508-1.576h.665m.174 1.003v-1.515m-1.842-2.919l-.42-1.341m1.505 1.843l1.505 1.577.245.594m-4.258-1.249l.338-.84 1.249 1.413 1.003.256m-6.185 2.929l.922-1.249v-1.762l.594-.42 1.659-2.089h.594m4.422-3.429v-1.331m-.419 2.262v-1.27m-1.25 2.274l.676-.676m-1.852-.082l2.017 2.007m-2.437-4.515v1.833m-3.83 2.426l1.75-2.345m-3.511-.665l.922 1.26m.081-1.68v1.004h1.085v1.352m1.168-3.932l-1.075.921m0-2.601l.737-1.167 1.26-.594.84-.082.911.512.502 1.004.338 1.413-.082 1.259m-11.622-8.611s.502.921.676 1.669c.164.758.748 2.672.748 2.672m5.098 3.093v1.351m-.082-.594h-1.003m0-.42v.666m-.092-1.761h1.096v-.901m-1.178 1.495v-1.086m-1.751 11.283h1.75l.256-.839h-2.253m-1.094 2.846v-1.331h1.095v1.168h-.501l.369.368h-.707m.338-2.048v-.573h-.758v-.676h-.328m-1.177 1.761v-.594h1.843m-2.765-.163h.502m-.502.839v-1.423m.84 2.754v-.839m4.423-4.506l.757.84m.42.164v.655m-.757-3.092l1.014 1.516m-2.683-4.352l1.587 1.936m-.993-4.608l.655 1.597m-4.505 2.836l1.669-1.096m-1.413-1.914l1.003-1.003m2.417 8.61l-1.925-2.509m-1.331 1.26l1.331-1.096m-1.075 2.263l.819-.839m3.348-9.604l-1.915-1.352h-.594l-1.915 1.434-.164 2.334-.338.922-.174 3.01-.583 2.335-.502.758.84.327.338.502m11.529.583h2.252m-5.426 0h2.253m-11.868 0h2.263m11.283-13.618v-1.505m.164 4.925v-1.577m3.267.748v1.331h-1.434v.839h-1.915v-.583m.502 6.685l.911-1.423s.84-1.751.84-2.007c0-.246.42-1.413.42-1.413l1.331-1.423m3.512-1.177s-1.085 2.683-1.249 3.021c-.164.317-1.26 1.587-1.26 1.587l-.245-.758.163-.921 1.26-2.007.747-.737m-5.938 8.016l2.263-3.092.175-2.181 1.494-1.844m-2.673 8.448l1.178-.993.747-1.434-.328-.665-1.177 1.423-1.004.922m1.342-10.198v-2.509m.491-.338v-1.167m-1.331.502v-.993m-.42 3.246v-1.588m2.836.338v3.513h.758v1.167m-.338-8.028l1.424-.84v-.655m-2.089-.593l1.177-.409.328-1.178m-5.509 1.678l1.249-.932.164 1.27s.502.41.84.41.84-.84.84-.84v-.922m5.149 7.516v1.618m-1.135-1.331v.43m1.791 2.457s-1.505-1.146-1.607-1.556c-.092-.431-.758.9-1.136.9-.379 0-.901-.676-.901-.676l-.144-2.088.328-.041v-1.557m2.334-.531v2.048m-2.611-2.99l-.717-.522m2.663-.287l-1.147 1.137m.102-3.686l-3.461 3.267m6.727.091s-1.505.103-1.751-.327c-.235-.431-.86-1.383-1.188-2.621-.328-1.229-.707-2.089-1.045-2.171-.327-.103-1.034.614-1.034.614m-2.057-1.945s-.226-1.618-.031-1.895c.185-.276.185-.471.185-.471l1.751 1.607m-4.209 21.145c.133.235.799.563.799.809s.809.287.809.614c0 .328.799 1.004.799 1.004s.521.327.768.184c.226-.143 3.174-3.42 3.737-4.218.573-.819 2.847-6.451 2.847-9.676 0-3.226-1.229-6.911-3.317-9.86-2.079-2.938-4.925-4.311-5.355-4.311-.768-.338-1.556.522-1.751.993-.194.471.041 1.516.328 1.986.276.471.614 1.096.276 1.904-.226.563-1.372 1.495-1.986 1.945l-1.034-.952c-.911-1.239-1.475-5.56-1.475-5.56s.563-.185 1.045-.133c.471.041 1.515.286 1.515.286s-1.146-2.56-2.795-2.242v-.512s-1.751-.041-2.56.389c-.809.431-2.181 1.741-2.232 1.936-.041.185.666.573.666.573s-.276 4.495-.614 4.833c-.338.327-1.331 1.423-1.75 1.423-.43 0-1.956-1.331-2.273-2.13-.338-.809-.491-1.29-.205-1.761.297-.471.522-1.516.338-1.986-.194-.471-.993-1.331-1.751-.993-.43 0-3.276 1.372-5.355 4.311-2.088 2.949-3.328 6.635-3.328 9.86 0 3.225 2.273 8.856 2.857 9.676.563.798 3.501 4.075 3.737 4.218.236.144.758-.184.758-.184s.809-.676.809-1.004c0-.327.809-.368.809-.614s.655-.573.799-.809m1-6.358v.624m-.246-9.01l2.048-2.938.563 1.044m-2.897 8.856l.061 1.147m.317-5.17v3.706m-.563 6.922s.43-.246.563-.666c.154-.43.051-.9.051-.9s-.86-2.242-1.085-2.897c-.246-.655-.716-1.618-.716-1.618m-.953-3.687v-1.577m-.328 5.457s.953-.133.953-.327.143-1.956.143-1.956l-.287-.512-.051-.758m-6.88 0v1.618m1.146-1.331v.43m3.748 0v.983m.092-4.075v1.996h.43v.81m1.935 10.945s-.993-2.847-1.413-3.502c-.43-.666-.676-2.755-1.147-3.328-.471-.563-.85-1.843-.85-1.843l.901-.758 1.28 1.884.574 1.331.471 2.283 1.239 1.751-.062 1.229m-2.928.574v-.901s-1.055-2.273-1.239-2.847c-.194-.563-.993-2.703-1.229-3.174s-.717-1.188-.717-1.188m3.656 10.158s-.092-.819-.092-1.004-1.945-2.416-2.181-3.133-.85-2.601-1.003-3.123c-.133-.522-1.515-3.133-1.515-3.133m-1.751.522s1.515-1.146 1.618-1.556c.092-.431.748.9 1.126.9.389 0 .901-.676.901-.676l.153-2.088-.338-.041v-1.557m-2.324-.531v2.048m16.782-15.563s-.092-.328-.471-.328c-.378 0-.901.236-.901.236s.379.521.573.521c.185 0 .42-.143.42-.143m2.518 7.106l-.594.594-.696-.706.728-.728.174.144m-1.025.553l-.736.737-.707-.706.737-.728.706.697zm-1.658 0l-.737.737-.717-.706.748-.728.706.697zm-3.533-.45l.451.45-.737.737-.399-.409m2.559-.328l-.748.737-.696-.706.727-.728.717.697zm-8.928 5.078l1.188-.982 1.607 1.699m-5.457-.471l.716-.522m-2.652-.287l1.137 1.137m2.703-3.082l-1.607 1.669m-1.198-2.273l3.471 3.267m-1.045-3.85l2.048 1.853 1.597-1.188m-3.03-.288l1.659-1.597 1.956 2.354m-9.923 2.807s1.516.103 1.761-.327c.225-.431.85-1.383 1.188-2.621.317-1.229.707-2.089 1.034-2.171.338-.103 1.044.614 1.044.614m2.56-2.273s-.276-1.29-.471-1.566c-.185-.276-.185-.471-.185-.471l-1.761 1.607"/><path fill="#F6EB14" d="M73.51 113.583c0 10.434-8.458 18.891-18.88 18.891-10.434 0-18.891-8.458-18.891-18.891s8.458-18.88 18.891-18.88c10.423 0 18.88 8.447 18.88 18.88"/><path fill="none" stroke="#231F20" stroke-width=".377" stroke-linecap="round" stroke-linejoin="round" d="M60.855 121.856l-.164-2.672.993-.839m-6.675-3.768l-.584.092.164.839m.676-1.095l1.659-.082v-.911m.675-2.672l.082.911m-.758.839l1.259-.174m.175.594l-.092-1.096m0 2.673l.748-1.249m-4.168-.502l.921.839m-2.846.748l.748.666m-1.25-2.171l.164 1.014m-1.505-1.761l.758 1.085m-2.263-.922l1.341 1.423v.666m9.441-6.43v.993m-6.851 3.932l.921-.747-.092-.594 4.105-3.921 1.495 1.331-.42 1.096.256 1.751 3-2.386 1.178.993m-12.029.562l3.512-3.43 3.174 3.348m-5.273 1.915l-2.54-2.836m-1.72.84s1.331-.256 1.587-.594c.051-.071.092-.153.133-.246.154-.389.205-.921.205-.921l1.423-1.505 4.341 4.516m1.004 17.466h.676l.164-1.003.328-.502h.583m.338.082l.84.584-.338.583h-.338l-.246-.583m-3.267-2.509v1.003m-.317 1.26l-.103-1.68m2.438 2.007l-.133-.081-1.208-.748m.501 2.171v-1.004m2.508-1.587h.666m.174 1.004v-1.505m-1.853-2.929l-.399-1.341m1.494 1.843l1.505 1.587.246.583m-4.259-1.259l.338-.83 1.25 1.423 1.003.246m-6.185 2.929l.921-1.249v-1.761l.584-.42 1.669-2.089h.594m4.423-3.43v-1.331m-.42 2.263v-1.259m-1.249 2.262l.676-.676m-1.853-.081l2.017 2.007m-2.437-4.516v1.843m-3.829 2.417l1.751-2.334m-3.513-.677l.921 1.26m.083-1.669v1.003h1.085v1.341m1.167-3.931l-1.085.922m0-2.591l.747-1.177 1.26-.583.839-.082.911.501.502 1.003.338 1.413-.082 1.259m-11.621-8.6s.501.921.676 1.659c.164.758.748 2.672.748 2.672m5.098 3.102v1.341m-.081-.593h-1.003m-.001-.42v.676m-.092-1.762h1.096v-.911m-1.178 1.495v-1.075m-1.751 11.283h1.751l.256-.839h-2.252m-1.096 2.836v-1.331h1.096v1.167h-.501l.368.379h-.706m.337-2.048v-.583h-.758v-.676h-.328m-1.177 1.761v-.584h1.843m-2.765-.174h.502m-.502.84v-1.424m.84 2.755v-.84m4.423-4.505l.758.839m.42.154v.676m-.758-3.092l1.014 1.505m-2.683-4.352l1.587 1.936m-.993-4.608l.655 1.598m-4.505 2.835l1.669-1.085m-1.413-1.925l1.003-1.003m2.417 8.611l-1.925-2.509m-1.331 1.26l1.331-1.096m-1.085 2.263l.829-.83m3.348-9.614l-1.915-1.341h-.594l-1.915 1.423-.164 2.334-.338.921-.174 3.01-.584 2.345-.491.737.829.338.338.502m11.53.595h2.252m-5.426 0h2.253m-11.867 0h2.263m11.283-13.628v-1.504m.164 4.934v-1.587m3.266.747v1.331h-1.433v.84h-1.915v-.583m.502 6.685l.911-1.423s.84-1.751.84-2.007c0-.246.419-1.413.419-1.413l1.331-1.423m3.512-1.167s-1.075 2.672-1.25 3.01c-.164.328-1.259 1.587-1.259 1.587l-.246-.758.164-.921 1.259-2.007.747-.737m-5.937 8.017l2.263-3.092.174-2.181 1.495-1.833m-2.672 8.437l1.177-.994.737-1.423-.328-.676-1.167 1.423-1.003.912m1.341-10.188v-2.508m.502-.327v-1.178m-1.341.502v-.993m-.42 3.255v-1.587m2.836.328v3.512h.757v1.167m-.337-8.017l1.434-.84v-.666m-2.1-.583l1.178-.42.328-1.177m-5.509 1.679l1.25-.922.164 1.26s.502.409.839.409c.338 0 .84-.829.84-.829v-.921m5.149 7.505v1.618m-1.136-1.331v.43m1.792 2.457s-1.505-1.126-1.608-1.557c-.092-.43-.757.901-1.136.901s-.901-.666-.901-.666l-.143-2.089.328-.051v-1.556m2.323-.521v2.038m-2.601-2.991l-.717-.522m2.663-.286l-1.147 1.136m.102-3.686l-3.461 3.266m6.727.092s-1.505.103-1.75-.328c-.246-.43-.86-1.382-1.188-2.611s-.707-2.089-1.044-2.181c-.328-.102-1.034.615-1.034.615m-2.059-1.935s-.225-1.618-.03-1.904c.184-.276.184-.471.184-.471l1.751 1.607m-4.209 21.144c.133.246.799.574.799.809 0 .246.809.287.809.625 0 .317.798.993.798.993s.522.328.768.185c.225-.144 3.174-3.42 3.737-4.219.573-.798 2.846-6.45 2.846-9.676 0-3.225-1.229-6.911-3.317-9.86-2.079-2.938-4.935-4.311-5.355-4.311-.758-.338-1.566.522-1.751.993-.194.471.041 1.515.328 1.997.277.471.615 1.085.277 1.894-.226.563-1.372 1.505-1.986 1.945l-1.034-.952c-.912-1.229-1.475-5.549-1.475-5.549s.563-.195 1.044-.144c.471.041 1.515.287 1.515.287s-1.146-2.56-2.795-2.232v-.512s-1.751-.051-2.56.378c-.809.43-2.181 1.751-2.232 1.936-.041.184.666.573.666.573s-.287 4.505-.614 4.833c-.338.338-1.331 1.423-1.751 1.423-.43 0-1.956-1.321-2.273-2.13-.338-.809-.491-1.28-.205-1.75.297-.481.522-1.526.338-1.997-.195-.471-.993-1.331-1.751-.993-.43 0-3.276 1.372-5.355 4.311-2.089 2.949-3.328 6.635-3.328 9.86 0 3.226 2.273 8.877 2.856 9.676.563.799 3.502 4.075 3.737 4.219s.758-.185.758-.185.809-.676.809-.993c0-.338.799-.379.799-.625 0-.235.666-.563.809-.809m1.005-6.349v.615m-.247-9.01l2.048-2.939.563 1.044m-2.897 8.868l.062 1.136m.317-5.171v3.707m-.563 6.921s.43-.246.563-.666c.154-.43.051-.901.051-.901s-.86-2.232-1.085-2.898c-.246-.655-.717-1.607-.717-1.607m-.952-3.696v-1.566m-.328 5.447s.942-.133.942-.328c0-.184.154-1.945.154-1.945l-.287-.512-.051-.768m-6.881 0v1.618m1.147-1.331v.43m3.747 0v.993m.093-4.075v1.986h.43v.809m1.935 10.945s-.993-2.846-1.413-3.501c-.43-.666-.676-2.744-1.147-3.328-.471-.563-.85-1.843-.85-1.843l.901-.758 1.28 1.895.573 1.331.471 2.273 1.239 1.751-.061 1.239m-2.929.562v-.901s-1.044-2.273-1.239-2.836c-.194-.573-.993-2.713-1.229-3.184-.246-.471-.717-1.177-.717-1.177m3.657 10.146s-.092-.809-.092-.993c0-.194-1.945-2.427-2.181-3.144-.236-.696-.85-2.601-1.003-3.123-.133-.522-1.516-3.133-1.516-3.133m-1.751.523s1.515-1.126 1.618-1.557c.092-.43.747.901 1.126.901.389 0 .901-.666.901-.666l.143-2.089-.328-.051v-1.556m-2.324-.521v2.038m16.782-15.553s-.092-.328-.471-.328-.901.225-.901.225.389.533.573.533c.185 0 .42-.154.42-.154m2.519 7.106l-.594.594-.696-.707.727-.737.174.164m-1.034.542l-.727.737-.707-.707.737-.737.697.707zm-1.649 0l-.737.737-.717-.707.748-.737.706.707zm-3.532-.45l.451.451-.737.737-.399-.399m2.559-.339l-.748.737-.696-.707.737-.737.707.707zm-8.929 5.089l1.188-.993 1.607 1.7m-5.457-.472l.717-.522m-2.652-.286l1.137 1.136m2.703-3.082l-1.608 1.669m-1.198-2.273l3.471 3.266m-1.044-3.849l2.048 1.863 1.597-1.188m-3.031-.296l1.659-1.597 1.956 2.365m-9.922 2.794s1.515.103 1.761-.328c.225-.43.85-1.382 1.188-2.611.317-1.229.707-2.089 1.034-2.181.338-.102 1.044.615 1.044.615m2.56-2.273s-.276-1.28-.471-1.566c-.185-.276-.185-.471-.185-.471l-1.761 1.607"/><path fill="#FFF" d="M22.685 149.696h8.109v8.498h-8.109zM151.633 149.86h9.062v8.334h-9.062z"/><path fill="#3953A4" d="M30.783 149.327h9.287v8.867h-9.287z"/><path fill="#FFF" d="M40.07 149.327h9.287v8.867H40.07z"/><path fill="#3953A4" d="M49.357 149.327h9.287v8.867h-9.287z"/><path fill="#FFF" d="M59.421 149.327h9.492v8.867h-9.492z"/><path fill="#3953A4" d="M67.94 149.327h9.287v8.867H67.94z"/><path fill="#FFF" d="M77.227 149.327h9.287v8.867h-9.287z"/><path fill="#3953A4" d="M86.524 149.327h9.297v8.867h-9.297z"/><path fill="#FFF" d="M95.821 149.327h9.286v8.867h-9.286z"/><path fill="#3953A4" d="M105.107 149.327h9.287v8.867h-9.287z"/><path fill="#FFF" d="M114.395 149.327h9.286v8.867h-9.286z"/><path fill="#3953A4" d="M123.681 149.327h9.297v8.867h-9.297z"/><path fill="#FFF" d="M132.978 149.327h9.287v8.867h-9.287z"/><path fill="#3953A4" d="M142.274 149.327h9.287v8.867h-9.287z"/><path fill="#FFF" d="M58.644 149.327h9.297v8.867h-9.297zM30.783 140.922h9.287v8.877h-9.287z"/><path fill="#3953A4" d="M40.07 140.922h9.287v8.877H40.07z"/><path fill="#FFF" d="M49.357 140.922h9.287v8.877h-9.287zM67.94 140.922h9.287v8.877H67.94z"/><path fill="#3953A4" d="M77.227 140.922h9.287v8.877h-9.287z"/><path fill="#FFF" d="M86.524 140.922h9.297v8.877h-9.297z"/><path fill="#3953A4" d="M95.821 140.922h9.286v8.877h-9.286z"/><path fill="#FFF" d="M105.107 140.922h9.287v8.877h-9.287z"/><path fill="#3953A4" d="M114.395 140.922h9.286v8.877h-9.286z"/><path fill="#FFF" d="M123.681 140.922h9.297v8.877h-9.297z"/><path fill="#3953A4" d="M132.978 140.922h9.287v8.877h-9.287z"/><path fill="#FFF" d="M142.274 140.922h9.287v8.877h-9.287z"/><path fill="#3953A4" d="M58.644 140.922h9.297v8.877h-9.297z"/><path fill="#FFF" d="M30.783 158.307h9.287v8.878h-9.287z"/><path fill="#3953A4" d="M40.07 158.307h9.287v8.878H40.07z"/><path fill="#FFF" d="M49.357 158.307h9.287v8.878h-9.287zM67.94 158.307h9.287v8.878H67.94z"/><path fill="#3953A4" d="M77.227 158.307h9.287v8.878h-9.287z"/><path fill="#FFF" d="M86.524 158.307h9.297v8.878h-9.297z"/><path fill="#3953A4" d="M95.821 158.307h9.286v8.878h-9.286z"/><path fill="#FFF" d="M105.107 158.307h9.287v8.878h-9.287z"/><path fill="#3953A4" d="M114.395 158.307h9.286v8.878h-9.286z"/><path fill="#FFF" d="M123.681 158.307h9.297v8.878h-9.297z"/><path fill="#3953A4" d="M132.978 158.307h9.287v8.878h-9.287z"/><path fill="#FFF" d="M142.274 158.307h9.287v8.878h-9.287z"/><path fill="#3953A4" d="M58.644 158.307h9.297v8.878h-9.297z"/><path fill="#F6EB14" d="M91.5 243.034s-1.331-1.116-2.048-2.591c-.717-1.464-.717-3.204-.717-3.204s-3.164.532-3.164-2.232c0-2.774 2.938-2.416 3.123-2.324 0 0-3.226-6.973-8.908-10.536-5.683-3.553-16.3-7.495-21.522-9.624-5.232-2.12-10.843-5.304-11.908-8.714-1.741-5.231.983-8.488.983-8.488s-2.048 1.741-4.997 1.444c-2.959-.308-7.198-1.751-10.689-7.884-2.273-4.628-2.652-4.25-4.321-9.86-1.669-5.611-2.959-12.512-5.458-16.29 0 0-3.645-4.781-6.44-5.908-2.508-1.679-5.683-.84-5.683-.84s2.191 1.127 1.362 3.093c-1.433 1.679-3.266 1.034-4.014.389-.532-.45-1.146-1.894-.153-3.481 1.587-1.597 3.021-1.597 3.021-1.597s-1.434 0-3.021-1.598c-.993-1.597-.379-3.041.153-3.491.748-.635 2.581-1.28 4.014.379.83 1.966-1.362 3.112-1.362 3.112s3.174.451 5.683-1.208c0 0 8.672-5.713 8.55-13.628-.133-7.915-1.771-11.929-10.311-14.324.757 1.137 1.464 3.819-.635 4.402-2.078.584-3.768-.696-3.88-2.508-.082-2.15 2.765-5.15 4.771-6.666 0 0 7.822-7.536 10.812-13.669 0 0 2.867-6.809 2.488-9.819-.481-5.15-3.215-7.505-3.215-7.505s.45 2.181-1.546 2.949c-2.201.123-3.01-1.638-3.072-2.621-.041-.686.563-2.129 2.406-2.529 2.252.031 3.246 1.065 3.246 1.065s-.993-1.034-.962-3.287c.461-1.813 1.915-2.375 2.611-2.314.983.092 2.723.953 2.529 3.144-.84 1.976-2.13 1.72-2.13 1.72s.993 1.822 3.932 2.468c0 0 8.385 1.208 16.116-3.123 9.492-4.556 11.068-4.874 11.068-4.874s6.789-2.642 11.14-1.219c4.361 1.413 6.419 6.666 6.419 6.666s-.717-3.748 2.54-6.215c3.707-3.604 12.932-3.154 12.932-3.154h.522s9.215-.45 12.912 3.154c3.266 2.467 2.549 6.215 2.549 6.215s2.048-5.252 6.41-6.666c4.361-1.423 11.14 1.219 11.14 1.219s1.587.317 11.079 4.874c7.72 4.331 16.126 3.123 16.126 3.123 2.928-.646 3.932-2.468 3.932-2.468s-1.301.256-2.13-1.72c-.205-2.191 1.525-3.051 2.509-3.144.706-.061 2.15.502 2.61 2.314.041 2.252-.962 3.287-.962 3.287s1.003-1.034 3.267-1.065c1.822.399 2.437 1.843 2.396 2.529-.062.983-.87 2.744-3.071 2.621-1.987-.768-1.536-2.949-1.536-2.949s-2.744 2.355-3.226 7.505c-.389 3.01 2.478 9.819 2.478 9.819 2.99 6.133 10.823 13.669 10.823 13.669 2.007 1.516 4.843 4.516 4.771 6.666-.123 1.812-1.803 3.092-3.892 2.508-2.088-.583-1.382-3.266-.635-4.402-8.528 2.396-10.167 6.409-10.29 14.324-.133 7.915 8.539 13.628 8.539 13.628 2.499 1.659 5.683 1.208 5.683 1.208s-2.201-1.146-1.361-3.112c1.434-1.659 3.267-1.014 4.014-.379.532.45 1.137 1.895.153 3.491-1.597 1.598-3.03 1.598-3.03 1.598s1.434 0 3.03 1.597c.983 1.588.379 3.031-.153 3.481-.747.646-2.58 1.29-4.014-.389-.84-1.966 1.361-3.093 1.361-3.093s-3.184-.839-5.683.84c-2.805 1.127-6.45 5.908-6.45 5.908-2.488 3.778-3.778 10.679-5.447 16.29-1.669 5.61-2.058 5.232-4.32 9.86-3.491 6.133-7.741 7.576-10.689 7.884-2.959.297-5.007-1.444-5.007-1.444s2.724 3.257.982 8.488c-1.055 3.41-6.665 6.594-11.897 8.714-5.231 2.129-15.84 6.071-21.522 9.624-5.682 3.563-8.918 10.536-8.918 10.536.185-.092 3.134-.45 3.134 2.324 0 2.765-3.175 2.232-3.175 2.232s0 1.74-.706 3.204c-.718 1.475-2.049 2.591-2.049 2.591M74.35 87.874s-1.403-3.87-3.123-4.741c-1.73-.86-7.556-1.188-12.194.646-4.639 1.833-11.54 4.956-14.775 5.938-9.492 4.628-18.225-2.058-18.225-2.058s5.068 4.751 2.805 14.672c-1.413 5.068-2.805 8.519-6.573 12.072-3.778 3.563-9.604 8.099-9.604 8.099s4.956-1.29 9.809 2.806c3.451 4.085 6.799 9.389 4.321 17.14-4.208 11.651-14.129 11.549-14.129 11.549s9.481.963 13.7 11.427c4.208 10.465 4.638 16.73 7.976 21.563 6.645 12.799 12.553 6.809 12.553 6.809s-2.417.563-3.062-1.464c.01-2.212 1.813-2.908 2.806-2.908.696 0 2.088.696 2.386 2.55-.185 2.253-1.27 3.185-1.27 3.185s1.096-.932 3.348-.758c1.782.573 2.253 2.058 2.15 2.754-.154.973-1.126 2.652-3.297 2.314-1.915-.952-.983-3.246-.983-3.246s-2.621 2.519-1.208 5.468c1.413 2.959 2.324 4.055 14.765 8.733 3.01.993 4.229 1.352 14.14 5.908 11.99 6.45 14.836 19.085 14.836 19.085s2.847-12.635 14.836-19.085c9.901-4.557 11.141-4.915 14.141-5.908 12.43-4.679 13.352-5.774 14.764-8.733 1.413-2.949-1.208-5.468-1.208-5.468s.942 2.294-.982 3.246c-2.181.338-3.144-1.342-3.297-2.314-.113-.696.379-2.181 2.16-2.754 2.242-.174 3.327.758 3.327.758s-1.085-.932-1.259-3.185c.286-1.854 1.679-2.55 2.386-2.55.982 0 2.795.696 2.806 2.908-.646 2.027-3.062 1.464-3.062 1.464s5.897 5.99 12.553-6.809c3.348-4.833 3.778-11.099 7.976-21.563 4.209-10.464 13.7-11.427 13.7-11.427s-9.922.103-14.13-11.549c-2.478-7.751.86-13.055 4.311-17.14 4.854-4.096 9.819-2.806 9.819-2.806s-5.826-4.536-9.594-8.099c-3.778-3.553-5.182-7.003-6.573-12.072-2.273-9.921 2.795-14.672 2.795-14.672s-8.734 6.686-18.235 2.058c-3.226-.983-10.137-4.106-14.775-5.938-4.628-1.833-10.464-1.505-12.174-.646-1.73.871-3.133 4.741-3.133 4.741l-.103.338s1.679-2.038 3.43-.44c1.547 2.037.031 3.645-.85 4.218-.624.399-2.283.563-3.604-.921-1.137-2.12-.696-3.584-.696-3.584s-.44 1.464-2.561 2.591c-1.925.522-3.204-.543-3.501-1.219-.431-.973-.522-3.031 1.617-3.983 2.273-.246 2.744 2.345 2.744 2.345v-.112s1.29-3.43-1.167-5.396c-2.478-1.966-4.331-1.352-7.096-1.352-2.744.676-5.201.901-5.201.901h-.338s-2.447-.225-5.202-.901c-2.744 0-4.607-.614-7.075 1.352-2.478 1.966-1.177 5.396-1.177 5.396l-.01.112s.481-2.59 2.744-2.345c2.15.952 2.048 3.01 1.628 3.983-.307.676-1.587 1.741-3.502 1.219-2.119-1.126-2.57-2.591-2.57-2.591s.44 1.464-.696 3.584c-1.311 1.484-2.959 1.321-3.594.921-.891-.573-2.386-2.181-.85-4.218 1.75-1.598 3.43.44 3.43.44l-.104-.338z"/><path fill="none" stroke="#FFF" stroke-width="1.898" d="M91.981 40.856h13.618l-2.211-27.542.849-1.168 1.044-.521.185-3.256-3.502-1.751V8.43l-2.539-.829-.062-1.833-3.245-.451-.328 1.505-1.945.062-.195-1.761L91.981 5l-1.668.123-.185 1.761-1.945-.062-.328-1.505-3.256.451-.061 1.833-2.539.829V6.618l-3.502 1.751.194 3.256 1.044.521.84 1.168-2.211 27.542z"/><path fill="#231F20" d="M91.981 40.856h13.618l-2.211-27.542.849-1.168 1.044-.521.185-3.256-3.502-1.751V8.43l-2.539-.829-.062-1.833-3.245-.451-.328 1.505-1.945.062-.195-1.761L91.981 5l-1.668.123-.185 1.761-1.945-.062-.328-1.505-3.256.451-.061 1.833-2.539.829V6.618l-3.502 1.751.194 3.256 1.044.521.84 1.168-2.211 27.542z"/><path fill="none" stroke="#FFF" stroke-width=".377" d="M91.817 35.276V31.12m0-16.188v-3.696m3.523 27.276l-.205-3.051m6.502 3.122l.071-2.795m-4.495-.266l-.184-4.218m5.836 4.423l.071-3.707m-7.596-.788l.062-4.085m6.306 4.607l.062-3.962m-2.017-.451l.122-3.512m-4.279-.911l.071-4.28m3.369 4.874l-.062-4.034m-2.211-.707v-2.867m4.874 4.106l.071-2.867m-3.194-.973l.062-3.829m6.44 23.642s-10.997-.819-13.034-.635c-2.027-.185-13.034.635-13.034.635m25.74-3.696s-7.822-1.413-12.645-1.167h-.123c-4.823-.246-12.645 1.167-12.645 1.167m25.218-4.106s-7.74-1.362-10.863-1.095m10.474-2.345s-7.741-1.946-10.536-1.679m10.413-1.956s-6.021-2.662-12-2.662c-5.969 0-11.99 2.662-11.99 2.662m23.724-3.44s-5.61-2.048-11.733-2.59c-6.123.542-11.734 2.59-11.734 2.59m23.078-3.84s-6.789-2.59-11.345-2.662c-4.546.072-11.345 2.662-11.345 2.662m7.997 24.686l.194-3.051m-6.501 3.122l-.062-2.795m4.485-.266l.195-4.218m-5.847 4.423l-.071-3.707m7.607-.788l-.072-4.085m-6.296 4.607l-.062-3.962m2.017-.451l-.133-3.512m4.29-.911l-.071-4.28m-3.379 4.874l.062-4.034m2.211-.707v-2.867m-4.874 4.106l-.062-2.867m3.185-.973l-.062-3.829m-5.908 15.84s7.792-1.362 10.915-1.095m-10.525-2.345s7.72-2.007 10.525-1.751"/><path fill="none" stroke="#FFF" stroke-width=".377" stroke-linecap="round" stroke-linejoin="round" d="M91.93 10.467v-.972m.972 1.157l.072-.594h.461l.256-.512m1.229 1.423v-.707h.461v-.46m1.423 1.433l.205-.46.327-.123.062-.655m1.034 1.689l.39-.583v-.389m1.422 1.432l.071-.522h.39l-.062-.655m1.106 1.69l.45-.512v-.522m-12.133-.973l-.071-.594h-.451l-.266-.512m-1.229 1.423v-.707h-.46v-.46m-1.423 1.433l-.194-.46-.328-.123-.062-.655m-1.044 1.689l-.389-.583v-.389m-1.424 1.432l-.071-.522h-.389l.062-.655m-1.097 1.69l-.451-.512v-.522"/><path fill="#FFF" d="M91.94 18.986l-1.627 1.639v7.812h3.184v-7.905z"/><path fill="none" stroke="#231F20" stroke-width=".273" d="M91.93 19.427l-1.321 1.239v7.586h2.601v-7.669z"/><path fill="none" stroke="#231F20" stroke-width=".273" stroke-linecap="round" stroke-linejoin="round" d="M91.981 40.856h13.618l-2.211-27.542.849-1.168 1.044-.521.185-3.256-3.502-1.751V8.43l-2.539-.829-.062-1.833-3.245-.451-.328 1.505-1.945.062-.195-1.761L91.981 5l-1.668.123-.185 1.761-1.945-.062-.328-1.505-3.256.451-.061 1.833-2.539.829V6.618l-3.502 1.751.194 3.256 1.044.521.84 1.168-2.211 27.542z"/><path fill="#231F20" d="M91.838 70.068l28.935.143V39.454h-3.634v1.812h-2.028v-1.812h-4.054v2.007h-2.028v-2.007h-2.826v2.119h-2.436v-2.119h-2.427v1.71h-2.632v-1.71h-2.836v1.904h-2.529v-1.904H90.323v1.904h-2.519v-1.904h-2.836v1.71h-2.632v-1.71H79.91v2.119h-2.437v-2.119h-2.836v2.007H72.62v-2.007h-4.055v1.812h-2.027v-1.812h-3.635v30.757z"/><path fill="none" stroke="#FFF" stroke-width="1.898" d="M91.838 70.068l28.935.143V39.454h-3.634v1.812h-2.028v-1.812h-4.054v2.007h-2.028v-2.007h-2.826v2.119h-2.436v-2.119h-2.427v1.71h-2.632v-1.71h-2.836v1.904h-2.529v-1.904H90.323v1.904h-2.519v-1.904h-2.836v1.71h-2.632v-1.71H79.91v2.119h-2.437v-2.119h-2.836v2.007H72.62v-2.007h-4.055v1.812h-2.027v-1.812h-3.635v30.757z"/><path fill="#231F20" d="M91.838 70.068l28.935.143V39.454h-3.634v1.812h-2.028v-1.812h-4.054v2.007h-2.028v-2.007h-2.826v2.119h-2.436v-2.119h-2.427v1.71h-2.632v-1.71h-2.836v1.904h-2.529v-1.904H90.323v1.904h-2.519v-1.904h-2.836v1.71h-2.632v-1.71H79.91v2.119h-2.437v-2.119h-2.836v2.007H72.62v-2.007h-4.055v1.812h-2.027v-1.812h-3.635v30.757z"/><path fill="none" stroke="#FFF" stroke-width=".377" d="M63.302 43.693H91.95m-28.648 3.542H91.95m-28.648 3.338H91.95m-28.648 3.451H91.95m-28.648 3.328H91.95m-28.648 3.45H91.95m-28.648 3.747H91.95m-28.648 3.543H91.95"/><path fill="#FFF" d="M65.739 44.594h.809v1.218h-.809zM68.462 44.594h.809v1.218h-.809zM71.196 44.594h.809v1.218h-.809zM73.562 44.594h.799v1.218h-.799zM76.08 44.594h.809v1.218h-.809zM78.323 44.594h.798v1.218h-.798zM80.647 44.594h.809v1.218h-.809zM83.35 44.594h.809v1.218h-.809zM86.053 44.594h.809v1.218h-.809zM88.756 44.594h.809v1.218h-.809z"/><path fill="none" stroke="#FFF" stroke-width=".377" d="M88.408 50.573v-3.338m-6.379 3.338v-3.338m-6.584 3.338v-3.338m9.523 6.686v-3.348m-6.779 3.348v-3.348m-6.481 3.348v-3.348m10.628 6.891v-3.348m-6.778 3.348v-3.348m9.41 13.771v-3.338m-5.98 3.338v-3.338m-6.881 3.338v-3.338m-3.44-.307v-3.338m6.891 3.338v-3.338m6.87 3.338v-3.338m2.54-.307v-3.348m-6.082 3.348v-3.348m-6.676 3.348v-3.348m-5.068 3.348v-3.348m1.935.215v-3.348m-2.232-.195v-3.348m2.13 0v-3.338"/><path fill="none" stroke="#231F20" stroke-width=".377" d="M91.838 70.068l28.935.143V39.454h-3.634v1.812h-2.028v-1.812h-4.054v2.007h-2.028v-2.007h-2.826v2.119h-2.436v-2.119h-2.427v1.71h-2.632v-1.71h-2.836v1.904h-2.529v-1.904H90.323v1.904h-2.519v-1.904h-2.836v1.71h-2.632v-1.71H79.91v2.119h-2.437v-2.119h-2.836v2.007H72.62v-2.007h-4.055v1.812h-2.027v-1.812h-3.635v30.757z"/><path fill="none" stroke="#FFF" stroke-width=".377" d="M120.374 43.693H91.715m28.659 3.542H91.715m28.659 3.338H91.715m28.659 3.451H91.715m28.659 3.328H91.715m28.659 3.45H91.715m28.659 3.747H91.715m28.659 3.543H91.715"/><path fill="#FFF" d="M117.128 44.594h.809v1.218h-.809zM114.395 44.594h.809v1.218h-.809zM111.671 44.594h.809v1.218h-.809zM109.306 44.594h.809v1.218h-.809zM106.787 44.594h.809v1.218h-.809zM104.555 44.594h.799v1.218h-.799zM102.22 44.594h.81v1.218h-.81zM99.518 44.594h.809v1.218h-.809zM96.814 44.594h.809v1.218h-.809zM94.101 44.594h.799v1.218h-.799z"/><path fill="none" stroke="#FFF" stroke-width=".377" d="M95.268 50.573v-3.338m6.369 3.338v-3.338m6.583 3.338v-3.338m-9.522 6.686v-3.348m6.788 3.348v-3.348m6.482 3.348v-3.348m-10.639 6.891v-3.348m6.789 3.348v-3.348m-9.42 13.771v-3.338m5.98 3.338v-3.338m6.89 3.338v-3.338m3.441-.307v-3.338m-6.891 3.338v-3.338m-6.881 3.338v-3.338m-2.539-.307v-3.348m6.082 3.348v-3.348m6.686 3.348v-3.348m5.058 3.348v-3.348m-1.925.215v-3.348m2.232-.195v-3.348m-2.13 0v-3.338"/><path fill="#FFF" d="M95.801 68.215h-8.202V56.88l4.208-4.197 3.942 3.942z"/><path fill="none" stroke="#231F20" stroke-width=".346" d="M88.101 68.215v-11.16l3.634-3.625 3.411 3.379.05 11.406"/><path fill="#231F20" d="M51.824 74.164c6.901.41 14.437-2.396 14.437-2.396v-5.672l-1.802-1.167-1.812-34.341.911-1.822 1.423-.696-.01-3.42-3.185-1.116.031 1.689-2.058-.399-.082-2.109-3.748-.655-.113 1.853-2.099-.307.01-1.935-1.904-.041-1.904.041.01 1.935-2.099.307-.113-1.853-3.747.655-.082 2.109-2.058.399.031-1.689-3.184 1.116-.01 3.42 1.423.696.912 1.822-1.813 34.341-1.802 1.167v5.672s7.536 2.805 14.437 2.396"/><path fill="none" stroke="#FFF" stroke-width="1.898" d="M51.824 74.164c6.901.41 14.437-2.396 14.437-2.396v-5.672l-1.802-1.167-1.812-34.341.911-1.822 1.423-.696-.01-3.42-3.185-1.116.031 1.689-2.058-.399-.082-2.109-3.748-.655-.113 1.853-2.099-.307.01-1.935-1.904-.041-1.904.041.01 1.935-2.099.307-.113-1.853-3.747.655-.082 2.109-2.058.399.031-1.689-3.184 1.116-.01 3.42 1.423.696.912 1.822-1.813 34.341-1.802 1.167v5.672s7.536 2.805 14.437 2.396z"/><path fill="#231F20" d="M131.729 74.164c6.901.41 14.447-2.396 14.447-2.396v-5.672l-1.822-1.167-1.803-34.341.912-1.822 1.433-.696-.01-3.42-3.194-1.116.03 1.689-2.048-.399-.092-2.109-3.737-.655-.112 1.853-2.1-.307.021-1.935-1.925-.041-1.904.041.011 1.935-2.1.307-.112-1.853-3.737.655-.092 2.109-2.048.399.03-1.689-3.194 1.116-.011 3.42 1.434.696.911 1.822-1.812 34.341-1.813 1.167v5.672s7.546 2.805 14.437 2.396"/><path fill="none" stroke="#FFF" stroke-width="1.898" d="M131.729 74.164c6.901.41 14.447-2.396 14.447-2.396v-5.672l-1.822-1.167-1.803-34.341.912-1.822 1.433-.696-.01-3.42-3.194-1.116.03 1.689-2.048-.399-.092-2.109-3.737-.655-.112 1.853-2.1-.307.021-1.935-1.925-.041-1.904.041.011 1.935-2.1.307-.112-1.853-3.737.655-.092 2.109-2.048.399.03-1.689-3.194 1.116-.011 3.42 1.434.696.911 1.822-1.812 34.341-1.813 1.167v5.672s7.546 2.805 14.437 2.396z"/><path fill="#231F20" d="M51.824 74.164c6.901.41 14.437-2.396 14.437-2.396v-5.672l-1.802-1.167-1.812-34.341.911-1.822 1.423-.696-.01-3.42-3.185-1.116.031 1.689-2.058-.399-.082-2.109-3.748-.655-.113 1.853-2.099-.307.01-1.935-1.904-.041-1.904.041.01 1.935-2.099.307-.113-1.853-3.747.655-.082 2.109-2.058.399.031-1.689-3.184 1.116-.01 3.42 1.423.696.912 1.822-1.813 34.341-1.802 1.167v5.672s7.536 2.805 14.437 2.396"/><path fill="none" stroke="#FFF" stroke-width=".377" d="M52.807 27.679l.051-1.813m1.69 1.772l.205-1.7m1.812 2.13l.205-1.771m1.679 2.078l.451-.717-.021-.973m1.331 2.008l.625-.911v-.789m1.044 2.222l.911-.737.021-.666m-6.236 46.024v-5.938l-.901-.911m7.485 5.559V67.13l-1.546-1.167m-4.393.634V61.57m6.072 3.614v-4.638m-3.881.635v-4.126m-5.293.379v-4.516m6.727 3.881v-3.881m-4.782.123v-5.027m6.195 5.027v-4.895m-4.516-.388v-4.26m-1.556-.256v-3.88m-1.413 0V35.88m6.195 3.748v-3.103m-4.26-.9V32.39m-2.59-.513v-3.102m6.85 4.126v-2.703m3.491 34.73s-5.928 2.232-12.635 2.017c-6.707.215-12.635-2.017-12.635-2.017m24.881-4.904s-5.662 1.843-12.246 2.017c-6.583-.174-12.246-2.017-12.246-2.017m24.359-3.614s-7.72 1.167-12.113 1.167-12.113-1.167-12.113-1.167m23.97-3.369H39.968m23.324-8.775s-4.516-1.024-9.932-1.29m9.676-2.447s-1.946-1.413-9.553-1.29m9.42-2.069s-3.717-1.648-11.079-1.73c-7.362.082-11.079 1.73-11.079 1.73m21.902-3.102s-1.393-2.038-10.823-1.986c-9.43-.051-10.822 1.986-10.822 1.986m21.645-3.481s-3.072-1.904-10.823-2.12c-7.751.215-10.822 2.12-10.822 2.12m9.839-2.908l-.051-1.813m-1.689 1.772l-.205-1.7m-1.813 2.13l-.205-1.771m-1.668 2.078l-.461-.717.031-.973m-1.342 2.008l-.625-.911v-.789m-1.043 2.222l-.911-.737-.021-.666m6.235 46.024v-5.938l.901-.911m-7.484 5.559V67.13l1.546-1.167m4.392.634V61.57m-6.071 3.614v-4.638m3.88.635v-4.126m5.294.379v-4.516m-6.727 3.881v-3.881m4.781.123v-5.027m-6.194 5.027v-4.895m4.515-.388v-4.26m1.556-.256v-3.88m1.413 0V35.88m-6.194 3.748v-3.103m4.259-.9V32.39m2.591-.513v-3.102m-6.85 4.126v-2.703m-2.324 14.068s4.515-1.024 9.952-1.29m-9.696-2.447s2.088-1.443 9.707-1.311"/><path fill="none" stroke="#231F20" stroke-width=".377" stroke-linecap="round" stroke-linejoin="round" d="M51.824 74.164c6.901.41 14.437-2.396 14.437-2.396v-5.672l-1.802-1.167-1.812-34.341.911-1.822 1.423-.696-.01-3.42-3.185-1.116.031 1.689-2.058-.399-.082-2.109-3.748-.655-.113 1.853-2.099-.307.01-1.935-1.904-.041-1.904.041.01 1.935-2.099.307-.113-1.853-3.747.655-.082 2.109-2.058.399.031-1.689-3.184 1.116-.01 3.42 1.423.696.912 1.822-1.813 34.341-1.802 1.167v5.672s7.536 2.805 14.437 2.396z"/><path fill="none" stroke="#FFF" stroke-width=".377" d="M40.162 48.065h23.181"/><path fill="#FFF" d="M51.968 36.669l-1.618 1.832v8.765h3.174v-8.867z"/><path fill="none" stroke="#231F20" stroke-width=".283" d="M51.958 37.16l-1.321 1.382v8.53h2.6v-8.621z"/><path fill="#231F20" d="M131.729 74.164c6.901.41 14.447-2.396 14.447-2.396v-5.672l-1.822-1.167-1.803-34.341.912-1.822 1.433-.696-.01-3.42-3.194-1.116.03 1.689-2.048-.399-.092-2.109-3.737-.655-.112 1.853-2.1-.307.021-1.935-1.925-.041-1.904.041.011 1.935-2.1.307-.112-1.853-3.737.655-.092 2.109-2.048.399.03-1.689-3.194 1.116-.011 3.42 1.434.696.911 1.822-1.812 34.341-1.813 1.167v5.672s7.546 2.805 14.437 2.396"/><path fill="none" stroke="#FFF" stroke-width=".377" d="M132.722 27.679l.052-1.813m1.689 1.772l.194-1.7m1.813 2.13l.215-1.771m1.678 2.078l.451-.717-.021-.973m1.332 2.008l.614-.911v-.789m1.065 2.222l.901-.737.021-.666m-6.247 46.024v-5.938l-.901-.911m7.485 5.559V67.13l-1.536-1.167m-4.392.634V61.57m6.072 3.614v-4.638m-3.881.635v-4.126m-5.294.379v-4.516m6.717 3.881v-3.881m-4.781.123v-5.027m6.194 5.027v-4.895m-4.516-.388v-4.26m-1.535-.256v-3.88m-1.433 0V35.88m6.194 3.748v-3.103m-4.249-.9V32.39m-2.591-.513v-3.102m6.84 4.126v-2.703m3.491 34.73s-5.918 2.232-12.635 2.017c-6.706.215-12.614-2.017-12.614-2.017m24.87-4.904s-5.662 1.843-12.256 2.017c-6.583-.174-12.245-2.017-12.245-2.017m24.359-3.614s-7.71 1.167-12.113 1.167c-4.393 0-12.103-1.167-12.103-1.167m23.97-3.369h-23.723m23.334-8.775s-4.526-1.024-9.942-1.29m9.675-2.447s-1.936-1.413-9.553-1.29m9.43-2.069s-3.727-1.648-11.089-1.73c-7.352.082-11.078 1.73-11.078 1.73m21.901-3.102s-1.392-2.038-10.822-1.986c-9.42-.051-10.813 1.986-10.813 1.986m21.635-3.481s-3.071-1.904-10.822-2.12c-7.74.215-10.813 2.12-10.813 2.12m9.83-2.908l-.052-1.813m-1.689 1.772l-.184-1.7m-1.812 2.13l-.226-1.771m-1.669 2.078l-.461-.717.031-.973m-1.341 2.008l-.614-.911v-.789m-1.055 2.222l-.911-.737-.021-.666m6.246 46.024v-5.938l.9-.911m-7.484 5.559V67.13l1.536-1.167m4.393.634V61.57m-6.072 3.614v-4.638m3.881.635v-4.126m5.294.379v-4.516m-6.717 3.881v-3.881m4.781.123v-5.027m-6.194 5.027v-4.895m4.515-.388v-4.26m1.546-.256v-3.88m1.423 0V35.88m-6.194 3.748v-3.103m4.249-.9V32.39m2.591-.513v-3.102m-6.84 4.126v-2.703m-2.335 14.068s4.526-1.024 9.952-1.29m-9.686-2.447s2.089-1.443 9.696-1.311"/><path fill="none" stroke="#231F20" stroke-width=".377" stroke-linecap="round" stroke-linejoin="round" d="M131.729 74.164c6.901.41 14.447-2.396 14.447-2.396v-5.672l-1.822-1.167-1.803-34.341.912-1.822 1.433-.696-.01-3.42-3.194-1.116.03 1.689-2.048-.399-.092-2.109-3.737-.655-.112 1.853-2.1-.307.021-1.935-1.925-.041-1.904.041.011 1.935-2.1.307-.112-1.853-3.737.655-.092 2.109-2.048.399.03-1.689-3.194 1.116-.011 3.42 1.434.696.911 1.822-1.812 34.341-1.813 1.167v5.672s7.546 2.805 14.437 2.396z"/><path fill="none" stroke="#FFF" stroke-width=".377" d="M120.066 48.065h23.181"/><path fill="#FFF" d="M131.882 36.669l-1.628 1.832v8.765h3.175v-8.867z"/><path fill="none" stroke="#231F20" stroke-width=".283" d="M131.872 37.16l-1.321 1.382v8.53h2.601v-8.621z"/></svg>