<?xml version="1.0" encoding="utf-8"?>
<svg xmlns="http://www.w3.org/2000/svg" xml:space="preserve" width="438" height="316" viewBox="-.542 -.333 438 316">
  <path fill="#BF0B0B" d="M110.837 0C92.487 5.64 17.809 59.354 0 101.875c4.887 21.718 174.624 128.488 174.624 128.488 31.986 31.653 38.533 66.621 59.285 79.771 22.281 14.119 41.354-2.338 54.564-11.423 9.271-6.375 13.132-7.926 23.812-10.201 28.077-5.981 40.075-4.682 63.612-5.637 45.068-1.827 74.188-34.805 55.963-48.023-7.984-5.792-36.059-.438-73.223-7.042-37.689-6.697-45.223-11.723-53.11-14.571-41.976-15.16-85.751-70.086-98.573-88.05C182.403 95.616 157.64 59.152 110.837 0"/>
  <path fill="#FFF" stroke="#FFF" stroke-width="2" d="M121.975 69.97c-6.459 6.469-12.919 12.938-19.378 19.408-2-.191-3.999-.381-5.999-.572.27 1.705.54 3.411.81 5.116-6.736 6.807-13.472 13.613-20.208 20.42-3.126-.391-6.252-.781-9.378-1.172-8.378-8.291-16.756-16.582-25.135-24.873 17.438-17.622 34.877-35.244 52.315-52.866 8.495 8.406 16.99 16.813 25.485 25.219.496 3.106.992 6.213 1.488 9.32zM85.984 85.595c-3.909-3.869-7.819-7.737-11.728-11.606-5.246 5.301-10.493 10.602-15.739 15.904 3.909 3.869 7.819 7.737 11.728 11.606 5.246-5.302 10.493-10.603 15.739-15.904zm22.597-22.835c-3.91-3.869-7.819-7.737-11.729-11.606-5.07 5.124-10.141 10.248-15.211 15.371 3.91 3.869 7.819 7.737 11.729 11.606 5.07-5.123 10.14-10.247 15.211-15.371zm50.901 45.241c-14.626 14.781-29.253 29.561-43.88 44.342-3.155-.419-6.311-.839-9.466-1.258-6.604-6.535-13.208-13.071-19.812-19.606-.496-3.281-.992-6.561-1.488-9.842 14.604-14.759 29.209-29.517 43.813-44.275 3.213.302 6.427.604 9.641.907 6.75 6.679 13.499 13.358 20.248 20.037.315 3.231.629 6.463.944 9.695zm-50.001 31.737c12.563-12.695 25.125-25.39 37.688-38.084-3.969-3.927-7.938-7.854-11.906-11.782-12.563 12.695-25.125 25.39-37.688 38.084 3.969 3.927 7.938 7.855 11.906 11.782zm57.073-24.744c3.393.438 6.785.876 10.177 1.314 6.882 6.811 13.764 13.621 20.646 20.432.381 2.953.763 5.906 1.144 8.859-1.79 1.809-3.579 3.617-5.369 5.425-3.05-3.019-6.101-6.038-9.151-9.056.762-.77 1.523-1.54 2.286-2.31-4.206-4.162-8.411-8.324-12.617-12.485-5.1 5.153-10.199 10.307-15.299 15.46 5.391 5.335 10.783 10.67 16.174 16.005l1.476 9.699c-7.19 7.266-14.381 14.532-21.572 21.798-3.422-.466-6.844-.933-10.266-1.399-6.685-6.658-13.37-13.316-20.054-19.975-.45-3.177-.899-6.355-1.35-9.532 1.778-1.796 3.555-3.593 5.333-5.389 3.05 3.019 6.101 6.038 9.151 9.056-.732.74-1.465 1.481-2.198 2.221 4.206 4.162 8.411 8.324 12.617 12.485 5.334-5.39 10.668-10.781 16.002-16.171-5.537-5.479-11.074-10.958-16.611-16.438-.521-2.912-1.042-5.824-1.563-8.735 7.015-7.088 14.03-14.176 21.044-21.264zm65.981 70.875c-3.724-3.685-7.448-7.37-11.171-11.055-15.049 15.207-30.098 30.415-45.146 45.622-3.113-3.081-6.226-6.161-9.339-9.242 15.049-15.207 30.098-30.415 45.146-45.622-3.607-3.57-7.214-7.139-10.822-10.709 2.39-2.415 4.779-4.829 7.168-7.244 10.444 10.335 20.888 20.67 31.333 31.006-2.39 2.415-4.779 4.83-7.169 7.244zm39.094 33.111c-14.626 14.781-29.253 29.561-43.879 44.342-3.155-.419-6.311-.839-9.466-1.258l-19.812-19.605c-.496-3.281-.992-6.562-1.488-9.842 14.604-14.758 29.209-29.517 43.813-44.275 3.213.302 6.427.604 9.641.906 6.75 6.679 13.499 13.358 20.248 20.037.314 3.231.628 6.463.943 9.695zm-50.001 31.737c12.563-12.695 25.125-25.39 37.688-38.084-3.969-3.927-7.937-7.854-11.906-11.782-12.563 12.695-25.125 25.39-37.688 38.084 3.969 3.927 7.938 7.855 11.906 11.782zm92.26 1.319c-17.438 17.622-34.876 35.244-52.315 52.866-3.043-3.011-6.086-6.023-9.129-9.034 5.729-13.785 11.459-27.57 17.189-41.355-9.698 9.858-19.397 19.716-29.095 29.574-3.258-3.224-6.516-6.448-9.773-9.672 17.438-17.622 34.876-35.244 52.315-52.866l9.774 9.672c-5.27 13.263-10.539 26.525-15.809 39.788 9.238-9.335 18.476-18.67 27.714-28.006 3.042 3.01 6.086 6.022 9.129 9.033z"/>
</svg>