<?xml version="1.0" encoding="UTF-8" standalone="no"?><svg xmlns="http://www.w3.org/2000/svg" xmlns:xlink="http://www.w3.org/1999/xlink" width="746.73" height="746.73" viewBox="0 0 746.7273 746.72731"><defs><linearGradient id="0"><stop stop-color="#dedede"/><stop offset="1" stop-color="#dedede" stop-opacity="0"/></linearGradient><radialGradient xlink:href="#0" id="7" cx="513.95" cy="725.23" r="14.14" gradientTransform="matrix(1 0 0 3.07615 0-1505.68)" gradientUnits="userSpaceOnUse"/><radialGradient xlink:href="#0" id="5" cx="513.44" cy="661.61" r="4.736" gradientTransform="matrix(1 0 0 4.99827 0-2645.29)" gradientUnits="userSpaceOnUse"/><radialGradient xlink:href="#0" id="6" cx="477.41" cy="705.29" r="7.596" gradientTransform="matrix(1 0 0 5.0504 0-2856.7)" gradientUnits="userSpaceOnUse"/><radialGradient xlink:href="#0" id="4" cx="511.52" cy="599.23" r="7.321" gradientTransform="matrix(1 0 0 2.68966 0-1012.49)" gradientUnits="userSpaceOnUse"/><radialGradient xlink:href="#0" id="2" cx="427.44" cy="656.08" r="6.486" gradientTransform="matrix(1 0 0 4.75963 0-2466.63)" gradientUnits="userSpaceOnUse"/><radialGradient xlink:href="#0" id="1" cx="451.47" cy="689.72" r="9.257" gradientTransform="matrix(1 0 0 3.22193 0-1532.51)" gradientUnits="userSpaceOnUse"/><radialGradient xlink:href="#0" id="3" cx="408.39" cy="641.43" r="6.307" gradientTransform="matrix(1 0 0 4.22456 0-2068.33)" gradientUnits="userSpaceOnUse"/></defs><g transform="translate(22.857-91.86)"><g stroke="#000" stroke-linecap="round" stroke-width="5"><circle cx="350.51" cy="465.22" r="370.86" fill="#de2119"/><circle cx="350.51" cy="465.22" r="351.4" fill="#0094de"/></g><g fill="#fff"><path d="m510.51 161.6l-.944 1.64 2.708 3.191c.789.887 1.255 1.845 1.397 2.874.167 1.045.225 2.612.176 4.702l-1.4 30.918-6.696 10.479c-.947 1.481-1.826 2.832-2.639 4.05-.773 1.21-1.489 2.301-2.144 3.272-.428.561-1 .73-1.732.509l-5.909-1.69-.87 1.688c3.454 2.103 6.674 4.108 9.661 6.02 2.913 1.862 6.073 3.934 9.482 6.217l.944-1.64-3.692-4.341c-.697-.759-.86-1.454-.491-2.087.606-1 1.283-2.117 2.031-3.342l2.58-4.04 7.194-11.257 27.412-14.659c1.046-.549 1.992-.97 2.84-1.263.872-.277 1.839-.266 2.901.03l4.498 1.206.87-1.688c-2.606-1.526-5.254-3.149-7.945-4.869-2.79-1.783-5.487-3.576-8.09-5.378l-1.014 1.751 2.765 3.02c.897.99 1.1 1.869.611 2.634-.347.543-.998 1.101-1.954 1.672-.956.571-2.121 1.252-3.496 2.043l-18.895 10.714 1.085-23.24c.063-1.35.135-2.521.213-3.514.119-1 .343-1.763.674-2.281.221-.346.515-.559.879-.639.38-.105.868-.053 1.465.155l4.096 1.262.87-1.688c-3.618-2.173-7.094-4.325-10.427-6.455-3.826-2.445-6.831-4.435-9.01-5.969"/><path d="m290.19 736.89c-6.394-1.477-11.858-1.252-16.393.677-4.506 1.936-7.357 5.487-8.551 10.654-.593 2.569-.658 4.93-.193 7.082.472 2.124 1.31 4.03 2.513 5.722 1.238 1.669 2.684 3.222 4.337 4.656 1.653 1.434 3.38 2.809 5.181 4.127 1.585 1.208 3.11 2.418 4.574 3.628 1.471 1.182 2.733 2.419 3.786 3.715 1.082 1.302 1.848 2.742 2.296 4.319.454 1.548.469 3.236.047 5.062-.804 3.483-2.623 5.889-5.456 7.219-2.804 1.337-6.333 1.514-10.587.531-3.169-.732-6.126-2.047-8.875-3.944l-.188-12.853-1.997-.145-5.46 14.07.178.402c5.153 2.814 9.999 4.745 14.538 5.794 7.05 1.629 12.906 1.402 17.566-.679 4.689-2.074 7.689-5.951 9-11.632.554-2.398.582-4.6.084-6.61-.469-2-1.312-3.821-2.529-5.455-1.188-1.627-2.601-3.127-4.239-4.497-1.631-1.399-3.333-2.754-5.105-4.066-1.614-1.215-3.167-2.431-4.66-3.648-1.493-1.217-2.788-2.508-3.886-3.874-1.069-1.359-1.842-2.831-2.318-4.414-.448-1.577-.456-3.293-.028-5.148.752-3.254 2.452-5.538 5.1-6.85 2.677-1.306 5.899-1.524 9.667-.654 2.512.58 5.152 1.717 7.918 3.409l.32 11.303 1.782.097 5.613-12.775-.231-.37c-4.694-2.197-9.296-3.815-13.806-4.857"/><path d="m575.11 723.14c.467-.401 1.093-.955 1.874-1.664.781-.709 1.753-1.601 2.916-2.676 1.14-1.055 2.103-1.958 2.888-2.708.804-.728 1.472-1.319 2.01-1.777 2.713-2.327 5.543-4.677 8.488-7.05l-1.298-1.378-5.251 2.247c-.664.261-1.255.112-1.773-.447-.652-.715-1.369-1.527-2.151-2.439-.804-.893-1.692-1.907-2.665-3.041l-23.2-27.05c-1.144-1.334-2.183-2.566-3.114-3.697-.935-1.09-1.771-2.089-2.512-2.997-.413-.572-.41-1.174.012-1.807l3.046-4.753-1.364-1.321c-2.767 2.489-5.495 4.888-8.186 7.196-2.646 2.27-5.322 4.505-8.03 6.708l1.33 1.35 4.647-2.076c.709-.299 1.37-.112 1.984.558.766.848 1.617 1.796 2.555 2.844l3.09 3.603 9.928 11.576-2.36 1.908c-.597.474-1.102.83-1.515 1.068-.435.258-.863.41-1.282.461-.442.07-.908.045-1.397-.075-.512-.102-1.163-.276-1.954-.524-2.66-.806-5.302-1.705-7.927-2.696-2.606-.968-5.081-1.874-7.426-2.719-2.368-.825-4.548-1.523-6.541-2.091-1.996-.527-3.745-.743-5.248-.65-.709.029-1.37.112-1.983.253-.616.181-1.248.435-1.896.759-.648.324-1.335.759-2.063 1.306-.728.547-1.547 1.211-2.459 1.993-1.09.935-2.351 2.188-3.78 3.762l1.36 1.381c.67-.343 1.296-.649 1.878-.916.559-.248 1.126-.464 1.701-.648.553-.165 1.134-.277 1.74-.335.626-.035 1.29-.026 1.992.028 1.363.104 3.01.429 4.942.971 1.932.543 4.116 1.199 6.55 1.967 2.431.81 5.085 1.698 7.961 2.667 2.895.991 5.959 1.952 9.191 2.886-2.604 4.164-3.897 8.01-3.876 11.546.039 3.556 1.48 6.99 4.322 10.304 3.147 3.669 6.808 5.372 10.983 5.11 4.175-.262 8.798-2.567 13.868-6.916m.028-4.828c-3.647 3.128-6.993 4.647-10.04 4.559-3.047-.088-6.02-1.821-8.921-5.202-2.994-3.491-4.297-6.834-3.907-10.02.387-3.149 2.504-6.372 6.351-9.672 1.156-.992 2.442-2.037 3.855-3.134l16.737 19.514c-.747.795-1.457 1.52-2.131 2.175-.673.655-1.322 1.249-1.944 1.783"/></g><g stroke="#000" stroke-width="5"><g stroke-linecap="round"><circle cx="350.51" cy="465.22" r="268.51" fill="#fff700"/><circle cx="350.51" cy="465.22" r="250.49" fill="#08639c"/></g><g transform="translate(-22.857 91.86)"><g fill-rule="evenodd" stroke-linejoin="round"><path d="m239.06 280.36c-4.716 0-64.67 19.07-108.65 33.27a250.49352 250.49352 0 0 0 -7.53711 59.73437 250.49352 250.49352 0 0 0 44.6211 142.21094c4.784 1.229 8.611 2.148 10.664 2.559 12.514 2.503 90.1 5.838 101.78 5 11.68-.834 101.78-56.731 104.29-61.736 2.503-5.01 27.531-60.904 27.531-60.904l-13.35-90.1-43.38-30.04h-115.97z" fill="#b5b5ce"/><path d="M373.36328 122.87109A250.49352 250.49352 0 0 0 124.66992 344.7207c5.297 4.331 12.577 6.728 19.281 7.387 14.637 1.437 28.643-6.89 42.549-11.68 25.929-8.932 48.5-31.593 75.92-31.703 14.718-.059 27.348 10.899 40.881 16.686 31.934 13.656 60.53 45.844 95.11 42.549 10.138-.966 17.797-10.35 25.03-17.52 29.594-29.337 50.25-66.6 72.58-101.78 12.478-19.658 28.957-38.22 34.21-60.902.606-2.618 1.191-5.33 1.732-8.09a250.49352 250.49352 0 0 0 -158.5957 -56.79297z" fill="#9cc5de"/></g><path d="m374.32 559.13v64.7a250.49352 250.49352 0 0 0 122.11523 -32.63867v-32.06h-122.12z" fill="none" stroke-linecap="round"/><path d="m348.95 406.93v26.547h-37.17v182.37a250.49352 250.49352 0 0 0 61.57812 8.00976 250.49352 250.49352 0 0 0 92.98438 -18.01562v-196.55h-83.18v-2.361h-34.21z" fill="#e6dede" fill-rule="evenodd"/></g><path d="m261.64 428.88c-4.33 0-7.816 3.853-7.816 8.64v34.923a46.16217 58.689217 0 0 0 -38.3457 57.83844 46.16217 58.689217 0 0 0 10.86719 37.82276h11.846v-14.998h1.18 64.746a46.16217 58.689217 0 0 0 3.68555 -22.82449 46.16217 58.689217 0 0 0 -38.34571 -57.78016v-34.982c0-4.787-3.486-8.64-7.816-8.64z" fill="#e6b508" stroke-linejoin="round" stroke-linecap="round"/><g transform="translate(-22.857 91.86)"><path d="m261.05 449.4v13.568h-33.04v114.16a250.49352 250.49352 0 0 0 145.34766 46.72265 250.49352 250.49352 0 0 0 25.73242 -1.59961v-34.22h-47.785v-70.2h-18.877v-50.734h10.03v-17.697h-80.23-1.18z" fill="#cec5c5" fill-rule="evenodd"/><path d="m449.52 485.39c-37.949 0-68.61 28.921-68.61 64.6.024 3.061-.422 6.117.063 9.145h115.46v32.06c3.587-1.943 7.126-3.972 10.613-6.088 7.256-10.444 11.14-22.639 11.184-35.11 0-35.676-30.763-64.6-68.71-64.6z" fill="#ceced6" stroke-linejoin="round" stroke-linecap="round"/><g fill="#fff700" fill-rule="evenodd"><path d="m152.17383 256.44727a250.49352 250.49352 0 0 0 -.88086 1.53711 250.49352 250.49352 0 0 0 -7.32617 15.86328 250.49352 250.49352 0 0 0 -3.03125 6.78711 250.49352 250.49352 0 0 0 -.66602 1.68945l87.66 36.779c10.656-5.604 21.535-10.02 33.29-10.344l2.725-5.777-111.77-46.535z"/><path d="M183.76172 209.86133A250.49352 250.49352 0 0 0 147.22266 266.3418L369.22 361.03 183.76 209.86"/></g></g><g fill-rule="evenodd"><path d="m136.51 336l209.86 116.89-198.91-133.52" fill="none" stroke-linecap="round"/><g fill="#fff700"><path d="m443.28 249.71l-59.53 142.67 38.37 22.14 72.32-139.22-13.775-24.598z"/><path d="m373.36328 122.87109a250.49352 250.49352 0 0 0 -35.4375 2.77735l8.178 80.91 26.07 18.693 17.709-8.363 11.703-92.28a250.49352 250.49352 0 0 0 -28.22656 -1.73633z" transform="translate(-22.857 91.86)"/></g><g stroke-linejoin="round"><path d="m336.22 215.47c.393 22.94 1.297 73.6 1.297 73.6l15.251 3.936 2.692-78.06" fill="none" stroke-linecap="round"/><path d="m433.18 148.02c-9.747-.039-20.946.276-28.533 6.395-5.768 4.652-6.132 13.494-9.348 20.17-3.977 8.259-5.546 18.398-12.299 24.598-10.789 9.907-27.2 10.879-40.832 16.236-19.812 7.786-39.539 15.802-59.53 23.12-9.934 3.638-19.87 7.313-30.01 10.332-16.696 4.972-36.856 2.18-50.672 12.791-5.21 4-9.588 17.217-9.588 17.217l8.605-.982c0 0 8-8.642 13.281-10.824 18.12-7.495 39.07-3.549 58.54-5.902 12.824-1.55 25.78-2.535 38.37-5.412 19.971-4.562 38.984-12.607 58.54-18.695 19.961-6.214 43.09-5.931 60.02-18.201 4.862-3.525 8.525-9.03 10.33-14.76 2.268-7.194-3.527-15.961 0-22.629 4.36-8.242 14.192-13.06 23.12-15.742 10.368-3.109 21.823-1.469 32.469.49 7.551 1.389 21.646 7.873 21.646 7.873l-2.537-7.488a250.49352 250.49352 0 0 0 -30.50977 -17.50976c-10.252 2.147-21.834 4.057-29.924 3.844-7.237-.191-13.915-4.891-21.15-4.92z" transform="translate(-22.857 91.86)" fill="#dedede"/></g><path d="m165.83 370.73l-2.468 155.46h9.84 9.838l-2.467-155.46h-7.371z" fill="#adadad"/><path d="m438.86 316.12l-46.24 64.45 5.412 7.379 48.21-45.26" fill="none" stroke-linecap="round"/></g><circle cx="350.51" cy="465.22" r="250.49" fill="none" stroke-linecap="round"/></g><g transform="matrix(.79245-.60994.60994.79245-883.72 839.01)" stroke-linejoin="round"><g fill-rule="evenodd" stroke="#000" stroke-width="3"><path d="m935.03 378.67c-16.638 4.052-33.35 11.207-46.13 22.604-4.218 3.761-9.147 14.275-9.147 14.275l-9.182-5.767c0 0-5.716 14-7.678 21.294-2.15 7.99-4.44 24.436-4.44 24.436 0 0 12.638 10.35 17.13 17.07 5.551 8.306 10.605 17.766 11.481 27.759 1.225 13.975-2.86 28.528-9.05 41.07-2.631 5.328-11.47 13.572-11.47 13.572 0 0 6.326 11.353 11.205 15.365 23.963 19.705 58.696 21.361 84.17 39.01 4.917 3.406 12.828 12.61 12.828 12.61 0 0 7.495-9.545 12.257-13.165 24.668-18.756 59.29-21.947 82.36-42.692 4.697-4.224 10.516-15.846 10.516-15.846 0 0-9.197-7.844-12.06-13.05-6.741-12.255-11.465-26.613-10.859-40.629.433-10.02 5.062-19.696 10.24-28.24 4.19-6.913 16.359-17.812 16.359-17.812 0 0-3.02-16.329-5.517-24.22-2.282-7.197-8.613-20.934-8.613-20.934l-8.918 6.168c0 0-5.458-10.282-9.858-13.854-13.296-10.793-30.29-17.23-47.09-20.541-22.416-4.418-46.33-3.889-68.53 1.517z" fill="#fff700"/><path d="m938.18 387.02c-15.219 3.706-30.782 9.862-42.2 20.678-4.115 3.899-12.233 20.975-12.233 20.975l-8.399-5.276c0 0-1.362 6.722-3.157 13.392-1.966 7.309-4.194 16.355-4.194 16.355 0 0 13.28 13.417 17.8 21.57 4.335 7.819 7.802 16.524 8.502 25.437.993 12.643-1.601 25.738-6.281 37.525-2.732 6.882-12.358 18.458-12.358 18.458 0 0 6.449 5.792 10.116 8.06 24.06 14.863 52.22 22.02 76.987 35.682 4.048 2.234 11.645 7.536 11.645 7.536 0 0 7.354-5.633 11.3-8.04 24.14-14.747 51.948-23.14 75.33-39.05 3.564-2.426 9.752-8.497 9.752-8.497 0 0-10.13-11.138-13.164-17.893-5.197-11.569-8.366-24.536-7.933-37.21.305-8.935 3.382-17.786 7.367-25.788 4.155-8.345 16.83-22.336 16.83-22.336 0 0-2.626-8.939-4.914-16.15-2.088-6.584-3.746-13.24-3.746-13.24l-8.157 5.642c0 0-8.865-16.7-13.149-20.413-11.882-10.3-27.703-15.761-43.07-18.791-20.504-4.04-42.37-3.558-62.68 1.387z" fill="#de2119"/></g><g stroke="#ffc500" stroke-linecap="round"><g fill="none" stroke-width="6" transform="matrix(.66473.74708-.74708.66473 0 0)"><circle cx="994.86" cy="-446.29" r="19.974"/><circle cx="1030.81" cy="-446.29" r="19.974"/><circle r="19.974" cy="-477.6" cx="1012.83"/><circle r="18.01" cy="-456.05" cx="1012.83"/></g><path d="m999.47 463.46l-97.83 87.05 2.941 3.305 7.79-6.932a12.03843 20.268776 48.33803 0 0 13.80033 .10487 8.967398 9.950127 48.33803 0 0 .32736 .41199 8.967398 9.950127 48.33803 0 0 13.39474 .0868 8.967398 9.950127 48.33803 0 0 1.47098 -13.314 8.967398 9.950127 48.33803 0 0 -.36382 -.37955 12.03843 20.268776 48.33803 0 0 1.47979 -13.70077l59.93-53.32-2.941-3.305z" fill="#ffc500" stroke-width="3"/><g fill="none" fill-rule="evenodd" stroke-width="11"><path d="m934.57 541.51l22.345 7.742"/><path d="m934.57 541.51l5.092 23.09"/></g></g></g><g stroke="#000"><g stroke-linejoin="round"><path d="m374.81 558.54v65.27a250.49352 250.49352 0 0 0 93.79883 -18.97461v-46.29h-93.8z" transform="translate(-22.857 91.86)" fill="#ceced6" stroke-linecap="round" stroke-width="5"/><g fill-rule="evenodd" stroke-width="7"><path d="m300.3 384.74c-4.704-.369-9.301-2.792-13.983-2.208-4.944.617-10.158 2.423-13.738 5.888-4.02 3.893-6.06 9.712-7.114 15.21-1.275 6.679 1.227 20.362 1.227 20.362 0 0 3.647-9.142 7.36-12.02 5.07-3.931 11.987-5.817 18.399-5.642 4.267.116 7.818 3.668 12.02 4.416 3.301.587 6.731.415 10.06 0 5.944-.742 14.616.878 17.418-4.416 3.582-6.767-1.579-17.196-7.85-21.588-6.497-4.551-15.889.62-23.796 0z" fill="#fff700"/><path d="m346.94 467.41c-5.067 6.526-2.883 16.475-2.087 24.699 1.592 16.44 5.626 33.17 13.567 47.658 9.912 18.08 25.304 32.955 41.05 46.27 10.02 8.475 20.607 23.837 33.395 20.872 22.882-5.306 32.06-36.918 37.22-59.833 4.052-17.989 2.812-38.91-6.262-54.963-8.708-15.405-25.582-25.982-42.09-32.35-13.35-5.151-28.593-5.288-42.788-3.479-11.204 1.428-25.08 2.21-32 11.132z" fill="#946329"/><path d="m329.21 370.55c-5.584-.752-11.05-2.817-16.686-2.711-3.191.06-6.455.626-9.386 1.889-3.753 1.618-7.225 4.089-10.01 7.08-1.829 1.963-4.171 6.883-4.171 6.883 0 0 10.06 7.994 14.6 12.514 2.935 2.919 6.239 5.705 8.134 9.386.949 1.844 1.46 6.05 1.46 6.05 0 0 8.106 5.457 11.68 8.76 4.02 3.711 8.372 7.43 10.846 12.306 3.511 6.92 5.485 14.99 5.01 22.734-.733 11.852-11.889 33.58-11.889 33.58 0 0 8.751-2.037 12.1-4.797 3.883-3.203 8.134-12.723 8.134-12.723 0 0 1.795 9.03 3.754 13.14 1.825 3.831 7.3 10.429 7.3 10.429 0 0 2.261-8.204 4.589-11.68 2.681-4 6.274-7.571 10.429-10.01 10.846-6.372 26.966-2.387 36.08-11.05 4.288-4.076 6.424-10.782 6.05-16.686-1.254-19.736-13.208-38.709-27.11-52.769-9.951-10.06-24.01-15.684-37.543-19.814-7.49-2.286-15.599-1.457-23.36-2.503z" fill="#fff"/></g></g><path d="m300.79 382.53c1.833-2.882 6.647-2.136 10.06-1.963 2.816.143 6.58.075 8.096 2.453 1.864 2.926-1.472 10.304-1.472 10.304 0 0-1.686-3.663-3.189-4.906-1.497-1.239-3.484-1.866-5.397-2.208-2.336-.418-5.219 1.673-7.114.245-1.077-.812-1.705-2.787-.981-3.925z" fill-rule="evenodd"/></g><g fill-rule="evenodd"><path d="m456.17 520.63c-10.354 6.848-20.571 14.54-28.18 24.351-11.184 14.426-19.02 31.592-24.351 49.05-4.374 14.32-6.264 29.558-5.914 44.527.229 9.778 2.796 19.397 5.218 28.873.908 3.553 2.68 6.857 3.479 10.436.432 1.937.696 5.914.696 5.914 0 0 4.326-8.424 5.914-12.871 1.854-5.191 4.174-16 4.174-16 0 0 1.763 17.416 1.044 26.09-.47 5.666-3.479 16.698-3.479 16.698 0 0 9.853-4.29 13.567-8 4.192-4.189 9.04-15.306 9.04-15.306 0 0 2.396 20.931 4.174 31.31 2 11.678 7.305 34.787 7.305 34.787 0 0 7.07-10.03 9.392-15.654 4.421-10.71 8.349-33.743 8.349-33.743 0 0 2.378 26.26 6.609 38.613 4.387 12.809 19.13 35.83 19.13 35.83 0 0-1.092-14.834-1.391-22.263-.514-12.747-.696-38.27-.696-38.27 0 0 4.341 27.788 10.784 40 4.412 8.366 11.254 15.415 18.437 21.568 7.08 6.06 23.783 14.686 23.783 14.686 0 0-10.173-16.02-13.695-24.774-5.554-13.803-9.84-28.347-11.48-43.14-.652-5.882.696-17.741.696-17.741 0 0 2.648 4.923 4.522 6.957 2.185 2.371 7.653 5.914 7.653 5.914 0 0-4.527-9.485-5.218-14.61-.622-4.61 1.291-9.27 1.044-13.915-.685-12.832-4.33-25.339-6.957-37.917-1.973-9.443-6.609-28.18-6.609-28.18 0 0 6.189 10.38 10.09 14.958 3.298 3.872 11.132 10.436 11.132 10.436 0 0-6.181-8.159-8-12.871-3.02-7.807-2.354-16.615-4.522-24.699-2.233-8.325-6.04-16.15-8.697-24.351-4.846-14.939-6.973-30.813-13.219-45.22-3.536-8.156-5.439-19.359-13.567-22.959-3.68-1.63-8.02 1.132-11.827 2.435-6.477 2.215-12.728 5.268-18.437 9.04" fill="#946329"/><g fill="none" stroke="#000" stroke-linecap="round" stroke-width="5"><path d="m417.21 654.91c0 0-.917-15.953.065-23.838 1.681-13.501 9.899-39.596 9.899-39.596"/><path d="m437.39 674.39c0 0-.063-16.453.786-24.62 1.015-9.752 4.274-19.2 5.133-28.964.385-4.383 0-13.199 0-13.199"/><path d="m466.61 691.09l-1.304-18.587"/><path d="m490.26 705c0 0-3.923-21.579-4.428-32.502-.525-11.364 1.467-34.1 1.467-34.1"/><path d="m518.79 695.61c0 0-7.501-23.348-10.588-35.21-4.572-17.561-11.732-53.16-11.732-53.16"/><path d="m513.22 613.86c0 0-3.777-8.989-5.389-13.586-2.073-5.91-5.499-17.965-5.499-17.965"/></g><path d="m504.2 579.54c0 0 2.333 12.27 4.379 18.15 1.688 4.847 4.188 9.376 6.467 13.975 1.188 2.396 3.545 8.343 3.754 7.092.209-1.251-.361-8.694-1.252-12.932-1.19-5.659-3.02-11.221-5.422-16.479-1.181-2.58-2.45-5.219-4.381-7.299-.984-1.06-3.545-2.504-3.545-2.504" fill="url(#4)"/><path d="m411.8 614.79c0 0-.25 2.725-1.043 3.754-.59.765-1.937.676-2.502 1.459-.79 1.095-.481 2.66-.834 3.963-.23.849-.014 2.185-.834 2.504-.667.259-1.211-1.306-1.877-1.043-2.107.831-1.767 4.223-2.086 6.465-1.01 7.092-.504 14.41.625 21.484.503 3.15 1.79 6.122 2.711 9.176.546 1.811 1.67 6.258 1.67 5.424 0-.834.571-6.922 2.293-9.803.809-1.353 2.858-1.711 3.547-3.129 2.16-4.447.798-9.865.834-14.809.049-6.68.297-13.44-.834-20.02-.32-1.864-1.67-5.422-1.67-5.422" fill="url(#3)"/><path d="m427.45 625.21c0 0-.868 2.608-1.043 3.963-.41 3.172 1.64 6.848 0 9.594-.526.881-2.144.606-2.713 1.461-3.984 5.991-1.774 14.295-2.086 21.482-.298 6.877-1.406 13.957.209 20.648.401 1.662 2.295 4.59 2.295 4.59 0 0-.127-3.368.834-4.59.846-1.077 2.898-.599 3.754-1.668.886-1.107.354-2.838.834-4.172.696-1.932 2.394-3.437 2.92-5.422 2.192-8.268 1.538-17.15.627-25.654-.251-2.347.035-5.248-1.668-6.883-.511-.491-1.598.096-2.086-.418-2.997-3.161-1.877-12.932-1.877-12.932" fill="url(#2)"/><path d="m509.21 637.94c0 0-.752 6.967-.418 10.43.522 5.405 2.606 10.544 3.754 15.852.764 3.532 1.155 7.146 2.086 10.637.946 3.548 3.547 10.428 3.547 10.428 0 0-.197-8.07-.418-12.1-.203-3.69-.123-7.429-.834-11.05-.436-2.222-1.688-4.238-2.086-6.467-.588-3.288 1.049-7.01-.416-10.01-.8-1.64-3.209-1.995-4.172-3.545-.756-1.218-1.043-4.172-1.043-4.172" fill="url(#5)"/><path d="m450.12 659.91c-.048-.033-.096.006-.148.137-.417 1.043.221 4.837-1.252 6.465-.974 1.077-3.271.113-4.172 1.252-.734.929-.033 2.376-.209 3.547-.436 2.902-1.874 5.624-2.084 8.551-.26 3.623.786 7.223 1.041 10.846.219 3.124-.134 6.302.418 9.385.321 1.796.336 3.967 1.668 5.215.627.588 1.933-.016 2.504.627 2.188 2.463 1.081 6.513 1.252 9.803.054 1.039.034 2.426 0 3.813.313-2.129 1-4.169 2.502-4.439 1.273-.23 1.032 3.408 2.295 3.129 2.769-.612.71-5.672 1.668-8.342.746-2.079 2.49-3.728 3.129-5.842 1.272-4.212 1.016-8.745 1.252-13.14.299-5.554 1.387-11.25.207-16.686-.554-2.553-1.447-5.287-3.336-7.092-1.307-1.249-3.751-.785-5.01-2.086-1.083-1.122-1.389-4.911-1.729-5.143" fill="url(#1)"/><path d="m449.14 719.55c-.369 2.515-.209 5.156-.209 5.156 0 0 .144-2.558.209-5.156" fill="#dedede"/><path d="m476.46 666.93c0 0-.34 4.468-1.252 6.465-.514 1.126-1.519 1.954-2.293 2.92-.618.771-1.535 1.369-1.879 2.295-1.866 5.02-1.258 10.772-.416 16.06.522 3.279 2.691 6.127 3.336 9.385.824 4.165-1.365 8.975.627 12.725.652 1.228 2.676 1.278 3.336 2.502 1.059 1.962-.125 4.512.418 6.674.447 1.78 1.524 3.34 2.295 5.01.483 1.045 1.16 2.02 1.459 3.129.815 3.03 0 10.847.834 9.387.834-1.46 1.599-9.145 1.879-13.768.576-9.508-.257-19.05-.418-28.574-.061-3.615.517-7.303-.209-10.846-.557-2.719-1.9-5.228-3.129-7.717-1.214-2.459-3.385-4.464-4.17-7.092-.817-2.735-.418-8.551-.418-8.551" fill="url(#6)"/><path d="m501.9 681.74c0 0-1.334 14.166-1.459 21.273-.147 8.346-1.766 17.1.834 25.03.498 1.521 2.212 2.442 2.711 3.963.65 1.983-.748 4.403.209 6.258.842 1.631 3.396 1.786 4.379 3.336 1.067 1.681.568 3.972 1.252 5.842 1.623 4.44 3.592 8.929 6.674 12.514 3.109 3.617 12.724 10.01 11.473 8.551-1.251-1.46-4.204-6.226-5.84-9.594-2.691-5.541-4.802-11.382-6.467-17.313-.995-3.544-.904-7.359-2.086-10.846-.749-2.208-2.525-4-3.127-6.256-.917-3.431.41-7.24-.627-10.637-.519-1.699-2.1-2.922-2.711-4.59-1.14-3.112-.542-6.685-1.668-9.803-.519-1.436-1.833-2.508-2.295-3.963-1.396-4.391-1.252-13.766-1.252-13.766" fill="url(#7)"/><path d="m456.17 520.63c-10.354 6.848-20.571 14.54-28.18 24.351-11.184 14.426-19.02 31.592-24.351 49.05-4.374 14.32-6.264 29.558-5.914 44.527.229 9.778 2.796 19.397 5.218 28.873.908 3.553 2.68 6.857 3.479 10.436.432 1.937.696 5.914.696 5.914 0 0 4.326-8.424 5.914-12.871 1.854-5.191 4.174-16 4.174-16 0 0 1.763 17.416 1.044 26.09-.47 5.666-3.479 16.698-3.479 16.698 0 0 9.853-4.29 13.567-8 4.192-4.189 9.04-15.306 9.04-15.306 0 0 2.396 20.931 4.174 31.31 2 11.678 7.305 34.787 7.305 34.787 0 0 7.07-10.03 9.392-15.654 4.421-10.71 8.349-33.743 8.349-33.743 0 0 2.378 26.26 6.609 38.613 4.387 12.809 19.13 35.83 19.13 35.83 0 0-1.092-14.834-1.391-22.263-.514-12.747-.696-38.27-.696-38.27 0 0 4.341 27.788 10.784 40 4.412 8.366 11.254 15.415 18.437 21.568 7.08 6.06 23.783 14.686 23.783 14.686 0 0-10.173-16.02-13.695-24.774-5.554-13.803-9.84-28.347-11.48-43.14-.652-5.882.696-17.741.696-17.741 0 0 2.648 4.923 4.522 6.957 2.185 2.371 7.653 5.914 7.653 5.914 0 0-4.527-9.485-5.218-14.61-.622-4.61 1.291-9.27 1.044-13.915-.685-12.832-4.33-25.339-6.957-37.917-1.973-9.443-6.609-28.18-6.609-28.18 0 0 6.189 10.38 10.09 14.958 3.298 3.872 11.132 10.436 11.132 10.436 0 0-6.181-8.159-8-12.871-3.02-7.807-2.354-16.615-4.522-24.699-2.233-8.325-6.04-16.15-8.697-24.351-4.846-14.939-6.973-30.813-13.219-45.22-3.536-8.156-5.439-19.359-13.567-22.959-3.68-1.63-8.02 1.132-11.827 2.435-6.477 2.215-12.728 5.268-18.437 9.04z" fill="none" stroke="#000" stroke-linejoin="round" stroke-width="7"/><path d="m418.52 487.46c0 0-16.799 6.316-25.486 5.728-6.365-.431-13.747-1.864-17.937-6.674-2.526-2.9-2.503-11.263-2.503-11.263 0 0 9.904 1.279 14.6 0 5.292-1.441 14.183-8.343 14.183-8.343 0 0-23.627-.976-35.04-3.754-2.609-.635-5.791-.856-7.509-2.92-1.901-2.285-2.921-6.06-1.669-8.76 1.076-2.315 6.674-3.754 6.674-3.754 0 0-2.278-3.793-3.754-5.423-2.45-2.705-7.06-3.674-8.343-7.091-.987-2.633-.36-6.04 1.251-8.343.998-1.428 4.589-2.503 4.589-2.503 0 0-7.02-2.154-9.594-4.589-2.307-2.18-4.812-5.177-4.589-8.343.147-2.081 3.754-5.01 3.754-5.01 0 0-4.898-4.282-7.091-6.674-2.275-2.481-5.26-4.711-6.257-7.926-.619-1.996.417-6.257.417-6.257 0 0-3.976-3.245-5.84-5.01-3.646-3.444-9.324-5.953-10.429-10.846-.484-2.145 2.086-6.257 2.086-6.257 0 0-5.116-2.269-7.091-4.171-2.973-2.863-6.456-6.307-6.674-10.429-.082-1.552 2.086-4.171 2.086-4.171 0 0-36.15-12.831-52.56-22.526-8.957-5.291-20.05-9.841-24.612-19.19-1.464-2.999 0-10.01 0-10.01 0 0-6.224-3.523-8.35-6.283-2.469-3.204-5.91-7.417-4.581-11.237 1.206-3.47 9.594-5.423 9.594-5.423 0 0-13.879-5.575-17.1-11.68-1.493-2.828-1.484-6.762 0-9.594 1.02-1.947 5.423-3.754 5.423-3.754 0 0-13.394-6.95-18.772-12.1-5.909-5.655-12.807-11.96-14.183-20.02-.851-4.989 4.171-14.6 4.171-14.6 0 0-9.202-9.406-12.514-15.02-6.511-11.03-13.96-35.794-13.96-35.794 0 0 28.613 33.12 45.663 46.64 30.702 24.341 69.04 37.594 100.53 60.903 18.442 13.65 36.37 28.47 51.31 45.886 17.928 20.902 32.13 44.93 45.05 69.25 3.685 6.933 9.177 21.692 9.177 21.692 0 0 3.605-4.863 5.142-7.465.873-1.478 1.908-2.935 2.302-4.605.68-2.881-.823-6.04 0-8.881.685-2.367 2.933-4 3.947-6.249 1.927-4.269 3.115-8.876 3.947-13.485 2.421-13.414.383-27.4 2.96-40.785 1.436-7.456 2.804-15.319 6.907-21.708 6.081-9.47 16.08-15.831 24.997-22.695 21.738-16.73 50.05-24.968 69.07-44.732 6.545-6.801 11.758-15.299 14.472-24.339 4.097-13.646 2.01-42.695 2.01-42.695 0 0 10.227 11.12 13.783 17.698 4.352 8.05 9.04 16.832 8.881 25.984-.284 16.654-9.263 32.381-17.761 46.705-5.594 9.43-21.379 24.997-21.379 24.997 0 0 15.589-9.08 21.379-15.788 9.746-11.285 15.985-25.446 21.05-39.469 3.689-10.213 6.578-31.904 6.578-31.904 0 0 3.702 31.22 1.973 46.705-1.209 10.837-3.128 22.12-8.552 31.575-8.869 15.469-37.496 38.15-37.496 38.15 0 0 24.854-13.789 35.522-23.02 7.05-6.102 18.419-21.05 18.419-21.05 0 0-5.696 28.372-12.17 41.11-4.499 8.856-10.783 16.952-18.09 23.682-7.472 6.881-25.655 16.446-25.655 16.446 0 0 18.746-7.463 26.971-13.156 9.05-6.269 24.01-22.695 24.01-22.695 0 0-9.764 27.2-18.419 38.483-9.843 12.833-36.838 31.575-36.838 31.575 0 0 13.14-1.047 19.08-3.618 10.08-4.364 26.642-19.406 26.642-19.406 0 0-15.29 25.744-26.313 35.522-9.44 8.375-32.891 18.748-32.891 18.748 0 0 19.798-.994 29.27-3.618 11.211-3.104 31.904-14.14 31.904-14.14 0 0-12.957 19.929-22.04 27.3-4.492 3.647-15.459 7.894-15.459 7.894 0 0 19.888 5.061 28.615 10.196 13.591 7.998 35.522 31.25 35.522 31.25 0 0-13.602-8.237-21.05-10.854-8.865-3.115-27.629-5.591-27.629-5.591 0 0 15.743 9.543 22.04 16.12 9.02 9.422 21.708 32.562 21.708 32.562 0 0-15.864-15.485-25.326-21.05-9.933-5.842-32.23-12.499-32.23-12.499 0 0 19.844 14.85 27.629 24.339 9.565 11.66 22.695 39.14 22.695 39.14 0 0-22.65-21.825-35.19-31.25-12.331-9.262-39.14-24.668-39.14-24.668 0 0 21.814 25.548 29.931 40.13 11.06 19.87 24.997 63.48 24.997 63.48 0 0-15.789-25.02-24.668-36.838-9.725-12.938-31.25-37.17-31.25-37.17 0 0 20.267 36.658 24.01 56.902 2.374 12.837-1.316 39.14-1.316 39.14 0 0-6.732-17.879-10.525-26.642-5.104-11.792-16.446-34.865-16.446-34.865 0 0 1.849 13.564 1.973 20.393.201 10.982-1.973 32.891-1.973 32.891 0 0-7.594-26.448-13.485-38.812-2.775-5.823-10.196-16.446-10.196-16.446 0 0-4.991 27.21-11.512 39.14-4.174 7.639-17.1 19.735-17.1 19.735 0 0 3.885-12.15 4.934-18.419 1.559-9.322 1.973-28.29 1.973-28.29 0 0-8.517 16.352-15.459 22.04-5.279 4.324-18.748 8.223-18.748 8.223 0 0 8.01-14.805 10.854-22.695 2.603-7.231 5.591-22.366 5.591-22.366 0 0-13.08 10.723-21.05 12.17-6.562 1.191-19.735-3.289-19.735-3.289 0 0 12.08-5.698 16.446-10.525 6.02-6.655 12.17-24.01 12.17-24.01 0 0-15.14 10.906-24.01 11.841-7.986.841-23.353-5.92-23.353-5.92 0 0 11.735-4.068 16.774-7.565 4.381-3.04 11.264-11.358 11.264-11.358" fill="#946329"/><g fill="none" stroke="#000" stroke-width="5"><g stroke-linecap="round"><path d="m412.64 391.82c0 0 5.152 17.1 8.964 25.13 3.721 7.846 8.191 15.403 13.465 22.302 2.591 3.389 8.837 9.257 8.837 9.257"/><path d="m467.77 540.92c0 0 .848-7.257 1.797-10.771 1.135-4.2 4.629-12.203 4.629-12.203"/><path d="m513.16 530.72c0 0-3.759-7.876-6.143-11.515-2.352-3.592-7.995-10.1-7.995-10.1"/><path d="m489.48 528.75c0 0-3.845-19.469-6.866-28.898-2.496-7.789-5.19-15.627-9.257-22.722-2.637-4.6-9.678-12.624-9.678-12.624"/><path d="m517.44 496.19c0 0-10.499-14.679-16.73-21.16-5.377-5.594-17.673-15.15-17.673-15.15"/><path d="m518.42 466.58c0 0-7.32-6.03-11.405-8.391-3.316-1.918-10.52-4.629-10.52-4.629"/><path d="m542.44 459.02c0 0-10.508-6.535-16.06-9.242-5.03-2.454-15.569-6.312-15.569-6.312"/><path d="m556.25 443.89c0 0-15.723-6.978-23.983-9.261-7.957-2.199-24.406-4.208-24.406-4.208"/><path d="m540.79 418.89c0 0-14.624 2.515-21.989 2.272-5.831-.193-17.252-2.945-17.252-2.945"/><path d="m517.11 401.46c0 0-12.565 6.732-19.347 8.763-7.754 2.322-23.985 3.787-23.985 3.787 0 0 14.253-6.428 20.2-11.361 4.367-3.624 10.94-13.04 10.94-13.04 0 0-10.357-1.402-15.569-1.683-5.462-.294-16.411 0-16.411 0" stroke-linejoin="round"/><path d="m363.83 447.72c0 0 10.345 3.354 15.691 3.321 7.04-.043 20.618-4.629 20.618-4.629"/><path d="m357.57 424.36c0 0 10.768 1.16 16.06 2.276 5.561 1.173 16.411 4.629 16.411 4.629"/><path d="m347.14 406.42c0 0 15.01-1.115 22.278.436 4.917 1.05 13.886 5.891 13.886 5.891"/><path d="m334.21 385.56c0 0 17.262.201 25.532 2.358 8.02 2.092 22.722 10.1 22.722 10.1"/><path d="m320.03 363.45c0 0 13.13.384 19.517 1.744 10.152 2.161 19.899 6.05 29.455 10.1 7.393 3.133 21.46 10.94 21.46 10.94"/><path d="m308.35 344.68c0 0 20.349.716 30.355 2.422 10.296 1.755 20.431 4.565 30.3 7.995 11.836 4.116 34.457 15.03 34.457 15.03"/><path d="m187.38 198.27c0 0 24.56 20.798 38.14 29.336 15.03 9.451 31.04 17.464 47.549 23.985 15.484 6.115 47.929 14.05 47.929 14.05"/><path d="m216.16 244.99c0 0 21.947 11.728 33.34 16.7 9.885 4.315 20.1 7.84 30.3 11.361 13.627 4.707 27.653 8.215 41.24 13.04 12.624 4.489 37.38 14.792 37.38 14.792"/><path d="m227.84 270.01c0 0 20.36 9.914 30.915 13.973 10.309 3.964 21.03 6.759 31.559 10.1 17.379 5.514 35.2 9.762 52.18 16.411 12.339 4.832 35.937 16.999 35.937 16.999"/><path d="m231.18 292.96c0 0 24.07 7.843 35.994 12.07 11.714 4.15 23.2 8.936 34.925 13.04 15.74 5.514 31.507 11.01 47.549 15.569 12.724 3.618 38.569 9.342 38.569 9.342"/><path d="m267.08 230.72c0 0-7.764-1.044-10.228 1.356-1.119 1.09-1.195 3.135-.736 4.629 1.736 5.654 12.143 12.94 12.143 12.94"/><path d="m280.11 254.13c0 0-8.878-1.369-11.718 1.351-1.128 1.081-1.195 3.135-.736 4.629 1.736 5.654 12.143 12.94 12.143 12.94"/><path d="m288.89 276.02c0 0-7.641-.91-10.228 1.356-1.327 1.162-1.883 3.418-1.379 5.109 1.663 5.574 13.04 11.601 13.04 11.601"/><path d="m299.86 297c0 0-7.641-.91-10.228 1.356-1.327 1.162-1.811 3.399-1.379 5.109 1.644 6.505 13.847 14.609 13.847 14.609"/><path d="m309.41 320.63c0 0-7.641-.91-10.228 1.356-1.327 1.162-1.713 3.377-1.379 5.109 1.399 7.251 13.318 17.704 13.318 17.704"/></g><path d="m472.94 387.92c0 0 17.52-7.03 24.955-12.664 7.476-5.665 19.05-20.713 19.05-20.713 0 0-8.866-1.371-13.273-.885-10.391 1.145-30.09 8.849-30.09 8.849 0 0 27.16-12.692 37.22-23.339 4.459-4.722 9.387-17.07 9.387-17.07 0 0-17.06-1.027-25.27.86-7.582 1.742-21.334 9.464-21.334 9.464 0 0 24.13-16.261 33.921-26.842 4.187-4.522 10.324-15.338 10.324-15.338 0 0-12.732.548-18.878 2.065-6.258 1.544-17.993 7.079-17.993 7.079 0 0 15.896-13.651 20.648-22.712 2.625-5.01 3.835-16.518 3.835-16.518 0 0-16.734 1.564-24.777 3.835-11.57 3.266-33.27 13.938-33.27 13.938" stroke-linejoin="round"/></g></g><g fill="#fff"><path d="m319.59 123.22l.088 1.889 5.449 1.715c.674.234 1.025.732 1.055 1.494.029.967.043 2.051.043 3.252.029 1.201.045 2.549.045 4.04v25.22c0 8.73 1.963 15.176 5.889 19.336 3.926 4.131 10 6.195 18.236 6.195 8.408 0 14.561-2.299 18.457-6.898 3.926-4.6 5.889-11.705 5.889-21.314v-22.543-4.04c.029-1.201.059-2.285.088-3.252.029-.762.381-1.26 1.055-1.494l5.537-1.715-.176-1.889c-3.662.117-6.768.176-9.316.176-2.666 0-5.859-.059-9.58-.176l.088 2.02 5.143 1.494c.732.234 1.113.688 1.143 1.361.059 1.025.088 2.154.088 3.385.029 1.201.043 2.52.043 3.955v24.564c0 7.822-1.348 13.404-4.04 16.744-2.695 3.34-7.04 5.01-13.05 5.01-5.918 0-10.211-1.611-12.877-4.834-2.666-3.252-3.998-9.07-3.998-17.447v-24.04-3.955c.029-1.23.059-2.359.088-3.385.059-.732.439-1.186 1.143-1.361l5.449-1.627-.176-1.889c-3.75.117-7.383.176-10.898.176-3.486 0-7.119-.059-10.898-.176"/><path d="m281.04 130.32c-10.03 2.11-17.281 6.658-21.74 13.643-4.436 6.95-5.612 15.387-3.525 25.306 2 9.518 6.215 16.52 12.637 21.01 6.445 4.452 14.469 5.669 24.07 3.649 10.12-2.128 17.358-6.794 21.711-13.997 4.376-7.237 5.52-15.814 3.433-25.734-1.966-9.346-6.153-16.16-12.562-20.44-6.386-4.315-14.395-5.461-24.03-3.435m-.815 3.81c7.597-1.598 13.729-.343 18.395 3.765 4.666 4.108 7.951 10.692 9.856 19.752 2.032 9.662 1.804 17.12-.684 22.372-2.465 5.219-7.295 8.586-14.492 10.1-7.311 1.538-13.379.223-18.207-3.941-4.834-4.193-8.233-10.962-10.199-20.308-1.929-9.174-1.704-16.361.675-21.561 2.402-5.235 7.287-8.628 14.655-10.177"/><path d="m642.9 287.82c-5.342-8.752-12.05-14.06-20.12-15.93-8.03-1.858-16.377-.147-25.03 5.135-8.302 5.068-13.493 11.378-15.576 18.931-2.043 7.562-.508 15.531 4.606 23.908 5.388 8.827 12.204 14.09 20.448 15.785 8.283 1.705 16.75-.083 25.402-5.364 8.152-4.976 13.174-11.2 15.07-18.67 1.933-7.461.336-15.392-4.793-23.794m-3.863.505c4.045 6.627 4.911 12.825 2.599 18.596-2.313 5.771-7.42 11.07-15.322 15.89-8.427 5.144-15.531 7.421-21.314 6.832-5.742-.579-10.53-4.01-14.361-10.283-3.892-6.377-4.682-12.535-2.37-18.477 2.336-5.957 7.58-11.423 15.732-16.399 8-4.885 14.85-7.07 20.547-6.57 5.737.514 10.567 3.984 14.49 10.411"/><path d="m229.29 145.3c-9.544 3.907-16.16 9.782-19.851 17.624-3.691 7.842-3.632 16.414.175 25.714 3.574 8.73 9.138 14.666 16.693 17.81 7.555 3.143 15.711 2.924 24.468-.662 6.751-2.764 12.04-7.083 15.874-12.957l-1.196-1.648c-4.095 3.607-8.298 6.295-12.609 8.06-7.673 3.141-14.643 3.241-20.913.299-6.269-2.942-11.02-8.371-14.266-16.288-3.03-7.402-3.597-14.198-1.699-20.388 1.898-6.19 6.167-10.646 12.809-13.365 2.738-1.121 5.962-1.949 9.668-2.485l7.347 9.48 1.527-.91-2.856-14.167-.417-.209c-5.254.853-10.172 2.217-14.755 4.093"/><path d="m17.644 544.27c2.647 9.967 7.621 17.285 14.924 21.954 7.302 4.669 15.81 5.714 25.523 3.135 9.118-2.421 15.72-7.175 19.81-14.263 4.089-7.088 4.921-15.204 2.492-24.35-1.872-7.05-5.474-12.854-10.807-17.409l-1.788.974c3.051 4.525 5.175 9.04 6.37 13.541 2.128 8.01 1.33 14.938-2.394 20.777-3.724 5.839-9.72 9.856-17.988 12.05-7.73 2.053-14.543 1.74-20.437-.939-5.895-2.678-9.764-7.485-11.606-14.422-.759-2.86-1.166-6.163-1.22-9.907l10.346-6.07-.706-1.631-14.417 1.01-.261.387c.17 5.32.889 10.373 2.16 15.16"/><path d="m391.99 124.35l-.31 1.865 4.969 2.818c.61.37.849.931.718 1.682-.348 1.903-.828 4.287-1.442 7.152l-7.464 34.848c-.724 3.38-1.363 6.226-1.918 8.534-.17.653-.652 1.013-1.446 1.082l-5.625.459-.224 1.884c3.714.706 6.687 1.298 8.921 1.777 2.292.491 5.22 1.162 8.783 2.01l.328-1.951-4.792-2.6c-.651-.319-.904-.883-.76-1.691.421-2.247.994-5.06 1.718-8.441l7.436-34.72 28.29 56.53 3.683.429 10.289-48.04c.614-2.865 1.151-5.236 1.614-7.115.188-.739.636-1.152 1.344-1.24l5.773-.517.224-1.884c-3.605-.652-6.553-1.224-8.845-1.715-2.263-.485-5.217-1.177-8.859-2.077l-.337 1.995 4.758 2.547c.667.383.945.905.832 1.57-.372 2.02-.856 4.417-1.451 7.195l-7.095 33.13-26.442-52.806c-1.342-.168-2.657-.389-3.946-.665-2.149-.46-5.058-1.143-8.729-2.049"/><path d="m58.15 285.11l1.565 1.061 4.637-3.337c.591-.399 1.201-.383 1.828.05 1.584 1.111 3.549 2.544 5.895 4.298l28.542 21.342c2.769 2.07 5.086 3.84 6.952 5.308.522.427.648 1.016.379 1.766l-1.933 5.302 1.618.99c2.193-3.079 3.974-5.533 5.342-7.363 1.404-1.877 3.237-4.257 5.5-7.137l-1.636-1.113-4.365 3.267c-.562.458-1.179.452-1.854-.016-1.865-1.322-4.182-3.02-6.951-5.088l-28.437-21.263 63.18-2.086 1.929-3.167-39.35-29.421c-2.346-1.754-4.276-3.234-5.79-4.439-.593-.48-.781-1.059-.565-1.739l1.942-5.461-1.618-.99c-2.099 3-3.85 5.442-5.253 7.319-1.386 1.854-3.249 4.248-5.589 7.181l1.672 1.14 4.302-3.258c.626-.446 1.217-.48 1.774-.1 1.677 1.181 3.655 2.623 5.931 4.325l27.13 20.289-59.02 1.958c-.713 1.149-1.464 2.251-2.253 3.307-1.316 1.76-3.152 4.118-5.509 7.07"/><path d="m687.77 529.76l-1.84-.436-3.149 4.766c-.411.583-.986.784-1.727.602-1.875-.476-4.221-1.118-7.04-1.924l-34.26-9.814c-3.323-.952-6.119-1.783-8.384-2.493-.64-.214-.966-.72-.982-1.516l-.076-5.643-1.864-.351c-.956 3.657-1.75 6.583-2.379 8.78-.645 2.253-1.514 5.129-2.607 8.625l1.924.46 2.92-4.604c.363-.628.942-.841 1.739-.644 2.213.573 4.981 1.335 8.304 2.287l34.13 9.778-58.32 24.388-.679 3.645 47.23 13.53c2.816.807 5.146 1.505 6.989 2.093.724.238 1.106.713 1.146 1.425l.124 5.795 1.864.351c.896-3.553 1.666-6.455 2.312-8.708.637-2.225 1.529-5.125 2.674-8.697l-1.968-.472-2.864 4.574c-.427.64-.967.881-1.623.724-1.988-.508-4.348-1.154-7.08-1.937l-32.571-9.33 54.48-22.792c.258-1.328.569-2.624.932-3.892.605-2.112 1.484-4.969 2.638-8.57"/><path d="m11.887 514.77l1.867-.301 1.088-5.608c.157-.696.612-1.102 1.365-1.217.957-.138 2.033-.274 3.226-.41 1.19-.165 2.527-.333 4.01-.501l35.41-4.03c1.747-.199 3.349-.365 4.808-.502 1.426-.162 2.724-.296 3.892-.399.705-.021 1.2.322 1.487 1.026l2.227 5.186 1.857-.388c-.508-3.687-.961-7.292-1.361-10.814-.394-3.464-.762-7.078-1.101-10.843l-1.867.301-.968 5.109c-.149 1.019-.586 1.584-1.311 1.696-1.161.162-2.452.338-3.875.529l-4.76.541-35.585 4.046-3.93.447c-1.226.11-2.351.208-3.373.295-.734.024-1.228-.303-1.482-.981l-2.232-5.231-1.857.388c.54 3.713 1.01 7.316 1.406 10.809.394 3.464.746 7.08 1.057 10.849"/><path d="m7.981 483.84l.344.317 15.755-.776-.266-1.764-11.595-4.183.361-15.508 43.846 1.02c3.456.08 6.296.176 8.521.286.702.046 1.146.437 1.334 1.174l1.782 6.547 1.894-.132c.014-4.366.061-8.35.145-11.953.081-3.485.219-7.497.413-12.03l-1.892.044-2.084 6.457c-.222.727-.684 1.098-1.388 1.111-2.227.007-5.069-.03-8.525-.11l-43.846-1.02.361-15.509 12.06-2.533-.266-1.764-15.357-3.126-.358.255c-.053 7.296-.155 14.223-.308 20.784l-.273 11.731c-.153 6.59-.372 13.485-.657 20.688"/><path d="m459.68 140.03l-.421.203-5.096 14.928 1.738.405 8.169-9.231 14.278 6.06-17.14 40.37c-1.351 3.182-2.488 5.787-3.413 7.813-.302.636-.829.904-1.584.807l-6.742-.762-.577 1.809c4.052 1.625 7.738 3.141 11.05 4.549 3.209 1.362 6.886 2.972 11.03 4.828l.658-1.775-5.231-4.321c-.594-.475-.768-1.041-.52-1.7.816-2.072 1.9-4.7 3.251-7.882l17.14-40.37 14.28 6.06-2.099 12.141 1.738.405 8.576-13.12-.105-.427c-6.761-2.743-13.16-5.396-19.2-7.961l-10.801-4.586c-6.068-2.576-12.395-5.326-18.983-8.25"/><path d="m9.877 423.29l1.869.301 2.023-3.664c.549-1.052 1.28-1.827 2.192-2.325.918-.526 2.363-1.136 4.334-1.832l29.405-9.655 12.172 2.545c1.721.36 3.295.703 4.723 1.031 1.405.294 2.679.576 3.82.845.676.201 1.039.68 1.09 1.439l.515 6.124 1.887.215c.741-3.975 1.474-7.697 2.199-11.167.708-3.384 1.525-7.07 2.45-11.07l-1.869-.301-2.75 4.992c-.462.921-1.054 1.32-1.777 1.199-1.153-.211-2.434-.449-3.845-.714l-4.69-.981-13.08-2.734-23.428-20.432c-.884-.783-1.614-1.519-2.188-2.207-.568-.717-.901-1.625-1-2.723l-.468-4.633-1.887-.215c-.503 2.978-1.081 6.03-1.735 9.155-.678 3.24-1.398 6.398-2.16 9.471l1.997.328 1.842-3.656c.608-1.19 1.357-1.692 2.246-1.506.631.132 1.383.543 2.256 1.234.873.691 1.923 1.539 3.149 2.544l16.719 13.868-22.12 7.228c-1.285.42-2.405.768-3.362 1.047-.979.244-1.77.304-2.372.179-.401-.084-.705-.283-.909-.595-.233-.318-.357-.793-.374-1.425l-.273-4.277-1.887-.215c-.749 4.153-1.528 8.167-2.337 12.04-.929 4.445-1.724 7.96-2.385 10.546"/><path d="m43.18 315.13l-1.347 4.373 38.788 43.29c1.126 1.249 1.906 2.268 2.342 3.059.435.791.572 1.764.412 2.92l-.674 4.595 1.801.611c1.316-2.975 2.541-5.652 3.672-8.03 1.132-2.382 2.629-5.433 4.494-9.153l-1.823-.769-2.826 3.181c-.398.427-.766.724-1.103.888-.351.125-.751.08-1.201-.134-.503-.239-1.115-.725-1.838-1.457-.722-.732-1.692-1.727-2.91-2.987l-8.618-9.204 9.09-19.13 12.41 1.323c1.668.176 3 .341 4 .491.985.111 1.743.292 2.272.543.476.226.776.516.901.867.111.312.134.777.068 1.395l-.68 4.298 1.781.652c1.869-4.139 3.521-7.716 4.955-10.733 1.408-2.964 2.975-6.161 4.701-9.59l-1.744-.731-2.884 3.203c-.795.855-1.643 1.41-2.542 1.664-.913.215-2.439.219-4.579.012l-56.919-5.442m8.476 8.99l25.549 2.653-7.77 16.353-17.779-19.01"/><path d="m123.46 209.46c-2.155 1.897-4.207 3.802-6.156 5.712-1.949 1.91-4.02 3.831-6.222 5.767-2.683 2.361-5.483 4.747-8.397 7.156l1.315 1.361 5.222-2.314c.661-.269 1.254-.128 1.779.425.661.706 1.389 1.51 2.182 2.412.816.882 1.716 1.885 2.703 3.01l23.546 26.755c1.161 1.32 2.216 2.538 3.161 3.657.948 1.078 1.797 2.066 2.55 2.965.423.525.428 1.127.011 1.807l-2.985 4.792 1.381 1.303c2.735-2.524 5.432-4.958 8.094-7.3 2.023-1.781 3.9-3.373 5.63-4.778 1.73-1.405 3.661-3.048 5.794-4.925 7.763-6.832 11.815-14.379 12.155-22.64.343-8.302-3.066-16.521-10.227-24.658-6.078-6.906-12.591-10.405-19.539-10.495-6.968-.112-14.3 3.219-21.998 9.993m.357 4.663c6.246-5.497 12.269-7.853 18.07-7.07 5.784.763 11.697 4.575 17.735 11.437 6.213 7.06 9.312 13.641 9.297 19.743-.035 6.08-2.956 11.674-8.762 16.784-1.254 1.103-2.527 2.184-3.819 3.244-1.29 1.018-2.661 2.01-4.113 2.977l-35.508-40.35c1.421-1.445 2.707-2.713 3.856-3.802 1.171-1.109 2.251-2.098 3.241-2.969"/><path d="m690.3 426.37c-.314-2.854-.694-5.628-1.137-8.32-.443-2.692-.824-5.494-1.145-8.406-.391-3.553-.735-7.215-1.031-10.984l-1.87.294-1.107 5.604c-.159.695-.616 1.099-1.37 1.212-.958.135-2.034.269-3.228.4-1.191.16-2.529.321-4.01.485l-35.427 3.896c-1.747.192-3.35.355-4.81.486-1.427.157-2.724.284-3.892.383-.673.045-1.168-.298-1.485-1.029l-2.206-5.196-1.86.381c.494 3.689.936 7.295 1.323 10.819.295 2.679.519 5.13.675 7.353.156 2.223.39 4.747.701 7.572 1.131 10.28 4.978 17.932 11.544 22.958 6.598 5.05 15.283 6.984 26.06 5.799 9.144-1.01 15.75-4.326 19.817-9.96 4.096-5.638 5.583-13.553 4.462-23.745m-4.02-2.387c.91 8.27-.624 14.554-4.601 18.852-3.949 4.295-10.466 6.944-19.552 7.943-9.348 1.028-16.515-.217-21.5-3.736-4.956-3.522-7.855-9.128-8.701-16.816-.183-1.66-.336-3.323-.46-4.989-.092-1.64-.117-3.333-.073-5.077l53.42-5.875c.367 1.993.665 3.774.896 5.34.234 1.595.424 3.048.568 4.359"/><path d="m664.58 328.2l-1.745.729.253 5.707c.001.713-.337 1.214-1.043 1.502-.898.358-1.912.742-3.041 1.153-1.119.438-2.38.914-3.784 1.425l-33.488 12.192c-3.248 1.183-5.999 2.153-8.248 2.909-.643.203-1.205-.015-1.685-.65l-3.378-4.522-1.715.811c1.375 3.521 2.659 6.92 3.851 10.196 1.193 3.276 2.475 6.925 3.846 10.946l1.745-.729-.34-6.33c-.058-.758.239-1.272.89-1.54 2.072-.817 4.732-1.816 7.981-2.999l14.245-5.186 1.428 3.922c1.052 2.891 2.207 6.149 3.465 9.775.193.616-.027 1.164-.663 1.644l-5.03 3.794.887 1.922c3.797-1.476 6.59-2.538 8.379-3.19 1.844-.671 4.709-1.669 8.594-2.989l-.804-1.952-6.192.338c-.758.058-1.287-.28-1.585-1.013-1.338-3.504-2.528-6.687-3.57-9.55l-1.443-3.964 23.58-8.584 6.945 19.08-8.608 6.03.891 1.546 13.631-2.25.24-.368c-2.606-6.815-5.03-13.306-7.276-19.473l-3.653-10.03c-1.193-3.276-2.38-6.71-3.563-10.301"/><path d="m693.14 472.01l-1.889-.07-2.165 5.287c-.29.652-.816.961-1.577.926-.966-.052-2.047-.129-3.244-.229-1.199-.071-2.544-.169-4.03-.294l-35.514-2.982c-1.752-.147-3.356-.297-4.813-.449-1.431-.12-2.729-.243-3.895-.37-.696-.117-1.114-.55-1.257-1.297l-1.169-5.521-1.897.017c-.224 3.715-.485 7.339-.782 10.871l-.875 10.422c-.537 6.394-1.166 13.367-1.888 20.921l.28.331 15.16 2.243-.185-1.999-10.674-6.277 1.765-21.02c3.158.206 6.358.446 9.599.718l15.94 1.339-.331 3.941c-.257 3.065-.575 6.492-.952 10.283-.086.669-.519 1.089-1.297 1.259l-6.131 1.073-.023 2.379c4.065.253 7.05.458 8.945.618 1.956.164 4.973.463 9.05.893l.111-2.372-5.782-2.03c-.71-.295-1.048-.823-1.014-1.585.255-3.742.511-7.131.766-10.167l.335-3.984 24.09 2.02-1.699 20.232-10.345 1.866.16 1.777 13.317 3.676.372-.233c.494-7.279 1.015-14.189 1.564-20.729l.893-10.64c.292-3.474.654-7.089 1.087-10.846"/><path d="m633.65 658.28l-1.543-1.092-4.704 3.242c-.599.387-1.208.358-1.827-.087-.78-.572-1.644-1.227-2.591-1.966-.965-.716-2.037-1.532-3.216-2.451l-28.1-21.919c-1.386-1.081-2.647-2.084-3.784-3.01-1.132-.883-2.152-1.696-3.058-2.44-.518-.479-.632-1.07-.343-1.774l2.041-5.262-1.597-1.023c-2.219 2.988-4.419 5.879-6.6 8.674l-6.433 8.247c-3.946 5.059-8.286 10.554-13.02 16.483l.053.43 11.464 10.168.938-1.775-5.504-11.09 12.973-16.633c2.531 1.9 5.079 3.85 7.643 5.85l12.613 9.838-2.432 3.119c-1.892 2.426-4.03 5.121-6.42 8.09-.438.513-1.03.628-1.775.345l-5.719-2.455-1.321 1.979c3.265 2.435 5.649 4.238 7.151 5.409 1.548 1.207 3.91 3.107 7.09 5.699l1.39-1.925-3.731-4.862c-.433-.635-.427-1.262.018-1.881 2.26-2.993 4.327-5.691 6.201-8.093l2.459-3.153 19.06 14.865-12.487 16.01-9.681-4.096-.838 1.576 9.139 10.361.439.008c4.394-5.824 8.61-11.324 12.646-16.499l6.567-8.419c2.144-2.749 4.425-5.577 6.841-8.485"/><path d="m668.59 594.83l-1.716-.793-2.936 2.979c-.866.903-1.787 1.433-2.759 1.588-.96.194-2.459.157-4.499-.112l-56.06-7.06-1.716 4.061 36.589 43.747c1.414 1.726 2.299 2.979 2.653 3.758.38.792.465 1.71.251 2.755l-.801 4.587 1.757.715c1.275-2.705 2.663-5.501 4.163-8.386 1.5-2.885 3.039-5.717 4.617-8.496l-1.834-.855-2.86 3.12c-.387.426-.758.696-1.114.808-.343.152-.749.106-1.216-.137-.52-.27-1.141-.791-1.862-1.563-.696-.758-1.616-1.783-2.761-3.072l-27.934-31.913 41.639 5.655c1.634.223 2.955.414 3.961.574 1.019.2 1.788.435 2.308.705.468.243.758.544.871.9.138.369.137.846-.004 1.433l-.852 4.213 1.757.715c1.843-3.797 3.676-7.449 5.501-10.958 1.798-3.457 3.418-6.445 4.86-8.964"/><path d="m309.29 743.38l-.043 1.892 5.318 2.085c.656.28.972.802.949 1.563-.038.967-.097 2.049-.18 3.247-.054 1.2-.133 2.546-.236 4.04l-2.462 35.556c-.121 1.754-.246 3.36-.377 4.819-.099 1.432-.205 2.731-.315 3.898-.107.697-.532 1.124-1.277 1.278l-5.506 1.248.045 1.898c3.718.169 7.345.375 10.882.62l10.434.722c6.401.443 13.383.972 20.947 1.584l.329-.287 2.02-15.19-1.998.214-6.12 10.765-21.04-1.457c.16-3.161.352-6.362.577-9.606l1.105-15.958 3.946.273c3.069.212 6.502.48 10.297.801.67.076 1.095.501 1.276 1.277l1.162 6.116 2.38-.011c.194-4.069.357-7.05.489-8.952.136-1.958.388-4.981.759-9.07l-2.373-.076-1.943 5.813c-.284.714-.808 1.06-1.57 1.037-3.745-.201-7.137-.406-10.177-.617l-3.99-.276 1.67-24.11 20.254 1.402 2.02 10.314 1.775-.184 3.481-13.372-.239-.369c-7.286-.387-14.201-.807-20.748-1.26l-10.654-.738c-3.478-.241-7.098-.55-10.86-.928"/><path d="m409.02 740.28l.622 1.787 5.711.091c.713.033 1.191.41 1.436 1.132.303.918.625 1.954.967 3.105.37 1.143.769 2.431 1.194 3.863l10.144 34.17c.5 1.685.944 3.234 1.333 4.647.409 1.376.766 2.629 1.072 3.761.144.691-.107 1.24-.75 1.645l-4.718 3.096.707 1.762c3.542-1.143 7.01-2.22 10.41-3.229l10.573-3.139c6.179-1.834 12.919-3.789 20.22-5.864l.165-.371-3.551-15.357-1.809.859-2.078 12.764-20.515 6.091c-.957-3.02-1.898-6.083-2.823-9.2l-10.169-34.25-.813-2.737c-.531-1.89-.928-3.331-1.192-4.322-.152-.719.083-1.263.707-1.632l4.761-3.109-.707-1.762c-3.562 1.18-7.03 2.27-10.398 3.27-3.342.992-6.841 1.97-10.498 2.933"/><path d="m385.39 742.48l-4.423 1.16-16.322 55.788c-.467 1.615-.921 2.816-1.364 3.603-.442.787-1.197 1.418-2.264 1.892l-4.257 1.849.429 1.854c3.222-.451 6.144-.825 8.764-1.12 2.62-.295 6-.63 10.146-1.01l-.309-1.956-4.195-.721c-.573-.112-1.017-.269-1.334-.469-.291-.233-.466-.596-.522-1.091-.062-.553.027-1.33.269-2.33.241-1 .577-2.351 1-4.05l3.273-12.175 21.05-2.368 5.422 11.242c.73 1.51 1.296 2.728 1.695 3.656.425.896.669 1.635.735 2.217.059.524-.027.933-.259 1.224-.207.259-.59.522-1.149.792l-4.01 1.69.386 1.859c4.503-.595 8.414-1.08 11.733-1.454 3.261-.367 6.802-.72 10.626-1.062l-.299-1.869-4.243-.761c-1.146-.225-2.062-.652-2.752-1.282-.664-.662-1.474-1.957-2.428-3.884l-25.398-51.23m-3.167 11.943l11.224 23.1-17.992 2.024 6.768-25.13"/></g><path d="m418.52 487.46c0 0-16.799 6.316-25.486 5.728-6.365-.431-13.747-1.864-17.937-6.674-2.526-2.9-2.503-11.263-2.503-11.263 0 0 9.904 1.279 14.6 0 5.292-1.441 14.183-8.343 14.183-8.343 0 0-23.627-.976-35.04-3.754-2.609-.635-5.791-.856-7.509-2.92-1.901-2.285-2.921-6.06-1.669-8.76 1.076-2.315 6.674-3.754 6.674-3.754 0 0-2.278-3.793-3.754-5.423-2.45-2.705-7.06-3.674-8.343-7.091-.987-2.633-.36-6.04 1.251-8.343.998-1.428 4.589-2.503 4.589-2.503 0 0-7.02-2.154-9.594-4.589-2.307-2.18-4.812-5.177-4.589-8.343.147-2.081 3.754-5.01 3.754-5.01 0 0-4.898-4.282-7.091-6.674-2.275-2.481-5.26-4.711-6.257-7.926-.619-1.996.417-6.257.417-6.257 0 0-3.976-3.245-5.84-5.01-3.646-3.444-9.324-5.953-10.429-10.846-.484-2.145 2.086-6.257 2.086-6.257 0 0-5.116-2.269-7.091-4.171-2.973-2.863-6.456-6.307-6.674-10.429-.082-1.552 2.086-4.171 2.086-4.171 0 0-36.15-12.831-52.56-22.526-8.957-5.291-20.05-9.841-24.612-19.19-1.464-2.999 0-10.01 0-10.01 0 0-6.224-3.523-8.35-6.283-2.469-3.204-5.91-7.417-4.581-11.237 1.206-3.47 9.594-5.423 9.594-5.423 0 0-13.879-5.575-17.1-11.68-1.493-2.828-1.484-6.762 0-9.594 1.02-1.947 5.423-3.754 5.423-3.754 0 0-13.394-6.95-18.772-12.1-5.909-5.655-12.807-11.96-14.183-20.02-.851-4.989 4.171-14.6 4.171-14.6 0 0-9.202-9.406-12.514-15.02-6.511-11.03-13.96-35.794-13.96-35.794 0 0 28.613 33.12 45.663 46.64 30.702 24.341 69.04 37.594 100.53 60.903 18.442 13.65 36.37 28.47 51.31 45.886 17.928 20.902 32.13 44.93 45.05 69.25 3.685 6.933 9.177 21.692 9.177 21.692 0 0 3.605-4.863 5.142-7.465.873-1.478 1.908-2.935 2.302-4.605.68-2.881-.823-6.04 0-8.881.685-2.367 2.933-4 3.947-6.249 1.927-4.269 3.115-8.876 3.947-13.485 2.421-13.414.383-27.4 2.96-40.785 1.436-7.456 2.804-15.319 6.907-21.708 6.081-9.47 16.08-15.831 24.997-22.695 21.738-16.73 50.05-24.968 69.07-44.732 6.545-6.801 11.758-15.299 14.472-24.339 4.097-13.646 2.01-42.695 2.01-42.695 0 0 10.227 11.12 13.783 17.698 4.352 8.05 9.04 16.832 8.881 25.984-.284 16.654-9.263 32.381-17.761 46.705-5.594 9.43-21.379 24.997-21.379 24.997 0 0 15.589-9.08 21.379-15.788 9.746-11.285 15.985-25.446 21.05-39.469 3.689-10.213 6.578-31.904 6.578-31.904 0 0 3.702 31.22 1.973 46.705-1.209 10.837-3.128 22.12-8.552 31.575-8.869 15.469-37.496 38.15-37.496 38.15 0 0 24.854-13.789 35.522-23.02 7.05-6.102 18.419-21.05 18.419-21.05 0 0-5.696 28.372-12.17 41.11-4.499 8.856-10.783 16.952-18.09 23.682-7.472 6.881-25.655 16.446-25.655 16.446 0 0 18.746-7.463 26.971-13.156 9.05-6.269 24.01-22.695 24.01-22.695 0 0-9.764 27.2-18.419 38.483-9.843 12.833-36.838 31.575-36.838 31.575 0 0 13.14-1.047 19.08-3.618 10.08-4.364 26.642-19.406 26.642-19.406 0 0-15.29 25.744-26.313 35.522-9.44 8.375-32.891 18.748-32.891 18.748 0 0 19.798-.994 29.27-3.618 11.211-3.104 31.904-14.14 31.904-14.14 0 0-12.957 19.929-22.04 27.3-4.492 3.647-15.459 7.894-15.459 7.894 0 0 19.888 5.061 28.615 10.196 13.591 7.998 35.522 31.25 35.522 31.25 0 0-13.602-8.237-21.05-10.854-8.865-3.115-27.629-5.591-27.629-5.591 0 0 15.743 9.543 22.04 16.12 9.02 9.422 21.708 32.562 21.708 32.562 0 0-15.864-15.485-25.326-21.05-9.933-5.842-32.23-12.499-32.23-12.499 0 0 19.844 14.85 27.629 24.339 9.565 11.66 22.695 39.14 22.695 39.14 0 0-22.65-21.825-35.19-31.25-12.331-9.262-39.14-24.668-39.14-24.668 0 0 21.814 25.548 29.931 40.13 11.06 19.87 24.997 63.48 24.997 63.48 0 0-15.789-25.02-24.668-36.838-9.725-12.938-31.25-37.17-31.25-37.17 0 0 20.267 36.658 24.01 56.902 2.374 12.837-1.316 39.14-1.316 39.14 0 0-6.732-17.879-10.525-26.642-5.104-11.792-16.446-34.865-16.446-34.865 0 0 1.849 13.564 1.973 20.393.201 10.982-1.973 32.891-1.973 32.891 0 0-7.594-26.448-13.485-38.812-2.775-5.823-10.196-16.446-10.196-16.446 0 0-4.991 27.21-11.512 39.14-4.174 7.639-17.1 19.735-17.1 19.735 0 0 3.885-12.15 4.934-18.419 1.559-9.322 1.973-28.29 1.973-28.29 0 0-8.517 16.352-15.459 22.04-5.279 4.324-18.748 8.223-18.748 8.223 0 0 8.01-14.805 10.854-22.695 2.603-7.231 5.591-22.366 5.591-22.366 0 0-13.08 10.723-21.05 12.17-6.562 1.191-19.735-3.289-19.735-3.289 0 0 12.08-5.698 16.446-10.525 6.02-6.655 12.17-24.01 12.17-24.01 0 0-15.14 10.906-24.01 11.841-7.986.841-23.353-5.92-23.353-5.92 0 0 11.735-4.068 16.774-7.565 4.381-3.04 11.264-11.358 11.264-11.358z" fill="none" fill-rule="evenodd" stroke="#000" stroke-linejoin="round" stroke-width="7"/></g></svg>