<svg xmlns="http://www.w3.org/2000/svg" xml:space="preserve" style="enable-background:new 0 0 512 512" viewBox="0.0 0.0 512.0 512.0" width="316.22776601683796" height="316.22776601683796"><path d="M 512,512 H 0 V 0 h 512 z" fill="#134a8e"/><g><path d="m 480,229.74381 -9.267,-3.20115 -5.06609,-1.73035 1.80725,-21.6102 0.57679,-7.23287 -7.17136,1.23432 -19.10502,3.24537 -2.81662,-7.12329 -3.09541,-7.90195 -6.08316,5.91012 c -0.13074,0.10959 -9.5054,9.26701 -14.47728,14.07354 0.91324,-9.04975 3.12232,-31.93847 3.13386,-32.1961 l 0.8844,-9.26701 -8.59409,3.50877 -3.89906,1.5381 c 0.37875,-1.83995 0.75751,-3.65874 1.11511,-5.45638 2.2956,-11.38958 8.02116,-31.32901 18.83586,-46.55035 0,0 -6.91757,-1.66691 -17.50349,1.40736 -2.99928,0.88824 -0.24224,0.0653 -0.34606,0.10766 3.52607,-8.37876 19.18,-29.877432 19.18,-29.877432 0,0 -22.17159,-0.392213 -30.53112,4.675799 5.17567,-17.101658 0.85749,-30.396539 0.85749,-30.396539 l -17.22279,19.983658 c -29.72939,34.534004 -102.17351,44.060564 -150.0793,50.339824 -19.38957,2.59552 -34.71859,4.58927 -44.15862,7.70968 -22.82144,7.49051 -34.7801,20.24513 -41.88609,30.24273 l -4.5566,1.92838 c -8.70367,3.68181 -13.67363,8.44413 -18.534,15.52511 -49.311221,8.38069 -77.823598,17.44965 -87.102136,27.71258 l -0.615237,0.7575 c -2.080269,2.83778 -2.762797,6.17159 -1.941841,9.22086 -0.321077,2.6859 0.230714,6.67148 4.94112,10.42057 l 0.321076,0.23456 c 11.258832,8.16343 44.906513,20.87191 85.068018,28.36434 18.0149,3.35689 25.77649,6.04086 37.25258,16.43259 57.1401,51.74717 85.21028,129.43426 97.93031,167.32516 l 14.3004,-26.30713 c 47.73084,-83.79332 94.51958,-122.55131 95.08291,-123.04735 l 9.87263,-9.03052 0.26917,0.53833 5.00456,9.61307 5.00457,-9.65152 1.89377,-3.59529 37.17568,3.03004 13.3814,1.10166 -8.5864,-10.32829 -4.64503,-5.62749 45.96971,-39.64432 z" fill="#ffffff"/><path fill="#134a8e" d="m 168.5864,201.9428 c 0,0 -2.62052,-6.58111 0.71137,-13.24681 1.32084,-2.6436 3.83369,-5.08917 7.16751,-7.01755 24.58639,-16.52103 76.6931,0.3903 76.6931,0.3903 -12.37587,-1.10359 -22.50997,-0.9094 -31.09445,0.24032 14.5292,4.54698 30.08893,10.63206 40.61908,13.20836 12.96804,3.15886 21.57559,4.7604 34.45902,5.51791 l -0.40374,-5.06609 7.16751,1.23432 19.09732,3.24537 2.82625,-7.12329 3.09541,-7.90195 6.06201,5.91012 c 0.15958,0.10959 9.52462,9.26701 14.47152,14.07354 -0.88441,-9.04975 -3.08388,-31.93847 -3.11464,-32.1961 l -0.89978,-9.26701 8.61331,3.50877 9.40928,3.76833 14.11584,-23.05984 4.795,-7.87887 4.81807,7.87887 11.38765,18.62245 c 3.97212,-16.17304 6.81951,-33.32277 15.13482,-41.24586 -8.32492,0.30185 -14.20428,2.6609 -23.29825,9.04783 5.15261,-13.96588 12.78539,-24.31531 23.10214,-36.158617 -10.01682,1.491948 -19.58375,4.393177 -28.98149,9.741887 3.58567,-8.509491 3.8337,-19.09733 3.8337,-19.09733 -43.98943,51.05887 -166.68878,50.45133 -198.45038,60.84499 -20.84114,6.82143 -31.52512,18.18793 -38.95217,29.40254 -0.72483,11.56261 7.69815,22.62534 17.61115,22.62534 z"/><path d="m 324.93343,291.75583 8.59409,-10.3283 4.64312,-5.62941 -17.9803,-15.50204 c -9.77457,14.91949 -19.31267,31.13674 -23.85964,43.65105 l 19.79908,-0.0635 c -10.17448,12.58159 -29.7813,33.40928 -42.95506,56.51142 -13.19683,-32.3903 -44.0721,-74.04759 -99.84523,-96.9344 -16.14996,-6.64648 -31.39629,-15.41552 -29.42561,-28.21052 -27.9356,-4.00673 -58.485946,-7.20981 -93.131463,-8.35761 -2.630137,-0.0423 -5.075703,-0.0865 -7.275174,-0.10958 -2.012977,-0.0193 -2.532083,0.78058 -0.346071,2.55707 9.505408,6.84451 41.732276,19.29152 81.257388,26.69551 19.01466,3.52991 27.69334,8.74789 41.36698,18.2956 29.68517,20.73924 70.19467,76.44893 94.87719,148.93727 46.82144,-90.91271 101.18722,-131.7279 105.48618,-134.88675 l -27.84523,2.27253 -13.35832,1.10358 z M 42.23793,224.52968 c 19.83177,-0.86518 47.677,-1.82072 96.28454,-0.21726 4.12401,0.0635 8.17112,0.13074 12.10287,0.21726 2.43402,-3.22615 6.91756,-6.12738 15.39437,-6.12738 h 2.50901 c 15.80775,0.24226 18.73012,16.43452 35.5107,16.43452 16.70368,0 19.66834,-16.08653 35.33381,-16.41145 0.42298,-0.0231 0.88441,-0.0231 1.31122,-0.0231 h 57.88417 l -0.78827,-9.61307 h -57.97453 c -16.06537,0 -18.92237,-16.43258 -35.79908,-16.43258 -16.61716,0 -19.6299,16.2384 -35.09734,16.39028 -16.74598,-0.99976 -23.38476,-15.02715 -24.68253,-26.93583 -7.31939,3.11464 -11.08579,6.75607 -16.60562,15.45783 -59.837539,9.89761 -80.326844,19.46647 -85.696707,25.44196 -0.80173,1.06321 -0.442201,1.58231 0.313387,1.82264 z m 155.37226,-24.72867 c -1.18048,4.76424 -0.50756,8.81327 -0.24993,10.91276 h -5.62558 c -0.12305,-4.22207 2.40327,-8.57486 5.87551,-10.91276 z" fill="#1d2d5c"/><path d="m 461.83514,202.7503 -23.62125,4.04711 -4.50468,-11.4338 c 0,0 -15.23096,14.83297 -17.24586,16.78058 -1.30738,1.23048 -2.7801,1.92646 -4.02403,1.92646 -1.97068,0 -3.43187,-1.77649 -3.05311,-6.08315 0.0538,-0.3653 0.10574,-1.03821 0.19226,-1.83994 0.76904,-7.83658 3.22999,-33.40927 3.24922,-33.47272 l -7.49436,3.00889 -6.34462,2.55323 -16.60371,-27.12809 -16.60561,27.12809 -13.80438,-5.56405 c 0,0.0635 2.48017,25.63615 3.23768,33.47273 0.0731,0.80173 0.13843,1.47465 0.17304,1.84186 0.3999,4.30666 -1.07282,6.08315 -3.03197,6.08315 -1.26507,0 -2.70704,-0.67291 -4.01826,-1.92646 -2.03797,-1.94952 -17.26509,-16.78058 -17.26509,-16.78058 l -4.49315,11.4338 -23.6097,-4.04903 2.11103,25.97836 -9.18049,3.13963 50.1418,43.28191 -8.18265,9.85148 2.88007,-0.21533 16.1192,-1.31891 21.9332,-1.7765 2.18601,4.24321 0.45565,0.8844 0.95362,1.82263 1.86494,-3.59528 1.74958,-3.35496 40.93247,3.31267 -8.20572,-9.84956 50.15718,-43.2819 -9.1805,-3.13963 2.13026,-25.9803 z" fill="#e8291c"/></g></svg>