<?xml version="1.0" encoding="UTF-8" standalone="no"?>
<svg
   viewBox="0 0 575.00001 575"
   version="1.1"
   id="svg7"
   sodipodi:docname="Arizona Diamondbacks Cap Logo.svg"
   width="575"
   height="575"
   inkscape:version="1.3.2 (091e20e, 2023-11-25, custom)"
   xmlns:inkscape="http://www.inkscape.org/namespaces/inkscape"
   xmlns:sodipodi="http://sodipodi.sourceforge.net/DTD/sodipodi-0.dtd"
   xmlns="http://www.w3.org/2000/svg"
   xmlns:svg="http://www.w3.org/2000/svg"
   xmlns:rdf="http://www.w3.org/1999/02/22-rdf-syntax-ns#"
   xmlns:cc="http://creativecommons.org/ns#"
   xmlns:dc="http://purl.org/dc/elements/1.1/">
  <defs
     id="defs7" />
  <sodipodi:namedview
     id="namedview7"
     pagecolor="#505050"
     bordercolor="#eeeeee"
     borderopacity="1"
     inkscape:showpageshadow="0"
     inkscape:pageopacity="0"
     inkscape:pagecheckerboard="0"
     inkscape:deskcolor="#d1d1d1"
     inkscape:zoom="1.02"
     inkscape:cx="287.7451"
     inkscape:cy="287.7451"
     inkscape:window-width="2560"
     inkscape:window-height="1369"
     inkscape:window-x="-8"
     inkscape:window-y="-8"
     inkscape:window-maximized="1"
     inkscape:current-layer="svg7" />
  <title
     id="title1">Arizona Diamondbacks hat dark logo</title>
  <rect
     style="fill:#a51e31;stroke-width:3.00001;stroke-miterlimit:3.8637"
     id="rect7"
     width="575"
     height="575"
     x="0"
     y="0" />
  <path
     fill="#3ec1cc"
     d="m 197.35696,400.24813 -134.379184,84.64603 -0.0016,10e-4 z"
     id="path1"
     style="stroke-width:1" />
  <path
     fill="#aa182c"
     d="m 222.16641,478.58299 -21.39071,-44.0023 0.58034,-0.95385 120.30442,-197.86758 39.88284,0.009 45.42844,203.21254 -29.39197,39.75473 H 510.87236 L 425.65986,96.229595 h -94.25711 l 22.62394,34.743115 -60.41075,27.17558 26.02108,45.06265 -79.38133,37.97665 26.56282,49.23924 -82.14256,51.76278 25.30027,62.07922 -120.464945,74.69847 0.61738,-0.38431 z m 107.90125,-384.403101 1.32584,2.035815 -1.3104,-2.035815 z"
     id="path2"
     style="stroke-width:1" />
  <path
     d="m 524.2649,489.07691 -89.71937,-403.41688 -110.0806,-0.0602 5.60428,8.580055 1.32273,2.035815 0.009,0.01385 h 94.26022 l 85.21131,382.50624 H 377.57989 l 29.3935,-39.7547 -45.42998,-203.21254 -39.88591,-0.0113 -120.3029,197.86911 -0.58032,0.95539 21.3938,44.00075 H 90.128655 l -0.618925,0.38433 -5.8466,3.62403 -0.145075,0.0911 -10.305635,6.38217 H 240.39924 L 213.93827,434.5199 327.45922,245.2046 h 24.72149 l 42.86478,191.21527 -38.50762,52.69813 z"
     id="path3"
     style="stroke-width:1" />
  <path
     d="M 278.94079,153.23856 339.90716,126.13708 314.27196,88.461396 312.3226,85.598292 56.354819,489.06611 62.977776,484.89416 197.35696,400.24813 171.57511,338.9252 253.51549,287.56526 225.18695,236.76869 304.5976,198.43858 Z"
     id="path4"
     style="stroke-width:1" />
  <path
     fill="#aa182c"
     d="m 350.29924,329.58422 h -51.24262 c 0,0 3.85553,15.19222 4.73222,18.5739 -2.34607,4.05003 -31.3074,54.1397 -31.3074,54.1397 0,0 41.2781,-34.11956 47.13706,-38.94748 4.04691,4.89428 33.20892,40.26096 33.20892,40.26096 0,0 -14.42511,-48.21284 -15.80806,-52.80308 2.1377,-3.42798 13.27833,-21.224 13.27833,-21.224"
     id="path5"
     style="stroke-width:1" />
  <path
     fill="#3ec1cc"
     d="m 382.1021,434.07907 -47.49668,65.33127 H 537.5 L 443.1086,77.191104 442.74898,75.589 305.29834,75.68624 37.5,499.39954 h 220.33252 l -30.92153,-64.99171 61.54673,-103.30022 4.15498,16.34825 -51.54516,88.96463 77.30692,-57.37787 51.83533,57.37787 -21.52192,-83.1566 11.80897,-18.89034 21.6037,99.70552 z m -62.48206,-70.72873 c -5.85898,4.82792 -47.13707,38.94905 -47.13707,38.94905 0,0 28.96135,-50.08969 31.3074,-54.14126 -0.87822,-3.38169 -4.73067,-18.5739 -4.73067,-18.5739 h 51.23954 c 0,0 -11.1391,17.79601 -13.27524,21.224 1.37984,4.59023 15.80495,52.80617 15.80495,52.80617 0,0 -29.16199,-35.36978 -33.20891,-40.26251 m -24.47918,-43.46364 38.75764,-65.04881 h 9.36722 L 357.359,319.88825 Z M 56.353276,489.06611 312.32412,85.598292 l 1.94784,2.864648 25.63676,37.67259 -60.96793,27.10303 25.65681,45.20002 -79.41065,38.32856 28.33008,50.79812 -81.94037,51.35994 25.78184,61.32293 -134.380724,84.64757 v -0.004 l -6.622957,4.17352 z m 184.045964,0 H 73.212412 l 136.763808,-84.79574 -25.30027,-62.07923 82.14256,-51.76276 -26.56127,-49.23923 79.37978,-37.97975 -26.02108,-45.05957 60.41075,-27.17712 -22.62394,-34.743115 -0.008,-0.01225 -1.32583,-2.035814 -5.60428,-8.581598 110.08368,0.06174 89.71784,403.418437 -167.72546,0.0418 38.5076,-52.69812 -42.86633,-191.21528 H 327.4613 l -113.5194,189.31375 26.46095,54.54561 z"
     id="path6"
     style="stroke-width:1" />
  <metadata
     id="metadata7">
    <rdf:RDF>
      <cc:Work
         rdf:about="">
        <dc:title>Arizona Diamondbacks hat dark logo</dc:title>
      </cc:Work>
    </rdf:RDF>
  </metadata>
</svg>
