<?xml version="1.0" encoding="UTF-8" standalone="no"?>
<svg
   xmlns:dc="http://purl.org/dc/elements/1.1/"
   xmlns:cc="http://creativecommons.org/ns#"
   xmlns:rdf="http://www.w3.org/1999/02/22-rdf-syntax-ns#"
   xmlns:svg="http://www.w3.org/2000/svg"
   xmlns="http://www.w3.org/2000/svg"
   xmlns:xlink="http://www.w3.org/1999/xlink"
   width="402"
   height="229"
   viewBox="0 0 401.99999 229"
   id="svg2"
   version="1.1">
  <defs
     id="defs4">
    <pattern
       xlink:href="#Strips1_5"
       id="pattern5599"
       patternTransform="matrix(9.1394239,0,0,9.7943283,59.855911,8.2387867)" />
    <pattern
       id="Strips1_5"
       patternTransform="translate(0,0) scale(10,10)"
       height="1"
       width="6"
       patternUnits="userSpaceOnUse">
      <rect
         id="rect4887"
         height="2"
         width="1"
         y="-0.5"
         x="0"
         style="fill:#0a3a99;stroke:none" />
    </pattern>
  </defs>
  <g
     id="layer1"
     transform="translate(0,-823.36216)">
    <rect
       style="fill:#ffffff;fill-opacity:1;stroke:none"
       id="rect5576"
       width="402.00842"
       height="229.00366"
       x="0"
       y="823.36218" />
  </g>
  <g
     id="layer2">
    <rect
       style="fill:url(#pattern5599);fill-opacity:1;fill-rule:evenodd;stroke:none;stroke-width:1px;stroke-linecap:butt;stroke-linejoin:miter;stroke-opacity:1"
       id="rect3336"
       width="402.00534"
       height="228.99832"
       x="0"
       y="5.7313353e-014" />
  </g>
  <g
     id="layer3">
    <rect
       style="fill:#ffffff;fill-opacity:1;stroke:none"
       id="rect5601"
       width="223.52966"
       height="53.452747"
       x="89.235168"
       y="22.698898" />
    <rect
       style="fill:#ffffff;fill-opacity:1;stroke:none"
       id="rect4154"
       width="124.74239"
       height="112.50352"
       x="138.6288"
       y="96.725998" />
  </g>
  <g
     id="layer4">
    <g
       style="fill:#0a3a99;"
       id="text5582">
      <path
         d="m 93.578125,27.062714 17.883305,0 q 5.31005,0 7.90405,0.457763 2.62451,0.427246 4.66919,1.831055 2.07519,1.403809 3.44848,3.753662 1.3733,2.319336 1.3733,5.218506 0,3.14331 -1.70899,5.767822 -1.67847,2.624512 -4.57764,3.936768 4.08936,1.190185 6.28663,4.058838 2.19726,2.868652 2.19726,6.744384 0,3.051758 -1.43433,5.950928 -1.4038,2.868653 -3.87573,4.608154 -2.4414,1.708985 -6.04248,2.105713 -2.2583,0.244141 -10.89477,0.305176 l -15.228275,0 0,-44.738769 z m 9.033205,7.446289 0,10.345459 5.92041,0 q 5.27954,0 6.56128,-0.152588 2.31933,-0.274658 3.63159,-1.586914 1.34277,-1.342774 1.34277,-3.509522 0,-2.075195 -1.15967,-3.356933 -1.12915,-1.312256 -3.38745,-1.586914 -1.34277,-0.152588 -7.72094,-0.152588 l -5.18799,0 z m 0,17.791748 0,11.96289 8.36181,0 q 4.88282,0 6.19507,-0.274658 2.01416,-0.366211 3.26538,-1.770019 1.28174,-1.434327 1.28174,-3.814698 0,-2.01416 -0.97656,-3.417968 -0.97656,-1.403809 -2.83814,-2.044678 -1.83105,-0.640869 -7.9956,-0.640869 l -7.2937,0 z"
         style=""
         id="path4173" />
      <path
         d="m 179.05786,71.801483 -9.82666,0 -3.90625,-10.162353 -17.8833,0 -3.69263,10.162353 -9.58252,0 17.42554,-44.738769 9.552,0 17.91382,44.738769 z m -16.63208,-17.700195 -6.16455,-16.601563 -6.04248,16.601563 12.20703,0 z"
         style=""
         id="path4175" />
      <path
         d="m 184.09326,71.801483 0,-44.738769 8.78906,0 18.31055,29.876709 0,-29.876709 8.39234,0 0,44.738769 -9.06373,0 -18.03588,-29.174805 0,29.174805 -8.39234,0 z"
         style=""
         id="path4177" />
      <path
         d="m 229.28979,71.801483 0,-44.738769 9.03321,0 0,19.866943 18.24951,-19.866943 12.146,0 -16.84571,17.425537 17.76123,27.313232 -11.68823,0 -12.29858,-20.996094 -7.32422,7.476807 0,13.519287 -9.03321,0 z"
         style=""
         id="path4179" />
      <path
         d="m 272.04492,57.244598 8.78906,-0.854492 q 0.79346,4.425049 3.20435,6.500244 2.44141,2.075196 6.56128,2.075196 4.36401,0 6.56128,-1.831055 2.22778,-1.861572 2.22778,-4.333496 0,-1.586914 -0.94604,-2.685547 -0.91553,-1.12915 -3.23487,-1.953125 -1.58691,-0.549316 -7.23266,-1.953125 -7.26319,-1.800537 -10.19287,-4.425049 -4.11988,-3.692627 -4.11988,-9.002685 0,-3.417969 1.92261,-6.378174 1.95313,-2.990723 5.58472,-4.547119 3.66211,-1.556397 8.81958,-1.556397 8.42285,0 12.66479,3.692627 4.27246,3.692627 4.48609,9.857178 l -9.03321,0.396728 q -0.57983,-3.448486 -2.50244,-4.943847 -1.89209,-1.525879 -5.70678,-1.525879 -3.93677,0 -6.16456,1.617431 -1.43432,1.037598 -1.43432,2.7771 0,1.586914 1.34277,2.716065 1.70899,1.434326 8.30078,2.990722 6.5918,1.556397 9.73511,3.234863 3.17383,1.64795 4.94385,4.54712 1.80053,2.868652 1.80053,7.110595 0,3.845215 -2.13623,7.202149 -2.13623,3.356933 -6.04248,5.004883 -3.90625,1.617431 -9.7351,1.617431 -8.48389,0 -13.03101,-3.90625 -4.54712,-3.936767 -5.43213,-11.444092 z"
         style=""
         id="path4181" />
    </g>
    <g
       style="fill:#0a3a99;"
       id="text5603">
      <path
         d="m 174.28809,186.76433 0,-84.125 -26.75,0 0,15.875 10.625,0 0,68.25 -12,0 0,15.875 41.375,0 0,-15.875 -13.25,0 z"
         style=""
         id="path4184" />
      <path
         d="m 255.83691,158.38933 -6.625,0 0,-55.75 -15.625,0 -37.375,55.75 0,16.125 37.375,0 0,28.125 15.625,0 0,-28.125 6.625,0 0,-16.125 z m -39.875,0 17.625,-28.25 0,28.25 -17.625,0 z"
         style=""
         id="path4186" />
    </g>
  </g>
</svg>
