<svg xmlns="http://www.w3.org/2000/svg" xml:space="preserve" style="enable-background:new 0 0 512 512" viewBox="0 0 512 512"><title>Texas Rangers Insignia</title><path fill="#003278" d="M 0,512 H 512 V 0 H 0" /><g><path fill="#c0111f" d="m 111.05402,160.74348 -0.10578,13.10163 H 59.418208 l 19.0102,23.96676 h 55.232342 l 0.0454,-9.44467 c 0,-52.53645 4.98678,-85.82697 59.932,-91.817144 v -6.966377 c -59.31243,0.205517 -82.55686,19.947111 -82.58406,71.159801 m 177.78013,91.93502 v 115.49074 c 0,5.96298 1.37212,11.77787 17.5595,11.77787 h 8.17832 V 263.48319 c 0,-23.61315 32.70117,-32.64072 32.70117,-32.64072 0,0 -8.01512,-3.19154 -16.16018,-8.9762 l -14.12317,4.01359 c -0.29316,0.0604 -28.15564,8.20552 -28.15564,26.79864 M 428.14356,32.885531 V 173.84511 h -38.25312 l 20.45485,25.58972 h 42.2365 V 58.650548 M 288.83415,185.50208 c 0,14.31658 20.7329,25.56252 28.7329,28.63317 l 7.79147,3.0374 c -5.94787,-5.43106 -10.78958,-12.45788 -10.78958,-20.80847 V 98.109558 l 4.63619,0.323385 c 13.90253,0 27.0495,4.723837 38.01436,12.723837 C 342.54929,97.520211 319.48621,90.200226 288.83415,89.964488 V 185.49906 Z M 156.96259,453.34945 v 0.23574 L 177.06082,480 h 181.79675 v -60.85682 l -21.57914,-25.08501 v 59.29128" /><path fill="#f9f9f9" d="m 60.717792,161.48092 h 38.231961 c 0,-0.38383 0.07555,-0.64979 0.07555,-0.94597 0,-0.94598 -0.07253,-1.29959 -0.308273,-0.41708 0,-57.40537 29.46732,-82.931622 95.50435,-82.931622 h 11.78089 V 185.5051 c 0,17.73479 -11.98036,28.18285 -21.60333,34.14583 9.6955,5.45825 21.60936,15.23233 21.60936,32.99735 v 114.51455 c 0,15.49527 -11.03135,25.11522 -28.81148,25.11522 h -19.73555 v 48.76161 H 324.92633 V 392.28711 H 306.3997 c -24.71628,0 -29.91161,-13.07744 -29.91161,-24.11787 V 252.6513 c 0,-17.71062 13.91765,-27.74461 24.79487,-33.20589 C 290.53872,213.0442 276.49112,202.0068 276.49112,185.5051 V 83.327541 l 4.59388,-5.932755 h 6.18058 c 63.98791,0 100.70269,29.074424 100.70269,79.776344 0,0 -0.0121,2.27277 -0.0604,4.30979 h 27.89572 V 32 H 60.717792 Z" /></g></svg>