<svg xmlns="http://www.w3.org/2000/svg" xml:space="preserve" style="enable-background:new 0 0 575 575" viewBox="0 0 575 575"><path d="M 0,0 H 575 V 575 H 0 Z" style="fill:#ba0021" /><path d="m 318.7115,537.49573 h 142.51333 c -13.16599,-8.9469 -24.82303,-24.60503 -29.99111,-42.5159 l -39.8485,-136.69124 c -4.30032,-14.72198 2.7016,-29.42685 13.91833,-39.3954 -15.90178,-4.8774 -30.00392,-15.89751 -34.44104,-31.14099 l -22.30097,-76.5081 c 31.7138,-10.60547 52.3904,-29.39265 52.3904,-51.23197 0,-28.51634 -35.28316,-51.85178 -84.39915,-58.54165 L 297.89811,37.5 h -20.88178 l -18.63758,63.97903 c -49.13737,6.68987 -84.43762,30.02531 -84.43762,58.5331 0,21.83504 20.70224,40.62223 52.45024,51.23197 l -22.30524,76.51237 c -4.41147,15.24776 -18.53926,26.2636 -34.43249,31.141 11.17398,9.96854 18.21865,24.66914 13.92687,39.39539 l -39.8485,136.69125 c -5.28777,17.91087 -16.82512,33.569 -29.95691,42.5159 h 142.49624 c -11.64421,-8.9469 -18.01347,-24.60503 -12.80265,-42.5159 l 3.50523,-11.91353 h 81.03071 l 3.46676,11.91353 c 5.22366,17.90659 -1.14133,33.56472 -12.75989,42.51162 m -43.51191,-151.23795 12.31534,-42.29362 12.26403,42.29362 z" style="fill:#ffffff" /><path d="m 437.22682,527.7965 c -6.79246,-8.88278 -12.19137,-19.22749 -15.35891,-30.06378 L 382.27589,361.94344 c -6.25812,-21.54008 5.34335,-36.85623 6.86512,-39.28425 -13.74734,-7.46359 -23.81847,-18.79574 -27.64858,-32.20112 l -24.07069,-82.62943 c 33.96656,-9.04949 57.08827,-27.04159 57.08827,-47.81651 0,-26.28069 -37.19394,-48.21832 -86.4681,-53.07434 L 290.65253,47.224884 h -6.30086 L 266.9452,106.93779 c -49.29981,4.85602 -86.5365,26.78938 -86.5365,53.07434 0,20.77492 23.17301,38.77129 57.13529,47.81651 l -24.09633,82.62943 c -3.87713,13.40538 -13.90124,24.73326 -27.65713,32.20112 1.54742,2.42802 13.16598,17.74417 6.84802,39.28425 l -39.54074,135.78928 c -3.18035,10.83629 -8.58354,21.18528 -15.40164,30.06378 h 98.65519 c -7.96799,-17.57318 -3.76598,-30.38011 -0.19236,-42.45607 l 3.49668,-12.0161 h 95.65437 l 3.53089,12.0161 c 3.48812,12.07596 7.69013,24.88289 -0.26931,42.45607 h 98.65519 m -175.07781,-131.81383 25.36592,-86.85283 25.26759,86.85283 z" style="fill:#003263" /><path d="m 313.70585,181.27864 h 0.008 l -12.69577,-43.63588 2.50068,8.69897 a 286.30908,286.30908 0 0 0 -16.00865,-0.50014 v 28.30262 l 93.44864,320.30556 30.03813,17.97927 c -2.10314,-4.5568 -3.984,-9.22901 -5.39891,-14.03375 L 367.77619,368.91116 c -5.95034,-20.22776 -2.68876,-28.96091 1.64576,-41.16938 -11.39201,-8.71607 -18.94535,-20.0525 -22.63012,-32.84232 l -28.70444,-98.61244 c -0.0257,0 -0.0385,0 -0.0641,0.0171 l -4.31743,-15.02548 m -17.30814,-59.54193 -8.88278,-30.512608 v 30.320248 c 2.99655,0.005 5.9418,0.0683 8.88278,0.19236 m -102.86575,374.30752 24.2716,16.38909 c -1.28668,-8.1518 -0.0641,-18.90687 2.2613,-26.55855 l 8.06631,-27.86659 -16.67978,-23.31407 -17.91943,61.35012" style="fill:#ba0021" /><path d="m 241.69043,411.32874 45.8245,-156.88052 v -80.29974 l -76.06354,260.54136 h 152.05869 l -30.31599,-23.3611 h -91.50366" style="fill:#ba0021" /><path d="m 287.51493,254.44822 45.67916,156.88052 30.31599,23.3611 -75.99515,-260.54136 v 80.29974" style="fill:#862633" /><path d="M 411.00169,512.42904 380.96357,494.44977 363.51008,434.68556 H 211.45139 L 287.5192,174.14421 v -28.30262 c 5.45021,0 10.81492,0.20519 16.00865,0.50014 l -2.50068,-8.69897 c -0.67112,-0.0342 -1.35935,-0.0555 -2.03902,-0.0898 a 227.92132,227.92132 0 0 0 -11.46467,-0.30774 c -4.63802,0 -9.17345,0.14962 -13.56782,0.39754 l -12.71288,43.63588 h 0.0257 l -4.35589,15.01693 c -0.008,-0.0171 -0.0257,-0.0171 -0.0385,-0.0171 l -28.73435,98.61245 c -3.67622,12.79409 -11.16545,24.12625 -22.5831,32.84231 4.28322,12.20847 7.57899,20.94163 1.63719,41.16938 L 169.3416,498.38675 a 91.11894,91.11894 0 0 1 -5.45876,14.03375 h 53.92929 l -24.2716,-16.38909 17.91516,-61.35439 16.67977,23.31407 h 118.66067 l 8.17745,27.86658 c 2.17153,7.65595 3.42401,18.40675 2.17153,26.55856 h 53.85657 M 287.51493,91.228373 l -8.8956,30.512607 a 210.12157,210.12157 0 0 1 8.8956,-0.19235 V 91.228373" style="fill:#862633" /><path d="m 261.25988,181.27864 h -0.0257 c -27.54172,-3.2915 -47.08124,-11.60574 -47.08124,-21.26651 0,-11.13551 25.7549,-20.39019 59.78985,-22.36937 a 241.00609,241.00609 0 0 1 13.56782,-0.39754 c 3.91133,0 7.71578,0.11969 11.46468,0.30778 0.67966,0.0342 1.36788,0.0555 2.03901,0.0898 34.02212,1.97063 59.80696,11.22531 59.80696,22.36937 0,9.66077 -19.578,17.97501 -47.10263,21.26651 h -0.0171 l 4.31743,15.01693 c 0.0257,-0.0171 0.0385,-0.0171 0.0641,-0.0171 35.45415,-5.31769 60.87563,-19.49251 60.87563,-36.26633 0,-19.95845 -36.24923,-36.40312 -82.56532,-38.27543 a 210.29256,210.29256 0 0 0 -17.77837,0 c -46.4315,1.87658 -82.61661,18.31698 -82.61661,38.27543 0,16.77382 25.39156,30.96574 60.85852,36.26633 0.017,0 0.0342,0 0.0385,0.0171 l 4.36444,-15.01693" style="fill:#c4ced4" /><path d="m 461.22483,537.49573 -347.44973,0.004 z" style="fill:#ffffff" /></svg>
