<?xml version="1.0" encoding="UTF-8" standalone="no"?>
<!-- Created with Inkscape (http://www.inkscape.org/) -->

<svg
   xmlns:dc="http://purl.org/dc/elements/1.1/"
   xmlns:cc="http://creativecommons.org/ns#"
   xmlns:rdf="http://www.w3.org/1999/02/22-rdf-syntax-ns#"
   xmlns:svg="http://www.w3.org/2000/svg"
   xmlns="http://www.w3.org/2000/svg"
   xmlns:sodipodi="http://sodipodi.sourceforge.net/DTD/sodipodi-0.dtd"
   xmlns:inkscape="http://www.inkscape.org/namespaces/inkscape"
   version="1.1"
   id="svg10"
   xml:space="preserve"
   width="546"
   height="183"
   viewBox="0 0 546 183"
   sodipodi:docname="los angeles angels wordmark.svg"
   inkscape:version="0.92.5 (2060ec1f9f, 2020-04-08)"><metadata
     id="metadata16"><rdf:RDF><cc:Work
         rdf:about=""><dc:format>image/svg+xml</dc:format><dc:type
           rdf:resource="http://purl.org/dc/dcmitype/StillImage" /><dc:title></dc:title></cc:Work></rdf:RDF></metadata><defs
     id="defs14"><radialGradient
       fx="0"
       fy="0"
       cx="0"
       cy="0"
       r="1"
       gradientUnits="userSpaceOnUse"
       gradientTransform="matrix(314.54413,0,0,-478.65411,198,306)"
       spreadMethod="pad"
       id="radialGradient40"><stop
         style="stop-opacity:1;stop-color:#c82146"
         offset="0"
         id="stop32" /><stop
         style="stop-opacity:1;stop-color:#c82146"
         offset="0.187845"
         id="stop34" /><stop
         style="stop-opacity:1;stop-color:#8c1532"
         offset="0.646409"
         id="stop36" /><stop
         style="stop-opacity:1;stop-color:#8c1532"
         offset="1"
         id="stop38" /></radialGradient><clipPath
       clipPathUnits="userSpaceOnUse"
       id="clipPath50"><path
         d="M 0,0 H 396 V 612 H 0 Z"
         id="path48"
         inkscape:connector-curvature="0" /></clipPath><clipPath
       clipPathUnits="userSpaceOnUse"
       id="clipPath64"><path
         d="M 61.52,507.495 H 325.479 V 598.68 H 61.52 Z"
         id="path62"
         inkscape:connector-curvature="0" /></clipPath></defs><sodipodi:namedview
     pagecolor="#ffffff"
     bordercolor="#666666"
     borderopacity="1"
     objecttolerance="10"
     gridtolerance="10"
     guidetolerance="10"
     inkscape:pageopacity="0"
     inkscape:pageshadow="2"
     inkscape:window-width="1920"
     inkscape:window-height="1017"
     id="namedview12"
     showgrid="false"
     fit-margin-top="0"
     fit-margin-left="0"
     fit-margin-right="0"
     fit-margin-bottom="0"
     inkscape:zoom="1.4731391"
     inkscape:cx="151.7524"
     inkscape:cy="110.44682"
     inkscape:window-x="-8"
     inkscape:window-y="-8"
     inkscape:window-maximized="1"
     inkscape:current-layer="g18" /><g
     id="g18"
     inkscape:groupmode="layer"
     inkscape:label="2020 Los Angeles Angeles Media Guide"
     transform="matrix(1.3333333,0,0,-1.3333333,-83.696127,862.89063)"><g
       id="g58"
       transform="matrix(1.5746021,0,0,1.5660836,-36.068984,-288.65623)"><g
         id="g60"
         clip-path="url(#clipPath64)"><g
           id="g66"
           transform="translate(237.0709,547.9879)"><path
             d="M 0,0 C 2.129,0 4.07,1.02 4.91,1.533 4.831,1.534 -1.335,1.536 -1.335,1.536 V 0 Z m 6.062,-20.817 c 0.489,0.055 0.974,0.168 1.438,0.317 l -2.32,1.531 c -0.604,0.399 -2.761,1.701 -5.173,1.703 l -1.342,-0.001 v -3.55 z m -28.488,-17.252 1.921,2.799 c 0.388,0.566 1.655,2.609 1.655,5.123 v 15.945 c 0,1.136 -1.16,2.393 -2.153,3.124 l -1.951,1.436 1.947,1.441 c 0.995,0.737 2.157,1.999 2.157,3.132 v 15.92 c 0,2.514 -1.267,4.559 -1.656,5.126 l -1.917,2.797 34.17,0.021 L 12.838,-1.518 9.98,0.134 C 9.68,0.308 8.96,0.691 7.953,1.012 v -21.355 c 1.345,0.501 2.45,1.234 2.853,1.518 l 3.147,2.222 -1.87,-21.466 z"
             style="fill:#ffffff;fill-opacity:1;fill-rule:nonzero;stroke:none"
             id="path68"
             inkscape:connector-curvature="0" /></g><g
           id="g70"
           transform="translate(243.227,525.3827)"><path
             d="m 0,0 h -9.279 v 7.125 l 3.13,0.002 c 2.866,-0.003 5.33,-1.45 6.158,-1.998 v 17.687 c -0.828,-0.545 -3.295,-1.999 -6.165,-1.999 h -3.123 v 5.112 h 7.795 c 3.058,0 5.391,-1.171 6.204,-1.641 L 3.896,39.61 -25.187,39.593 c 0.555,-0.809 1.97,-3.169 1.97,-6.136 V 17.536 c 0,-2.261 -2.176,-4.046 -2.882,-4.569 0.706,-0.519 2.882,-2.306 2.882,-4.564 V -7.542 c 0,-2.964 -1.415,-5.326 -1.97,-6.134 H 4.288 L 5.681,2.32 C 4.836,1.723 2.519,0.249 0,0"
             style="fill:#ffffff;fill-opacity:1;fill-rule:nonzero;stroke:none"
             id="path72"
             inkscape:connector-curvature="0" /></g><g
           id="g74"
           transform="translate(243.227,525.3827)"><path
             d="m 0,0 h -9.279 v 7.125 l 3.13,0.002 c 2.866,-0.003 5.33,-1.451 6.158,-1.998 v 17.687 c -0.828,-0.545 -3.295,-1.999 -6.165,-1.999 h -3.123 v 5.112 h 7.795 c 3.058,0 5.391,-1.171 6.204,-1.641 L 3.896,39.61 -25.187,39.593 c 0.555,-0.809 1.97,-3.169 1.97,-6.136 V 17.536 c 0,-2.261 -2.176,-4.046 -2.882,-4.569 0.706,-0.519 2.882,-2.306 2.882,-4.564 V -7.542 c 0,-2.964 -1.415,-5.326 -1.97,-6.134 H 4.288 L 5.681,2.32 C 4.836,1.723 2.519,0.249 0,0"
             style="fill:#002b5c;fill-opacity:1;fill-rule:nonzero;stroke:none"
             id="path76"
             inkscape:connector-curvature="0" /></g><g
           id="g78"
           transform="translate(231.2632,522.7003)"><path
             d="m 0,0 v 12.49 h 5.808 c 1.237,0 2.427,-0.246 3.483,-0.695 v 9.719 C 8.235,21.066 7.041,20.818 5.808,20.818 H 0 v 10.476 h 10.48 c 1.19,0 2.318,-0.197 3.314,-0.546 l -0.477,8.863 H -9.255 c 0.45,-1.054 0.694,-2.243 0.694,-3.472 V 20.231 c 0,-1.737 -0.721,-3.35 -1.972,-4.591 1.24,-1.248 1.972,-2.876 1.972,-4.579 v -15.9 c 0,-1.231 -0.244,-2.42 -0.69,-3.473 h 23.085 l 0.789,9.078 C 13.623,0.306 12.497,0 11.324,0 Z"
             style="fill:#ce152d;fill-opacity:1;fill-rule:nonzero;stroke:none"
             id="path80"
             inkscape:connector-curvature="0" /></g><g
           id="g82"
           transform="translate(241.2463,558.1552)"><path
             d="m 0,0 h -14.268 l 4.285,-4.16 h 10.48 c 1.19,0 2.318,-0.197 3.314,-0.547 z"
             style="fill:#910020;fill-opacity:1;fill-rule:nonzero;stroke:none"
             id="path84"
             inkscape:connector-curvature="0" /></g><g
           id="g86"
           transform="translate(240.5539,534.4958)"><path
             d="m 0,0 -3.768,4.861 h -9.807 l 4.284,-4.166 h 5.808 C -2.246,0.695 -1.056,0.449 0,0"
             style="fill:#910020;fill-opacity:1;fill-rule:nonzero;stroke:none"
             id="path88"
             inkscape:connector-curvature="0" /></g><g
           id="g90"
           transform="translate(222.7016,517.8607)"><path
             d="M 0,0 C 0,-1.23 -0.243,-2.419 -0.689,-3.472 H 22.396 L 19.227,0.687 H 4.277 v 39.608 l -4.97,4.155 C -0.243,43.397 0,42.208 0,40.979 V 25.07 C 0,23.334 -0.72,21.721 -1.972,20.479 -0.731,19.231 0,17.604 0,15.9 Z"
             style="fill:#910020;fill-opacity:1;fill-rule:nonzero;stroke:none"
             id="path92"
             inkscape:connector-curvature="0" /></g><g
           id="g94"
           transform="translate(193.6531,527.1835)"><path
             d="M 0,0 V 9.232 C -0.851,8.49 -1.67,7.449 -1.67,6.495 V 0 Z m -6.069,-17.265 c -7.095,0 -12.869,5.598 -12.869,12.48 V 6.508 c 0,1.135 -1.161,2.394 -2.155,3.127 l -1.954,1.44 1.955,1.439 c 0.994,0.732 2.154,1.989 2.154,3.126 v 11.45 c 0,6.883 5.774,12.483 12.869,12.483 h 20.311 l 2.531,-21.528 -3.347,2.54 c -0.65,0.493 -2.433,1.647 -4.963,1.719 L -1.67,22.303 V 17.259 H 21.514 L 19.631,14.47 C 19.243,13.894 17.973,11.822 17.973,9.345 l -0.012,-26.61 z"
             style="fill:#ffffff;fill-opacity:1;fill-rule:nonzero;stroke:none"
             id="path96"
             inkscape:connector-curvature="0" /></g><g
           id="g98"
           transform="translate(193.4652,542.6545)"><path
             d="m 0,0 c 0.533,-0.795 1.912,-3.09 1.976,-5.915 v -11.344 h -4.151 c -0.595,0 -1.088,0.488 -1.095,1.091 v 7.192 c 0,2.259 2.174,4.045 2.881,4.566 -0.707,0.519 -2.881,2.307 -2.881,4.565 v 7.364 c 0,0.608 0.491,1.101 1.099,1.101 H 8.702 C 11.738,8.534 13.88,7.157 14.695,6.539 14.401,9.034 12.983,21.09 12.84,22.314 H -5.881 c -6.109,0 -11.08,-4.799 -11.08,-10.695 V 0.169 c 0,-2.259 -2.175,-4.045 -2.883,-4.566 0.708,-0.522 2.883,-2.307 2.883,-4.566 v -11.293 c 0,-5.894 4.971,-10.692 11.08,-10.692 h 22.242 l 0.012,24.822 c 0,2.939 1.416,5.314 1.965,6.126 z"
             style="fill:#ffffff;fill-opacity:1;fill-rule:nonzero;stroke:none"
             id="path100"
             inkscape:connector-curvature="0" /></g><g
           id="g102"
           transform="translate(193.4652,542.6545)"><path
             d="m 0,0 c 0.533,-0.795 1.912,-3.09 1.976,-5.915 v -11.344 h -4.151 c -0.595,0 -1.088,0.488 -1.095,1.091 v 7.192 c 0,2.259 2.174,4.045 2.881,4.566 -0.707,0.519 -2.881,2.307 -2.881,4.565 v 7.364 c 0,0.608 0.491,1.101 1.099,1.101 H 8.702 C 11.738,8.534 13.88,7.157 14.695,6.539 14.401,9.034 12.983,21.09 12.84,22.314 H -5.881 c -6.109,0 -11.08,-4.799 -11.08,-10.695 V 0.169 c 0,-2.259 -2.175,-4.045 -2.883,-4.566 0.708,-0.522 2.883,-2.307 2.883,-4.566 v -11.293 c 0,-5.894 4.971,-10.692 11.08,-10.692 h 22.242 l 0.012,24.822 c 0,2.939 1.416,5.314 1.965,6.126 z"
             style="fill:#002b5c;fill-opacity:1;fill-rule:nonzero;stroke:none"
             id="path104"
             inkscape:connector-curvature="0" /></g><g
           id="g106"
           transform="translate(198.1236,536.4994)"><path
             d="m 0,0 v -13.786 h -8.081 c -1.397,0 -2.529,1.133 -2.529,2.528 v 8.426 c 0,1.706 0.729,3.333 1.968,4.579 -1.252,1.241 -1.968,2.852 -1.968,4.588 v 8.592 c 0,1.396 1.132,2.53 2.529,2.53 H 4.014 c 0.992,0 1.957,-0.21 2.833,-0.589 l -1.05,8.918 h -16.336 c -4.633,0 -8.399,-3.594 -8.399,-8.012 V 6.335 c 0,-1.734 -0.717,-3.346 -1.967,-4.588 1.239,-1.246 1.967,-2.875 1.967,-4.579 v -11.269 c 0,-4.416 3.766,-8.01 8.399,-8.01 H 9.018 V 0 c 0,1.237 0.247,2.43 0.693,3.484 H -0.693 C -0.244,2.429 0,1.237 0,0"
             style="fill:#ce152d;fill-opacity:1;fill-rule:nonzero;stroke:none"
             id="path108"
             inkscape:connector-curvature="0" /></g><g
           id="g110"
           transform="translate(197.4299,539.9836)"><path
             d="M 0,0 C 0.45,-1.055 0.693,-2.248 0.693,-3.484 V -17.27 l 4.512,-4.166 v 17.473 z"
             style="fill:#910020;fill-opacity:1;fill-rule:nonzero;stroke:none"
             id="path112"
             inkscape:connector-curvature="0" /></g><g
           id="g114"
           transform="translate(202.6352,518.5476)"><path
             d="m 0,0 h -14.251 c -2.788,0 -5.042,2.163 -5.042,4.844 v 29.887 c 0,1.321 0.545,2.518 1.442,3.394 l -3.111,3.288 c -1.534,-1.452 -2.487,-3.465 -2.487,-5.687 V 24.287 c 0,-1.734 -0.718,-3.346 -1.968,-4.589 1.239,-1.246 1.968,-2.874 1.968,-4.579 V 3.851 c 0,-4.416 3.766,-8.011 8.398,-8.011 H 4.506 Z"
             style="fill:#910020;fill-opacity:1;fill-rule:nonzero;stroke:none"
             id="path116"
             inkscape:connector-curvature="0" /></g><g
           id="g118"
           transform="translate(200.7653,558.1291)"><path
             d="m 0,0 h -12.381 c -1.411,0 -2.683,-0.559 -3.601,-1.456 l 3.481,-3.451 c 0.454,0.453 1.083,0.734 1.778,0.734 H 1.373 c 0.992,0 1.957,-0.21 2.832,-0.588 z"
             style="fill:#910020;fill-opacity:1;fill-rule:nonzero;stroke:none"
             id="path120"
             inkscape:connector-curvature="0" /></g><g
           id="g122"
           transform="translate(292.4698,509.9185)"><path
             d="m 0,0 -2.529,21.383 3.33,-2.478 c 0.632,-0.469 2.368,-1.573 4.846,-1.683 l 7.477,0.002 -0.002,2.586 -0.87,0.909 c -0.949,0.781 -2.406,0.899 -3.199,0.899 -0.27,0 -0.488,-0.013 -0.63,-0.026 l -2.016,-0.181 0.069,2.023 c 0.059,1.721 -0.195,3.325 -0.622,3.962 l -4.799,5.013 c -1.977,2.271 -3.034,5.104 -3.034,8.039 v 3.946 c 0,6.866 5.757,12.452 12.834,12.452 h 16.989 l 2.524,-21.492 -3.354,2.562 c -0.678,0.518 -2.542,1.724 -5.194,1.724 h -4.455 c 0.076,-0.082 0.134,-0.144 0.164,-0.176 0.857,-0.724 2.339,-0.844 3.141,-0.844 0.273,0 0.495,0.014 0.638,0.027 l 2.028,0.179 -0.083,-2.033 c -0.071,-1.761 0.223,-3.5 0.684,-4.045 0.06,-0.061 3.384,-3.547 3.384,-3.547 1.976,-2.261 3.033,-5.094 3.033,-8.035 l 0.013,-8.713 C 30.367,5.585 24.611,0 17.535,0 Z"
             style="fill:#ffffff;fill-opacity:1;fill-rule:nonzero;stroke:none"
             id="path124"
             inkscape:connector-curvature="0" /></g><g
           id="g126"
           transform="translate(321.0358,531.0849)"><path
             d="m 0,0 c 0,2.511 -0.905,4.928 -2.538,6.801 0,0 -3.449,3.617 -3.456,3.625 -1.162,1.373 -1.14,4.42 -1.105,5.273 -0.786,-0.07 -3.461,-0.174 -5.208,1.339 l -0.007,0.007 -0.006,0.007 c 0,0 -1.632,1.747 -1.64,1.759 -0.226,0.283 -0.273,0.637 -0.125,0.943 0.146,0.309 0.468,0.508 0.817,0.508 h 6.522 c 3.187,0 5.44,-1.45 6.28,-2.091 l -1.847,15.72 h -15.398 c -6.092,0 -11.046,-4.783 -11.046,-10.663 v -3.946 c 0,-2.507 0.905,-4.925 2.537,-6.803 l 4.865,-5.081 0.009,-0.006 0.006,-0.009 c 1.086,-1.411 1.066,-4.346 1.037,-5.177 0.783,0.07 3.463,0.173 5.217,-1.35 l 1.43,-1.495 0.003,-3.989 c 0,-0.61 -0.493,-1.102 -1.099,-1.102 h -8.246 c -2.953,0.13 -5.034,1.44 -5.833,2.035 l 1.854,-15.683 h 15.947 c 6.087,0 11.043,4.785 11.043,10.662 z"
             style="fill:#ffffff;fill-opacity:1;fill-rule:nonzero;stroke:none"
             id="path128"
             inkscape:connector-curvature="0" /></g><g
           id="g130"
           transform="translate(321.0358,531.0849)"><path
             d="m 0,0 c 0,2.511 -0.905,4.928 -2.538,6.801 0,0 -3.449,3.617 -3.456,3.625 -1.162,1.373 -1.14,4.42 -1.105,5.273 -0.786,-0.07 -3.461,-0.174 -5.208,1.339 l -0.007,0.007 -0.006,0.007 c 0,0 -1.632,1.747 -1.64,1.759 -0.226,0.283 -0.273,0.637 -0.125,0.943 0.146,0.309 0.468,0.508 0.817,0.508 h 6.522 c 3.187,0 5.44,-1.45 6.28,-2.091 l -1.847,15.72 h -15.398 c -6.092,0 -11.046,-4.783 -11.046,-10.663 v -3.946 c 0,-2.507 0.905,-4.925 2.537,-6.803 l 4.865,-5.081 0.009,-0.006 0.006,-0.009 c 1.086,-1.411 1.066,-4.346 1.037,-5.177 0.783,0.07 3.463,0.173 5.217,-1.35 l 1.429,-1.495 0.004,-3.989 c 0,-0.61 -0.493,-1.102 -1.099,-1.102 h -8.246 c -2.953,0.13 -5.034,1.44 -5.833,2.035 l 1.854,-15.683 h 15.947 c 6.087,0 11.043,4.785 11.043,10.662 z"
             style="fill:#002b5c;fill-opacity:1;fill-rule:nonzero;stroke:none"
             id="path132"
             inkscape:connector-curvature="0" /></g><g
           id="g134"
           transform="translate(318.3528,531.0811)"><path
             d="m 0,0 c 0,1.865 -0.685,3.675 -1.883,5.049 0,0 -3.377,3.536 -3.366,3.526 -1.187,1.221 -1.792,2.894 -1.769,4.651 -1.723,0.041 -3.335,0.71 -4.545,1.963 0,0 -2.889,3.033 -2.872,3.014 -0.551,0.562 -0.709,1.199 -0.672,1.706 V 20.4 c 0,1.392 1.129,2.525 2.519,2.525 h 8.804 c 0.985,0 1.941,-0.208 2.812,-0.584 l -1.045,8.873 h -13.011 c -4.612,0 -8.365,-3.58 -8.365,-7.982 v -3.946 c 0,-1.86 0.688,-3.672 1.886,-5.048 0,0 4.381,-4.57 4.373,-4.563 1.189,-1.224 1.789,-2.855 1.771,-4.595 1.65,0.027 3.105,-0.488 4.089,-1.519 L -8.888,1.068 C -8.496,0.607 -8.28,0.027 -8.28,-0.564 l 0.006,-5.319 c 0,-1.393 -1.132,-2.526 -2.52,-2.526 h -9.351 c -0.994,0 -1.947,0.201 -2.811,0.568 l 1.044,-8.849 h 13.565 c 4.609,0 8.36,3.577 8.36,7.977 C 0.013,-8.716 0,-0.004 0,0"
             style="fill:#ce152d;fill-opacity:1;fill-rule:nonzero;stroke:none"
             id="path136"
             inkscape:connector-curvature="0" /></g><g
           id="g138"
           transform="translate(313.3645,558.1555)"><path
             d="m 0,0 h -9.245 c -1.49,0 -2.826,-0.619 -3.746,-1.609 l 3.418,-3.497 c 0.461,0.584 1.175,0.957 1.974,0.957 h 8.804 c 0.985,0 1.941,-0.208 2.812,-0.584 z"
             style="fill:#910020;fill-opacity:1;fill-rule:nonzero;stroke:none"
             id="path140"
             inkscape:connector-curvature="0" /></g><g
           id="g142"
           transform="translate(312.8498,520.031)"><path
             d="m 0,0 c -0.914,-0.927 -2.213,-1.504 -3.649,-1.504 l -9.777,-0.017 -4.027,4.73 1.045,-8.849 h 13.564 c 2.387,0 4.544,0.958 6.069,2.496 z"
             style="fill:#910020;fill-opacity:1;fill-rule:nonzero;stroke:none"
             id="path144"
             inkscape:connector-curvature="0" /></g><g
           id="g146"
           transform="translate(314.2169,530.9448)"><path
             d="m 0,0 c 0,1.221 -0.462,2.329 -1.237,3.175 l -12.65,13.205 c -0.769,0.844 -1.233,1.958 -1.233,3.18 v 2.819 c 0,1.235 0.483,2.37 1.277,3.223 l -3.254,3.112 c -1.342,-1.416 -2.16,-3.291 -2.16,-5.346 v -3.946 c 0,-1.86 0.687,-3.672 1.886,-5.048 0,0 4.381,-4.569 4.373,-4.563 1.189,-1.223 1.789,-2.855 1.771,-4.595 1.65,0.027 3.104,-0.488 4.088,-1.519 l 2.388,-2.493 c 0.391,-0.461 0.607,-1.041 0.607,-1.632 l 0.006,-5.319 c 0,-0.666 -0.26,-1.27 -0.679,-1.723 l 3.45,-3.444 c 0.856,0.865 1.381,2.037 1.381,3.325 z"
             style="fill:#910020;fill-opacity:1;fill-rule:nonzero;stroke:none"
             id="path148"
             inkscape:connector-curvature="0" /></g><g
           id="g150"
           transform="translate(253.4678,512.7161)"><path
             d="M 0,0 C 0.389,0.569 1.659,2.621 1.659,5.126 V 21.07 c 0,1.134 -1.161,2.394 -2.155,3.127 l -1.948,1.438 1.948,1.439 c 0.994,0.735 2.155,1.995 2.155,3.128 v 15.924 c 0,2.51 -1.269,4.556 -1.658,5.122 l -1.921,2.8 h 24.639 l -1.9,-2.794 c -0.5,-0.734 -1.662,-2.705 -1.662,-5.128 V 30.202 c 0,-1.134 1.163,-2.393 2.158,-3.126 l 1.957,-1.441 -1.958,-1.44 C 20.319,23.464 19.157,22.206 19.157,21.07 v -6.649 h 6.836 c 2.282,0 4.65,1.552 5.321,2.027 L 34.465,18.68 32.589,-2.796 -1.914,-2.798 Z"
             style="fill:#ffffff;fill-opacity:1;fill-rule:nonzero;stroke:none"
             id="path152"
             inkscape:connector-curvature="0" /></g><g
           id="g154"
           transform="translate(279.4608,525.3489)"><path
             d="m 0,0 h -8.624 v 8.437 c 0,2.26 2.178,4.046 2.886,4.566 -0.708,0.522 -2.886,2.307 -2.886,4.567 v 15.923 c 0,2.965 1.421,5.325 1.972,6.134 h -17.865 c 0.555,-0.809 1.971,-3.169 1.971,-6.134 V 17.57 c 0,-2.26 -2.175,-4.045 -2.881,-4.567 0.706,-0.52 2.881,-2.306 2.881,-4.566 V -7.506 c 0,-2.964 -1.416,-5.324 -1.971,-6.136 L 4.957,-13.641 6.354,2.356 C 5.435,1.705 2.762,0 0,0"
             style="fill:#ffffff;fill-opacity:1;fill-rule:nonzero;stroke:none"
             id="path156"
             inkscape:connector-curvature="0" /></g><g
           id="g158"
           transform="translate(279.4608,525.3489)"><path
             d="m 0,0 h -8.624 v 8.437 c 0,2.26 2.178,4.046 2.886,4.566 -0.708,0.522 -2.886,2.307 -2.886,4.567 v 15.923 c 0,2.965 1.421,5.325 1.972,6.134 h -17.865 c 0.555,-0.809 1.971,-3.169 1.971,-6.134 V 17.57 c 0,-2.26 -2.175,-4.045 -2.881,-4.567 0.706,-0.52 2.881,-2.306 2.881,-4.566 V -7.506 c 0,-2.964 -1.416,-5.324 -1.971,-6.136 L 4.957,-13.641 6.354,2.356 C 5.435,1.705 2.762,0 0,0"
             style="fill:#002b5c;fill-opacity:1;fill-rule:nonzero;stroke:none"
             id="path160"
             inkscape:connector-curvature="0" /></g><g
           id="g162"
           transform="translate(268.1542,522.6665)"><path
             d="M 0,0 V 11.111 C 0,12.81 0.73,14.43 1.967,15.675 0.718,16.915 0,18.522 0,20.252 v 15.924 c 0,1.221 0.247,2.401 0.689,3.451 h -9.934 c 0.443,-1.05 0.689,-2.23 0.689,-3.451 V 20.252 c 0,-1.73 -0.719,-3.337 -1.965,-4.577 1.235,-1.245 1.965,-2.865 1.965,-4.564 V -4.824 c 0,-1.224 -0.243,-2.404 -0.685,-3.452 h 23.046 l 0.79,9.039 C 13.596,0.305 12.475,0 11.307,0 Z"
             style="fill:#ce152d;fill-opacity:1;fill-rule:nonzero;stroke:none"
             id="path164"
             inkscape:connector-curvature="0" /></g><g
           id="g166"
           transform="translate(258.9137,514.3903)"><path
             d="M 0,0 H 23.045 L 20.023,4.136 H 4.965 v 39.631 l -4.97,4.136 c 0.444,-1.05 0.689,-2.23 0.689,-3.451 V 28.528 c 0,-1.73 -0.718,-3.337 -1.965,-4.577 1.235,-1.244 1.965,-2.864 1.965,-4.564 V 3.453 C 0.684,2.228 0.441,1.048 0,0"
             style="fill:#910020;fill-opacity:1;fill-rule:nonzero;stroke:none"
             id="path168"
             inkscape:connector-curvature="0" /></g><g
           id="g170"
           transform="translate(146.9623,554.8115)"><path
             d="m 0,0 v 4.033 c 0,2.504 -1.268,4.556 -1.657,5.125 l -0.197,0.289 -0.2,-0.291 C -2.219,8.916 -2.788,8.039 -3.212,6.817 -3.287,6.559 -3.241,6.272 -3.222,6.175 Z m -2.976,-36.946 c 0,-2.505 1.27,-4.557 1.659,-5.126 l 0.576,-0.844 0.571,0.84 c 0.214,0.314 0.754,1.17 1.16,2.345 0.079,0.272 0.031,0.542 0.002,0.66 l -3.968,7.788 z m -21.012,-7.924 h -0.045 l 1.898,2.797 c 0.389,0.569 1.658,2.622 1.658,5.127 v 15.923 c 0,1.133 -1.161,2.393 -2.156,3.128 l -1.947,1.437 1.947,1.438 c 0.994,0.736 2.156,1.997 2.156,3.129 V 4.033 c 0,2.508 -1.269,4.556 -1.657,5.123 l -1.915,2.799 H 21.072 L 19.158,9.156 C 18.769,8.589 17.501,6.542 17.501,4.033 v -15.924 c 0,-1.131 1.162,-2.392 2.156,-3.129 l 1.94,-1.438 -1.94,-1.436 c -0.995,-0.736 -2.156,-1.997 -2.156,-3.129 v -15.923 c 0,-2.505 1.268,-4.558 1.657,-5.127 l 1.91,-2.797 H -2.069 l -21.935,-0.023 z"
             style="fill:#ffffff;fill-opacity:1;fill-rule:nonzero;stroke:none"
             id="path172"
             inkscape:connector-curvature="0" /></g><g
           id="g174"
           transform="translate(162.6756,533.7883)"><path
             d="M 0,0 C 0,2.26 2.176,4.046 2.88,4.567 2.176,5.087 0,6.873 0,9.132 v 15.925 c 0,2.963 1.415,5.324 1.968,6.133 h -17.862 c 0.552,-0.809 1.969,-3.17 1.969,-6.133 V 13.731 l -6.663,12.77 c 0,0 -0.342,0.854 -0.027,1.927 0.456,1.309 1.054,2.297 1.373,2.762 h -17.13 c 0.553,-0.809 1.97,-3.17 1.97,-6.133 V 9.132 c 0,-2.259 -2.177,-4.045 -2.882,-4.565 0.705,-0.521 2.882,-2.307 2.882,-4.567 v -15.923 c 0,-2.965 -1.417,-5.324 -1.97,-6.135 h 0.012 c -0.002,-0.006 -0.008,-0.015 -0.012,-0.02 l 17.866,0.02 c -0.555,0.811 -1.971,3.17 -1.971,6.135 v 13.111 l 7.416,-14.556 c 0,0 0.343,-0.854 0.028,-1.924 -0.454,-1.311 -1.052,-2.298 -1.371,-2.766 H 1.968 C 1.415,-21.247 0,-18.888 0,-15.923 Z"
             style="fill:#ffffff;fill-opacity:1;fill-rule:nonzero;stroke:none"
             id="path176"
             inkscape:connector-curvature="0" /></g><g
           id="g178"
           transform="translate(162.6753,533.7883)"><path
             d="M 0,0 C 0,2.26 2.177,4.046 2.88,4.567 2.177,5.087 0,6.873 0,9.132 v 15.925 c 0,2.963 1.415,5.324 1.969,6.133 h -17.862 c 0.552,-0.809 1.968,-3.17 1.968,-6.133 V 13.731 l -6.663,12.77 c 0,0 -0.342,0.854 -0.027,1.927 0.456,1.309 1.054,2.297 1.373,2.762 h -17.13 c 0.554,-0.809 1.97,-3.17 1.97,-6.133 V 9.132 c 0,-2.259 -2.177,-4.045 -2.882,-4.565 0.705,-0.521 2.882,-2.307 2.882,-4.567 v -15.923 c 0,-2.965 -1.416,-5.324 -1.97,-6.135 h 0.012 c -0.002,-0.006 -0.008,-0.015 -0.012,-0.02 l 17.866,0.02 c -0.554,0.811 -1.971,3.17 -1.971,6.135 v 13.111 l 7.416,-14.556 c 0,0 0.343,-0.854 0.028,-1.924 -0.453,-1.311 -1.052,-2.298 -1.371,-2.766 H 1.969 C 1.415,-21.247 0,-18.888 0,-15.923 Z"
             style="fill:#002b5c;fill-opacity:1;fill-rule:nonzero;stroke:none"
             id="path180"
             inkscape:connector-curvature="0" /></g><g
           id="g182"
           transform="translate(152.2376,514.4113)"><path
             d="M 0,0 H 8.438 C 8,1.047 7.758,2.22 7.758,3.435 L 7.756,19.37 c 0,1.698 0.726,3.319 1.962,4.562 -1.247,1.242 -1.962,2.848 -1.962,4.577 v 15.925 c 0,1.221 0.242,2.404 0.686,3.451 h -9.934 c 0.445,-1.047 0.686,-2.23 0.686,-3.451 V 22.172 c 0,-0.002 -11.905,22.956 -11.893,22.925 -0.394,0.951 -0.349,1.923 -0.071,2.788 h -9.199 c 0.443,-1.047 0.687,-2.23 0.687,-3.451 V 28.509 c 0,-1.729 -0.716,-3.335 -1.964,-4.577 1.237,-1.243 1.964,-2.864 1.964,-4.562 V 3.453 c 0,-1.222 -0.244,-2.401 -0.687,-3.453 h 0.009 c -0.002,-0.004 -0.003,-0.011 -0.006,-0.018 L -21.956,0 h 9.918 c -0.439,1.047 -0.682,2.22 -0.682,3.435 V 27.874 C -12.696,27.816 -0.063,2.761 -0.074,2.79 0.32,1.839 0.277,0.867 0,0"
             style="fill:#ce152d;fill-opacity:1;fill-rule:nonzero;stroke:none"
             id="path184"
             inkscape:connector-curvature="0" /></g><g
           id="g186"
           transform="translate(151.4317,536.5811)"><path
             d="m 0,0 4.281,-9.328 v 30.905 l -4.967,4.138 C -0.242,24.668 0,23.485 0,22.264 Z"
             style="fill:#910020;fill-opacity:1;fill-rule:nonzero;stroke:none"
             id="path188"
             inkscape:connector-curvature="0" /></g><g
           id="g190"
           transform="translate(155.7129,518.55)"><path
             d="m 0,0 c 0,0 -16.18,32.503 -16.197,32.541 l 0.002,-8.806 c 0.024,-0.058 12.657,-25.113 12.646,-25.084 0.394,-0.95 0.351,-1.922 0.073,-2.79 l 8.431,-0.007 z"
             style="fill:#910020;fill-opacity:1;fill-rule:nonzero;stroke:none"
             id="path192"
             inkscape:connector-curvature="0" /></g><g
           id="g194"
           transform="translate(130.2818,514.4113)"><path
             d="M 0,0 H 9.9 L 4.952,4.139 v 39.608 l -4.965,4.138 C 0.43,46.838 0.675,45.655 0.675,44.434 V 28.509 c 0,-1.729 -0.717,-3.335 -1.965,-4.577 1.236,-1.243 1.965,-2.864 1.965,-4.565 V 3.453 C 0.675,1.506 0,0 0,0"
             style="fill:#910020;fill-opacity:1;fill-rule:nonzero;stroke:none"
             id="path196"
             inkscape:connector-curvature="0" /></g><g
           id="g198"
           transform="translate(91.0831,536.459)"><path
             d="m 0,0 2.169,7.41 2.138,-7.416 z m 7.588,-26.503 24.956,-0.038 c -2.3,1.566 -4.333,4.311 -5.238,7.459 L 20.37,4.871 c -0.75,2.574 0.48,5.165 2.45,6.9 -2.792,0.861 -5.261,2.789 -6.027,5.466 L 12.894,30.64 c 5.556,1.857 9.186,5.144 9.198,8.961 0.006,4.998 -6.166,9.102 -14.766,10.282 L 4.072,61.096 0.416,61.098 -2.867,49.894 c -8.619,-1.154 -14.808,-5.233 -14.819,-10.232 0,-3.821 3.623,-7.117 9.181,-8.982 L -12.43,17.276 c -0.778,-2.662 -3.252,-4.601 -6.033,-5.445 1.945,-1.747 3.188,-4.326 2.418,-6.902 l -7.014,-23.94 c -0.929,-3.142 -2.959,-5.88 -5.252,-7.438 l 24.953,-0.041 c -2.033,1.569 -3.138,4.314 -2.217,7.457 l 0.599,2.08 14.208,-0.011 0.606,-2.094 c 0.909,-3.138 -0.216,-5.88 -2.25,-7.445"
             style="fill:#ffffff;fill-opacity:1;fill-rule:nonzero;stroke:none"
             id="path200"
             inkscape:connector-curvature="0" /></g><g
           id="g202"
           transform="translate(88.7957,534.7516)"><path
             d="M 0,0 4.462,15.216 8.87,-0.008 Z m 30.642,-23.13 c -1.192,1.558 -2.135,3.372 -2.689,5.268 L 21.065,5.941 c -1.1,3.77 0.937,6.464 1.206,6.884 -2.408,1.304 -4.166,3.299 -4.834,5.646 l -4.208,14.474 c 5.958,1.582 10.021,4.73 10.03,8.368 0,4.61 -6.516,8.464 -15.139,9.321 L 5.081,61.101 3.982,61.107 0.92,50.649 c -8.643,-0.843 -15.173,-4.679 -15.183,-9.283 -0.002,-3.641 4.054,-6.796 9.993,-8.397 L -8.503,18.516 c -0.681,-2.355 -2.44,-4.333 -4.85,-5.639 0.264,-0.42 2.296,-3.119 1.184,-6.888 l -6.961,-23.782 c -0.561,-1.898 -1.508,-3.704 -2.703,-5.256 l 17.277,-0.027 c -1.385,3.075 -0.644,5.322 -0.02,7.434 l 0.601,2.104 16.764,-0.019 0.627,-2.107 c 0.615,-2.122 1.334,-4.365 -0.062,-7.439 z"
             style="fill:#002e61;fill-opacity:1;fill-rule:nonzero;stroke:none"
             id="path204"
             inkscape:connector-curvature="0" /></g><g
           id="g206"
           transform="translate(85.2124,532.0713)"><path
             d="m 0,0 8.066,27.478 7.958,-27.497 z m 29.631,-17.754 c -0.367,0.809 -0.7,1.62 -0.933,2.464 L 22.094,7.399 c -1.027,3.549 -0.458,5.084 0.299,7.221 -1.995,1.526 -3.307,3.519 -3.956,5.753 L 8.11,56.066 -2.353,20.403 c -0.649,-2.238 -1.962,-4.227 -3.962,-5.746 0.747,-2.138 1.321,-3.674 0.271,-7.214 l -6.671,-22.672 c -0.24,-0.838 -0.552,-1.664 -0.945,-2.458 l 9.441,-0.015 c -0.212,1.422 0,3.314 0.406,4.651 l 1.42,4.879 20.794,-0.026 1.422,-4.886 c 0.372,-1.341 0.599,-3.228 0.372,-4.653 z"
             style="fill:#ce152d;fill-opacity:1;fill-rule:nonzero;stroke:none"
             id="path208"
             inkscape:connector-curvature="0" /></g><g
           id="g210"
           transform="translate(93.2963,573.6163)"><path
             d="m 0,0 0.027,14.521 -10.464,-35.664 c -0.649,-2.237 -1.962,-4.227 -3.961,-5.745 0.746,-2.138 1.32,-3.674 0.269,-7.214 l -6.67,-22.672 c -0.24,-0.838 -0.552,-1.664 -0.944,-2.458 l 9.44,-0.015 -4.238,2.884 z"
             style="fill:#910020;fill-opacity:1;fill-rule:nonzero;stroke:none"
             id="path212"
             inkscape:connector-curvature="0" /></g><g
           id="g214"
           transform="translate(93.2788,559.5492)"><path
             d="m 0,0 7.958,-27.497 5.308,-4.09 -13.248,45.654 z"
             style="fill:#910020;fill-opacity:1;fill-rule:nonzero;stroke:none"
             id="path216"
             inkscape:connector-curvature="0" /></g><g
           id="g218"
           transform="translate(114.8433,514.3174)"><path
             d="m 0,0 -5.261,3.16 -3.038,10.485 -26.638,0.032 2.913,-4.095 20.794,-0.026 1.421,-4.887 c 0.374,-1.341 0.6,-3.227 0.374,-4.652 z"
             style="fill:#910020;fill-opacity:1;fill-rule:nonzero;stroke:none"
             id="path220"
             inkscape:connector-curvature="0" /></g><g
           id="g222"
           transform="translate(96.1058,578.4841)"><path
             d="M 0,0 -0.435,1.535 C -1.219,1.567 -1.986,1.608 -2.796,1.604 -3.612,1.608 -4.401,1.567 -5.172,1.537 L -5.618,0.008 c 0.906,0.051 1.834,0.078 2.813,0.078 C -1.844,0.086 -0.904,0.047 0,0"
             style="fill:#910020;fill-opacity:1;fill-rule:nonzero;stroke:none"
             id="path224"
             inkscape:connector-curvature="0" /></g><g
           id="g226"
           transform="translate(87.9338,569.746)"><path
             d="m 0,0 0.765,2.626 c -4.82,0.587 -8.259,2.049 -8.253,3.739 0.003,2.201 5.751,3.985 12.864,3.977 7.083,-0.017 12.844,-1.811 12.836,-4.016 0,-1.696 -3.44,-3.143 -8.263,-3.713 l 0.752,-2.632 c 6.229,0.921 10.684,3.404 10.694,6.342 0,3.717 -7.177,6.745 -16.019,6.761 C -3.493,13.101 -10.66,10.085 -10.668,6.371 -10.672,3.431 -6.227,0.936 0,0"
             style="fill:#c5ced4;fill-opacity:1;fill-rule:nonzero;stroke:none"
             id="path228"
             inkscape:connector-curvature="0" /></g></g></g></g></svg>