<?xml version="1.0" encoding="utf-8"?>
<!-- Generator: Adobe Illustrator 12.0.1, SVG Export Plug-In . SVG Version: 6.00 Build 51448)  -->
<!DOCTYPE svg PUBLIC "-//W3C//DTD SVG 1.1//EN" "http://www.w3.org/Graphics/SVG/1.1/DTD/svg11.dtd" [
	<!ENTITY ns_svg "http://www.w3.org/2000/svg">
	<!ENTITY ns_xlink "http://www.w3.org/1999/xlink">
]>
<svg  version="1.1" id="Layer_1" xmlns="&ns_svg;" xmlns:xlink="&ns_xlink;" width="1456.299" height="1467.625"
	 viewBox="0 0 1456.299 1467.625" overflow="visible" enable-background="new 0 0 1456.299 1467.625" xml:space="preserve">
<g>
	<g>
		<g>
			<path fill="#FFFFFF" d="M1444.815,736.875c5.016-5.016,5.016-13.156,0-18.078L736.877,11.484c-5.016-5.047-13.125-5.047-18.141,0
				L11.456,719.391c-5,5-5,13.125,0.016,18.156l707.953,707.234c5.031,5.062,13.141,5.062,18.156,0L1444.815,736.875z"/>
			<path fill="#B3B5B7" d="M713.284,6L5.987,713.969c-7.984,8-7.984,21,0.016,29.031l707.953,707.25
				c0.016,0,14.547,6.016,14.547,6.016l14.547-6.016l707.25-707.891l6-14.719l-6.094-14.375L742.331,6c-0.016,0-14.516-6-14.516-6
				L713.284,6z M724.877,1439.359L16.924,732.094c-2.016-2.047-2.016-5.203,0-7.234L724.206,16.906l3.609-1.531l3.609,1.531
				l707.938,707.344c0.062,0.031,1.531,3.516,1.531,3.516l-1.531,3.688l0,0l-707.266,707.906c-0.016,0-3.609,1.516-3.609,1.516
				L724.877,1439.359z M1450.299,742.359l1.078-1.094C1451.377,741.266,1450.331,742.328,1450.299,742.359z"/>
			<path fill="#FFFFFF" d="M509.877,764.594"/>
		</g>
		<g>
			<path d="M727.846,638.641"/>
			<path d="M1346.674,787.469c-32.953-32.906-32.953-86.344-0.094-119.203L787.456,109.625c-32.875,32.969-86.266,32.969-119.203,0
				L109.643,668.844c32.922,32.906,32.938,86.281,0.062,119.156l545.406,544.953c45.828-45.938,100.797-45.938,146.641-0.062
				L1346.674,787.469z"/>
			<g>
				<polygon points="727.862,118.828 692.971,83.969 727.846,49.078 762.721,83.906 				"/>
				<path d="M727.846,673.562"/>
			</g>
			<g>
				<polygon points="115.596,725.219 80.737,760.078 45.846,725.219 80.706,690.328 				"/>
				<path d="M80.721,725.219"/>
			</g>
			<polygon points="764.112,1371.5 729.284,1406.391 694.377,1371.5 694.362,1331.016 763.987,1330.984 			"/>
			<path d="M729.237,1371.5"/>
			<g>
				<polygon points="1337.206,728.578 1372.081,693.719 1406.94,728.531 1372.096,763.453 				"/>
				<path d="M1372.081,728.531"/>
			</g>
			<path fill="#FFFFFF" d="M592.19,311.219c56.562-38.812,151.891-74.438,219.75-80.953
				c48.578,126.078,108.875,323.703,187.719,413.703c45.25,51.656,51.766,138.984-54.875,174.609
				C863.299,845.766,791.174,922.641,737.956,983.5c-45.234,51.766-103.5,72.656-158.328,77.625
				c-35.562,3.266-71.125,3.312-122.828-6.344c-6.516-51.781-11.422-137.641,58.078-197.234
				c45.219-38.844,109.312-91.172,142.172-119.672c48.469-42.047,58.141-100.234,35.453-164.859
				C670.862,511.203,614.846,372.625,592.19,311.219z"/>
		</g>
	</g>
	<g>
		<path fill="#FFFFFF" d="M895.127,1428.719h-14.297v38.906h-9.703v-38.906h-14.297v-8.438h38.297V1428.719z M959.956,1467.625
			h-9.703v-37.672h-0.203l-13.734,37.672h-9.344l-13.281-37.672h-0.234v37.672h-9.688v-47.344h16.781l11.016,31h0.266l11.453-31
			h16.672V1467.625z"/>
	</g>
</g>
</svg>
