<svg xmlns="http://www.w3.org/2000/svg" width="1024" height="1024" viewBox="0 0 1024 1024" version="1.1"><path d="M 0 235.200 C 0 380.145, 0.357 470.035, 0.930 469.450 C 1.441 468.928, 2.084 464.675, 2.358 460 C 2.632 455.325, 3.357 447.225, 3.969 442 C 4.581 436.775, 5.113 431.375, 5.151 430 C 5.189 428.625, 5.572 427.050, 6.003 426.500 C 6.433 425.950, 7.032 423.475, 7.334 421 C 7.636 418.525, 8.378 414.025, 8.983 411 C 9.588 407.975, 10.317 403.925, 10.604 402 C 10.890 400.075, 11.498 397.600, 11.955 396.500 C 13.118 393.701, 16 380.638, 16 378.166 C 16 377.040, 16.450 375.840, 17 375.500 C 17.550 375.160, 18 373.810, 18 372.500 C 18 371.190, 18.450 369.840, 19 369.500 C 19.550 369.160, 20 367.585, 20 366 C 20 364.415, 20.450 362.840, 21 362.500 C 21.550 362.160, 22 361.002, 22 359.927 C 22 358.852, 22.394 357.191, 22.876 356.236 C 23.357 355.281, 24.527 351.800, 25.475 348.500 C 26.423 345.200, 27.604 341.719, 28.100 340.764 C 28.595 339.809, 29 338.340, 29 337.500 C 29 336.660, 29.399 335.191, 29.886 334.236 C 30.806 332.434, 33.528 325.771, 36.519 318 C 37.472 315.525, 39.999 309.900, 42.134 305.500 C 44.269 301.100, 46.013 297.081, 46.008 296.569 C 45.995 295.128, 60.078 266.721, 61.774 264.768 C 63.225 263.097, 65.223 259.604, 70.262 249.936 C 71.570 247.426, 75.102 241.801, 78.110 237.436 C 81.119 233.071, 84.363 227.829, 85.320 225.786 C 86.277 223.743, 87.834 221.493, 88.780 220.786 C 89.726 220.079, 91.139 218.262, 91.919 216.750 C 92.699 215.237, 93.712 214, 94.169 214 C 94.626 214, 95 213.573, 95 213.050 C 95 211.615, 100.471 203.825, 103.409 201.076 C 104.834 199.742, 106 198.229, 106 197.713 C 106 196.614, 109.604 192.002, 116.250 184.599 C 118.862 181.688, 121.006 178.900, 121.014 178.403 C 121.022 177.907, 123.497 175.047, 126.514 172.049 C 129.531 169.050, 132 166.297, 132 165.930 C 132 164.980, 166.940 130, 167.889 130 C 168.321 130, 171.629 127.075, 175.239 123.500 C 178.850 119.925, 182.135 117, 182.540 117 C 182.945 117, 185.352 115.210, 187.888 113.022 C 199.294 103.183, 200.775 102, 201.685 102 C 202.216 102, 203.708 100.875, 205 99.500 C 206.292 98.125, 207.716 97, 208.166 97 C 209.239 97, 218.403 90.029, 218.833 88.886 C 219.017 88.399, 219.734 88, 220.428 88 C 221.122 88, 222.505 87.100, 223.500 86 C 224.495 84.900, 225.655 84, 226.077 84 C 226.498 84, 229.863 81.975, 233.554 79.500 C 237.245 77.025, 240.650 75, 241.121 75 C 241.592 75, 242.894 74.213, 244.016 73.250 C 246.430 71.177, 252.118 67.693, 257 65.297 C 258.925 64.352, 261.199 63.009, 262.054 62.312 C 264.309 60.473, 301.275 42.016, 302.720 42.007 C 303.390 42.003, 305.415 41.176, 307.220 40.169 C 309.024 39.161, 312.750 37.512, 315.500 36.503 C 318.250 35.495, 320.927 34.294, 321.450 33.835 C 321.972 33.376, 323.167 33, 324.105 33 C 325.044 33, 327.766 32.036, 330.155 30.858 C 335.736 28.106, 337.152 27.590, 345 25.441 C 348.575 24.463, 351.928 23.288, 352.450 22.831 C 352.973 22.374, 354.216 22, 355.214 22 C 356.211 22, 357.809 21.603, 358.764 21.117 C 361.880 19.531, 365.419 18.249, 370 17.046 C 372.475 16.396, 376.075 15.362, 378 14.748 C 379.925 14.133, 383.525 13.291, 386 12.877 C 392.833 11.733, 396.297 10.935, 398.500 10 C 400.863 8.997, 404.488 8.178, 412 6.951 C 415.025 6.457, 421.775 5.326, 427 4.438 C 432.225 3.549, 439.425 2.601, 443 2.330 C 468.486 0.401, 431.115 0, 225.700 0 L 0 0 0 235.200 M 573.550 0.919 C 574.072 1.425, 577.425 2.069, 581 2.350 C 593.967 3.372, 620.724 7.972, 625.500 10 C 627.703 10.935, 631.167 11.733, 638 12.877 C 640.475 13.291, 644.075 14.133, 646 14.748 C 647.925 15.362, 651.525 16.396, 654 17.046 C 658.581 18.249, 662.120 19.531, 665.236 21.117 C 666.191 21.603, 667.789 22, 668.786 22 C 669.784 22, 671.027 22.374, 671.550 22.831 C 672.072 23.288, 675.425 24.463, 679 25.441 C 686.848 27.590, 688.264 28.106, 693.845 30.858 C 696.234 32.036, 698.956 33, 699.895 33 C 700.833 33, 702.027 33.376, 702.550 33.835 C 703.072 34.294, 705.750 35.495, 708.500 36.503 C 711.250 37.512, 714.976 39.161, 716.780 40.169 C 718.585 41.176, 720.610 42.003, 721.280 42.007 C 722.725 42.016, 759.691 60.473, 761.946 62.312 C 762.801 63.009, 765.075 64.352, 767 65.297 C 771.882 67.693, 777.570 71.177, 779.984 73.250 C 781.106 74.213, 782.408 75, 782.879 75 C 783.350 75, 786.755 77.025, 790.446 79.500 C 794.137 81.975, 797.502 84, 797.923 84 C 798.345 84, 799.505 84.900, 800.500 86 C 801.495 87.100, 802.878 88, 803.572 88 C 804.266 88, 804.983 88.399, 805.167 88.886 C 805.597 90.029, 814.761 97, 815.834 97 C 816.284 97, 817.708 98.125, 819 99.500 C 820.292 100.875, 821.784 102, 822.315 102 C 823.225 102, 824.706 103.183, 836.112 113.022 C 838.648 115.210, 841.123 117.014, 841.612 117.031 C 842.100 117.048, 845.397 119.973, 848.939 123.531 C 852.480 127.089, 855.729 130, 856.158 130 C 857.136 130, 892 164.930, 892 165.909 C 892 166.303, 894.923 169.522, 898.495 173.063 C 902.068 176.603, 904.993 179.900, 904.995 180.388 C 904.998 180.877, 906.790 183.352, 908.978 185.888 C 918.817 197.294, 920 198.775, 920 199.685 C 920 200.216, 921.125 201.708, 922.500 203 C 923.875 204.292, 925 205.747, 925 206.233 C 925 207.343, 931.067 215.223, 932.750 216.300 C 933.438 216.740, 934 217.682, 934 218.395 C 934 219.107, 934.900 220.505, 936 221.500 C 937.100 222.495, 938 223.767, 938 224.326 C 938 224.885, 938.748 226.169, 939.661 227.178 C 941.495 229.204, 943.047 231.721, 945.724 237.008 C 946.701 238.937, 948.626 242.087, 950.003 244.008 C 953.482 248.864, 954.503 250.612, 958.003 257.711 C 959.687 261.127, 961.496 264.188, 962.022 264.514 C 963.087 265.172, 978.005 295.125, 977.992 296.580 C 977.987 297.086, 979.731 301.100, 981.866 305.500 C 984.001 309.900, 986.528 315.525, 987.481 318 C 990.472 325.771, 993.194 332.434, 994.114 334.236 C 994.601 335.191, 995 336.660, 995 337.500 C 995 338.340, 995.405 339.809, 995.900 340.764 C 996.396 341.719, 997.577 345.200, 998.525 348.500 C 999.473 351.800, 1000.643 355.281, 1001.124 356.236 C 1001.606 357.191, 1002 358.852, 1002 359.927 C 1002 361.002, 1002.450 362.160, 1003 362.500 C 1003.550 362.840, 1004 364.415, 1004 366 C 1004 367.585, 1004.450 369.160, 1005 369.500 C 1005.550 369.840, 1006 371.190, 1006 372.500 C 1006 373.810, 1006.450 375.160, 1007 375.500 C 1007.550 375.840, 1008 377.040, 1008 378.166 C 1008 380.972, 1010.972 394.100, 1012.091 396.236 C 1012.591 397.191, 1013 399.239, 1013 400.786 C 1013 402.334, 1013.409 404.027, 1013.908 404.550 C 1014.407 405.072, 1015.050 407.750, 1015.336 410.500 C 1015.975 416.634, 1016.943 422.004, 1017.770 424 C 1018.647 426.117, 1021.024 447.689, 1021.627 459 C 1021.905 464.225, 1022.553 468.927, 1023.066 469.450 C 1023.645 470.038, 1024 380.874, 1024 235.200 L 1024 0 798.300 0 C 661.057 0, 572.972 0.360, 573.550 0.919 M 474.609 31.728 C 474.187 32.152, 469.714 32.819, 464.670 33.208 C 449.448 34.383, 439.505 35.570, 438.218 36.365 C 437.272 36.950, 437 62.572, 437 151.059 L 437 265 514.054 265 L 591.109 265 590.804 151.550 C 590.559 60.140, 590.248 37.847, 589.201 36.800 C 588.486 36.085, 584.436 35.148, 580.201 34.717 C 575.965 34.287, 568.225 33.460, 563 32.879 C 551.623 31.613, 475.707 30.625, 474.609 31.728 M 421.500 39.079 C 420.400 39.508, 417.839 39.891, 415.809 39.930 C 413.779 39.968, 411.840 40.450, 411.500 41 C 411.160 41.550, 409.585 42, 408 42 C 406.415 42, 404.840 42.450, 404.500 43 C 404.160 43.550, 402.360 44, 400.500 44 C 398.640 44, 396.871 44.400, 396.568 44.890 C 396.266 45.379, 394.552 46.001, 392.759 46.272 C 385.430 47.379, 362.446 53.978, 358.764 56.032 C 357.809 56.564, 356.148 57, 355.073 57 C 353.998 57, 352.861 57.415, 352.548 57.923 C 352.234 58.431, 350.550 59.160, 348.806 59.543 C 347.062 59.926, 344.129 61.085, 342.287 62.120 C 340.446 63.154, 338.292 64, 337.500 64 C 336.708 64, 334.458 64.900, 332.500 66 C 330.542 67.100, 328.501 68, 327.965 68 C 327.429 68, 324.658 69.125, 321.808 70.500 C 318.958 71.875, 315.992 73, 315.217 73 C 314.443 73, 312.614 73.820, 311.154 74.822 C 309.694 75.825, 306.925 77.361, 305 78.236 C 295.474 82.567, 290.142 85.228, 286.500 87.468 C 284.300 88.822, 279.917 91.182, 276.760 92.714 L 271.021 95.500 271.010 509.041 L 271 922.582 276.514 925.541 C 293.607 934.714, 297.449 936.724, 307.246 941.625 C 313.156 944.581, 318.417 947, 318.936 947 C 319.456 947, 322.436 948.326, 325.560 949.947 C 328.684 951.568, 332.531 953.177, 334.109 953.524 C 335.686 953.870, 337.234 954.569, 337.548 955.077 C 337.861 955.585, 338.978 956, 340.029 956 C 341.079 956, 343.542 956.900, 345.500 958 C 347.458 959.100, 349.728 960, 350.544 960 C 351.360 960, 352.809 960.397, 353.764 960.883 C 358.449 963.267, 365.444 965.443, 372.500 966.712 C 374.150 967.008, 375.950 967.564, 376.500 967.946 C 377.050 968.327, 379.300 969.136, 381.500 969.742 C 383.700 970.348, 387.975 971.607, 391 972.539 C 396.499 974.234, 407.962 976.630, 415.500 977.659 C 417.700 977.959, 419.928 978.609, 420.450 979.102 C 420.973 979.596, 422.885 980, 424.700 980 L 428 980 427.948 859.250 L 427.897 738.500 402.448 712.530 L 377 686.561 377 653.733 L 377 620.905 379.646 618.452 C 381.101 617.104, 383.464 615.961, 384.896 615.914 C 386.328 615.866, 396.500 615.754, 407.500 615.664 L 427.500 615.500 427.760 570.613 L 428.021 525.726 407.044 526.451 C 383.508 527.266, 379.943 526.725, 377.483 521.966 C 375.227 517.604, 375.245 274.360, 377.502 269.997 C 379.719 265.709, 383.877 265.012, 407.254 265.006 L 428.009 265 427.754 151.750 C 427.502 39.290, 427.486 38.499, 425.500 38.399 C 424.400 38.343, 422.600 38.649, 421.500 39.079 M 600.725 38.609 C 600.326 39.007, 600 90.082, 600 152.109 L 600 264.884 627.929 265.192 C 654.345 265.483, 656.008 265.612, 658.625 267.568 C 660.147 268.705, 661.751 270.955, 662.189 272.568 C 662.628 274.180, 662.690 292.358, 662.328 312.961 C 661.672 350.250, 661.658 350.433, 659.380 352.711 C 657.102 354.989, 656.958 355, 628.545 355 L 600 355 600.008 405.750 L 600.016 456.500 613.258 468.948 C 643.092 496.993, 659.906 513.314, 660.465 514.769 C 661.644 517.843, 661.045 684.045, 659.846 686.337 C 659.223 687.526, 650.285 697.050, 639.982 707.500 C 629.679 717.950, 616.484 731.450, 610.659 737.500 L 600.069 748.500 600.035 864.250 L 600 980 603.300 980 C 605.115 980, 607.027 979.596, 607.550 979.102 C 608.072 978.609, 610.300 977.966, 612.500 977.675 C 614.700 977.383, 619.875 976.437, 624 975.574 C 628.125 974.710, 632.973 973.717, 634.774 973.367 C 636.575 973.017, 638.289 972.341, 638.583 971.865 C 638.877 971.389, 640.415 971, 642 971 C 643.585 971, 645.160 970.550, 645.500 970 C 645.840 969.450, 647.195 969, 648.512 969 C 649.829 969, 652.165 968.494, 653.703 967.875 C 658.984 965.752, 660.513 965.229, 666.500 963.492 C 669.800 962.534, 673.281 961.357, 674.236 960.876 C 675.191 960.394, 676.611 960, 677.392 960 C 678.172 960, 680.541 959.159, 682.655 958.130 C 689.475 954.814, 694.033 953, 695.547 953 C 696.908 953, 700.818 951.182, 702 950 C 703.145 948.855, 707.071 947, 708.349 947 C 710.006 947, 744.831 929.718, 750.516 926.074 C 752.726 924.658, 755.426 923.001, 756.516 922.391 C 758.490 921.288, 758.500 919.100, 758.500 509.019 L 758.500 96.757 751.500 92.976 C 739.976 86.752, 712.695 73, 711.872 73 C 711.451 73, 707.820 71.473, 703.803 69.607 C 691.015 63.665, 687.055 62, 685.711 62 C 684.990 62, 683.973 61.613, 683.450 61.140 C 682.928 60.667, 680.025 59.487, 677 58.519 C 673.975 57.551, 670.719 56.363, 669.764 55.879 C 668.809 55.396, 667.148 55, 666.073 55 C 664.998 55, 663.840 54.550, 663.500 54 C 663.160 53.450, 661.784 53, 660.441 53 C 659.098 53, 658 52.550, 658 52 C 658 51.450, 656.823 51, 655.384 51 C 653.946 51, 650.683 50.347, 648.134 49.550 C 645.585 48.752, 641.475 47.597, 639 46.982 C 636.525 46.367, 633.118 45.445, 631.429 44.932 C 629.740 44.420, 627.404 44, 626.238 44 C 625.072 44, 623.871 43.600, 623.568 43.110 C 623.266 42.621, 621.552 41.968, 619.759 41.659 C 611.119 40.170, 605.316 39.041, 603.475 38.490 C 602.361 38.157, 601.123 38.210, 600.725 38.609 M 258.465 103.952 C 257.346 104.405, 255.829 105.502, 255.093 106.388 C 254.357 107.275, 253.283 108, 252.706 108 C 252.129 108, 250.831 108.748, 249.822 109.661 C 247.891 111.409, 244.871 113.284, 241.459 114.853 C 240.336 115.369, 238.819 116.514, 238.086 117.396 C 237.354 118.278, 236.336 119, 235.823 119 C 235.311 119, 233.453 120.348, 231.696 121.995 C 229.938 123.643, 228.195 124.993, 227.821 124.995 C 227.448 124.998, 226.548 125.571, 225.821 126.269 C 225.095 126.966, 221.575 129.715, 218 132.376 C 209.467 138.729, 204.716 142.785, 194.132 152.750 C 189.313 157.287, 184.921 161, 184.372 161 C 182.897 161, 148 198.034, 148 199.600 C 148 200.141, 145.975 202.571, 143.500 205 C 141.025 207.429, 139 209.779, 139 210.222 C 139 210.939, 130.630 221.739, 129.096 223 C 127.753 224.105, 123 230.924, 123 231.746 C 123 232.230, 121.650 233.919, 120 235.500 C 118.350 237.081, 117 238.745, 117 239.197 C 117 239.650, 115.537 242.153, 113.750 244.760 C 111.963 247.367, 109.488 251.361, 108.250 253.636 L 106 257.772 106 509.217 L 106 760.661 108.273 765.081 C 111.289 770.945, 113.651 774.586, 117.918 779.947 C 122.445 785.636, 126 790.874, 126 791.857 C 126 792.280, 127.350 793.919, 129 795.500 C 130.650 797.081, 132 798.802, 132 799.325 C 132 799.848, 133.687 802.171, 135.750 804.487 C 137.813 806.802, 141.750 811.563, 144.500 815.066 C 147.250 818.569, 152.023 823.924, 155.107 826.967 C 158.191 830.010, 160.891 833.061, 161.107 833.747 C 161.628 835.399, 189.169 863, 190.297 863 C 190.780 863, 193.669 865.475, 196.718 868.500 C 199.768 871.525, 202.560 874, 202.923 874 C 203.286 874, 205.571 876.025, 208 878.500 C 210.429 880.975, 212.909 883, 213.512 883 C 214.115 883, 216.134 884.575, 218 886.500 C 219.866 888.425, 221.895 890, 222.509 890 C 223.123 890, 224.919 891.350, 226.500 893 C 228.081 894.650, 229.895 896, 230.532 896 C 231.169 896, 232.505 896.900, 233.500 898 C 234.495 899.100, 235.837 900, 236.481 900 C 237.125 900, 238.708 901.125, 240 902.500 C 241.292 903.875, 242.780 905, 243.307 905 C 243.834 905, 245 905.788, 245.897 906.750 C 247.765 908.754, 249.595 909.921, 256.250 913.354 L 261 915.804 261 509.402 C 261 285.881, 260.887 103.029, 260.750 103.063 C 260.613 103.098, 259.584 103.498, 258.465 103.952 M 768.667 104.667 C 768.300 105.033, 768 287.283, 768 509.667 C 768 885.298, 768.118 914, 769.656 914 C 770.566 914, 772.786 912.875, 774.589 911.500 C 776.392 910.125, 778.277 909, 778.778 909 C 779.280 909, 780.505 908.100, 781.500 907 C 782.495 905.900, 783.860 905, 784.533 905 C 785.205 905, 786.325 904.313, 787.022 903.473 C 788.560 901.621, 796.769 896, 797.938 896 C 798.398 896, 799.838 894.654, 801.137 893.009 C 802.437 891.364, 803.950 890.007, 804.500 889.994 C 805.050 889.981, 808.817 887.164, 812.871 883.735 C 816.925 880.306, 821.149 876.978, 822.257 876.340 C 823.365 875.702, 827.484 871.990, 831.409 868.090 C 835.335 864.191, 839.005 861, 839.565 861 C 841.399 861, 877.485 823.132, 881 817.519 C 881.825 816.202, 883.984 813.409, 885.798 811.312 C 894.490 801.265, 901 793.119, 901 792.290 C 901 791.786, 902.350 790.081, 904 788.500 C 905.650 786.919, 907 785.255, 907 784.803 C 907 784.350, 908.575 781.739, 910.500 779 C 912.425 776.261, 914 773.636, 914 773.165 C 914 772.695, 914.900 771.495, 916 770.500 C 917.100 769.505, 918 768.280, 918 767.778 C 918 767.277, 919.125 765.392, 920.500 763.589 L 923 760.311 923 509.295 L 923 258.279 920.500 254.595 C 919.125 252.569, 918 250.551, 918 250.111 C 918 249.670, 917.100 248.495, 916 247.500 C 914.900 246.505, 914 245.085, 914 244.345 C 914 243.605, 913.605 243, 913.121 243 C 912.638 243, 911.697 241.682, 911.029 240.071 C 910.362 238.460, 908.733 236.328, 907.408 235.334 C 906.084 234.339, 905 233.027, 905 232.418 C 905 231.808, 904.100 230.495, 903 229.500 C 901.900 228.505, 901 227.163, 901 226.519 C 901 225.875, 899.875 224.292, 898.500 223 C 897.125 221.708, 896 220.216, 896 219.685 C 896 218.684, 891.606 213.303, 884.250 205.297 C 881.913 202.752, 880 200.281, 880 199.806 C 880 199.331, 877.174 196.142, 873.721 192.721 C 870.267 189.299, 866.492 185.150, 865.330 183.500 C 862.651 179.693, 844.924 161.909, 839.041 157.125 C 836.589 155.131, 832.381 151.363, 829.690 148.750 C 826.999 146.137, 824.184 144, 823.434 144 C 822.684 144, 821.591 143.104, 821.005 142.009 C 820.007 140.145, 811.149 132.882, 806.816 130.376 C 805.747 129.758, 803.639 128.070, 802.132 126.626 C 800.624 125.182, 798.931 124, 798.370 124 C 797.808 124, 796.292 122.875, 795 121.500 C 793.708 120.125, 792.154 119, 791.546 119 C 790.939 119, 789.780 118.062, 788.971 116.915 C 788.162 115.769, 786.150 114.131, 784.500 113.276 C 782.850 112.421, 781.275 111.423, 781 111.058 C 780.725 110.694, 778.874 109.640, 776.888 108.716 C 774.901 107.793, 772.708 106.354, 772.015 105.518 C 770.646 103.869, 769.704 103.629, 768.667 104.667 M 94.393 276.163 C 92.030 279.955, 75.013 314.673, 75.007 315.715 C 75.003 316.383, 73.875 318.944, 72.500 321.407 C 71.125 323.870, 70 326.366, 70 326.953 C 70 327.541, 69.167 329.929, 68.148 332.261 C 63.520 342.853, 61.907 347.064, 59.440 355 C 57.987 359.675, 56.393 364.281, 55.899 365.236 C 55.404 366.191, 55 368.110, 55 369.500 C 55 370.890, 54.550 372.921, 54 374.014 C 53.450 375.106, 52.550 376.894, 52 377.986 C 51.450 379.079, 51 381.134, 51 382.552 C 51 383.971, 50.565 385.944, 50.034 386.936 C 49.503 387.929, 48.626 391.162, 48.085 394.120 C 46.497 402.807, 45.901 405.381, 44.987 407.500 C 44.177 409.377, 43.741 411.699, 42.359 421.500 C 42.049 423.700, 41.391 425.928, 40.898 426.450 C 40.404 426.973, 40 429.088, 40 431.151 C 40 433.214, 39.548 437.061, 38.995 439.701 C 36.726 450.539, 35.742 471.622, 35.761 509 C 35.772 530.725, 36.225 553, 36.767 558.500 C 39.016 581.308, 40.203 590.595, 41.076 592.236 C 41.584 593.191, 42 595.464, 42 597.286 C 42 599.109, 42.404 601.027, 42.898 601.550 C 43.391 602.072, 44.030 604.300, 44.316 606.500 C 44.603 608.700, 45.349 612.525, 45.974 615 C 46.600 617.475, 47.548 622.200, 48.082 625.500 C 48.615 628.800, 49.490 632.281, 50.026 633.236 C 50.562 634.191, 51 635.852, 51 636.927 C 51 638.002, 51.450 639.160, 52 639.500 C 52.550 639.840, 53 641.640, 53 643.500 C 53 645.360, 53.450 647.160, 54 647.500 C 54.550 647.840, 55 648.998, 55 650.073 C 55 651.148, 55.397 652.809, 55.883 653.764 C 57.454 656.851, 58.730 660.328, 61.590 669.313 C 63.133 674.160, 64.756 678.349, 65.198 678.622 C 65.639 678.895, 66.014 680.104, 66.032 681.309 C 66.049 682.514, 66.724 684.374, 67.532 685.441 C 68.339 686.509, 69 688.010, 69 688.777 C 69 689.544, 70.313 692.945, 71.919 696.336 C 73.524 699.726, 75.824 704.750, 77.030 707.500 C 80.175 714.670, 86.403 727.412, 87.050 728 C 87.352 728.275, 88.822 731.200, 90.315 734.500 C 93.947 742.524, 94.411 743.292, 95.536 743.135 C 96.788 742.960, 97.365 276.965, 96.115 275.715 C 95.596 275.196, 94.879 275.382, 94.393 276.163 M 933.015 509 L 933.024 742.500 935.292 738.500 C 936.539 736.300, 938.740 732.025, 940.183 729 C 945.633 717.576, 946.716 715.406, 948.668 712 C 949.771 710.075, 951.902 705.422, 953.405 701.659 C 954.907 697.897, 957.006 693.270, 958.068 691.379 C 959.131 689.487, 960 687.272, 960 686.456 C 960 685.640, 960.426 684.191, 960.946 683.236 C 962.696 680.026, 967 668.174, 967 666.566 C 967 665.690, 967.450 664.079, 968 662.986 C 968.550 661.894, 969.450 660.106, 970 659.014 C 970.550 657.921, 971 656.340, 971 655.500 C 971 654.660, 971.406 653.191, 971.903 652.236 C 972.399 651.281, 973.272 648.700, 973.843 646.500 C 974.413 644.300, 975.582 640.165, 976.440 637.312 C 977.298 634.459, 978 631.223, 978 630.121 C 978 629.019, 978.450 627.840, 979 627.500 C 979.550 627.160, 980 625.424, 980 623.641 C 980 621.858, 980.404 619.973, 980.898 619.450 C 981.391 618.928, 982.035 616.700, 982.327 614.500 C 982.620 612.300, 983.384 608.025, 984.026 605 C 984.667 601.975, 985.365 598.375, 985.577 597 C 985.788 595.625, 986.442 591.575, 987.029 588 C 989.192 574.819, 990.118 568.279, 991.136 559 C 992.574 545.887, 993.340 471.069, 992.062 468.500 C 991.515 467.400, 990.836 463.125, 990.554 459 C 989.459 443.046, 988.805 437.465, 987.919 436.550 C 987.414 436.027, 986.980 433.777, 986.956 431.550 C 986.932 429.322, 986.475 425.475, 985.940 423 C 984.462 416.166, 982.946 407.955, 982.340 403.500 C 982.040 401.300, 981.391 399.072, 980.898 398.550 C 980.404 398.027, 980 396.367, 980 394.859 C 980 393.351, 979.550 391.840, 979 391.500 C 978.450 391.160, 978 389.731, 978 388.325 C 978 386.919, 977.277 383.458, 976.393 380.634 C 973.619 371.771, 973 369.408, 973 367.679 C 973 366.756, 972.550 366, 972 366 C 971.450 366, 971 364.902, 971 363.559 C 971 362.216, 970.550 360.840, 970 360.500 C 969.450 360.160, 969 359.002, 969 357.927 C 969 356.852, 968.609 355.191, 968.132 354.236 C 967.654 353.281, 966.473 350.250, 965.507 347.500 C 961.073 334.875, 960.237 332.804, 955.381 322.400 C 954.071 319.596, 953 316.917, 953 316.448 C 953 315.601, 942.969 294.335, 940.761 290.500 C 940.128 289.400, 938.124 285.575, 936.308 282 L 933.006 275.500 933.015 509 M 465.460 356.244 C 465.194 356.937, 465.094 375.445, 465.238 397.374 L 465.500 437.244 522.523 437.372 L 579.546 437.500 584.587 441.750 C 587.360 444.087, 589.924 446, 590.285 446 C 590.646 446, 590.842 425.637, 590.721 400.750 L 590.500 355.500 528.222 355.242 C 478.888 355.038, 465.843 355.247, 465.460 356.244 M 437.240 570.661 L 437.500 615.322 445 615.155 C 454.631 614.941, 459.935 616.240, 462.750 619.503 C 464.872 621.963, 465 622.985, 465 637.401 C 465 650.943, 465.209 652.879, 466.829 654.345 C 467.835 655.255, 469.039 656, 469.505 656 C 469.972 656, 474.140 660.050, 478.769 665 L 487.184 674 517.858 674 L 548.533 674 559.766 662.734 L 571 651.469 571.002 599.984 L 571.003 548.500 564.752 542.347 C 561.313 538.963, 556.250 533.900, 553.501 531.097 L 548.502 526 492.741 526 L 436.979 526 437.240 570.661 M 0 788.441 L 0 1024 235.200 1024 C 380.145 1024, 470.035 1023.643, 469.450 1023.070 C 468.928 1022.559, 464.675 1021.916, 460 1021.642 C 455.325 1021.368, 447.225 1020.643, 442 1020.031 C 436.775 1019.419, 431.375 1018.887, 430 1018.849 C 428.625 1018.811, 427.050 1018.428, 426.500 1017.997 C 425.950 1017.567, 423.475 1016.968, 421 1016.666 C 416.896 1016.166, 411.508 1015.187, 403.500 1013.486 C 401.850 1013.136, 399.600 1012.480, 398.500 1012.029 C 397.400 1011.578, 393.800 1010.676, 390.500 1010.023 C 387.200 1009.371, 382.700 1008.381, 380.500 1007.822 C 378.300 1007.263, 375.033 1006.575, 373.241 1006.293 C 371.448 1006.010, 369.734 1005.379, 369.432 1004.890 C 369.129 1004.400, 367.810 1004, 366.500 1004 C 365.190 1004, 363.840 1003.550, 363.500 1003 C 363.160 1002.450, 361.585 1002, 360 1002 C 358.415 1002, 356.888 1001.628, 356.607 1001.173 C 356.326 1000.718, 353.262 999.517, 349.798 998.504 C 346.334 997.491, 343.073 996.288, 342.550 995.831 C 342.028 995.374, 340.592 995, 339.359 995 C 338.126 995, 336.840 994.550, 336.500 994 C 336.160 993.450, 335.098 993, 334.140 993 C 331.953 993, 327.018 990.752, 327.008 989.750 C 327.004 989.337, 325.950 989, 324.667 989 C 323.383 989, 322.022 988.688, 321.641 988.308 C 321.260 987.927, 320.069 987.481, 318.994 987.317 C 317.918 987.153, 313.940 985.439, 310.153 983.509 C 306.366 981.579, 302.869 980.001, 302.383 980.002 C 300.985 980.005, 263.117 960.999, 262.485 959.976 C 262.173 959.471, 259.926 958.176, 257.492 957.099 C 255.058 956.023, 251.058 953.760, 248.603 952.071 C 246.148 950.382, 243.879 949, 243.560 949 C 243.241 949, 240.739 947.425, 238 945.500 C 235.261 943.575, 232.636 942, 232.165 942 C 231.695 942, 230.495 941.100, 229.500 940 C 228.505 938.900, 227.267 938, 226.751 938 C 226.234 938, 223.149 935.975, 219.895 933.500 C 216.640 931.025, 213.763 929, 213.500 929 C 213.004 929, 210.983 927.426, 205.475 922.750 C 203.694 921.238, 201.896 920, 201.480 920 C 201.064 920, 198.777 918.313, 196.397 916.250 C 188.941 909.788, 184.930 906.552, 182.454 905 C 178.675 902.632, 169.399 893.927, 149.735 874.294 C 132.638 857.223, 128.396 852.597, 116 837.500 C 113.291 834.200, 109.482 829.651, 107.537 827.391 C 105.592 825.131, 104 822.940, 104 822.523 C 104 822.105, 102.762 820.306, 101.250 818.525 C 96.574 813.017, 95 810.996, 95 810.500 C 95 810.237, 92.975 807.360, 90.500 804.105 C 88.025 800.851, 86 797.751, 86 797.217 C 86 796.682, 85.317 795.678, 84.482 794.985 C 83.646 794.292, 82.204 792.099, 81.277 790.112 C 80.349 788.126, 77.770 783.789, 75.545 780.476 C 70.156 772.451, 69.537 771.411, 66.328 765 C 64.813 761.975, 63.045 759.050, 62.399 758.500 C 61.011 757.319, 46 727.010, 46 725.388 C 46 724.777, 44.239 720.852, 42.086 716.667 C 39.933 712.481, 37.873 707.699, 37.509 706.040 C 37.144 704.381, 36.431 702.766, 35.923 702.452 C 35.415 702.139, 35 700.784, 35 699.441 C 35 698.098, 34.663 696.996, 34.250 696.992 C 33.248 696.982, 31 692.047, 31 689.860 C 31 688.902, 30.550 687.840, 30 687.500 C 29.450 687.160, 29 686.002, 29 684.927 C 29 683.852, 28.568 682.191, 28.041 681.236 C 27.514 680.281, 25.865 675.450, 24.377 670.500 C 22.890 665.550, 21.296 661.072, 20.836 660.550 C 20.376 660.027, 20 658.205, 20 656.500 C 20 654.795, 19.628 652.973, 19.174 652.450 C 18.102 651.217, 16.506 645.467, 14.470 635.500 C 13.572 631.100, 12.423 626.719, 11.918 625.764 C 11.413 624.809, 11 622.473, 11 620.573 C 11 618.673, 10.550 616.840, 10 616.500 C 9.450 616.160, 9 613.910, 9 611.500 C 9 609.090, 8.608 606.876, 8.129 606.580 C 7.650 606.284, 6.956 603.670, 6.585 600.771 C 6.215 597.872, 5.704 594.150, 5.450 592.500 C 5.195 590.850, 4.698 585.323, 4.345 580.217 C 3.991 575.111, 3.319 570.697, 2.851 570.408 C 2.383 570.119, 2 566.335, 2 562 C 2 557.665, 1.550 553.840, 1 553.500 C 0.334 553.089, 0 631.656, 0 788.441 M 1022.508 555.250 C 1022.272 555.938, 1021.867 560.100, 1021.608 564.500 C 1021.349 568.900, 1020.637 576.775, 1020.027 582 C 1019.417 587.225, 1018.887 592.625, 1018.849 594 C 1018.811 595.375, 1018.428 596.950, 1017.997 597.500 C 1017.567 598.050, 1016.956 600.525, 1016.639 603 C 1015.357 613.023, 1014.747 616.038, 1013.894 616.565 C 1013.402 616.869, 1013 618.673, 1013 620.573 C 1013 622.473, 1012.590 624.809, 1012.088 625.764 C 1011.587 626.719, 1010.650 630.200, 1010.007 633.500 C 1009.364 636.800, 1008.381 641.300, 1007.822 643.500 C 1007.263 645.700, 1006.575 648.967, 1006.293 650.759 C 1006.010 652.552, 1005.379 654.266, 1004.890 654.568 C 1004.400 654.871, 1004 656.126, 1004 657.359 C 1004 658.592, 1003.624 660.027, 1003.164 660.550 C 1002.704 661.072, 1001.110 665.550, 999.623 670.500 C 998.135 675.450, 996.486 680.281, 995.959 681.236 C 995.432 682.191, 995 683.852, 995 684.927 C 995 686.002, 994.550 687.160, 994 687.500 C 993.450 687.840, 993 688.902, 993 689.860 C 993 692.047, 990.752 696.982, 989.750 696.992 C 989.337 696.996, 989 698.098, 989 699.441 C 989 700.784, 988.585 702.139, 988.077 702.452 C 987.569 702.766, 986.840 704.450, 986.457 706.194 C 986.074 707.938, 985.002 710.745, 984.074 712.432 C 983.146 714.120, 981.798 717.075, 981.079 719 C 978.913 724.802, 960.969 760.901, 959.933 761.542 C 959.403 761.869, 958.281 763.793, 957.438 765.818 C 956.096 769.045, 949.368 780.133, 943.851 788.210 C 942.833 789.700, 942 791.317, 942 791.805 C 942 792.292, 941.100 793.505, 940 794.500 C 938.900 795.495, 938 796.733, 938 797.249 C 938 797.766, 935.975 800.851, 933.500 804.105 C 931.025 807.360, 929 810.237, 929 810.500 C 929 810.996, 927.426 813.017, 922.750 818.525 C 921.237 820.306, 920 822.104, 920 822.520 C 920 822.936, 918.210 825.352, 916.022 827.888 C 906.204 839.270, 905 840.772, 905 841.643 C 905 842.152, 902.525 845.013, 899.500 848 C 896.475 850.987, 894 853.860, 894 854.382 C 894 855.665, 855.776 893.947, 854.466 893.977 C 853.897 893.989, 850.987 896.475, 848 899.500 C 845.013 902.525, 842.153 905, 841.646 905 C 841.139 905, 838.777 906.688, 836.397 908.750 C 829.175 915.009, 824.964 918.425, 822.527 920 C 821.250 920.825, 817.449 923.641, 814.080 926.258 C 805.564 932.875, 798.180 938, 797.165 938 C 796.695 938, 795.495 938.900, 794.500 940 C 793.505 941.100, 792.305 942, 791.835 942 C 791.364 942, 788.739 943.575, 786 945.500 C 783.261 947.425, 780.759 949, 780.440 949 C 780.121 949, 777.852 950.382, 775.397 952.071 C 772.942 953.760, 768.942 956.023, 766.508 957.099 C 764.074 958.176, 761.827 959.470, 761.515 959.975 C 760.818 961.104, 718.939 982, 717.375 982 C 716.757 982, 714.258 983.114, 711.821 984.477 C 709.384 985.839, 706.515 987.101, 705.445 987.282 C 704.375 987.463, 702.150 988.293, 700.500 989.128 C 698.850 989.962, 695.475 991.253, 693 991.996 C 690.525 992.740, 688.072 993.720, 687.550 994.174 C 687.027 994.628, 685.804 995, 684.830 995 C 683.857 995, 681.466 995.896, 679.517 996.990 C 677.568 998.085, 674.170 999.269, 671.965 999.622 C 669.760 999.974, 667.714 1000.654, 667.419 1001.131 C 667.124 1001.609, 665.585 1002, 664 1002 C 662.415 1002, 660.840 1002.450, 660.500 1003 C 660.160 1003.550, 658.810 1004, 657.500 1004 C 656.190 1004, 654.871 1004.400, 654.568 1004.890 C 654.266 1005.379, 652.552 1006.008, 650.759 1006.287 C 648.967 1006.567, 643.956 1007.742, 639.623 1008.898 C 635.291 1010.054, 630.480 1011, 628.932 1011 C 627.384 1011, 625.871 1011.400, 625.568 1011.890 C 625.266 1012.379, 623.552 1013.035, 621.759 1013.348 C 619.967 1013.661, 616.025 1014.412, 613 1015.017 C 609.975 1015.622, 605.475 1016.364, 603 1016.666 C 600.525 1016.968, 598.050 1017.567, 597.500 1017.997 C 596.950 1018.428, 595.375 1018.811, 594 1018.849 C 592.625 1018.887, 587.225 1019.419, 582 1020.031 C 576.775 1020.643, 568.675 1021.368, 564 1021.642 C 559.325 1021.916, 555.072 1022.559, 554.550 1023.070 C 553.965 1023.643, 643.855 1024, 788.800 1024 L 1024 1024 1024 789 C 1024 659.750, 1023.761 554, 1023.469 554 C 1023.176 554, 1022.744 554.563, 1022.508 555.250 M 437 864.590 L 437 981.680 440.750 982.804 C 442.813 983.423, 447.425 984.179, 451 984.485 C 454.575 984.791, 458.850 985.299, 460.500 985.613 C 467.193 986.888, 549.488 987.181, 560.500 985.970 C 566.550 985.304, 574.650 984.440, 578.500 984.050 C 588.004 983.086, 589.678 982.362, 590.367 978.913 C 591.134 975.080, 591.172 759, 590.406 759 C 590.081 759, 588.671 759.900, 587.273 761 C 584.788 762.954, 583.216 763, 518.345 763 L 451.959 763 444.480 755.250 L 437.001 747.500 437 864.590" stroke="none" fill="#ffffff" fill-rule="evenodd"/><path d="M 450.450 0.919 C 449.928 1.425, 446.575 2.060, 443 2.330 C 439.425 2.601, 432.225 3.549, 427 4.438 C 421.775 5.326, 415.025 6.457, 412 6.951 C 404.488 8.178, 400.863 8.997, 398.500 10 C 396.297 10.935, 392.833 11.733, 386 12.877 C 383.525 13.291, 379.925 14.133, 378 14.748 C 376.075 15.362, 372.475 16.396, 370 17.046 C 365.419 18.249, 361.880 19.531, 358.764 21.117 C 357.809 21.603, 356.211 22, 355.214 22 C 354.216 22, 352.973 22.374, 352.450 22.831 C 351.928 23.288, 348.575 24.463, 345 25.441 C 337.152 27.590, 335.736 28.106, 330.155 30.858 C 327.766 32.036, 325.044 33, 324.105 33 C 323.167 33, 321.973 33.376, 321.450 33.835 C 320.928 34.294, 318.250 35.495, 315.500 36.503 C 312.750 37.512, 309.024 39.161, 307.220 40.169 C 305.415 41.176, 303.390 42.003, 302.720 42.007 C 301.275 42.016, 264.309 60.473, 262.054 62.312 C 261.199 63.009, 258.925 64.352, 257 65.297 C 252.118 67.693, 246.430 71.177, 244.016 73.250 C 242.894 74.213, 241.592 75, 241.121 75 C 240.650 75, 237.245 77.025, 233.554 79.500 C 229.863 81.975, 226.498 84, 226.077 84 C 225.655 84, 224.495 84.900, 223.500 86 C 222.505 87.100, 221.122 88, 220.428 88 C 219.734 88, 219.017 88.399, 218.833 88.886 C 218.403 90.029, 209.239 97, 208.166 97 C 207.716 97, 206.292 98.125, 205 99.500 C 203.708 100.875, 202.216 102, 201.685 102 C 200.775 102, 199.294 103.183, 187.888 113.022 C 185.352 115.210, 182.945 117, 182.540 117 C 182.135 117, 178.850 119.925, 175.239 123.500 C 171.629 127.075, 168.321 130, 167.889 130 C 166.940 130, 132 164.980, 132 165.930 C 132 166.297, 129.531 169.050, 126.514 172.049 C 123.497 175.047, 121.022 177.907, 121.014 178.403 C 121.006 178.900, 118.863 181.688, 116.250 184.599 C 109.604 192.002, 106 196.614, 106 197.713 C 106 198.229, 104.834 199.742, 103.409 201.076 C 100.471 203.825, 95 211.615, 95 213.050 C 95 213.573, 94.626 214, 94.169 214 C 93.712 214, 92.699 215.238, 91.919 216.750 C 91.139 218.262, 89.726 220.079, 88.780 220.786 C 87.834 221.493, 86.277 223.743, 85.320 225.786 C 84.363 227.829, 81.119 233.071, 78.110 237.436 C 75.102 241.801, 71.570 247.426, 70.262 249.936 C 65.223 259.604, 63.225 263.097, 61.774 264.768 C 60.078 266.721, 45.995 295.128, 46.008 296.569 C 46.013 297.081, 44.269 301.100, 42.134 305.500 C 39.999 309.900, 37.472 315.525, 36.519 318 C 33.528 325.771, 30.806 332.434, 29.886 334.236 C 29.399 335.191, 29 336.660, 29 337.500 C 29 338.340, 28.595 339.809, 28.100 340.764 C 27.604 341.719, 26.423 345.200, 25.475 348.500 C 24.527 351.800, 23.357 355.281, 22.876 356.236 C 22.394 357.191, 22 358.852, 22 359.927 C 22 361.002, 21.550 362.160, 21 362.500 C 20.450 362.840, 20 364.415, 20 366 C 20 367.585, 19.550 369.160, 19 369.500 C 18.450 369.840, 18 371.190, 18 372.500 C 18 373.810, 17.550 375.160, 17 375.500 C 16.450 375.840, 16 377.040, 16 378.166 C 16 380.638, 13.118 393.701, 11.955 396.500 C 11.498 397.600, 10.890 400.075, 10.604 402 C 10.317 403.925, 9.588 407.975, 8.983 411 C 8.378 414.025, 7.636 418.525, 7.334 421 C 7.032 423.475, 6.433 425.950, 6.003 426.500 C 5.572 427.050, 5.189 428.625, 5.151 430 C 5.113 431.375, 4.581 436.775, 3.969 442 C 3.357 447.225, 2.632 455.325, 2.358 460 C 2.084 464.675, 1.441 468.927, 0.930 469.450 C -0.373 470.781, -0.304 552.694, 1 553.500 C 1.550 553.840, 2 557.665, 2 562 C 2 566.335, 2.383 570.119, 2.851 570.408 C 3.319 570.697, 3.991 575.111, 4.345 580.217 C 4.698 585.323, 5.195 590.850, 5.450 592.500 C 5.704 594.150, 6.215 597.872, 6.585 600.771 C 6.956 603.670, 7.650 606.284, 8.129 606.580 C 8.608 606.876, 9 609.090, 9 611.500 C 9 613.910, 9.450 616.160, 10 616.500 C 10.550 616.840, 11 618.673, 11 620.573 C 11 622.473, 11.413 624.809, 11.918 625.764 C 12.423 626.719, 13.572 631.100, 14.470 635.500 C 16.506 645.467, 18.102 651.217, 19.174 652.450 C 19.628 652.972, 20 654.795, 20 656.500 C 20 658.205, 20.376 660.028, 20.836 660.550 C 21.296 661.073, 22.890 665.550, 24.377 670.500 C 25.865 675.450, 27.514 680.281, 28.041 681.236 C 28.568 682.191, 29 683.852, 29 684.927 C 29 686.002, 29.450 687.160, 30 687.500 C 30.550 687.840, 31 688.902, 31 689.860 C 31 692.047, 33.248 696.982, 34.250 696.992 C 34.663 696.996, 35 698.098, 35 699.441 C 35 700.784, 35.415 702.139, 35.923 702.452 C 36.431 702.766, 37.144 704.381, 37.509 706.040 C 37.873 707.699, 39.933 712.481, 42.086 716.667 C 44.239 720.852, 46 724.777, 46 725.388 C 46 727.010, 61.011 757.319, 62.399 758.500 C 63.045 759.050, 64.813 761.975, 66.328 765 C 69.537 771.411, 70.156 772.451, 75.545 780.476 C 77.770 783.789, 80.349 788.126, 81.277 790.112 C 82.204 792.099, 83.646 794.292, 84.482 794.985 C 85.317 795.678, 86 796.682, 86 797.217 C 86 797.751, 88.025 800.851, 90.500 804.105 C 92.975 807.360, 95 810.237, 95 810.500 C 95 810.996, 96.574 813.017, 101.250 818.525 C 102.762 820.306, 104 822.105, 104 822.523 C 104 822.940, 105.592 825.131, 107.537 827.391 C 109.482 829.651, 113.291 834.200, 116 837.500 C 128.396 852.597, 132.638 857.223, 149.735 874.294 C 169.399 893.927, 178.675 902.632, 182.454 905 C 184.930 906.552, 188.941 909.788, 196.397 916.250 C 198.777 918.312, 201.064 920, 201.480 920 C 201.896 920, 203.694 921.238, 205.475 922.750 C 210.983 927.426, 213.004 929, 213.500 929 C 213.763 929, 216.640 931.025, 219.895 933.500 C 223.149 935.975, 226.234 938, 226.751 938 C 227.267 938, 228.505 938.900, 229.500 940 C 230.495 941.100, 231.695 942, 232.165 942 C 232.636 942, 235.261 943.575, 238 945.500 C 240.739 947.425, 243.241 949, 243.560 949 C 243.879 949, 246.148 950.382, 248.603 952.071 C 251.058 953.760, 255.058 956.023, 257.492 957.099 C 259.926 958.176, 262.173 959.471, 262.485 959.976 C 263.117 960.999, 300.985 980.005, 302.383 980.002 C 302.869 980.001, 306.366 981.579, 310.153 983.509 C 313.940 985.439, 317.918 987.153, 318.994 987.317 C 320.069 987.481, 321.260 987.927, 321.641 988.308 C 322.022 988.688, 323.383 989, 324.667 989 C 325.950 989, 327.004 989.337, 327.008 989.750 C 327.018 990.752, 331.953 993, 334.140 993 C 335.098 993, 336.160 993.450, 336.500 994 C 336.840 994.550, 338.126 995, 339.359 995 C 340.592 995, 342.027 995.374, 342.550 995.831 C 343.072 996.288, 346.334 997.491, 349.798 998.504 C 353.262 999.517, 356.326 1000.718, 356.607 1001.173 C 356.888 1001.628, 358.415 1002, 360 1002 C 361.585 1002, 363.160 1002.450, 363.500 1003 C 363.840 1003.550, 365.190 1004, 366.500 1004 C 367.810 1004, 369.129 1004.400, 369.432 1004.890 C 369.734 1005.379, 371.448 1006.010, 373.241 1006.293 C 375.033 1006.575, 378.300 1007.263, 380.500 1007.822 C 382.700 1008.381, 387.200 1009.371, 390.500 1010.023 C 393.800 1010.676, 397.400 1011.578, 398.500 1012.029 C 399.600 1012.480, 401.850 1013.136, 403.500 1013.486 C 411.508 1015.187, 416.896 1016.166, 421 1016.666 C 423.475 1016.968, 425.950 1017.567, 426.500 1017.997 C 427.050 1018.428, 428.625 1018.811, 430 1018.849 C 431.375 1018.887, 436.775 1019.419, 442 1020.031 C 447.225 1020.643, 455.325 1021.368, 460 1021.642 C 464.675 1021.916, 468.928 1022.559, 469.450 1023.070 C 470.714 1024.307, 553.286 1024.307, 554.550 1023.070 C 555.072 1022.559, 559.325 1021.916, 564 1021.642 C 568.675 1021.368, 576.775 1020.643, 582 1020.031 C 587.225 1019.419, 592.625 1018.887, 594 1018.849 C 595.375 1018.811, 596.950 1018.428, 597.500 1017.997 C 598.050 1017.567, 600.525 1016.968, 603 1016.666 C 605.475 1016.364, 609.975 1015.622, 613 1015.017 C 616.025 1014.412, 619.967 1013.661, 621.759 1013.348 C 623.552 1013.035, 625.266 1012.379, 625.568 1011.890 C 625.871 1011.400, 627.384 1011, 628.932 1011 C 630.480 1011, 635.291 1010.054, 639.623 1008.898 C 643.956 1007.742, 648.967 1006.567, 650.759 1006.287 C 652.552 1006.008, 654.266 1005.379, 654.568 1004.890 C 654.871 1004.400, 656.190 1004, 657.500 1004 C 658.810 1004, 660.160 1003.550, 660.500 1003 C 660.840 1002.450, 662.415 1002, 664 1002 C 665.585 1002, 667.124 1001.609, 667.419 1001.131 C 667.714 1000.654, 669.760 999.974, 671.965 999.622 C 674.170 999.269, 677.568 998.085, 679.517 996.990 C 681.466 995.896, 683.857 995, 684.830 995 C 685.804 995, 687.027 994.628, 687.550 994.174 C 688.072 993.720, 690.525 992.740, 693 991.996 C 695.475 991.253, 698.850 989.962, 700.500 989.128 C 702.150 988.293, 704.375 987.463, 705.445 987.282 C 706.515 987.101, 709.384 985.839, 711.821 984.477 C 714.258 983.114, 716.757 982, 717.375 982 C 718.939 982, 760.818 961.104, 761.515 959.975 C 761.827 959.470, 764.074 958.176, 766.508 957.099 C 768.942 956.023, 772.942 953.760, 775.397 952.071 C 777.852 950.382, 780.121 949, 780.440 949 C 780.759 949, 783.261 947.425, 786 945.500 C 788.739 943.575, 791.364 942, 791.835 942 C 792.305 942, 793.505 941.100, 794.500 940 C 795.495 938.900, 796.695 938, 797.165 938 C 798.180 938, 805.564 932.875, 814.080 926.258 C 817.449 923.641, 821.250 920.825, 822.527 920 C 824.964 918.425, 829.175 915.009, 836.397 908.750 C 838.777 906.687, 841.139 905, 841.646 905 C 842.153 905, 845.013 902.525, 848 899.500 C 850.987 896.475, 853.897 893.989, 854.466 893.977 C 855.776 893.947, 894 855.665, 894 854.382 C 894 853.860, 896.475 850.987, 899.500 848 C 902.525 845.013, 905 842.153, 905 841.646 C 905 841.139, 906.790 838.648, 908.978 836.112 C 918.690 824.853, 920 823.238, 920 822.523 C 920 822.105, 921.237 820.306, 922.750 818.525 C 927.426 813.017, 929 810.996, 929 810.500 C 929 810.237, 931.025 807.360, 933.500 804.105 C 935.975 800.851, 938 797.766, 938 797.249 C 938 796.733, 938.900 795.495, 940 794.500 C 941.100 793.505, 942 792.292, 942 791.805 C 942 791.317, 942.833 789.700, 943.851 788.210 C 949.368 780.133, 956.096 769.045, 957.438 765.818 C 958.281 763.793, 959.403 761.869, 959.933 761.542 C 960.969 760.901, 978.913 724.802, 981.079 719 C 981.798 717.075, 983.146 714.120, 984.074 712.432 C 985.002 710.745, 986.074 707.938, 986.457 706.194 C 986.840 704.450, 987.569 702.766, 988.077 702.452 C 988.585 702.139, 989 700.784, 989 699.441 C 989 698.098, 989.337 696.996, 989.750 696.992 C 990.752 696.982, 993 692.047, 993 689.860 C 993 688.902, 993.450 687.840, 994 687.500 C 994.550 687.160, 995 686.002, 995 684.927 C 995 683.852, 995.432 682.191, 995.959 681.236 C 996.486 680.281, 998.135 675.450, 999.623 670.500 C 1001.110 665.550, 1002.704 661.073, 1003.164 660.550 C 1003.624 660.028, 1004 658.592, 1004 657.359 C 1004 656.126, 1004.400 654.871, 1004.890 654.568 C 1005.379 654.266, 1006.010 652.552, 1006.293 650.759 C 1006.575 648.967, 1007.263 645.700, 1007.822 643.500 C 1008.381 641.300, 1009.364 636.800, 1010.007 633.500 C 1010.650 630.200, 1011.587 626.719, 1012.088 625.764 C 1012.590 624.809, 1013 622.473, 1013 620.573 C 1013 618.673, 1013.402 616.869, 1013.894 616.565 C 1014.747 616.038, 1015.357 613.023, 1016.639 603 C 1016.956 600.525, 1017.567 598.050, 1017.997 597.500 C 1018.428 596.950, 1018.811 595.375, 1018.849 594 C 1018.887 592.625, 1019.419 587.225, 1020.031 582 C 1020.643 576.775, 1021.372 568.700, 1021.651 564.056 C 1021.945 559.162, 1022.755 554.760, 1023.579 553.584 C 1025.552 550.767, 1025.718 468.856, 1023.750 469.250 C 1022.853 469.429, 1022.303 466.680, 1021.801 459.500 C 1020.884 446.394, 1018.557 425.900, 1017.770 424 C 1016.943 422.004, 1015.975 416.634, 1015.336 410.500 C 1015.050 407.750, 1014.407 405.072, 1013.908 404.550 C 1013.409 404.027, 1013 402.334, 1013 400.786 C 1013 399.239, 1012.591 397.191, 1012.091 396.236 C 1010.972 394.100, 1008 380.972, 1008 378.166 C 1008 377.040, 1007.550 375.840, 1007 375.500 C 1006.450 375.160, 1006 373.810, 1006 372.500 C 1006 371.190, 1005.550 369.840, 1005 369.500 C 1004.450 369.160, 1004 367.585, 1004 366 C 1004 364.415, 1003.550 362.840, 1003 362.500 C 1002.450 362.160, 1002 361.002, 1002 359.927 C 1002 358.852, 1001.606 357.191, 1001.124 356.236 C 1000.643 355.281, 999.473 351.800, 998.525 348.500 C 997.577 345.200, 996.396 341.719, 995.900 340.764 C 995.405 339.809, 995 338.340, 995 337.500 C 995 336.660, 994.601 335.191, 994.114 334.236 C 993.194 332.434, 990.472 325.771, 987.481 318 C 986.528 315.525, 984.001 309.900, 981.866 305.500 C 979.731 301.100, 977.987 297.086, 977.992 296.580 C 978.005 295.125, 963.087 265.172, 962.022 264.514 C 961.496 264.188, 959.687 261.127, 958.003 257.711 C 954.503 250.612, 953.482 248.864, 950.003 244.008 C 948.626 242.087, 946.701 238.937, 945.724 237.008 C 943.047 231.721, 941.495 229.204, 939.661 227.178 C 938.748 226.169, 938 224.885, 938 224.326 C 938 223.767, 937.100 222.495, 936 221.500 C 934.900 220.505, 934 219.107, 934 218.395 C 934 217.682, 933.438 216.740, 932.750 216.300 C 931.067 215.223, 925 207.343, 925 206.233 C 925 205.747, 923.875 204.292, 922.500 203 C 921.125 201.708, 920 200.218, 920 199.688 C 920 199.157, 918.210 196.648, 916.022 194.112 C 906.226 182.756, 905 181.230, 904.995 180.391 C 904.993 179.901, 902.068 176.603, 898.495 173.063 C 894.923 169.522, 892 166.303, 892 165.909 C 892 164.930, 857.136 130, 856.158 130 C 855.729 130, 852.480 127.089, 848.939 123.531 C 845.397 119.973, 842.100 117.048, 841.612 117.031 C 841.123 117.014, 838.648 115.210, 836.112 113.022 C 824.706 103.183, 823.225 102, 822.315 102 C 821.784 102, 820.292 100.875, 819 99.500 C 817.708 98.125, 816.284 97, 815.834 97 C 814.761 97, 805.597 90.029, 805.167 88.886 C 804.983 88.399, 804.266 88, 803.572 88 C 802.878 88, 801.495 87.100, 800.500 86 C 799.505 84.900, 798.345 84, 797.923 84 C 797.502 84, 794.137 81.975, 790.446 79.500 C 786.755 77.025, 783.350 75, 782.879 75 C 782.408 75, 781.106 74.213, 779.984 73.250 C 777.570 71.177, 771.882 67.693, 767 65.297 C 765.075 64.352, 762.801 63.009, 761.946 62.312 C 759.691 60.473, 722.725 42.016, 721.280 42.007 C 720.610 42.003, 718.585 41.176, 716.780 40.169 C 714.976 39.161, 711.250 37.512, 708.500 36.503 C 705.750 35.495, 703.073 34.294, 702.550 33.835 C 702.028 33.376, 700.833 33, 699.895 33 C 698.956 33, 696.234 32.036, 693.845 30.858 C 688.264 28.106, 686.848 27.590, 679 25.441 C 675.425 24.463, 672.073 23.288, 671.550 22.831 C 671.028 22.374, 669.784 22, 668.786 22 C 667.789 22, 666.191 21.603, 665.236 21.117 C 662.120 19.531, 658.581 18.249, 654 17.046 C 651.525 16.396, 647.925 15.362, 646 14.748 C 644.075 14.133, 640.475 13.291, 638 12.877 C 631.167 11.733, 627.703 10.935, 625.500 10 C 620.724 7.972, 593.967 3.372, 581 2.350 C 577.425 2.069, 574.072 1.425, 573.550 0.919 C 572.284 -0.305, 451.716 -0.305, 450.450 0.919 M 474.609 31.728 C 474.187 32.152, 469.714 32.819, 464.670 33.208 C 448.972 34.420, 439.491 35.578, 438.066 36.459 C 437.313 36.925, 435.302 37.434, 433.598 37.592 C 431.894 37.749, 428.700 38.116, 426.500 38.406 C 424.300 38.697, 420.128 39.232, 417.229 39.596 C 414.330 39.961, 411.716 40.650, 411.420 41.129 C 411.124 41.608, 409.585 42, 408 42 C 406.415 42, 404.840 42.450, 404.500 43 C 404.160 43.550, 402.360 44, 400.500 44 C 398.640 44, 396.871 44.400, 396.568 44.890 C 396.266 45.379, 394.552 46.001, 392.759 46.272 C 385.430 47.379, 362.446 53.978, 358.764 56.032 C 357.809 56.564, 356.148 57, 355.073 57 C 353.998 57, 352.861 57.415, 352.548 57.923 C 352.234 58.431, 350.550 59.160, 348.806 59.543 C 347.062 59.926, 344.129 61.085, 342.287 62.120 C 340.446 63.154, 338.292 64, 337.500 64 C 336.708 64, 334.458 64.900, 332.500 66 C 330.542 67.100, 328.501 68, 327.965 68 C 327.429 68, 324.658 69.125, 321.808 70.500 C 318.958 71.875, 315.992 73, 315.217 73 C 314.443 73, 312.614 73.820, 311.154 74.822 C 309.694 75.825, 306.925 77.361, 305 78.236 C 295.474 82.567, 290.142 85.228, 286.500 87.468 C 284.300 88.822, 279.917 91.182, 276.760 92.714 L 271.021 95.500 271.010 509.041 L 271 922.582 276.514 925.541 C 293.607 934.714, 297.449 936.724, 307.246 941.625 C 313.156 944.581, 318.417 947, 318.936 947 C 319.456 947, 322.436 948.326, 325.560 949.947 C 328.684 951.568, 332.531 953.177, 334.109 953.524 C 335.686 953.870, 337.234 954.569, 337.548 955.077 C 337.861 955.585, 338.978 956, 340.029 956 C 341.079 956, 343.542 956.900, 345.500 958 C 347.458 959.100, 349.728 960, 350.544 960 C 351.360 960, 352.809 960.397, 353.764 960.883 C 358.449 963.267, 365.444 965.443, 372.500 966.712 C 374.150 967.008, 375.950 967.564, 376.500 967.946 C 377.050 968.327, 379.300 969.136, 381.500 969.742 C 383.700 970.348, 387.975 971.607, 391 972.539 C 396.179 974.136, 407.167 976.457, 415 977.609 C 416.925 977.892, 419.400 978.518, 420.500 979 C 422.603 979.921, 427.928 980.867, 434.301 981.451 C 436.391 981.643, 439.316 982.266, 440.801 982.837 C 442.285 983.407, 446.425 984.117, 450 984.415 C 453.575 984.713, 458.075 985.233, 460 985.571 C 467.457 986.879, 549.285 987.204, 560.500 985.970 C 566.550 985.304, 574.650 984.440, 578.500 984.050 C 587.510 983.137, 589.792 982.286, 590.308 979.648 C 590.719 977.546, 590.731 977.548, 590.864 979.750 C 590.944 981.067, 591.649 982, 592.566 982 C 594.491 982, 598.241 980.088, 599.235 978.600 C 599.743 977.839, 599.974 977.885, 599.985 978.750 C 600.002 980.196, 606.092 980.480, 607.550 979.102 C 608.072 978.609, 610.300 977.966, 612.500 977.675 C 614.700 977.383, 619.875 976.437, 624 975.574 C 628.125 974.710, 632.973 973.717, 634.774 973.367 C 636.575 973.017, 638.289 972.341, 638.583 971.865 C 638.877 971.389, 640.415 971, 642 971 C 643.585 971, 645.160 970.550, 645.500 970 C 645.840 969.450, 647.195 969, 648.512 969 C 649.829 969, 652.165 968.494, 653.703 967.875 C 658.984 965.752, 660.513 965.229, 666.500 963.492 C 669.800 962.534, 673.281 961.357, 674.236 960.876 C 675.191 960.394, 676.611 960, 677.392 960 C 678.172 960, 680.541 959.159, 682.655 958.130 C 689.475 954.814, 694.033 953, 695.547 953 C 696.908 953, 700.818 951.182, 702 950 C 703.145 948.855, 707.071 947, 708.349 947 C 710.050 947, 745.007 929.620, 750.500 926.043 C 752.700 924.611, 755.850 922.778, 757.500 921.971 C 759.150 921.164, 760.725 920.228, 761 919.891 C 761.275 919.554, 762.999 918.511, 764.831 917.572 C 766.802 916.562, 767.955 915.326, 767.656 914.546 C 767.311 913.646, 767.763 913.387, 769.077 913.730 C 770.229 914.032, 772.384 913.182, 774.435 911.617 C 776.322 910.178, 778.277 909, 778.778 909 C 779.280 909, 780.505 908.100, 781.500 907 C 782.495 905.900, 783.860 905, 784.533 905 C 785.205 905, 786.325 904.313, 787.022 903.473 C 788.560 901.621, 796.769 896, 797.938 896 C 798.398 896, 799.838 894.654, 801.137 893.009 C 802.437 891.364, 803.950 890.007, 804.500 889.994 C 805.050 889.981, 808.817 887.164, 812.871 883.735 C 816.925 880.306, 821.149 876.978, 822.257 876.340 C 823.365 875.702, 827.484 871.990, 831.409 868.090 C 835.335 864.191, 839.005 861, 839.565 861 C 841.399 861, 877.485 823.132, 881 817.519 C 881.825 816.202, 883.984 813.409, 885.798 811.312 C 894.490 801.265, 901 793.119, 901 792.290 C 901 791.786, 902.350 790.081, 904 788.500 C 905.650 786.919, 907 785.255, 907 784.803 C 907 784.350, 908.575 781.739, 910.500 779 C 912.425 776.261, 914 773.636, 914 773.165 C 914 772.695, 914.900 771.495, 916 770.500 C 917.100 769.505, 918 768.280, 918 767.778 C 918 767.277, 919.125 765.392, 920.500 763.589 L 923 760.311 923.248 516.906 L 923.496 273.500 923.770 515.500 L 924.044 757.500 928.022 751.288 L 932 745.076 932 510.120 L 932 275.164 929.361 269.832 C 925.070 261.159, 924.582 260.913, 923.913 267.084 L 923.326 272.500 923.163 265.390 C 923.031 259.623, 922.527 257.583, 920.500 254.595 C 919.125 252.569, 918 250.551, 918 250.111 C 918 249.670, 917.100 248.495, 916 247.500 C 914.900 246.505, 914 245.085, 914 244.345 C 914 243.605, 913.605 243, 913.121 243 C 912.638 243, 911.697 241.682, 911.029 240.071 C 910.362 238.460, 908.733 236.328, 907.408 235.334 C 906.084 234.339, 905 233.027, 905 232.418 C 905 231.808, 904.100 230.495, 903 229.500 C 901.900 228.505, 901 227.163, 901 226.519 C 901 225.875, 899.875 224.292, 898.500 223 C 897.125 221.708, 896 220.216, 896 219.685 C 896 218.684, 891.606 213.303, 884.250 205.297 C 881.913 202.752, 880 200.281, 880 199.806 C 880 199.331, 877.174 196.142, 873.721 192.721 C 870.267 189.299, 866.492 185.150, 865.330 183.500 C 862.651 179.693, 844.924 161.909, 839.041 157.125 C 836.589 155.131, 832.381 151.363, 829.690 148.750 C 826.999 146.137, 824.184 144, 823.434 144 C 822.684 144, 821.591 143.104, 821.005 142.009 C 820.007 140.145, 811.149 132.882, 806.816 130.376 C 805.747 129.758, 803.639 128.070, 802.132 126.626 C 800.624 125.182, 798.931 124, 798.370 124 C 797.808 124, 796.292 122.875, 795 121.500 C 793.708 120.125, 792.162 119, 791.563 119 C 790.964 119, 789.661 117.916, 788.666 116.592 C 787.672 115.267, 785.540 113.638, 783.929 112.971 C 782.318 112.303, 781 111.472, 781 111.123 C 781 110.774, 779.538 109.864, 777.750 109.102 C 775.962 108.339, 773.489 106.802, 772.254 105.687 C 771.019 104.571, 769.753 103.913, 769.442 104.224 C 769.131 104.536, 767.714 103.712, 766.292 102.395 C 764.871 101.078, 763.131 100, 762.425 100 C 761.720 100, 760.379 99.213, 759.446 98.250 C 758.513 97.288, 754.769 94.856, 751.125 92.848 C 741.321 87.443, 712.757 73, 711.872 73 C 711.451 73, 707.820 71.473, 703.803 69.607 C 691.015 63.665, 687.055 62, 685.711 62 C 684.990 62, 683.972 61.613, 683.450 61.140 C 682.927 60.667, 680.025 59.487, 677 58.519 C 673.975 57.551, 670.719 56.363, 669.764 55.879 C 668.809 55.396, 667.148 55, 666.073 55 C 664.998 55, 663.840 54.550, 663.500 54 C 663.160 53.450, 661.784 53, 660.441 53 C 659.098 53, 658 52.550, 658 52 C 658 51.450, 656.823 51, 655.384 51 C 653.946 51, 650.683 50.347, 648.134 49.550 C 645.585 48.752, 641.475 47.597, 639 46.982 C 636.525 46.367, 633.118 45.445, 631.429 44.932 C 629.740 44.420, 627.404 44, 626.238 44 C 625.072 44, 623.871 43.600, 623.568 43.110 C 623.266 42.621, 621.552 41.968, 619.759 41.659 C 617.967 41.350, 614.025 40.668, 611 40.143 C 607.975 39.618, 604.647 38.848, 603.605 38.432 C 602.289 37.906, 601.297 38.241, 600.355 39.529 C 599.240 41.054, 599 41.103, 599 39.808 C 599 36.945, 591.040 35.901, 590.937 38.750 C 590.887 40.106, 590.672 40.001, 589.980 38.280 C 589 35.846, 587.453 35.338, 578.500 34.513 C 575.200 34.208, 568.225 33.479, 563 32.891 C 551.682 31.618, 475.714 30.618, 474.609 31.728 M 264.750 99.572 L 262 101.064 262.006 509.282 L 262.013 917.500 265.087 919.250 C 266.778 920.213, 268.576 921, 269.081 921 C 269.638 921, 270 758.974, 270 509.500 C 270 180.945, 269.748 98.008, 268.750 98.040 C 268.063 98.062, 266.262 98.751, 264.750 99.572 M 258.465 103.952 C 257.346 104.405, 255.829 105.502, 255.093 106.388 C 254.357 107.275, 253.283 108, 252.706 108 C 252.129 108, 250.831 108.748, 249.822 109.661 C 247.891 111.409, 244.871 113.284, 241.459 114.853 C 240.336 115.369, 238.819 116.514, 238.086 117.396 C 237.354 118.278, 236.336 119, 235.823 119 C 235.311 119, 233.453 120.348, 231.696 121.995 C 229.938 123.643, 228.195 124.993, 227.821 124.995 C 227.448 124.998, 226.548 125.571, 225.821 126.269 C 225.095 126.966, 221.575 129.715, 218 132.376 C 209.467 138.729, 204.716 142.785, 194.132 152.750 C 189.313 157.287, 184.921 161, 184.372 161 C 182.897 161, 148 198.034, 148 199.600 C 148 200.141, 145.975 202.571, 143.500 205 C 141.025 207.429, 139 209.779, 139 210.222 C 139 210.939, 130.630 221.739, 129.096 223 C 127.753 224.105, 123 230.924, 123 231.746 C 123 232.230, 121.650 233.919, 120 235.500 C 118.350 237.081, 117 238.745, 117 239.197 C 117 239.650, 115.512 242.153, 113.693 244.760 C 111.875 247.367, 109.229 251.842, 107.814 254.704 C 106.399 257.566, 104.962 259.629, 104.621 259.287 C 104.279 258.946, 104 259.183, 104 259.814 C 104 260.445, 102.425 263.423, 100.500 266.433 C 98.575 269.442, 97 272.826, 97 273.952 C 97 275.078, 96.477 275.888, 95.839 275.750 C 94.709 275.507, 75.012 313.290, 75.004 315.715 C 75.002 316.383, 73.875 318.944, 72.500 321.407 C 71.125 323.870, 70 326.366, 70 326.953 C 70 327.541, 69.167 329.929, 68.148 332.261 C 63.520 342.853, 61.907 347.064, 59.440 355 C 57.987 359.675, 56.393 364.281, 55.899 365.236 C 55.404 366.191, 55 368.110, 55 369.500 C 55 370.890, 54.480 373.034, 53.844 374.264 C 51.311 379.164, 51 380.069, 51 382.552 C 51 383.971, 50.565 385.944, 50.034 386.936 C 49.503 387.929, 48.626 391.162, 48.085 394.120 C 46.497 402.807, 45.901 405.381, 44.987 407.500 C 44.177 409.377, 43.741 411.699, 42.359 421.500 C 42.049 423.700, 41.391 425.928, 40.898 426.450 C 40.404 426.972, 40 429.088, 40 431.151 C 40 433.214, 39.548 437.061, 38.995 439.701 C 36.726 450.539, 35.742 471.622, 35.761 509 C 35.772 530.725, 36.225 553, 36.767 558.500 C 39.016 581.308, 40.203 590.595, 41.076 592.236 C 41.584 593.191, 42 595.464, 42 597.286 C 42 599.109, 42.404 601.027, 42.898 601.550 C 43.391 602.072, 44.030 604.300, 44.316 606.500 C 44.603 608.700, 45.349 612.525, 45.974 615 C 46.600 617.475, 47.548 622.200, 48.082 625.500 C 48.615 628.800, 49.490 632.281, 50.026 633.236 C 50.562 634.191, 51 635.852, 51 636.927 C 51 638.002, 51.450 639.160, 52 639.500 C 52.550 639.840, 53 641.640, 53 643.500 C 53 645.360, 53.450 647.160, 54 647.500 C 54.550 647.840, 55 648.998, 55 650.073 C 55 651.148, 55.397 652.809, 55.883 653.764 C 57.454 656.851, 58.730 660.328, 61.590 669.313 C 63.133 674.160, 64.756 678.349, 65.198 678.622 C 65.639 678.895, 66.014 680.104, 66.032 681.309 C 66.049 682.514, 66.724 684.374, 67.532 685.441 C 68.339 686.509, 69 688.010, 69 688.777 C 69 689.544, 70.313 692.945, 71.919 696.336 C 73.524 699.726, 75.824 704.750, 77.030 707.500 C 80.175 714.670, 86.403 727.412, 87.050 728 C 87.352 728.275, 88.822 731.200, 90.315 734.500 C 93.914 742.452, 94.613 743.546, 95.907 743.250 C 96.508 743.113, 97 743.814, 97 744.809 C 97 746.485, 103.259 757.815, 104.830 758.982 C 105.214 759.267, 106.638 761.750, 107.996 764.500 C 110.635 769.845, 115.890 777.913, 119.396 782 C 122.528 785.652, 126 790.789, 126 791.772 C 126 792.242, 127.350 793.919, 129 795.500 C 130.650 797.081, 132 798.802, 132 799.325 C 132 799.848, 133.687 802.171, 135.750 804.487 C 137.813 806.802, 141.750 811.563, 144.500 815.066 C 147.250 818.569, 152.023 823.924, 155.107 826.967 C 158.191 830.010, 160.891 833.061, 161.107 833.747 C 161.628 835.399, 189.169 863, 190.297 863 C 190.780 863, 193.669 865.475, 196.718 868.500 C 199.768 871.525, 202.560 874, 202.923 874 C 203.286 874, 205.571 876.025, 208 878.500 C 210.429 880.975, 212.909 883, 213.512 883 C 214.115 883, 216.134 884.575, 218 886.500 C 219.866 888.425, 221.895 890, 222.509 890 C 223.123 890, 224.919 891.350, 226.500 893 C 228.081 894.650, 229.895 896, 230.532 896 C 231.169 896, 232.505 896.900, 233.500 898 C 234.495 899.100, 235.837 900, 236.481 900 C 237.125 900, 238.708 901.125, 240 902.500 C 241.292 903.875, 242.780 905, 243.307 905 C 243.834 905, 245 905.788, 245.897 906.750 C 247.765 908.754, 249.595 909.921, 256.250 913.354 L 261 915.804 261 509.402 C 261 285.881, 260.887 103.029, 260.750 103.063 C 260.613 103.098, 259.584 103.498, 258.465 103.952 M 490.500 265 C 431.100 265.275, 381.696 265.892, 380.713 266.371 C 375.840 268.747, 376 264.345, 376 396 C 376 527.649, 375.847 523.432, 380.713 525.527 C 381.696 525.950, 419.850 526.201, 465.500 526.085 L 548.500 525.874 553.500 531.034 C 556.250 533.872, 561.313 538.963, 564.752 542.347 L 571.003 548.500 571.002 600.016 L 571 651.533 559.734 662.766 L 548.469 674 517.826 674 L 487.184 674 478.769 665 C 474.140 660.050, 469.894 656, 469.332 656 C 468.770 656, 467.565 655.177, 466.655 654.171 C 465.269 652.639, 465 649.889, 465 637.227 C 465 622.991, 464.869 621.960, 462.750 619.503 C 461.512 618.069, 458.920 616.540, 456.988 616.107 C 455.057 615.673, 438.407 615.470, 419.988 615.655 C 401.570 615.841, 385.553 615.994, 384.396 615.996 C 383.239 615.998, 381.101 617.104, 379.646 618.452 L 377 620.905 377.038 653.702 L 377.075 686.500 387.638 697.500 C 393.447 703.550, 410.358 720.763, 425.218 735.750 L 452.236 763 518.483 763 C 581.959 763, 584.830 762.921, 587.115 761.108 C 588.427 760.068, 595.350 753.215, 602.500 745.880 C 609.650 738.545, 624.500 723.370, 635.500 712.158 C 659.492 687.704, 657.266 690.062, 659.305 686.943 C 660.834 684.605, 660.981 677.156, 661.017 600.180 C 661.041 549.478, 660.683 515.283, 660.117 514.237 C 659.124 512.400, 657.130 510.460, 625.500 480.549 C 614.500 470.147, 601.450 457.700, 596.500 452.889 C 591.550 448.079, 585.737 442.648, 583.582 440.821 L 579.664 437.500 522.582 437.372 L 465.500 437.244 465.500 396.372 L 465.500 355.500 528 355.261 C 562.375 355.130, 605.483 355.017, 623.795 355.011 L 657.091 355 659.380 352.711 C 661.658 350.433, 661.672 350.250, 662.328 312.961 C 662.690 292.358, 662.628 274.180, 662.189 272.568 C 661.751 270.955, 660.147 268.705, 658.625 267.568 C 656.020 265.620, 654.190 265.471, 627.179 265 C 611.406 264.725, 549.900 264.725, 490.500 265 M 385 395.996 L 385 518 468.785 518 L 552.571 518 566.285 531.667 L 580 545.334 580 600.378 L 580 655.421 566.211 669.211 L 552.421 683 518.610 683 L 484.799 683 471.649 670.258 C 464.417 663.250, 457.952 656.838, 457.282 656.008 C 456.447 654.974, 456.054 649.703, 456.032 639.250 L 456 624 421 624 L 386 624 386.051 653.750 L 386.103 683.500 421.301 719.255 L 456.500 755.010 519.089 755.005 L 581.678 755 590.589 745.618 C 595.490 740.457, 611.313 724.238, 625.750 709.574 L 652 682.914 652 600.429 L 652 517.943 642.265 508.722 C 636.911 503.650, 627.573 494.739, 621.515 488.920 C 615.457 483.101, 602.919 471.176, 593.653 462.420 L 576.807 446.500 516.653 446 L 456.500 445.500 456.241 396.250 L 455.981 347 554.472 347 L 652.962 347 653.510 344.750 C 653.812 343.512, 653.933 327.200, 653.779 308.500 L 653.500 274.500 519.250 274.246 L 385 273.993 385 395.996 M 933.015 509 L 933.024 742.500 935.292 738.500 C 936.539 736.300, 938.740 732.025, 940.183 729 C 945.633 717.576, 946.716 715.406, 948.668 712 C 949.771 710.075, 951.902 705.422, 953.405 701.659 C 954.907 697.897, 957.006 693.270, 958.068 691.379 C 959.131 689.487, 960 687.272, 960 686.456 C 960 685.640, 960.426 684.191, 960.946 683.236 C 962.696 680.026, 967 668.174, 967 666.566 C 967 665.690, 967.450 664.079, 968 662.986 C 968.550 661.894, 969.450 660.106, 970 659.014 C 970.550 657.921, 971 656.340, 971 655.500 C 971 654.660, 971.406 653.191, 971.903 652.236 C 972.399 651.281, 973.272 648.700, 973.843 646.500 C 974.413 644.300, 975.582 640.165, 976.440 637.312 C 977.298 634.459, 978 631.223, 978 630.121 C 978 629.019, 978.450 627.840, 979 627.500 C 979.550 627.160, 980 625.424, 980 623.641 C 980 621.858, 980.404 619.973, 980.898 619.450 C 981.391 618.928, 982.035 616.700, 982.327 614.500 C 982.620 612.300, 983.384 608.025, 984.026 605 C 984.667 601.975, 985.365 598.375, 985.577 597 C 985.788 595.625, 986.442 591.575, 987.029 588 C 989.192 574.819, 990.118 568.279, 991.136 559 C 992.574 545.887, 993.340 471.069, 992.062 468.500 C 991.515 467.400, 990.836 463.125, 990.554 459 C 989.459 443.046, 988.805 437.465, 987.919 436.550 C 987.414 436.027, 986.980 433.777, 986.956 431.550 C 986.932 429.322, 986.475 425.475, 985.940 423 C 984.462 416.166, 982.946 407.955, 982.340 403.500 C 982.040 401.300, 981.391 399.072, 980.898 398.550 C 980.404 398.027, 980 396.367, 980 394.859 C 980 393.351, 979.550 391.840, 979 391.500 C 978.450 391.160, 978 389.731, 978 388.325 C 978 386.919, 977.277 383.458, 976.393 380.634 C 973.619 371.771, 973 369.408, 973 367.679 C 973 366.756, 972.550 366, 972 366 C 971.450 366, 971 364.902, 971 363.559 C 971 362.216, 970.550 360.840, 970 360.500 C 969.450 360.160, 969 359.002, 969 357.927 C 969 356.852, 968.609 355.191, 968.132 354.236 C 967.654 353.281, 966.473 350.250, 965.507 347.500 C 961.073 334.875, 960.237 332.804, 955.381 322.400 C 954.071 319.596, 953 316.917, 953 316.448 C 953 315.601, 942.969 294.335, 940.761 290.500 C 940.128 289.400, 938.124 285.575, 936.308 282 L 933.006 275.500 933.015 509 M 0.458 511.500 C 0.458 534.600, 0.589 543.907, 0.749 532.183 C 0.909 520.458, 0.909 501.558, 0.749 490.183 C 0.588 478.807, 0.457 488.400, 0.458 511.500" stroke="none" fill="#e5522a" fill-rule="evenodd"/><path d="M 429.750 38.056 C 428.100 39.040, 428 45.542, 428 152.050 L 428 265 432.504 265 L 437.009 265 436.754 151.250 L 436.500 37.500 434 37.257 C 432.625 37.123, 430.712 37.483, 429.750 38.056 M 591 150.927 L 591 265.115 595.250 264.807 L 599.500 264.500 599.500 151.833 C 599.500 89.867, 599.218 38.885, 598.874 38.540 C 598.530 38.196, 596.617 37.650, 594.624 37.326 L 591 36.738 591 150.927 M 264.750 99.572 L 262 101.064 262.006 509.282 L 262.013 917.500 265.087 919.250 C 266.778 920.213, 268.576 921, 269.081 921 C 269.638 921, 270 758.974, 270 509.500 C 270 180.945, 269.748 98.008, 268.750 98.040 C 268.063 98.062, 266.262 98.751, 264.750 99.572 M 759 509.933 C 759 783.311, 759.335 921, 760 921 C 760.550 921, 761 920.633, 761 920.185 C 761 919.737, 762.573 918.620, 764.495 917.704 L 767.990 916.037 767.998 509.635 L 768.005 103.233 765.752 101.761 C 764.514 100.951, 762.487 99.968, 761.250 99.577 L 759 98.865 759 509.933 M 104 259.922 C 104 260.493, 102.425 263.423, 100.500 266.433 L 97 271.904 97 509.225 L 97 746.546 100.684 752.773 C 102.710 756.198, 104.735 759, 105.184 759 C 106.410 759, 106.227 260.258, 105 259.500 C 104.450 259.160, 104 259.350, 104 259.922 M 923.843 267.748 C 923.654 270.912, 923.623 382.400, 923.773 515.500 L 924.047 757.500 928.023 751.288 L 932 745.076 932 510.141 L 932 275.205 929.002 269.163 C 927.353 265.840, 925.595 262.868, 925.095 262.559 C 924.595 262.249, 924.031 264.585, 923.843 267.748 M 385 395.996 L 385 518 468.785 518 L 552.571 518 566.285 531.667 L 580 545.334 580 600.378 L 580 655.421 566.211 669.211 L 552.421 683 518.610 683 L 484.799 683 471.649 670.258 C 464.417 663.250, 457.952 656.838, 457.282 656.008 C 456.447 654.974, 456.054 649.703, 456.032 639.250 L 456 624 421 624 L 386 624 386.051 653.750 L 386.103 683.500 421.301 719.255 L 456.500 755.010 519.089 755.005 L 581.678 755 590.589 745.618 C 595.490 740.457, 611.313 724.238, 625.750 709.574 L 652 682.914 652 600.429 L 652 517.943 642.265 508.722 C 636.911 503.650, 627.573 494.739, 621.515 488.920 C 615.457 483.101, 602.919 471.176, 593.653 462.420 L 576.807 446.500 516.653 446 L 456.500 445.500 456.241 396.250 L 455.981 347 554.472 347 L 652.962 347 653.510 344.750 C 653.812 343.512, 653.933 327.200, 653.779 308.500 L 653.500 274.500 519.250 274.246 L 385 273.993 385 395.996 M 591 401.297 L 591 447.594 594.792 451.297 C 596.878 453.334, 598.903 455, 599.292 455 C 599.681 455, 600 432.500, 600 405 L 600 355 595.500 355 L 591 355 591 401.297 M 428 571.057 L 428 616.115 432.250 615.807 L 436.500 615.500 436.760 570.750 L 437.021 526 432.510 526 L 428 526 428 571.057 M 428 859.257 C 428 979.918, 428 979.930, 430.052 981.028 C 431.180 981.631, 433.092 981.985, 434.302 981.813 L 436.500 981.500 436.754 864.462 L 437.008 747.424 432.504 743.004 L 428 738.584 428 859.257 M 595.250 753.245 L 591 757.576 591 869.788 C 591 967.250, 591.191 982, 592.453 982 C 595.259 982, 599.053 979.636, 599.548 977.579 C 599.824 976.435, 599.925 924.518, 599.774 862.207 L 599.500 748.915 595.250 753.245" stroke="none" fill="#24346d" fill-rule="evenodd"/></svg>