<?xml version="1.0" encoding="UTF-8" ?>
<!DOCTYPE svg PUBLIC "-//W3C//DTD SVG 1.1//EN" "http://www.w3.org/Graphics/SVG/1.1/DTD/svg11.dtd">
<svg width="600pt" height="600pt" viewBox="0 0 600 600" version="1.1" xmlns="http://www.w3.org/2000/svg">
<path fill="#ffffff" d=" M 0.00 0.00 L 255.44 0.00 C 253.96 0.78 252.67 1.85 251.42 2.95 C 248.00 3.03 244.57 3.01 241.15 2.99 C 240.77 3.49 240.01 4.50 239.63 5.00 C 236.60 4.99 233.58 5.00 230.55 5.04 C 229.97 5.30 228.81 5.81 228.23 6.06 C 227.83 6.55 227.01 7.52 226.61 8.00 C 224.53 8.00 222.46 8.00 220.39 8.00 C 219.95 8.49 219.06 9.48 218.62 9.97 C 214.99 9.82 210.94 9.69 208.44 12.82 C 205.91 12.85 203.40 13.25 201.37 14.87 C 200.38 14.93 199.39 14.98 198.41 15.03 C 197.46 16.02 196.52 17.01 195.58 18.00 C 193.78 18.00 191.98 18.00 190.19 18.00 C 189.80 18.50 189.02 19.50 188.62 20.00 C 187.55 20.00 186.49 20.00 185.42 20.00 C 184.47 21.00 183.53 22.00 182.58 23.00 C 181.19 23.01 179.80 23.02 178.42 23.04 C 177.14 24.05 175.84 25.02 174.54 26.00 C 173.94 26.00 172.75 26.00 172.15 26.00 C 171.77 26.50 171.01 27.50 170.63 28.00 C 169.56 28.00 168.49 28.00 167.42 28.00 C 166.47 29.00 165.52 30.00 164.58 31.00 C 164.03 31.00 162.94 31.00 162.40 31.00 C 161.95 31.49 161.05 32.49 160.61 32.99 C 160.08 33.01 159.03 33.04 158.50 33.06 C 156.71 34.21 154.92 35.36 153.08 36.43 C 153.05 36.79 152.98 37.51 152.95 37.87 C 150.46 37.56 148.24 38.35 147.52 40.95 C 146.53 40.99 145.55 41.03 144.57 41.08 C 143.53 41.87 142.50 42.65 141.45 43.43 C 140.51 45.58 138.66 46.38 136.39 46.12 C 134.80 47.69 133.22 49.28 131.63 50.86 C 129.80 51.04 127.34 50.33 126.29 52.30 C 124.82 54.70 122.86 56.64 120.06 57.36 C 120.02 57.64 119.95 58.21 119.91 58.49 C 117.10 60.01 115.14 62.64 112.48 64.37 C 110.07 65.96 107.72 67.63 105.46 69.42 C 104.68 70.81 103.49 71.82 102.07 72.50 C 102.04 72.86 101.98 73.59 101.95 73.96 C 101.58 73.98 100.85 74.03 100.48 74.06 C 99.85 75.66 98.68 76.83 97.08 77.49 C 97.04 77.74 96.96 78.26 96.92 78.52 C 95.32 79.16 94.15 80.33 93.52 81.94 C 93.15 81.96 92.41 82.02 92.04 82.05 C 92.02 82.42 91.97 83.15 91.94 83.52 C 90.33 84.15 89.15 85.33 88.52 86.94 C 88.15 86.97 87.41 87.02 87.05 87.04 C 87.02 87.41 86.97 88.15 86.94 88.52 C 85.33 89.16 84.15 90.32 83.52 91.94 C 83.15 91.96 82.42 92.02 82.05 92.05 C 82.02 92.41 81.96 93.15 81.94 93.52 C 80.33 94.15 79.16 95.32 78.51 96.92 C 78.26 96.96 77.74 97.04 77.49 97.08 C 76.83 98.68 75.66 99.85 74.06 100.48 C 74.03 100.85 73.98 101.58 73.96 101.94 C 73.59 101.98 72.86 102.05 72.49 102.08 C 68.30 107.73 64.43 113.70 59.22 118.51 C 59.41 120.84 58.38 122.79 56.06 123.48 C 56.03 123.85 55.99 124.59 55.97 124.95 C 55.48 124.98 54.49 125.03 54.00 125.05 C 54.00 126.20 53.99 127.35 53.99 128.50 C 52.42 130.19 50.87 131.90 49.22 133.51 C 49.36 135.71 48.49 137.49 46.47 138.47 C 45.39 139.88 44.24 141.24 43.05 142.55 C 43.04 143.07 43.01 144.09 42.99 144.61 C 42.49 145.05 41.49 145.95 41.00 146.40 C 41.00 147.45 41.00 148.51 41.01 149.58 C 39.35 151.17 37.69 152.75 36.00 154.32 C 36.00 155.40 36.00 156.48 36.00 157.57 C 34.99 158.44 33.98 159.32 32.97 160.20 C 32.98 160.80 33.00 162.00 33.01 162.60 C 32.51 163.05 31.50 163.95 30.99 164.39 C 31.00 165.47 31.00 166.55 31.01 167.63 C 30.01 168.48 29.02 169.33 28.03 170.19 C 27.99 171.29 27.95 172.40 27.91 173.50 C 27.40 173.95 26.37 174.84 25.86 175.29 C 25.93 176.71 25.99 178.13 26.04 179.56 C 25.03 180.51 24.02 181.46 23.01 182.41 C 22.99 183.40 22.96 184.40 22.93 185.40 C 21.56 187.15 19.20 189.15 20.68 191.58 C 21.68 193.31 18.99 193.61 18.05 194.49 C 18.01 195.79 17.97 197.10 17.93 198.41 C 15.37 200.40 14.69 203.57 14.91 206.65 C 14.43 207.04 13.48 207.81 13.00 208.20 C 13.00 210.66 13.00 213.12 13.00 215.58 C 12.00 216.52 11.00 217.47 10.00 218.42 C 10.00 220.48 10.00 222.56 10.00 224.63 C 9.50 225.01 8.50 225.78 8.00 226.17 C 8.00 229.63 8.00 233.10 8.00 236.57 C 6.99 237.44 5.99 238.32 4.99 239.20 C 5.00 242.67 5.00 246.15 5.00 249.62 C 4.50 250.02 3.50 250.82 2.99 251.22 C 2.96 262.18 3.07 273.14 2.96 284.10 C 3.15 285.72 0.91 285.78 0.00 286.69 L 0.00 0.00 Z" />
<path fill="#57007f" d=" M 255.44 0.00 L 348.55 0.00 C 349.26 1.19 350.02 2.49 351.60 2.55 C 354.91 2.92 358.26 2.71 361.59 2.81 C 362.04 3.33 362.96 4.37 363.42 4.89 C 366.19 4.87 368.96 4.88 371.73 4.89 C 372.17 5.42 373.05 6.47 373.49 7.00 C 373.73 6.65 374.19 5.97 374.43 5.62 C 374.89 6.15 375.83 7.20 376.30 7.73 C 378.76 8.14 382.71 6.57 383.58 9.82 C 386.60 9.80 389.62 10.13 392.54 10.95 C 392.99 11.39 393.91 12.25 394.36 12.68 C 396.99 12.59 399.53 13.26 401.68 14.81 C 402.68 14.87 403.68 14.93 404.69 14.99 C 405.58 15.93 406.48 16.88 407.38 17.82 C 409.11 17.83 410.84 17.84 412.58 17.86 C 413.03 18.33 413.95 19.26 414.41 19.73 C 416.46 20.17 418.73 20.58 419.64 22.77 C 421.24 22.84 422.85 22.91 424.47 22.99 C 426.14 24.66 428.30 25.60 430.59 26.11 C 431.04 26.51 431.96 27.32 432.42 27.73 C 434.82 27.50 436.87 28.50 437.47 30.98 C 438.51 30.99 439.56 30.99 440.61 31.00 C 441.06 31.50 441.95 32.50 442.40 33.00 C 442.94 33.00 444.03 33.00 444.58 33.00 C 445.52 34.00 446.47 35.00 447.42 36.00 C 447.97 36.00 449.06 36.00 449.61 36.00 C 450.05 36.50 450.94 37.50 451.39 37.99 C 451.92 38.00 452.98 38.03 453.51 38.04 C 454.21 40.45 456.20 41.46 458.61 41.12 C 460.24 42.72 461.84 44.35 463.44 46.00 C 464.46 46.00 465.48 46.02 466.51 46.03 C 467.14 47.65 468.30 48.84 469.93 49.48 C 469.96 49.86 470.03 50.62 470.07 51.00 C 471.22 51.00 472.38 51.00 473.55 51.00 C 475.13 52.63 476.73 54.24 478.36 55.83 C 479.14 56.11 480.72 56.66 481.50 56.94 L 481.07 54.44 C 481.78 55.48 482.47 56.54 483.13 57.62 C 485.06 59.60 487.21 61.43 488.50 63.93 C 488.86 63.96 489.59 64.01 489.95 64.04 C 489.98 64.53 490.03 65.51 490.05 66.01 C 490.68 66.00 491.95 65.99 492.58 65.99 C 496.39 68.23 498.91 71.99 502.54 74.46 C 504.57 77.39 507.26 79.76 509.76 82.27 C 517.17 89.54 524.39 97.00 531.82 104.26 C 533.32 105.57 533.78 107.57 534.43 109.37 C 536.58 111.27 538.66 113.27 540.60 115.40 C 541.67 116.78 542.81 118.12 543.97 119.44 C 544.01 119.96 544.09 121.00 544.13 121.52 C 545.80 123.14 547.45 124.78 549.12 126.41 C 549.12 127.37 549.13 128.33 549.15 129.29 C 550.83 130.60 552.38 132.05 554.01 133.43 C 554.07 134.44 554.14 135.46 554.21 136.47 C 555.65 138.21 557.13 139.93 558.90 141.36 C 558.83 143.65 559.59 145.71 562.00 146.36 C 562.04 147.37 562.08 148.37 562.13 149.38 C 563.89 151.28 565.44 153.35 566.98 155.42 C 567.02 155.96 567.10 157.05 567.15 157.59 C 567.62 158.03 568.57 158.93 569.05 159.37 C 568.96 161.60 569.53 163.81 572.02 164.36 C 572.05 165.42 572.10 166.48 572.14 167.54 C 572.59 168.01 573.48 168.94 573.92 169.40 C 574.41 171.71 575.31 173.92 577.07 175.57 C 577.11 177.22 577.14 178.86 577.17 180.51 C 578.12 181.03 579.07 181.56 580.04 182.10 C 580.03 183.65 580.04 185.20 580.05 186.76 C 580.58 186.79 581.62 186.86 582.15 186.89 C 582.16 189.08 582.18 191.28 582.18 193.47 C 583.13 194.01 584.09 194.55 585.05 195.10 C 585.06 196.58 585.08 198.07 585.12 199.56 C 585.64 200.00 586.68 200.88 587.20 201.32 C 587.18 202.73 587.17 204.13 587.17 205.54 C 588.10 206.88 589.04 208.21 590.03 209.52 C 590.08 211.86 590.11 214.19 590.12 216.53 C 590.62 216.99 591.64 217.89 592.14 218.34 C 592.16 221.21 592.55 224.06 593.32 226.83 C 593.76 226.82 594.65 226.80 595.09 226.79 C 595.13 230.05 595.14 233.31 595.11 236.57 C 595.63 237.03 596.68 237.95 597.20 238.41 C 597.26 241.75 597.32 245.10 597.28 248.44 C 597.60 249.07 598.26 250.34 598.58 250.97 C 598.94 250.91 599.65 250.78 600.00 250.72 L 600.00 252.51 L 599.56 252.39 C 599.67 252.54 599.89 252.83 600.00 252.98 L 600.00 344.08 C 599.44 345.75 598.41 347.18 597.35 348.56 C 597.20 352.24 597.52 355.96 596.98 359.62 C 596.51 359.86 595.59 360.33 595.12 360.57 C 595.13 363.61 595.13 366.65 595.11 369.69 C 594.67 370.10 593.79 370.91 593.35 371.32 C 592.53 374.01 592.13 376.79 592.12 379.60 C 591.62 380.06 590.62 380.97 590.12 381.43 C 590.40 385.09 590.16 388.95 587.29 391.61 C 587.22 393.28 587.18 394.95 587.15 396.63 C 586.63 397.09 585.61 398.01 585.10 398.47 C 585.07 399.85 585.03 401.23 585.00 402.63 C 581.47 403.41 582.11 406.90 582.13 409.68 C 581.62 410.13 580.58 411.03 580.06 411.49 C 580.04 412.56 580.03 413.65 580.03 414.74 C 579.07 415.62 578.11 416.51 577.17 417.41 C 577.14 418.75 577.11 420.09 577.08 421.44 C 575.35 423.12 574.39 425.32 573.95 427.66 C 573.50 428.11 572.60 429.02 572.15 429.47 C 572.13 430.53 572.11 431.60 572.10 432.67 C 571.06 433.58 570.03 434.50 569.00 435.41 C 569.00 435.96 569.00 437.06 569.00 437.60 C 568.50 438.05 567.50 438.95 567.00 439.39 C 566.98 440.41 566.97 441.43 566.96 442.45 C 565.63 443.79 564.41 445.25 563.50 446.92 C 563.13 446.95 562.39 447.03 562.02 447.07 C 561.99 448.18 561.96 449.30 561.95 450.43 C 559.59 452.30 558.87 455.15 558.61 458.02 C 558.32 457.98 557.74 457.92 557.45 457.89 C 557.06 459.14 556.25 460.00 555.02 460.46 C 554.99 461.50 554.97 462.54 554.97 463.59 C 552.81 464.97 550.81 466.58 548.97 468.36 C 548.97 469.40 548.97 470.45 548.98 471.51 C 547.35 472.13 546.15 473.30 545.52 474.93 C 545.14 474.96 544.38 475.03 544.00 475.07 C 544.00 475.70 544.01 476.96 544.01 477.59 C 541.36 481.78 537.43 484.91 534.01 488.44 C 533.99 488.95 533.96 489.95 533.95 490.45 C 532.63 491.80 531.42 493.25 530.50 494.90 C 530.25 494.95 529.75 495.05 529.50 495.09 C 528.80 496.49 527.79 497.66 526.46 498.47 C 524.08 502.03 520.50 504.49 517.67 507.65 C 515.97 509.30 514.31 510.98 512.65 512.67 C 510.96 514.32 509.28 515.99 507.63 517.69 C 505.95 519.34 504.26 520.99 502.61 522.68 C 499.79 525.67 496.64 528.32 493.57 531.05 C 493.01 531.09 491.88 531.17 491.32 531.21 C 490.88 531.75 490.00 532.81 489.56 533.35 C 489.51 533.40 489.41 533.51 489.36 533.56 C 486.83 536.11 483.83 538.17 481.58 540.99 C 480.50 541.09 479.43 541.19 478.36 541.30 C 477.10 542.90 475.78 544.46 474.52 546.06 C 473.47 546.13 472.42 546.21 471.37 546.29 C 469.80 547.88 468.20 549.45 466.56 550.96 C 464.67 551.44 462.51 551.76 461.60 553.74 C 456.33 557.25 450.68 560.15 445.49 563.78 C 443.30 564.42 441.23 565.42 439.51 566.94 C 438.98 566.99 437.92 567.10 437.38 567.16 C 436.93 567.67 436.04 568.68 435.59 569.18 C 434.52 569.20 433.45 569.23 432.39 569.26 C 431.49 570.18 430.59 571.11 429.70 572.05 C 429.17 572.09 428.13 572.18 427.61 572.23 C 425.10 573.74 422.43 575.15 419.43 575.22 C 418.98 575.70 418.10 576.65 417.66 577.13 C 416.64 577.16 415.62 577.20 414.61 577.26 C 412.54 579.54 409.57 580.27 406.59 580.20 C 406.04 582.63 403.48 582.08 401.60 582.37 C 398.86 585.25 394.70 584.75 391.38 586.42 C 389.19 587.51 386.70 587.19 384.34 587.27 C 383.44 588.18 382.54 589.10 381.65 590.04 C 379.35 590.17 376.88 589.74 374.75 590.83 C 370.31 593.62 364.13 590.49 360.48 595.02 C 357.11 595.16 353.74 595.15 350.38 595.14 C 349.89 595.70 348.93 596.83 348.45 597.39 C 348.24 597.05 347.83 596.36 347.62 596.02 C 347.32 596.32 346.70 596.93 346.39 597.24 C 341.91 597.31 337.44 597.23 332.97 597.31 C 331.08 597.20 329.53 598.42 327.99 599.33 L 327.75 597.96 C 327.08 598.64 326.41 599.32 325.73 600.00 L 276.07 600.00 C 275.92 599.41 275.63 598.24 275.48 597.65 C 275.30 598.08 274.94 598.92 274.76 599.34 C 273.50 598.59 272.34 597.42 270.80 597.36 C 266.17 597.08 261.52 597.55 256.89 597.14 C 254.48 596.84 252.53 594.88 250.01 595.02 C 245.98 594.99 241.46 595.67 238.44 592.34 C 232.40 593.40 227.15 589.73 221.25 589.92 C 220.36 589.02 219.48 588.13 218.60 587.24 C 216.18 587.22 213.75 587.19 211.33 587.16 C 210.89 586.67 210.01 585.69 209.57 585.20 C 208.21 585.08 206.85 584.96 205.49 584.85 C 203.88 583.84 202.16 583.01 200.44 582.20 C 199.42 582.18 198.40 582.16 197.39 582.15 C 196.96 581.65 196.09 580.66 195.66 580.16 C 193.58 579.90 191.52 579.50 189.47 579.09 C 189.01 578.64 188.09 577.74 187.63 577.29 C 185.92 577.16 183.96 577.26 183.37 575.25 C 180.44 575.03 177.81 573.71 175.35 572.22 C 174.36 572.16 173.38 572.10 172.39 572.06 C 171.48 571.11 170.57 570.18 169.66 569.24 C 169.09 569.22 167.96 569.16 167.39 569.13 C 166.93 568.69 166.02 567.79 165.56 567.35 C 163.32 566.81 161.21 565.85 159.46 564.35 C 158.96 564.27 157.97 564.10 157.47 564.02 C 155.58 562.63 153.57 561.30 152.33 559.25 C 151.32 559.21 150.31 559.19 149.30 559.18 C 148.86 558.65 147.98 557.59 147.54 557.06 C 147.00 557.07 145.91 557.08 145.37 557.09 C 142.36 555.08 140.19 551.56 136.42 550.96 C 134.59 549.63 132.94 548.09 131.59 546.29 C 130.56 546.24 129.52 546.20 128.49 546.16 C 126.89 544.49 125.27 542.85 123.65 541.20 C 123.09 541.18 121.98 541.13 121.42 541.11 C 118.07 537.81 114.21 534.98 111.34 531.23 C 110.37 531.17 109.40 531.13 108.44 531.09 C 101.51 524.25 94.75 517.23 87.66 510.56 C 87.60 510.50 87.50 510.40 87.44 510.34 C 81.39 503.99 75.28 497.69 69.00 491.56 C 68.99 490.53 68.98 489.51 68.97 488.49 C 67.35 487.85 66.16 486.69 65.52 485.08 C 65.26 485.04 64.74 484.96 64.48 484.92 C 63.84 483.31 62.65 482.15 61.05 481.51 C 61.03 481.06 61.00 480.16 60.98 479.71 C 60.44 480.12 59.35 480.95 58.81 481.37 C 58.93 480.92 59.18 480.04 59.30 479.60 C 57.75 478.66 58.00 477.49 58.93 476.32 C 57.34 475.09 55.81 473.78 54.28 472.47 C 53.67 470.39 53.81 467.52 51.44 466.57 C 50.66 465.52 49.88 464.47 49.10 463.43 C 49.05 462.96 48.96 462.01 48.92 461.54 C 47.61 460.18 46.42 458.72 45.50 457.08 C 45.21 457.05 44.62 456.98 44.33 456.95 C 44.03 456.32 43.42 455.07 43.12 454.44 C 43.08 453.85 43.00 452.65 42.96 452.06 C 42.44 452.02 41.40 451.96 40.88 451.93 C 40.85 450.50 40.81 449.08 40.77 447.67 C 38.70 446.43 37.36 444.40 35.94 442.52 C 35.90 441.98 35.83 440.91 35.79 440.37 C 34.86 439.47 33.93 438.58 33.00 437.69 C 32.99 436.66 32.98 435.63 32.97 434.62 C 30.66 434.27 30.80 432.10 30.64 430.30 C 29.76 429.40 28.87 428.51 27.97 427.64 C 27.97 426.59 27.96 425.55 27.96 424.51 C 27.43 424.03 26.37 423.06 25.84 422.58 C 25.73 419.95 26.47 416.37 23.05 415.63 C 22.97 414.29 22.90 412.96 22.82 411.64 C 20.21 410.68 19.44 407.57 20.59 405.22 C 19.95 404.12 19.11 403.16 17.92 402.65 C 17.89 401.59 17.86 400.54 17.84 399.49 C 16.94 398.16 16.02 396.83 15.07 395.54 C 15.01 393.83 14.94 392.13 14.87 390.44 C 14.35 390.00 13.33 389.12 12.82 388.67 C 12.80 386.25 12.79 383.84 12.79 381.42 C 11.87 380.53 10.95 379.65 10.03 378.77 C 9.99 376.65 9.94 374.54 9.87 372.44 C 9.36 372.00 8.34 371.12 7.83 370.68 C 7.78 367.57 7.75 364.47 7.78 361.36 C 6.85 360.47 5.92 359.57 4.99 358.68 C 4.40 354.30 6.72 348.75 2.90 345.44 C 2.55 334.46 2.72 323.47 2.76 312.49 C 1.83 312.02 0.91 311.54 0.00 311.05 L 0.00 286.69 C 0.91 285.78 3.15 285.72 2.96 284.10 C 3.07 273.14 2.96 262.18 2.99 251.22 C 3.50 250.82 4.50 250.02 5.00 249.62 C 5.00 246.15 5.00 242.67 4.99 239.20 C 5.99 238.32 6.99 237.44 8.00 236.57 C 8.00 233.10 8.00 229.63 8.00 226.17 C 8.50 225.78 9.50 225.01 10.00 224.63 C 10.00 222.56 10.00 220.48 10.00 218.42 C 11.00 217.47 12.00 216.52 13.00 215.58 C 13.00 213.12 13.00 210.66 13.00 208.20 C 13.48 207.81 14.43 207.04 14.91 206.65 C 14.69 203.57 15.37 200.40 17.93 198.41 C 17.97 197.10 18.01 195.79 18.05 194.49 C 18.99 193.61 21.68 193.31 20.68 191.58 C 19.20 189.15 21.56 187.15 22.93 185.40 C 22.96 184.40 22.99 183.40 23.01 182.41 C 24.02 181.46 25.03 180.51 26.04 179.56 C 25.99 178.13 25.93 176.71 25.86 175.29 C 26.37 174.84 27.40 173.95 27.91 173.50 C 27.95 172.40 27.99 171.29 28.03 170.19 C 29.02 169.33 30.01 168.48 31.01 167.63 C 31.00 166.55 31.00 165.47 30.99 164.39 C 31.50 163.95 32.51 163.05 33.01 162.60 C 33.00 162.00 32.98 160.80 32.97 160.20 C 33.98 159.32 34.99 158.44 36.00 157.57 C 36.00 156.48 36.00 155.40 36.00 154.32 C 37.69 152.75 39.35 151.17 41.01 149.58 C 41.00 148.51 41.00 147.45 41.00 146.40 C 41.49 145.95 42.49 145.05 42.99 144.61 C 43.01 144.09 43.04 143.07 43.05 142.55 C 44.24 141.24 45.39 139.88 46.47 138.47 C 48.49 137.49 49.36 135.71 49.22 133.51 C 50.87 131.90 52.42 130.19 53.99 128.50 C 53.99 127.35 54.00 126.20 54.00 125.05 C 54.49 125.03 55.48 124.98 55.97 124.95 C 55.99 124.59 56.03 123.85 56.06 123.48 C 58.38 122.79 59.41 120.84 59.22 118.51 C 64.43 113.70 68.30 107.73 72.49 102.08 C 72.86 102.05 73.59 101.98 73.96 101.94 C 73.98 101.58 74.03 100.85 74.06 100.48 C 75.66 99.85 76.83 98.68 77.49 97.08 C 77.74 97.04 78.26 96.96 78.51 96.92 C 79.16 95.32 80.33 94.15 81.94 93.52 C 81.96 93.15 82.02 92.41 82.05 92.05 C 82.42 92.02 83.15 91.96 83.52 91.94 C 84.15 90.32 85.33 89.16 86.94 88.52 C 86.97 88.15 87.02 87.41 87.05 87.04 C 87.41 87.02 88.15 86.97 88.52 86.94 C 89.15 85.33 90.33 84.15 91.94 83.52 C 91.97 83.15 92.02 82.42 92.04 82.05 C 92.41 82.02 93.15 81.96 93.52 81.94 C 94.15 80.33 95.32 79.16 96.92 78.52 C 96.96 78.26 97.04 77.74 97.08 77.49 C 98.68 76.83 99.85 75.66 100.48 74.06 C 100.85 74.03 101.58 73.98 101.95 73.96 C 101.98 73.59 102.04 72.86 102.07 72.50 C 103.49 71.82 104.68 70.81 105.46 69.42 C 107.72 67.63 110.07 65.96 112.48 64.37 C 115.14 62.64 117.10 60.01 119.91 58.49 C 119.95 58.21 120.02 57.64 120.06 57.36 C 122.86 56.64 124.82 54.70 126.29 52.30 C 127.34 50.33 129.80 51.04 131.63 50.86 C 133.22 49.28 134.80 47.69 136.39 46.12 C 138.66 46.38 140.51 45.58 141.45 43.43 C 142.50 42.65 143.53 41.87 144.57 41.08 C 145.55 41.03 146.53 40.99 147.52 40.95 C 148.24 38.35 150.46 37.56 152.95 37.87 C 152.98 37.51 153.05 36.79 153.08 36.43 C 154.92 35.36 156.71 34.21 158.50 33.06 C 159.03 33.04 160.08 33.01 160.61 32.99 C 161.05 32.49 161.95 31.49 162.40 31.00 C 162.94 31.00 164.03 31.00 164.58 31.00 C 165.52 30.00 166.47 29.00 167.42 28.00 C 168.49 28.00 169.56 28.00 170.63 28.00 C 171.01 27.50 171.77 26.50 172.15 26.00 C 172.75 26.00 173.94 26.00 174.54 26.00 C 175.84 25.02 177.14 24.05 178.42 23.04 C 179.80 23.02 181.19 23.01 182.58 23.00 C 183.53 22.00 184.47 21.00 185.42 20.00 C 186.49 20.00 187.55 20.00 188.62 20.00 C 189.02 19.50 189.80 18.50 190.19 18.00 C 191.98 18.00 193.78 18.00 195.58 18.00 C 196.52 17.01 197.46 16.02 198.41 15.03 C 199.39 14.98 200.38 14.93 201.37 14.87 C 203.40 13.25 205.91 12.85 208.44 12.82 C 210.94 9.69 214.99 9.82 218.62 9.97 C 219.06 9.48 219.95 8.49 220.39 8.00 C 222.46 8.00 224.53 8.00 226.61 8.00 C 227.01 7.52 227.83 6.55 228.23 6.06 C 228.81 5.81 229.97 5.30 230.55 5.04 C 233.58 5.00 236.60 4.99 239.63 5.00 C 240.01 4.50 240.77 3.49 241.15 2.99 C 244.57 3.01 248.00 3.03 251.42 2.95 C 252.67 1.85 253.96 0.78 255.44 0.00 Z" />
<path fill="#ffffff" d=" M 348.55 0.00 L 600.00 0.00 L 600.00 250.72 C 599.65 250.78 598.94 250.91 598.58 250.97 C 598.26 250.34 597.60 249.07 597.28 248.44 C 597.32 245.10 597.26 241.75 597.20 238.41 C 596.68 237.95 595.63 237.03 595.11 236.57 C 595.14 233.31 595.13 230.05 595.09 226.79 C 594.65 226.80 593.76 226.82 593.32 226.83 C 592.55 224.06 592.16 221.21 592.14 218.34 C 591.64 217.89 590.62 216.99 590.12 216.53 C 590.11 214.19 590.08 211.86 590.03 209.52 C 589.04 208.21 588.10 206.88 587.17 205.54 C 587.17 204.13 587.18 202.73 587.20 201.32 C 586.68 200.88 585.64 200.00 585.12 199.56 C 585.08 198.07 585.06 196.58 585.05 195.10 C 584.09 194.55 583.13 194.01 582.18 193.47 C 582.18 191.28 582.16 189.08 582.15 186.89 C 581.62 186.86 580.58 186.79 580.05 186.76 C 580.04 185.20 580.03 183.65 580.04 182.10 C 579.07 181.56 578.12 181.03 577.17 180.51 C 577.14 178.86 577.11 177.22 577.07 175.57 C 575.31 173.92 574.41 171.71 573.92 169.40 C 573.48 168.94 572.59 168.01 572.14 167.54 C 572.10 166.48 572.05 165.42 572.02 164.36 C 569.53 163.81 568.96 161.60 569.05 159.37 C 568.57 158.93 567.62 158.03 567.15 157.59 C 567.10 157.05 567.02 155.96 566.98 155.42 C 565.44 153.35 563.89 151.28 562.13 149.38 C 562.08 148.37 562.04 147.37 562.00 146.36 C 559.59 145.71 558.83 143.65 558.90 141.36 C 557.13 139.93 555.65 138.21 554.21 136.47 C 554.14 135.46 554.07 134.44 554.01 133.43 C 552.38 132.05 550.83 130.60 549.15 129.29 C 549.13 128.33 549.12 127.37 549.12 126.41 C 547.45 124.78 545.80 123.14 544.13 121.52 C 544.09 121.00 544.01 119.96 543.97 119.44 C 542.81 118.12 541.67 116.78 540.60 115.40 C 538.66 113.27 536.58 111.27 534.43 109.37 C 533.78 107.57 533.32 105.57 531.82 104.26 C 524.39 97.00 517.17 89.54 509.76 82.27 C 507.26 79.76 504.57 77.39 502.54 74.46 C 498.91 71.99 496.39 68.23 492.58 65.99 C 491.95 65.99 490.68 66.00 490.05 66.01 C 490.03 65.51 489.98 64.53 489.95 64.04 C 489.59 64.01 488.86 63.96 488.50 63.93 C 487.21 61.43 485.06 59.60 483.13 57.62 C 482.47 56.54 481.78 55.48 481.07 54.44 L 481.50 56.94 C 480.72 56.66 479.14 56.11 478.36 55.83 C 476.73 54.24 475.13 52.63 473.55 51.00 C 472.38 51.00 471.22 51.00 470.07 51.00 C 470.03 50.62 469.96 49.86 469.93 49.48 C 468.30 48.84 467.14 47.65 466.51 46.03 C 465.48 46.02 464.46 46.00 463.44 46.00 C 461.84 44.35 460.24 42.72 458.61 41.12 C 456.20 41.46 454.21 40.45 453.51 38.04 C 452.98 38.03 451.92 38.00 451.39 37.99 C 450.94 37.50 450.05 36.50 449.61 36.00 C 449.06 36.00 447.97 36.00 447.42 36.00 C 446.47 35.00 445.52 34.00 444.58 33.00 C 444.03 33.00 442.94 33.00 442.40 33.00 C 441.95 32.50 441.06 31.50 440.61 31.00 C 439.56 30.99 438.51 30.99 437.47 30.98 C 436.87 28.50 434.82 27.50 432.42 27.73 C 431.96 27.32 431.04 26.51 430.59 26.11 C 428.30 25.60 426.14 24.66 424.47 22.99 C 422.85 22.91 421.24 22.84 419.64 22.77 C 418.73 20.58 416.46 20.17 414.41 19.73 C 413.95 19.26 413.03 18.33 412.58 17.86 C 410.84 17.84 409.11 17.83 407.38 17.82 C 406.48 16.88 405.58 15.93 404.69 14.99 C 403.68 14.93 402.68 14.87 401.68 14.81 C 399.53 13.26 396.99 12.59 394.36 12.68 C 393.91 12.25 392.99 11.39 392.54 10.95 C 389.62 10.13 386.60 9.80 383.58 9.82 C 382.71 6.57 378.76 8.14 376.30 7.73 C 375.83 7.20 374.89 6.15 374.43 5.62 C 374.19 5.97 373.73 6.65 373.49 7.00 C 373.05 6.47 372.17 5.42 371.73 4.89 C 368.96 4.88 366.19 4.87 363.42 4.89 C 362.96 4.37 362.04 3.33 361.59 2.81 C 358.26 2.71 354.91 2.92 351.60 2.55 C 350.02 2.49 349.26 1.19 348.55 0.00 Z" />
<path fill="#ffffff" d=" M 283.04 15.98 C 285.42 16.17 287.55 14.77 289.94 14.98 C 297.98 15.10 306.04 14.84 314.07 15.10 C 317.36 16.80 321.50 14.92 324.49 16.92 C 329.80 17.09 335.12 16.96 340.43 17.02 C 340.41 25.02 340.41 33.03 340.40 41.03 C 340.32 43.44 341.57 45.58 342.01 47.89 C 342.32 56.62 341.81 65.35 341.81 74.08 C 341.86 75.57 341.18 76.92 340.64 78.25 C 339.95 82.46 340.43 86.74 340.35 90.98 C 340.23 114.04 340.46 137.10 340.27 160.16 C 325.19 160.14 310.10 160.17 295.02 160.14 C 292.34 160.08 288.43 160.80 288.19 164.12 C 287.67 173.40 288.17 182.72 288.00 192.01 C 288.19 198.92 287.59 205.83 288.12 212.73 C 288.19 216.15 291.99 217.72 294.97 217.38 C 334.10 217.31 373.24 217.48 412.37 217.30 C 411.95 217.61 411.10 218.22 410.67 218.53 C 410.31 224.49 410.57 230.48 410.62 236.46 C 392.58 271.35 374.01 305.99 355.80 340.80 C 352.92 346.38 349.66 351.77 347.12 357.53 C 347.16 311.02 347.11 264.51 347.14 218.01 L 346.52 218.00 C 344.49 217.99 342.46 217.97 340.44 217.96 C 340.17 263.31 340.43 308.67 340.31 354.02 C 340.23 358.61 340.72 363.25 339.79 367.78 C 340.15 368.36 340.51 368.94 340.88 369.53 C 336.93 376.15 333.23 382.99 330.19 390.09 L 329.97 390.49 C 323.88 400.74 318.47 411.39 313.24 422.10 L 313.04 422.53 C 305.27 435.48 299.11 449.35 291.58 462.46 C 290.44 465.12 287.88 467.89 289.02 470.96 C 289.43 472.71 290.90 474.33 292.85 474.00 C 308.66 474.04 324.46 473.94 340.27 474.04 C 340.39 509.36 340.37 544.68 340.28 579.99 C 332.18 580.01 324.09 580.00 316.00 579.98 C 313.58 579.85 311.40 581.25 308.98 581.02 C 300.35 580.93 291.71 581.10 283.09 580.95 C 282.69 580.73 281.90 580.30 281.51 580.08 C 278.63 579.95 275.75 580.00 272.88 580.01 C 272.90 413.66 272.86 247.31 272.90 80.96 C 273.12 78.83 271.76 77.10 270.76 75.38 C 270.70 65.58 270.68 55.78 270.77 45.99 C 271.56 44.80 273.05 43.78 272.97 42.19 C 272.86 33.82 272.89 25.45 272.87 17.07 C 274.75 17.04 276.63 17.00 278.51 16.91 C 279.65 15.54 281.53 16.20 283.04 15.98 Z" />
<path fill="#ffffff" d=" M 264.55 17.94 C 265.04 17.63 266.02 17.01 266.51 16.70 C 266.60 204.46 266.52 392.23 266.55 579.99 C 264.23 579.75 261.46 580.75 259.51 579.12 C 258.99 579.08 257.95 578.99 257.43 578.95 C 256.66 578.19 255.89 577.45 255.12 576.71 L 254.98 578.05 C 251.53 575.92 247.20 577.43 243.37 577.00 C 242.93 576.51 242.07 575.52 241.64 575.02 C 241.10 574.99 240.03 574.92 239.49 574.89 C 237.85 573.32 235.38 574.20 233.36 573.99 C 232.93 573.49 232.07 572.50 231.64 572.00 C 229.88 571.99 228.12 571.99 226.37 572.00 C 225.93 571.51 225.07 570.52 224.64 570.02 C 224.10 569.99 223.03 569.93 222.49 569.89 C 221.15 568.46 219.06 569.15 217.36 568.97 C 216.93 568.48 216.07 567.51 215.64 567.02 C 212.62 567.41 209.72 566.71 207.47 564.60 C 205.88 563.77 204.08 564.01 202.36 563.97 C 201.93 563.49 201.08 562.53 200.65 562.05 C 198.65 562.23 196.72 561.98 195.67 560.07 C 196.60 560.05 198.48 560.00 199.41 559.98 L 200.01 559.97 C 200.00 531.79 199.99 503.62 200.04 475.44 C 207.36 475.44 214.69 475.41 222.01 475.49 C 224.46 475.59 226.84 474.96 229.17 474.26 C 229.89 472.24 230.61 470.17 230.54 467.99 C 230.53 369.00 230.49 270.01 230.56 171.03 C 230.35 167.64 231.49 162.98 228.00 160.91 C 224.55 159.33 220.62 159.93 216.95 159.83 C 211.30 159.98 205.60 159.38 200.02 160.50 C 199.95 119.17 200.18 77.82 199.90 36.49 L 199.86 35.32 C 201.40 35.14 202.46 34.07 203.49 33.04 C 204.87 33.01 206.25 33.00 207.63 33.00 C 208.06 32.51 208.92 31.52 209.35 31.03 C 211.88 31.29 214.34 30.77 216.39 29.24 C 218.55 27.77 221.14 27.90 223.64 27.99 C 224.06 27.50 224.92 26.53 225.35 26.05 C 227.85 26.16 230.31 25.70 232.66 24.86 C 233.09 24.39 233.96 23.46 234.39 23.00 C 236.80 23.00 239.22 23.00 241.64 23.00 C 242.07 22.50 242.93 21.50 243.36 21.00 C 245.76 21.00 248.15 21.00 250.55 21.00 C 250.43 21.83 250.20 23.50 250.08 24.34 C 250.66 22.84 250.94 21.07 252.37 20.09 C 253.57 19.99 254.77 19.94 255.98 19.94 C 255.99 19.45 256.02 18.48 256.03 18.00 C 258.87 18.01 261.71 18.02 264.55 17.94 Z" />
<path fill="#180a5d" d=" M 266.51 16.70 L 268.16 16.95 C 268.57 29.34 268.05 41.73 268.46 54.12 C 268.96 51.37 268.61 48.11 270.77 45.99 C 270.68 55.78 270.70 65.58 270.76 75.38 C 270.15 75.67 268.91 76.26 268.29 76.55 C 268.33 227.04 268.29 377.53 268.31 528.02 C 268.17 545.36 268.52 562.70 268.15 580.04 L 266.55 579.99 C 266.52 392.23 266.60 204.46 266.51 16.70 Z" />
<path fill="#200f6d" d=" M 268.16 16.95 C 269.73 16.99 271.30 17.03 272.87 17.07 C 272.89 25.45 272.86 33.82 272.97 42.19 C 273.05 43.78 271.56 44.80 270.77 45.99 C 268.61 48.11 268.96 51.37 268.46 54.12 C 268.05 41.73 268.57 29.34 268.16 16.95 Z" />
<path fill="#210e70" d=" M 340.43 17.02 C 342.49 16.99 344.54 16.97 346.61 16.95 C 346.97 50.64 346.68 84.34 346.76 118.04 C 346.56 132.04 347.13 146.07 346.48 160.06 C 344.53 160.01 342.58 159.99 340.63 159.98 C 340.46 132.74 340.50 105.49 340.64 78.25 C 341.18 76.92 341.86 75.57 341.81 74.08 C 341.81 65.35 342.32 56.62 342.01 47.89 C 341.57 45.58 340.32 43.44 340.40 41.03 C 340.41 33.03 340.41 25.02 340.43 17.02 Z" />
<path fill="#ffffff" d=" M 346.82 17.00 L 347.87 17.00 C 347.89 17.50 347.92 18.51 347.93 19.01 C 349.60 19.01 351.28 19.01 352.96 19.00 C 352.98 19.46 353.01 20.36 353.03 20.82 C 354.52 21.32 356.01 21.84 357.52 22.31 C 359.64 23.51 362.18 22.83 364.50 23.11 C 366.59 24.47 369.06 25.02 371.52 25.21 C 373.23 26.56 375.66 25.48 377.44 26.72 C 379.48 28.38 382.24 27.56 384.45 28.71 C 386.97 30.04 389.67 31.14 392.57 31.16 C 393.50 31.77 394.43 32.38 395.37 32.98 C 395.92 33.01 397.00 33.07 397.55 33.10 C 398.05 33.41 399.07 34.03 399.57 34.34 C 401.65 35.72 404.15 35.88 406.43 36.71 C 407.72 37.42 409.08 38.00 410.58 38.11 C 410.49 78.76 410.57 119.41 410.54 160.06 C 389.31 160.22 368.07 160.21 346.83 160.06 C 346.78 112.38 346.80 64.69 346.82 17.00 Z" />
<path fill="#200f75" d=" M 194.94 36.98 C 196.46 36.37 198.03 35.90 199.62 35.48 C 199.18 65.65 199.56 95.84 199.43 126.01 C 199.50 137.39 199.27 148.77 199.58 160.14 C 198.69 161.12 197.80 162.11 196.92 163.10 C 194.00 159.37 195.27 154.40 195.05 150.04 C 195.13 112.71 195.22 75.37 194.97 38.03 L 194.94 36.98 Z" />
<path fill="#838386" d=" M 199.62 35.48 L 199.90 36.49 C 200.18 77.82 199.95 119.17 200.02 160.50 C 205.60 159.38 211.30 159.98 216.95 159.83 C 220.62 159.93 224.55 159.33 228.00 160.91 C 231.49 162.98 230.35 167.64 230.56 171.03 C 230.49 270.01 230.53 369.00 230.54 467.99 C 230.61 470.17 229.89 472.24 229.17 474.26 C 226.84 474.96 224.46 475.59 222.01 475.49 C 214.69 475.41 207.36 475.44 200.04 475.44 C 199.99 503.62 200.00 531.79 200.01 559.97 L 199.41 559.98 C 199.41 531.75 199.56 503.52 199.33 475.29 C 197.42 475.34 195.50 475.39 193.59 475.43 C 188.72 475.39 183.84 475.63 178.98 475.35 C 176.07 475.27 172.97 473.08 173.40 469.87 C 173.35 395.75 173.36 321.61 173.39 247.49 C 167.29 247.39 161.18 247.64 155.09 247.42 C 152.33 247.46 150.41 244.65 150.49 242.07 C 150.30 234.69 150.41 227.29 150.43 219.90 C 150.26 217.59 151.42 215.56 152.93 213.93 C 166.52 198.25 179.96 182.45 193.66 166.87 C 194.74 165.61 195.82 164.34 196.92 163.10 C 197.80 162.11 198.69 161.12 199.58 160.14 C 199.27 148.77 199.50 137.39 199.43 126.01 C 199.56 95.84 199.18 65.65 199.62 35.48 Z" />
<path fill="#ffffff" d=" M 190.40 37.99 C 191.47 38.01 192.54 38.04 193.62 38.06 C 193.62 80.99 193.54 123.93 193.66 166.87 C 179.96 182.45 166.52 198.25 152.93 213.93 C 151.42 215.56 150.26 217.59 150.43 219.90 C 150.41 227.29 150.30 234.69 150.49 242.07 C 150.41 244.65 152.33 247.46 155.09 247.42 C 161.18 247.64 167.29 247.39 173.39 247.49 C 173.36 321.61 173.35 395.75 173.40 469.87 C 172.97 473.08 176.07 475.27 178.98 475.35 C 183.84 475.63 188.72 475.39 193.59 475.43 C 193.59 503.67 193.61 531.91 193.58 560.15 C 193.06 559.96 192.03 559.57 191.51 559.38 C 190.42 558.71 189.43 557.90 188.50 557.05 C 187.46 557.02 186.42 557.00 185.38 556.99 C 184.46 555.99 183.53 554.99 182.62 554.00 C 181.54 553.99 180.46 553.99 179.39 554.00 C 178.96 553.54 178.10 552.61 177.67 552.14 C 176.59 551.97 175.53 551.74 174.49 551.45 C 173.46 550.70 172.47 549.91 171.51 549.09 C 171.01 549.04 170.00 548.92 169.49 548.86 C 167.95 547.83 166.29 546.98 164.55 546.35 C 163.42 545.74 162.44 544.91 161.51 544.07 C 160.99 544.04 159.96 543.98 159.44 543.95 C 157.86 541.78 155.04 541.00 153.63 538.71 C 151.55 539.67 149.96 538.08 149.72 536.02 C 149.17 536.00 148.05 535.96 147.49 535.94 C 146.55 535.07 145.62 534.15 144.38 533.74 C 143.45 532.91 142.54 532.08 141.62 531.26 C 140.18 530.45 138.81 529.54 137.38 528.74 C 136.46 527.91 135.54 527.07 134.61 526.27 C 132.45 525.50 131.30 523.11 128.97 522.71 L 128.97 522.40 C 129.63 462.28 129.18 402.14 129.31 342.02 C 129.34 254.67 129.27 167.33 129.35 79.99 C 129.20 78.37 129.77 76.24 127.90 75.33 C 128.32 75.32 129.16 75.29 129.59 75.28 C 130.18 74.89 131.38 74.13 131.98 73.75 C 131.99 73.38 132.01 72.66 132.02 72.29 C 133.87 71.95 135.05 70.42 136.40 69.27 C 137.84 68.49 139.18 67.54 140.53 66.63 C 141.14 66.41 142.36 65.98 142.97 65.76 C 142.99 65.40 143.02 64.67 143.04 64.31 C 144.69 63.69 146.08 62.60 147.59 61.71 C 150.43 60.60 152.34 58.15 154.39 56.02 C 154.92 56.00 155.97 55.96 156.50 55.94 C 158.35 54.27 160.49 53.00 162.53 51.59 C 163.54 51.26 164.58 51.01 165.64 50.84 C 166.07 50.42 166.93 49.58 167.36 49.16 C 168.42 48.97 169.47 48.74 170.51 48.45 C 171.50 47.72 172.48 46.97 173.46 46.23 C 174.90 45.93 176.27 45.38 177.62 44.80 C 178.10 44.50 179.05 43.91 179.53 43.62 C 180.54 43.24 181.59 42.99 182.66 42.86 C 183.10 42.39 183.96 41.46 184.39 41.00 C 185.46 41.00 186.54 41.00 187.62 41.00 C 188.54 39.99 189.47 39.00 190.40 37.99 Z" />
<path fill="#1f135a" d=" M 193.62 38.06 L 194.97 38.03 C 195.22 75.37 195.13 112.71 195.05 150.04 C 195.27 154.40 194.00 159.37 196.92 163.10 C 195.82 164.34 194.74 165.61 193.66 166.87 C 193.54 123.93 193.62 80.99 193.62 38.06 Z" />
<path fill="#231167" d=" M 410.58 38.11 C 412.18 39.05 413.69 40.14 415.12 41.33 C 414.87 80.89 415.14 120.46 415.02 160.02 C 413.52 160.01 412.03 160.02 410.54 160.06 C 410.57 119.41 410.49 78.76 410.58 38.11 Z" />
<path fill="#11015b" d=" M 415.12 41.33 L 416.34 40.59 C 416.92 75.71 416.45 110.84 416.60 145.97 C 416.44 150.65 417.13 155.39 416.25 160.02 L 415.02 160.02 C 415.14 120.46 414.87 80.89 415.12 41.33 Z" />
<path fill="#ffffff" d=" M 416.75 40.64 C 417.65 41.40 418.55 42.16 419.44 42.94 C 419.98 42.97 421.07 43.04 421.61 43.07 C 422.92 43.93 424.21 44.82 425.47 45.77 C 427.67 46.18 429.62 47.29 431.62 48.23 C 433.03 48.94 434.33 49.85 435.50 50.92 C 436.00 50.96 437.01 51.04 437.51 51.08 C 438.45 51.92 439.40 52.81 440.60 53.29 C 442.06 53.91 443.34 54.84 444.50 55.93 C 445.02 55.96 446.06 56.01 446.59 56.04 C 447.49 56.96 448.41 57.87 449.36 58.75 C 451.07 59.67 452.68 60.79 454.40 61.72 C 455.81 62.51 457.15 63.44 458.53 64.29 C 460.53 65.73 462.53 67.16 464.46 68.71 C 467.36 70.28 469.71 72.68 472.59 74.28 C 473.95 75.42 475.13 76.95 476.98 77.29 C 476.99 77.65 477.01 78.37 477.02 78.72 C 478.59 78.97 480.02 80.03 480.56 81.56 C 480.51 226.31 480.64 371.06 480.49 515.81 C 480.32 516.29 479.96 517.25 479.79 517.72 C 478.06 518.18 476.91 519.61 475.60 520.72 C 474.02 521.37 472.84 522.62 471.59 523.72 C 470.08 524.60 468.68 525.68 467.04 526.31 C 467.02 526.67 466.99 527.40 466.97 527.76 C 466.36 527.98 465.14 528.41 464.53 528.63 C 463.17 529.54 461.84 530.50 460.39 531.26 C 459.45 532.08 458.53 532.91 457.61 533.74 C 455.45 534.86 453.49 536.30 451.54 537.74 C 448.88 538.42 446.98 540.42 445.09 542.26 L 444.89 540.70 C 443.77 541.77 442.66 542.86 441.57 543.96 C 441.05 543.99 440.02 544.04 439.50 544.07 C 438.34 545.15 437.06 546.08 435.60 546.71 C 434.40 547.19 433.45 548.07 432.51 548.92 C 432.01 548.96 431.00 549.04 430.50 549.08 C 429.53 549.90 428.54 550.70 427.51 551.46 C 426.46 551.75 425.40 551.97 424.34 552.14 C 423.91 552.61 423.05 553.54 422.62 554.00 C 421.96 554.00 420.66 554.00 420.01 554.00 C 420.00 554.73 420.00 556.20 420.00 556.93 C 419.19 557.00 417.57 557.13 416.76 557.20 C 417.33 550.79 416.69 544.34 417.19 537.92 C 417.83 528.30 416.99 518.69 416.96 509.07 C 417.80 484.73 417.21 460.36 417.38 436.01 C 417.45 404.99 417.25 373.97 417.47 342.96 C 423.93 331.76 429.41 320.05 435.83 308.84 C 440.57 299.87 445.34 290.92 450.02 281.92 C 455.22 273.30 459.27 264.05 464.35 255.35 C 466.44 251.52 469.22 247.64 468.95 243.06 C 468.86 217.37 469.00 191.67 468.87 165.98 C 469.03 162.72 466.17 160.18 463.01 160.26 C 447.61 159.88 432.18 160.41 416.77 160.03 C 416.67 123.68 416.78 87.34 416.72 50.99 C 416.77 48.99 416.46 46.90 417.26 45.00 C 416.78 43.60 416.61 42.15 416.75 40.64 Z" />
<path fill="#1a0f58" d=" M 272.45 48.12 C 272.28 45.81 274.65 43.74 276.92 44.10 C 289.32 44.07 301.71 44.13 314.10 44.06 C 315.94 46.44 317.76 48.83 319.64 51.18 C 319.06 51.49 317.90 52.13 317.32 52.45 C 317.30 55.02 317.29 57.60 317.25 60.18 C 316.63 60.03 315.39 59.75 314.77 59.60 C 314.38 57.66 316.29 56.02 315.52 54.07 C 314.96 49.06 309.28 47.01 304.88 47.22 C 300.24 44.91 294.96 46.23 290.01 46.00 C 284.93 46.23 279.65 45.14 274.72 46.68 C 273.42 51.34 274.49 56.24 274.29 61.00 C 274.45 65.72 273.50 70.58 274.76 75.21 C 281.10 76.89 287.77 75.43 294.25 75.87 C 293.56 69.18 299.19 63.68 297.53 56.94 C 298.31 56.91 299.87 56.86 300.65 56.84 C 300.76 58.22 300.41 59.58 300.19 60.93 C 301.73 61.21 302.04 62.29 301.72 63.69 C 297.58 65.94 296.21 70.84 296.42 75.26 C 298.26 75.23 299.97 75.65 301.14 77.23 C 300.63 77.43 299.60 77.83 299.09 78.03 C 291.40 77.55 283.69 77.92 275.99 77.78 C 273.91 77.97 272.36 75.78 272.45 73.87 C 272.45 65.29 272.44 56.70 272.45 48.12 Z" />
<path fill="#1b191b" d=" M 319.38 43.81 C 325.27 44.26 331.19 43.76 337.09 44.17 C 338.58 44.23 339.41 45.66 340.45 46.53 C 340.34 56.07 340.40 65.60 340.41 75.14 C 340.06 75.68 339.36 76.76 339.01 77.29 C 337.08 77.97 335.03 78.51 333.01 77.90 C 331.24 78.48 327.92 78.27 328.52 75.49 C 330.74 75.39 332.97 75.36 335.20 75.36 C 335.67 75.02 336.62 74.33 337.09 73.99 C 337.54 73.00 338.00 72.02 338.48 71.05 C 337.12 69.14 336.24 66.64 333.75 65.96 C 333.32 65.01 332.91 64.05 332.50 63.10 C 326.91 57.57 323.61 50.33 319.38 43.81 Z" />
<path fill="#241575" d=" M 274.72 46.68 C 279.65 45.14 284.93 46.23 290.01 46.00 C 294.96 46.23 300.24 44.91 304.88 47.22 L 305.10 47.31 C 302.39 48.64 299.86 50.82 300.23 54.15 C 298.92 54.93 297.59 55.67 296.21 56.31 C 296.54 56.46 297.20 56.78 297.53 56.94 C 299.19 63.68 293.56 69.18 294.25 75.87 C 287.77 75.43 281.10 76.89 274.76 75.21 C 273.50 70.58 274.45 65.72 274.29 61.00 C 274.49 56.24 273.42 51.34 274.72 46.68 Z" />
<path fill="#231370" d=" M 319.64 51.18 L 319.77 51.11 C 321.61 53.86 323.93 56.27 325.76 59.04 C 325.71 59.67 325.62 60.94 325.57 61.57 C 323.18 59.65 320.08 60.09 317.25 60.18 C 317.29 57.60 317.30 55.02 317.32 52.45 C 317.90 52.13 319.06 51.49 319.64 51.18 Z" />
<path fill="#1d1357" d=" M 278.11 72.60 C 273.29 70.01 279.65 62.70 283.21 66.78 C 286.53 68.10 285.35 74.12 281.49 72.70 C 282.53 71.63 284.29 69.85 282.73 68.42 C 281.56 66.30 279.10 67.39 278.09 69.00 C 278.09 69.47 278.10 70.42 278.10 70.89 L 278.11 72.60 Z" />
<path fill="#faf9ff" d=" M 278.09 69.00 C 279.10 67.39 281.56 66.30 282.73 68.42 C 284.29 69.85 282.53 71.63 281.49 72.70 C 280.12 72.65 278.92 71.98 278.10 70.89 C 278.10 70.42 278.09 69.47 278.09 69.00 Z" />
<path fill="#25107e" d=" M 125.15 78.30 C 126.07 77.31 126.98 76.33 127.90 75.33 C 127.55 80.22 127.71 85.12 127.68 90.01 C 127.68 206.33 127.68 322.65 127.68 438.97 C 127.78 466.38 127.49 493.80 127.82 521.21 C 126.87 520.78 125.92 520.37 124.98 519.96 L 125.00 519.39 C 125.44 491.29 125.06 463.17 125.19 435.07 C 125.15 316.32 125.23 197.58 125.15 78.83 L 125.15 78.30 Z" />
<path fill="#0f013d" d=" M 127.90 75.33 C 129.77 76.24 129.20 78.37 129.35 79.99 C 129.27 167.33 129.34 254.67 129.31 342.02 C 129.18 402.14 129.63 462.28 128.97 522.40 C 128.68 522.10 128.11 521.50 127.82 521.21 C 127.49 493.80 127.78 466.38 127.68 438.97 C 127.68 322.65 127.68 206.33 127.68 90.01 C 127.71 85.12 127.55 80.22 127.90 75.33 Z" />
<path fill="#200f6d" d=" M 268.29 76.55 C 268.91 76.26 270.15 75.67 270.76 75.38 C 271.76 77.10 273.12 78.83 272.90 80.96 C 272.86 247.31 272.90 413.66 272.88 580.01 C 271.30 580.01 269.72 580.02 268.15 580.04 C 268.52 562.70 268.17 545.36 268.31 528.02 C 268.29 377.53 268.33 227.04 268.29 76.55 Z" />
<path fill="#838385" d=" M 340.35 90.98 C 340.43 86.74 339.95 82.46 340.64 78.25 C 340.50 105.49 340.46 132.74 340.63 159.98 C 342.58 159.99 344.53 160.01 346.48 160.06 L 346.83 160.06 C 368.07 160.21 389.31 160.22 410.54 160.06 C 412.03 160.02 413.52 160.01 415.02 160.02 L 416.25 160.02 L 416.77 160.03 C 432.18 160.41 447.61 159.88 463.01 160.26 C 466.17 160.18 469.03 162.72 468.87 165.98 C 469.00 191.67 468.86 217.37 468.95 243.06 C 469.22 247.64 466.44 251.52 464.35 255.35 C 459.27 264.05 455.22 273.30 450.02 281.92 C 445.34 290.92 440.57 299.87 435.83 308.84 C 429.41 320.05 423.93 331.76 417.47 342.96 C 416.87 344.09 416.27 345.24 415.73 346.41 C 415.50 346.92 415.03 347.94 414.79 348.45 C 414.73 348.60 414.59 348.90 414.52 349.05 L 413.90 350.11 C 413.77 350.33 413.51 350.78 413.38 351.01 L 412.85 352.03 L 412.50 352.51 L 412.34 353.09 L 411.83 354.11 C 411.71 354.33 411.48 354.77 411.37 354.99 L 410.87 355.99 C 410.78 356.17 410.60 356.51 410.51 356.68 L 410.85 356.54 C 410.57 410.69 410.80 464.85 410.72 519.00 C 410.62 531.66 410.96 544.32 410.54 556.98 C 410.13 490.33 410.70 423.67 410.26 357.02 C 404.97 366.24 399.91 375.60 395.13 385.10 C 381.29 410.40 368.11 436.05 354.19 461.30 C 351.84 465.61 350.16 470.34 346.96 474.13 L 346.56 474.11 C 344.59 474.03 342.62 473.99 340.65 473.95 C 340.43 509.29 340.49 544.65 340.63 580.00 L 340.28 579.99 C 340.37 544.68 340.39 509.36 340.27 474.04 C 324.46 473.94 308.66 474.04 292.85 474.00 C 290.90 474.33 289.43 472.71 289.02 470.96 C 287.88 467.89 290.44 465.12 291.58 462.46 C 299.11 449.35 305.27 435.48 313.04 422.53 C 313.09 422.42 313.19 422.20 313.24 422.10 C 318.47 411.39 323.88 400.74 329.97 390.49 C 330.01 390.42 330.11 390.26 330.15 390.18 L 330.19 390.09 C 333.23 382.99 336.93 376.15 340.88 369.53 C 340.51 368.94 340.15 368.36 339.79 367.78 C 340.72 363.25 340.23 358.61 340.31 354.02 C 340.43 308.67 340.17 263.31 340.44 217.96 C 340.72 266.98 340.40 316.02 340.60 365.05 C 340.45 366.41 341.28 367.54 341.82 368.72 C 342.20 366.52 343.04 364.46 344.27 362.61 C 344.35 362.46 344.51 362.17 344.60 362.03 L 345.06 361.18 C 345.21 360.90 345.51 360.33 345.67 360.04 L 346.29 358.88 C 346.34 358.76 346.46 358.54 346.52 358.43 L 346.49 358.26 C 346.57 311.51 346.51 264.76 346.52 218.00 L 347.14 218.01 C 347.11 264.51 347.16 311.02 347.12 357.53 C 349.66 351.77 352.92 346.38 355.80 340.80 C 374.01 305.99 392.58 271.35 410.62 236.46 C 410.81 236.02 411.19 235.16 411.38 234.73 L 411.61 234.26 C 412.92 232.43 412.62 230.12 412.66 228.01 C 412.57 224.44 412.50 220.87 412.37 217.30 C 373.24 217.48 334.10 217.31 294.97 217.38 C 291.99 217.72 288.19 216.15 288.12 212.73 C 288.62 210.17 289.09 207.60 289.05 204.99 C 288.98 193.64 288.96 182.30 289.07 170.96 C 289.09 168.65 288.63 166.37 288.19 164.12 C 288.43 160.80 292.34 160.08 295.02 160.14 C 310.10 160.17 325.19 160.14 340.27 160.16 C 340.46 137.10 340.23 114.04 340.35 90.98 Z" />
<path fill="#1a0f58" d=" M 123.44 79.22 C 123.87 79.12 124.72 78.93 125.15 78.83 C 125.23 197.58 125.15 316.32 125.19 435.07 C 125.06 463.17 125.44 491.29 125.00 519.39 C 124.46 518.86 123.96 518.32 123.48 517.75 C 123.11 491.51 123.43 465.25 123.32 438.99 C 123.32 320.36 123.32 201.72 123.32 83.09 C 123.35 82.12 123.41 80.18 123.44 79.22 Z" />
<path fill="#ffffff" d=" M 115.63 86.75 C 118.32 84.33 120.74 81.63 123.44 79.22 C 123.41 80.18 123.35 82.12 123.32 83.09 C 123.32 201.72 123.32 320.36 123.32 438.99 C 123.43 465.25 123.11 491.51 123.48 517.75 C 119.29 514.60 115.79 510.49 111.37 507.75 C 105.88 502.55 100.67 497.06 95.26 491.78 C 93.95 490.44 92.37 489.20 91.76 487.36 C 87.45 482.90 83.69 477.98 79.26 473.63 C 78.47 472.18 77.56 470.81 76.72 469.41 C 75.63 468.14 74.34 466.98 73.74 465.38 C 72.92 464.45 72.09 463.53 71.26 462.62 C 70.45 461.18 69.55 459.81 68.73 458.40 C 67.59 457.05 66.06 455.87 65.72 454.04 C 65.30 454.01 64.45 453.97 64.02 453.95 C 64.00 452.80 63.98 451.65 63.95 450.51 C 62.68 449.22 62.01 447.31 60.27 446.55 L 60.27 446.31 C 60.34 347.81 60.33 249.30 60.28 150.79 C 60.47 149.59 61.61 148.95 62.71 148.75 C 63.01 148.19 63.61 147.07 63.91 146.51 C 63.95 145.35 63.99 144.19 64.03 143.03 C 64.45 143.01 65.30 142.99 65.72 142.97 C 66.05 141.12 67.58 139.95 68.73 138.60 C 69.55 137.18 70.45 135.81 71.27 134.40 C 72.42 133.05 73.95 131.87 74.28 130.02 C 74.66 130.01 75.40 129.99 75.77 129.98 C 75.98 129.36 76.39 128.12 76.60 127.50 C 77.99 124.62 81.50 123.22 82.28 120.02 C 82.64 120.01 83.36 119.99 83.72 119.98 C 84.39 116.70 88.26 115.50 89.24 112.36 C 91.16 109.85 94.41 108.21 95.28 105.02 C 95.65 105.01 96.37 104.99 96.73 104.98 C 96.88 103.28 98.09 102.11 99.70 101.71 C 100.65 99.44 102.51 97.31 104.97 96.71 C 104.99 96.36 105.01 95.64 105.03 95.28 C 109.49 93.83 111.32 88.54 115.63 86.75 Z" />
<path fill="#1e0d74" d=" M 480.56 81.56 C 482.96 82.67 484.91 84.48 486.90 86.19 L 486.93 86.66 C 487.43 103.43 487.00 120.23 487.14 137.02 C 487.14 250.37 487.14 363.72 487.14 477.08 C 487.06 488.42 487.32 499.76 487.00 511.09 C 484.72 512.51 483.18 515.15 480.49 515.81 C 480.64 371.06 480.51 226.31 480.56 81.56 Z" />
<path fill="#ffffff" d=" M 486.93 86.66 C 488.38 87.98 489.75 89.50 491.62 90.25 C 497.75 96.21 503.86 102.20 509.74 108.40 C 511.43 111.65 515.13 113.49 516.28 116.98 C 516.64 116.99 517.36 117.01 517.71 117.03 C 518.12 119.46 520.87 120.53 521.29 122.97 C 521.64 122.99 522.34 123.02 522.69 123.03 C 524.04 126.23 526.58 128.74 528.72 131.43 C 529.55 132.82 530.46 134.18 531.27 135.61 C 532.08 136.54 532.91 137.46 533.74 138.39 C 534.69 140.08 535.79 141.69 536.72 143.40 C 538.00 146.10 540.40 148.18 541.25 151.08 C 542.15 151.84 543.06 152.59 543.98 153.34 C 544.01 153.88 544.06 154.96 544.09 155.50 C 545.28 156.77 545.99 158.34 546.20 160.07 C 547.12 160.84 548.05 161.59 548.99 162.35 C 549.01 162.89 549.04 163.96 549.05 164.50 C 549.89 165.44 550.70 166.43 551.39 167.51 C 551.79 168.89 552.21 170.29 552.84 171.60 L 552.84 171.72 C 552.82 256.57 552.86 341.42 552.83 426.27 C 552.48 427.05 552.13 427.82 551.76 428.60 C 550.88 430.17 550.07 431.78 549.34 433.44 C 548.70 434.92 547.44 435.95 546.24 436.98 C 545.76 438.86 545.15 440.71 544.28 442.46 C 544.14 444.10 543.23 446.83 541.13 445.60 C 541.29 447.28 540.19 448.42 539.05 449.47 C 539.03 450.00 538.99 451.06 538.97 451.58 C 538.04 452.48 537.13 453.41 536.25 454.35 C 535.50 455.80 534.57 457.14 533.72 458.54 C 532.08 460.91 530.13 463.07 528.71 465.59 C 527.63 466.85 526.34 468.02 525.74 469.62 C 524.91 470.54 524.08 471.46 523.26 472.38 C 520.97 477.18 516.75 480.52 513.25 484.37 C 511.47 488.68 506.16 490.51 504.72 494.97 C 504.36 494.99 503.63 495.01 503.27 495.02 C 503.10 496.79 501.78 498.09 500.02 498.27 C 500.01 498.63 499.99 499.36 499.98 499.72 C 494.72 502.12 491.79 507.86 487.00 511.09 C 487.32 499.76 487.06 488.42 487.14 477.08 C 487.14 363.72 487.14 250.37 487.14 137.02 C 487.00 120.23 487.43 103.43 486.93 86.66 Z" />
<path fill="#180a5d" d=" M 57.98 154.77 C 58.61 153.37 59.46 152.08 60.28 150.79 C 60.33 249.30 60.34 347.81 60.27 446.31 C 59.39 445.06 58.06 443.97 57.86 442.38 C 58.04 346.51 57.79 250.64 57.98 154.77 Z" />
<path fill="#210f77" d=" M 53.62 164.27 C 54.87 161.09 55.39 157.17 57.98 154.77 C 57.79 250.64 58.04 346.51 57.86 442.38 C 55.86 440.07 54.85 437.12 53.81 434.29 C 53.54 431.86 53.50 429.42 53.52 426.98 C 53.62 339.41 53.41 251.83 53.62 164.27 Z" />
<path fill="#ffffff" d=" M 53.65 163.71 L 53.62 164.27 C 53.41 251.83 53.62 339.41 53.52 426.98 C 53.50 429.42 53.54 431.86 53.81 434.29 C 53.08 433.01 52.38 431.72 51.70 430.42 C 50.69 428.08 49.44 425.86 48.34 423.57 C 47.77 422.41 46.92 421.43 46.05 420.50 C 46.02 419.45 46.01 418.41 45.99 417.38 C 45.52 416.95 44.58 416.09 44.11 415.66 C 43.68 414.22 43.24 412.79 42.84 411.35 C 42.40 410.92 41.52 410.06 41.08 409.63 C 41.01 408.23 41.06 406.79 40.37 405.53 C 40.08 405.05 39.50 404.10 39.21 403.62 C 38.33 401.98 37.82 400.22 37.92 398.35 C 37.46 397.93 36.54 397.07 36.08 396.64 C 35.96 395.26 36.16 393.74 35.26 392.56 C 34.61 391.25 34.08 389.88 33.67 388.48 C 32.92 386.48 32.92 384.26 31.72 382.43 C 30.92 380.89 31.07 379.07 30.31 377.52 C 29.76 375.46 29.28 373.33 28.13 371.51 C 27.88 369.52 28.43 367.33 27.28 365.56 C 25.18 363.25 26.88 359.84 25.14 357.51 C 24.87 355.84 25.42 353.87 24.16 352.51 C 24.08 352.00 23.92 350.99 23.85 350.49 C 22.10 347.88 23.40 344.44 22.93 341.49 C 21.14 339.93 22.85 337.07 21.08 335.50 C 21.03 332.33 21.20 329.11 20.10 326.08 C 19.65 320.09 20.73 313.95 19.01 308.11 C 19.34 300.43 18.10 292.56 19.97 285.05 C 20.24 280.20 19.64 275.30 20.20 270.48 L 20.92 269.51 C 21.03 266.83 20.97 264.16 21.08 261.49 C 22.84 259.92 21.15 257.07 22.93 255.50 C 23.34 252.88 22.16 249.76 23.87 247.51 C 23.96 246.50 24.04 245.49 24.13 244.49 C 25.76 242.86 24.24 240.14 25.86 238.51 C 26.13 236.84 25.58 234.87 26.85 233.51 C 26.92 233.01 27.08 231.99 27.15 231.49 C 28.87 229.14 27.19 225.74 29.29 223.43 C 29.68 222.47 30.03 221.49 30.31 220.49 C 31.44 218.25 30.61 215.48 32.29 213.44 C 33.08 211.90 32.94 210.09 33.70 208.55 C 34.93 206.17 36.11 203.65 36.08 200.91 C 36.66 200.13 37.24 199.35 37.82 198.58 C 37.99 196.46 38.65 194.42 39.74 192.60 C 40.43 191.26 40.98 189.86 41.17 188.36 C 41.58 187.93 42.42 187.07 42.83 186.64 C 43.03 185.14 43.57 183.73 44.24 182.39 C 45.19 180.84 46.03 179.20 46.15 177.36 C 46.58 176.93 47.42 176.07 47.84 175.64 C 48.02 174.58 48.26 173.52 48.54 172.49 C 49.29 171.46 50.09 170.46 50.92 169.50 C 50.96 169.00 51.04 168.00 51.08 167.49 C 52.14 166.38 53.09 165.16 53.65 163.71 Z" />
<path fill="#1c1a1d" d=" M 157.75 215.79 C 172.44 198.79 187.05 181.70 201.90 164.84 C 209.61 165.00 217.33 164.73 225.03 164.96 C 225.32 165.18 225.90 165.60 226.19 165.82 C 226.41 267.34 226.18 368.86 226.30 470.38 C 226.01 470.42 225.43 470.48 225.14 470.51 C 209.58 471.08 193.99 470.44 178.43 470.82 C 178.15 394.78 178.38 318.73 178.31 242.69 C 170.63 242.71 162.96 242.68 155.28 242.71 C 155.34 235.12 155.22 227.53 155.29 219.93 C 155.26 218.21 156.85 217.09 157.75 215.79 Z" />
<path fill="#666064" d=" M 288.19 164.12 C 288.63 166.37 289.09 168.65 289.07 170.96 C 288.96 182.30 288.98 193.64 289.05 204.99 C 289.09 207.60 288.62 210.17 288.12 212.73 C 287.59 205.83 288.19 198.92 288.00 192.01 C 288.17 182.72 287.67 173.40 288.19 164.12 Z" />
<path fill="#1c1a1d" d=" M 293.03 167.01 C 292.86 165.45 294.64 164.73 295.95 164.99 C 351.26 164.97 406.57 165.08 461.88 164.93 C 463.26 166.68 464.28 168.76 464.02 171.05 C 463.92 195.65 464.12 220.26 463.92 244.86 C 462.48 248.51 460.54 251.98 458.57 255.38 C 458.53 255.43 458.47 255.54 458.44 255.59 C 455.46 260.35 453.54 265.67 450.54 270.41 C 450.51 270.46 450.45 270.57 450.42 270.62 C 447.46 275.35 445.56 280.64 442.57 285.35 C 442.54 285.40 442.48 285.50 442.45 285.55 C 439.90 289.66 438.20 294.23 435.44 298.22 L 435.29 298.44 L 435.25 298.71 C 435.17 299.15 435.01 300.04 434.94 300.49 C 432.48 303.02 431.50 306.51 429.56 309.39 C 429.53 309.44 429.47 309.55 429.44 309.60 C 425.55 316.38 422.51 323.63 418.56 330.38 C 418.53 330.43 418.47 330.53 418.44 330.58 C 417.08 332.78 416.10 335.22 414.46 337.24 L 414.27 337.48 L 414.23 337.77 C 414.17 338.21 414.04 339.09 413.97 339.53 C 413.62 339.99 412.91 340.92 412.56 341.38 C 412.52 341.45 412.43 341.59 412.39 341.66 L 411.55 343.35 C 411.52 343.41 411.45 343.54 411.42 343.60 L 410.57 345.31 C 410.54 345.37 410.47 345.48 410.44 345.54 C 407.92 349.72 406.10 354.28 403.56 358.45 C 403.52 358.51 403.46 358.63 403.43 358.68 L 402.56 360.27 C 402.53 360.32 402.48 360.42 402.45 360.47 C 401.17 362.75 400.12 365.18 398.47 367.22 L 398.28 367.46 L 398.24 367.75 C 398.17 368.20 398.03 369.10 397.96 369.55 C 397.61 370.01 396.90 370.93 396.55 371.39 C 396.51 371.46 396.42 371.61 396.37 371.68 L 395.54 373.35 C 395.51 373.41 395.45 373.54 395.42 373.60 L 394.59 375.34 C 394.56 375.40 394.50 375.51 394.48 375.57 C 393.85 376.81 393.21 378.05 392.56 379.29 C 392.53 379.34 392.46 379.46 392.43 379.51 C 390.75 382.44 389.34 385.51 387.55 388.37 C 387.51 388.43 387.45 388.53 387.42 388.58 C 384.48 393.34 382.56 398.65 379.56 403.37 C 379.52 403.42 379.46 403.53 379.43 403.59 C 377.24 407.08 375.75 410.94 373.55 414.42 C 373.52 414.47 373.46 414.58 373.43 414.63 C 372.78 415.85 372.14 417.09 371.52 418.34 C 371.49 418.39 371.43 418.49 371.41 418.54 C 369.66 421.39 368.55 424.63 366.46 427.26 L 366.27 427.50 L 366.23 427.79 C 366.16 428.22 366.04 429.08 365.98 429.51 C 365.62 429.98 364.92 430.93 364.56 431.40 C 364.52 431.47 364.44 431.61 364.39 431.68 L 363.55 433.34 C 363.52 433.40 363.47 433.52 363.44 433.58 L 362.56 435.30 C 362.54 435.36 362.48 435.46 362.45 435.51 C 360.66 438.35 359.57 441.61 357.46 444.25 L 357.26 444.49 L 357.23 444.78 C 357.16 445.22 357.04 446.10 356.98 446.54 C 356.63 446.99 355.92 447.89 355.57 448.34 C 355.53 448.41 355.44 448.53 355.40 448.60 C 352.75 452.62 351.39 457.38 348.49 461.25 L 348.30 461.49 L 348.25 461.78 C 348.18 462.20 348.02 463.04 347.94 463.47 C 346.17 465.39 345.05 467.78 343.80 470.05 C 327.10 469.90 310.41 470.09 293.71 469.95 C 295.28 466.21 297.12 462.58 299.06 459.02 C 303.47 452.23 306.23 444.54 310.43 437.63 C 310.46 437.58 310.52 437.47 310.55 437.42 C 311.24 436.17 311.89 434.90 312.50 433.62 C 312.53 433.56 312.58 433.44 312.61 433.38 L 313.46 431.68 C 313.49 431.63 313.55 431.51 313.58 431.45 C 315.67 427.89 317.31 424.10 319.42 420.55 C 319.45 420.49 319.51 420.38 319.54 420.32 L 320.43 418.64 C 320.46 418.58 320.53 418.46 320.56 418.40 L 321.45 416.70 C 321.48 416.64 321.54 416.53 321.57 416.47 C 324.07 412.28 325.89 407.74 328.43 403.58 C 328.46 403.52 328.52 403.41 328.55 403.35 L 329.45 401.64 C 329.48 401.58 329.54 401.46 329.57 401.40 L 330.44 399.64 C 330.48 399.58 330.54 399.46 330.57 399.40 L 331.44 397.72 C 331.47 397.66 331.54 397.54 331.57 397.48 C 334.13 393.38 335.70 388.73 338.45 384.74 L 338.59 384.54 L 338.66 384.31 C 340.59 379.11 344.00 374.57 346.44 369.58 C 346.47 369.53 346.53 369.42 346.56 369.36 L 347.44 367.67 C 347.47 367.61 347.54 367.48 347.57 367.42 L 348.44 365.64 C 348.47 365.58 348.53 365.45 348.56 365.39 L 349.43 363.63 C 349.46 363.57 349.52 363.45 349.55 363.39 L 350.46 361.66 C 350.48 361.61 350.54 361.50 350.57 361.44 C 353.48 356.63 355.49 351.35 358.46 346.58 C 358.49 346.53 358.55 346.42 358.58 346.37 C 362.59 339.63 365.47 332.28 369.45 325.53 C 369.49 325.47 369.55 325.36 369.58 325.30 L 370.45 323.72 C 370.49 323.65 370.56 323.51 370.60 323.44 C 372.57 319.84 374.46 316.20 376.46 312.62 C 376.49 312.57 376.55 312.46 376.58 312.41 L 377.53 310.81 L 377.68 310.56 L 377.73 310.28 C 377.82 309.84 377.99 308.97 378.08 308.53 C 379.07 307.37 379.89 306.07 380.53 304.69 C 380.56 304.61 380.64 304.47 380.68 304.39 C 382.32 301.53 383.47 298.36 385.54 295.76 L 385.72 295.52 L 385.76 295.23 C 385.83 294.80 385.95 293.93 386.02 293.50 C 386.84 292.22 387.64 290.93 388.44 289.64 C 388.47 289.59 388.53 289.49 388.56 289.45 C 392.19 283.34 394.80 276.68 398.42 270.56 C 398.45 270.51 398.51 270.39 398.55 270.33 L 399.44 268.66 C 399.47 268.59 399.53 268.47 399.57 268.41 L 400.45 266.71 C 400.48 266.65 400.55 266.53 400.58 266.47 C 406.23 256.08 412.00 245.72 416.91 234.95 C 417.02 227.83 417.18 220.66 416.83 213.56 L 415.82 212.46 C 415.67 212.39 415.38 212.25 415.23 212.18 C 375.18 211.75 335.11 212.15 295.06 211.97 C 293.51 212.10 292.73 210.30 292.98 209.00 C 293.04 195.00 292.95 181.01 293.03 167.01 Z" />
<path fill="#faf9ff" d=" M 226.19 165.82 C 226.42 167.18 226.60 168.56 226.65 169.95 C 226.58 263.30 226.60 356.65 226.63 450.00 C 226.45 456.79 227.00 463.61 226.30 470.38 C 226.18 368.86 226.41 267.34 226.19 165.82 Z" />
<path fill="#1f0f6d" d=" M 552.84 171.72 C 555.36 175.77 557.76 180.04 559.06 184.64 C 559.54 206.77 559.13 228.93 559.27 251.07 C 559.19 304.82 559.41 358.58 559.16 412.33 C 557.45 417.11 555.34 421.84 552.83 426.27 C 552.86 341.42 552.82 256.57 552.84 171.72 Z" />
<path fill="#ffffff" d=" M 559.06 184.64 C 559.84 185.93 560.59 187.23 561.35 188.54 C 561.93 190.60 562.52 192.68 563.72 194.48 C 563.97 195.50 564.29 196.51 564.68 197.49 C 564.96 198.49 565.31 199.47 565.73 200.43 C 567.08 202.64 566.92 205.36 568.26 207.59 C 568.77 208.86 569.22 210.17 569.70 211.47 C 569.94 212.49 570.29 213.48 570.74 214.44 C 572.36 216.86 571.45 219.94 572.72 222.44 C 573.70 223.97 574.09 225.72 574.22 227.51 C 575.55 229.65 574.55 232.52 576.28 234.56 C 577.96 236.92 575.95 240.25 577.85 242.49 C 577.92 243.00 578.08 244.01 578.15 244.51 C 580.01 246.43 577.94 249.65 579.93 251.49 C 580.33 254.12 579.16 257.23 580.86 259.49 C 581.15 261.15 580.52 263.20 581.92 264.49 C 582.13 269.16 581.87 273.84 582.08 278.51 C 583.61 279.92 582.81 282.18 583.02 284.00 C 583.24 288.34 582.31 292.85 583.72 297.06 C 584.13 298.50 584.43 300.40 583.08 301.49 C 582.61 307.95 583.84 314.56 582.03 320.85 C 581.38 325.32 583.16 330.39 581.13 334.49 C 581.03 335.49 580.95 336.50 580.87 337.51 C 578.60 340.35 581.39 344.64 579.14 347.49 C 578.85 349.15 579.45 351.16 578.12 352.49 C 578.03 353.49 577.95 354.50 577.87 355.51 C 576.00 357.41 577.97 360.55 576.16 362.49 C 576.08 362.99 575.92 364.01 575.83 364.51 C 574.34 368.00 574.48 372.07 572.77 375.55 C 571.49 377.70 572.41 380.53 570.71 382.57 C 570.31 383.53 569.97 384.51 569.68 385.51 C 568.89 387.50 568.93 389.74 567.71 391.57 C 566.87 393.53 566.86 395.74 565.77 397.61 C 564.68 399.27 563.79 401.08 563.91 403.13 C 563.31 403.90 562.69 404.67 562.08 405.44 C 562.03 405.97 561.92 407.02 561.87 407.54 C 560.94 409.13 560.08 410.75 559.16 412.33 C 559.41 358.58 559.19 304.82 559.27 251.07 C 559.13 228.93 559.54 206.77 559.06 184.64 Z" />
<path fill="#993516" d=" M 415.23 212.18 C 415.38 212.25 415.67 212.39 415.82 212.46 C 415.67 212.39 415.38 212.25 415.23 212.18 Z" />
<path fill="#210e70" d=" M 340.44 217.96 C 342.46 217.97 344.49 217.99 346.52 218.00 C 346.51 264.76 346.57 311.51 346.49 358.26 L 346.29 358.88 L 345.67 360.04 L 345.18 360.55 L 345.06 361.18 L 344.60 362.03 C 344.51 362.17 344.35 362.46 344.27 362.61 C 343.04 364.46 342.20 366.52 341.82 368.72 C 341.28 367.54 340.45 366.41 340.60 365.05 C 340.40 316.02 340.72 266.98 340.44 217.96 Z" />
<path fill="#291d5f" d=" M 410.67 218.53 C 411.10 218.22 411.95 217.61 412.37 217.30 C 412.50 220.87 412.57 224.44 412.66 228.01 C 412.62 230.12 412.92 232.43 411.61 234.26 C 411.55 234.38 411.44 234.61 411.38 234.73 C 411.19 235.16 410.81 236.02 410.62 236.46 C 410.57 230.48 410.31 224.49 410.67 218.53 Z" />
<path fill="#d8e0e0" d=" M 411.38 234.73 C 411.44 234.61 411.55 234.38 411.61 234.26 L 411.38 234.73 Z" />
<path fill="#ffb297" d=" M 599.56 252.39 L 600.00 252.51 L 600.00 252.98 C 599.89 252.83 599.67 252.54 599.56 252.39 Z" />
<path fill="#973a23" d=" M 458.44 255.59 C 458.47 255.54 458.53 255.43 458.57 255.38 C 458.53 255.43 458.47 255.54 458.44 255.59 Z" />
<path fill="#9a3823" d=" M 400.45 266.71 C 400.48 266.65 400.55 266.53 400.58 266.47 C 400.55 266.53 400.48 266.65 400.45 266.71 Z" />
<path fill="#9d3c29" d=" M 399.44 268.66 C 399.47 268.59 399.53 268.47 399.57 268.41 C 399.53 268.47 399.47 268.59 399.44 268.66 Z" />
<path fill="#9b361e" d=" M 398.42 270.56 C 398.45 270.51 398.51 270.39 398.55 270.33 C 398.51 270.39 398.45 270.51 398.42 270.56 Z" />
<path fill="#984220" d=" M 450.42 270.62 C 450.45 270.57 450.51 270.46 450.54 270.41 C 450.51 270.46 450.45 270.57 450.42 270.62 Z" />
<path fill="#9a4329" d=" M 442.45 285.55 C 442.48 285.50 442.54 285.40 442.57 285.35 C 442.54 285.40 442.48 285.50 442.45 285.55 Z" />
<path fill="#944227" d=" M 388.44 289.64 C 388.47 289.59 388.53 289.49 388.56 289.45 C 388.53 289.49 388.47 289.59 388.44 289.64 Z" />
<path fill="#9f412e" d=" M 385.54 295.76 C 385.59 295.63 385.71 295.36 385.76 295.23 L 385.72 295.52 L 385.54 295.76 Z" />
<path fill="#9b3d26" d=" M 435.29 298.44 L 435.44 298.22 C 435.39 298.34 435.30 298.59 435.25 298.71 L 435.29 298.44 Z" />
<path fill="#953721" d=" M 380.53 304.69 C 380.56 304.61 380.64 304.47 380.68 304.39 C 380.64 304.47 380.56 304.61 380.53 304.69 Z" />
<path fill="#974326" d=" M 429.44 309.60 C 429.47 309.55 429.53 309.44 429.56 309.39 C 429.53 309.44 429.47 309.55 429.44 309.60 Z" />
<path fill="#9f3928" d=" M 377.53 310.81 C 377.58 310.68 377.68 310.42 377.73 310.28 L 377.68 310.56 L 377.53 310.81 Z" />
<path fill="#ffffff" d=" M 0.00 311.05 C 0.91 311.54 1.83 312.02 2.76 312.49 C 2.72 323.47 2.55 334.46 2.90 345.44 C 6.72 348.75 4.40 354.30 4.99 358.68 C 5.92 359.57 6.85 360.47 7.78 361.36 C 7.75 364.47 7.78 367.57 7.83 370.68 C 8.34 371.12 9.36 372.00 9.87 372.44 C 9.94 374.54 9.99 376.65 10.03 378.77 C 10.95 379.65 11.87 380.53 12.79 381.42 C 12.79 383.84 12.80 386.25 12.82 388.67 C 13.33 389.12 14.35 390.00 14.87 390.44 C 14.94 392.13 15.01 393.83 15.07 395.54 C 16.02 396.83 16.94 398.16 17.84 399.49 C 17.86 400.54 17.89 401.59 17.92 402.65 C 19.11 403.16 19.95 404.12 20.59 405.22 C 19.44 407.57 20.21 410.68 22.82 411.64 C 22.90 412.96 22.97 414.29 23.05 415.63 C 26.47 416.37 25.73 419.95 25.84 422.58 C 26.37 423.06 27.43 424.03 27.96 424.51 C 27.96 425.55 27.97 426.59 27.97 427.64 C 28.87 428.51 29.76 429.40 30.64 430.30 C 30.80 432.10 30.66 434.27 32.97 434.62 C 32.98 435.63 32.99 436.66 33.00 437.69 C 33.93 438.58 34.86 439.47 35.79 440.37 C 35.83 440.91 35.90 441.98 35.94 442.52 C 37.36 444.40 38.70 446.43 40.77 447.67 C 40.81 449.08 40.85 450.50 40.88 451.93 C 41.40 451.96 42.44 452.02 42.96 452.06 C 43.00 452.65 43.08 453.85 43.12 454.44 C 43.42 455.07 44.03 456.32 44.33 456.95 C 44.62 456.98 45.21 457.05 45.50 457.08 C 46.42 458.72 47.61 460.18 48.92 461.54 C 48.96 462.01 49.05 462.96 49.10 463.43 C 49.88 464.47 50.66 465.52 51.44 466.57 C 53.81 467.52 53.67 470.39 54.28 472.47 C 55.81 473.78 57.34 475.09 58.93 476.32 C 58.00 477.49 57.75 478.66 59.30 479.60 C 59.18 480.04 58.93 480.92 58.81 481.37 C 59.35 480.95 60.44 480.12 60.98 479.71 C 61.00 480.16 61.03 481.06 61.05 481.51 C 62.65 482.15 63.84 483.31 64.48 484.92 C 64.74 484.96 65.26 485.04 65.52 485.08 C 66.16 486.69 67.35 487.85 68.97 488.49 C 68.98 489.51 68.99 490.53 69.00 491.56 C 75.28 497.69 81.39 503.99 87.44 510.34 L 87.54 510.45 L 87.66 510.56 C 94.75 517.23 101.51 524.25 108.44 531.09 C 109.40 531.13 110.37 531.17 111.34 531.23 C 114.21 534.98 118.07 537.81 121.42 541.11 C 121.98 541.13 123.09 541.18 123.65 541.20 C 125.27 542.85 126.89 544.49 128.49 546.16 C 129.52 546.20 130.56 546.24 131.59 546.29 C 132.94 548.09 134.59 549.63 136.42 550.96 C 140.19 551.56 142.36 555.08 145.37 557.09 C 145.91 557.08 147.00 557.07 147.54 557.06 C 147.98 557.59 148.86 558.65 149.30 559.18 C 150.31 559.19 151.32 559.21 152.33 559.25 C 153.57 561.30 155.58 562.63 157.47 564.02 C 157.97 564.10 158.96 564.27 159.46 564.35 C 161.21 565.85 163.32 566.81 165.56 567.35 C 166.02 567.79 166.93 568.69 167.39 569.13 C 167.96 569.16 169.09 569.22 169.66 569.24 C 170.57 570.18 171.48 571.11 172.39 572.06 C 173.38 572.10 174.36 572.16 175.35 572.22 C 177.81 573.71 180.44 575.03 183.37 575.25 C 183.96 577.26 185.92 577.16 187.63 577.29 C 188.09 577.74 189.01 578.64 189.47 579.09 C 191.52 579.50 193.58 579.90 195.66 580.16 C 196.09 580.66 196.96 581.65 197.39 582.15 C 198.40 582.16 199.42 582.18 200.44 582.20 C 202.16 583.01 203.88 583.84 205.49 584.85 C 206.85 584.96 208.21 585.08 209.57 585.20 C 210.01 585.69 210.89 586.67 211.33 587.16 C 213.75 587.19 216.18 587.22 218.60 587.24 C 219.48 588.13 220.36 589.02 221.25 589.92 C 227.15 589.73 232.40 593.40 238.44 592.34 C 241.46 595.67 245.98 594.99 250.01 595.02 C 252.53 594.88 254.48 596.84 256.89 597.14 C 261.52 597.55 266.17 597.08 270.80 597.36 C 272.34 597.42 273.50 598.59 274.76 599.34 C 274.94 598.92 275.30 598.08 275.48 597.65 C 275.63 598.24 275.92 599.41 276.07 600.00 L 0.00 600.00 L 0.00 311.05 Z" />
<path fill="#9d3d24" d=" M 376.46 312.62 C 376.49 312.57 376.55 312.46 376.58 312.41 C 376.55 312.46 376.49 312.57 376.46 312.62 Z" />
<path fill="#933d25" d=" M 370.45 323.72 C 370.49 323.65 370.56 323.51 370.60 323.44 C 370.56 323.51 370.49 323.65 370.45 323.72 Z" />
<path fill="#a1412d" d=" M 369.45 325.53 C 369.49 325.47 369.55 325.36 369.58 325.30 C 369.55 325.36 369.49 325.47 369.45 325.53 Z" />
<path fill="#973e25" d=" M 418.44 330.58 C 418.47 330.53 418.53 330.43 418.56 330.38 C 418.53 330.43 418.47 330.53 418.44 330.58 Z" />
<path fill="#9f432e" d=" M 414.27 337.48 L 414.46 337.24 C 414.40 337.37 414.29 337.63 414.23 337.77 L 414.27 337.48 Z" />
<path fill="#98451e" d=" M 412.39 341.66 C 412.43 341.59 412.52 341.45 412.56 341.38 C 412.52 341.45 412.43 341.59 412.39 341.66 Z" />
<path fill="#9a3c1b" d=" M 411.42 343.60 C 411.45 343.54 411.52 343.41 411.55 343.35 C 411.52 343.41 411.45 343.54 411.42 343.60 Z" />
<path fill="#897fb7" d=" M 415.73 346.41 C 416.27 345.24 416.87 344.09 417.47 342.96 C 417.25 373.97 417.45 404.99 417.38 436.01 C 417.21 460.36 417.80 484.73 416.96 509.07 C 416.99 518.69 417.83 528.30 417.19 537.92 C 416.69 544.34 417.33 550.79 416.76 557.20 L 416.68 556.53 C 416.12 542.05 416.60 527.54 416.45 513.05 C 416.45 459.04 416.41 405.03 416.47 351.03 C 416.40 349.46 416.15 347.91 415.73 346.41 Z" />
<path fill="#963620" d=" M 410.44 345.54 C 410.47 345.48 410.54 345.37 410.57 345.31 C 410.54 345.37 410.47 345.48 410.44 345.54 Z" />
<path fill="#ffffff" d=" M 597.35 348.56 C 598.41 347.18 599.44 345.75 600.00 344.08 L 600.00 600.00 L 325.73 600.00 C 326.41 599.32 327.08 598.64 327.75 597.96 L 327.99 599.33 C 329.53 598.42 331.08 597.20 332.97 597.31 C 337.44 597.23 341.91 597.31 346.39 597.24 C 346.70 596.93 347.32 596.32 347.62 596.02 C 347.83 596.36 348.24 597.05 348.45 597.39 C 348.93 596.83 349.89 595.70 350.38 595.14 C 353.74 595.15 357.11 595.16 360.48 595.02 C 364.13 590.49 370.31 593.62 374.75 590.83 C 376.88 589.74 379.35 590.17 381.65 590.04 C 382.54 589.10 383.44 588.18 384.34 587.27 C 386.70 587.19 389.19 587.51 391.38 586.42 C 394.70 584.75 398.86 585.25 401.60 582.37 C 403.48 582.08 406.04 582.63 406.59 580.20 C 409.57 580.27 412.54 579.54 414.61 577.26 C 415.62 577.20 416.64 577.16 417.66 577.13 C 418.10 576.65 418.98 575.70 419.43 575.22 C 422.43 575.15 425.10 573.74 427.61 572.23 C 428.13 572.18 429.17 572.09 429.70 572.05 C 430.59 571.11 431.49 570.18 432.39 569.26 C 433.45 569.23 434.52 569.20 435.59 569.18 C 436.04 568.68 436.93 567.67 437.38 567.16 C 437.92 567.10 438.98 566.99 439.51 566.94 C 441.23 565.42 443.30 564.42 445.49 563.78 C 450.68 560.15 456.33 557.25 461.60 553.74 C 462.51 551.76 464.67 551.44 466.56 550.96 C 468.20 549.45 469.80 547.88 471.37 546.29 C 472.42 546.21 473.47 546.13 474.52 546.06 C 475.78 544.46 477.10 542.90 478.36 541.30 C 479.43 541.19 480.50 541.09 481.58 540.99 C 483.83 538.17 486.83 536.11 489.36 533.56 L 489.47 533.46 L 489.56 533.35 C 490.00 532.81 490.88 531.75 491.32 531.21 C 491.88 531.17 493.01 531.09 493.57 531.05 C 496.64 528.32 499.79 525.67 502.61 522.68 C 504.26 520.99 505.95 519.34 507.63 517.69 C 509.28 515.99 510.96 514.32 512.65 512.67 C 514.31 510.98 515.97 509.30 517.67 507.65 C 520.50 504.49 524.08 502.03 526.46 498.47 C 527.79 497.66 528.80 496.49 529.50 495.09 C 529.75 495.05 530.25 494.95 530.50 494.90 C 531.42 493.25 532.63 491.80 533.95 490.45 C 533.96 489.95 533.99 488.95 534.01 488.44 C 537.43 484.91 541.36 481.78 544.01 477.59 C 544.01 476.96 544.00 475.70 544.00 475.07 C 544.38 475.03 545.14 474.96 545.52 474.93 C 546.15 473.30 547.35 472.13 548.98 471.51 C 548.97 470.45 548.97 469.40 548.97 468.36 C 550.81 466.58 552.81 464.97 554.97 463.59 C 554.97 462.54 554.99 461.50 555.02 460.46 C 556.25 460.00 557.06 459.14 557.45 457.89 C 557.74 457.92 558.32 457.98 558.61 458.02 C 558.87 455.15 559.59 452.30 561.95 450.43 C 561.96 449.30 561.99 448.18 562.02 447.07 C 562.39 447.03 563.13 446.95 563.50 446.92 C 564.41 445.25 565.63 443.79 566.96 442.45 C 566.97 441.43 566.98 440.41 567.00 439.39 C 567.50 438.95 568.50 438.05 569.00 437.60 C 569.00 437.06 569.00 435.96 569.00 435.41 C 570.03 434.50 571.06 433.58 572.10 432.67 C 572.11 431.60 572.13 430.53 572.15 429.47 C 572.60 429.02 573.50 428.11 573.95 427.66 C 574.39 425.32 575.35 423.12 577.08 421.44 C 577.11 420.09 577.14 418.75 577.17 417.41 C 578.11 416.51 579.07 415.62 580.03 414.74 C 580.03 413.65 580.04 412.56 580.06 411.49 C 580.58 411.03 581.62 410.13 582.13 409.68 C 582.11 406.90 581.47 403.41 585.00 402.63 C 585.03 401.23 585.07 399.85 585.10 398.47 C 585.61 398.01 586.63 397.09 587.15 396.63 C 587.18 394.95 587.22 393.28 587.29 391.61 C 590.16 388.95 590.40 385.09 590.12 381.43 C 590.62 380.97 591.62 380.06 592.12 379.60 C 592.13 376.79 592.53 374.01 593.35 371.32 C 593.79 370.91 594.67 370.10 595.11 369.69 C 595.13 366.65 595.13 363.61 595.12 360.57 C 595.59 360.33 596.51 359.86 596.98 359.62 C 597.52 355.96 597.20 352.24 597.35 348.56 Z" />
<path fill="#953d19" d=" M 358.46 346.58 C 358.49 346.53 358.55 346.42 358.58 346.37 C 358.55 346.42 358.49 346.53 358.46 346.58 Z" />
<path fill="#11015b" d=" M 414.79 348.45 C 415.03 347.94 415.50 346.92 415.73 346.41 C 416.15 347.91 416.40 349.46 416.47 351.03 C 416.41 405.03 416.45 459.04 416.45 513.05 C 416.60 527.54 416.12 542.05 416.68 556.53 L 415.01 557.03 C 414.97 501.02 415.00 445.02 415.00 389.01 C 414.87 375.57 415.20 362.12 414.79 348.68 L 414.79 348.45 Z" />
<path fill="#c0adb7" d=" M 414.52 349.05 C 414.59 348.90 414.73 348.60 414.79 348.45 L 414.79 348.68 L 414.52 349.05 Z" />
<path fill="#211071" d=" M 414.52 349.05 L 414.79 348.68 C 415.20 362.12 414.87 375.57 415.00 389.01 C 415.00 445.02 414.97 501.02 415.01 557.03 C 414.59 557.03 413.77 557.02 413.36 557.02 C 412.65 557.01 411.25 556.99 410.54 556.98 C 410.96 544.32 410.62 531.66 410.72 519.00 C 410.80 464.85 410.57 410.69 410.85 356.54 L 410.87 355.99 L 411.37 354.99 L 411.65 354.59 L 411.83 354.11 L 412.34 353.09 L 412.70 352.61 L 412.85 352.03 L 413.38 351.01 L 413.69 350.61 L 413.90 350.11 L 414.52 349.05 Z" />
<path fill="#cab5c8" d=" M 413.38 351.01 C 413.51 350.78 413.77 350.33 413.90 350.11 L 413.69 350.61 L 413.38 351.01 Z" />
<path fill="#cec4d0" d=" M 412.50 352.51 L 412.85 352.03 L 412.70 352.61 L 412.34 353.09 L 412.50 352.51 Z" />
<path fill="#d4c8d0" d=" M 411.37 354.99 C 411.48 354.77 411.71 354.33 411.83 354.11 L 411.65 354.59 L 411.37 354.99 Z" />
<path fill="#d7d5db" d=" M 410.51 356.68 C 410.60 356.51 410.78 356.17 410.87 355.99 L 410.85 356.54 L 410.51 356.68 Z" />
<path fill="#bdbfcb" d=" M 346.49 358.26 L 346.52 358.43 C 346.46 358.54 346.34 358.76 346.29 358.88 L 346.49 358.26 Z" />
<path fill="#9f432b" d=" M 403.43 358.68 C 403.46 358.63 403.52 358.51 403.56 358.45 C 403.52 358.51 403.46 358.63 403.43 358.68 Z" />
<path fill="#ffffff" d=" M 395.13 385.10 C 399.91 375.60 404.97 366.24 410.26 357.02 C 410.70 423.67 410.13 490.33 410.54 556.98 C 411.25 556.99 412.65 557.01 413.36 557.02 C 411.98 559.06 409.46 559.27 407.39 560.21 C 405.60 561.48 403.56 562.23 401.35 562.08 C 400.93 562.54 400.07 563.46 399.65 563.92 C 397.79 563.85 395.99 564.25 394.44 565.29 C 393.46 565.67 392.48 566.01 391.49 566.32 C 389.92 567.06 388.10 566.90 386.56 567.71 C 385.03 568.70 383.28 569.08 381.49 569.23 C 379.57 570.21 377.26 570.02 375.44 571.26 C 373.39 572.81 370.44 571.12 368.51 572.85 C 368.00 572.92 366.99 573.08 366.49 573.15 C 364.83 574.73 362.14 573.25 360.51 574.86 C 358.84 575.10 356.90 574.61 355.51 575.81 C 354.16 576.08 352.53 575.75 351.51 576.91 C 350.34 576.95 349.17 576.99 348.01 577.03 C 348.00 577.77 347.99 579.26 347.99 580.00 L 346.82 580.00 C 346.88 544.71 346.62 509.42 346.96 474.13 C 350.16 470.34 351.84 465.61 354.19 461.30 C 368.11 436.05 381.29 410.40 395.13 385.10 Z" />
<path fill="#c9ced0" d=" M 345.18 360.55 L 345.67 360.04 C 345.51 360.33 345.21 360.90 345.06 361.18 L 345.18 360.55 Z" />
<path fill="#943e27" d=" M 402.45 360.47 C 402.48 360.42 402.53 360.32 402.56 360.27 C 402.53 360.32 402.48 360.42 402.45 360.47 Z" />
<path fill="#943b27" d=" M 350.46 361.66 C 350.48 361.61 350.54 361.50 350.57 361.44 C 350.54 361.50 350.48 361.61 350.46 361.66 Z" />
<path fill="#bebfc2" d=" M 344.27 362.61 C 344.35 362.46 344.51 362.17 344.60 362.03 C 344.51 362.17 344.35 362.46 344.27 362.61 Z" />
<path fill="#983c24" d=" M 349.43 363.63 C 349.46 363.57 349.52 363.45 349.55 363.39 C 349.52 363.45 349.46 363.57 349.43 363.63 Z" />
<path fill="#993d21" d=" M 348.44 365.64 C 348.47 365.58 348.53 365.45 348.56 365.39 C 348.53 365.45 348.47 365.58 348.44 365.64 Z" />
<path fill="#9c3a20" d=" M 347.44 367.67 C 347.47 367.61 347.54 367.48 347.57 367.42 C 347.54 367.48 347.47 367.61 347.44 367.67 Z" />
<path fill="#9f452d" d=" M 398.28 367.46 L 398.47 367.22 C 398.41 367.35 398.30 367.62 398.24 367.75 L 398.28 367.46 Z" />
<path fill="#9f402e" d=" M 346.44 369.58 C 346.47 369.53 346.53 369.42 346.56 369.36 C 346.53 369.42 346.47 369.53 346.44 369.58 Z" />
<path fill="#9c3d1f" d=" M 396.37 371.68 C 396.42 371.61 396.51 371.46 396.55 371.39 C 396.51 371.46 396.42 371.61 396.37 371.68 Z" />
<path fill="#993b1d" d=" M 395.42 373.60 C 395.45 373.54 395.51 373.41 395.54 373.35 C 395.51 373.41 395.45 373.54 395.42 373.60 Z" />
<path fill="#943b29" d=" M 394.48 375.57 C 394.50 375.51 394.56 375.40 394.59 375.34 C 394.56 375.40 394.50 375.51 394.48 375.57 Z" />
<path fill="#9d3729" d=" M 392.43 379.51 C 392.46 379.46 392.53 379.34 392.56 379.29 C 392.53 379.34 392.46 379.46 392.43 379.51 Z" />
<path fill="#9f4125" d=" M 338.45 384.74 C 338.50 384.63 338.60 384.42 338.66 384.31 L 338.59 384.54 L 338.45 384.74 Z" />
<path fill="#a03e2f" d=" M 387.42 388.58 C 387.45 388.53 387.51 388.43 387.55 388.37 C 387.51 388.43 387.45 388.53 387.42 388.58 Z" />
<path fill="#475055" d=" M 330.19 390.09 L 330.15 390.18 C 330.11 390.26 330.01 390.42 329.97 390.49 L 330.19 390.09 Z" />
<path fill="#9a3b1e" d=" M 331.44 397.72 C 331.47 397.66 331.54 397.54 331.57 397.48 C 331.54 397.54 331.47 397.66 331.44 397.72 Z" />
<path fill="#9f4329" d=" M 330.44 399.64 C 330.48 399.58 330.54 399.46 330.57 399.40 C 330.54 399.46 330.48 399.58 330.44 399.64 Z" />
<path fill="#943d23" d=" M 329.45 401.64 C 329.48 401.58 329.54 401.46 329.57 401.40 C 329.54 401.46 329.48 401.58 329.45 401.64 Z" />
<path fill="#9d4029" d=" M 328.43 403.58 C 328.46 403.52 328.52 403.41 328.55 403.35 C 328.52 403.41 328.46 403.52 328.43 403.58 Z" />
<path fill="#9e3d22" d=" M 379.43 403.59 C 379.46 403.53 379.52 403.42 379.56 403.37 C 379.52 403.42 379.46 403.53 379.43 403.59 Z" />
<path fill="#9c4824" d=" M 373.43 414.63 C 373.46 414.58 373.52 414.47 373.55 414.42 C 373.52 414.47 373.46 414.58 373.43 414.63 Z" />
<path fill="#9a3c1e" d=" M 321.45 416.70 C 321.48 416.64 321.54 416.53 321.57 416.47 C 321.54 416.53 321.48 416.64 321.45 416.70 Z" />
<path fill="#943d23" d=" M 320.43 418.64 C 320.46 418.58 320.53 418.46 320.56 418.40 C 320.53 418.46 320.46 418.58 320.43 418.64 Z" />
<path fill="#963a23" d=" M 371.41 418.54 C 371.43 418.49 371.49 418.39 371.52 418.34 C 371.49 418.39 371.43 418.49 371.41 418.54 Z" />
<path fill="#98371c" d=" M 319.42 420.55 C 319.45 420.49 319.51 420.38 319.54 420.32 C 319.51 420.38 319.45 420.49 319.42 420.55 Z" />
<path fill="#485251" d=" M 313.24 422.10 C 313.19 422.20 313.09 422.42 313.04 422.53 L 313.24 422.10 Z" />
<path fill="#9e4228" d=" M 366.27 427.50 L 366.46 427.26 C 366.40 427.39 366.28 427.66 366.23 427.79 L 366.27 427.50 Z" />
<path fill="#993e19" d=" M 313.46 431.68 C 313.49 431.63 313.55 431.51 313.58 431.45 C 313.55 431.51 313.49 431.63 313.46 431.68 Z" />
<path fill="#963c22" d=" M 364.39 431.68 C 364.44 431.61 364.52 431.47 364.56 431.40 C 364.52 431.47 364.44 431.61 364.39 431.68 Z" />
<path fill="#933f17" d=" M 312.50 433.62 C 312.53 433.56 312.58 433.44 312.61 433.38 C 312.58 433.44 312.53 433.56 312.50 433.62 Z" />
<path fill="#974029" d=" M 363.44 433.58 C 363.47 433.52 363.52 433.40 363.55 433.34 C 363.52 433.40 363.47 433.52 363.44 433.58 Z" />
<path fill="#923d21" d=" M 362.45 435.51 C 362.48 435.46 362.54 435.36 362.56 435.30 C 362.54 435.36 362.48 435.46 362.45 435.51 Z" />
<path fill="#993026" d=" M 310.43 437.63 C 310.46 437.58 310.52 437.47 310.55 437.42 C 310.52 437.47 310.46 437.58 310.43 437.63 Z" />
<path fill="#a0422c" d=" M 357.26 444.49 L 357.46 444.25 C 357.40 444.38 357.29 444.65 357.23 444.78 L 357.26 444.49 Z" />
<path fill="#953c13" d=" M 355.40 448.60 C 355.44 448.53 355.53 448.41 355.57 448.34 C 355.53 448.41 355.44 448.53 355.40 448.60 Z" />
<path fill="#9a3e12" d=" M 348.30 461.49 L 348.49 461.25 C 348.43 461.38 348.31 461.65 348.25 461.78 L 348.30 461.49 Z" />
<path fill="#908f94" d=" M 178.43 470.82 C 193.99 470.44 209.58 471.08 225.14 470.51 L 224.53 471.75 C 214.12 472.93 203.52 471.76 193.05 472.25 C 187.98 472.68 182.90 471.90 177.83 472.42 C 177.98 472.02 178.28 471.22 178.43 470.82 Z" />
<path fill="#210e70" d=" M 340.65 473.95 C 342.62 473.99 344.59 474.03 346.56 474.11 C 345.82 477.77 346.91 481.41 346.77 485.08 C 346.64 516.73 347.00 548.39 346.61 580.04 C 344.61 580.02 342.62 580.01 340.63 580.00 C 340.49 544.65 340.43 509.29 340.65 473.95 Z" />
<path fill="#200f75" d=" M 193.59 475.43 C 195.50 475.39 197.42 475.34 199.33 475.29 C 199.56 503.52 199.41 531.75 199.41 559.98 C 198.48 560.00 196.60 560.05 195.67 560.07 C 195.14 560.09 194.10 560.13 193.58 560.15 C 193.61 531.91 193.59 503.67 193.59 475.43 Z" />
<path fill="#f8b7a3" d=" M 87.44 510.34 C 87.50 510.40 87.60 510.50 87.66 510.56 L 87.54 510.45 L 87.44 510.34 Z" />
<path fill="#a3afd4" d=" M 153.34 523.12 C 154.58 524.06 154.58 527.93 153.35 528.89 C 152.62 527.12 152.62 524.88 153.34 523.12 Z" />
<path fill="#f9b6a2" d=" M 489.36 533.56 C 489.41 533.51 489.51 533.40 489.56 533.35 L 489.47 533.46 L 489.36 533.56 Z" />
</svg>
