<svg xmlns="http://www.w3.org/2000/svg" xml:space="preserve" style="enable-background:new 0 0 512 512" viewBox="0 0 512 512"><title>Chicago White Sox Insignia</title><path d="M 0,512 V 0 h 512 v 512 z" fill="#000000" /><path d="m 411.59171,351.91982 v -32.05036 l -20.01841,-17.97906 -55.45288,68.84076 -7.77975,-12.40952 c 6.7463,-5.03217 15.4382,-11.54696 16.40826,-12.00164 1.61494,-0.80748 5.61089,-3.22984 7.60057,-3.22984 1.81885,0 -2.78337,-7.99196 -15.99762,-7.99196 v -70.83596 l 7.60062,-8.44939 c 0,0 -9.24309,1.47989 -13.6028,0.18741 -0.9315,-0.32244 -2.50783,-1.04722 -4.39005,-2.04483 2.48852,-3.95738 4.72349,-8.44939 6.39353,-13.72406 9.09427,-28.68824 3.14716,-55.17181 -18.40897,-71.5084 -15.12127,-11.43395 -77.23779,-42.86701 -77.23779,-42.86701 0,0 -37.58407,-18.40897 -41.63515,-22.49863 -2.9074,-2.87985 -8.81315,-7.37462 -8.81315,-21.611256 0,-8.47695 9.44699,-17.788916 13.52288,-19.704223 6.48999,-3.092045 8.59821,-4.547124 21.81519,-4.759323 7.45454,-0.08268 14.35788,1.692083 15.30038,1.799557 8.18483,0.862577 27.62451,7.267137 37.60889,20.806553 3.86368,3.819589 4.61602,15.093708 4.61602,15.093708 l 15.59804,9.987144 34.0235,-44.432323 -18.40895,-12.401255 c -5.20855,5.649462 -15.19017,5.996697 -19.22746,4.006982 -3.99595,-2.020027 -38.33367,-14.534272 -43.20597,-16.066517 -9.20449,-2.96252 -29.21187,-5.142386 -40.02023,-3.527468 -10.80289,1.562559 -28.53944,4.872317 -42.43986,19.593985 -16.20433,17.223967 -16.40272,31.003142 -16.40272,38.430118 0,11.596558 3.00385,26.910718 16.02517,39.932038 18.71763,18.73417 47.21846,30.49607 53.62303,33.99323 11.37333,6.32464 47.24879,25.10566 52.42975,28.09573 22.0274,12.81464 30.42443,26.42846 28.01581,43.65243 -0.10451,0.83501 -0.38578,1.64247 -0.56219,2.42513 -9.64543,-5.62741 -23.21239,-14.18429 -28.6772,-19.6491 0,0 -3.26843,3.4999 -5.36837,5.59434 l -15.98385,12.00717 c 1.88225,-7.77696 2.09445,-21.07386 1.76374,-22.39115 -0.39133,-1.61493 -1.60389,-14.42405 -12.79808,-22.39117 -7.60611,-5.43726 -24.60962,-15.63661 -39.22656,-22.81831 -6.26953,-3.09756 -26.682,-15.45197 -36.41287,-23.57893 0,0 -16.82985,-15.6614 -19.41482,-25.271 -5.00461,-11.00405 -5.20854,-37.027392 -2.62357,-39.639924 0,0 -6.39354,7.214775 -10.77531,21.638814 -2.16884,7.02738 -3.61016,16.20431 -3.61016,22.41871 0,10.3895 1.81888,28.60558 13.18943,44.02723 5.02939,6.77934 12.92487,14.50395 21.26956,20.02113 10.2131,6.69668 20.48135,10.65681 21.15375,11.1694 2.81096,2.01727 29.23943,13.15911 31.62322,14.36892 2.40585,1.18501 14.52876,6.86203 17.09996,8.21239 9.10803,4.89436 13.79295,7.99192 16.68657,15.79093 l -27.39851,20.48412 c 0,0 1.21257,2.17711 1.21257,5.59434 v 2.61805 c -3.68729,-1.24013 -7.45727,-2.3149 -11.19695,-2.96528 -18.00387,-3.07 -28.97211,-2.9074 -43.22251,0.64487 -15.81851,3.90225 -32.42516,10.27925 -48.0342,25.88831 -17.60704,17.65939 -17.42239,29.42129 -17.42239,29.42129 l 17.61804,-10.36192 c 14.72169,-8.28957 34.11174,-13.21425 47.8358,-13.21425 32.71725,0 49.69873,9.41946 54.42221,14.69409 v 31.72796 c 0,6.29707 -1.885,7.10452 -3.29875,8.28952 -0.52357,0.46024 -1.00585,0.5126 -2.89362,1.80509 0,0 2.3976,0.88738 2.9901,1.50742 1.6149,1.18502 63.91881,38.83522 63.91881,38.83522 l 24.1246,-17.70897 11.92174,18.97391 -33.13064,41.14463 -22.79078,-20.79829 v 38.80765 L 287.1134,477.59967 333.05317,419.92832 370.78608,480 401.1967,455.58881 v -38.40256 l -24.42221,18.38142 -24.76117,-39.45529 44.76851,-56.19146 14.81539,12.00167 z m -155.4842,-86.44225 14.21185,-10.41706 c 3.85816,3.17748 8.39703,6.13724 12.93036,8.74702 -0.31138,0.24251 -0.52359,0.45747 -0.52359,0.45747 0,0 -16.39723,13.99413 -26.62137,15.47402 v -14.25871 z m 24.88519,91.23191 -24.88519,-15.2012 V 303.8305 c 10.41706,-1.85742 35.86166,-13.97208 49.02629,-27.12842 0.1709,2.45269 0.10451,27.64102 0.0497,44.69964 l -15.25907,-24.35331 -23.27578,16.5791 v 29.60591 l 12.878,-8.53477 9.63443,15.36652 -8.16831,6.64154 z" fill="#f9f9f9" /></svg>