<svg xmlns="http://www.w3.org/2000/svg" xml:space="preserve" style="enable-background:new 0 0 512 512" viewBox="0.0 0.0 512.0 512.0" width="316.22776601683796" height="316.22776601683796"><path d="M 0,512 H 512 V 0 H 0 Z" fill="#000000"/><g><path d="m 99.278861,243.40359 c 0.309565,7.20845 1.400419,14.31372 3.169359,21.24208 -1.91636,-25.03057 2.53549,-46.02204 11.54236,-63.34296 a 371.15408,371.15408 0 0 0 -7.01681,-0.059 94.712249,94.712249 0 0 0 -7.694909,42.15984 m 115.438379,-103.2474 -2.03428,0.0442 c -29.57086,0.9287 -56.97476,8.90369 -76.61005,23.73334 a 100.2402,100.2402 0 0 0 -8.94791,7.63595 97.616266,97.616266 0 0 0 -9.44911,11.02642 c 3.53789,-0.58965 7.03155,-1.12033 10.43677,-1.56257 20.72614,-23.05524 51.8743,-36.46974 86.60458,-40.87736 m 128.80866,134.77884 -14.57905,19.60581 -47.40772,150.96469 78.76227,-0.059 8.60886,-8.59412 h -75.48972 z m -69.91754,2.66816 c 12.20572,-16.51015 28.92225,-39.12316 44.48896,-59.40706 l 0.11793,-0.14741 c 28.03778,-33.38883 45.90412,-49.76631 68.23704,-62.57642 7.10353,-3.9566 14.53628,-7.29074 22.215,-9.96505 -10.83478,2.99246 -22.24448,7.32637 -33.68365,13.72406 -2.32911,1.32671 -4.58452,2.69764 -6.82518,4.11279 -20.81458,12.35314 -38.68093,26.0772 -65.4657,60.30628 l -38.73989,52.64085 2.34385,11.17383 7.31164,-9.86187 m -34.80398,138.18407 0.51594,-0.70758 0.41275,-0.54542 0.32431,-0.44224 -1.26775,1.69524 z m -20.04804,-64.4485 c -1.20878,1.76895 -1.50361,2.65342 -1.62154,3.65582 l -0.0295,0.33905 c -0.20638,3.56737 -0.7518,8.07818 -1.91636,11.2328 -0.0398,0.11646 -0.0899,0.23011 -0.14741,0.33905 l 13.13442,63.09236 7.03155,-9.36067 -15.03603,-71.33269 c -0.57491,0.78128 -1.06137,1.51834 -1.41515,2.03428 m -98.33859,97.77842 c -20.5345,9.62601 -41.938731,10.80531 -51.284656,11.46866 -3.759007,0.2506 -7.518015,0.39802 -11.277022,0.41276 14.033628,-10.96746 25.133756,-21.68432 32.533841,-36.86776 2.137475,-4.14228 4.157021,-8.77102 5.940707,-13.93044 2.653417,-7.72439 29.11388,-93.25287 47.96788,-154.32569 -1.93109,2.21119 -3.78849,4.51081 -5.45424,6.92837 -4.73193,6.8694 -9.89135,14.26949 -12.64796,22.24448 -0.19163,0.53069 -0.33904,1.10559 -0.51594,1.65102 -0.78128,2.52074 -1.54783,5.05623 -2.35859,7.6212 -2.50601,8.15189 -5.08572,16.45119 -7.59172,24.54411 l -1.22352,3.95064 -0.059,-0.059 c -13.84199,44.56266 -25.222202,81.03241 -26.799511,85.85278 -9.345924,28.42105 -29.82146,41.96821 -55.648052,61.44135 9.227994,0.16215 19.178309,0.36853 28.701128,-0.38327 13.20812,-1.04663 50.650785,-3.33152 75.489715,-29.04018 0.95818,-0.95818 1.88687,-1.9311 2.81557,-2.94824 2.59445,-2.88928 4.90882,-5.95545 7.10526,-9.09533 -0.91395,1.13508 -1.76894,2.32911 -2.7566,3.41996 -6.5043,7.0934 -14.28551,12.8993 -22.93732,17.11454 m 83.83324,-134.08601 c 2.28489,-1.87213 4.79089,-3.83271 7.45905,-5.79329 l -8.41723,-39.91919 -5.10046,16.65757 z" fill="#ef3340"/><path d="m 239.21713,167.39794 12.7364,-0.78129 c 1.4299,-12.35313 6.72199,-15.38982 6.72199,-15.38982 -16.81971,5.58692 -19.45839,16.17111 -19.45839,16.17111 m -132.24336,33.84581 c 12.60373,-0.0442 25.20746,0.54542 37.76697,1.72472 l 1.0024,-0.76655 0.13267,-0.10318 c 2.78609,-2.108 5.66063,-4.09806 8.60887,-5.97019 1.20878,-0.78129 2.44704,-1.51835 3.67056,-2.25541 l 1.88687,-1.12033 c -31.81152,-1.40041 -74.605242,0.19164 -115.438382,13.47346 1.017143,-0.19163 16.406962,-3.0072 39.72755,-4.31917 7.532756,-0.44224 15.094995,-0.66335 22.642492,-0.66335 m 249.64232,-85.29262 -66.63025,12.01408 66.83663,-12.02882 c 0,0 -67.91274,24.85367 -82.86032,30.51429 -14.93284,5.64588 -14.59379,19.69425 -14.59379,19.69425 l 29.18759,-1.76894 c 22.46559,-1.41516 29.99835,4.70244 29.99835,4.70244 l -52.68507,5.63114 -16.71653,16.25955 c -42.73475,-0.33904 -134.97048,34.36176 -125.84567,103.33586 l 2.34385,-7.63595 0.51594,-1.65101 0.16215,-0.51594 2.27015,-7.35586 c 0.57491,-1.76895 1.12033,-3.50841 1.63627,-5.0415 1.48887,-5.24787 3.46419,-10.27462 5.94071,-15.02129 11.45392,-22.06758 34.71554,-36.39603 51.57948,-44.22361 16.58386,-7.68017 35.21674,-12.92804 50.97509,-14.56432 3.02195,-0.3243 5.97019,-0.51594 8.72679,-0.56016 l 1.04663,-0.0442 3.34625,0.0295 18.05798,-17.64523 63.72623,-6.85466 c -2.41755,-2.63867 -14.46112,-14.35793 -38.2092,-14.82965 a 80.442761,80.442761 0 0 0 -7.2969,0.2506 l -19.84166,1.20878 a 13.665098,13.665098 0 0 1 8.03395,-8.16663 c 14.72647,-5.57217 93.41503,-34.50916 94.09312,-34.75976 l 6.30924,-6.16183 z M 211.47418,349.74665 a 11.940377,11.940377 0 0 1 0.98766,-1.68049 l 0.9287,-1.37093 2.74186,-3.92117 2.04903,-2.83031 c 2.34385,-3.19884 4.80563,-6.33872 7.35586,-9.3754 l 4.1865,-4.80564 0.41276,-0.48646 c 1.22352,-1.40041 2.41755,-2.77134 3.61159,-4.08331 l 0.72232,-0.81077 a 160.19269,160.19269 0 0 1 6.73673,-7.14948 l 0.36853,-0.38327 h 0.0295 c 4.17177,-4.09806 7.975,-7.12001 11.30651,-8.24034 -0.23586,-0.0737 -0.5012,-0.0442 -0.7518,-0.0885 -1.81317,-0.059 -6.58932,0.61914 -14.9181,7.17897 -4.33392,3.72953 -9.67023,8.93317 -16.15636,16.23007 -7.26742,8.21085 -10.64315,13.87147 -13.14916,17.11454 -1.87213,2.40282 -2.44704,3.74427 -2.81557,5.99967 -0.0737,0.41275 -0.23586,6.94311 -1.45938,10.28936 -0.94344,2.55023 -4.77615,8.07818 -4.96779,8.41723 -1.79842,2.99247 -1.59205,4.45185 -1.53308,6.10286 0.059,1.66576 -0.26534,23.7186 0.35379,48.26271 0.61913,24.54411 9.03636,40.3172 9.03636,40.3172 l -0.0147,-0.0147 c 4.58451,4.46658 8.90368,6.23553 8.90368,6.23553 -4.39288,-7.66543 -11.74874,-29.74776 -12.17623,-46.6854 -0.45698,-17.68945 -0.0737,-33.13823 -0.23586,-42.21882 -0.0147,-1.99006 -0.059,-3.98012 -0.11793,-5.97019 l -0.0147,-0.51594 c -0.0295,-0.82551 -0.0295,-1.07611 0.79602,-2.65341 0.0884,-0.14742 0.16216,-0.28009 0.29483,-0.45698 2.12273,-3.21359 4.21598,-6.50087 5.07097,-8.82998 1.1793,-3.15462 1.56257,-7.65069 1.76895,-11.2328 l 0.0295,-0.33905 a 9.1837713,9.1837713 0 0 1 0.61913,-1.96058 z" fill="#41748d"/><path d="m 160.02737,192.75281 0.45698,-0.23586 a 173.78408,173.78408 0 0 1 26.23934,-12.20572 c -12.53002,-1.78368 -33.56572,-2.52074 -58.59629,0.72232 a 297.62495,297.62495 0 0 0 -29.674047,5.48373 c 8.859467,-16.0974 22.303447,-30.67645 40.862627,-42.322 11.57184,-7.84232 17.89582,-9.33119 29.21707,-21.77276 2.9335,-3.22833 4.26021,-5.97019 5.71958,-9.02162 13.00175,-27.12382 3.59686,-40.331941 10.25988,-60.011451 24.48515,26.607877 39.90445,55.117371 47.74677,71.848641 1.34145,0.23586 2.66816,0.51594 3.99487,0.8255 5.02675,0.91396 11.02642,2.57972 17.40936,5.74908 0,0 9.34593,-1.47413 20.94725,-1.04663 l 15.37508,-2.77135 66.645,-12.01408 20.13648,-5.15942 6.6188,-6.38294 -109.27656,19.57632 a 132.74456,132.74456 0 0 0 -19.3552,0.85499 73.455429,73.455429 0 0 0 -16.48067,-5.32158 c -0.45698,-0.0884 -0.88447,-0.2506 -1.32671,-0.35379 -8.34352,-17.27669 -23.37955,-44.046721 -47.15711,-69.888055 a 91.30703,91.30703 0 0 0 -8.74154,-7.974992 c -1.38567,3.021947 -3.36099,10.304103 -3.36099,10.304103 -2.15222,7.193708 -2.8598,17.718929 -2.91876,28.067256 0.17689,7.20845 -0.6781,19.163568 -5.7933,29.556118 -0.35379,0.69284 -0.76654,1.35619 -1.16455,2.03429 -0.45698,0.78128 -0.91396,1.59205 -1.41516,2.35859 -0.85499,1.22352 -1.76894,2.40282 -2.72712,3.53789 -0.35379,0.41275 -0.6781,0.86973 -1.06137,1.26774 -3.90642,4.3634 -8.97739,8.4762 -15.47826,12.86908 l -1.3562,0.88447 c -4.71718,2.83031 -13.25234,7.6212 -19.72373,12.55951 -17.20299,12.32364 -27.934585,26.18038 -36.484484,44.0762 -14.755947,4.12754 -30.013095,9.75868 -45.049126,17.37988 l 0.05897,-0.0147 C 85.422127,192.94445 128.20111,191.3524 160.02737,192.75281 M 115.73005,318.87857 C 87.500637,286.84593 77.240758,241.31034 91.628175,201.55331 c -2.432299,0.10319 -4.879339,0.22112 -7.311638,0.35379 a 118.22447,118.22447 0 0 0 -5.867,40.59728 c 0,0.11793 -0.04422,0.22112 -0.04422,0.33905 l 0.02948,0.36853 c 0.01474,0.19163 -0.02948,0.38327 -0.01474,0.57491 l 0.191636,1.68049 c 2.049028,31.85575 18.264354,59.56922 35.835867,77.30289 l 0.059,0.059 1.22352,-3.95064 m 75.5929,-241.696814 c 0.0147,0.825507 0.0147,1.651015 0.0442,1.975321 1.65102,23.762823 -6.72199,40.995293 -14.01888,50.783453 a 106.43151,106.43151 0 0 1 41.12796,-8.72679 326.90098,326.90098 0 0 0 -27.1533,-44.031984 m 15.22767,387.266224 a 4.2749497,4.2749497 0 0 1 -0.70758,-0.20638 c -3.22833,-1.14981 -16.48067,-8.01921 -21.92017,-44.53318 a 466.11693,466.11693 0 0 1 -2.1817,-16.31852 l -0.22112,-1.94584 c -1.22352,-11.18857 -1.34145,-16.80497 -1.97532,-21.87595 -0.36853,-2.91875 -1.04663,-9.09532 -4.96779,-16.31851 a 1.2382613,1.2382613 0 0 0 0.0737,-0.2506 l -0.0147,-0.0147 23.5417,-77.0228 5.10046,-16.64283 8.41723,39.91919 c -2.6829,1.97532 -5.15942,3.9359 -7.45905,5.80804 -5.33632,4.36339 -9.46386,8.1224 -11.46866,9.74393 -3.34625,2.6829 -5.70485,4.23073 -7.98973,5.07098 l -2.27015,7.42957 c 4.48133,-1.06137 8.78576,-3.78849 13.93044,-8.52042 5.23313,-4.80563 7.16423,-6.05864 13.93044,-11.92564 3.64108,-3.15462 7.01681,-5.74907 10.12721,-7.8718 L 204.81119,234.6474 161.0593,377.84347 c -2.28489,7.87181 -9.24274,31.81153 -24.16084,48.38064 -4.55503,5.05624 -17.51255,19.45839 -53.92333,24.38196 6.810437,-7.62121 15.434043,-19.87115 21.5369,-37.5606 2.94824,-8.57938 33.60995,-107.78769 52.47869,-168.90474 -4.58451,3.50841 -8.84472,7.44431 -12.69218,11.74875 -18.854,61.07281 -45.31446,146.60129 -47.967877,154.32568 -1.783686,5.15942 -3.817973,9.78816 -5.940707,13.9157 -7.400085,15.18344 -18.500213,25.9003 -32.533841,36.86776 3.729525,-0.0295 7.473791,-0.14742 11.277022,-0.41276 9.331184,-0.66335 30.750156,-1.85739 51.284653,-11.46866 a 76.698495,76.698495 0 0 0 22.93732,-17.11454 c 0.98766,-1.09085 1.84265,-2.27014 2.7566,-3.41996 14.26949,-17.70418 21.00622,-40.50883 23.29111,-48.33641 l 0.48646,-1.66576 1.96058,-6.4419 c 0.84025,2.46178 1.35619,5.1152 1.62153,8.16662 0,0 1.60679,15.05078 3.96538,36.17492 5.70485,51.15199 28.68639,52.09543 38.01758,54.18868 0,0.0147 -4.31918,-1.76895 -8.90369,-6.22079 m 253.22439,-327.5939 c -13.31131,0 -31.56092,1.76894 -51.10776,8.65309 -7.29689,2.56497 -14.7412,5.77855 -22.215,9.96505 -22.33292,12.79537 -40.19926,29.17285 -68.23704,62.57642 l -0.11793,0.14741 a 4070.7251,4070.7251 0 0 0 -44.48896,59.40706 l -7.31164,9.87661 -2.34385,-11.17383 -16.46592,-78.52641 a 91.248065,91.248065 0 0 0 -8.74154,0.56017 l 22.98154,109.63035 5.73433,-7.57698 c 2.66816,-3.52315 7.26741,-9.74394 13.10493,-17.63049 14.5938,-19.87114 29.37923,-39.60962 44.34155,-59.20068 27.27123,-32.47488 44.5037,-48.32167 65.80474,-60.52739 24.58833,-13.76829 49.30934,-17.17351 66.49758,-17.46833 -17.9253,16.5986 -31.16291,39.10842 -40.31719,68.42868 l -56.37038,181.6264 c -1.76894,6.08812 -2.99246,10.77582 -3.59685,15.33085 -0.88447,6.60406 -0.86973,12.22046 0.0737,17.23247 H 305.16928 L 366.75804,229.14885 239.70359,400.01417 226.99667,339.75212 c -2.69764,3.55263 -5.15942,7.09052 -6.83992,9.52282 l 15.03603,71.33269 93.73933,-126.09627 14.57905,-19.59107 -50.09062,161.91741 h 75.48972 c -1.54783,-3.96538 -1.7542,-4.64348 -2.16696,-5.85226 -1.88687,-5.07097 -2.27014,-11.07064 -1.23826,-18.91297 0.54543,-4.0096 1.66576,-8.35826 3.30203,-13.97466 l 56.37037,-181.55269 c 10.03876,-32.15057 25.11902,-55.54487 46.08101,-71.52433 2.81557,-2.22593 5.867,-4.51081 8.74154,-6.60406 0.0147,0.0295 -10.33359,-1.44464 -20.22494,-1.56257" fill="#00a3e0"/></g></svg>