<svg xmlns="http://www.w3.org/2000/svg" width="314.9039" height="314.9039" viewBox="0 0 314.9039 314.9039"><circle cx="157.45195" cy="157.45195" r="157.45195" fill="#009845"/><circle cx="157.45195" cy="157.45195" r="147.5456" fill="#fff"/><circle cx="157.45195" cy="157.45195" r="137.65019" fill="#1a428a"/><path d="M229.93451,86.9266c-.27335,5.95911-1.95721,12.53055-5.35773,21.52937,10.73734,11.44807,13.90825,21.07013,6.26527,35.60163-3.41146-.45923-7.89447,1.3121-12.33374,4.95317a397.77827,397.77827,0,0,1,28.00239,30.57191l6.88853-12.36653h0l17.52746,31.44665-9.84074-1.14809,10.38745,17.03542A126.88207,126.88207,0,0,0,284.95521,157.441c0-3.57547,4.47207-52.812-55.03165-70.52535Z" fill="#bbc4c7"/><path d="M52.13409,189.63118a47.55743,47.55743,0,0,1-16.37938-16.46684,121.91894,121.91894,0,0,0,19.41908-8.12408,177.73155,177.73155,0,0,1,28.05705-64.32568c-20.99359-8.08035-44.68792,4.3846-51.17188,33.62255-2.46018,11.07631-5.20466,38.42265,6.16687,68.38225A146.6336,146.6336,0,0,0,52.13409,189.63118Z" fill="#bbc4c7"/><path d="M148.93424,52.95415c10.967,6.5605,24.63467,10.73735,39.11151,14.48777,6.45115-6.69171,12.21346-12.54149,16.34657-15.99668,5.75136-1.42144,12.20253-.36083,15.96389,4.19872,5.51081,6.68077,8.85667,22.03234,8.99881,22.8196,17.03543,5.53268,32.74781,13.04445,43.99908,25.77182A128.0019,128.0019,0,0,0,227.91172,51.161c-21.4747-13.85358-50.72359-12.33373-78.97746,1.78227Z" fill="#bbc4c7"/><path d="M87.81226,93.65111c2.329-4.43927,5.15-10.33278,8.55052-17.89923C83.81035,61.79989,76.233,61.08917,74.34137,60.76114a128.08483,128.08483,0,0,0-31.10769,39.97531,41.63473,41.63473,0,0,1,44.56765-7.08534Z" fill="#bbc4c7"/><path d="M141.71769,47.92444c18.107-9.33778,36.69505-13.64584,53.56647-12.27907a128.68979,128.68979,0,0,0-62.52154-3.313c-.80913,5.23747,3.57546,11.09818,8.966,15.58118Z" fill="#bbc4c7"/><path d="M134.27153,52.06848c-5.33587-5.00784-9.44712-11.51367-9.58927-17.86642a126.94062,126.94062,0,0,0-43.671,21.19041c7.16188,1.26836,16.12789,2.83194,31.96055,5.3468,19.15666-7.56644,21.0264-8.51771,21.29975-8.68172Z" fill="#bbc4c7"/><path d="M212.88815,154.75121c-22.415,27.86024-3.44425,55.09725-7.89446,90.63328l14.01758-23.093-8.638,1.00594L225.211,196.67279h0l10.03755,18.00857,10.45306-17.14476-9.84075,1.14809,6.4621-11.60115a393.43252,393.43252,0,0,0-29.45664-32.31046Z" fill="#bbc4c7"/><path d="M115.432,86.93753c-8.70359,5.10626-14.35655,8.50678-18.4678,11.77609a55.01,55.01,0,0,1,15.67959,17.8883c15.614-14.20348,20.98267-11.4262,38.37891-14.62991-8.53958-6.18873-11.131-8.98789-35.60164-15.03448Z" fill="#bbc4c7"/><path d="M130.69605,72.05614c14.46589,16.41218,18.67555,18.55527,27.76184,25.17044,7.33683-6.6589,15.54838-15.15475,23.2679-23.19136-14.52057-3.94724-28.3851-8.68173-39.88782-16.16069-2.78822,2.38364-4.95318,5.40147-11.15285,14.19254Z" fill="#bbc4c7"/><path d="M114.34948,79.15241c6.09033,1.67292,10.89043,2.93035,18.17258,5.139-3.66294-4.18779-7.4243-8.3537-10.9779-11.8745,2.88662-3.91443,5.806-7.8398,8.95508-11.798-6.484,2.42739-11.787,4.54862-17.2213,6.99787-6.25435-1.53078-12.53055-2.76634-19.12385-3.85976,4.58141,4.08938,7.50083,6.91039,11.27312,10.72641-2.70074,4.51581-5.46708,9.469-8.44118,15.41717,5.97005-3.88163,11.48087-7.29308,17.36345-10.75922Z" fill="#009845"/><path d="M90.75355,163.44387a104.343,104.343,0,0,1-42.71977,12.86951c9.26124,9.41432,25.411,11.40432,38.41171,5.77324a31.7168,31.7168,0,0,1-9.75327-4.32994c6.77918-3.21465,11.8089-8.58332,14.06133-14.30189Z" fill="#bbc4c7"/><path d="M224.53305,123.99341c-8.67079.04374-16.86048,8.95508-22.87427,8.95508-3.11624,0-4.65795-2.51486-4.811-5.83884-.4155-9.07536,16.83861-24.67841,20.04233-45.54079.24055-1.57453,1.27929-1.61826,1.83693.04373,1.43237,4.24246,1.80413,13.48183.67791,22.43691,5.39054-13.24127,5.76231-23.54125.80914-32.387-1.01687.8966-2.09936,1.80413-2.9413,2.47112-12.42121-2.66794-16.91515-1.59639-20.77491-6.29808-26.28572,27.42288-32.74781,32.26672-42.96032,53.17283a49.83571,49.83571,0,0,0-1.57452-8.33183c-.79819-2.21964-1.97908-2.79915-5.67483-2.79915-6.01379,0-14.8486,1.51985-19.70337,5.23747-5.27026,4.03471-10.51867,12.35561-13.285,30.12362,15.66866.17495,22.02141-.56858,28.38509-3.991-5.13906,10.22345-15.45,21.05919-32.26672,30.73593a34.12351,34.12351,0,0,0,13.84265,2.13216c-14.18161,15.286-17.68054,32.57286-9.55646,53.94916,1.323-9.03162,4.28619-16.46685,8.4193-21.17947,1.3121,22.3713,12.80391,29.77372,26.35133,53.45712a76.00073,76.00073,0,0,0,2.657-20.90611c11.95105,14.46589,17.92109,26.4388,20.45782,41.025,10.45306-11.15284,16.76208-27.893,17.06823-42.86191a35.3881,35.3881,0,0,1,6.1778,12.47588c8.64893-29.64251-4.22059-47.06063.28428-72.0452-1.7604-2.00095-7.88354.64511-15.0454,8.79106,10.2125-31.64347,39.08963-53.52272,46.96223-49.89259,3.29117-6.99787,2.47111-12.946-2.52579-12.92418Z" fill="#fff"/><path d="M219.29557,65.91113c-.995-3.37865-2.29618-5.77323-3.87068-7.1072a10.072,10.072,0,0,0-8.2553-1.73853,76.71182,76.71182,0,0,0-7.70859,7.44616c3.83789-.328,7.16188-1.45424,11.61208-1.45424C214.99844,63.05732,217.557,63.943,219.29557,65.91113Z" fill="#009845"/><path d="M225.375,120.079a8.27485,8.27485,0,0,0-4.144-5.86071,18.17735,18.17735,0,0,1-.63418,5.78417,10.73742,10.73742,0,0,1,4.77823.08748Z" fill="#fff"/><path d="M210.61385,114.25107a29.34928,29.34928,0,0,1,.53578,9.06442,44.8868,44.8868,0,0,1,5.981-2.46019,12.61293,12.61293,0,0,0-6.50582-6.61517Z" fill="#fff"/><path d="M145.993,116.98461c-5.35773-.22962-10.26718.74352-13.30687,2.87568-3.18185,2.24151-6.18874,7.26028-8.05848,13.59117,4.80009-1.334,10.83575-3.64108,14.32375-6.39649C141.43341,123.49043,143.84985,119.94777,145.993,116.98461Z" fill="#009845"/><path d="M148.74835,217.11969A104.17212,104.17212,0,0,1,147.316,233.5756c-10.3-17.0901-17.68054-27.32448-13.5365-44.69886-3.23651,1.86975-6.976,5.94819-9.51271,10.0813.05467-12.46494,4.75636-22.20728,12.85857-31.217a41.79814,41.79814,0,0,1-8.45211.02187c10.36559-9.82981,12.89138-17.92109,13.04446-26.53721h0c-5.139,10.22344-15.45,21.07013-32.26672,30.73593a34.12351,34.12351,0,0,0,13.84265,2.13216c-14.18161,15.286-17.68054,32.57288-9.55646,53.94915,1.323-9.03161,4.28619-16.46684,8.4193-21.17946,1.3121,22.37128,12.80391,29.77372,26.35134,53.45712a76.00118,76.00118,0,0,0,2.657-20.90612c11.951,14.4659,17.92109,26.43882,20.45783,41.025,3.5864-20.764-1.4105-35.95154-22.8524-63.33067Z" fill="#bbc4c7"/><path d="M90.688,104.5634C90.349,105.11011,72.69032,128.10465,64.271,159.77c18.13978-11.51368,31.11864-25.9577,42.1512-37.09962-6.76825-12.88044-15.65772-18.05231-15.73426-18.096Z" fill="#bbc4c7"/></svg>