<?xml version="1.0" encoding="utf-8"?>
<!-- Generator: Adobe Illustrator 12.0.0, SVG Export Plug-In . SVG Version: 6.00 Build 51448)  -->
<!DOCTYPE svg PUBLIC "-//W3C//DTD SVG 1.1//EN" "http://www.w3.org/Graphics/SVG/1.1/DTD/svg11.dtd" [
	<!ENTITY ns_svg "http://www.w3.org/2000/svg">
	<!ENTITY ns_xlink "http://www.w3.org/1999/xlink">
]>
<svg  version="1.1" id="Layer_1" xmlns="&ns_svg;" xmlns:xlink="&ns_xlink;" width="199" height="199.002"
	 viewBox="0 0 199 199.002" overflow="visible" enable-background="new 0 0 199 199.002" xml:space="preserve">
<g id="Layer_1_1_">
</g>
<g id="Layer_3">
</g>
<g id="Layer_2">
</g>
<radialGradient id="XMLID_2_" cx="305.5" cy="-197.499" r="99.0005" gradientTransform="matrix(1 0 0 -1 -206 -97.998)" gradientUnits="userSpaceOnUse">
	<stop  offset="0.9421" style="stop-color:#CE9D11"/>
	<stop  offset="0.9711" style="stop-color:#F9D970"/>
	<stop  offset="1" style="stop-color:#CE9D11"/>
</radialGradient>
<path fill="url(#XMLID_2_)" stroke="#000000" d="M198.5,99.499c0,54.677-44.325,99.003-99.001,99.003
	c-54.675,0-98.999-44.326-98.999-99.003C0.5,44.825,44.824,0.5,99.499,0.5C154.175,0.5,198.5,44.825,198.5,99.499z"/>
<circle fill="#0000EE" cx="99.5" cy="100.147" r="91.882"/>
<g>
	<path d="M60.835,158.974l12.951,6.959l-2.69,5.805l-0.909-0.489c0.431-1.313,0.658-2.399,0.679-3.257
		c0.02-0.855-0.111-1.543-0.396-2.063c-0.284-0.517-0.688-0.917-1.209-1.197c-0.3-0.162-0.554-0.217-0.761-0.17
		c-0.207,0.049-0.373,0.189-0.498,0.424l-6.16,11.461c-0.118,0.222-0.146,0.438-0.085,0.654c0.061,0.211,0.188,0.371,0.382,0.477
		l1.681,0.9l-0.497,0.926l-7.917-4.252l0.496-0.926l1.602,0.859c0.239,0.129,0.467,0.163,0.681,0.102
		c0.213-0.063,0.382-0.205,0.503-0.435l6.127-11.401c0.144-0.267,0.177-0.502,0.102-0.707s-0.267-0.389-0.574-0.556
		c-1.705-0.917-3.695,0.022-5.969,2.813l-0.88-0.473L60.835,158.974z"/>
	<path d="M75.812,166.788l14.24,3.452l-1.067,5.795l-0.97-0.235c0.098-1.404,0.048-2.445-0.151-3.121
		c-0.2-0.678-0.542-1.229-1.027-1.656c-0.485-0.433-1.178-0.758-2.079-0.974l-2.235-0.542c-0.347-0.084-0.615-0.076-0.802,0.021
		c-0.188,0.1-0.311,0.271-0.371,0.514l-1.371,5.657l0.763,0.184c0.875,0.214,1.615,0.128,2.219-0.257
		c0.603-0.383,1.083-1.12,1.441-2.211l1,0.243l-1.845,7.614l-1-0.244c0.239-1.278,0.179-2.235-0.182-2.867
		c-0.361-0.637-1.031-1.072-2.01-1.311l-0.629-0.15l-1.465,6.048c-0.064,0.267-0.033,0.471,0.096,0.62
		c0.196,0.221,0.516,0.383,0.958,0.488l1.968,0.479c1.348,0.325,2.553,0.163,3.616-0.492c1.063-0.65,1.91-1.822,2.537-3.509
		l1.001,0.243l-1.75,6.158l-14.847-3.598l0.25-1.031l1.47,0.355c0.331,0.08,0.603,0.059,0.817-0.07
		c0.214-0.129,0.357-0.336,0.427-0.623l3.046-12.572c0.065-0.266,0.025-0.481-0.117-0.647c-0.144-0.167-0.439-0.305-0.889-0.416
		l-1.293-0.312L75.812,166.788z"/>
	<path d="M91.805,170.772l8.326-0.135l0.018,1.061l-0.616,0.01c-0.561,0.01-0.932,0.064-1.109,0.167
		c-0.182,0.103-0.271,0.235-0.27,0.401c0.004,0.197,0.166,0.51,0.482,0.937l2.859,3.787l2.162-2.709
		c0.479-0.59,0.712-1.146,0.701-1.672c-0.004-0.317-0.11-0.562-0.313-0.728c-0.205-0.166-0.498-0.248-0.885-0.242l-0.523,0.009
		l-0.019-1.062l6.626-0.107l0.018,1.063l-0.498,0.008c-0.416,0.008-0.783,0.1-1.103,0.279c-0.322,0.178-0.683,0.514-1.082,0.995
		l-4.261,5.213l5.69,7.336c0.269,0.353,0.515,0.586,0.735,0.701c0.222,0.113,0.475,0.169,0.762,0.163l0.555-0.01l0.019,1.061
		l-8.204,0.137l-0.018-1.063l0.859-0.017c0.408-0.006,0.701-0.076,0.883-0.211c0.178-0.137,0.267-0.308,0.262-0.513
		c-0.002-0.172-0.125-0.396-0.373-0.664l-0.116-0.151l-3.188-4.188l-2.567,3.229c-0.348,0.449-0.521,0.916-0.512,1.41
		c0.006,0.368,0.107,0.646,0.309,0.824c0.262,0.229,0.574,0.344,0.939,0.338l0.641-0.013l0.018,1.062l-6.932,0.112l-0.018-1.063
		l0.433-0.006c0.349-0.006,0.716-0.121,1.099-0.349c0.631-0.389,1.117-0.798,1.459-1.228l4.318-5.348l-5.405-6.925
		c-0.286-0.358-0.53-0.593-0.729-0.698c-0.199-0.106-0.458-0.158-0.776-0.152l-0.637,0.01L91.805,170.772z"/>
	<path d="M119.02,167.565l10.082,12.881c0.287,0.359,0.556,0.587,0.803,0.676c0.242,0.09,0.535,0.088,0.871-0.006l0.594-0.163
		l0.279,1.017l-7.611,2.1l-0.282-1.018l0.714-0.197c0.563-0.154,0.936-0.323,1.113-0.506c0.176-0.184,0.236-0.377,0.182-0.582
		c-0.047-0.16-0.141-0.334-0.287-0.521l-2.08-2.663l-6.065,1.674l-0.199,1.529c-0.086,0.64-0.09,1.095-0.012,1.373
		c0.131,0.475,0.414,0.813,0.845,1.015c0.434,0.196,0.953,0.212,1.561,0.046l0.518-0.142l0.279,1.016l-6.156,1.696l-0.281-1.017
		l0.354-0.097c0.396-0.108,0.709-0.331,0.939-0.661c0.328-0.466,0.533-1.01,0.617-1.619l1.994-15.488L119.02,167.565z
		 M118.378,172.16l-0.894,6.892l5.166-1.424L118.378,172.16z"/>
	<path d="M138.198,160.865l0.177-1.831l0.695-0.396l2.965,4.997l-0.896,0.509c-1.285-1.188-2.559-1.897-3.82-2.136
		c-1.258-0.239-2.401-0.065-3.43,0.519c-0.879,0.502-1.455,1.146-1.731,1.937c-0.28,0.791-0.229,1.521,0.149,2.187
		c0.226,0.396,0.539,0.697,0.943,0.901c0.404,0.205,0.916,0.289,1.532,0.247c0.618-0.042,1.604-0.279,2.958-0.716
		c1.585-0.504,2.715-0.795,3.393-0.865c1.078-0.106,2.01,0.03,2.797,0.415c0.787,0.383,1.439,1.026,1.951,1.928
		c0.768,1.351,0.914,2.69,0.443,4.022c-0.57,1.606-1.686,2.882-3.34,3.823c-1.522,0.865-3.217,1.126-5.082,0.781l-0.332,2.099
		l-0.729,0.415l-3.082-5.414l0.863-0.494c2.625,2.605,5.258,3.154,7.897,1.652c1.08-0.614,1.777-1.342,2.094-2.182
		c0.318-0.84,0.263-1.631-0.16-2.376c-0.295-0.521-0.676-0.882-1.143-1.085c-0.461-0.203-1.031-0.257-1.709-0.156
		c-0.371,0.051-1.229,0.291-2.572,0.715c-1.813,0.563-3.174,0.852-4.079,0.861c-0.904,0.014-1.677-0.162-2.312-0.527
		c-0.637-0.367-1.18-0.945-1.63-1.736c-0.757-1.33-0.927-2.669-0.513-4.02c0.417-1.348,1.376-2.447,2.883-3.306
		C134.825,160.81,136.432,160.556,138.198,160.865z"/>
</g>
<g>
	<path d="M101.419,35.729c-0.793-0.022-1.334-0.666-1.312-1.504c0.021-0.839,0.621-1.451,1.437-1.43
		c0.813,0.022,1.356,0.643,1.336,1.504c-0.022,0.839-0.601,1.451-1.438,1.431L101.419,35.729z"/>
	<path d="M106.188,36.039c-0.789-0.078-1.283-0.76-1.199-1.595c0.082-0.833,0.726-1.402,1.537-1.319
		c0.811,0.08,1.309,0.738,1.22,1.596c-0.082,0.834-0.7,1.404-1.535,1.32L106.188,36.039z"/>
	<path d="M110.953,36.705c-0.781-0.137-1.225-0.854-1.078-1.679c0.146-0.826,0.827-1.345,1.632-1.204
		c0.802,0.141,1.248,0.835,1.099,1.683c-0.144,0.826-0.804,1.349-1.629,1.204L110.953,36.705z"/>
	<path d="M115.65,37.722c-0.768-0.194-1.153-0.94-0.948-1.753c0.206-0.813,0.926-1.28,1.717-1.08c0.789,0.2,1.183,0.925,0.972,1.76
		c-0.205,0.813-0.902,1.286-1.717,1.08L115.65,37.722z"/>
	<path d="M120.221,39.072c-0.752-0.25-1.084-1.023-0.818-1.819s1.017-1.209,1.789-0.95c0.773,0.257,1.113,1.009,0.842,1.826
		c-0.266,0.797-0.994,1.216-1.79,0.95L120.221,39.072z"/>
	<path d="M124.732,40.776c-0.732-0.305-1.006-1.101-0.682-1.875c0.324-0.773,1.104-1.13,1.855-0.814
		c0.754,0.314,1.035,1.09,0.701,1.885c-0.324,0.774-1.082,1.138-1.855,0.813L124.732,40.776z"/>
	<path d="M129.077,42.798c-0.707-0.358-0.919-1.171-0.54-1.92c0.382-0.747,1.186-1.044,1.911-0.675
		c0.727,0.37,0.95,1.163,0.561,1.931c-0.381,0.749-1.163,1.055-1.909,0.675L129.077,42.798z"/>
	<path d="M133.281,45.15c-0.676-0.411-0.829-1.238-0.395-1.956c0.434-0.717,1.258-0.953,1.954-0.531
		c0.698,0.424,0.863,1.23,0.415,1.969c-0.436,0.717-1.238,0.966-1.955,0.53L133.281,45.15z"/>
	<path d="M137.288,47.797c-0.646-0.458-0.736-1.296-0.25-1.979c0.483-0.684,1.323-0.857,1.989-0.386
		c0.662,0.473,0.769,1.29,0.269,1.993c-0.485,0.684-1.305,0.872-1.989,0.386L137.288,47.797z"/>
	<path d="M141.081,50.724c-0.61-0.506-0.64-1.348-0.104-1.993c0.537-0.645,1.385-0.759,2.012-0.238
		c0.631,0.52,0.674,1.343,0.123,2.006c-0.534,0.646-1.365,0.774-2.012,0.239L141.081,50.724z"/>
	<path d="M144.646,53.914c-0.574-0.549-0.543-1.39,0.037-1.995c0.582-0.605,1.438-0.656,2.025-0.091
		c0.59,0.563,0.573,1.389-0.021,2.01c-0.58,0.605-1.422,0.672-2.025,0.091L144.646,53.914z"/>
	<path d="M147.996,57.394c-0.528-0.59-0.438-1.427,0.188-1.986c0.625-0.562,1.481-0.549,2.027,0.058
		c0.546,0.605,0.467,1.427-0.172,2.003c-0.625,0.561-1.467,0.565-2.025-0.059L147.996,57.394z"/>
	<path d="M151.055,61.072c-0.482-0.626-0.328-1.453,0.334-1.967c0.664-0.514,1.519-0.439,2.019,0.206
		c0.497,0.645,0.362,1.458-0.318,1.985c-0.664,0.514-1.502,0.456-2.019-0.206L151.055,61.072z"/>
	<path d="M153.843,64.973c-0.437-0.659-0.225-1.475,0.478-1.938c0.699-0.463,1.544-0.325,1.994,0.354
		c0.451,0.678,0.254,1.479-0.461,1.955c-0.699,0.464-1.533,0.347-1.994-0.354L153.843,64.973z"/>
	<path d="M156.341,69.082c-0.387-0.69-0.112-1.486,0.618-1.897s1.566-0.212,1.965,0.5c0.401,0.711,0.146,1.495-0.604,1.916
		c-0.731,0.412-1.555,0.232-1.969-0.499L156.341,69.082z"/>
	<path d="M158.541,73.381c-0.335-0.717,0-1.489,0.758-1.846c0.758-0.355,1.577-0.095,1.922,0.646
		c0.346,0.738,0.035,1.501-0.746,1.865c-0.763,0.356-1.565,0.116-1.923-0.644L158.541,73.381z"/>
	<path d="M160.404,77.808c-0.28-0.739,0.105-1.485,0.892-1.784c0.784-0.298,1.577,0.023,1.87,0.785
		c0.287,0.763-0.08,1.5-0.885,1.806c-0.784,0.3-1.569,0-1.868-0.785L160.404,77.808z"/>
	<path d="M161.93,82.349c-0.225-0.759,0.221-1.475,1.023-1.714c0.805-0.238,1.57,0.141,1.805,0.922
		c0.23,0.781-0.189,1.489-1.016,1.736c-0.805,0.238-1.566-0.118-1.807-0.922L161.93,82.349z"/>
	<path d="M163.111,86.981c-0.17-0.773,0.322-1.453,1.146-1.633c0.82-0.18,1.56,0.257,1.729,1.053
		c0.174,0.796-0.295,1.471-1.139,1.654c-0.818,0.181-1.555-0.23-1.731-1.052L163.111,86.981z"/>
	<path d="M163.955,91.737c-0.111-0.782,0.432-1.425,1.262-1.543c0.83-0.117,1.535,0.372,1.649,1.18
		c0.112,0.806-0.405,1.444-1.259,1.565c-0.832,0.118-1.532-0.349-1.648-1.179L163.955,91.737z"/>
	<path d="M164.439,96.508c-0.055-0.791,0.537-1.393,1.371-1.446c0.84-0.058,1.506,0.481,1.56,1.295
		c0.058,0.813-0.511,1.412-1.369,1.47c-0.838,0.056-1.501-0.46-1.558-1.296L164.439,96.508z"/>
	<path d="M164.575,101.313c0.012-0.791,0.647-1.341,1.491-1.328c0.836,0.013,1.455,0.605,1.442,1.422
		c-0.016,0.813-0.628,1.364-1.489,1.35c-0.838-0.014-1.459-0.582-1.444-1.421V101.313L164.575,101.313z"/>
	<path d="M164.363,106.108c0.061-0.791,0.732-1.297,1.568-1.231s1.418,0.697,1.354,1.508c-0.063,0.813-0.712,1.324-1.568,1.257
		c-0.838-0.066-1.422-0.675-1.356-1.509L164.363,106.108z"/>
	<path d="M163.802,110.858c0.122-0.782,0.827-1.239,1.658-1.113c0.826,0.126,1.36,0.798,1.238,1.604
		c-0.124,0.808-0.806,1.267-1.66,1.137c-0.827-0.127-1.364-0.774-1.24-1.604L163.802,110.858z"/>
	<path d="M162.889,115.599c0.178-0.771,0.913-1.177,1.732-0.988c0.818,0.188,1.3,0.896,1.117,1.69
		c-0.186,0.794-0.897,1.203-1.739,1.011c-0.813-0.188-1.304-0.875-1.118-1.689L162.889,115.599z"/>
	<path d="M161.639,120.202c0.233-0.758,1-1.104,1.799-0.858c0.801,0.25,1.229,0.99,0.99,1.771c-0.242,0.779-0.986,1.135-1.808,0.881
		c-0.8-0.247-1.236-0.967-0.989-1.77L161.639,120.202z"/>
	<path d="M160.046,124.717c0.287-0.739,1.079-1.028,1.856-0.725c0.781,0.309,1.156,1.08,0.856,1.838
		c-0.3,0.761-1.065,1.06-1.868,0.743c-0.781-0.305-1.16-1.057-0.854-1.838L160.046,124.717z"/>
	<path d="M158.093,129.156c0.345-0.716,1.152-0.944,1.906-0.58c0.759,0.362,1.069,1.161,0.717,1.896
		c-0.353,0.735-1.142,0.977-1.919,0.602c-0.754-0.363-1.079-1.139-0.716-1.895L158.093,129.156z"/>
	<path d="M155.855,133.373c0.395-0.688,1.217-0.856,1.943-0.438c0.729,0.418,0.982,1.236,0.577,1.943
		c-0.408,0.705-1.213,0.889-1.959,0.459c-0.726-0.42-0.994-1.218-0.573-1.945L155.855,133.373z"/>
	<path d="M153.293,137.438c0.443-0.653,1.277-0.764,1.973-0.293c0.692,0.472,0.887,1.31,0.428,1.98
		c-0.455,0.676-1.271,0.798-1.985,0.313c-0.694-0.471-0.899-1.285-0.429-1.979L153.293,137.438z"/>
	<path d="M150.449,141.297c0.49-0.621,1.33-0.67,1.99-0.146c0.656,0.519,0.789,1.367,0.281,2.004
		c-0.507,0.64-1.328,0.703-2.006,0.166c-0.654-0.521-0.802-1.35-0.281-2.006L150.449,141.297z"/>
	<path d="M147.301,144.965c0.536-0.581,1.379-0.567,1.995,0s0.688,1.425,0.134,2.022c-0.551,0.599-1.375,0.601-2.01,0.017
		c-0.619-0.565-0.701-1.401-0.135-2.021L147.301,144.965z"/>
	<path d="M143.928,148.356c0.578-0.543,1.418-0.467,1.991,0.146c0.574,0.61,0.58,1.468-0.017,2.024
		c-0.594,0.56-1.416,0.502-2.006-0.129c-0.574-0.609-0.598-1.453,0.014-2.026L143.928,148.356z"/>
	<path d="M140.316,151.494c0.615-0.498,1.443-0.362,1.975,0.291c0.525,0.647,0.469,1.507-0.163,2.019
		c-0.634,0.514-1.448,0.396-1.989-0.273c-0.529-0.651-0.492-1.494,0.159-2.021L140.316,151.494z"/>
	<path d="M136.479,154.362c0.649-0.45,1.469-0.254,1.946,0.434c0.479,0.689,0.36,1.538-0.31,2.005
		c-0.668,0.464-1.475,0.287-1.967-0.421c-0.479-0.689-0.379-1.523,0.312-2.003L136.479,154.362z"/>
	<path d="M132.434,156.952c0.68-0.404,1.481-0.146,1.908,0.574c0.428,0.721,0.247,1.561-0.458,1.976
		c-0.7,0.416-1.487,0.179-1.93-0.563c-0.427-0.723-0.265-1.547,0.458-1.975L132.434,156.952z"/>
	<path d="M128.189,159.237c0.709-0.353,1.49-0.036,1.861,0.715c0.371,0.752,0.129,1.572-0.602,1.936
		c-0.73,0.361-1.5,0.066-1.883-0.705c-0.373-0.752-0.15-1.563,0.603-1.936L128.189,159.237z"/>
	<path d="M123.809,161.196c0.733-0.299,1.489,0.074,1.805,0.852c0.314,0.777,0.014,1.578-0.743,1.887
		c-0.755,0.307-1.501-0.045-1.826-0.845c-0.313-0.776-0.034-1.569,0.743-1.884L123.809,161.196z"/>
	<path d="M119.268,162.831c0.756-0.241,1.479,0.188,1.734,0.984c0.255,0.797-0.107,1.574-0.882,1.824s-1.494-0.156-1.759-0.978
		c-0.254-0.798,0.084-1.567,0.884-1.824L119.268,162.831z"/>
	<path d="M114.675,164.112c0.771-0.187,1.462,0.293,1.658,1.107c0.196,0.815-0.224,1.563-1.017,1.756
		c-0.791,0.191-1.478-0.269-1.678-1.104c-0.197-0.814,0.196-1.559,1.012-1.755L114.675,164.112z"/>
	<path d="M109.952,165.058c0.782-0.127,1.437,0.4,1.571,1.229c0.136,0.827-0.338,1.543-1.143,1.673
		c-0.805,0.132-1.455-0.375-1.594-1.227c-0.137-0.825,0.313-1.539,1.141-1.674L109.952,165.058z"/>
	<path d="M105.165,165.649c0.789-0.071,1.399,0.504,1.476,1.342c0.074,0.837-0.449,1.513-1.263,1.585
		c-0.812,0.071-1.422-0.482-1.499-1.341c-0.074-0.834,0.428-1.51,1.262-1.584L105.165,165.649z"/>
	<path d="M100.383,165.89c0.791-0.015,1.36,0.605,1.373,1.442c0.016,0.841-0.558,1.479-1.371,1.489
		c-0.816,0.014-1.383-0.582-1.398-1.443c-0.014-0.838,0.536-1.477,1.373-1.488H100.383z"/>
	<path d="M95.565,165.776c0.792,0.047,1.313,0.707,1.266,1.543c-0.048,0.838-0.666,1.434-1.479,1.386
		c-0.813-0.046-1.337-0.683-1.288-1.543c0.048-0.837,0.643-1.435,1.479-1.388L95.565,165.776z"/>
	<path d="M90.838,165.324c0.785,0.102,1.259,0.796,1.15,1.629c-0.109,0.833-0.768,1.38-1.576,1.274
		c-0.809-0.104-1.284-0.776-1.173-1.634c0.108-0.831,0.743-1.382,1.576-1.272L90.838,165.324z"/>
	<path d="M86.067,164.511c0.775,0.158,1.195,0.889,1.024,1.709c-0.17,0.821-0.867,1.319-1.666,1.154
		c-0.798-0.166-1.224-0.873-1.048-1.715c0.17-0.823,0.845-1.325,1.666-1.154L86.067,164.511z"/>
	<path d="M81.42,163.354c0.761,0.217,1.126,0.978,0.896,1.783c-0.23,0.805-0.963,1.25-1.746,1.025
		c-0.784-0.227-1.156-0.961-0.919-1.79c0.23-0.804,0.941-1.256,1.746-1.024L81.42,163.354z"/>
	<path d="M76.865,161.856c0.743,0.273,1.051,1.058,0.761,1.844c-0.289,0.787-1.053,1.178-1.817,0.895
		c-0.765-0.279-1.081-1.042-0.783-1.852c0.289-0.787,1.031-1.186,1.818-0.895L76.865,161.856z"/>
	<path d="M72.421,160.017c0.722,0.328,0.97,1.133,0.623,1.896c-0.349,0.764-1.139,1.098-1.881,0.757
		c-0.742-0.337-1-1.12-0.644-1.903c0.348-0.764,1.116-1.104,1.88-0.758L72.421,160.017z"/>
	<path d="M68.147,157.871c0.695,0.379,0.884,1.2,0.48,1.937c-0.401,0.734-1.214,1.006-1.93,0.615
		c-0.715-0.391-0.915-1.189-0.501-1.947c0.402-0.733,1.195-1.021,1.931-0.615L68.147,157.871z"/>
	<path d="M64.023,155.397c0.664,0.431,0.792,1.262,0.336,1.965s-1.287,0.916-1.971,0.473c-0.685-0.441-0.824-1.254-0.355-1.979
		c0.455-0.705,1.266-0.928,1.97-0.474L64.023,155.397z"/>
	<path d="M60.103,152.633c0.631,0.479,0.696,1.317,0.191,1.987c-0.507,0.666-1.351,0.816-2.002,0.324
		c-0.648-0.491-0.729-1.313-0.209-1.998c0.506-0.67,1.332-0.832,2-0.327L60.103,152.633z"/>
	<path d="M56.399,149.597c0.596,0.522,0.601,1.365,0.045,1.995c-0.553,0.628-1.404,0.716-2.018,0.179
		c-0.611-0.541-0.632-1.361-0.063-2.011c0.555-0.63,1.39-0.731,2.02-0.179L56.399,149.597z"/>
	<path d="M52.9,146.267c0.554,0.565,0.496,1.404-0.102,1.992c-0.6,0.588-1.456,0.612-2.026,0.03s-0.53-1.405,0.085-2.011
		c0.6-0.586,1.438-0.629,2.026-0.028L52.9,146.267z"/>
	<path d="M49.655,142.69c0.51,0.604,0.393,1.437-0.249,1.979c-0.641,0.542-1.496,0.503-2.022-0.12
		c-0.526-0.623-0.426-1.44,0.233-1.998c0.64-0.541,1.48-0.52,2.022,0.121L49.655,142.69z"/>
	<path d="M46.707,138.912c0.465,0.642,0.285,1.465-0.393,1.957c-0.679,0.493-1.529,0.394-2.009-0.269
		c-0.479-0.66-0.318-1.467,0.379-1.975c0.679-0.494,1.515-0.41,2.008,0.266L46.707,138.912z"/>
	<path d="M44.038,134.926c0.416,0.673,0.177,1.48-0.536,1.923c-0.711,0.442-1.554,0.277-1.982-0.416
		c-0.431-0.689-0.211-1.484,0.521-1.939c0.714-0.443,1.542-0.297,1.984,0.415L44.038,134.926z"/>
	<path d="M41.687,130.776c0.366,0.703,0.067,1.49-0.675,1.88c-0.743,0.389-1.57,0.161-1.948-0.563
		c-0.377-0.722-0.1-1.497,0.664-1.897c0.744-0.389,1.56-0.184,1.948,0.56L41.687,130.776z"/>
	<path d="M39.616,126.401c0.314,0.729-0.042,1.49-0.812,1.822c-0.771,0.332-1.579,0.047-1.901-0.701
		c-0.323-0.748,0.012-1.504,0.804-1.844c0.77-0.334,1.569-0.066,1.9,0.702L39.616,126.401z"/>
	<path d="M37.901,121.955c0.259,0.749-0.152,1.481-0.944,1.758c-0.793,0.272-1.578-0.069-1.844-0.84
		c-0.268-0.771,0.122-1.498,0.937-1.781c0.793-0.271,1.57,0.052,1.844,0.843L37.901,121.955z"/>
	<path d="M36.512,117.358c0.202,0.767-0.263,1.468-1.072,1.682c-0.812,0.214-1.568-0.188-1.777-0.977
		c-0.209-0.787,0.234-1.481,1.067-1.705c0.811-0.213,1.562,0.166,1.776,0.978L36.512,117.358z"/>
	<path d="M35.467,112.668c0.146,0.778-0.37,1.444-1.194,1.601c-0.825,0.151-1.55-0.306-1.699-1.107
		c-0.149-0.801,0.344-1.461,1.19-1.617c0.823-0.152,1.546,0.279,1.698,1.104L35.467,112.668z"/>
	<path d="M34.771,107.917c0.087,0.786-0.477,1.413-1.31,1.505c-0.834,0.093-1.523-0.416-1.613-1.228
		c-0.09-0.811,0.45-1.435,1.307-1.527c0.834-0.096,1.521,0.395,1.613,1.229L34.771,107.917z"/>
	<path d="M34.426,103.106c0.029,0.793-0.578,1.375-1.417,1.406c-0.839,0.031-1.488-0.527-1.519-1.343
		c-0.031-0.815,0.555-1.396,1.416-1.429c0.838-0.027,1.487,0.506,1.519,1.343L34.426,103.106z"/>
	<path d="M34.431,98.337c-0.028,0.79-0.675,1.329-1.514,1.299c-0.839-0.028-1.446-0.633-1.419-1.448
		c0.029-0.813,0.654-1.352,1.516-1.322c0.838,0.029,1.447,0.609,1.418,1.448L34.431,98.337z"/>
	<path d="M34.786,93.527c-0.085,0.787-0.771,1.274-1.604,1.186c-0.834-0.092-1.397-0.738-1.309-1.549
		c0.089-0.812,0.751-1.301,1.607-1.208c0.833,0.091,1.397,0.715,1.308,1.549L34.786,93.527z"/>
	<path d="M35.495,88.771c-0.144,0.779-0.863,1.215-1.688,1.063c-0.824-0.151-1.338-0.84-1.19-1.642
		c0.147-0.803,0.846-1.242,1.692-1.085c0.825,0.152,1.342,0.815,1.19,1.64L35.495,88.771z"/>
	<path d="M36.55,84.089c-0.201,0.766-0.95,1.147-1.763,0.935c-0.811-0.212-1.271-0.937-1.064-1.725
		c0.207-0.789,0.936-1.176,1.769-0.958c0.812,0.214,1.277,0.914,1.065,1.726L36.55,84.089z"/>
	<path d="M37.952,79.492c-0.258,0.748-1.035,1.072-1.826,0.8c-0.794-0.272-1.2-1.028-0.936-1.8c0.266-0.771,1.021-1.102,1.835-0.822
		c0.794,0.273,1.207,1.006,0.935,1.799L37.952,79.492z"/>
	<path d="M39.678,75.045c-0.312,0.728-1.11,0.993-1.881,0.663c-0.771-0.329-1.12-1.112-0.799-1.863
		c0.321-0.749,1.098-1.023,1.891-0.685c0.771,0.33,1.128,1.092,0.799,1.862L39.678,75.045z"/>
	<path d="M41.758,70.676c-0.365,0.702-1.181,0.909-1.925,0.522c-0.744-0.387-1.034-1.194-0.657-1.917
		c0.376-0.724,1.171-0.941,1.937-0.543c0.743,0.387,1.043,1.173,0.656,1.916L41.758,70.676z"/>
	<path d="M44.147,66.492c-0.417,0.674-1.246,0.819-1.959,0.38c-0.714-0.441-0.941-1.268-0.514-1.961
		c0.429-0.694,1.237-0.851,1.971-0.398c0.713,0.44,0.954,1.248,0.514,1.962L44.147,66.492z"/>
	<path d="M46.828,62.514c-0.464,0.64-1.302,0.724-1.981,0.231c-0.679-0.492-0.846-1.332-0.367-1.992s1.297-0.757,1.994-0.253
		c0.68,0.492,0.861,1.314,0.369,1.994L46.828,62.514z"/>
	<path d="M49.786,58.747c-0.51,0.604-1.352,0.627-1.992,0.087c-0.642-0.541-0.746-1.391-0.222-2.016
		c0.526-0.623,1.349-0.66,2.007-0.104c0.643,0.54,0.763,1.372,0.223,2.014L49.786,58.747z"/>
	<path d="M53.01,55.213c-0.554,0.565-1.395,0.527-1.994-0.059c-0.601-0.586-0.644-1.441-0.074-2.025
		c0.569-0.583,1.394-0.562,2.011,0.041c0.6,0.586,0.659,1.425,0.073,2.025L53.01,55.213z"/>
	<path d="M56.482,51.922c-0.594,0.525-1.429,0.425-1.985-0.204c-0.556-0.628-0.535-1.484,0.075-2.025
		c0.61-0.54,1.431-0.457,2.002,0.188c0.555,0.629,0.553,1.471-0.075,2.025L56.482,51.922z"/>
	<path d="M60.226,48.863c-0.63,0.479-1.456,0.316-1.963-0.351c-0.508-0.667-0.425-1.52,0.223-2.014
		c0.65-0.494,1.461-0.35,1.983,0.336c0.508,0.667,0.443,1.507-0.224,2.014L60.226,48.863z"/>
	<path d="M64.154,46.11c-0.664,0.433-1.475,0.21-1.933-0.493c-0.458-0.702-0.313-1.548,0.371-1.992
		c0.684-0.443,1.481-0.242,1.952,0.48c0.457,0.703,0.331,1.535-0.371,1.992L64.154,46.11z"/>
	<path d="M68.287,43.648c-0.694,0.382-1.488,0.101-1.892-0.636c-0.404-0.734-0.197-1.566,0.517-1.958
		c0.715-0.394,1.497-0.133,1.911,0.623c0.405,0.733,0.219,1.555-0.517,1.959L68.287,43.648z"/>
	<path d="M72.563,41.509c-0.721,0.329-1.491-0.01-1.84-0.772c-0.35-0.762-0.081-1.576,0.66-1.915
		c0.741-0.34,1.501-0.022,1.861,0.762c0.349,0.763,0.103,1.567-0.661,1.916L72.563,41.509z"/>
	<path d="M77.011,39.683c-0.744,0.275-1.485-0.121-1.777-0.906c-0.291-0.787,0.037-1.58,0.801-1.862
		c0.765-0.283,1.499,0.09,1.799,0.899c0.291,0.785-0.016,1.569-0.801,1.861L77.011,39.683z"/>
	<path d="M81.566,38.195c-0.76,0.22-1.472-0.231-1.704-1.036c-0.231-0.806,0.154-1.571,0.937-1.798
		c0.784-0.225,1.488,0.201,1.728,1.03c0.231,0.805-0.131,1.565-0.938,1.797L81.566,38.195z"/>
	<path d="M86.215,37.051c-0.774,0.163-1.451-0.339-1.623-1.159c-0.172-0.821,0.27-1.556,1.066-1.723
		c0.799-0.167,1.471,0.312,1.646,1.154c0.173,0.82-0.246,1.552-1.067,1.723L86.215,37.051z"/>
	<path d="M90.986,36.248c-0.785,0.104-1.422-0.445-1.531-1.277c-0.111-0.83,0.384-1.531,1.192-1.639
		c0.807-0.106,1.441,0.421,1.555,1.274c0.11,0.832-0.361,1.528-1.191,1.639L90.986,36.248z"/>
	<path d="M95.765,35.803c-0.79,0.046-1.385-0.548-1.435-1.387c-0.049-0.837,0.496-1.498,1.31-1.547
		c0.814-0.047,1.407,0.525,1.458,1.385c0.048,0.837-0.473,1.497-1.31,1.547L95.765,35.803z"/>
</g>
<g>
	<path fill="#FFFFFF" d="M59.335,159.474l12.951,6.959l-2.69,5.805l-0.909-0.489c0.431-1.313,0.658-2.399,0.679-3.257
		c0.02-0.855-0.111-1.543-0.396-2.063c-0.284-0.517-0.688-0.917-1.209-1.197c-0.3-0.162-0.554-0.217-0.761-0.17
		c-0.207,0.049-0.373,0.189-0.498,0.424l-6.16,11.461c-0.118,0.222-0.146,0.438-0.085,0.654c0.061,0.211,0.188,0.371,0.382,0.477
		l1.681,0.9l-0.497,0.926l-7.917-4.252l0.496-0.926l1.602,0.859c0.239,0.129,0.467,0.163,0.681,0.102
		c0.213-0.063,0.382-0.205,0.503-0.435l6.127-11.401c0.144-0.267,0.177-0.502,0.102-0.707s-0.267-0.389-0.574-0.556
		c-1.705-0.917-3.695,0.022-5.969,2.813l-0.88-0.473L59.335,159.474z"/>
	<path fill="#FFFFFF" d="M74.312,167.288l14.24,3.452l-1.067,5.795l-0.97-0.235c0.098-1.404,0.048-2.445-0.151-3.121
		c-0.2-0.678-0.542-1.229-1.027-1.656c-0.485-0.433-1.178-0.758-2.079-0.974l-2.235-0.542c-0.347-0.084-0.615-0.076-0.802,0.021
		c-0.188,0.1-0.311,0.271-0.371,0.514l-1.371,5.657l0.763,0.184c0.875,0.214,1.615,0.128,2.219-0.257
		c0.603-0.383,1.083-1.12,1.441-2.211l1,0.243l-1.845,7.614l-1-0.244c0.239-1.278,0.179-2.235-0.182-2.867
		c-0.361-0.637-1.031-1.072-2.01-1.311l-0.629-0.15l-1.465,6.048c-0.064,0.267-0.033,0.471,0.096,0.62
		c0.196,0.221,0.516,0.383,0.958,0.488l1.968,0.479c1.348,0.325,2.553,0.163,3.616-0.492c1.063-0.65,1.91-1.822,2.537-3.509
		l1.001,0.243l-1.75,6.158l-14.847-3.598l0.25-1.031l1.47,0.355c0.331,0.08,0.603,0.059,0.817-0.07
		c0.214-0.129,0.357-0.336,0.427-0.623l3.046-12.572c0.065-0.266,0.025-0.481-0.117-0.647c-0.144-0.167-0.439-0.305-0.889-0.416
		l-1.293-0.312L74.312,167.288z"/>
	<path fill="#FFFFFF" d="M90.305,171.272l8.326-0.135l0.018,1.061l-0.617,0.01c-0.561,0.01-0.932,0.064-1.11,0.167
		c-0.182,0.103-0.271,0.235-0.269,0.401c0.004,0.197,0.166,0.51,0.481,0.937l2.86,3.787l2.162-2.709
		c0.479-0.59,0.712-1.146,0.701-1.672c-0.004-0.317-0.11-0.562-0.313-0.728c-0.205-0.166-0.498-0.248-0.885-0.242l-0.523,0.009
		l-0.019-1.062l6.626-0.107l0.018,1.063l-0.498,0.008c-0.416,0.008-0.783,0.1-1.103,0.279c-0.322,0.178-0.683,0.514-1.082,0.995
		l-4.261,5.213l5.69,7.336c0.269,0.353,0.515,0.586,0.735,0.701c0.222,0.113,0.475,0.169,0.762,0.163l0.555-0.01l0.019,1.061
		l-8.204,0.137l-0.018-1.063l0.859-0.017c0.408-0.006,0.701-0.076,0.883-0.211c0.178-0.137,0.267-0.308,0.262-0.513
		c-0.002-0.172-0.125-0.396-0.373-0.664l-0.116-0.151l-3.189-4.188l-2.567,3.229c-0.349,0.449-0.522,0.916-0.513,1.41
		c0.006,0.368,0.108,0.646,0.31,0.824c0.261,0.229,0.574,0.344,0.939,0.338l0.641-0.013l0.017,1.062l-6.931,0.112l-0.018-1.063
		l0.433-0.006c0.349-0.006,0.715-0.121,1.098-0.349c0.631-0.389,1.117-0.798,1.46-1.228l4.318-5.348l-5.406-6.925
		c-0.287-0.358-0.53-0.593-0.729-0.698c-0.199-0.106-0.458-0.158-0.776-0.152l-0.637,0.01L90.305,171.272z"/>
	<path fill="#FFFFFF" d="M117.52,168.065l10.082,12.881c0.287,0.359,0.556,0.587,0.803,0.676c0.242,0.09,0.535,0.088,0.871-0.006
		l0.594-0.163l0.279,1.017l-7.611,2.1l-0.282-1.018l0.714-0.197c0.563-0.154,0.936-0.323,1.113-0.506
		c0.176-0.184,0.236-0.377,0.182-0.582c-0.047-0.16-0.141-0.334-0.287-0.521l-2.08-2.663l-6.065,1.674l-0.199,1.529
		c-0.086,0.64-0.09,1.095-0.012,1.373c0.131,0.475,0.414,0.813,0.845,1.015c0.434,0.196,0.953,0.212,1.561,0.046l0.518-0.142
		l0.279,1.016l-6.156,1.696l-0.281-1.017l0.354-0.097c0.396-0.108,0.709-0.331,0.939-0.661c0.328-0.466,0.533-1.01,0.617-1.619
		l1.994-15.488L117.52,168.065z M116.878,172.66l-0.894,6.892l5.166-1.424L116.878,172.66z"/>
	<path fill="#FFFFFF" d="M136.698,161.365l0.177-1.831l0.695-0.396l2.965,4.997l-0.896,0.509c-1.285-1.188-2.559-1.897-3.82-2.136
		c-1.258-0.239-2.401-0.065-3.43,0.519c-0.879,0.502-1.455,1.146-1.731,1.937c-0.28,0.791-0.229,1.521,0.149,2.187
		c0.226,0.396,0.539,0.697,0.943,0.901c0.404,0.205,0.916,0.289,1.532,0.247c0.618-0.042,1.604-0.279,2.958-0.716
		c1.585-0.504,2.715-0.795,3.393-0.865c1.078-0.106,2.01,0.03,2.797,0.415c0.787,0.383,1.439,1.026,1.951,1.928
		c0.768,1.351,0.914,2.69,0.443,4.022c-0.57,1.606-1.686,2.882-3.34,3.823c-1.522,0.865-3.217,1.126-5.082,0.781l-0.332,2.099
		l-0.729,0.415l-3.082-5.414l0.863-0.494c2.625,2.605,5.258,3.154,7.897,1.652c1.08-0.614,1.777-1.342,2.094-2.182
		c0.318-0.84,0.263-1.631-0.16-2.376c-0.295-0.521-0.676-0.882-1.143-1.085c-0.461-0.203-1.031-0.257-1.709-0.156
		c-0.371,0.051-1.229,0.291-2.572,0.715c-1.813,0.563-3.174,0.852-4.079,0.861c-0.904,0.014-1.677-0.162-2.312-0.527
		c-0.637-0.367-1.18-0.945-1.63-1.736c-0.757-1.33-0.927-2.669-0.513-4.02c0.417-1.348,1.376-2.447,2.883-3.306
		C133.325,161.31,134.932,161.056,136.698,161.365z"/>
</g>
<g>
	<polygon points="29.745,135.176 33.354,132.538 28.88,132.538 27.5,128.329 26.12,132.538 21.646,132.538 25.255,135.176 
		23.841,139.489 27.5,136.815 31.159,139.489 	"/>
	<polygon points="171.744,135.176 175.354,132.538 170.88,132.538 169.5,128.329 168.12,132.538 163.646,132.538 167.256,135.176 
		165.841,139.489 169.5,136.815 173.159,139.489 	"/>
</g>
<g>
	<path d="M14.74,91.009l-1.76-0.906l0.036-0.91l7.245-0.022l-0.042,1.122c-2.099,0.269-3.672,0.868-4.72,1.797
		c-1.047,0.928-1.595,2.014-1.644,3.257c-0.053,1.367,0.554,2.521,1.82,3.468c1.265,0.944,3.3,1.47,6.104,1.579
		c2.968,0.115,5.188-0.291,6.665-1.219c1.16-0.747,1.771-1.889,1.831-3.426c0.059-1.537-0.456-2.854-1.543-3.947
		c-0.791-0.786-1.98-1.362-3.569-1.728l0.042-1.091c2.042,0.341,3.634,1.188,4.777,2.543c1.142,1.355,1.675,2.99,1.602,4.901
		c-0.096,2.472-1.047,4.51-2.854,6.114c-1.808,1.603-4.072,2.354-6.793,2.248c-3.022-0.117-5.397-1.177-7.125-3.173
		c-1.472-1.701-2.165-3.656-2.079-5.858c0.033-0.87,0.202-1.673,0.505-2.406C13.54,92.618,14.041,91.837,14.74,91.009z"/>
	<path d="M14.791,82.191l2.35-8.933l1.092,0.288l-0.425,1.618c-0.092,0.346-0.089,0.615,0.007,0.809
		c0.097,0.193,0.28,0.326,0.547,0.396l13.523,3.558c0.315,0.083,0.561,0.06,0.739-0.069c0.229-0.167,0.396-0.451,0.501-0.854
		l0.379-1.438l1.092,0.286l-2.351,8.932l-1.092-0.286l0.361-1.368c0.124-0.473,0.133-0.824,0.025-1.06
		c-0.105-0.233-0.312-0.391-0.62-0.473L17.55,80.08c-0.33-0.087-0.598-0.063-0.802,0.074c-0.204,0.135-0.356,0.392-0.455,0.768
		l-0.411,1.558L14.791,82.191z"/>
	<path d="M18.952,67.531l7.101-14.074l6.31,2.727l-0.497,0.986c-1.426-0.428-2.601-0.643-3.521-0.643
		c-0.923-0.001-1.658,0.16-2.208,0.479c-0.549,0.321-0.967,0.764-1.253,1.331c-0.165,0.326-0.217,0.6-0.161,0.82
		c0.056,0.221,0.213,0.396,0.467,0.523l12.472,6.293c0.24,0.12,0.473,0.146,0.702,0.073c0.228-0.071,0.395-0.213,0.502-0.424
		l0.922-1.831l1.017,0.513l-4.347,8.614l-1.017-0.513l0.88-1.743c0.133-0.262,0.162-0.507,0.09-0.733
		c-0.072-0.229-0.231-0.405-0.479-0.529l-12.406-6.26c-0.29-0.147-0.543-0.176-0.761-0.09c-0.217,0.087-0.411,0.298-0.58,0.631
		c-0.934,1.854,0.131,3.964,3.198,6.333l-0.481,0.955L18.952,67.531z"/>
	<path d="M29.147,48.659l5.961-6.719l0.849,0.753l-0.825,0.931c-0.291,0.327-0.451,0.592-0.483,0.793
		c-0.03,0.2,0.021,0.359,0.155,0.479c0.152,0.135,0.374,0.233,0.666,0.298l7.333,1.473l-2.165-5.462
		c-0.175-0.452-0.4-0.798-0.674-1.041c-0.304-0.271-0.639-0.377-1.006-0.318c-0.366,0.058-0.743,0.304-1.129,0.737l-0.366,0.413
		l-0.849-0.753l4.629-5.217l0.849,0.753c-0.521,0.614-0.83,1.203-0.926,1.771c-0.096,0.568-0.003,1.202,0.274,1.905l2.948,7.469
		l4.243,3.766c0.25,0.22,0.496,0.316,0.739,0.289c0.243-0.029,0.494-0.189,0.752-0.481l1.24-1.396l0.85,0.753l-6.555,7.386
		l-0.849-0.753l1.231-1.387c0.281-0.317,0.418-0.592,0.414-0.823c-0.006-0.233-0.136-0.465-0.392-0.689l-3.766-3.343l-9.486-1.906
		c-0.606-0.126-1.097-0.124-1.473,0.005c-0.375,0.13-0.736,0.389-1.082,0.778l-0.26,0.292L29.147,48.659z"/>
	<path d="M61.263,21.198c1.519-0.764,3.105-1.102,4.758-1.013c1.651,0.089,3.154,0.588,4.508,1.496
		c1.354,0.907,2.43,2.157,3.23,3.749c1.217,2.421,1.44,4.834,0.669,7.243c-0.771,2.408-2.326,4.201-4.667,5.376
		c-1.557,0.783-3.134,1.117-4.735,1.003c-1.602-0.115-3.072-0.617-4.411-1.504c-1.338-0.889-2.423-2.158-3.253-3.809
		c-1.23-2.448-1.463-4.861-0.7-7.238C57.424,24.124,58.958,22.356,61.263,21.198z M61.856,22.211
		c-0.867,0.436-1.498,1.05-1.896,1.846c-0.396,0.796-0.516,1.818-0.357,3.067c0.16,1.25,0.702,2.797,1.629,4.642
		c0.976,1.941,1.888,3.324,2.735,4.15c0.847,0.824,1.723,1.311,2.626,1.457c0.903,0.147,1.793,0,2.674-0.442
		c1.302-0.654,2.062-1.735,2.279-3.24c0.217-1.507-0.369-3.642-1.756-6.402c-0.971-1.933-1.868-3.301-2.689-4.103
		c-0.823-0.803-1.685-1.275-2.586-1.418C63.616,21.624,62.729,21.772,61.856,22.211z"/>
	<path d="M76.93,15.198l15.666-2.938l1.328,6.077l-1.077,0.202c-0.545-1.847-1.231-3.066-2.059-3.657
		c-0.829-0.592-1.963-0.753-3.405-0.483l-2.631,0.494c-0.384,0.072-0.649,0.205-0.796,0.397c-0.146,0.193-0.192,0.437-0.135,0.732
		l1.111,5.932l0.958-0.179c1.908-0.358,2.795-1.702,2.664-4.033l1.062-0.198l1.537,8.189l-1.062,0.199
		c-0.197-0.872-0.471-1.537-0.821-1.998c-0.351-0.458-0.778-0.788-1.283-0.991c-0.505-0.203-1.052-0.25-1.643-0.139l-1.21,0.227
		l1.214,6.464c0.064,0.344,0.203,0.579,0.417,0.705c0.309,0.182,0.643,0.239,1.003,0.171l1.682-0.315l0.211,1.122l-9.402,1.764
		l-0.21-1.122l1.575-0.296c0.37-0.068,0.636-0.22,0.799-0.452c0.163-0.234,0.217-0.499,0.162-0.795l-2.54-13.545
		c-0.065-0.345-0.208-0.564-0.431-0.664c-0.221-0.1-0.637-0.091-1.246,0.023L77.14,16.32L76.93,15.198z"/>
	<path d="M108.641,12.057l9.534,1.865c1.732,0.339,3.183,1.006,4.349,1.995c1.166,0.991,1.985,2.238,2.465,3.741
		c0.477,1.502,0.549,3.104,0.216,4.804c-0.345,1.766-0.983,3.233-1.918,4.405c-0.935,1.174-2.151,2.017-3.653,2.525
		c-1.502,0.51-3.025,0.614-4.574,0.312l-9.883-1.934l0.217-1.107l1.474,0.289c0.36,0.069,0.649,0.024,0.87-0.136
		c0.224-0.158,0.369-0.415,0.438-0.767l2.613-13.354c0.069-0.358,0.024-0.638-0.136-0.84c-0.157-0.201-0.465-0.347-0.92-0.436
		l-1.307-0.256L108.641,12.057z M114.1,30.367c1.096,0.215,2.117,0.129,3.071-0.258c0.955-0.386,1.716-1.021,2.274-1.903
		c0.563-0.883,1.039-2.327,1.433-4.334c0.414-2.112,0.511-3.772,0.285-4.982c-0.224-1.211-0.668-2.128-1.332-2.752
		c-0.666-0.625-1.731-1.081-3.203-1.368c-0.806-0.157-1.323-0.188-1.555-0.093c-0.229,0.097-0.382,0.324-0.449,0.685l-2.627,13.423
		c-0.078,0.4-0.054,0.704,0.076,0.912c0.129,0.209,0.374,0.347,0.731,0.418L114.1,30.367z"/>
	<path d="M142.366,22.063l-1.476,17.494c-0.037,0.496,0.006,0.868,0.131,1.117c0.127,0.251,0.355,0.463,0.687,0.635l0.584,0.304
		l-0.521,1l-7.506-3.909l0.521-1.001l0.704,0.365c0.556,0.289,0.969,0.427,1.24,0.413c0.275-0.014,0.465-0.123,0.568-0.325
		c0.085-0.159,0.139-0.366,0.159-0.62l0.312-3.621l-6-3.124l-1.279,1.059c-0.532,0.439-0.869,0.797-1.014,1.072
		c-0.244,0.471-0.271,0.942-0.076,1.416c0.192,0.474,0.592,0.867,1.19,1.181l0.509,0.265l-0.521,1.002l-6.082-3.169l0.522-1
		l0.347,0.181c0.391,0.203,0.799,0.259,1.223,0.167c0.603-0.13,1.158-0.404,1.672-0.826l12.894-10.708L142.366,22.063z
		 M138.512,25.201l-5.742,4.76l5.107,2.662L138.512,25.201z"/>
	<path d="M153.852,30.884l0.771-0.835l6.823,6.287l-0.771,0.835l-1.146-1.058c-0.329-0.301-0.616-0.45-0.863-0.445
		s-0.5,0.148-0.758,0.429l-9.092,9.871c-0.371,0.398-0.543,0.713-0.52,0.94c0.023,0.226,0.271,0.557,0.74,0.989l1.922,1.769
		c0.715,0.658,1.693,0.936,2.936,0.829c1.244-0.107,2.715-0.751,4.416-1.933l0.789,0.726l-4.998,4.815l-11.707-10.785l0.769-0.833
		l1.183,1.087c0.26,0.24,0.516,0.356,0.772,0.348c0.254-0.01,0.489-0.133,0.711-0.372l9.349-10.148
		c0.228-0.245,0.322-0.485,0.287-0.723c-0.033-0.236-0.218-0.508-0.551-0.814L153.852,30.884z"/>
	<path d="M169.835,46.74l0.955-0.611l4.989,7.811l-0.955,0.61l-0.842-1.317c-0.24-0.377-0.481-0.594-0.724-0.653
		c-0.239-0.059-0.521,0.015-0.842,0.22l-11.315,7.23c-0.459,0.294-0.707,0.552-0.742,0.777c-0.035,0.226,0.117,0.604,0.461,1.139
		l1.396,2.188c0.521,0.814,1.395,1.326,2.622,1.537c1.228,0.209,2.812-0.042,4.757-0.753l0.592,0.925l-6.063,3.382l-8.546-13.377
		l0.955-0.609l0.853,1.335c0.188,0.294,0.405,0.469,0.652,0.522c0.247,0.055,0.508-0.005,0.783-0.182l11.634-7.433
		c0.278-0.18,0.437-0.387,0.464-0.621c0.028-0.235-0.077-0.542-0.318-0.919L169.835,46.74z"/>
	<path d="M185.507,74.384L172.07,85.688c-0.377,0.319-0.606,0.613-0.694,0.882c-0.088,0.265-0.074,0.576,0.036,0.935l0.197,0.627
		l-1.077,0.338l-2.527-8.083l1.078-0.338l0.237,0.758c0.186,0.598,0.381,0.988,0.584,1.174c0.201,0.182,0.41,0.241,0.628,0.172
		c0.172-0.053,0.354-0.16,0.551-0.323l2.771-2.328l-2.014-6.448l-1.646-0.153c-0.686-0.068-1.176-0.056-1.471,0.037
		c-0.505,0.157-0.854,0.472-1.053,0.943c-0.197,0.473-0.195,1.031,0.008,1.678l0.17,0.549l-1.076,0.336l-2.047-6.551l1.077-0.336
		l0.114,0.374c0.134,0.421,0.381,0.751,0.745,0.989c0.515,0.338,1.103,0.539,1.761,0.607l16.678,1.55L185.507,74.384z
		 M180.559,73.871l-7.433-0.698l1.718,5.494L180.559,73.871z"/>
	<path d="M187.566,100.01l1.668,1.06l0.039,0.865l-6.226,0.401l-0.054-1.094c1.763-0.654,3.063-1.526,3.902-2.618
		c0.84-1.093,1.229-2.273,1.17-3.543c-0.051-1.083-0.387-1.949-1.006-2.602c-0.621-0.65-1.34-0.958-2.16-0.917
		c-0.483,0.022-0.924,0.178-1.316,0.464c-0.393,0.288-0.718,0.737-0.979,1.35c-0.262,0.61-0.508,1.673-0.746,3.183
		c-0.282,1.766-0.553,2.988-0.814,3.67c-0.421,1.078-1.007,1.897-1.757,2.463c-0.751,0.564-1.683,0.873-2.794,0.928
		c-1.667,0.08-3.021-0.432-4.066-1.53c-1.261-1.323-1.938-3.006-2.035-5.047c-0.09-1.876,0.483-3.624,1.715-5.237l-1.844-1.341
		l-0.045-0.909l6.674-0.318l0.051,1.076c-3.75,1.246-5.549,3.5-5.396,6.761c0.063,1.333,0.419,2.354,1.068,3.064
		c0.646,0.711,1.428,1.045,2.345,1.002c0.643-0.031,1.172-0.221,1.591-0.565c0.418-0.347,0.745-0.866,0.979-1.562
		c0.129-0.382,0.316-1.319,0.562-2.813c0.345-2.014,0.729-3.454,1.154-4.326c0.428-0.872,0.969-1.522,1.628-1.952
		c0.659-0.433,1.475-0.67,2.447-0.718c1.64-0.077,3.003,0.41,4.089,1.464c1.087,1.052,1.675,2.506,1.763,4.362
		C189.262,96.812,188.723,98.472,187.566,100.01z"/>
</g>
<g>
	<path fill="#FFFFFF" d="M13.24,91.509l-1.76-0.906l0.036-0.91l7.245-0.022l-0.042,1.122c-2.099,0.269-3.672,0.868-4.72,1.797
		c-1.047,0.928-1.595,2.014-1.644,3.257c-0.053,1.367,0.554,2.521,1.82,3.468c1.265,0.944,3.3,1.47,6.104,1.579
		c2.968,0.115,5.188-0.291,6.665-1.219c1.16-0.747,1.771-1.889,1.831-3.426c0.059-1.537-0.456-2.854-1.543-3.947
		c-0.791-0.786-1.98-1.362-3.569-1.728l0.042-1.091c2.042,0.341,3.634,1.188,4.777,2.543c1.142,1.355,1.675,2.99,1.602,4.901
		c-0.096,2.472-1.047,4.51-2.854,6.114c-1.808,1.603-4.072,2.354-6.793,2.248c-3.022-0.117-5.397-1.177-7.125-3.173
		c-1.472-1.701-2.165-3.656-2.079-5.858c0.033-0.87,0.202-1.673,0.505-2.406C12.04,93.118,12.541,92.337,13.24,91.509z"/>
	<path fill="#FFFFFF" d="M13.291,82.691l2.35-8.933l1.092,0.288l-0.425,1.618c-0.092,0.346-0.089,0.615,0.007,0.809
		c0.097,0.193,0.28,0.326,0.547,0.396l13.523,3.558c0.315,0.083,0.561,0.06,0.739-0.069c0.229-0.167,0.396-0.451,0.501-0.854
		l0.379-1.438l1.092,0.286l-2.351,8.932l-1.092-0.286l0.361-1.368c0.124-0.473,0.133-0.824,0.025-1.06
		c-0.105-0.233-0.312-0.391-0.62-0.473L16.05,80.58c-0.33-0.087-0.598-0.063-0.802,0.074c-0.204,0.135-0.356,0.392-0.455,0.768
		l-0.411,1.558L13.291,82.691z"/>
	<path fill="#FFFFFF" d="M17.452,68.031l7.101-14.074l6.31,2.727l-0.497,0.986c-1.426-0.428-2.601-0.643-3.521-0.643
		c-0.923-0.001-1.658,0.16-2.208,0.479c-0.549,0.321-0.967,0.764-1.253,1.331c-0.165,0.326-0.217,0.6-0.161,0.82
		c0.056,0.221,0.213,0.396,0.467,0.523l12.472,6.293c0.24,0.12,0.473,0.146,0.702,0.073c0.228-0.071,0.395-0.213,0.502-0.424
		l0.922-1.831l1.017,0.513l-4.347,8.614l-1.017-0.513l0.88-1.743c0.133-0.262,0.162-0.507,0.09-0.733
		c-0.072-0.229-0.231-0.405-0.479-0.529l-12.406-6.26c-0.29-0.147-0.543-0.176-0.761-0.09c-0.217,0.087-0.411,0.298-0.58,0.631
		c-0.934,1.854,0.131,3.964,3.198,6.333l-0.481,0.955L17.452,68.031z"/>
	<path fill="#FFFFFF" d="M27.647,49.159l5.961-6.719l0.849,0.753l-0.825,0.931c-0.291,0.327-0.451,0.592-0.483,0.793
		c-0.03,0.2,0.021,0.359,0.155,0.479c0.152,0.135,0.374,0.233,0.666,0.298l7.333,1.473l-2.165-5.462
		c-0.175-0.452-0.4-0.798-0.674-1.041c-0.304-0.271-0.639-0.377-1.006-0.318c-0.366,0.058-0.743,0.304-1.129,0.737l-0.366,0.413
		l-0.849-0.753l4.629-5.217l0.849,0.753c-0.521,0.614-0.83,1.203-0.926,1.771c-0.096,0.568-0.003,1.202,0.274,1.905l2.948,7.469
		l4.243,3.766c0.25,0.22,0.496,0.316,0.739,0.289c0.243-0.029,0.494-0.189,0.752-0.481l1.24-1.396l0.85,0.753l-6.555,7.386
		l-0.849-0.753l1.231-1.387c0.281-0.317,0.418-0.592,0.414-0.823c-0.006-0.233-0.136-0.465-0.392-0.689l-3.766-3.343l-9.486-1.906
		c-0.606-0.126-1.097-0.124-1.473,0.005c-0.375,0.13-0.736,0.389-1.082,0.778l-0.26,0.292L27.647,49.159z"/>
	<path fill="#FFFFFF" d="M59.763,21.698c1.519-0.764,3.105-1.102,4.758-1.013c1.651,0.089,3.154,0.588,4.508,1.496
		c1.354,0.907,2.43,2.157,3.23,3.749c1.217,2.421,1.44,4.834,0.669,7.243c-0.771,2.408-2.326,4.201-4.667,5.376
		c-1.557,0.783-3.134,1.117-4.735,1.003c-1.602-0.115-3.072-0.617-4.411-1.504c-1.338-0.889-2.423-2.158-3.253-3.809
		c-1.23-2.448-1.463-4.861-0.7-7.238C55.924,24.624,57.458,22.856,59.763,21.698z M60.356,22.711
		c-0.867,0.436-1.498,1.05-1.896,1.846c-0.396,0.796-0.516,1.818-0.357,3.067c0.16,1.25,0.702,2.797,1.629,4.642
		c0.976,1.941,1.888,3.324,2.735,4.15c0.847,0.824,1.723,1.311,2.626,1.457c0.903,0.147,1.793,0,2.674-0.442
		c1.302-0.654,2.062-1.735,2.279-3.24c0.217-1.507-0.369-3.642-1.756-6.402c-0.971-1.933-1.868-3.301-2.689-4.103
		c-0.823-0.803-1.685-1.275-2.586-1.418C62.116,22.124,61.229,22.272,60.356,22.711z"/>
	<path fill="#FFFFFF" d="M75.43,15.698l15.666-2.938l1.328,6.077l-1.077,0.202c-0.545-1.847-1.232-3.066-2.059-3.657
		c-0.829-0.592-1.963-0.753-3.405-0.483l-2.631,0.494c-0.384,0.072-0.649,0.205-0.796,0.397c-0.146,0.193-0.192,0.437-0.135,0.732
		l1.111,5.932l0.958-0.179c1.908-0.358,2.795-1.702,2.664-4.033l1.062-0.198l1.537,8.189l-1.062,0.199
		c-0.197-0.872-0.471-1.537-0.821-1.998c-0.351-0.458-0.778-0.788-1.283-0.991c-0.505-0.203-1.052-0.25-1.643-0.139l-1.21,0.227
		l1.214,6.464c0.064,0.344,0.203,0.579,0.417,0.705c0.309,0.182,0.643,0.239,1.003,0.171l1.682-0.315l0.211,1.122l-9.402,1.764
		l-0.21-1.122l1.575-0.296c0.37-0.068,0.636-0.22,0.799-0.452c0.163-0.234,0.217-0.499,0.162-0.795l-2.54-13.545
		c-0.065-0.345-0.208-0.564-0.431-0.664c-0.221-0.1-0.637-0.091-1.246,0.023L75.64,16.82L75.43,15.698z"/>
	<path fill="#FFFFFF" d="M107.141,12.557l9.534,1.865c1.732,0.339,3.183,1.006,4.349,1.995c1.166,0.991,1.985,2.238,2.465,3.741
		c0.477,1.502,0.549,3.104,0.216,4.804c-0.345,1.766-0.983,3.233-1.918,4.405c-0.935,1.174-2.151,2.017-3.653,2.525
		c-1.502,0.51-3.025,0.614-4.574,0.312l-9.883-1.934l0.217-1.107l1.474,0.289c0.36,0.069,0.649,0.024,0.87-0.136
		c0.224-0.158,0.369-0.415,0.438-0.767l2.613-13.354c0.069-0.358,0.024-0.638-0.136-0.84c-0.157-0.201-0.465-0.347-0.92-0.436
		l-1.307-0.256L107.141,12.557z M112.6,30.867c1.096,0.215,2.117,0.129,3.071-0.258c0.955-0.386,1.716-1.021,2.274-1.903
		c0.563-0.883,1.039-2.327,1.433-4.334c0.414-2.112,0.511-3.772,0.285-4.982c-0.224-1.211-0.668-2.128-1.332-2.752
		c-0.666-0.625-1.731-1.081-3.203-1.368c-0.806-0.157-1.323-0.188-1.555-0.093c-0.229,0.097-0.382,0.324-0.449,0.685l-2.627,13.423
		c-0.078,0.4-0.054,0.704,0.076,0.912c0.129,0.209,0.374,0.347,0.731,0.418L112.6,30.867z"/>
	<path fill="#FFFFFF" d="M140.866,22.563l-1.476,17.494c-0.037,0.496,0.006,0.868,0.131,1.117c0.127,0.251,0.355,0.463,0.687,0.635
		l0.584,0.304l-0.521,1l-7.506-3.909l0.521-1.001l0.704,0.365c0.556,0.289,0.969,0.427,1.24,0.413
		c0.275-0.014,0.465-0.123,0.568-0.325c0.085-0.159,0.139-0.366,0.159-0.62l0.312-3.621l-6-3.124l-1.279,1.059
		c-0.532,0.439-0.869,0.797-1.014,1.072c-0.244,0.471-0.271,0.942-0.076,1.416c0.192,0.474,0.592,0.867,1.19,1.181l0.509,0.265
		l-0.521,1.002l-6.082-3.169l0.522-1l0.347,0.181c0.391,0.203,0.799,0.259,1.223,0.167c0.603-0.13,1.158-0.404,1.672-0.826
		l12.894-10.708L140.866,22.563z M137.012,25.701l-5.742,4.76l5.107,2.662L137.012,25.701z"/>
	<path fill="#FFFFFF" d="M152.352,31.384l0.771-0.835l6.823,6.287l-0.771,0.835l-1.146-1.058c-0.329-0.301-0.616-0.45-0.863-0.445
		s-0.5,0.148-0.758,0.429l-9.092,9.871c-0.371,0.398-0.543,0.713-0.52,0.94c0.023,0.226,0.271,0.557,0.74,0.989l1.922,1.769
		c0.715,0.658,1.693,0.936,2.936,0.829c1.244-0.107,2.715-0.751,4.416-1.933l0.789,0.726l-4.998,4.815l-11.707-10.785l0.769-0.833
		l1.183,1.087c0.26,0.24,0.516,0.356,0.772,0.348c0.254-0.01,0.489-0.133,0.711-0.372l9.349-10.148
		c0.228-0.245,0.322-0.485,0.287-0.723c-0.033-0.236-0.218-0.508-0.551-0.814L152.352,31.384z"/>
	<path fill="#FFFFFF" d="M168.335,47.24l0.955-0.611l4.989,7.811l-0.955,0.61l-0.842-1.317c-0.24-0.377-0.481-0.594-0.724-0.653
		c-0.239-0.059-0.521,0.015-0.842,0.22l-11.315,7.23c-0.459,0.294-0.707,0.552-0.742,0.777c-0.035,0.226,0.117,0.604,0.461,1.139
		l1.396,2.188c0.521,0.814,1.395,1.326,2.622,1.537c1.228,0.209,2.812-0.042,4.757-0.753l0.592,0.925l-6.063,3.382l-8.546-13.377
		l0.955-0.609l0.853,1.335c0.188,0.294,0.405,0.469,0.652,0.522c0.247,0.055,0.508-0.005,0.783-0.182l11.634-7.433
		c0.278-0.18,0.437-0.387,0.464-0.621c0.028-0.235-0.077-0.542-0.318-0.919L168.335,47.24z"/>
	<path fill="#FFFFFF" d="M184.007,74.884L170.57,86.188c-0.377,0.319-0.606,0.613-0.694,0.882c-0.088,0.265-0.074,0.576,0.036,0.935
		l0.197,0.627l-1.077,0.338l-2.527-8.083l1.078-0.338l0.237,0.758c0.186,0.598,0.381,0.988,0.584,1.174
		c0.201,0.182,0.41,0.241,0.628,0.172c0.172-0.053,0.354-0.16,0.551-0.323l2.771-2.33l-2.014-6.448l-1.646-0.153
		c-0.686-0.068-1.176-0.056-1.471,0.037c-0.505,0.157-0.854,0.472-1.053,0.943c-0.197,0.473-0.195,1.031,0.008,1.678l0.17,0.549
		l-1.076,0.336l-2.047-6.551l1.077-0.336l0.114,0.374c0.134,0.421,0.381,0.751,0.745,0.989c0.515,0.338,1.103,0.539,1.761,0.607
		l16.678,1.55L184.007,74.884z M179.059,74.371l-7.433-0.698l1.718,5.494L179.059,74.371z"/>
	<path fill="#FFFFFF" d="M186.066,100.51l1.668,1.06l0.039,0.865l-6.226,0.401l-0.054-1.094c1.763-0.654,3.063-1.526,3.902-2.618
		c0.84-1.093,1.229-2.273,1.17-3.543c-0.051-1.083-0.387-1.949-1.006-2.602c-0.621-0.65-1.34-0.958-2.16-0.917
		c-0.483,0.022-0.924,0.178-1.316,0.464c-0.393,0.288-0.718,0.737-0.979,1.35c-0.262,0.61-0.508,1.673-0.746,3.183
		c-0.282,1.766-0.553,2.988-0.814,3.67c-0.421,1.078-1.007,1.897-1.757,2.463c-0.751,0.564-1.683,0.873-2.794,0.928
		c-1.667,0.08-3.021-0.432-4.066-1.53c-1.261-1.323-1.938-3.006-2.035-5.047c-0.09-1.876,0.483-3.624,1.715-5.237l-1.844-1.341
		l-0.045-0.909l6.674-0.318l0.051,1.076c-3.75,1.246-5.549,3.5-5.396,6.761c0.063,1.333,0.419,2.354,1.068,3.064
		c0.646,0.711,1.428,1.045,2.345,1.002c0.643-0.031,1.172-0.221,1.591-0.565c0.418-0.347,0.745-0.866,0.979-1.562
		c0.129-0.382,0.316-1.319,0.562-2.813c0.345-2.014,0.729-3.454,1.154-4.326c0.428-0.872,0.969-1.522,1.628-1.952
		c0.659-0.433,1.475-0.67,2.447-0.718c1.64-0.077,3.003,0.41,4.089,1.464c1.087,1.052,1.675,2.506,1.763,4.362
		C187.762,97.312,187.223,98.972,186.066,100.51z"/>
</g>
<g>
	<g>
		<path fill="#CE9C12" d="M100.419,36.421c-0.793-0.022-1.333-0.666-1.312-1.504c0.021-0.839,0.622-1.451,1.437-1.43
			c0.813,0.022,1.356,0.643,1.336,1.504c-0.022,0.839-0.601,1.451-1.438,1.431L100.419,36.421z"/>
		<path fill="#CE9C12" d="M105.188,36.732c-0.789-0.078-1.283-0.76-1.199-1.595c0.082-0.833,0.726-1.402,1.537-1.319
			c0.811,0.08,1.309,0.738,1.22,1.596c-0.082,0.834-0.7,1.404-1.535,1.32L105.188,36.732z"/>
		<path fill="#CE9C12" d="M109.953,37.398c-0.781-0.137-1.225-0.854-1.078-1.679c0.146-0.826,0.827-1.345,1.632-1.204
			c0.802,0.141,1.248,0.835,1.099,1.683c-0.144,0.826-0.804,1.349-1.629,1.204L109.953,37.398z"/>
		<path fill="#CE9C12" d="M114.65,38.415c-0.768-0.194-1.153-0.94-0.948-1.753c0.206-0.813,0.926-1.28,1.717-1.08
			c0.789,0.2,1.183,0.925,0.972,1.76c-0.205,0.813-0.902,1.286-1.717,1.08L114.65,38.415z"/>
		<path fill="#CE9C12" d="M119.221,39.765c-0.752-0.25-1.084-1.023-0.818-1.819c0.266-0.796,1.017-1.209,1.789-0.95
			c0.773,0.257,1.113,1.009,0.842,1.826c-0.266,0.797-0.994,1.216-1.79,0.95L119.221,39.765z"/>
		<path fill="#CE9C12" d="M123.732,41.469c-0.732-0.305-1.006-1.101-0.682-1.875c0.324-0.773,1.104-1.13,1.855-0.814
			c0.754,0.314,1.035,1.09,0.701,1.885c-0.324,0.774-1.082,1.138-1.855,0.813L123.732,41.469z"/>
		<path fill="#CE9C12" d="M128.077,43.491c-0.707-0.358-0.919-1.171-0.54-1.92c0.382-0.747,1.186-1.044,1.911-0.675
			c0.727,0.37,0.95,1.163,0.561,1.931c-0.381,0.749-1.163,1.055-1.909,0.675L128.077,43.491z"/>
		<path fill="#CE9C12" d="M132.281,45.843c-0.676-0.411-0.829-1.238-0.395-1.956c0.434-0.717,1.258-0.953,1.954-0.531
			c0.698,0.424,0.863,1.23,0.415,1.969c-0.436,0.717-1.238,0.966-1.955,0.53L132.281,45.843z"/>
		<path fill="#CE9C12" d="M136.288,48.49c-0.646-0.458-0.736-1.296-0.25-1.979c0.483-0.684,1.323-0.857,1.989-0.386
			c0.662,0.473,0.769,1.29,0.269,1.993c-0.485,0.684-1.305,0.872-1.989,0.386L136.288,48.49z"/>
		<path fill="#CE9C12" d="M140.081,51.417c-0.61-0.506-0.64-1.348-0.104-1.993c0.537-0.645,1.385-0.759,2.012-0.238
			c0.631,0.52,0.674,1.343,0.123,2.006c-0.534,0.646-1.365,0.774-2.012,0.239L140.081,51.417z"/>
		<path fill="#CE9C12" d="M143.646,54.607c-0.574-0.549-0.543-1.39,0.037-1.995c0.582-0.605,1.438-0.656,2.025-0.091
			c0.59,0.563,0.573,1.389-0.021,2.01c-0.58,0.604-1.422,0.672-2.025,0.091L143.646,54.607z"/>
		<path fill="#CE9C12" d="M146.996,58.086c-0.528-0.59-0.438-1.427,0.188-1.986c0.625-0.562,1.481-0.549,2.027,0.058
			c0.546,0.605,0.467,1.427-0.172,2.003c-0.625,0.561-1.467,0.565-2.025-0.059L146.996,58.086z"/>
		<path fill="#CE9C12" d="M150.055,61.765c-0.482-0.626-0.328-1.453,0.334-1.967c0.664-0.514,1.519-0.439,2.019,0.206
			c0.497,0.645,0.362,1.458-0.318,1.985c-0.664,0.514-1.502,0.456-2.019-0.206L150.055,61.765z"/>
		<path fill="#CE9C12" d="M152.843,65.666c-0.437-0.659-0.225-1.475,0.478-1.938c0.699-0.463,1.544-0.325,1.994,0.354
			c0.451,0.678,0.254,1.479-0.461,1.955c-0.699,0.464-1.533,0.347-1.994-0.354L152.843,65.666z"/>
		<path fill="#CE9C12" d="M155.341,69.775c-0.387-0.69-0.112-1.486,0.618-1.897s1.566-0.212,1.965,0.5
			c0.401,0.711,0.146,1.495-0.604,1.916c-0.731,0.412-1.555,0.232-1.969-0.499L155.341,69.775z"/>
		<path fill="#CE9C12" d="M157.541,74.074c-0.335-0.717,0-1.489,0.758-1.846c0.758-0.355,1.577-0.095,1.922,0.646
			c0.346,0.738,0.035,1.501-0.746,1.865c-0.763,0.356-1.565,0.116-1.923-0.644L157.541,74.074z"/>
		<path fill="#CE9C12" d="M159.404,78.5c-0.28-0.739,0.105-1.485,0.892-1.784c0.784-0.298,1.577,0.023,1.87,0.785
			c0.287,0.763-0.08,1.5-0.885,1.806c-0.784,0.3-1.569,0-1.868-0.785L159.404,78.5z"/>
		<path fill="#CE9C12" d="M160.93,83.042c-0.225-0.759,0.221-1.475,1.023-1.714c0.805-0.238,1.57,0.141,1.805,0.922
			c0.23,0.781-0.189,1.489-1.016,1.736c-0.805,0.238-1.566-0.118-1.807-0.922L160.93,83.042z"/>
		<path fill="#CE9C12" d="M162.111,87.674c-0.17-0.773,0.322-1.453,1.146-1.633c0.82-0.18,1.56,0.257,1.729,1.053
			c0.174,0.796-0.295,1.471-1.139,1.654c-0.818,0.181-1.555-0.23-1.731-1.052L162.111,87.674z"/>
		<path fill="#CE9C12" d="M162.955,92.43c-0.111-0.782,0.432-1.425,1.262-1.543c0.83-0.117,1.535,0.372,1.649,1.18
			c0.112,0.806-0.405,1.444-1.259,1.565c-0.832,0.118-1.532-0.349-1.648-1.179L162.955,92.43z"/>
		<path fill="#CE9C12" d="M163.439,97.201c-0.055-0.791,0.537-1.393,1.371-1.446c0.84-0.058,1.506,0.481,1.56,1.295
			c0.058,0.813-0.511,1.412-1.369,1.47c-0.838,0.056-1.501-0.46-1.558-1.296L163.439,97.201z"/>
		<path fill="#CE9C12" d="M163.575,102.007c0.012-0.791,0.647-1.342,1.491-1.328c0.836,0.014,1.455,0.605,1.442,1.422
			c-0.016,0.815-0.628,1.366-1.489,1.352c-0.838-0.014-1.459-0.582-1.444-1.421V102.007L163.575,102.007z"/>
		<path fill="#CE9C12" d="M163.363,106.804c0.061-0.791,0.732-1.299,1.568-1.232s1.418,0.697,1.354,1.508
			c-0.063,0.813-0.712,1.324-1.568,1.256c-0.838-0.066-1.422-0.674-1.356-1.508L163.363,106.804z"/>
		<path fill="#CE9C12" d="M162.802,111.554c0.122-0.783,0.827-1.24,1.658-1.115c0.826,0.127,1.36,0.799,1.238,1.604
			c-0.124,0.808-0.806,1.267-1.66,1.138c-0.827-0.127-1.364-0.775-1.24-1.604L162.802,111.554z"/>
		<path fill="#CE9C12" d="M161.889,116.291c0.178-0.771,0.913-1.176,1.732-0.987c0.818,0.188,1.3,0.896,1.117,1.69
			c-0.186,0.794-0.897,1.203-1.739,1.01c-0.813-0.188-1.304-0.874-1.118-1.688L161.889,116.291z"/>
		<path fill="#CE9C12" d="M160.639,120.896c0.233-0.756,1-1.103,1.799-0.857c0.801,0.25,1.229,0.99,0.99,1.77
			c-0.242,0.779-0.986,1.135-1.808,0.881c-0.8-0.246-1.236-0.967-0.989-1.77L160.639,120.896z"/>
		<path fill="#CE9C12" d="M159.046,125.41c0.287-0.739,1.079-1.028,1.856-0.726c0.781,0.31,1.156,1.08,0.856,1.838
			c-0.3,0.762-1.065,1.06-1.868,0.744c-0.781-0.305-1.16-1.058-0.854-1.838L159.046,125.41z"/>
		<path fill="#CE9C12" d="M157.093,129.851c0.345-0.716,1.152-0.944,1.906-0.58c0.759,0.362,1.069,1.162,0.717,1.895
			c-0.353,0.736-1.142,0.977-1.919,0.602c-0.754-0.363-1.079-1.139-0.716-1.895L157.093,129.851z"/>
		<path fill="#CE9C12" d="M154.855,134.065c0.395-0.688,1.217-0.856,1.943-0.438c0.729,0.417,0.982,1.236,0.577,1.943
			c-0.408,0.705-1.213,0.888-1.959,0.459c-0.726-0.42-0.994-1.219-0.573-1.945L154.855,134.065z"/>
		<path fill="#CE9C12" d="M152.293,138.133c0.443-0.653,1.277-0.764,1.973-0.293c0.692,0.472,0.887,1.31,0.428,1.979
			c-0.455,0.677-1.271,0.799-1.985,0.313c-0.694-0.47-0.899-1.283-0.429-1.979L152.293,138.133z"/>
		<path fill="#CE9C12" d="M149.449,141.99c0.49-0.621,1.33-0.671,1.99-0.146c0.656,0.519,0.789,1.367,0.281,2.005
			c-0.507,0.639-1.328,0.702-2.006,0.166c-0.654-0.521-0.802-1.351-0.281-2.007L149.449,141.99z"/>
		<path fill="#CE9C12" d="M146.301,145.658c0.536-0.581,1.379-0.568,1.995,0c0.616,0.567,0.688,1.424,0.134,2.022
			c-0.551,0.598-1.375,0.601-2.01,0.017c-0.619-0.566-0.701-1.402-0.135-2.021L146.301,145.658z"/>
		<path fill="#CE9C12" d="M142.928,149.05c0.578-0.542,1.418-0.466,1.991,0.146c0.574,0.609,0.58,1.468-0.017,2.025
			c-0.594,0.559-1.416,0.5-2.006-0.13c-0.574-0.61-0.598-1.452,0.014-2.026L142.928,149.05z"/>
		<path fill="#CE9C12" d="M139.316,152.188c0.615-0.498,1.443-0.362,1.975,0.291c0.525,0.647,0.469,1.506-0.163,2.018
			c-0.634,0.516-1.448,0.396-1.989-0.273c-0.529-0.65-0.492-1.494,0.159-2.021L139.316,152.188z"/>
		<path fill="#CE9C12" d="M135.479,155.058c0.649-0.451,1.469-0.254,1.946,0.433c0.479,0.688,0.36,1.538-0.31,2.005
			c-0.668,0.463-1.475,0.287-1.967-0.421c-0.479-0.689-0.379-1.524,0.312-2.003L135.479,155.058z"/>
		<path fill="#CE9C12" d="M131.434,157.646c0.68-0.403,1.481-0.146,1.908,0.574c0.428,0.721,0.247,1.562-0.458,1.977
			c-0.7,0.416-1.487,0.178-1.93-0.564c-0.427-0.722-0.265-1.547,0.458-1.974L131.434,157.646z"/>
		<path fill="#CE9C12" d="M127.189,159.933c0.709-0.354,1.49-0.037,1.861,0.713c0.371,0.752,0.129,1.573-0.602,1.937
			c-0.73,0.36-1.5,0.065-1.883-0.705c-0.373-0.752-0.15-1.563,0.603-1.937L127.189,159.933z"/>
		<path fill="#CE9C12" d="M122.809,161.89c0.733-0.299,1.489,0.075,1.805,0.853c0.314,0.776,0.014,1.577-0.743,1.886
			c-0.755,0.307-1.501-0.044-1.826-0.844c-0.313-0.777-0.034-1.57,0.743-1.885L122.809,161.89z"/>
		<path fill="#CE9C12" d="M118.268,163.524c0.756-0.241,1.479,0.188,1.734,0.983c0.255,0.798-0.107,1.575-0.882,1.824
			c-0.774,0.251-1.494-0.155-1.759-0.978c-0.254-0.797,0.084-1.566,0.884-1.823L118.268,163.524z"/>
		<path fill="#CE9C12" d="M113.675,164.806c0.771-0.186,1.462,0.293,1.658,1.108s-0.224,1.563-1.017,1.756
			c-0.791,0.19-1.478-0.269-1.678-1.104c-0.197-0.814,0.196-1.558,1.012-1.754L113.675,164.806z"/>
		<path fill="#CE9C12" d="M108.952,165.751c0.782-0.128,1.437,0.4,1.571,1.229c0.136,0.828-0.338,1.543-1.143,1.674
			c-0.805,0.132-1.455-0.375-1.594-1.227c-0.137-0.826,0.313-1.539,1.141-1.675L108.952,165.751z"/>
		<path fill="#CE9C12" d="M104.165,166.343c0.789-0.07,1.399,0.506,1.476,1.342c0.074,0.838-0.449,1.514-1.263,1.586
			c-0.812,0.07-1.422-0.482-1.499-1.34c-0.074-0.836,0.428-1.512,1.262-1.586L104.165,166.343z"/>
		<path fill="#CE9C12" d="M99.383,166.582c0.791-0.015,1.36,0.606,1.373,1.442c0.016,0.842-0.558,1.479-1.371,1.49
			c-0.816,0.014-1.382-0.582-1.398-1.443c-0.014-0.838,0.537-1.477,1.373-1.489H99.383z"/>
		<path fill="#CE9C12" d="M94.566,166.472c0.792,0.045,1.313,0.706,1.266,1.543c-0.048,0.836-0.666,1.432-1.479,1.385
			s-1.337-0.683-1.288-1.543c0.048-0.838,0.643-1.436,1.479-1.388L94.566,166.472z"/>
		<path fill="#CE9C12" d="M89.838,166.019c0.785,0.102,1.259,0.795,1.15,1.629c-0.109,0.832-0.768,1.379-1.576,1.274
			c-0.809-0.104-1.284-0.776-1.173-1.634c0.108-0.832,0.743-1.382,1.576-1.271L89.838,166.019z"/>
		<path fill="#CE9C12" d="M85.068,165.204c0.775,0.158,1.195,0.888,1.024,1.709c-0.17,0.82-0.867,1.318-1.666,1.154
			c-0.798-0.166-1.224-0.873-1.048-1.715c0.17-0.824,0.845-1.326,1.666-1.154L85.068,165.204z"/>
		<path fill="#CE9C12" d="M80.42,164.049c0.761,0.218,1.126,0.978,0.896,1.783c-0.23,0.804-0.963,1.25-1.746,1.024
			c-0.784-0.226-1.156-0.961-0.919-1.789c0.23-0.805,0.941-1.256,1.746-1.025L80.42,164.049z"/>
		<path fill="#CE9C12" d="M75.866,162.55c0.743,0.274,1.051,1.059,0.761,1.844c-0.289,0.787-1.053,1.178-1.817,0.896
			c-0.765-0.279-1.081-1.042-0.783-1.853c0.289-0.787,1.031-1.185,1.818-0.894L75.866,162.55z"/>
		<path fill="#CE9C12" d="M71.421,160.71c0.722,0.328,0.97,1.132,0.623,1.896c-0.349,0.764-1.139,1.098-1.881,0.756
			c-0.742-0.336-1-1.119-0.644-1.902c0.348-0.764,1.116-1.104,1.88-0.758L71.421,160.71z"/>
		<path fill="#CE9C12" d="M67.148,158.563c0.695,0.379,0.884,1.201,0.48,1.937c-0.401,0.735-1.214,1.007-1.93,0.616
			c-0.715-0.391-0.915-1.19-0.501-1.947c0.402-0.734,1.195-1.021,1.931-0.616L67.148,158.563z"/>
		<path fill="#CE9C12" d="M63.024,156.091c0.664,0.432,0.792,1.262,0.336,1.967c-0.456,0.702-1.287,0.914-1.971,0.471
			c-0.685-0.441-0.824-1.254-0.355-1.979c0.455-0.703,1.266-0.928,1.97-0.473L63.024,156.091z"/>
		<path fill="#CE9C12" d="M59.103,153.326c0.631,0.479,0.696,1.317,0.191,1.987c-0.507,0.666-1.351,0.816-2.002,0.324
			c-0.648-0.492-0.729-1.313-0.209-1.998c0.506-0.67,1.332-0.832,2-0.328L59.103,153.326z"/>
		<path fill="#CE9C12" d="M55.4,150.29c0.596,0.521,0.601,1.365,0.045,1.995c-0.553,0.628-1.404,0.716-2.018,0.178
			c-0.611-0.54-0.632-1.36-0.063-2.01c0.555-0.63,1.39-0.731,2.02-0.179L55.4,150.29z"/>
		<path fill="#CE9C12" d="M51.901,146.959c0.554,0.565,0.496,1.405-0.102,1.993c-0.6,0.587-1.456,0.611-2.026,0.029
			s-0.53-1.404,0.085-2.01c0.6-0.586,1.438-0.629,2.026-0.029L51.901,146.959z"/>
		<path fill="#CE9C12" d="M48.656,143.385c0.51,0.604,0.393,1.437-0.249,1.978c-0.641,0.543-1.496,0.504-2.022-0.119
			c-0.526-0.623-0.426-1.44,0.233-1.998c0.64-0.541,1.48-0.52,2.022,0.121L48.656,143.385z"/>
		<path fill="#CE9C12" d="M45.708,139.604c0.465,0.642,0.285,1.465-0.393,1.957c-0.679,0.494-1.529,0.394-2.009-0.269
			c-0.479-0.659-0.318-1.466,0.379-1.974c0.679-0.494,1.515-0.41,2.008,0.266L45.708,139.604z"/>
		<path fill="#CE9C12" d="M43.039,135.619c0.416,0.672,0.177,1.479-0.536,1.922c-0.711,0.442-1.554,0.278-1.982-0.415
			c-0.431-0.689-0.211-1.484,0.521-1.939c0.714-0.443,1.542-0.297,1.984,0.414L43.039,135.619z"/>
		<path fill="#CE9C12" d="M40.687,131.472c0.366,0.702,0.067,1.489-0.675,1.879c-0.743,0.389-1.57,0.162-1.948-0.563
			c-0.377-0.723-0.1-1.497,0.664-1.896c0.744-0.39,1.56-0.185,1.948,0.559L40.687,131.472z"/>
		<path fill="#CE9C12" d="M38.617,127.097c0.314,0.729-0.042,1.489-0.812,1.82c-0.771,0.333-1.579,0.048-1.901-0.7
			c-0.323-0.749,0.012-1.504,0.804-1.844c0.77-0.334,1.569-0.067,1.9,0.702L38.617,127.097z"/>
		<path fill="#CE9C12" d="M36.902,122.647c0.259,0.75-0.152,1.482-0.944,1.759c-0.793,0.272-1.578-0.07-1.844-0.841
			c-0.268-0.771,0.122-1.498,0.937-1.78c0.793-0.271,1.57,0.051,1.844,0.843L36.902,122.647z"/>
		<path fill="#CE9C12" d="M35.512,118.054c0.202,0.766-0.263,1.467-1.072,1.68c-0.812,0.215-1.568-0.188-1.777-0.977
			c-0.209-0.785,0.234-1.48,1.067-1.703c0.811-0.215,1.562,0.164,1.776,0.977L35.512,118.054z"/>
		<path fill="#CE9C12" d="M34.467,113.36c0.146,0.779-0.37,1.445-1.194,1.601c-0.825,0.151-1.55-0.305-1.699-1.106
			c-0.149-0.801,0.344-1.461,1.19-1.617c0.823-0.153,1.546,0.279,1.698,1.103L34.467,113.36z"/>
		<path fill="#CE9C12" d="M33.771,108.61c0.087,0.785-0.477,1.412-1.31,1.505c-0.834,0.092-1.523-0.416-1.613-1.228
			c-0.09-0.811,0.45-1.435,1.307-1.527c0.834-0.096,1.521,0.394,1.613,1.228L33.771,108.61z"/>
		<path fill="#CE9C12" d="M33.426,103.801c0.029,0.793-0.578,1.375-1.417,1.406c-0.839,0.03-1.488-0.526-1.519-1.343
			c-0.031-0.816,0.555-1.396,1.416-1.43c0.838-0.027,1.487,0.506,1.519,1.344L33.426,103.801z"/>
		<path fill="#CE9C12" d="M33.431,99.03c-0.028,0.79-0.675,1.329-1.514,1.299c-0.839-0.028-1.446-0.633-1.419-1.448
			c0.029-0.813,0.654-1.352,1.516-1.322c0.838,0.029,1.447,0.609,1.418,1.448L33.431,99.03z"/>
		<path fill="#CE9C12" d="M33.787,94.22c-0.085,0.787-0.771,1.274-1.604,1.186c-0.834-0.092-1.397-0.738-1.309-1.549
			c0.089-0.812,0.751-1.301,1.607-1.208c0.833,0.091,1.397,0.715,1.308,1.549L33.787,94.22z"/>
		<path fill="#CE9C12" d="M34.496,89.464c-0.144,0.779-0.863,1.215-1.688,1.063c-0.824-0.151-1.338-0.84-1.19-1.642
			c0.147-0.803,0.846-1.242,1.692-1.085c0.825,0.152,1.342,0.815,1.19,1.64L34.496,89.464z"/>
		<path fill="#CE9C12" d="M35.55,84.782c-0.201,0.766-0.95,1.147-1.763,0.935c-0.811-0.212-1.271-0.937-1.064-1.725
			c0.207-0.789,0.936-1.176,1.769-0.958c0.812,0.214,1.277,0.914,1.065,1.726L35.55,84.782z"/>
		<path fill="#CE9C12" d="M36.953,80.185c-0.258,0.748-1.035,1.072-1.826,0.8c-0.794-0.272-1.2-1.028-0.936-1.8
			c0.266-0.771,1.021-1.102,1.835-0.822c0.794,0.273,1.207,1.006,0.935,1.799L36.953,80.185z"/>
		<path fill="#CE9C12" d="M38.678,75.738c-0.312,0.728-1.11,0.993-1.881,0.663c-0.771-0.329-1.12-1.112-0.799-1.863
			c0.321-0.749,1.098-1.023,1.891-0.685c0.771,0.33,1.128,1.092,0.799,1.862L38.678,75.738z"/>
		<path fill="#CE9C12" d="M40.758,71.369c-0.365,0.702-1.181,0.909-1.925,0.522c-0.744-0.387-1.034-1.194-0.657-1.917
			c0.376-0.724,1.171-0.941,1.937-0.543c0.743,0.387,1.043,1.173,0.656,1.916L40.758,71.369z"/>
		<path fill="#CE9C12" d="M43.148,67.185c-0.417,0.674-1.246,0.819-1.959,0.38c-0.714-0.441-0.941-1.268-0.514-1.961
			c0.429-0.694,1.237-0.851,1.971-0.398c0.713,0.44,0.954,1.248,0.514,1.962L43.148,67.185z"/>
		<path fill="#CE9C12" d="M45.829,63.207c-0.464,0.64-1.302,0.724-1.981,0.231c-0.679-0.492-0.846-1.332-0.367-1.992
			c0.479-0.66,1.297-0.757,1.994-0.253c0.68,0.492,0.861,1.314,0.369,1.994L45.829,63.207z"/>
		<path fill="#CE9C12" d="M48.787,59.44c-0.51,0.604-1.352,0.627-1.992,0.087c-0.642-0.541-0.746-1.391-0.222-2.016
			c0.526-0.623,1.349-0.66,2.007-0.104c0.643,0.54,0.763,1.372,0.223,2.014L48.787,59.44z"/>
		<path fill="#CE9C12" d="M52.01,55.906c-0.554,0.565-1.395,0.527-1.994-0.059c-0.601-0.586-0.644-1.441-0.074-2.025
			c0.569-0.583,1.394-0.562,2.011,0.041c0.6,0.586,0.659,1.425,0.073,2.025L52.01,55.906z"/>
		<path fill="#CE9C12" d="M55.483,52.615c-0.594,0.525-1.429,0.425-1.985-0.204c-0.556-0.628-0.535-1.484,0.075-2.025
			c0.61-0.54,1.431-0.457,2.002,0.188c0.555,0.629,0.553,1.471-0.075,2.025L55.483,52.615z"/>
		<path fill="#CE9C12" d="M59.226,49.556c-0.63,0.479-1.456,0.316-1.963-0.351c-0.508-0.667-0.425-1.52,0.223-2.014
			c0.65-0.494,1.461-0.35,1.983,0.336c0.508,0.667,0.443,1.507-0.224,2.014L59.226,49.556z"/>
		<path fill="#CE9C12" d="M63.155,46.803c-0.664,0.433-1.475,0.21-1.933-0.493c-0.458-0.702-0.313-1.548,0.371-1.992
			c0.684-0.443,1.481-0.242,1.952,0.48c0.457,0.703,0.331,1.535-0.371,1.992L63.155,46.803z"/>
		<path fill="#CE9C12" d="M67.288,44.341c-0.694,0.382-1.488,0.101-1.892-0.636c-0.404-0.734-0.197-1.566,0.517-1.958
			c0.715-0.394,1.497-0.133,1.911,0.623c0.405,0.733,0.219,1.555-0.517,1.959L67.288,44.341z"/>
		<path fill="#CE9C12" d="M71.563,42.202c-0.721,0.329-1.491-0.01-1.84-0.772c-0.35-0.762-0.081-1.576,0.66-1.915
			c0.741-0.34,1.501-0.022,1.861,0.762c0.349,0.763,0.103,1.567-0.661,1.916L71.563,42.202z"/>
		<path fill="#CE9C12" d="M76.011,40.375c-0.744,0.275-1.485-0.121-1.777-0.906c-0.291-0.787,0.037-1.58,0.801-1.862
			c0.765-0.283,1.499,0.09,1.799,0.899c0.291,0.785-0.016,1.569-0.801,1.861L76.011,40.375z"/>
		<path fill="#CE9C12" d="M80.567,38.888c-0.76,0.22-1.472-0.231-1.704-1.036c-0.231-0.806,0.154-1.571,0.937-1.798
			c0.784-0.225,1.488,0.201,1.728,1.03c0.231,0.805-0.131,1.565-0.938,1.797L80.567,38.888z"/>
		<path fill="#CE9C12" d="M85.215,37.744c-0.774,0.163-1.451-0.339-1.623-1.159c-0.172-0.821,0.27-1.556,1.066-1.723
			c0.799-0.167,1.471,0.312,1.646,1.154c0.173,0.82-0.246,1.552-1.067,1.723L85.215,37.744z"/>
		<path fill="#CE9C12" d="M89.987,36.941c-0.785,0.104-1.422-0.445-1.531-1.277c-0.111-0.83,0.384-1.531,1.192-1.639
			c0.807-0.106,1.441,0.421,1.555,1.274c0.11,0.832-0.361,1.528-1.191,1.639L89.987,36.941z"/>
		<path fill="#CE9C12" d="M94.765,36.496c-0.79,0.046-1.385-0.548-1.435-1.387c-0.049-0.837,0.496-1.498,1.31-1.547
			c0.814-0.047,1.407,0.525,1.458,1.385c0.048,0.837-0.473,1.497-1.31,1.547L94.765,36.496z"/>
	</g>
</g>
<g>
	<polygon fill="#CE9D11" points="121.479,109.123 135.182,150.915 100.064,102.535 121.188,109.218 	"/>
	<polygon fill="#CE9D11" points="99.163,102.53 64.112,150.427 77.551,109.444 77.553,109.444 99.031,102.435 	"/>
	<polygon fill="#CE9D11" points="156.55,83.248 156.348,83.397 100.258,101.636 112.956,83.127 112.995,83.248 	"/>
	<polygon fill="#CE9D11" points="99.681,101.824 99.613,101.914 99.515,102.048 99.48,102.022 99.48,101.978 99.48,42.087 
		112.956,83.127 100.258,101.636 	"/>
	<polygon fill="#CE9D11" points="99.235,101.632 42.971,83.248 86.103,83.248 	"/>
	<polygon fill="#9B6318" points="99.716,102.425 100.064,102.535 135.182,150.915 99.568,124.885 99.484,124.946 99.484,102.435 
		99.509,102.358 	"/>
	<polygon fill="#9B6318" points="99.484,102.435 99.484,124.946 63.953,150.915 64.112,150.427 99.163,102.53 99.33,102.304 
		99.509,102.358 	"/>
	<polygon fill="#9B6318" points="156.348,83.397 121.415,108.929 121.479,109.123 121.188,109.218 100.064,102.535 99.847,102.233 
		100.258,101.636 	"/>
	<polygon fill="#9B6318" points="99.48,42.087 99.48,101.978 99.235,101.632 86.103,83.248 86.138,83.248 	"/>
	<polygon fill="#9B6318" points="99.48,102.022 99.515,102.048 99.33,102.304 99.163,102.53 99.031,102.435 77.553,109.444 
		77.551,109.444 77.72,108.929 42.584,83.248 42.971,83.248 99.235,101.632 99.48,101.978 	"/>
	<g>
		<polygon fill="none" stroke="#000000" points="121.479,109.123 121.415,108.929 156.348,83.397 156.55,83.248 112.995,83.248 
			112.956,83.127 99.48,42.087 86.138,83.248 86.103,83.248 42.971,83.248 42.584,83.248 77.72,108.929 77.551,109.444 
			64.112,150.427 63.953,150.915 99.484,124.946 99.568,124.885 135.182,150.915 		"/>
		<polyline fill="none" stroke="#000000" points="42.45,83.078 42.971,83.248 99.235,101.632 99.418,101.692 		"/>
		<polyline fill="none" stroke="#000000" points="156.514,83.343 156.348,83.397 100.258,101.636 99.681,101.824 		"/>
		<polyline fill="none" stroke="#000000" points="63.838,150.802 64.112,150.427 99.163,102.53 99.33,102.304 99.515,102.048 
			99.613,101.914 99.681,101.824 		"/>
		<polyline fill="none" stroke="#000000" points="99.48,42.087 99.48,101.978 99.48,102.022 		"/>
		<polyline fill="none" stroke="#000000" points="135.182,150.915 100.064,102.535 99.847,102.233 99.613,101.914 99.549,101.824 		
			"/>
		<polyline fill="none" stroke="#000000" points="85.919,82.99 86.103,83.248 99.235,101.632 99.48,101.978 99.484,101.981 		"/>
		<polyline fill="none" stroke="#000000" points="113.05,82.99 112.956,83.127 100.258,101.636 99.847,102.233 99.716,102.425 
			99.71,102.435 		"/>
		<line fill="none" stroke="#000000" x1="77.553" y1="109.444" x2="99.031" y2="102.435"/>
		<polyline fill="none" stroke="#000000" points="99.031,102.208 99.33,102.304 99.509,102.358 99.716,102.425 100.064,102.535 
			121.188,109.218 		"/>
		<polyline fill="none" stroke="#000000" points="99.484,125.045 99.484,124.946 99.484,102.435 		"/>
	</g>
</g>
</svg>
