<svg height="378.885216" viewBox="0 0 291.44 415.75" width="263.932177" xmlns="http://www.w3.org/2000/svg"><g transform="matrix(.999975 0 0 .999975 -4.28547144 -8.00514944)"><path d="m150.35 10.377c-27.855 44.076-91.33 65.021-143.71 35.764v183.25c0 65.524 56.489 144.41 143.71 192.74 87.231-48.328 143.73-127.21 143.73-192.74v-183.25c-52.39 29.258-115.86 8.3124-143.73-35.764zm-25.586 114.54s.79111 1.2334-1.6894 4.5859c-1.6411 2.1989-2.7573 2.969-3.5859 2.8281-1.7007-.3087-1.9274-.73154-.5625-2.248 1.3703-1.5111 5.8379-5.166 5.8379-5.166z" fill="#0080c6"/><path d="m18.057 193.76v35.623c0 2.876.1304 5.7673.36328 8.6758 4.7715 59.3 57.454 127.67 131.93 170.8l-.01-85.479c-7.5771-.18414-20.89-.5039-21.307-.5039-1.7819 0-12.073-.81898-12.924-.80274-1.8523.0704-12.667-1.1094-14.113-1.1094-1.7277 0-19.559-1.6911-21.422-2.1406-3.2172-.77449-3.9466-2.7242-4.082-3.8887-1.094-.30331-1.8914-.74196-2.4492-1.2402-.14081.16248-.27565.35377-.42188.5-1.874 1.9335-4.2902 2.957-6.9766 2.957-3.3471 0-6.8121-1.821-9.5039-5.623-4.7553-3.1792-8.6348-10.605-8.6348-22.861 0-13.773 2.043-18.955 5.0977-22.486 1.5923-1.8415 4.0135-2.7367 6.6133-2.4551 1.5273.16247 3.0372.85011 4.4941 2.0254.59577-.27622 1.2999-.43165 2.0527-.43165h1.5117c2.2043 0 3.884 1.8957 4.3281 3.8672.03253.005.06903.004.10156.004l.08789-.15625c1.2674-2.3668 3.2329-2.7188 4.2891-2.7188.25456 0 .51479.0168.79102.0547l.77344.11328c1.4082.21664 3.5381.52573 5.0059.60156 1.9173.11373 3.3184 1.0547 3.9629 2.582.70408-1.1807 2.1625-2.0306 4.6484-1.7598.31955.0379.68692.0821 1.1094.13086 1.3269.1679 3.1369.38972 5.0488.49804.89907.0541 3.6442.49811 4.0937 3.8398.75826.0921 2.1387.42209 3.0215 1.6894v-1.2129l.26562-.50977c1.2511-2.4372 3.0228-2.9512 4.2793-2.9512.27081 0 .5354.0274.80078.0762 1.4569.23831 5.3796.51454 10.758.76367 1.1753.0488 3.8562.54643 4.1758 3.834.80158.10293 1.9482.39087 2.7715 1.3008l-.0312-.94922.23242-.52539c1.1861-2.5835 3.0551-3.125 4.4199-3.125.14083 0 .29802.007.45508.0176 1.8415.15707 8.2974.25435 9.998.25976 1.2674 0 4.0505.23828 6.6719 1.8848v-35.492l-12.008 5.459v-11.34l-55.199 25.043v-6.543l-49.428 22.32-1.3867-2.416-.01563.0117-3.5527-6.1758 68.031-47.33v7.0723l31.922-14.297c1.5111-4.0025 3.6232-9.6207 5.8438-15.486zm88.332 84.812-.004.8711c0 1.8577-1.2893 2.8821-1.9121 3.375l.2207 13.566 2.6699-16.703c-.10293-.1192-.23738-.27645-.3457-.38477-.18958-.21123-.41227-.44298-.62891-.72461zm23.271 1.6211v.64453c0 1.7386-1.1594 2.779-1.8418 3.3476.37912 2.1827 1.3964 8.1028 2.4688 14.299.15707.9424.32535 1.8946.48242 2.8262-.005-7.8208-.0164-18.305-.0488-20-.0975-.13-.28212-.2997-.41211-.42968-.19498-.18956-.42637-.42212-.64843-.6875zm-64.738 2.3828c-.32497 1.9823-.5918 5.1686-.5918 10.26 0 .53619.0064 1.049.01172 1.5527.6066-1.0886 1.8951-1.7207 3.1191-1.7207h2.9902c2.4427 0 3.5527 1.6397 3.5527 3.1562.01627.22747 0 .43419 0 .65626h.25977c.07587 0 .13662.005.20703.0156l-.05469-10.117c-.55785.38996-1.203.60742-1.8691.60742h-1.7168c-1.5815 0-3.4773-1.0036-3.916-3.2188-.03787-.2004-.06473-.40614-.0918-.5957-.62827-.0433-1.2938-.24365-1.9004-.5957z" fill="#ffc20e"/><path d="m150.35 29.523c-31.944 37.376-85.78 51.225-132.29 34.316v129.92h116.48c4.712-12.484 9.852-26.093 10.502-27.686.85575-2.0635.65371-2.9639-1.2148-2.3086-3.7696 1.3378-13.182 3.8291-17.938 4.7715-4.7607.9478-4.6856 1.6692-5.6172 4.2852-1.5869 4.4466-3.1774 10.16-8.5664 14.287-4.0242 3.0709-12.279 4.7601-16.098 1.4238 0 0 7.5277-10.317 11.016-15.078 2.9897-4.0783.78698-6.1804-3.4863-3.8027-4.2949 2.3777-25.711 17.137-25.711 17.137-4.1216-2.5347-9.143-11.259-5.3301-16.02 3.8021-4.7662 24.373-27.773 24.373-27.773 0-2.8543-.47633-11.109 1.4355-13.016 1.9011-1.9064 41.41-38.433 41.795-38.742.38996-.32496 1.197-.67525 2.3398-.74023 8.8553-.49828 22.028-3.8411 27.926-8.5098.61201-.48203 1.6793-.24401 1.5547 1.0938-.68241 7.9346-4.6199 11.878-9.1152 15.518-.30872.24913-.26044 1.0622.23242 1.2734 21.74 9.164 38.237 20.749 44.693 37.23.0975.2383-.16279.52362-.43359.38281-2.7514-1.2782-4.5101-1.8676-5.9941-2.3496-.34123-.11373-.79115.0369-.36328.46484 4.4683 4.3979 10.659 13.108 13.156 20.555.1192.33579-.0665.58417-.28321.44336-2.4426-1.5436-6.4343-3.6604-7.6367-4.0449-.60118-.18415-.60008.10826-.36718.40625 7.8425 10.106 14.477 19.741 17.424 30.129.24914.90448-.18529 1.2906-.80273.64063-2.1881-2.3343-6.0539-5.5514-9.3848-7.3008-.76908-.4008-.88817-.0335-.47656.63281 1.6302 2.6539 4.9492 10.231 7.0723 15.225l56.365-25.623 3.5254 6.125-.0859.0606 1.3965 2.4356-25.758 18.475h27.953v-129.92c-46.513 16.909-100.34 3.06-132.29-34.316zm-93.303 61.178h13.113v6.418h-2.8105v31.775h6.418v-7.5293h6.3418v14.5h-23.062v-6.8945h2.7734v-31.852h-2.7734zm164.46 0h16.303v6.5762h-2.3125l5.9844 32.734h2.166v5.8555h-11.553v-5.8555h1.6035l-.63867-5.8594h-6.7383l-.64453 5.8594h1.6856v5.8555h-11.635v-5.8555h2.168l5.8535-32.734h-2.3223zm8.2598 13.395-2.4043 12.998h4.8906zm45.047 67.102-64.641 29.395v-12.762l-58.125 26.469v-11.346l-59.068 26.479v-5.6816l-59.924 41.672 53.863-25.125v6.6016l55.207-25.043v11.346l60.291-27.41v17.012zm-24.191 93.967c-.15901.003-.3147.0176-.46093.0176-.5687 0-1.3161.001-1.8848.0879-.57952.0759-.911.15715-1.3984.8125-.49828.64993-.53461 1.0059-1.4824.64844-3.3688-1.3053-7.4102-.23838-9.4629 3.0059-2.0473 3.2496-2.7134 9.8845.16797 14.271 2.7568 4.2029 6.1737 9.5279 7.6523 11.229 1.4732 1.7115 4.0736 8.6934-.0859 8.6934-2.551 0-3.8836-3.2884-4.4414-4.9512-.41163-1.224-.99159-1.2988-1.6524-1.2988h-2.4629c-.742 0-1.1543.56844-1.1543 1.3809v9.3359c0 1.1536.60595 2.1133 1.7812 2.1133h2.1504c1.6627 0 2.08-1.0513 2.3184-1.8692.25456-.81241.53645-.34009.91015-.0801 2.8001 1.9498 6.2598 1.4028 8.7188-.88282 2.8814-2.6864 5.5848-10.178-.44336-17.561-2.1935-2.6756-8.2859-10.311-8.6055-13.246-.32496-3.0709 1.7319-3.8027 2.9668-3.8027 1.2295 0 2.9912 1.3165 3.2891 3.2988.15706 1.0832.6541 2.1328 1.5586 2.1328 1.4082 0 .61197.23831 2.0039 0 1.1374-.19497 1.3711-1.2122 1.3711-2.3496 0-1.132.48745-8.7632 0-9.998-.36965-.90584-.87648-.99869-1.3535-.98828zm-191.31.89844c-1.4919-.0104-2.9074.52726-3.9121 1.6836-2.2964 2.6539-4.5117 6.8676-4.5117 20.928 0 14.076 5.6592 22.299 11.947 22.299 5.4269 0 9.0943-5.372 8.791-15.143 0-.53619-.39631-.77539-1.1816-.77539h-2.9883c-.35747 0-1.0669.2377-1.0723.66015-.03253 3.8292-.29889 8.1901-3.6406 8.9375-3.5421.79075-4.5977-7.6649-4.5977-15.621 0-7.9616.52476-15.781 3.7148-15.781 1.8577 0 2.6045 1.4675 3.0703 3.0273.46579 1.5652.36398 2.4974.51562 3.2285.19499 1.002 1.0237 1.2988 1.5762 1.2988h1.7051c.65535 0 1.2353-.86628 1.4141-1.8574.38455-2.0581.26617-6.3215.20117-8.7695-.03253-1.1807-1.0467-2.4688-2.0703-2.4688h-1.5098c-.77451 0-1.2998.26977-1.4785.53516-.25456.38455-.8189.46181-1.5176-.17187-1.0074-.90991-2.3231-1.8048-3.8125-1.9727-.21529-.0237-.42945-.0356-.64258-.0371zm17.744 2.6406c-1.0387.008-1.7102.60039-2.1699 1.4629 0 0 .0014 1.4609-.0039 2.9883 0 1.0832 1.8398 2.0916 1.8398 3.5215l.17969 28.271c0 1.4082-1.875 2.0908-1.875 3.1523v2.5625c0 1.1266 1.0074 1.7377 2.291 2.041 1.6032.39538 4.7831.67188 6.3809.67188 1.5923 0 2.2324-.60196 2.2324-1.8477v-2.2676c0-1.354-1.9512-1.9455-1.9512-3.0938l-.0918-10.334c2.6701-1.5761 5.807-.76235 7.6484.13672l.14063 10.49c0 1.4136-1.8691 2.0786-1.8691 3.1348v2.9531c0 .95865 1.2783 1.3814 2.5781 1.6738 1.6032.35747 4.2143.57422 5.8066.57422s2.5117-.80267 2.5117-2.043v-1.9922c0-1.3486-1.9434-1.928-1.9434-3.0762l-.48242-29.258c0-1.1699 1.9125-1.4138 1.918-2.7949v-2.2969c0-1.2674-.32564-2.3122-1.918-2.4043-2.5781-.15707-4.9504-.50372-6.2773-.64453-1.4786-.1625-2.5449.12984-2.5449 1.4297v2.8926c0 1.0724 1.8359 2.0951 1.8359 3.5195l.11914 9.1914c-1.8686.82325-5.5246.68184-7.6152-.10352l-.0918-10.344c0-1.159 1.916-1.409 1.916-2.7793 0-.62827.0011-1.3214.01172-2.3125 0-1.262-.52052-2.2254-2.1074-2.3066-1.9011-.10294-4.6893-.54677-6-.73633-.16384-.0237-.32037-.0343-.46875-.0332zm141.15.41407c-.54997-.0106-1.0381.006-1.4375.0391-1.5869.1354-5.4597.73019-6.7812.82227-1.3107.0867-2.0102.83955-2.4922 1.9336 0 0 .0659 1.4418.13086 2.9258.0433 1.0507 1.9389 1.5864 2.0039 3 .0488 1.067.0703 24.817.0703 28.213 0 1.419-1.8418 2.4107-1.8418 3.4668v2.8652c0 1.0182 1.2184 1.3359 2.5508 1.3359 1.549 0 4.7345-.23159 6.3106-.50781 1.5815-.25998 1.9219-1.1215 1.9219-2.3672v-2.1836c0-1.3594-1.9336-1.614-1.9336-2.7676v-9.0059c0-.38455.32091-.55798.54297-.57422 0 0 .15034.0644.62695-.0547.4712-.1192.82375.25953 1.0566.87696.24373.61202 4.083 11.472 4.5 13.709.53619.96948 1.2474 1.5658 2.5527 1.3438 1.3161-.22747 2.4625-.23417 4.0332-.49414 1.197-.20039 1.7008-.74157 1.8633-1.5215.0596-.25996.082-.54196.082-.83985v-2.2734c0-.36288-.15189-.65665-.38477-.90039-.62826-.677-1.8464-1.0551-2.1172-1.8242-.35206-1.0453-3.6879-9.3263-3.9316-10.02-.2329-.68785-.34812-.80228.12304-1.6797 3.8292-3.8346 5.5151-7.5011 4.3398-15.246-1.0379-6.7674-7.9392-8.1974-11.789-8.2715zm-17.34 1.6445c-1.0724 0-13.735 1.2832-15.035 1.2832-1.2944 0-2.541.72565-2.541 1.7168 0 1.002-.004 2.3143-.004 2.9805 0 1.0832 1.8457 2.1068 1.8457 3.5312l.125 27.826c0 1.4136-1.8633 2.0869-1.8633 3.1484v2.9453c0 1.2024 1.236 1.7715 2.5684 1.7715 1.327 0 14.276-1.0784 14.904-1.1055 1.2836-.0488 2.5942-.77332 2.5996-1.8457.0107-.62826-.1034-9.1112-.125-9.6582-.0217-.55244-.49834-1.3636-1.0508-1.4394-.55244-.0649-2.3929.091-2.9453.1289-.73118.0488-.93704.83418-1.0508 1.457-.1192.59578-.41804 3.1088-.58594 3.9375-.13.60119-.36196.94318-1.1094.96485-.68784.0325-2.5075.009-3.8398.12304-.22205-.25997-.37891-.5242-.37891-.84375 0 0-.0937-8.5736-.0937-9.4726 0-.89907 1.0678-2.4005 2.1348-2.4492 1.5815-.0975 2.6274.001 3.8027-.17188.96948-.14081 1.6017-.62419 1.8184-1.4258.18956-.70409.11374-1.9764 0-2.9297-.11373-.94782-.97884-1.4727-1.9375-1.4727-1.3269-.16248-3.6786.21709-4.6914-.11328-.90448-.27623-1.2354-.81764-1.2949-1.668-.0488-.78533-.0215-8.4551-.0215-8.4551.005-.70951.46688-1.5703 1.2793-1.5703.98573 0 1.9503-.19531 2.7031-.19531s1.3694.14641 1.5156.74218c.20581.81242.31488 1.3637.43945 1.9648.15164.60118.52425 1.5721 1.25 1.5938.56869.005 2.2147.0921 2.7617 0 .55244-.092.87872-.56386 1.0195-1.1055.39539-1.5003.27589-6.8086.0918-8.4551-.0704-.64452-1.0074-1.7383-2.291-1.7383zm-90.84 1.0254c-1.0218.0224-1.6394.74914-2.1133 1.6543v2.8476c0 1.067 1.8789 1.8423 1.8789 3.2559l-4.4785 28.076c-.0325 1.4136-1.9182 2.1568-1.9453 3.2129-.0325 1.5003-.0586 2.8477-.0586 2.8477 0 1.0778 1.2333 1.4301 2.5332 1.6738 1.6627.3358 4.7714.6006 6.3691.54101 1.5978-.0488 1.966-.86581 2.0039-2.0898.005-.98573.0337-1.5646.0391-2.1875.0379-1.354-1.875-1.8694-1.875-3.0176 0-.29788.15863-2.8378.40235-4.793 2.2206-.90989 4.6307-.60152 6.2988.0918.25998 1.8198.43794 4.3661.44336 4.7344.0271 1.419-1.873 2.1982-1.873 3.2598v2.9414c0 1.0507 1.0823 1.2944 2.3984 1.5273 1.5869.28164 4.9604.3948 6.5527.30274 1.5923-.0975 1.9453-.91012 1.9453-2.1504v-2.1816c0-1.3432-1.7341-1.8476-1.9453-2.9688-.23288-1.2294-4.7753-27.725-5.084-29.35-.21665-1.1374 1.9434-1.6299 1.9434-2.9785v-2.2754c0-1.2403-.34562-2.0746-1.9434-2.1504-3.3146-.14083-8.9421-.44785-11.027-.78906-.16316-.0271-.31887-.0384-.46484-.0352zm65.404 1.0234c-.75284 0-1.4829 1.2303-1.6562 1.4902-.25997.38996-.67657.24863-1.5215-.17383-1.2457-.61202-3.4944-1.381-5.4551-1.2402-1.7332.13-3.8127 1.1375-4.9609 2.459-2.2964 2.6593-4.7012 5.6321-4.7012 19.703 0 14.06 5.6661 21.914 11.943 21.914 4.5062 0 10.062-4.7881 10.062-11.602 0-2.2314.31332-7.3881.15625-12.273 0-.53079-.40084-.7793-1.1699-.7793h-7.7168c-.35746 0-1.0668.24898-1.0723.66602-.0163 1.159-.0332 1.9397-.0332 4.2578 0 1.0236 3.3691 1.3419 3.3691 2.4414 0 1.094.0325 1.8908 0 3.9922-.0596 3.9158-1.9717 6.5976-3.6777 6.5976-3.1576 0-4.6035-6.8962-4.6035-14.863 0-7.9725 2.3945-16.014 5.5684-16.014 1.8577 0 2.4205.90306 2.8809 2.4629.46579 1.5652.36202 1.3611.51368 2.0977.20039.99114 1.7889 1.293 2.3359 1.293h1.7168c.63911 0 1.2334-.86041 1.4121-1.8516.37913-2.0581.24903-5.6594.18945-8.1074-.0271-1.1807-1.0497-2.4707-2.0625-2.4707zm-42.443.35156c-1.0283.0933-1.6125.81416-2.0391 1.7383 0 0 .0609 1.4353.13672 2.9356.0433 1.067 1.9374 1.7602 2.0078 3.1738.0433 1.0724.0703 24.885.0703 28.281 0 1.419-1.873 2.167-1.873 3.2285v2.7676c0 .95323 1.2837 1.5711 2.5781 1.6523 1.327.0867 4.749.2599 6.3359.11914 1.5869-.1354 1.9394-.97021 1.9394-2.2051v-2.1016c0-1.3703-1.9394-1.6843-1.9394-2.8379v-8.6602c0-.37371.31506-.52539.53711-.52539 0 0 .15619.0812.63281 0 .47662-.0759.8242.33657 1.0625.96484.23831.64452 4.0897 11.844 4.5176 14.119.53079 1.0236 1.244 1.2352 2.5547 1.3652 1.4515.16248 2.5081.17255 4.0625.0371 1.5923-.13 1.9453-.86606 1.9453-2.1172v-2.2793c0-1.3594-2.1336-1.8469-2.502-2.9356-.35746-1.0778-3.7105-9.7436-3.9434-10.453-.24372-.71494-.3521-.83975.11914-1.6738 3.84-3.5313 5.5396-7.1608 4.3535-15.02-1.1807-7.8533-6.6882-9.2938-9.8945-9.3047-1.4028 0-8.1677-.0962-10.193-.26953-.16586-.0135-.32184-.0133-.46875 0zm85.477 2.5039c.95865-.0867 4.4141.72499 4.4141 5.1445 0 4.4358-1.8858 6.6204-4.4043 6.8262-1.9877.16248-1.6191-.45527-1.6191-1.0781 0-.64452-.006-9.9238-.006-9.9238 0-.63368.66742-.89293 1.6152-.96875zm-76.488 4.373c.94781 0 4.4297 1.0998 4.4297 5.541 0 4.4358-1.9004 7.0312-4.4297 7.0312-1.9986 0-1.6348-.58552-1.6348-1.2246v-10.502c0-.6391.6707-.84571 1.6348-.84571zm-26.299 4.6856c.22815.0311.46732.26371.52148.66992.0488.38996.85165 5.5177 1.6641 10.674-1.2457.13-2.7254.0118-4.0469-.24805.70951-5.3294 1.4082-10.562 1.4082-10.562.008-.39537.22498-.56434.45313-.5332z" fill="#fff"/></g></svg>