<?xml version="1.0" encoding="UTF-8" standalone="no"?>
<svg xmlns:rdf="http://www.w3.org/1999/02/22-rdf-syntax-ns#" xmlns="http://www.w3.org/2000/svg" xml:space="preserve" height="70.465" viewBox="0 0 191.10426 70.464844" width="191.1" version="1.1" xmlns:cc="http://creativecommons.org/ns#" xmlns:dc="http://purl.org/dc/elements/1.1/"><g transform="matrix(1.25 0 0 -1.25 -283.66 530.85)"><g transform="translate(.71776 .71776)"><path d="m0 0v17.484l11.619-8.6016 0.22656-0.16602 0.27344 0.046875c0.66692 0.11025 1.409 0.21441 2.125 0.3125 0.61788 0.08825 1.2572 0.18025 1.8457 0.27344l0.55664 0.087891v51.113l-0.16992 0.1875-6.9023 7.7266c7.7701-1.6869 17.112-3.1311 26.26-4.4453l-6.6836-4.3906-0.29688-0.19922v-48.219l0.74805 0.10156c0.64241 0.08825 1.0112 0.16813 1.3691 0.24414 0.35798 0.0785 0.69606 0.15056 1.3164 0.22656l0.18555 0.02539 0.14453 0.11914 8.5195 6.9102 0.002-5.5059v-6.2207l-41.14-7.1111zm189.1 2.0703c-3.5234 0.6375-18.003 3.2476-22.607 3.9219-4.5091 0.65956-6.793 3.1246-6.793 7.3223v7.2148c0 8.5572 0.18985 9.4475 6.8125 12.807 5.5119 2.7952 10.866 5.2704 10.92 5.2949l0.38086 0.17578v16.852c0 1.2529-0.1074 2.513-0.9043 3.2363-0.53941 0.49285-1.3072 0.66845-2.418 0.56055l-2.1035-0.24023-1.1758-0.13281s-0.23098-0.0293-0.22852-0.0293l-0.16211-0.16211-11.121-11.076v3.7227l0.002 11.807c5.4801 0.66446 9.7543 1.2323 14.668 2.0684 0 0 5.7095 0.95898 5.707 0.95898 3.0208 0.48794 4.8872 0.59266 6.7188-0.17969 1.4981-0.63259 2.2728-2.1089 2.3047-4.377v-17.498l0.002-0.89453c0.0221-4.5189 0.0327-6.788-5.3125-9.4238-5.9999-2.957-12.718-6.142-12.787-6.1738l-0.37695-0.17969v-13.34c0-2.5917 0.74965-3.5032 3.2188-3.9004l3.6504-0.53125s0.22803-0.033203 0.23047-0.033203l0.19922 0.11914 11.176 6.5625v-14.451zm-37.34 8.1055c-1.8291 0.17165-3.5556 0.32305-5.3848 0.48242v6.707c1.8806-0.15938 3.6489-0.32199 5.4805-0.49609v-1.2559c-1.1842 0.11034-2.2806 0.21048-3.4648 0.31836v-1.5996c1.0739-0.09563 2.1385-0.19138 3.2148-0.29688v-1.2461c-1.0739 0.103-2.1384 0.19875-3.2148 0.29688v-1.3652c1.1279-0.10298 2.2388-0.20462 3.3692-0.3125v-1.2324zm-104.11 0.10352v1.248c0.91209 0.08334 1.7432 0.15936 2.6602 0.24023v5.457c0.75031 0.06865 1.3683 0.11734 2.1211 0.18359v-5.457c0.86062 0.06619 1.7451 0.1408 2.6621 0.2168v-1.248c-2.5255-0.20354-4.9154-0.40526-7.4434-0.64062zm92.754 0.85742c-1.8291 0.1324-3.5551 0.25725-5.3867 0.375v6.7031c1.8831-0.12259 3.6513-0.24796 5.4805-0.38281v-1.2539c-1.1843 0.08827-2.2806 0.16314-3.4648 0.24414v-1.5977c1.0764-0.07602 2.1384-0.14472 3.2148-0.23047v-1.2461c-1.074 0.08338-2.1384 0.15447-3.2148 0.23047v-1.3633c1.1303-0.07847 2.2408-0.15881 3.3711-0.24219v-1.2363zm-79.85 0.19141v6.7051c1.8831 0.1324 3.5949 0.24077 5.4805 0.35352v-1.2559c-1.1843-0.06866-2.2806-0.13842-3.4648-0.2168v-1.5996c1.0764 0.06865 2.1409 0.132 3.2148 0.20312v-1.248c-1.0739-0.06866-2.136-0.132-3.2148-0.20312v-1.3633c1.1303 0.07602 2.1843 0.13689 3.3711 0.21289v-1.2383c-1.826-0.111-3.55-0.22-5.381-0.35zm65.61 0.578c-1.8341 0.10545-3.0246 0.93897-3.0371 2.0742 0.01 1.2358 0.96144 1.7288 3.0137 2.2266 0.70125 0.17896 1.0692 0.2746 1.0742 0.68164-0.005 0.39965-0.394 0.61353-1.2031 0.66016-0.91456 0.03434-1.7207-0.23819-2.748-0.71875v1.4902c0.8655 0.39966 1.7705 0.56116 2.793 0.51953 2.0523-0.11769 3.1711-0.91856 3.1836-2.1543-0.005-0.75519-0.36126-1.2901-1.0625-1.6211-0.59092-0.27706-1.3012-0.41908-2-0.61523-0.75767-0.19616-1.0815-0.4163-1.084-0.69336 0.002-0.34815 0.41816-0.56286 1.1758-0.59961 0.75275-0.02944 1.602 0.1556 2.627 0.5332v-1.373c-0.91456-0.3286-1.8203-0.45178-2.7324-0.41016zm-54.246 0.09766v6.7051c0.69881 0.03438 1.3444 0.06383 1.9941 0.0957v-4.2129c1.503 1.4956 2.9876 2.9175 4.498 4.3984 0.53451 0.02212 1.0387 0.04189 1.5781 0.05664v-6.7031c-0.69878-0.0245-1.3449-0.04972-1.9922-0.07422v3.9941c-1.5055-1.4025-2.8585-2.7537-4.3125-4.1758-0.58848-0.0245-1.1747-0.05461-1.7656-0.08399zm42.619 0.34961c-1.888 0.06621-2.9753 0.87504-3.0391 2.0078 0.0613 1.2358 0.95947 1.7448 3.0117 2.2891 0.70368 0.19125 1.0723 0.30003 1.0723 0.70703 0 0.39966-0.38957 0.60581-1.2012 0.63281-0.91456 0.01962-1.7168-0.27026-2.7441-0.77539v1.4902c0.91456 0.41438 1.771 0.5997 2.791 0.58008 2.0522-0.07356 3.1691-0.85653 3.1816-2.0898-0.005-0.75519-0.30533-1.2944-1.0606-1.6426-0.5909-0.28688-1.2492-0.45224-2.002-0.6582-0.75765-0.21088-1.0815-0.44118-1.084-0.7207 0.002-0.34572 0.42011-0.54623 1.1777-0.56836 0.75275-0.01471 1.602 0.18875 2.627 0.58594v-1.373c-0.91459-0.34324-1.8698-0.48934-2.7305-0.46484zm-28.371 0.16797v6.7031c0.69881 0.01475 1.287 0.03017 1.9883 0.04492v-4.2129c1.5055 1.454 2.9381 2.8395 4.5 4.2812 0.5394 0.0046 1.0412 0.01508 1.5781 0.01758v-6.7031c-0.64731-0.005-1.2914-0.01344-1.9902-0.02344v3.998c-1.4515-1.3706-2.8585-2.686-4.3125-4.0664-0.58844-0.01225-1.1727-0.02656-1.7637-0.03906zm19.629 0.11133c-1.8291 0.0245-3.5537 0.03656-5.3828 0.03906v6.7031c1.8267-0.0024 3.6469-0.01511 5.4785-0.03711v-1.2578c-1.1303 0.01475-2.3345 0.0257-3.4648 0.0332v-1.6016c1.0764-0.0074 2.1404-0.0168 3.2168-0.0293v-1.2461c-1.0764 0.0099-2.138 0.0218-3.2168 0.0293v-1.3633c1.1279-0.0074 2.2388-0.02125 3.3691-0.03125v-1.2383zm-67.533 8.5254 4.4414 4.6113 0.11133 0.11328v33.008l-0.12891 0.11523-5.0859 4.791c0.179-0.02213 1.1714-0.15234 1.1738-0.15234 5.4016-0.67919 11.446-1.3733 16.684-1.8711l1.3223-0.125-4.584-3.4277-0.15625-0.11914v-31.447l0.1582-0.11719 4.5684-3.3516c-0.27462-0.027-1.3066-0.125-1.3066-0.125-5.4948-0.52228-11.421-1.1754-16.688-1.8398-0.22068-0.0295-0.38227-0.04788-0.50977-0.0625zm118.19 0.46484-12.289 1.3438v20.168l-0.7461-1.4121-9.4531-17.902-12.178 0.73047 4.6113 3.3672 0.16211 0.11719v28.453l-0.14844 0.11719s-3.1659 2.4477-4.6641 3.6074l12.85 0.71289v-23.332l0.74609 1.4316 8.7754 16.801 0.0449 0.08594v5.8125l12.314 1.2988-4.1875-4.8438-0.0957-0.11328v-31.686l0.10351-0.11328 4.1543-4.6445zm-98.033 1.6914v10.605c0.17162-0.12996 0.33624-0.25282 0.49805-0.39258 1.1598-0.91946 2.0155-1.7431 2.8418-2.5449 0.88516-0.85571 1.8041-1.7463 3.084-2.7246l0.11719-0.08984 0.15039 0.0098 2.8594 0.17188 0.36914 0.02344v28.25l-0.12695 0.11719-4.6387 4.2617c0.41191-0.03437 0.81409-0.06241 1.2383-0.08203 5.4114-0.36041 10.591-0.62224 15.838-0.80859 0.44625-0.01962 0.87168-0.03408 1.3008-0.04883l-4.6543-3.6855-0.15234-0.11914v-27.535l0.41406 0.01953 2.2812 0.10742 0.12695 0.0078 0.10352 0.08203c1.2112 0.99791 2.0823 1.8821 2.9258 2.7402 0.89494 0.90721 1.7369 1.7653 2.9629 2.7559 0.18144 0.12504 0.34701 0.24652 0.50391 0.36914v-9.6113-0.27148c-0.12502 0-0.31006-0.0059-0.3125-0.0059-10.614-0.2599-17.458-0.77043-27.438-1.582-0.09075 0-0.18999-0.0074-0.29297-0.01953zm51.914 1.4785c-0.3566 0.0037-0.74577 0.01654-1.1914 0.03125-3.5234 0.09563-7.2806 0.19322-11.076 0.22266-1.8438 0.01475-2.8702 0.04565-4.2285 0.54102-1.3976 0.54922-1.5625 1.248-1.5625 1.7285v28.705l-0.16406 0.12109-5.0117 3.6523c0.23292-0.005 1.1455-0.0268 1.1504-0.0293 4.3105-0.09562 8.0414-0.13672 11.727-0.13672h0.10547c0.0613 0 0.13008-0.0059 0.20117-0.0059v-15.762h0.40039l5.1465 0.0078h0.54883l0.39648 0.0039v15.877c0.0931 0 0.18406 0.0025 0.30665 0 3.3959 0.03925 6.4882 0.09731 9.4551 0.17578l1.1191 0.02539-0.10351 0.08008 2.1699 0.09961-4.6777-3.8516-0.14454-0.12109v-0.18555-29.053c-0.002-0.50262-0.18303-1.224-1.6836-1.7168-1.0464-0.35123-1.813-0.4213-2.8828-0.41016zm-4.3516 5.4199v8.0645l-4.9024 0.01367v-8.002l4.9024-0.07617z" transform="matrix(.8 0 0 -.8 226.93 423.08)" fill="#024"/><path d="m2.5605 1.9941 5.1895 3.0684l14.238 2.2559-2.8535 2.4062v50.791l3.5879 3.3496v-56.432l13.071 2.0704 3.195-1.3457-36.428-6.1641zm183.45 2.2871s-13.407 2.46-18.686 3.3574c-4.2737 0.72821-5.8867 1.706-5.8867 7.2988v9.5098c0 2.523 0.49225 3.9553 2.2969 5.2598l2.5586-0.74805c-0.72575-0.73558-1.7617-2.2141-1.7617-4.6758v-9.5957c0-2.5549 0.76532-5.0435 5.1641-5.8281 4.3988-0.78219 11.738-1.9375 11.738-1.9375l4.5762-2.6406zm-138.52 19.441-2.8867 2.3125v32.619l2.8867 2.3867v-37.318zm98.127 0.51758v27.355l-11.344-21.76v3.3262l13.701 26.873 0.002-16.723v-17.127l-2.3594-1.9453zm-85.747 0.479c0.30159 0.18635 0.60175 0.3922 0.89844 0.5957 0.43154 0.29669 0.88002 0.60153 1.3066 0.83203l3.3711 0.23438c2.2705 0.15938 4.2329 0.29828 6.8418 0.42578 0 0 0.19286 0.01045 0.31055 0.01758l0.13672 0.0039 1.0859 0.05664c3.1409 0.15199 5.413 0.26616 8.9707 0.36914 0.41929-0.17409 0.85655-0.42573 1.2832-0.66602 0.29422-0.16671 0.59736-0.3353 0.89648-0.48242-9.665-0.258-15.968-0.698-25.101-1.387zm50.195 1.3164c-4.0432 0.12262-8.0631 0.19806-13.043 0.24219-2.8001 0.04413-3.227 1.1155-3.2344 1.748v28.027l2.3535 2.1973v-28.785c0.11038-1.378 0.90686-1.8995 3.0449-2 4.3472-0.054 8.0582-0.12747 11.68-0.23047l1.2676-0.94922c-0.36779-0.10538-1.1342-0.27696-2.0684-0.25zm20.35 0.17578-2.3594 1.9551v28.467l2.3594 2.4785v-32.9zm-57.816 0.67187-0.24023 0.16602-0.21094 0.14453c-0.63994 0.43642-1.3018 0.89055-2.3047 1.3613v28.111l2.7559 2.1328v-31.838-0.07813zm38.09 0.86328c-0.44379 0.33346-0.87664 0.66462-1.291 0.98828l-1.0703 0.82031v10.734h-0.13086l-5.2402 0.01563-3.6055 0.0078-1.2969 1.207 1.4219-0.0039 8.5879-0.0039c0.007-0.0025 0.0165-0.0059 0.0215-0.0059 0.0125-0.0025 0.0299-0.0039 0.0371-0.0039-0.0221 0.005-0.0586 0.03834-0.0586 0.08984h0.26367v14.812l2.3613 2.0195v-30.678zm58.834 0.93359-2.2695 0.64062 13.684 6.5312c2.8957 1.3485 3.4238 2.0078 3.4238 2.0078l1.7812-0.5293s-0.3937-0.92434-3.3164-2.2852l-13.303-6.3652zm13.295 10.111-3.0898 0.83984v17.754c-0.13488 2.3808-1.4264 3.9939-4.8125 3.6016-3.4916-0.44381-1.8227-0.20287-5.3535-0.59766l-5.1504 0.72461c5.6076 0.64975 7.569 1.2384 13.096 1.9961 0.002-0.0025-0.005-0.01172-0.008-0.01172 0.36044 0.05387 0.60151 0.08086 0.8418 0.11524 3.5161 0.47078 4.4349-1.9939 4.4766-4.1074v-20.314z" transform="matrix(.8 0 0 -.8 226.93 423.08)" fill="#4b92db"/></g></g></svg>
