<?xml version="1.0" encoding="UTF-8"?>
<svg id="svg2" width="234.3311" height="71.098488" version="1.1" viewBox="0 0 234.3311 71.098488" xml:space="preserve" xmlns="http://www.w3.org/2000/svg" xmlns:cc="http://creativecommons.org/ns#" xmlns:dc="http://purl.org/dc/elements/1.1/" xmlns:rdf="http://www.w3.org/1999/02/22-rdf-syntax-ns#"><title id="title1088">Logo of the New York Jets</title><metadata id="metadata8"><rdf:RDF><cc:Work rdf:about=""><dc:format>image/svg+xml</dc:format><dc:type rdf:resource="http://purl.org/dc/dcmitype/StillImage"/><dc:date>1978–1997</dc:date><dc:title>Logo of the New York Jets</dc:title><dc:language>en</dc:language><dc:description>Logo used by the New York Jets football team from 1978 to 1999</dc:description></cc:Work></rdf:RDF></metadata><g id="g10" transform="matrix(1.3333333,0,0,-1.3333333,-11.684893,164.80933)"><g id="g12" transform="scale(.1)" fill="#326151" fill-rule="evenodd"><path id="path16" d="m1084.7 977.344h362.85l-31.55-63.11h-97.81l-107.28-211.402h-176.7l119.9 214.559h-100.97l31.56 59.953"/><path id="path18" d="m1005.82 914.234h-154.609l-25.242-41.019 151.453-3.152-31.551-56.793h-154.609l-25.242-47.332h224.023l-34.707-63.106h-388.098l141.989 277.664h331.303l-34.71-66.262"/><path id="path20" d="m1845.12 1046.75-621.59 53.64c-63.1 9.47-113.59 23.67-157.76 53.64l-112.012 82.04 105.512-168.81-561.446-1.58-151.453-287.125c-7.93-13.528-10.398-22.125-37.867-22.086h-186.16l-34.7073-53.637h362.8553c39.074-0.133 46.746 19.867 59.949 44.172l155.137 301.326 1179.542-1.58"/><path id="path22" d="m1794.63 922.117h-211.4l151.45-55.211c12.62-6.312 18.93-15.777 15.78-28.398l-59.95-113.59c-11.05-11.047-12.62-22.086-31.56-22.086h-356.54l29.98 66.258h252.41l-129.36 52.062c-17.36 12.625-14.2 33.129-14.2 33.129-6.31-12.621 56.8 110.434 56.8 110.434 9.46 12.625 25.24 18.933 39.44 18.933h290.28l-33.13-61.531"/></g></g></svg>
