<?xml version="1.0" encoding="UTF-8" standalone="no"?>
<svg xmlns:rdf="http://www.w3.org/1999/02/22-rdf-syntax-ns#" xmlns="http://www.w3.org/2000/svg" xml:space="preserve" height="278.140963427" viewBox="0 0 381.71209 295.30032" width="359.529926006" version="1.1" xmlns:cc="http://creativecommons.org/ns#" xmlns:dc="http://purl.org/dc/elements/1.1/"><defs><clipPath id="d" clipPathUnits="userSpaceOnUse"><path d="m0.49622 156.16h610.74v472.48h-610.74v-472.48z"/></clipPath><clipPath id="c" clipPathUnits="userSpaceOnUse"><path d="m0 0h612v792h-612v-792z"/></clipPath><clipPath id="b" clipPathUnits="userSpaceOnUse"><path d="m0.49622 156.16h610.74v472.48h-610.74v-472.48z"/></clipPath><clipPath id="a" clipPathUnits="userSpaceOnUse"><path d="m0 0h612v792h-612v-792z"/></clipPath></defs><g transform="matrix(1.25 0 0 -1.25 -191.32 638.15)"><g style="" transform="matrix(.5 0 0 .5 152.81 196.2)"><g style=""><g style="" clip-path="url(#d)"><path d="m593.99 180.52c0.2811 0.1406 0.5127 0.3722 0.7856 0.5293l-0.521-0.3887-0.2646-0.1406zm-579.06 123.19c5.3426-17.02 12.223-33.792 20.37-49.977-0.50448-5.02-0.23156-10.015 0.95108-15.118l0.06617-0.2564 0.06616-0.2729c2.5969-9.7755 4.9704-16.235 10.999-29.69-0.33908-8.8409 2.9194-17.831 9.304-24.703 9.9491-10.702 25.762-14.903 43.353-11.496l-0.82704-0.1323c23.264 3.2833 38.382 10.098 46.297 14.638 34.859-24.397 80.437-35.314 120.89-28.59 26.366 4.375 47.686 15.78 62.374 33.131 11.214-0.7608 21.321 0.4301 23.347 0.6948 12.438 0.9014 23.752 3.5314 33.842 7.7823 14.953-17.442 35.174-29.947 59.438-36.356 28.334-7.4846 60.464-6.9636 91.006 1.224 5.9215-0.5624 11.694 1.0668 15.887 2.9855 32.097 7.3523 39.276 10.421 44.023 14.456 0.0661 0.0661 0.124 0.1158 0.1902 0.1819 11.421 7.832 15.151 22.512 14.688 33.371l-0.008 0.2563-0.0248 0.2564c-2.7457 37.191-11.057 74.805-25.431 115l-0.1488 0.4218-0.1737 0.397-1.6623 3.9945 0.1736-0.4383c-5.9876 15.54-18.476 22.255-36.877 19.981 0 0-8.5845-0.9346-8.2537-0.9015l-3.3991-0.306c-14.184-1.2984-34.57-3.1179-52.533-1.4556l-22.305 52.847c4.59 3.0103 8.5267 6.5417 10.983 11.008 1.9849 3.581 3.2089 7.3936 3.9615 11.14 6.8643 0.9346 13.365 3.9946 17.98 9.0146 6.7981 7.4019 10.644 20.725 1.0503 35.926l0.4797-0.7939-29.897 53.906-17.682-7.5177c-70.91 114.3-205.82 131.81-305.38 88.84-90.328-38.97-177.83-141.84-127.12-303.45" fill="#fff"/><path d="m152.85 205.35c52.922-42.294 172.61-48.315 177.98 46.132 1.042 21.255-5.1772 44.387-10.139 61.796-14.539 54.518-1.5383 100.73 62.068 110.44 29.359-0.2729 22.66 17.053 20.973 25.456-8.9484 27.945-16.565 45.263 34.834 47.504-5.5825 11.744-4.7224 10.71-11.818 20.518-130.27 189.2-464.91 71.827-399.31-188.2 14.829-58.719 32.097-84.092 51.954-108.7 0 0 0.25638-13.356 21.238-5.7313 17.202 3.7795 32.097 6.7155 52.218-9.2213" fill="#16243e"/></g></g><g fill="#ffb612"><g fill="#ffb612" clip-path="url(#c)"><path d="m350.02 440.9-2.9359 4.4577c-6.9636 11.926-22.23 30.741-45.702 50.755-28.466 23.033-80.139 45.71-141.39 13.489-57.569-29.211-68.8-101-47.992-159.32 5.8305-13.439 23.595-49.349 42.592-64.723 29.178-24.91 57.396-16.739 63.615-13.844 8.1379 2.8119 17.244 8.4357 27.896 22.47 11.504 12.844 12.802 41.384 8.5432 54.303-2.9856 10.164-16.367 25.654-33.982 26.523-10.214 0.521-26.448-1.3564-38.06-5.4584 13.638 24.033 43.179 34.958 68.246 28.946 9.1387-2.1999 19.361-7.559 26.68-14.217 11.62-10.156 20.899-26.101 23.794-41.748 0.3639-2.7375 2.0924-17.318 2.0345-21.312-1.4142-33.867-17.417-67.386-38.093-82.182-15.325-13.638-31.055-23.843-51.549-24.745-12.323-0.8767-25.365 1.0669-41.5 6.8312-21.66 9.9823-46.777 30.12-62.267 50.283-35.388 46.049-56.403 97.581-49.845 158.44 3.9697 36.794 16.036 85.68 63.995 121.49 28.251 21.073 60.232 31.427 84.77 36.455 23.843 4.896 63.83 5.0532 89.145-1.0007 49.696-11.926 107.08-49.622 130.02-93.884 6.4095-9.4612-3.581-39.184-78.014-52.012" fill="#ffb612"/></g></g><g style=""><g style="" clip-path="url(#b)"><path d="m100.89 213.05s26.093 12.761 46.926-5.4088c0 0-3.7299-3.1179-6.5252-4.7802 0 0-16.913 12.711-35.926 8.1049 0 0-6.7154-0.5624-4.4742 2.0841" fill="#fff"/><path d="m29.69 328.03c-65.013 260.17 264.57 375.3 395.29 189.08 3.3494-5.6072 6.1531-8.4026 11.744-20.146-51.4-2.2413-41.947-19.849-32.998-47.794 1.6871-8.4026 8.386-25.729-20.973-25.456-63.607-9.7093-76.608-55.924-62.068-110.44 4.9622-17.409 11.223-40.541 10.139-61.796-4.8051-93.884-121.53-87.053-177.07-45.718-20.825 15.507-32.974 15.044-52.922 9.0146-22.015-6.6493-21.172 6.0952-21.172 6.0952-18.451 26.275-35.438 54.303-49.977 107.16zm1.7781-19.567c16.292-51.912 42.435-86.962 46.065-90.047 0 0-3.5562-15.333 24.323-6.1366 24.124 7.9312 37.059 0.306 48.108-7.9808 65.286-50.887 181.52-44.246 184.53 46.272 1.6705 21.825-3.5645 39.011-7.5508 56.213-20.13 66.261 5.6651 91.221 20.965 100.65 0 0 11.471 10.627 46.14 13.423 0 0 25.166-1.2571 12.587 33.552 0 0-15.945 31.865 5.8719 36.067 2.9277 0.5706 4.1351 0.7774 4.8877 0.9097 10.478 2.0924 25.729 2.448 25.729 2.448-118.55 226.74-503.14 106.21-411.66-185.38" fill="#100f0d"/></g></g><g style=""><g style="" clip-path="url(#a)"><path d="m315.83 256.9c0.6947-47.389-46.777-70.314-88.277-66.418-21.387 0.9014-46.52 9.7837-64.533 19.071-8.8078 5.0614-29.74 16.028-38.118 16.483 9.6432-2.1338 29.732-13.381 36.861-18.162 15.49-8.4274 41.442-20.254 65.774-21.155 63.317-3.9614 96.398 33.677 92.486 69.33-2.0924 18.186-8.2951 34.983-14.167 47.562 3.366-13.423 9.4199-29.235 9.974-46.71" fill="#fff"/><path d="m196.71 272.05c-2.5638-0.8271-5.5742-1.3398-8.6755-1.3233-7.6087 0.0496-15.168 3.4404-20.734 9.2875-10.975 11.487-11.62 29.252-1.4556 39.59 4.6148 4.7141 10.884 7.1373 17.674 7.0876 7.5921-0.0413 15.143-3.2915 20.717-9.1386 5.8306-6.1035 8.7417-13.968 8.4688-21.792l-15.995-23.711" fill="#fff"/><path d="m195.43 273.59c-2.3405-0.7608-4.8464-1.1661-7.4267-1.1495-7.1125 0.0496-14.2 3.2502-19.452 8.7416-10.305 10.784-10.983 27.424-1.5052 37.084 4.284 4.3419 10.081 6.7155 16.35 6.6741 7.1042-0.0496 14.2-3.2336 19.443-8.7416 5.3178-5.5577 8.0635-12.662 8.1959-19.576l-15.606-23.033" fill="#100f0d"/><path d="m230.57 249.16c-8.2538-4.0194-42.79-26.713-79.825 7.6251 21.883-28.02 60.39-28.168 79.825-7.6251" fill="#fff"/><path d="m264.61 231.46c6.4012-0.0166 11.595 5.1524 11.612 11.545 0.0248 6.4012-5.1442 11.587-11.537 11.62-6.4012 0.0165-11.595-5.1524-11.62-11.554-0.0165-6.3929 5.1524-11.595 11.545-11.611" fill="#100f0d"/><path d="m263.78 245.45c4.1765 0 7.559-3.4735 7.5425-7.7327-0.0166-4.2675-3.4074-7.7244-7.5922-7.7079-4.1764 0.0165-7.559 3.4901-7.5424 7.7575 0.008 4.2592 3.4073 7.6996 7.5921 7.6831" fill="#100f0d"/><g fill="#fff"><path d="m269.64 245.65c1.1413-1.6789-0.0662-2.8284-0.9511-1.5052-1.6292 1.8277-5.7147 2.6796-8.08 1.0999-1.0586-0.6285-2.1503 0.2068-0.8023 1.5962 2.6465 2.2991 7.5756 2.1668 9.8334-1.1909"/><path d="m271.46 236.41c6.2937 6.4922 1.0255 16.168-6.5005 16.135-10.528-0.0331-11.405-11.264-8.874-13.621-1.3067 3.9118 1.1662 11.421 8.6673 11.115 7.2034-0.306 9.4364-7.7658 6.7072-13.629"/><path d="m263.69 244.12c3.4818 0 6.3019-2.8616 6.3019-6.3764 0-3.5397-2.8201-6.4012-6.3019-6.4012s-6.3019 2.8615-6.3019 6.4012c0 3.5148 2.8201 6.3764 6.3019 6.3764"/></g><path d="m263.64 242.83c2.7871 0 5.0366-2.2661 5.0366-5.0366 0-2.7954-2.2495-5.0449-5.0366-5.0449s-5.0366 2.2495-5.0366 5.0449c0 2.7705 2.2495 5.0366 5.0366 5.0366" fill="#100f0d"/><path d="m259.92 237.62c-0.3722-2.8946 5.111-5.8802 7.5094-1.1496 0 0 0.0165 1.1826-0.5707 0.3225-1.1661-1.6788-5.0035-1.4969-6.3681 0.6616-0.1489 0.488-0.4301 0.8105-0.5706 0.1655" fill="#fff"/><path d="m173.49 218.04c4.1516 3.457 4.3419 10.239 0.5127 15.647-3.8126 5.4335-10.47 7.3192-14.845 4.2344-4.3915-3.0849-5.1359-10.809-1.3067-16.235 3.8126-5.4087 11.52-7.0876 15.639-3.6472" fill="#100f0d"/><path d="m157.7 218.64c-3.1758 3.3577-3.7299 8.0139-1.224 10.387 2.5059 2.3736 7.1207 1.5797 10.305-1.7615 3.184-3.3578 3.7299-8.0139 1.2322-10.388-2.5059-2.3736-7.1289-1.5796-10.313 1.7616" fill="#100f0d"/><g fill="#fff"><path d="m169.61 228.86c-0.5955 0.9925-3.0352 3.0435-4.6065 3.5728-1.6789 0.5789-2.2082-1.6789-0.8023-1.9518 1.3812-0.2729 3.8705-2.3736 4.6314-4.0276 0.6616-1.4142 2.3239-0.1241 0.7774 2.4066"/><path d="m157.47 230.98c4.9622 15.184 24.943-3.8705 13.266-12.455 7.7327 10.048-7.3192 21.776-13.266 12.455"/><path d="m166.15 226.87c2.6961-2.8615 3.1675-6.7982 1.0338-8.8161-2.1172-2.018-6.0456-1.3398-8.7417 1.4969-2.6961 2.845-3.1675 6.8064-1.0503 8.8244 2.1337 2.0179 6.0621 1.3397 8.7582-1.5052"/></g><path d="m158.19 227.52c1.8277 1.745 5.0531 0.6616 6.9966-1.5466 1.5796-1.8112 2.9194-5.7644 0.8849-7.2861-1.7781-1.3232-4.7471-0.2564-6.947 1.7616-2.3736 2.1668-2.5472 5.508-0.9345 7.0711" fill="#100f0d"/><path d="m159.04 225.55c-1.3398-1.9518 1.9104-6.3515 5.5411-6.0125 1.0834 0.182 0.9262 0.9759 0.3887 1.1165-2.1586 0.5707-4.4412 2.8119-4.7472 4.9787-0.1902 1.2737-1.1826-0.0827-1.1826-0.0827" fill="#fff"/><path d="m142.46 203.68s-13.927-11.099-44.792-15.465c-25.183-4.8629-35.587 11.487-32.568 22.586-7.4432 16.392-9.4943 22.082-11.951 31.32-1.8443 7.9808-0.03308 13.572 0.3887 15.457 0 0 8.9815-24.968 26.084-39.962 0.57892-7.7657 4.9787-8.5431 15.474-6.947 0 0 14.39 3.5893 21.486 3.0848 6.6162-0.4466 17.136-1.4638 25.878-10.073" fill="#100f0d"/><path d="m139.75 209.48-6.4425-3.5231c-17.442-8.4688-32.171-10.826-40.491-11.405-8.1958-0.579-6.6079 4.2013-1.2323 6.9139 2.9773 1.5052 5.4749 4.375 6.5583 9.6101-0.918-0.4714-0.86838-0.2564-2.3405-0.5293-1.7616-12.86-26.928-11.554-24.149 5.9546 0 0-3.6141 7.4184-5.6817 11.727 0.04962-0.1737-0.52103 2.7126-0.24811 2.7623 0 0 6.1531-9.9657 8.692-13.1-3.4239-12.033 14.324-17.004 18.864-7.7493-0.66162-0.1323-2.4563-0.2564-3.242-0.3721-6.5418-0.2316-11.959 2.6134-13.199 10.065-12.323 16.615-20.791 32.833-20.791 32.833-2.7292-9.6431 10.371-36.356 11.405-38.878l1.0338-2.5224c-3.6306-10.04 6.8064-23.173 25.555-20.155 18.468 1.7451 39.185 9.4778 48.025 15.813 0 0 0.1902 1.7119-2.3157 2.5555" fill="#fff"/><path d="m440.23 418.64v-5.6734c-8.0884-0.8684-10.933-2.6134-15.879-8.7665-16.268-20.32-14.291-57.586-9.7589-76.5 17.864-56.263 3.4322-115.14-63.689-119.55 0 0-19.791-2.7044-32.99 1.5465 16.284 23.016 8.7086 50.151 5.508 64.789-2.8616 13.117-25.241 58.959-17.326 95.265 7.7658 35.637 39.978 48.96 39.978 48.96l94.157-0.0744" fill="#100f0d"/><g fill="#fff"><path d="m325.91 215.52c10.834 22.354 4.2427 46.586 4.2427 46.586 18.484 10.015 30.741 36.389 29.938 50.655 0.4383 5.4584-0.3805 12.166-1.621 18.881-5.8057 19.319 31.568 35.554 44.891 4.0524 18.922-44.841 22.52-128.38-75.565-120.42"/><path d="m419.29 405.4c-12.298-8.9319-16.144-40.251-12.505-57.098-9.9492 10.983-5.0614 54.981 12.505 57.098"/><path d="m348.05 415.58c-13.456-8.5928-20.188-17.045-21.668-18.608-29.186-39.854-4.2509-87.425 1.9849-125.29-7.0628 29.806-45.486 95.464 6.8891 135.76 0 0 5.6652 4.9952 12.794 8.1296"/></g><path d="m432.58 500.21c-6.7651 9.7258-15.226 4.102-15.532 4.0028l-4.1682-2.0841-1.6044-0.9842c-9.6184 0.3556-15.937 0.4549-15.953 0.4549-3.3991 0.0331-6.1531-1.2488-7.5838-3.457-3.3412-5.1855 0.8849-13.795 1.1826-14.556 0 0 8.6177-24.778 8.5763-24.678 3.7878-10.437 4.681-18.269 2.1916-22.776-1.8691-3.4073-8.4191-4.7637-11.843-5.2847 0 0-5.111-0.7112-5.0201-0.6947-20.155-2.5638-27.97-6.3019-40.681-13.166 0 0-3.2337-2.0344-2.5721-1.869 12.62 3.2336 10.751-0.7113 10.751-0.7113l87.367-1.5382c0.0993 0 3.1014 0.0992 3.7713 0.215 8.5762 1.5465 13.084 5.3922 16.359 11.322 2.8201 5.1193 3.1923 11.876 2.7291 17.351 1.1661 1.5962 2.4894 2.7292 5.2682 4.0028-0.7609 5.0862-7.6831 7.7823-7.7823 8.0139 0 0-2.6548 9.0725-2.9442 10.478 0 0-9.4281 29.806-10.545 33.032-1.1248 3.2171-4.5652 2.7954-11.967 2.9277" fill="#100f0d"/><g fill="#fff"><path d="m382.74 425.24c0.2812-0.008 6.6824 0.0496 15.581 3.0765 6.0704 2.2578 10.594 6.3764 8.1214 17.913 0 0-1.042 8.3778-5.6651 20.122-3.275 8.3364-7.2282 19.162-8.3861 22.859-0.5954 1.8856-1.4638 5.5246-0.4135 8.659 0 0-3.9945-3.1344-0.4218-11.603l9.8499-27.259c7.344-22.024 1.8278-28.607-10.9-31.245-6.0869-1.2571-11.041-1.4721-13.555-2.3074l5.7892-0.215"/><path d="m440.42 496.55c5.2434-13.423 14.886-44.246 14.886-44.246 4.0359-12.612 4.3088-31.758-13.82-35.794 10.222 4.4742-2.0759 7.3026 1.1826 6.5087-18.145 4.3915-48.952-1.3233-52.309 0.9676 24.372 2.357 20.485 16.995 17.764 29.161-1.836 8.1875-8.8078 26.002-10.487 30.608-0.9924 2.7458-1.4638 3.7796-2.7292 8.1711-1.7119 5.9794 0.6285 6.0869 3.151 6.3019 1.6706 0.1406 7.1951 0 7.1951 0-4.193-6.7072-2.7953-15.738-2.7953-15.738l11.95-33.966c2.3074-8.5928 9.0146-7.9643 9.0146-7.9643l15.738 0.2068c14.672 2.5224 12.786 11.33 8.8079 21.809-2.539 6.6741-13.001 34.388-13.001 34.388s3.5562 0 5.4501-0.4136"/><path d="m308.51 430.98c7.9808 6.5087 19.245 10.578 19.245 10.578 19.104 8.0139 57.197 17.525 91.329 23.033 5.5245 0.7774 9.4447-3.1179 10.073-7.3274 0.5872-3.978-1.6375-8.4192-7.9147-9.4033 0.0662 0.0165-1.9765-0.3887-1.9765-0.3887-26.514-5.3013-56.577-11.306-81.603-21.486-7.3027-2.6299-12.96-6.4756-18.633-10.106 0 0-4.6479 12.157-6.5335 12.794-1.8857 0.6286-5.8388 0.8023-3.9863 2.3074"/><path d="m307.7 406.21c-1.1496-1.6954-4.681-7.0463-7.9478-12.149 0 0-10.263-16.375-20.767-33.354 0 0-7.6087 8.8326-9.6928 9.883-2.1006 1.0503-4.9373 0.9841-6.4011 0.1488 10.09 16.359 21.709 34.727 24.869 39.441 3.5479 4.863 6.3102 8.0966 9.4777 11.727 1.4721 1.6623 5.3922 4.6892 5.3922 4.6892s-0.215-3.9945 2.1006-10.081c2.3075-6.0704 3.5563-9.2214 3.5563-9.2214"/><path d="m411.45 356.23c13.638-17.235 31.766-29.202 50.87-34.975 48.654-5.2351 66.7-2.7292 87.094 0.0662l2.4397 0.0165c2.4811-5.7478 6.4343-18.104 7.4846-22.503l2.8036-11.463s0.3391-1.3894 0.3391-1.3729l1.4225 0.1075c6.335 0.488 10.189-1.563 10.842-5.7809 0.5955-3.8456-1.7698-8.4439-4.681-9.1221l-1.5631-0.3556 0.2895-1.5879 0.7774-4.2013c2.5473-13.729 6.3929-34.487 7.8485-47.198 0.3143-5.7148-2.6465-7.1042-2.7457-7.1538l-0.3557-0.1323-0.2563-0.2895c-2.7458-2.969-3.6555-5.7809-2.7292-8.3447 2.1006-5.7726 12.96-7.3192 14.2-7.4846l0.488-0.0661 0.4548 0.215c9.4943 4.5982 8.9981 19.386 8.965 20.08-2.6713 36.191-10.818 72.299-24.521 110.64l-1.6624 3.978c-3.4735 9.0146-9.7506 10.726-19.642 9.4942l-8.5846-0.9345c-21.213-1.8856-58.338-5.9132-83.265 3.2502 0 0-8.08 2.969-11.016 5.5576-6.3763 3.9201-20.874 14.473-33.131 32.767 0 0-2.6961-10.321-2.1668-23.206"/><path d="m517.79 330.76 7.1372-15.102c20.088 2.7127 26.258 5.6652 26.258 5.6652 4.4081 4.2013 3.4652 13.406-5.7561 13.638-16.359-2.3156-23.024-3.5893-27.639-4.2013"/><path d="m440.22 412.9 59.968-142.14c11.645-28.168 40.698-50.432 72.324-55.402 1.2322-0.0662 16.416-1.0504 18.592-11.016l0.0331-0.1324v-0.1158c0.0165-0.306 1.3646-6.153-4.4659-9.395-1.9353-1.7781-7.3192-4.4163-39.044-11.62l-2.1006-0.4466 0.6285 3.3412c-0.091-0.0662 1.4638 3.1675 1.5631 13.894l-0.0414 1.4804 1.4639 0.2316c1.9187 0.2729 3.6058 0.5624 5.1275 0.8353-26.448 5.4749-52.111 27.383-67.212 58.181-0.0414 0.0827-62.201 143.89-62.201 143.89s4.4576 8.2041 15.366 8.4108"/><path d="m421.54 278.11 65.286-11.09 0.1819-0.0331h0.1737c15.35 0.7112 43.287 6.5252 49.986 7.9643 1.1827-4.1021 2.7788-12.339 2.8036-12.422 0.1076-0.5706 0.5293-0.9263 1.009-1.1496 0.3639-0.306 0.827-0.4879 1.3315-0.4052 8.262 1.4059 27.846 6.4425 28.748 6.6741 5.9877 1.8112 7.7327 7.9312 6.823 12.877-0.9263 5.0201-4.9457 10.206-11.562 9.701l-0.1985-0.0165-0.1736-0.0413c-32.85-8.965-84.026-6.0125-84.373-5.9795l-60.266 10.454c0.2647-4.8299 0.3308-9.8086 0.2316-16.532"/><path d="m526.24 316c14.878-34.76 26.672-86.54 24.546-125.96-0.2068-3.6638-1.9022-6.6576-4.8547-8.1876-2.3074-1.1992-5.6403-2.2991-9.1386-0.5045-29.26-8.5763-59.637-9.271-86.391-2.2082-32.378 8.5432-55.948 29.054-67.27 57.809l-0.5293 1.2571-80.387 177.04c-1.3728 3.6472-2.3901 7.2365-0.703 10.057 1.8939 3.1841 5.6983 5.4584 9.056 5.4171 2.1172-0.0331 3.796-0.9925 4.7306-2.6713 0.0661-0.1241 81.255-179.23 81.255-179.23l0.918-2.018 3.3991-7.6665 1.2157-2.3984c23.43-44.42 80.817-51.698 128.77-38.713 0.306 0.1736 2.3405 1.4969 2.357 5.1358-0.0165 0.2564-1.6292 34.322-6.5004 51.573l-0.0331 0.1654-0.0165 0.1572c-0.0414 0.4879-0.3474 2.0096-1.1744 2.5885-0.1571 0.1158-0.612 0.4384-1.7368 0.1324-30.823-7.3358-82.173-14.448-119.79-18.269 0 0-10.933-1.8608-24.77-0.6037-5.5493 0.3226-11.967 0.9511-19.336 2.1337-0.0165 0-143.8 23.926-143.8 23.926-2.1338 0.273-3.9119 1.6954-4.8133 3.8705-1.2406 3.06-0.6451 6.9471 1.5052 9.7093 2.2743 2.9112 9.6596 2.5059 13.935 1.8774 0.033 0 137.1-21.825 137.1-21.825 21.461-3.2006 29.492-1.5465 29.583-1.53 44.014 3.1427 81.611 9.9161 117.96 16.474l7.3771 1.3233c1.6623 0.612 2.1586 2.5058 1.406 4.7636-0.0579 0.182-7.0794 21.66-10.363 29.93l-0.0248 0.0827-0.0248 0.0827c0 0.0166-0.5624 1.8195-2.1007 2.63-0.9841 0.521-2.2412 0.5376-3.7216 0.0331l-0.1075-0.0331-0.1241-0.0166c-31.733-5.7643-87.896-13.307-123.28-15.424-0.1571-0.0165-14.688-0.7443-25.845 0.0165-19.195 1.0834-41.699 5.2847-62.904 28.301-0.1572 0.1406-23.074 21.949-32.213 31.981l-0.0579 0.0662-0.0579 0.0744c-3.5066 4.8795-1.6127 10.503 1.96 13.315 3.548 2.7953 7.9726 2.4728 10.768-0.7774 3.6141-4.8464 25.646-27.507 37.506-38.573 11.959-9.304 21.676-14.762 38.424-16.656 9.2709-1.0917 22.057-0.9511 22.189-0.9511 27.954 0.794 106.44 10.048 131.17 14.911l1.6044 0.5293c0.5293 1.2157 1.6706 2.2826 3.3247 3.0269 3.1675 1.4308 8.386 1.7699 12.372-0.9097"/><path d="m222.45 306.18-1.1247-2.2165s-18.542-27.614-18.509-27.573c-1.6044-2.2413-1.8443-4.7968-0.7195-7.1704 1.5217-3.2088 5.3343-5.632 9.2792-5.8967 3.2089-0.2233 5.9712 1.0834 7.5921 3.5562l18.104 26.796 0.3308 0.5872-1.4308 0.7112-9.2048 5.905s-4.3171 3.4239-4.3171 5.3013"/><path d="m281.88 314.86-32.287 21.155c-8.9484 4.8464-13.29-1.9187-13.596-2.5307-1.9353-3.8953-10.371-17.707-11.868-19.22-1.5217-1.5217-6.2688-11.016 5.1855-17.5 9.1469-5.1854 33.404-20.237 33.404-20.237 10.652-6.7651 18.856 2.9607 21.445 6.4094 2.0262 2.6879 8.2124 11.016 7.9974 18.145-0.2068 6.947-5.5328 10.644-10.28 13.778"/><path d="m242.28 336.79c1.5217 2.4232 6.5831 10.503 15.995 25.762 0 0-0.091-2.2412 3.6802-6.2275 3.7713-3.978 8.8658-9.0477 8.8658-9.0477-6.1862-9.9987-9.8499-15.928-11.876-19.212l-16.665 8.7251"/><path d="m462.26 465.63c-3.6389 0.521-6.9305 0.794-10.388 1.1165l-4.7471 0.2398 1.2653-4.2261 3.027-12.587 1.8773-0.2729 3.4818-0.4218c7.9146-0.5624 13.249-2.2247 13.249-2.2247l1.2901-0.2978c6.1531-0.2067 8.2786 3.7713 8.5763 7.2283 0.3474 3.9035-1.8939 8.4935-6.1448 9.1055l0.2977-0.0661c-1.6375 0.5541-4.2426 1.1661-8.0139 1.96l-15.92 35.132-2.3074-1.2653 14.456-33.42"/><path d="m404.06 497.74s-5.417-2.1007-2.4397-12.033c3.978-13.629 7.2613-23.909 7.2613-23.909s10.346 2.7292 13.919 1.2653c0 0 7.5425-2.7292 4.1931-9.6431 0 0-0.6286-3.5562-12.166-5.0283 0 0 1.0503-7.9808 6.5004-8.3944 4.8216-0.3721 13.828-0.5541 18.038 0 3.1427 0.4136 18.873 2.5142 9.8499 24.53l-13.828 30.633s-2.663 10.751-12.935 10.545c0 0-2.0345-0.0992-3.2585-0.2729 0 0-12.397-6.12-15.135-7.6913"/></g><g fill="#16243e"><path d="m417.94 491.94 3.6141 1.1496c-0.2481 0.6616-0.5541 1.4142-0.5541 1.4142-1.3398 7.6583 1.8939 7.2696 1.8939 7.2696 4.0359 1.2157 9.8664-4.8464 9.4529-13.968 2.2495-2.2495 3.8788-4.3585 5.0366-9.5026 1.3067-5.8305-2.8863-8.9649-7.0876-4.1351-1.7368 2.0097-2.5721 3.8457-3.2916 6.2192l-0.1075 0.3722c-0.7278 3.0517-0.3722 5.5742-0.3722 5.5742-2.9359 2.5886-3.9366 4.8463-4.8711 6.6575l-3.8623-0.6451 5.8554-12.281 1.4721-3.1427 5.4584-11.008s4.0607-8.0222 4.2674-12.29l14.663-0.2729s0.2068 4.4742-2.9442 12.438c-2.2578 5.7313-9.0642 26.796-11.297 30.964-3.8953 7.2696-7.6334 9.3371-12.447 9.4364-0.2068 0-7.7741 0-6.7899-7.6914 0.2729-2.3735 1.2819-5.2351 1.9104-6.5583"/><path d="m427.38 488.47c1.5382 2.4728 0.0909 9.7589-4.896 9.8168-0.4963-3.8043 2.754-8.4605 4.896-9.8168"/><path d="m432.54 474.86c2.324 3.5149-0.124 8.444-4.0607 9.2545 0.2481-3.9946 1.53-6.7569 4.0607-9.2545"/><path d="m413.88 500.65c0.0248 0.0496-0.306-0.1489-0.306-0.1489l-3.7382-1.9683c-2.7209-3.2502 1.3646-13.944 1.3646-13.944s3.1427-9.8499 7.129-19.708c10.487 2.7209 17.963-16.565-0.4962-17.955 1.8195-7.6913 19.154-4.4742 12.447 12.918-1.3481 3.5066-12.96 27.556-15.168 33.552-1.4142 3.8291-1.4639 4.5073-1.3977 5.8305 0 0-0.0414 1.0007 0.1654 1.4225"/><path d="m415.46 464.32-7.2034 20.064s-2.9277 7.7492-1.3977 12.761l-3.4238-1.6458s-1.6045-3.2833 0.6285-10.065c2.9442-8.9153 7.6169-21.809 7.6169-21.809l3.7795 0.6947"/><path d="m447.41 448.52s-3.2916-6.2193-17.268-5.2351c0 0 3.7795 2.5886 3.9862 5.3178 0 0 8.8079 0 13.282-0.0827"/><path d="m267.9 372.43c10.172 16.508 19.452 31.171 22.619 35.893 3.2998 5.4418 11.206 14.746 10.148 13.514 0 0-0.2151-2.7788 1.2736-5.7478 1.1826-2.3736 3.581-8.3364 3.581-8.3364 0.397 0.4052-5.3757-6.7982-8.6093-11.851l-19.452-31.89-5.2351 5.7396s-2.233 2.6795-4.3253 2.6795"/><path d="m536.73 334.52s-16.954-1.6954-22.429-1.2653c0 0 2.3074 0 4.6065-1.8857 0 0 14.688 1.8857 17.822 3.151"/><path d="m476.62 282.8-52.078 8.7665s0.033-4.2922-0.2068-11.107l57.238-9.5522s-3.9035 8.8905-4.9539 11.893"/><path d="m520.03 280.7s-10.139-0.1489-24.19 0.0662l4.193-9.6432 15.871 3.151s5.8058 0.2067 4.1269 6.426"/><path d="m474.67 324.81s-34.28 81.123-36.025 85.3c0 0-6.1118-0.091-10.115-5.5328l34.669-81.173s6.0125 0.4218 11.471 1.4059"/><path d="m481.45 308.17s-9.3619-1.53-11.041-1.745c0 0 13.588-34.131 15.796-38.308 0 0 9.2214 1.3233 11.115 2.1586 0 0-8.7665 18.079-15.871 37.894"/><path d="m531.85 227.63s-16.16 10.917-26.217 26.002c0 0-9.5109-2.0924-11.818-2.5142 0 0 13.423-24.521 38.796-36.894 0 0-0.3474 9.6432-0.7609 13.406"/><path d="m551.07 217.99s0.6286-9.4364 0.4218-11.744c0 0 6.2854-1.8939 9.8499-1.6788 0 0 0.2068 2.9359-7.9643 5.4583 0 0 35.231-3.3577-1.8856-11.322 0 0 0.2068-7.3522-0.8436-11.95 0 0 19.228 5.0366 25.166 6.6989 6.7154 1.8939 19.708 7.9643 6.5004 16.574 0 0 2.9359-8.7995-29.368-13.001 0 0 19.294 2.7292 24.538 9.2213 0 0 5.0448 4.2013-5.2434 6.5087-9.9905 2.2495-11.529 1.0338-21.172 5.2351"/><path d="m377.41 256.39c-3.7795 7.1207-7.9395 16.813-18.592 40.119 7.2696-0.8435 12.72-0.0661 12.72-0.0661l18.517-39.78s-4.6727-0.9097-12.645-0.2729"/><path d="m351.69 314.68c-21.784 47.637-47.298 103.41-47.331 103.48-1.0586 1.9104-1.0503 3.7795 0.0248 5.5907 1.4308 2.3901 4.2344 3.7795 6.12 3.7629 1.3481-0.0331 2.5638-0.4383 2.6299-0.5541l51.135-113.11s-7.0793-0.306-12.579 0.8353"/><path d="m523.95 273.31c0.7278 0.7444-1.0999 7.3523-1.0999 7.3523-0.0827 0.2233-6.6907 21.809-9.9905 30.145l0.0496-0.1654c-0.091 0.3226-1.53 4.9457-3.0352 5.6404h-1.0999s-1.9518-0.4053-4.3419-0.9263c-31.783-5.7809-89.856-13.886-124-15.937 2.9442 0.1571-13.811-0.6037-26.845 0.306-18.542 1.0338-39.135 5.6486-59.604 27.862-0.2316 0.2068-22.9 21.792-32.014 31.774-2.2826 3.2089-1.0669 6.7816 1.3315 8.6755 1.6871 1.3233 5.0283 1.9353 6.9139-0.2481 3.9863-5.3591 26.912-29.012 38.225-39.59 12.554-9.7754 21.569-14.895 39.11-16.863 9.4777-1.133 20.676-0.9676 21.23-0.9841 23.099-0.5955 107.25 9.7093 131.99 14.572 3.1427 0.4135 5.0201 1.1578 5.0201 1.1578l-0.0414 0.4714 0.1324 1.0504c0.0496 0.3721 1.4803 1.5052 2.663 2.0345 2.2826 1.0337 5.3178 1.0668 7.8485-1.0008 17.64-32.519 35.074-92.883 31.03-138.46-0.215-2.4232-1.1909-4.3833-3.0434-5.3509 0 0-4.0442-1.8194-8.1297 0.2729 0 0 0.1571-0.3225-4.2509-1.7863-27.143-6.9967-56.23-7.4019-80.751-0.9263-22.23 5.8636-48.538 18.74-63.127 51.077 0 0-1.8856 3.5066-2.3074 5.1854 0 0 7.468-0.1488 12.364 0.273 22.677-48.522 81.09-57.569 131.17-44.775 0 0 4.59 0.794 5.8554 2.1834 1.0503 2.4066 0.9345 8.5928 0.9345 8.5928-0.0662 1.4059-1.2074 31.286-6.7237 51.168-0.488 2.0841-1.1579 3.3826-1.7037 3.8788 0 0-1.5052 0.612-2.572 0.6616-2.6796 0.0993-6.2028-0.6451-6.2028-0.6451-30.873-7.3688-78.65-13.439-116.35-17.252-0.0661-0.0166-2.9525-0.4549-8.0552-0.6782l-4.069-0.0993c-7.1621-0.0744-17.293 0.3722-30.079 2.3902 0 0-140.64 22.859-140.07 22.892l7.526 10.288s135.39-22.239 135.42-22.239c20.643-3.0848 30.244-1.6044 30.492-1.5548 36.488 2.018 103.97 12.033 120.27 16.367 0 0 8.8161 2.1006 9.9409 3.2088"/><path d="m253.76 285.64-23.14 14.192-0.0662 0.0496-0.0661 0.0331c-0.0497 0.0165-3.8623 1.7781-4.8299 5.3509-0.6451 2.4066 0.1158 5.1358 2.2661 8.1545 4.8712 6.8808 7.2613 10.809 8.3116 12.629 1.0421-2.3075 4.2923-4.1931 4.2923-4.1931 8.2123-5.1441 25.481-15.589 30.451-18.352 5.3426-2.9773 6.4177-4.3915 6.4177-4.3915 6.1945-5.8802 5.0284-11.727 1.9932-15.804-3.4239-4.5983-10.007-7.5425-15.498-3.887l-7.4515 4.5817 1.4886 2.8781c0.6947-1.2902 1.8691-2.5225 3.1923-3.3082 9.7342-5.7726 15.085 1.5797 15.135 1.6624 0.0497 0.0496 4.4743 5.8305-1.9931 12.157-0.1654 0.1654-4.1186 3.6885-9.486 3.0269-0.5624 2.1916-3.3825 8.4439-11.438 8.171h-0.0579l-0.0579-0.0165c-6.4508-0.4384-7.956-3.9284-8.692-5.9298 0 0-1.6541-4.4246 0.7774-8.2372 0.0413-0.0827 3.184-6.2523 11.421-4.9704 0 0 0.4466-1.315 1.4391-3.0435l-1.3646-2.5803-3.0435 1.8277"/><path d="m256.78 324.37s18.856-12.546 23.694-15.796c5.5411-3.7134 7.6914-8.4605 6.8147-13.216 0 0 4.6893 7.8981-3.978 14.473-4.8381 3.672-16.028 10.991-24.53 16.483"/><path d="m254.26 322.92c-4.6066-1.2571-14.357 3.8457-14.002 10.214-2.4562-2.1172-2.9194-6.1696 1.7368-9.0808 8.1297-5.0862 34.677-20.725 34.677-20.725s7.1621-4.5404 7.4763-10.305c2.1669 6.1531-1.4803 10.71-5.1937 13.356l-24.695 16.54"/><path d="m274.53 286.38c3.6472 5.3343-2.0262 12.604-9.304 12.381-0.3722-2.6052-1.9849-4.5404-2.9773-5.2682 1.0668-5.6403 4.6313-8.1379 10.966-7.3192l1.315 0.2068"/><path d="m272.74 284.57c-3.5728-0.5871-10.958-0.3556-12.132 8.138-5.3674-1.9849-14.936-0.4714-14.101 10.015-2.8615-7.7244 4.7885-13.183 11.554-11.115 1.5879-7.9808 10.206-9.8829 14.68-7.038"/><path d="m552.06 324.74c3.8208 0.7112 4.284 4.1847 4.1434 5.1027-0.3722 2.4397-1.6623 4.2178-4.6727 4.7223 0 0-3.9449-0.4879-6.0373-1.1165-6.7403-1.9848-16.45-3.9283-24.033-5.2185 2.6134-5.0862 3.2502-7.1538 4.1517-9.1386-0.3557-0.2151 3.5975 0.5623 7.8567 1.3563 6.8891 1.2901 13.778 2.9028 17.21 3.9863l1.3812 0.306"/><path d="m538.78 281.75s16.35 3.151 21.8 4.3915c0 0 11.537 3.9946 14.043-4.8133 0 0 2.5224-7.6252-3.978-10.338 0 0-4.8216-2.4563-27.044-6.4425 0 0-1.8195 6.9304-2.663 10.478 0 0 18.807 3.9284 26.142 6.6576 0 0-0.1323 2.4397-3.7713 2.3735 0 0-19.08-4.8298-23.488-5.2516"/><path d="m567.99 323.06c14.746-41.318 26.208-97.953 22.917-117.51 0 2.5224-3.9118 7.2034-10.619 8.5928 0 0 0.1406 2.5886-0.0744 5.7313-1.6789 17.062-7.8237 48.092-7.8237 48.092 9.5025 3.0849 8.6672 22.52-7.5508 22.371-3.9201 17.624-9.577 31.675-9.577 31.675 8.8079 4.8133 4.681 12.926-0.1405 14.39 0 0 8.7995 1.8939 12.868-13.34"/><path d="m452.64 339.98s-18.294 6.2358-37.249 32.337c0 0-1.3481-7.1372-0.7195-16.052 0 0 16.846-21.321 43.634-30.129l-5.6651 13.844"/><path d="m505.92 332.42s-13.216-1.4556-31.46 1.0503l3.5645-8.171s16.987 1.8856 24.538 3.7795c0 0 0.2068 2.9194 3.3577 3.3412"/><path d="m223.4 301.58-17.607-26.878c-0.9097-1.2736-1.0503-2.5472-0.4383-3.8456 0.9842-2.0759 3.763-3.7878 6.4591-3.9698 1.4059-0.0992 3.3495 0.182 4.5735 2.0676 0.0165 0.0331 13.266 19.708 16.962 25.183 0 0-8.8409 5.3178-9.9492 7.4432"/><path d="m313.7 430.82c3.6472 2.4563 8.3861 4.772 14.787 7.4516 18.6 7.7823 57.139 17.698 90.452 23.082 3.5645 0.4962 6.5087-1.9601 6.8891-4.5073 0.3309-2.2661-0.827-4.9291-5.1771-5.6073l-2.0428-0.4052c-26.663-5.3261-56.891-11.372-82.149-21.627-7.9477-2.878-12.19-5.2847-16.648-8.6589 0 0-2.4563 5.3177-3.333 6.8643-1.4142 2.4893-1.6127 2.7457-2.7788 3.4073"/><path d="m258.88 357.55c-11.107-18.013-14.035-22.892-14.233-23.215l-0.0661-0.1075-0.0745-0.0993c-1.5879-1.8773 1.0338-4.5735 1.5797-5.1027 2.3818-2.2992 6.2027-3.763 8.0139-2.3323l13.497 21.387s-5.3674 4.8463-8.7168 9.4694"/><path d="m452.29 453.3c5.2516-0.4962 15.532-1.4886 19.46-2.3405 4.3418 0 5.111 2.8698 5.2268 4.1352 0.1985 2.3404-1.0917 5.1854-3.2916 5.4914l-0.1406 0.0331-0.1489 0.0496c-3.093 1.0338-17.988 2.7457-23.818 3.3081 0 0 2.7126-6.2854 2.7126-10.677"/><path d="m467.64 464.98c1.2571-0.2067 2.5555-0.2398 7.5839-1.7119 6.6079-1.9187 7.7575-16.764-4.8216-15.507-4.8298 0.6286-9.4446 1.0503-9.4446 1.0503 6.9222-10.487 32.51-4.408 20.345 14.878l-22.437 40.475-8.7003-4.0194 15.689-34.95"/><path d="m462.43 465.79-14.746 33.271-4.1931-1.6789 10.545-30.691s6.302-0.4797 8.3944-0.9015"/><path d="m257.77 296.9c-0.0331 0.4714 0.0992 1.4721 0.0992 1.4721-1.0089 0.0744-1.9021 0.4135-2.8863 0.8353 0.091 2.7457 0.6699 5.2516 1.7864 7.3026 3.5975-1.1496 6.2192-4.3088 6.029-7.559l0.4218-0.0496c-0.2895-2.3405-2.7871-5.5577-7.8568-4.7803-0.2646 1.0173-0.2977 2.0511-0.3556 3.1841 0.8353-0.2895 1.7616-0.4383 2.7623-0.4052"/><path d="m248.36 304.96c1.6375 1.3563 2.9277 1.9683 5.3592 1.836-1.0338-1.5962-1.4225-3.9863-1.5714-6.4426-0.4962 0.4218-0.8932 0.4549-1.3894 0.9842l-0.008-1.7616c0.3143-0.5624 0.8188-0.7443 1.4639-1.1744 0.0248-1.5382 0.0909-2.7043 0.3804-3.7381-0.3308 0.1323-0.521 0.4052-0.8601 0.5541-5.0531 2.845-3.3743 9.7424-3.3743 9.7424"/></g></g></g><g fill="#024"><path d="m233.96 448.9-3.6521-0.76874 4.6956-0.26081c9.7324-0.5406 9.7574-0.56039 20.356-16.106 9.0464-13.269 9.9043-14.952 9.9043-19.434 0-14.705-12.041-29.518-27.58-33.93-14.981-4.2537-29.739 2.001-36.93 15.652-2.4492 4.6491-2.784 6.4765-2.7885 15.218-0.005 9.1241 0.27434 10.502 3.4182 16.888 2.1941 4.4568 5.3255 8.6638 8.7214 11.717 6.0893 5.4748 5.865 5.91-1.0024 1.9458-23.438-13.529-41.414-35.884-62.138-77.271-10.837-21.642-16.213-41.806-18.637-69.904-3.2123-37.23 6.4236-76.508 25.397-103.53 12.784-18.203 27.945-30.773 50.496-41.864 25.591-12.586 46.259-17.657 71.966-17.657 33.864 0 66.141 11.192 95.072 32.966 20.183 15.19 61.459 60.078 58.062 63.143-0.41539 0.37476-2.6335 1.264-4.9291 1.9761-11.08 3.437-27.847 11.131-36.567 16.78-15.497 10.039-25.093 21.268-43.777 51.226l-3.0403 4.8748-2.655-1.8743c-5.0795-3.5858-17.486-9.3065-24.136-11.129-9.1618-2.5109-28.127-2.5052-37.996 0.0116-12.173 3.1043-25.209 10.008-33.644 17.818-7.4597 6.9065-15.598 16.876-14.595 17.879 0.29214 0.29215 3.3878-0.20907 6.8794-1.1138 9.9391-2.5755 25.939-4.7199 35.267-4.7266 14.836-0.0108 26.674 5.1902 36.601 16.081 8.6881 9.5311 8.6646 9.2701 1.8249 20.275-3.2646 5.2526-6.5292 9.5501-7.2548 9.5501-2.8008 0-6.7368 4.4693-12.594 14.3-3.3494 5.6219-7.4114 12.053-9.0266 14.291-1.9993 2.7705-2.9368 5.344-2.9368 8.0622 0 3.3832-2.0051 6.971-13.136 23.504-11.412 16.951-13.083 19.967-12.731 22.981l0.405 3.4691-6.8338-0.13736c-3.7586-0.0755-8.4773-0.4833-10.486-0.9061z" transform="matrix(.8 0 0 -.8 .49622 628.64)"/><path d="m285.68 563.65c-29.483-3.3717-64.516-15.314-84.704-28.874-3.384-2.273-10.02-6.742-14.746-9.9311-4.7264-3.189-11.77-7.1213-15.652-8.7383-6.3144-2.6301-8.3235-2.9449-19.058-2.9865-10.341-0.0401-13.37 0.37111-21.913 2.9748-16.993 5.179-28.101 3.9542-29.888-3.2953-0.3871-1.571-5.0164-9.4302-10.287-17.465-20.889-31.86-33.378-58.09-45.703-96.01-8.881-27.32-14.018-52.23-16.457-79.82-1.671-18.9-0.681-50.72 2.126-68.35 13.594-85.35 65.502-154.92 145.08-194.45 30.958-15.378 60.303-24.276 97.564-29.583 14.597-2.0792 59.617-1.7439 75.129 0.55954 71.415 10.604 132.45 45.662 174.78 100.39 13.831 17.882 26.719 40.444 17.182 30.08l-2.7512-2.9899 2.5745 3.6521c1.416 2.0087 3.3388 5.1637 4.273 7.0112 2.6576 5.2557 16.263 44.19 16.966 48.553l0.6309 3.913h-9.0028c-8.5011 0-9.0028-0.12433-9.0028-2.2311 0-1.2271-4.9916-12.763-11.092-25.635-12.555-26.491-13.768-31.005-9.2758-34.539l2.8215-2.2194-2.379-3.4264c-22.73-32.73-68.08-67.008-113.74-85.95-34.19-14.185-63.69-19.126-106.32-17.809-23.393 0.72278-35.132 2.2991-56.347 7.5664-68.9 17.107-121.88 55.783-148.35 108.29-23.405 46.42-31.495 110.4-20.535 162.4 7.5153 35.652 21.762 68.096 45.13 102.78 19.114 28.37 37.309 47.324 62.111 64.703l8.426 5.9043v5.1458c0 4.4059 0.5141 5.7062 3.5755 9.0434 3.4015 3.708 3.8679 3.8875 9.5864 3.6887 4.2849-0.14896 6.8872-0.85681 9.0626-2.4652l3.0517-2.2562 7.4486 2.1423c13.834 3.9788 19.833 4.7933 34.579 4.6949 11.185-0.0746 16.473-0.59737 22.565-2.2304 9.611-2.5765 24.147-9.7284 32.922-16.197 5.4557-4.0223 6.635-4.5198 7.6929-3.2451 2.1616 2.6045 8.578 1.8318 13.321-1.6043 5.6493-4.0923 7.8742-8.4839 7.2234-14.258-0.44212-3.9225-0.0869-4.9863 2.7679-8.2888l3.2751-3.7888 21.116 3.473 21.116 3.473v2.8479c0 1.5664-1.1572 6.5112-2.5717 10.989-12.126 38.384-56.808 62.355-107.73 57.795-27.401-2.4534-50.808-9.7749-82.215-25.715-22.456-11.398-38.416-18.231-42.39-18.149-1.5968 0.0329-0.2508 0.91022 3.7815 2.4649 8.4978 3.2764 24.25 11.221 34.715 17.507 19.717 11.845 46.653 22.68 67.428 27.12 8.6212 1.8429 14.18 2.2672 30.378 2.3189 22.506 0.0718 31.717-1.3039 48.219-7.2019 30.811-11.012 52.239-33.938 56.811-60.782 1.3465-7.9055 1.4675-8.0218 7.1569-6.884l3.4058 0.68115-0.66163 9.321c-2.5492 35.914-33.997 66.896-75.471 74.353-11.2 2.0138-36.46 2.8284-47.732 1.5393zm260.24-369.29c1.8183-3.3975 1.2347-6.6628-2.572-14.39-2.0087-4.0773-3.6521-8.5579-3.6521-9.9568 0-3.2979-3.9672-9.1459-7.5796-11.173-3.9071-2.1925-6.4061-0.49415-6.839 4.6478-0.39904 4.7393 1.1766 8.8933 4.5896 12.1 1.6695 1.5684 2.5248 3.5244 2.5248 5.7742 0 9.8493 10.047 19.503 13.528 12.998z" transform="matrix(.8 0 0 -.8 .49622 628.64)"/><path d="m294.07 380.26c-0.0636 0.15876-2.0414 3.1074-4.3945 6.5508-8.4173 12.318-9.444 16.273-5.3711 20.688 2.1149 2.2921 44.994 28.868 48.781 30.234 2.263 0.81616 2.2527 0.81761 6.4199-0.33985 2.2248-0.61795 5.372-2.7881 7.5644-5.2148 3.0742-3.4028 3.7559-4.9637 3.7559-8.6074 0-7.929-2.9296-10.706-25.521-24.199-11.202-6.6903-22.788-13.792-25.744-15.781-2.9563-1.9895-5.4266-3.4888-5.4902-3.3301zm21.615 19.662c0.45607-0.0189 0.91403-0.019 1.373 0 4.7213 0.19561 9.4733 2.3792 11.668 6.2031 1.2301 2.1433 3.0275 3.3252 6.3281 4.1562 2.7519 0.69294 6.0191 2.5679 8.1035 4.6524 2.9085 2.9085 3.4885 4.2532 3.4609 8.0332-0.0354 4.8412-1.046 6.7101-5.1562 9.543-5.4289 3.7418-16.457 1.1247-19.764-4.6894-1.05-1.8464-2.5266-2.914-4.0371-2.918-4.2303-0.0117-9.5182-2.9231-11.74-6.4648-2.9142-4.645-2.2838-11.523 1.3926-15.199 2.1157-2.1157 5.1786-3.1842 8.3711-3.3164zm-1.6738 3.0625c-3.5378 0-5.1621 6.0898-2.8008 10.502 1.2831 2.3974 3.0938 2.6626 3.0938 0.45313 0-0.86085-0.46907-1.5645-1.043-1.5645-1.2648 0-1.403-2.8153-0.16211-3.3047 1.6108-0.63522 2.4278-6.0859 0.91211-6.0859zm6.8984 0.61719c-0.85654 0.0658-1.2239 1.3213-1.8867 4.4102-0.63063 2.9388-0.42238 3.5466 1.3711 4.0156 1.3211 0.34548 1.8945 1.1245 1.5293 2.0762-0.3213 0.83729-1.2288 1.2746-2.0156 0.97265-0.81156-0.31141-1.4297 0.11501-1.4297 0.98438 0 2.8844 6.6353 1.5986 8.3574-1.6191 1.3739-2.5671-0.58376-7.7801-3.6856-9.8125-1.0354-0.67843-1.7263-1.0668-2.2402-1.0273zm-42.617 6.8945c-1.0449 1.1248-21.679 32.752-22.123 33.91-0.64084 1.67 2.4136 5.3963 5.4395 6.6348 4.9578 2.0292 6.0467 1.0132 17.764-16.541l10.809-16.191-5.7988-4.0625c-3.1896-2.2343-5.9297-3.9224-6.0898-3.75zm53.848 1.9199c-0.24662-0.0196-0.41101 0.0284-0.4707 0.1582-0.0815 0.17709-1.0354 2.0675-2.1191 4.1992-1.8648 3.6681-1.8747 4.0191-0.19922 6.5762 0.9737 1.486 2.7988 3.1164 4.0566 3.623 8.3469 3.3622 13.175-2.0756 7.8516-8.8438-1.6621-2.113-7.3927-5.5759-9.1192-5.7129z" transform="matrix(.8 0 0 -.8 .49622 628.64)"/><path d="m324.81 426.32c-2.157-2.7421-2.864-5.606-1.3801-5.5897 0.43043 0.005 1.8001 1.883 3.0437 4.1738 2.5627 4.7208 1.5883 5.55-1.6636 1.4159z" transform="matrix(.8 0 0 -.8 .49622 628.64)"/><path d="m353.59 414.79c-1.3011-3.8442-6.5455-7.6083-30.647-21.996-12.754-7.6139-23.697-14.792-24.317-15.951-0.62045-1.1593-0.81083-3.1075-0.42306-4.3292 0.65514-2.0642 0.80135-1.9923 2.0663 1.0162 1.7199 4.0905 8.0161 8.287 13.806 9.202 6.5817 1.0401 36.311 21.379 39.088 26.741 1.1042 2.1322 1.8258 4.7148 1.6036 5.739-0.3485 1.6065-0.51015 1.5486-1.1769-0.42122z" transform="matrix(.8 0 0 -.8 .49622 628.64)"/><path d="m358.25 409.41c-0.29734-3.4492-5.2878-7.8546-20.375-17.986-8.9028-5.9785-16.205-11.222-16.227-11.653-0.10225-2.0019 3.6952 0.0798 18.168 9.9596 15.563 10.624 20.088 15.196 19.037 19.232-0.26512 1.0182-0.53651 1.2194-0.60309 0.44711z" transform="matrix(.8 0 0 -.8 .49622 628.64)"/><path d="m310.54 376.29c-1.7861-0.88115-3.8404-2.7101-4.5651-4.0643-1.2053-2.2521-0.62442-3.6049 6.8069-15.852 4.4686-7.3645 8.6531-13.977 9.299-14.695 0.91509-1.0172 2.2914-0.17123 6.2343 3.8319l5.0599 5.1372-8.6195 13.646c-4.7408 7.5054-9.148 13.635-9.7938 13.622-0.64583-0.0131-2.6356-0.74471-4.4216-1.6259z" transform="matrix(.8 0 0 -.8 .49622 628.64)"/><path d="m587.69 561.97c-39.137-4.835-70.581-21.035-89.462-46.092-5.0798-6.7414-15.928-25.645-15.928-27.755 0-0.33926 3.2438-0.61684 7.2085-0.61684h7.2085l3.8689 7.0434c14.947 27.211 41.86 45.39 77.92 52.632 15.434 3.0997 45.544 3.3572 62.401 0.53375 13.547-2.2691 25.987-5.4278 27.532-6.9904 3.0823-3.1186-0.55294-48.194-5.623-69.723-1.9015-8.0741-2.712-9.914-4.783-10.858-1.9819-0.90301-7.046-0.24742-24.679 3.1948-36.474 7.1205-60.69 10.733-109.84 16.388-29.977 3.4489-49.245 3.5922-70.174 0.52186-11.196-1.6425-169.02-27.149-176.35-28.5-0.80938-0.14923 0.32413-2.546 2.952-6.2422 2.3462-3.3 4.4358-5.9999 4.6434-5.9999s38.91 6.326 86.004 14.058c93.834 15.405 104.08 16.753 119.54 15.726 51.207-3.4038 144.94-16.988 161.48-23.402 4.0096-1.5555 3.7821-4.4375-1.7576-22.27-6.1943-19.94-10.942-32.145-12.777-32.85-0.82977-0.31841-10.284 0.89086-21.008 2.6873-39.798 6.6662-90.738 13.326-125.41 16.395-24.043 2.1286-53.143 1.4768-67.303-1.5076-24.461-5.1553-35.179-11.918-64.658-40.797-34.918-34.207-35.135-34.489-30.743-40.072 3.2357-4.1135 6.2651-3.5274 11.407 2.2071 13.841 15.436 46.996 47.708 53.955 52.519 9.1581 6.331 19.449 10.905 29.326 13.035 11.58 2.4969 37.236 3.6433 55.379 2.4746 34.896-2.2478 100.04-9.7538 135.05-15.56 16.318-2.7063 17.965-3.1783 19.778-5.667 1.5464-2.1228 2.8659-2.7148 6.0513-2.7148 3.575 0 4.3745 0.47905 6.5306 3.913 8.3249 13.259 21.35 48.972 28.371 77.787 7.2398 29.715 10.333 55.251 9.7382 80.391-0.35075 14.824-0.47212 15.57-2.8429 17.489-1.8288 1.48-3.8756 1.9486-7.826 1.7917-2.9422-0.11683-8.2194 0.59328-11.727 1.578-14.305 4.0158-23.727 5.1029-46.839 5.4042-12.626 0.1646-24.6 0.0963-26.608-0.15189z" transform="matrix(.8 0 0 -.8 .49622 628.64)"/><path d="m341.8 325.41c-2.2768-2.5017-4.7563-4.7542-5.51-5.0054-1.4458-0.48193 23.876-41.579 33.085-53.697l4.8397-6.3683 3.2262 7.9335 3.2262 7.9335-4.3817 5.7628c-2.4099 3.1695-10.112 15.143-17.116 26.608-7.0037 11.465-12.846 20.966-12.982 21.113-0.1365 0.14735-2.111-1.779-4.3878-4.2807z" transform="matrix(.8 0 0 -.8 .49622 628.64)"/><path d="m437.05 387.07c-1.3443-3.013-15.008-32.947-30.363-66.521-26.312-57.531-27.835-61.191-26.473-63.626 2.0484-3.6602 6.6304-6.0705 8.8634-4.6624 1.4699 0.92688 63.985 137.19 64.002 139.5 0.003 0.43043-3.0521 0.7826-6.7897 0.7826h-6.7957l-2.4442-5.4782z" transform="matrix(.8 0 0 -.8 .49622 628.64)"/><path d="m378.81 363.6c-0.85658-1.0043-2.1534-4.6434-2.8818-8.0868-2.0109-9.5059-6.8493-21.263-12.177-29.591l-4.7916-7.4893 9.9814-15.894c5.4898-8.7418 10.914-17.278 12.055-18.97l2.0735-3.0757 1.0056 2.554c0.55306 1.4047 2.389 5.5655 4.0798 9.2461l3.0742 6.6921-3.4127 7.3946c-6.3016 13.654-7.2504 18.889-7.2504 40.003 0 10.474-0.0446 19.043-0.0991 19.043-0.0545-0.00016-0.79998-0.82201-1.6566-1.8264z" transform="matrix(.8 0 0 -.8 .49622 628.64)"/><path d="m399.71 453.42c-1.1642-0.30879-2.3199-2.9071-3.5431-7.9658-3.1565-13.054-13.277-40.438-14.494-39.22-0.23878 0.23879 1.1651 6.0631 3.1197 12.943 4.1131 14.477 8.0563 31.88 7.3772 32.559-0.44778 0.44779-27.953-3.7076-28.56-4.3148-0.16202-0.16202 1.564-4.9428 3.8356-10.624 4.5854-11.468 8.0981-24.152 9.882-35.683l1.178-7.6147 5.6069 3.9626 5.6069 3.9626 6.1281 17.739c5.4853 15.878 7.5634 22.769 9.6757 32.087 0.56647 2.4986 0.34452 2.8539-1.7171 2.7485-1.3022-0.0666-3.1452-0.32727-4.0954-0.57932z" transform="matrix(.8 0 0 -.8 .49622 628.64)"/><path d="m558.77 371.73c-12.87-6.44-22.47-13.37-32.9-23.74l-8.0868-8.0377 0.10401-6.3087c0.0572-3.4698 0.41229-7.4052 0.78907-8.7454 0.63473-2.2578 1.0952-1.9313 6.2676 4.4439 9.8411 12.129 23.421 23.378 37.369 30.954 2.1084 1.1452 3.7294 3.4022 5.2462 7.3042 1.2072 3.1058 2.5256 6.4686 2.9297 7.4729 1.1043 2.7444-0.42357 2.3081-11.719-3.3464z" transform="matrix(.8 0 0 -.8 .49622 628.64)"/><path d="m557.22 330.75-21.532-50.374 2.157-2.3175c1.9357-2.0798 8.9049-5.2228 9.5525-4.3081 0.84546 1.194 44.518 105.52 44.262 105.74-0.17213 0.1439-3.1466 0.57053-6.61 0.94806l-6.297 0.68643-21.532-50.374z" transform="matrix(.8 0 0 -.8 .49622 628.64)"/><path d="m595.49 374.75c-1.0247-2.2723-1.672-4.3226-1.4384-4.5561 0.23354-0.23354 6.0591 0.0336 12.946 0.59369 6.8866 0.56008 14.551 0.72196 17.033 0.35976 4.2349-0.61814 4.445-0.53376 3.4238 1.3745-0.88108 1.6463-3.3275 2.3594-12.86 3.7484-6.4743 0.9434-13.002 1.9169-14.506 2.1633-2.3481 0.38462-2.9985-0.13639-4.598-3.6835z" transform="matrix(.8 0 0 -.8 .49622 628.64)"/><path d="m654.51 381.43c-1.1816-2.6713-1.9664-5.0389-1.7439-5.2614 0.22251-0.22251 5.9803-1.6124 12.795-3.0887 6.8148-1.4763 14.529-3.1738 17.143-3.7723 6.1928-1.418 10.166-0.39992 10.972 2.8112 1.1038 4.3979-1.021 6.4551-8.6454 8.3704-7.5923 1.9072-26.041 5.7977-27.493 5.7977-0.48387 0-1.8466-2.1856-3.0282-4.8568z" transform="matrix(.8 0 0 -.8 .49622 628.64)"/><path d="m565 440.65-34.695-5.7923v-6.6155c0-5.8042 0.22392-6.5513 1.8261-6.092 1.0043 0.28794 15.522 2.7683 32.261 5.512l30.435 4.9884 2.6778 6.7493c1.4728 3.7121 2.5682 6.8153 2.4342 6.8958-0.134 0.0806-15.856-2.46-34.939-5.6458z" transform="matrix(.8 0 0 -.8 .49622 628.64)"/><path d="m606.51 447.92c-1.6693-3.1192-17.772-42.997-17.772-44.011 0-0.45373 1.7608-1.1081 3.913-1.4541 2.1522-0.34602 4.8815-0.82371 6.0652-1.0615 1.7856-0.35875 2.48 0.4957 4.0766 5.0166 1.0584 2.9969 5.3557 13.414 9.5496 23.149 7.6978 17.869 7.9464 19.284 3.3953 19.327-0.93259 0.009-3.1197 0.30079-4.8602 0.6489-2.5469 0.50938-3.3994 0.19426-4.3673-1.6143z" transform="matrix(.8 0 0 -.8 .49622 628.64)"/><path d="m623.89 444.83c-0.26878-0.91748-1.2504-3.429-2.1813-5.5811l-1.6926-3.913h14.622c13.237 0 14.621 0.17307 14.607 1.8261-0.032 3.6608-2.0309 4.7098-13.341 7.0012-10.375 2.102-11.574 2.1686-12.014 0.66686z" transform="matrix(.8 0 0 -.8 .49622 628.64)"/><path d="m653.76 510.54c-10.197-6.8593-22.376-18.722-30.49-29.7-2.9242-3.956-5.3167-7.5144-5.3167-7.9076 0-0.69968 9.289-3.1603 11.93-3.1603 0.7351 0 4.18 3.4644 7.6552 7.6987 5.5763 6.7941 15.03 15.723 23.334 22.04 2.3739 1.8057 2.8317 3.1065 3.3971 9.652 0.38841 4.4968 0.25501 7.5651-0.32893 7.5651-0.5403 0-5.1218-2.7845-10.181-6.1877z" transform="matrix(.8 0 0 -.8 .49622 628.64)"/><path d="m474.31 464.84c-3.2016-0.3959-3.6074-1.0813-13.954-23.566-5.8613-12.737-10.853-23.663-11.092-24.281-0.28895-0.74533 2.063-1.0723 6.995-0.97259l7.4303 0.15029 11.288 24.19 11.288 24.19h-2.9388c-1.6164 0-3.5642 0.15689-4.3285 0.34864-0.76432 0.19176-2.8735 0.16515-4.6872-0.0591z" transform="matrix(.8 0 0 -.8 .49622 628.64)"/><path d="m688.86 544.46v-6.6996l3.3912-0.67761c6.4949-1.2978 16.285-4.8333 17.527-6.3295 2.5462-3.068-2.8962-5.8474-14.136-7.2189l-5.2173-0.63664 4.1429 2.1523c6.6796 3.4702 7.0371 4.5633 1.2488 3.8185-2.7736-0.35689-5.4736-0.91503-5.9999-1.2403-0.52632-0.32527-0.95693-3.4313-0.95693-6.9022 0-5.5985 0.20611-6.2268 1.8261-5.5658 1.0043 0.40979 7.4454 1.8816 14.314 3.2706 11.954 2.4178 17.251 4.4646 17.251 6.6663 0 3.4717-10.388 9.1077-22.211 12.051-9.5446 2.3759-8.2326 3.0206 1.8916 0.92943 14.815-3.0602 25.49-8.4193 25.568-12.836 0.0457-2.592 6.2302 4.5551 6.2302 7.2 0 2.7325-4.2221 6.931-8.9612 8.9111-3.5231 1.472-33.346 9.8073-35.09 9.8073-0.44978 0-0.81777-3.0148-0.81777-6.6996z" transform="matrix(.8 0 0 -.8 .49622 628.64)"/><path d="m735.52 523.24c-1.0213-1.1316-3.7213-2.8982-5.9999-3.9257-3.5324-1.5929-4.1436-2.3446-4.1477-5.101-0.006-4.2774-3.4618-27.613-6.934-46.827l-2.7867-15.42 2.7094-2.8402c5.3455-5.6036 6.0293-12.85 1.8595-19.707-2.0566-3.3818-7.7633-6.6094-11.697-6.6152-2.2324-0.003-2.72-1.0035-5.4683-11.217-1.6595-6.1675-4.3404-14.97-5.9575-19.561-2.8376-8.0564-2.8731-8.4023-1.0178-9.9129 4.3025-3.5031 5.4474-9.3092 2.6292-13.333-2.1375-3.0517-0.42221-2.9663 2.9362 0.14618 3.8216 3.5417 5.0762 6.4054 11.569 26.407 14.478 44.598 25.237 97.764 24.465 120.89-0.29305 8.7797-0.36214 9.004-2.1597 7.0124z" transform="matrix(.8 0 0 -.8 .49622 628.64)"/><path d="m678.97 452.81c-1.617-4.8811-2.4747-9.6921-1.8294-10.261 0.41901-0.36975 5.4574-1.7357 11.196-3.0355 20.089-4.5498 23.255-6.0317 18-8.4257-1.7959-0.81811-5.4079-0.32225-15.365 2.1093-14.495 3.5398-16.722 3.7843-16.722 1.8367 0-1.5657 26.036-7.0056 33.53-7.0056 5.4115 0 8.5807 2.5818 9.7043 7.9056 1.7151 8.1261-2.511 11.035-22.491 15.482-13.788 3.0689-15.422 3.2111-16.024 1.3945z" transform="matrix(.8 0 0 -.8 .49622 628.64)"/><path d="m567.51 201.14c-0.82663-0.82663-4.1633-9.3584-7.4148-18.959-5.8884-17.387-6.0846-19.114-2.1785-19.173 0.77717-0.0118 15.233 30.925 18.077 38.686 0.57108 1.5584-6.8568 1.0736-8.4842-0.55377z" transform="matrix(.8 0 0 -.8 .49622 628.64)"/><path d="m582.73 229.43c-1.8399-0.67372-3.9529-1.8464-4.6956-2.6058-1.1186-1.144-0.097-1.2624 5.9539-0.69024 9.0454 0.8553 12.49-0.34945 14.79-5.1732 1.47-3.0827 1.5424-4.2846 0.47301-7.8539-1.5027-5.0154-3.9266-6.7502-11.611-8.3101l-5.739-1.165-9.5992-21.447-9.5992-21.447 4.7536-2.1028c2.6145-1.1565 5.1273-1.7065 5.584-1.2223 0.96921 1.0276 24.624 43.472 28.596 51.31 4.8595 9.5897 3.1676 16.383-5.0043 20.094-4.8693 2.2112-9.0364 2.395-13.903 0.61321z" transform="matrix(.8 0 0 -.8 .49622 628.64)"/><path d="m575.2 219.96-9.8358-1.1435-1.292-5.739c-0.7106-3.1565-1.0878-5.9443-0.83825-6.1952 1.0076-1.013 26.854 3.0587 29.209 4.6012 1.65 1.0812 2.5062 2.632 2.5062 4.5398 0 5.7311-1.5895 6.048-19.749 3.9368z" transform="matrix(.8 0 0 -.8 .49622 628.64)"/><path d="m285.09 563.53c-11.709-1.2228-30.384-5.463-43.882-9.9637-16.398-5.4677-30.497-12.533-48.519-24.315-21.884-14.306-26.043-15.944-40.698-16.024-9.4275-0.0518-13.435 0.46139-22.434 2.8725-11.831 3.1698-22.028 3.8676-25.914 1.7734-1.3399-0.72198-3.1481-3.0358-4.0184-5.1417-0.87022-2.106-6.0044-10.734-11.409-19.174-17.992-28.1-28.571-49.4-39.431-79.39-9.893-27.32-16.284-52.75-20.12-80.05-2.278-16.21-2.549-60.01-0.464-75.13 6.729-48.84 25.586-93.41 54.957-129.91 10.08-12.53 33.018-34.739 45.658-44.207 35.42-26.544 77.35-45.268 120.33-53.739 24.921-4.9113 29.116-5.2899 58.32-5.2626 31.73 0.0296 41.931 1.1427 67.303 7.3436 68.435 16.725 126.94 58.897 162.6 117.21 5.9867 9.789 6.7415 12.105 2.712 8.3191-2.3855-2.241-2.2761-1.843 0.97873 3.5622 2.0154 3.3468 4.5886 8.7438 5.7182 11.993 11.489 33.047 13.727 39.859 13.727 41.777 0 2.0841-0.52451 2.2172-8.739 2.2172h-8.739l-0.67498-3.3749c-0.37123-1.8562-5.4264-13.435-11.234-25.73-11.963-25.33-13.14-29.823-8.7205-33.3l2.8215-2.2194-2.379-3.4264c-26.29-37.86-80.79-75.995-133.31-93.289-28.18-9.278-66.07-12.867-102.94-9.749-36.27 3.067-76.25 15.457-108 33.473-65.41 37.115-100.05 96.225-105.34 179.74-3.8302 60.434 14.494 118.54 55.329 175.46 16.387 22.84 33.532 40.118 54.975 55.4 9.3806 6.6855 9.652 6.9947 9.652 10.996 0 4.5734 1.812 8.7576 5.069 11.705 2.8446 2.5743 14.599 2.0666 17.729-0.7658 1.9672-1.7803 2.566-1.7212 15.45 1.5249 11.999 3.0232 14.934 3.3734 28.012 3.343 9.937-0.0232 16.929-0.59051 21.864-1.7744 9.006-2.1602 23.814-9.136 33.375-15.722 6.0021-4.1347 7.5612-4.7874 9.1162-3.8163 2.8967 1.809 7.2419 1.3665 11.719-1.1936 6.1338-3.5075 8.4171-7.2177 8.6108-13.992 0.13262-4.638 0.74657-6.4879 3.1304-9.4318l2.9654-3.6622 21.13 3.4761 21.13 3.4761v2.8479c0 1.5664-1.1573 6.5112-2.5717 10.989-12.142 38.435-56.741 62.361-107.73 57.795-27.746-2.4843-49.394-9.3748-85.345-27.165-25.038-12.39-36.802-17.353-39.221-16.546-0.70715 0.23572 1.0196 1.2954 3.8372 2.3548 6.8058 2.559 26.749 12.709 38.886 19.791 18.358 10.712 46.398 21.566 64.666 25.031 19.478 3.6949 47.544 3.0961 65.078-1.3884 37-9.463 63.072-33.644 68.716-63.732 0.69977-3.7304 1.6173-7.1674 2.0389-7.6379 0.42162-0.47046 2.4712-0.53559 4.5546-0.14474 3.7304 0.69982 3.788 0.78693 3.788 5.72 0 29.307-22.156 59.166-53.489 72.087-19.155 7.8988-44.549 10.805-70.627 8.0813zm260.78-369.17c1.7777-3.3216 1.2506-6.7428-2.0376-13.226-1.7148-3.3808-3.421-7.7904-3.7916-9.7991-1.3253-7.184-6.4685-13.565-10.933-13.565-5.1715 0-5.1593 10.302 0.0198 16.747 2.0431 2.5423 3.2146 5.1821 3.2146 7.2435 0 9.1981 10.243 18.738 13.528 12.6h-0.00002z" transform="matrix(.8 0 0 -.8 .49622 628.64)"/><path d="m538.43 189.08c-2.3302-3.565-3.3626-7.3042-2.0168-7.3042 1.7872 0 4.456 4.9144 4.0755 7.5048l-0.35368 2.4081-1.7051-2.6087z" transform="matrix(.8 0 0 -.8 .49622 628.64)"/><path d="m531.09 171.89c-2.1624-2.892-3.5245-7.8597-2.155-7.8597 2.1532 0 4.587 4.0576 4.2612 7.1041l-0.33426 3.1255-1.772-2.3698z" transform="matrix(.8 0 0 -.8 .49622 628.64)"/><path d="m525.29 230.8c-3.466-1.4263-2.9294-2.318 3.1341-5.2073 6.2141-2.9611 8.6231-6.6443 7.5478-11.54-1.0803-4.9185-5.3543-9.245-9.8417-9.9626l-3.926-0.62779-4.9647-13.717c-5.8547-16.176-7.1897-25.509-3.9283-27.463 1.8487-1.1078 2.1672-0.80845 3.3319 3.1304 0.70828 2.3954 5.7768 14.216 11.263 26.268 11.745 25.799 12.796 30.541 7.9352 35.815-3.3233 3.606-7.0124 4.7615-10.552 3.305z" transform="matrix(.8 0 0 -.8 .49622 628.64)"/><path d="m541.3 228.21c1.5493-2.3645 2.3818-2.6087 8.8935-2.6087 3.9513 0 7.1842 0.25773 7.1842 0.57274 0 1.3849-9.2744 4.6008-13.328 4.6217l-4.4588 0.0229 1.7093-2.6087z" transform="matrix(.8 0 0 -.8 .49622 628.64)"/><path d="m513.72 203.95c-1.7073-3.2619-10.596-31.374-10.596-33.512 0-1.1425 0.82172-2.9008 1.8261-3.9074 1.7396-1.7436 1.8596-1.5125 2.5357 4.8819 0.40642 3.844 2.7506 12.211 5.4859 19.582 2.6269 7.0783 4.5103 13.3 4.1852 13.826-0.92571 1.4978-2.3921 1.1268-3.4372-0.86976z" transform="matrix(.8 0 0 -.8 .49622 628.64)"/><path d="m396.01 252.84-3.2913-6.1111 10.074-4.815c19.054-9.1074 56.515-19.958 95.898-27.776 24.166-4.7976 28.347-5.0875 31.006-2.1498 2.3599 2.6077 1.399 7.0428-1.8168 8.3855-1.2754 0.53255-8.658 2.2013-16.406 3.7083-46.597 9.0636-90.674 22.12-106.17 31.449-3.1559 1.9004-5.7986 3.4475-5.8725 3.4379-0.074-0.01-1.6155-2.7674-3.4257-6.1285z" transform="matrix(.8 0 0 -.8 .49622 628.64)"/><path d="m403.57 271.97c-3.5974-8.0523-4.162-7.2591 10.334-14.517 15.154-7.5875 58.879-20.794 83.213-25.134l3.91-0.69728-0.66573 3.5068c-0.36615 1.9288-1.1093 4.3727-1.6515 5.431-1.6608 3.242-9.1174 5.7124-24.176 8.0096-7.9194 1.2081-17.503 3.1553-21.297 4.3271-14.078 4.3483-29.455 12.658-41.528 22.443-2.3547 1.9084-4.4677 3.4571-4.6956 3.4417-0.22785-0.0154-1.7779-3.0803-3.4445-6.8109z" transform="matrix(.8 0 0 -.8 .49622 628.64)"/><path d="m286.19 434.03c0.42076-0.71738 2.5868-4.0159 4.8135-7.33l4.0485-6.0256 3.076 1.817 3.076 1.817-5.4445 5.5129c-3.4935 3.5374-6.3206 5.5129-7.8895 5.5129-1.6684 0-2.202-0.41431-1.68-1.3043z" transform="matrix(.8 0 0 -.8 .49622 628.64)"/></g></g></g></svg>
