<?xml version="1.0"?>
<svg xmlns="http://www.w3.org/2000/svg" xmlns:xlink="http://www.w3.org/1999/xlink" width="216" height="206.969" viewBox="0 0 216 206.969">
<g>
	<g>
		<path fill="#FFFFFF" d="M54.116,145.139c1.308-2.186,3.372-6.232,3.372-6.232c-1.315,0.26-4.829,2.348-4.829,2.348
			c1.67-3.762,6.61-10.295,8.739-12.262c-4.508,0.574-9.201,3.545-10.985,4.686c3.544-8.926,11.092-14.316,12.759-15.555
			c-1.374,0.418-8.287,1.883-12.908,5.279c4.3-8.76,11.14-12.99,18.854-16c23.84-7.528,65.498-22.202,88.785-33.792
			c7.843-3.904,17.99-9.088,20.456-11.729C153.082,77.968,99.531,95.43,72.202,103.262c-3.888,1.114-9.212,2.612-13.888,4.25
			c-3.799,1.188-8.736,2.852-11.821,4.355c-7.348,3.58-9.426,5.338-11.431,6.947c-0.822,0.662-1.706,1.781-2.497,2.842
			c-0.195,0.262-0.337-0.076-0.337-0.076c0.052-1.018,0.805-3.656,1.41-4.303c-8.241,3.924-11.147,8.447-12.397,10.764
			c-0.335,0.611-0.93,1.479-1.296,2.318c-0.186,0.215-0.282,0.012-0.282,0.012c-0.354-0.984,0.328-3.027,0.346-3.551
			c-1.47,1.199-4.242,3.977-5.941,6.738c-1.026,1.666-2.96,5.436-3.372,8.336c-0.215,0.711-0.72,3.381,0.555,4.066
			c1.904-1.129,5.612-0.279,6.792,0.811c5.843-3.215,9.006-4.371,17.212-5.518c1.058-0.146,2.419,0.033,3.4,0.229
			c-1.127,0.551-2.588,0.992-3.03,1.262c0.265,1.865,0.552,3.395,0.509,5.223C40.235,145.27,46.284,143.311,54.116,145.139z
			 M30.726,135.209c0,0-2.06-0.023-3.43,0.605c0.69,1.584,1.155,3.486-0.509,5.328c-1.175,1.297-3.569,1.713-5.111,1.059
			c0,0-0.382,0.846-0.709,1.262c-0.467,0.084-2.941,0.055-4.011-0.846c0,0,1.93-0.277,2.722-0.607
			c0.589-0.668,2.954-5.824,3.287-8.014c0.547-0.201,4.753-0.137,8.08,0.818L30.726,135.209z"/>
		<path fill="#FFFFFF" d="M58.214,147.594c-3.938,2.551-6.558,7.979-6.558,7.979s3.89-3.246,6.8-4.766
			c2.911-1.52,9.006-4.01,19.275-6.984c10.059-2.908,27.985-11.725,35.656-17.486c-7.721,4.061-30.806,13.078-44.347,16.621
			C65.354,143.92,60.328,146.227,58.214,147.594z"/>
		<path fill="#FFFFFF" d="M60.14,74.738c38.455-8.637,69.466-22.687,82.407-27.646c8.022-3.077,21.987-9.692,32.33-14.595
			c8.553-4.057,13.365-7.929,13.365-7.929c-6.958,3.901-14.268,7.738-21.778,11.055c-35.03,15.479-76.302,30.093-120.168,39.11
			c-5.118,1.052-13.83,4.06-18.36,6.55c-4.532,2.491-7.602,6.469-8.86,10.084C27.951,80.22,51.589,76.658,60.14,74.738z"/>
		<path fill="#FFFFFF" d="M21.207,175.838c-1.197,0.051-3.26,0.965-4.344,2.703c-1.083,1.738-1.028,3.125-0.573,4.275
			c0.228,0.584,0.661,1.193,1.139,1.266c0-0.518,0.053-1.023,0.363-1.754c0.42-0.988,2.451-2.678,4.309-2.426
			c0.465-0.338,0.772-0.719,1.119-1.66c0.435-1.176,0.107-1.961,0.107-1.961C22.651,175.975,22.017,175.799,21.207,175.838z"/>
		<path fill="#FFFFFF" d="M10.334,179.911c-1.313,0.943-2.058,2.916-1.708,4.311c0.348,1.395,0.773,2.004,1.666,2.322
			c-0.102-0.75,0.069-1.734,0.321-2.307c0.25-0.576,1.369-2.332,3.082-2.461c-0.058-1.805,0.255-3.182,0.255-3.182
			C12.534,178.733,11.251,179.249,10.334,179.911z"/>
		<path fill="#FFFFFF" d="M29.876,198.389c-0.563-0.311-2.059-0.143-2.494,0.283c-0.11,2.254-2.247,3.373-3.57,3.895
			c0.603,0.449,1.352,0.723,2.263,0.742c2.183,0.148,4.375-1.852,4.949-3.209C31.095,199.502,30.437,198.696,29.876,198.389z"/>
		<path fill="#FFFFFF" d="M72.339,182.948c1.231-0.654,3.827-2.033,4.392-2.33c-0.355-0.516-1.624-2.361-2.171-3.16
			C74.174,178.411,72.88,181.612,72.339,182.948z M75.122,180.221c-0.313,0.168-0.445,0.238-0.625,0.332
			c0.158-0.391,0.173-0.428,0.317-0.781C74.865,179.85,75.099,180.19,75.122,180.221z"/>
		<path fill="#FFFFFF" d="M193.241,115.553c-0.282-0.227-0.6-0.396-0.942-0.523c0.109-0.059,0.924-0.49,0.924-0.49v-7.49
			l-3.431,1.82c0,0-0.688,0.758-1,1.096c-1.526,0.209-2.933,0.646-4.275,1.361c-4.286,2.271-7.519,6.363-7.519,9.508
			c0,1.939,0.805,2.922,1.48,3.404c0.459,0.326,0.979,0.51,1.531,0.6c-0.312,0.166-6.347,3.361-6.347,3.361l-0.198,0.543
			c-0.899,2.465-2.045,5.012-5.245,6.713c0,0-0.67,0.355-1.376,0.73c0-2.557,0-9.611,0-10.629c0.744-0.396,2.881-1.531,2.881-1.531
			v-4.098l-13.44,7.135v4.096c0,0,1.965-1.043,2.176-1.154c0,2.555,0,9.609,0,10.629c-0.281,0.148-0.42,0.223-0.807,0.428
			c-0.971-1.332-7.938-10.861-7.938-10.861l-2.877,1.529l-7.76,18.918c-0.084,0.172-0.461,0.521-1.766,1.211
			c0,0-2.508,1.338-2.805,1.496c0-2.559,0-9.639,0-10.645c1.65-0.873,2.342-0.879,2.613-0.795c0.287,0.09,0.592,0.514,1.02,1.418
			l0.673,1.424l3.115-1.654l-0.536-8.127l-35.583,18.832v2.387c-1.751-0.84-4.476-0.297-8.106,1.631l-12.639,6.711v4.098
			c0,0,2.031-1.08,2.335-1.24c0,2.555,0,9.609,0,10.627c-0.539,0.287-1.514,0.805-1.767,0.938
			c-0.973-1.332-7.936-10.859-7.936-10.859l-2.879,1.527l-7.762,18.922c-0.017,0.035-0.051,0.082-0.116,0.146
			c0-0.928,0-3.695,0-3.695l-3.813,2.027l-0.195,0.549c-1.105,3.129-2.998,5.369-5.785,6.846c-0.94,0.502-1.436,0.666-1.679,0.719
			c-0.238-0.736-0.241-2.91-0.241-4.699c0-6.318,1.003-6.852,3.203-8.021c3.005-1.594,3.781-0.641,4.464,0.201l0.779,0.961
			l2.819-1.492v-7.699l-3.598,1.908c0,0-0.553,0.752-0.854,1.162c-1.526,0.104-3.207,0.648-5.117,1.662
			c-5.792,3.074-10.944,10.742-10.944,14.631c0,2.201,0.913,3.965,2.571,4.961c2.417,1.453,6.195,1.082,10.104-0.994
			c1.599-0.848,3.236-2.08,4.873-3.633c0.326,0.051,1.023,0.16,1.023,0.16l9.5-5.043v-4.139c0,0-1.754,0.957-1.817,0.992
			c0.036-0.094,0.07-0.178,0.1-0.258c0.539-0.285,3.628-1.928,4.845-2.572c0.05,0.08,0.052,0.082,0.104,0.162
			c-0.614,0.328-1.824,0.969-1.824,0.969v4.096l23.204-12.313v-4.1c0,0-2.258,1.201-2.879,1.529c0-1.346,0-2.395,0-3.033
			c0.506-0.27,1.122-0.598,1.122-0.598c4.861-2.578,10.654-6.564,10.654-10.9c0-0.67-0.182-1.281-0.519-1.787
			c0.498-0.268,0.99-0.527,1.136-0.605c0,2.557,0,9.611,0,10.629c-0.664,0.354-2.368,1.258-2.368,1.258v4.098l13.441-7.135v-4.098
			c0,0-2.175,1.156-2.688,1.426c0-2.555,0-9.609,0-10.627c0.521-0.277,1.709-0.908,2.315-1.232l-0.278,4.52l3.779-2.006l0.188-0.586
			c0.748-2.383,1.428-4.082,3.557-5.609c0,2.668,0,9.514,0,10.521c-0.707,0.377-2.624,1.393-2.624,1.393v4.098l22.571-11.986v-4.164
			c0,0-1.764,0.986-1.82,1.02c0.037-0.096,0.07-0.18,0.104-0.262c0.464-0.248,3.725-1.977,4.845-2.572
			c0.052,0.082,0.054,0.084,0.104,0.162c-0.614,0.328-1.823,0.969-1.823,0.969v4.098l32.595-17.299c0,0,1.391-1.506,1.828-1.98
			c1.392-0.094,2.817-0.547,4.441-1.408c5.726-3.039,8.288-7.613,8.288-10.797C194.631,117.481,194.164,116.295,193.241,115.553z
			 M96.388,168.967c0,0-1.369,0.729-1.706,0.906c0,0.398,0,4.504,0,5.531c0.746-0.395,2.879-1.527,2.879-1.527v1.6L76.563,186.62
			v-1.6c0,0,1.747-0.926,2.293-1.215c-0.302-0.475-1.031-1.615-1.295-2.027c-0.577,0.305-5.865,3.113-6.103,3.238
			c-0.181,0.461-1.201,3.078-1.295,3.373c0.318-0.121,2.786-1.467,2.786-1.467v1.619l-8.591,4.557c0,0-0.912-0.137-1.188-0.182
			c-1.688,1.658-3.38,2.951-5.031,3.83c-3.564,1.893-6.937,2.273-9.018,1.023c-1.334-0.803-2.038-2.191-2.038-4.018
			c0-3.223,4.641-10.621,10.358-13.658c1.988-1.055,3.683-1.564,5.173-1.555c0.194-0.262,1.019-1.385,1.019-1.385l1.757-0.932v5.201
			l-1.431,0.76l-0.209-0.256c-0.981-1.211-2.324-2.348-5.837-0.48c-2.805,1.488-3.788,2.582-3.788,8.992c0,3.074,0,5.291,0.73,5.729
			c0.433,0.262,1.326,0.016,2.81-0.773c3.042-1.613,5.105-4.051,6.309-7.451l0.052-0.146l1.813-0.965v3.881
			c0.704-0.371,1.956-1.043,2.24-1.752l7.609-18.549l1.682-0.893c0,0,7.547,10.328,7.936,10.859c0.434-0.23,3.056-1.619,3.197-1.693
			c0-0.445,0-11.939,0-13.127c-0.658,0.35-2.336,1.24-2.336,1.24v-1.6l12.053-6.4c4.311-2.287,6.348-2.088,7.296-1.518
			c0.608,0.365,0.941,0.99,0.941,1.758C106.458,163.028,100.149,166.971,96.388,168.967z M118.148,150.106
			c0,0-2.326,1.234-2.688,1.428c0,0.441,0,11.938,0,13.127c0.72-0.383,2.688-1.428,2.688-1.428v1.6l-11.236,5.965v-1.602
			c0,0,2.016-1.068,2.369-1.256c0-0.443,0-11.939,0-13.127c-0.664,0.354-2.369,1.258-2.369,1.258v-1.602l11.236-5.963V150.106z
			 M136.028,155.397l-11.427,6.064v-1.6c0,0,2.264-1.199,2.624-1.393c0-0.445,0-11.979,0-13.141
			c-3.802,1.975-4.747,4.17-5.713,7.232l-0.048,0.156l-1.644,0.873l0.378-6.119l20.204-10.725l0.378,5.717l-1.465,0.775
			l-0.179-0.379c-0.507-1.066-0.964-1.775-1.688-1.996c-0.863-0.27-2.154,0.113-4.045,1.193c0,0.43,0,11.941,0,13.131
			c0.708-0.375,2.624-1.393,2.624-1.393V155.397z M175.839,134.26l-27.258,14.465v-1.604c0,0,1.747-0.924,2.296-1.213
			c-0.305-0.477-1.033-1.615-1.298-2.027c-0.576,0.305-5.864,3.113-6.103,3.238c-0.182,0.463-0.777,1.965-0.777,1.969
			c-0.26,0.643-0.424,1.109-0.517,1.404c0.316-0.121,0.878-0.389,1.886-0.963l0.899-0.504v1.619l-7.427,3.939v-1.6l0.287-0.15
			c0.693-0.367,1.982-1.053,2.271-1.771l7.607-18.547l1.683-0.893c0,0,7.548,10.328,7.938,10.859
			c0.432-0.23,2.225-1.182,2.234-1.188c0-0.441,0-11.936,0-13.125c-0.626,0.334-2.176,1.156-2.176,1.156v-1.602l11.234-5.963v1.602
			c0,0-2.516,1.336-2.88,1.529c0,0.441,0,11.938,0,13.123c0.821-0.436,2.996-1.588,2.996-1.588c3.544-1.883,4.833-4.758,5.762-7.307
			l0.054-0.146l1.665-0.879L175.839,134.26z M185.826,128.897c-1.654,0.881-3.067,1.293-4.428,1.303
			c-0.201,0.215-2.009,2.176-2.009,2.176l-1.865,0.988l0.374-6.158l1.901-1.008l0.032,0.076c0.415,0.961,1.021,1.59,1.803,1.865
			c1.038,0.365,2.376,0.119,3.976-0.729c3.577-1.898,4.876-4.293,4.876-5.439c0-0.355-0.125-0.441-0.166-0.473
			c-0.544-0.379-2.419,0.303-4.072,0.904l-1.405,0.5c-2.563,0.887-4.516,1.297-5.724,0.438c-0.676-0.482-1.019-1.324-1.019-2.506
			c0-2.721,3.045-6.473,6.934-8.537c1.353-0.717,2.768-1.141,4.311-1.303c0.163-0.178,1.133-1.24,1.133-1.24l1.643-0.871v4.992
			l-1.672,0.887l-0.14-0.471c-0.148-0.512-0.512-0.902-1.049-1.127c-1.007-0.426-2.435-0.219-3.913,0.568
			c-1.896,1.006-4.012,2.957-4.012,4.148c0,0.242,0.051,0.402,0.15,0.471c0.389,0.271,1.721-0.221,2.22-0.406
			c1.529-0.574,4.321-1.582,5.848-1.912c1.338-0.293,2.318-0.17,2.998,0.379c0.648,0.521,0.978,1.418,0.978,2.662
			C193.528,121.93,191.147,126.073,185.826,128.897z M180.438,124.889c1.488,0.109,3.194-0.4,4.764-0.941
			c0.011-0.004,3.26-1.176,4.021-1.359c-0.401,0.941-1.604,2.508-4.13,3.848c-1.297,0.688-2.366,0.92-3.092,0.664
			c-0.485-0.17-0.865-0.584-1.156-1.264l-0.032-0.072C180.813,125.764,180.56,125.174,180.438,124.889z M189.354,114.95
			c-0.014,0.004-0.024,0.004-0.037,0.006c-1.593,0.346-6.272,2.057-6.392,2.098c0.58-0.709,1.637-1.656,2.938-2.346
			c1.169-0.623,2.278-0.818,2.969-0.527c0.303,0.127,0.384,0.303,0.418,0.42C189.252,114.602,189.313,114.809,189.354,114.95z"/>
		<path fill="#FFFFFF" d="M96.676,161.221c0,0-1.646,0.873-1.994,1.059c0,0.404,0,4.947,0,5.992
			c0.655-0.348,1.619-0.859,1.619-0.859c2.833-1.504,3.404-2.588,3.404-3.848v-2.496c0-0.469-0.077-0.775-0.215-0.857
			C99.061,159.956,97.389,160.84,96.676,161.221z M98.602,163.565c0,0.547,0,1.379-2.817,2.873c0,0,0.021-0.004,0.023-0.004
			c-0.006,0.002-0.016,0.006-0.023,0.012c0-0.006,0-0.006,0-0.008c0-1.484,0-2.809,0-3.494c0.584-0.313,2.497-1.305,2.817-1.443
			C98.602,162.092,98.602,163.565,98.602,163.565z"/>
		<path fill="#FFFFFF" d="M144.36,145.051c1.23-0.654,3.827-2.033,4.39-2.33c-0.352-0.516-1.622-2.361-2.17-3.16
			C146.194,140.512,144.9,143.715,144.36,145.051z M147.143,142.325c-0.3,0.16-0.332,0.178-0.626,0.332
			c0.063-0.154,0.3-0.74,0.317-0.781C146.986,142.1,147.008,142.129,147.143,142.325z"/>
		<path fill="#FFFFFF" d="M52.822,186.434c0,0-2.438,5.727,0.12,9.598C52.202,194.342,52.822,186.434,52.822,186.434z"/>
		<path fill="#FFFFFF" d="M53.125,196.297c-0.064-0.086-0.125-0.176-0.183-0.266C52.996,196.153,53.056,196.249,53.125,196.297z"/>
		<polygon fill="#FFFFFF" points="76.94,173.176 82.43,180.647 83.528,180.79 77.328,172.538 		"/>
		<polygon fill="#FFFFFF" points="149.317,134.641 154.808,142.11 155.905,142.258 149.705,134.006 		"/>
		<path fill="#FFFFFF" d="M100.824,164.977c4.555-2.17,3.846-5.514,3.846-5.514C104.11,162.395,100.824,164.977,100.824,164.977z"/>
		<polygon fill="#FFFFFF" points="114.488,152.733 113.68,153.178 113.68,164.827 114.488,164.377 		"/>
		<polygon fill="#FFFFFF" points="130.918,155.694 131.725,155.245 131.725,143.602 130.918,144.049 		"/>
		<polygon fill="#FFFFFF" points="163.401,138.311 164.208,137.862 164.208,126.217 163.401,126.663 		"/>
		<path fill="#FFFFFF" d="M187.297,118.727c-7.036,3.057-6.977,1.502-6.914,1.213c-0.949,3.057,6.338-0.291,6.338-0.291
			c3.172-1.514,5.246-1.188,5.246-1.188C191.334,117.278,187.297,118.727,187.297,118.727z"/>
	</g>
	<g>
		<polygon fill="#BB8748" points="152.458,68.024 168.302,54.165 178.853,54.77 175.762,47.412 185.904,36.634 173.928,43.047 
			170.216,38.141 165.119,47.054 148.729,55.218 159.248,55.976 		"/>
		<polygon fill="#BB8748" points="50.372,105.448 67.35,95.173 80.599,97.513 76.609,88.528 91.105,76.746 75.275,81.768 
			72.146,75.821 64.308,84.738 40.971,92.03 58.609,93.719 		"/>
		<path fill="#BB8748" d="M111.98,75.314l-8.965,13.336l18.357-12.754l14.354,0.52l-3.583-7.994
			c3.553-3.942,8.201-7.409,12.119-11.266l-14.932,6.263l-3.416-6.05l-7.445,10.138c-6.557,2.187-14.882,5.905-22.228,7.574
			C100.44,75.008,111.98,75.314,111.98,75.314z"/>
		<polygon fill="#BB8748" points="143.357,91.185 139.904,86.373 135.271,94.628 120.231,101.704 129.926,102.864 123.758,114.032 
			138.252,101.52 147.977,102.527 145.076,95.407 154.346,85.589 		"/>
		<path fill="#BB8748" d="M86.287,121.854l-8.313,14.119c5.907-4.178,17.177-13.123,17.177-13.123l13.544,1.117l-3.463-8.809
			l11.309-11.753l-14.396,6.248l-2.904-6.724l-6.914,10.708c-6.163,2.121-20.883,7.359-20.883,7.359L86.287,121.854z"/>
		<path fill="#BB8748" d="M31.451,145.385c0.383,5.289-0.54,10.764-3.045,13.721c-0.571,0.676-1.46,0.936-1.46,0.936
			c-0.003-3.568-2.115-7.656-3.261-8.975l-0.799,0.523c1.297,1.842,3.634,7.322,2.887,10.184c0,0,1.677-0.074,2.867-0.887
			c4.307-2.941,5.835-12.039,4.403-17.398c-5.51,1.057-10.772,3.211-15.217,6.295c0,0-0.536-0.607-0.931-0.873
			c-0.609-0.414-2.871-1.355-4.303-0.801c-1.843,1.773-3.527,3.678-4.895,5.945c-0.851,1.752-2.448,4.357-1.179,5.574
			c1.268,1.215,5.275,2.516,8.232,2.6c0,0-0.366-0.949-0.509-1.824c-0.29-1.766,0.731-3.523,1.69-4.98
			c1.186-2.316,6.036-6.34,9.807-8.051C28.08,146.313,31.451,145.385,31.451,145.385z M13.097,155.542
			c-0.297-0.158-0.678-1.082-0.513-1.984c0.164-0.904,0.801-2.271,1.828-3.58c0.465,0.086,1.229,0.348,1.843,1.018
			C15.533,151.643,13.027,153.467,13.097,155.542z"/>
		<path fill="#BB8748" d="M25.619,140.135c0.976-0.975,0.8-2.217,0.307-3.063c-0.406-0.695-1.416-1.168-1.84-0.734
			c-0.008,0.006-0.017,0.018-0.024,0.025c-0.057,0.189-0.117,0.387-0.185,0.598c0.658-0.023,1.273,0.355,1.5,0.984
			c0.285,0.791-0.153,1.672-0.979,1.969c-0.537,0.191-1.103,0.088-1.513-0.221c-0.134,0.34-0.274,0.674-0.415,0.996
			C23.198,141.176,24.725,141.024,25.619,140.135z"/>
		<path fill="#BB8748" d="M43.088,176.1l-5.554,2.643l-0.11-4.449c-1.3,1.346-6.044,6.924-6.044,6.924
			c-0.562-0.564-0.539-0.865-1.306-1.254c-0.188-1.68-0.674-3.107-2.476-3.852c-0.708-0.285-1.478-0.17-2.07,0.311
			c0.044,1.498-0.135,2.969-0.901,4.262c-0.48,0.611-1.62,1.676-2.468,1.316c0.137,0.607,1.34,1.295,1.943,1.615
			c1.167,0.344,2.584-0.197,3.181-0.709c0.595-0.508,0.758-1.492,0.758-1.492c1.127,1.631,0.132,3.344-0.335,3.844
			c0,0,2.652,2.311,2.131,5.93c1.565,0.17,2.343,1.518,2.409,2.346c-0.6-0.148-1.271-0.488-1.739-0.557
			c-0.467-0.072-1.735-0.053-2.683,0.781c-0.948,0.838-1.388,2.283-0.7,3.074c0.501-0.42,2.157-0.756,2.799-0.594
			c0.802,0.199,2.304,1.152,2.655,2.252c0.762-0.414,1.503-1.523,1.658-1.777c0.521-0.848,1.146-2.711,0.989-3.969
			c-0.269-2.168-0.727-4.395-0.616-5.879C36.891,184.243,42.626,177.084,43.088,176.1z"/>
		<path fill="#BB8748" d="M105.517,157.282c-0.949-0.57-2.985-0.77-7.296,1.518l-12.053,6.4v1.6c0,0,1.678-0.891,2.336-1.24
			c0,1.188,0,12.682,0,13.127c-0.142,0.074-2.764,1.463-3.197,1.693c-0.388-0.531-7.936-10.859-7.936-10.859l-1.682,0.893
			l-7.609,18.549c-0.284,0.709-1.536,1.381-2.24,1.752v-3.881l-1.813,0.965l-0.052,0.146c-1.203,3.4-3.266,5.838-6.309,7.451
			c-1.484,0.789-2.377,1.035-2.81,0.773c-0.73-0.438-0.73-2.654-0.73-5.729c0-6.41,0.983-7.504,3.788-8.992
			c3.513-1.867,4.855-0.73,5.837,0.48l0.209,0.256l1.431-0.76v-5.201l-1.757,0.932c0,0-0.825,1.123-1.019,1.385
			c-1.49-0.01-3.185,0.5-5.173,1.555c-5.718,3.037-10.358,10.436-10.358,13.658c0,1.826,0.704,3.215,2.038,4.018
			c2.081,1.25,5.454,0.869,9.018-1.023c1.651-0.879,3.343-2.172,5.031-3.83c0.275,0.045,1.188,0.182,1.188,0.182l8.591-4.557v-1.619
			c0,0-2.468,1.346-2.786,1.467c0.094-0.295,1.114-2.912,1.295-3.373c0.238-0.125,5.526-2.934,6.103-3.238
			c0.265,0.412,0.993,1.553,1.295,2.027c-0.546,0.289-2.293,1.215-2.293,1.215v1.6l20.999-11.143v-1.6c0,0-2.133,1.133-2.879,1.527
			c0-1.027,0-5.133,0-5.531c0.337-0.178,1.706-0.906,1.706-0.906c3.761-1.996,10.07-5.939,10.07-9.928
			C106.458,158.272,106.125,157.647,105.517,157.282z M52.941,196.032c-2.557-3.871-0.12-9.598-0.12-9.598
			S52.202,194.342,52.941,196.032c0.059,0.09,0.119,0.18,0.183,0.266C53.056,196.249,52.996,196.153,52.941,196.032z
			 M72.339,182.948c0.541-1.336,1.835-4.537,2.22-5.49c0.548,0.799,1.816,2.645,2.171,3.16
			C76.166,180.915,73.571,182.293,72.339,182.948z M82.43,180.647l-5.49-7.471l0.387-0.639l6.201,8.252L82.43,180.647z
			 M99.705,163.565c0,1.26-0.57,2.344-3.404,3.848c0,0-0.963,0.512-1.619,0.859c0-1.045,0-5.588,0-5.992
			c0.348-0.186,1.994-1.059,1.994-1.059c0.713-0.381,2.384-1.266,2.813-1.01c0.138,0.082,0.215,0.389,0.215,0.857V163.565z
			 M100.824,164.977c0,0,3.286-2.582,3.846-5.514C104.67,159.463,105.379,162.807,100.824,164.977z"/>
		<path fill="#BB8748" d="M106.913,156.071c0,0,1.705-0.904,2.369-1.258c0,1.188,0,12.684,0,13.127
			c-0.353,0.188-2.369,1.256-2.369,1.256v1.602l11.236-5.965v-1.6c0,0-1.969,1.045-2.688,1.428c0-1.189,0-12.686,0-13.127
			c0.362-0.193,2.688-1.428,2.688-1.428v-1.6l-11.236,5.963V156.071z M113.68,153.178l0.809-0.445v11.645l-0.809,0.449V153.178z"/>
		<path fill="#BB8748" d="M139.138,142.86l0.179,0.379l1.465-0.775l-0.378-5.717l-20.204,10.725l-0.378,6.119l1.644-0.873
			l0.048-0.156c0.966-3.063,1.911-5.258,5.713-7.232c0,1.162,0,12.695,0,13.141c-0.36,0.193-2.624,1.393-2.624,1.393v1.6
			l11.427-6.064v-1.602c0,0-1.916,1.018-2.624,1.393c0-1.189,0-12.701,0-13.131c1.891-1.08,3.182-1.463,4.045-1.193
			C138.174,141.084,138.631,141.793,139.138,142.86z M131.725,155.245l-0.807,0.449v-11.645l0.807-0.447V155.245z"/>
		<path fill="#BB8748" d="M174.499,129.122c-0.929,2.549-2.218,5.424-5.762,7.307c0,0-2.175,1.152-2.996,1.588
			c0-1.186,0-12.682,0-13.123c0.364-0.193,2.88-1.529,2.88-1.529v-1.602l-11.234,5.963v1.602c0,0,1.55-0.822,2.176-1.156
			c0,1.189,0,12.684,0,13.125c-0.01,0.006-1.803,0.957-2.234,1.188c-0.391-0.531-7.938-10.859-7.938-10.859l-1.683,0.893
			l-7.607,18.547c-0.289,0.719-1.578,1.404-2.271,1.771l-0.287,0.15v1.6l7.427-3.939v-1.619l-0.899,0.504
			c-1.008,0.574-1.569,0.842-1.886,0.963c0.093-0.295,0.257-0.762,0.517-1.404c0-0.004,0.596-1.506,0.777-1.969
			c0.238-0.125,5.526-2.934,6.103-3.238c0.265,0.412,0.993,1.551,1.298,2.027c-0.549,0.289-2.296,1.213-2.296,1.213v1.604
			l27.258-14.465l0.379-6.164l-1.665,0.879L174.499,129.122z M144.36,145.051c0.54-1.336,1.834-4.539,2.22-5.49
			c0.548,0.799,1.818,2.645,2.17,3.16C148.188,143.018,145.591,144.397,144.36,145.051z M154.808,142.11l-5.49-7.469l0.388-0.635
			l6.2,8.252L154.808,142.11z M164.208,137.862l-0.807,0.449v-11.648l0.807-0.445V137.862z"/>
		<path fill="#BB8748" d="M192.551,116.413c-0.68-0.549-1.66-0.672-2.998-0.379c-1.526,0.33-4.318,1.338-5.848,1.912
			c-0.499,0.186-1.831,0.678-2.22,0.406c-0.1-0.068-0.15-0.229-0.15-0.471c0-1.191,2.115-3.143,4.012-4.148
			c1.479-0.787,2.906-0.994,3.913-0.568c0.537,0.225,0.9,0.615,1.049,1.127l0.14,0.471l1.672-0.887v-4.992l-1.643,0.871
			c0,0-0.97,1.063-1.133,1.24c-1.543,0.162-2.958,0.586-4.311,1.303c-3.889,2.064-6.934,5.816-6.934,8.537
			c0,1.182,0.343,2.023,1.019,2.506c1.208,0.859,3.161,0.449,5.724-0.438l1.405-0.5c1.653-0.602,3.528-1.283,4.072-0.904
			c0.041,0.031,0.166,0.117,0.166,0.473c0,1.146-1.299,3.541-4.876,5.439c-1.6,0.848-2.938,1.094-3.976,0.729
			c-0.781-0.275-1.388-0.904-1.803-1.865l-0.032-0.076l-1.901,1.008l-0.374,6.158l1.865-0.988c0,0,1.808-1.961,2.009-2.176
			c1.36-0.01,2.773-0.422,4.428-1.303c5.321-2.824,7.702-6.967,7.702-9.822C193.528,117.831,193.199,116.934,192.551,116.413z
			 M186.721,119.649c0,0-7.287,3.348-6.338,0.291c-0.063,0.289-0.122,1.844,6.914-1.213c0,0,4.037-1.449,4.67-0.266
			C191.967,118.461,189.893,118.135,186.721,119.649z"/>
	</g>
	<path fill="#E03A3E" d="M30.023,147.688c-1.003,0.443-3.582,1.387-4.933,2.422c1.33,1.73,3.043,5.396,2.927,8.119
		C29.568,155.284,30.667,150.948,30.023,147.688z"/>
	<g>
		<path fill="#005488" d="M215.662,0.072c-3.881,2.779-14.413,9.43-19.075,12.318c-22.653,13.615-67.007,31.133-90.739,38.285
			c-9.369,2.82-26.738,7.735-41.08,10.99c-12.431,2.823-25.015,6.325-32.725,8.722c-8.129,2.6-14.489,6.222-18.372,10.964
			c-4.563,5.006-6.973,12.252-6.02,19.308c0.724,5.355,4.084,9.535,8.924,12.457c2.306,1.455,5.214,2.549,8.408,2.104
			c-2.24,1.416-9.764,6.324-14.956,13.633c-5.142,7.236-5.678,14.111-5.688,14.158c-0.357,1.822,0.407,4.166,1.019,4.721
			c-0.337,0.539-0.698,1.084-1.068,1.646c-1.903,2.887-4.056,6.158-4.286,10.17c-0.013,0.207-0.002,0.416,0.033,0.623
			c0.38,2.281,1.534,3.418,2.424,3.961c7.38,4.48,14.595,3.434,18.513,2.502c2.964,0.783,8.453,0.139,11.864-2.232
			c3.709-2.576,5.129-7.277,5.596-10.75c0.329-0.305,2.907-1.5,2.907-1.5c2.301-1.098,3.468-0.996,5.793-1.498
			c-2.178,3.41-6.335,10.414-10.286,15.912c-1.59,1.998-3.291,3.932-5.003,5.826c-0.188-0.16-0.905-0.826-1.167-0.965
			c-1.809-0.975-4.335-1.465-6.529-0.754c-0.133-0.047-0.268-0.086-0.405-0.109c-2.865-0.529-5.162,0.303-6.699,1.139
			c-1.535,0.834-2.083,1.693-2.083,1.693c-1.312-0.041-4.33,0.357-6.704,1.906c-2.376,1.557-4.903,4.777-4.145,9.803
			c0.231,1.535,2.182,6.768,9.488,7.354c0,0-0.137-3.162,1.375-3.311c4.432,0.459,6.791,3.541,7.337,4.559
			c0.69,1.545-0.523,2.809,0.369,4.764c-1.628,2.096-4.691,2.113-4.691,2.113c1.106,5.781,6.342,6.676,8.55,6.318
			c4.762-0.775,5.764-2.051,6.254-2.523c0.489-0.471,1.999-2.115,2.128-2.445c0-0.002,3.136-1.576,4.494-5.666
			c0.969-2.926,0.568-3.754,0.443-7.246c0.586-0.852,1.154-1.656,1.708-2.422c1.86-2.482,4.221-5.275,6.376-7.74
			c5.478-5.602,9.528-6.707,14.923-8.809c7.152-2.787,23.041-9.744,28.717-15.26c4.49-4.365,7.86-7.939,10.869-11.529
			c7.931-4.678,14.153-9.59,16.266-12.314c1.651-2.137,2.64-3.711,3.454-5.332c1.416-0.768,8.691-4.447,11.465-6.279
			c11.461-7.107,30.177-20.302,36.362-26.968c3.425-3.688,5.82-9.286,5.294-9.085c0,0-5.52,3.328-6.196,3.556
			c5.366-5.536,16.079-23.778,17.148-26.015c6.588-4.771,9.94-8.02,11.898-12.283c1.159-2.529,2.557-8.165,1.651-7.403
			c-0.554,0.464-6.009,3.863-6.683,4.371c3.831-8.428,7.947-22.227,8.894-25.169c5.762-4.423,10.496-10.162,11.847-12.981
			C214.959,5.047,216.749-0.708,215.662,0.072z M199.596,18.12c-2.016,6.667-11.617,32.271-13.729,35.729
			c3.552-2.193,7.086-4.533,9.747-6.77c-1.479,3.938-5.639,7.315-12.251,12.6c-3.128,6.604-19.321,30.338-27.385,37.568
			c5.803-3.38,9.596-5.385,12.931-7.772c-4.893,6.081-23.059,18.975-36.58,27.374c-2.697,1.789-11.891,6.799-12.722,7.236
			c-0.478,1.34-1.692,3.385-3.187,5.254c-1.596,2.002-7.615,6.877-15.812,11.738c-3.455,4.119-7.173,7.896-10.976,11.699
			c-6.05,6.049-21.039,12.613-24.509,13.572c-4.023,1.111-11.114,3.137-17.996,9.393c-3.434,3.881-7.936,8.584-10.119,12.16
			c-0.481,1.041,1.134,3.916,0.166,7.607c-0.501,2.652-2.248,4.201-3.695,5.021c0,0-0.604,0.668-1.689,2.004
			c-1.086,1.338-2.895,2.205-4.673,2.59c-1.78,0.381-4-0.268-4.712-0.744c-0.711-0.479-2.326-2.068-2.036-2.633
			c0,0,1.721-0.418,2.562-0.85c1.124-0.576,1.882-1.51,1.972-2.207c-0.603-1.088-0.268-3.447,0.415-4.428
			c-0.823-0.83-1.813-2.441-1.572-3.549c-2.307-0.32-3.309-2.188-3.521-3.068c-1.898,0.166-4.178-0.367-5.36-2.309
			c-2.273,0.088-2.96,2.744-2.865,4.457c0,0-0.886-0.162-1.356-0.297c-3.126-0.896-4.638-3.732-4.309-6.717
			c0.376-3.43,2.598-5.752,5.332-6.477c2.733-0.727,3.172-0.367,4.375-0.393c0,0,0.729-1.092,1.668-1.693
			c0.939-0.604,3.101-1.439,5.179-1.059l1.224,0.471c1.501-1.035,4.243-0.656,5.302,0.15c1.061,0.807,1.916,1.754,2.285,2.754
			c4.489-4.314,18.092-23.555,20.228-27.852c0.03-0.104,0.069-0.203,0.1-0.307c0,0-1.862-0.609-4.114-0.752
			c-2.251-0.139-7.388,1.33-9.39,2.447c-2.004,1.121-2.272,1.377-2.272,1.377c-0.682,3.109-2.008,8.443-5.233,10.58
			c-3.223,2.135-5.16,2.068-7.991,2.125l-0.526,0.006c1.389-1.391,0.88-4.283,0.695-5.26c-0.371-1.934-1.886-5.098-1.886-5.098
			s-1.721,1.158-2.43,2.166c-0.56,0.799-1.924,2.734-1.758,4.42c0.094,0.975,1.078,2.803,1.979,4.236
			c-5.382,0.381-10.282,0.475-15.204-2.902c-0.657-0.395-0.964-1.246-1.092-2.014c0.263-4.615,3.858-8.314,5.917-12.168
			c-1.143-0.291-1.165-1.777-1.275-2.955c-0.566-6.008,4.146-13.389,6.783-16.232c2.638-2.846,7.373-8.371,17.978-13.838
			c0,0,3.315-1.801,5.14-2.381c-0.902-0.986-3.04-1.545-4.554-1.256c-2.663,0.508-9.992,2.377-15.117-0.85
			c-3.881-2.346-5.636-5.018-6.457-9.871c-0.801-5.933,0.884-12.465,5.149-17.076c4.04-4.935,9.999-7.933,16.507-10.015
			c16.522-5.135,37.309-8.17,67.828-17.324c27.421-8.227,74.979-27.497,97.441-41.014c4.401-2.729,9.136-5.845,13.326-8.847
			C209.408,9.21,205.248,13.844,199.596,18.12z"/>
		<path fill="#005488" d="M180.438,124.889c0.122,0.285,0.375,0.875,0.375,0.875l0.032,0.072c0.291,0.68,0.671,1.094,1.156,1.264
			c0.726,0.256,1.795,0.023,3.092-0.664c2.525-1.34,3.729-2.906,4.13-3.848c-0.762,0.184-4.011,1.355-4.021,1.359
			C183.632,124.489,181.926,124.999,180.438,124.889z"/>
		<path fill="#005488" d="M195.127,103.882l-6.519,3.46c0,0-0.575,0.629-0.77,0.844c-1.486,0.271-2.878,0.746-4.215,1.455
			c-4.24,2.252-8.531,6.82-8.531,11.193c0,1.766,0.51,2.99,1.149,3.846l-4.117,2.182l-0.449,1.23
			c-0.636,1.74-1.369,3.404-2.928,4.713c0-2.922,0-4.654,0-6.105c0.635-0.334,2.88-1.527,2.88-1.527v-8.41l-17.248,9.156
			c0,0,0,6.174,0,7.436c-1.12-1.533-4.101-5.609-4.101-5.609l-4.942,2.625c0,0-0.861,2.102-2.017,4.916l-0.221-3.373l-39.195,20.746
			v1.24c-1.949,0.016-4.297,0.76-7.094,2.242l-13.65,7.248v8.408c0,0,1.171-0.621,2.335-1.238c0,2.35,0,3.166,0,4.982
			c-2.307-3.158-7.233-9.898-7.233-9.898l-4.945,2.623c0,0-2.742,6.686-4.918,11.99c0-1.402,0-9.033,0-9.033l-6.779,3.596
			c0,0-0.549,0.746-0.62,0.84c-1.537,0.242-3.177,0.828-4.968,1.781c-6.622,3.516-11.955,11.797-11.955,16.313
			c0,2.896,1.241,5.238,3.495,6.592c3.039,1.83,7.406,1.484,11.978-0.943c1.521-0.807,3.063-1.918,4.597-3.291
			c0.278,0.043,0.739,0.115,0.739,0.115l35.684-18.939c0,0,0-5.861,0-7.236c1.243-0.762,2.353-1.523,3.336-2.289v8.039l17.251-9.158
			v-8.41c0,0-1.407,0.748-2.688,1.428c0-0.711,0-1.354,0-1.947l5.495-2.916c0,0,0.145-0.465,0.255-0.811c0,1.201,0,2.039,0,2.676
			c-0.489,0.258-2.624,1.393-2.624,1.393v8.41l59.659-31.674c0,0,0.983-1.063,1.56-1.689c1.409-0.205,2.846-0.707,4.425-1.547
			c6.862-3.643,9.299-8.998,9.299-12.479c0-2.094-0.668-3.455-1.409-4.33C195.127,114.313,195.127,103.882,195.127,103.882z
			 M186.343,129.872c-1.624,0.861-3.05,1.314-4.441,1.408c-0.438,0.475-1.828,1.98-1.828,1.98l-32.595,17.299v-4.098
			c0,0,1.209-0.641,1.823-0.969c-0.05-0.078-0.052-0.08-0.104-0.162c-1.12,0.596-4.381,2.324-4.845,2.572
			c-0.033,0.082-0.066,0.166-0.104,0.262c0.057-0.033,1.82-1.02,1.82-1.02v4.164l-22.571,11.986v-4.098c0,0,1.917-1.016,2.624-1.393
			c0-1.008,0-7.854,0-10.521c-2.129,1.527-2.809,3.227-3.557,5.609l-0.188,0.586l-3.779,2.006l0.278-4.52
			c-0.606,0.324-1.794,0.955-2.315,1.232c0,1.018,0,8.072,0,10.627c0.514-0.27,2.688-1.426,2.688-1.426v4.098l-13.441,7.135v-4.098
			c0,0,1.704-0.904,2.368-1.258c0-1.018,0-8.072,0-10.629c-0.146,0.078-0.638,0.338-1.136,0.605
			c0.336,0.506,0.519,1.117,0.519,1.787c0,4.336-5.793,8.322-10.654,10.9c0,0-0.616,0.328-1.122,0.598c0,0.639,0,1.688,0,3.033
			c0.621-0.328,2.879-1.529,2.879-1.529v4.1L75.46,188.454v-4.096c0,0,1.209-0.641,1.824-0.969c-0.052-0.08-0.054-0.082-0.104-0.162
			c-1.217,0.645-4.306,2.287-4.845,2.572c-0.03,0.08-0.064,0.164-0.1,0.258c0.063-0.035,1.817-0.992,1.817-0.992v4.139l-9.5,5.043
			c0,0-0.697-0.109-1.023-0.16c-1.637,1.553-3.274,2.785-4.873,3.633c-3.909,2.076-7.686,2.447-10.104,0.994
			c-1.659-0.996-2.571-2.76-2.571-4.961c0-3.889,5.152-11.557,10.944-14.631c1.91-1.014,3.59-1.559,5.117-1.662
			c0.3-0.41,0.854-1.162,0.854-1.162l3.598-1.908v7.699l-2.819,1.492l-0.779-0.961c-0.683-0.842-1.458-1.795-4.464-0.201
			c-2.2,1.17-3.203,1.703-3.203,8.021c0,1.789,0.003,3.963,0.241,4.699c0.243-0.053,0.738-0.217,1.679-0.719
			c2.787-1.477,4.68-3.717,5.785-6.846l0.195-0.549l3.813-2.027c0,0,0,2.768,0,3.695c0.064-0.064,0.099-0.111,0.116-0.146
			l7.762-18.922l2.879-1.527c0,0,6.963,9.527,7.936,10.859c0.252-0.133,1.228-0.65,1.767-0.938c0-1.018,0-8.072,0-10.627
			c-0.304,0.16-2.335,1.24-2.335,1.24v-4.098l12.639-6.711c3.631-1.928,6.355-2.471,8.106-1.631v-2.387l35.583-18.832l0.536,8.127
			l-3.115,1.654l-0.673-1.424c-0.428-0.904-0.732-1.328-1.02-1.418c-0.271-0.084-0.963-0.078-2.613,0.795c0,1.006,0,8.086,0,10.645
			c0.297-0.158,2.805-1.496,2.805-1.496c1.305-0.689,1.682-1.039,1.766-1.211l7.76-18.918l2.877-1.529c0,0,6.968,9.529,7.938,10.861
			c0.387-0.205,0.525-0.279,0.807-0.428c0-1.02,0-8.074,0-10.629c-0.211,0.111-2.176,1.154-2.176,1.154v-4.096l13.44-7.135v4.098
			c0,0-2.137,1.135-2.881,1.531c0,1.018,0,8.072,0,10.629c0.706-0.375,1.376-0.73,1.376-0.73c3.2-1.701,4.346-4.248,5.245-6.713
			l0.198-0.543c0,0,6.035-3.195,6.347-3.361c-0.553-0.09-1.072-0.273-1.531-0.6c-0.676-0.482-1.48-1.465-1.48-3.404
			c0-3.145,3.232-7.236,7.519-9.508c1.343-0.715,2.749-1.152,4.275-1.361c0.312-0.338,1-1.096,1-1.096l3.431-1.82v7.49
			c0,0-0.814,0.432-0.924,0.49c0.343,0.127,0.66,0.297,0.942,0.523c0.923,0.742,1.39,1.928,1.39,3.521
			C194.631,122.258,192.068,126.833,186.343,129.872z M105.149,166.729c0.403-0.357,0.779-0.717,1.125-1.074
			c0,0.164,0,0.322,0,0.477C106.124,166.211,105.64,166.469,105.149,166.729z M62.525,185.188c-0.148,0.08-0.945,0.502-0.945,0.502
			l-0.442,1.25c-0.829,2.346-2.112,4.043-3.997,5.275c-0.008-0.586-0.008-1.205-0.008-1.775c0-2.615,0.181-4.268,0.553-5.057
			c0.184-0.387,0.451-0.65,1.637-1.281c1.119-0.594,1.635-0.637,1.768-0.637C61.139,183.506,62.086,184.647,62.525,185.188z
			 M138.479,147.09c-0.57,1.393-0.957,2.334-1.018,2.477c-0.295,0.213-0.839,0.502-1.041,0.609l-0.008,0.004c0-2.85,0-4.436,0-6.045
			c0.002,0.004,0.003,0.006,0.006,0.012l1.525,3.227L138.479,147.09z M154.893,134.055c0.34-0.184,0.831-0.441,1.663-0.883
			c0,1.49,0,1.672,0,3.158C155.755,135.235,155.682,135.135,154.893,134.055z"/>
		<path fill="#005488" d="M95.785,166.438c2.817-1.494,2.817-2.326,2.817-2.873c0,0,0-1.473,0-2.064
			c-0.32,0.139-2.233,1.131-2.817,1.443C95.785,163.629,95.785,164.954,95.785,166.438z"/>
		<path fill="#005488" d="M188.832,114.18c-0.69-0.291-1.8-0.096-2.969,0.527c-1.301,0.689-2.357,1.637-2.938,2.346
			c0.119-0.041,4.799-1.752,6.392-2.098c0.013-0.002,0.023-0.002,0.037-0.006c-0.041-0.141-0.103-0.348-0.104-0.35
			C189.216,114.483,189.135,114.307,188.832,114.18z"/>
		<path fill="#005488" d="M146.517,142.657c0.294-0.154,0.326-0.172,0.626-0.332c-0.135-0.195-0.156-0.225-0.309-0.449
			C146.816,141.917,146.58,142.502,146.517,142.657z"/>
		<path fill="#005488" d="M95.809,166.434c-0.003,0-0.023,0.004-0.023,0.004c0,0.002,0,0.002,0,0.008
			C95.793,166.44,95.803,166.436,95.809,166.434z"/>
		<path fill="#005488" d="M74.497,180.553c0.18-0.094,0.313-0.164,0.625-0.332c-0.023-0.031-0.257-0.371-0.309-0.449
			C74.669,180.125,74.655,180.163,74.497,180.553z"/>
	</g>
	<g>
		<path fill="#231F20" d="M198.145,14.727c-22.462,13.518-70.02,32.788-97.441,41.014c-30.519,9.154-51.306,12.189-67.828,17.324
			c-6.508,2.083-12.467,5.081-16.507,10.015c-4.265,4.611-5.95,11.143-5.149,17.076c0.821,4.854,2.576,7.525,6.457,9.871
			c5.125,3.227,12.454,1.357,15.117,0.85c1.514-0.289,3.652,0.27,4.554,1.256c-1.825,0.58-5.14,2.381-5.14,2.381
			c-10.605,5.467-15.339,10.992-17.978,13.838c-2.637,2.844-7.349,10.225-6.783,16.232c0.111,1.178,0.133,2.664,1.275,2.955
			c-2.059,3.854-5.653,7.553-5.917,12.168c0.128,0.768,0.435,1.619,1.092,2.014c4.922,3.377,9.821,3.283,15.204,2.902
			c-0.902-1.434-1.885-3.262-1.979-4.236c-0.166-1.686,1.198-3.621,1.758-4.42c0.709-1.008,2.43-2.166,2.43-2.166
			s1.515,3.164,1.886,5.098c0.185,0.977,0.693,3.869-0.695,5.26l0.526-0.006c2.832-0.057,4.769,0.01,7.991-2.125
			c3.225-2.137,4.551-7.471,5.233-10.58c0,0,0.268-0.256,2.272-1.377c2.001-1.117,7.139-2.586,9.39-2.447
			c2.251,0.143,4.114,0.752,4.114,0.752c-0.031,0.104-0.07,0.203-0.1,0.307c-2.136,4.297-15.739,23.537-20.228,27.852
			c-0.369-1-1.225-1.947-2.285-2.754c-1.059-0.807-3.801-1.186-5.302-0.15l-1.224-0.471c-2.078-0.381-4.24,0.455-5.179,1.059
			c-0.939,0.602-1.668,1.693-1.668,1.693c-1.203,0.025-1.642-0.334-4.375,0.393c-2.733,0.725-4.955,3.047-5.332,6.477
			c-0.329,2.984,1.183,5.82,4.309,6.717c0.47,0.135,1.356,0.297,1.356,0.297c-0.095-1.713,0.592-4.369,2.865-4.457
			c1.182,1.941,3.461,2.475,5.36,2.309c0.212,0.881,1.214,2.748,3.521,3.068c-0.242,1.107,0.749,2.719,1.572,3.549
			c-0.683,0.98-1.018,3.34-0.415,4.428c-0.089,0.697-0.848,1.631-1.972,2.207c-0.841,0.432-2.562,0.85-2.562,0.85
			c-0.291,0.564,1.325,2.154,2.036,2.633c0.712,0.477,2.932,1.125,4.712,0.744c1.778-0.385,3.587-1.252,4.673-2.59
			c1.084-1.336,1.689-2.004,1.689-2.004c1.447-0.82,3.194-2.369,3.695-5.021c0.969-3.691-0.646-6.566-0.166-7.607
			c2.184-3.576,6.685-8.279,10.119-12.16c6.881-6.256,13.972-8.281,17.996-9.393c3.47-0.959,18.458-7.523,24.509-13.572
			c3.803-3.803,7.521-7.58,10.976-11.699c8.197-4.861,14.216-9.736,15.812-11.738c1.494-1.869,2.709-3.914,3.187-5.254
			c0.831-0.438,10.024-5.447,12.722-7.236c13.521-8.398,31.688-21.293,36.58-27.374c-3.335,2.387-7.128,4.392-12.931,7.772
			c8.063-7.23,24.257-30.963,27.385-37.568c6.612-5.285,10.771-8.662,12.251-12.6c-2.661,2.237-6.195,4.577-9.747,6.77
			c2.112-3.458,11.714-29.063,13.729-35.729c5.652-4.276,9.813-8.909,11.875-12.239C207.28,8.882,202.546,11.998,198.145,14.727z
			 M13.695,181.776c-1.713,0.129-2.833,1.885-3.082,2.461c-0.252,0.572-0.423,1.557-0.321,2.307
			c-0.893-0.318-1.317-0.928-1.666-2.322c-0.35-1.395,0.395-3.367,1.708-4.311c0.917-0.662,2.2-1.178,3.616-1.316
			C13.95,178.594,13.637,179.971,13.695,181.776z M17.792,182.329c-0.31,0.73-0.363,1.236-0.363,1.754
			c-0.478-0.072-0.911-0.682-1.139-1.266c-0.455-1.15-0.51-2.537,0.573-4.275c1.084-1.738,3.146-2.652,4.344-2.703
			c0.81-0.039,1.445,0.137,2.119,0.443c0,0,0.328,0.785-0.107,1.961c-0.347,0.941-0.654,1.322-1.119,1.66
			C20.243,179.651,18.211,181.34,17.792,182.329z M26.076,203.309c-0.912-0.02-1.661-0.293-2.263-0.742
			c1.324-0.521,3.46-1.641,3.57-3.895c0.435-0.426,1.93-0.594,2.494-0.283c0.56,0.307,1.218,1.113,1.148,1.711
			C30.451,201.458,28.259,203.458,26.076,203.309z M34.607,186.866c-0.111,1.484,0.347,3.711,0.616,5.879
			c0.157,1.258-0.469,3.121-0.989,3.969c-0.154,0.254-0.896,1.363-1.658,1.777c-0.351-1.1-1.853-2.053-2.655-2.252
			c-0.642-0.162-2.297,0.174-2.799,0.594c-0.688-0.791-0.248-2.236,0.7-3.074c0.947-0.834,2.216-0.854,2.683-0.781
			c0.468,0.068,1.139,0.408,1.739,0.557c-0.066-0.828-0.844-2.176-2.409-2.346c0.521-3.619-2.131-5.93-2.131-5.93
			c0.467-0.5,1.462-2.213,0.335-3.844c0,0-0.163,0.984-0.758,1.492c-0.597,0.512-2.014,1.053-3.181,0.709
			c-0.603-0.32-1.806-1.008-1.943-1.615c0.849,0.359,1.988-0.705,2.468-1.316c0.766-1.293,0.945-2.764,0.901-4.262
			c0.592-0.48,1.362-0.596,2.07-0.311c1.802,0.744,2.289,2.172,2.476,3.852c0.767,0.389,0.744,0.689,1.306,1.254
			c0,0,4.744-5.578,6.044-6.924l0.11,4.449l5.554-2.643C42.626,177.084,36.891,184.243,34.607,186.866z M28.639,160.887
			c-1.189,0.813-2.867,0.887-2.867,0.887c0.747-2.861-1.59-8.342-2.887-10.184l0.799-0.523c1.146,1.318,3.258,5.406,3.261,8.975
			c0,0,0.889-0.26,1.46-0.936c2.506-2.957,3.428-8.432,3.045-13.721c0,0-3.371,0.928-5.712,1.988
			c-3.771,1.711-8.621,5.734-9.807,8.051c-0.959,1.457-1.979,3.215-1.69,4.98c0.143,0.875,0.509,1.824,0.509,1.824
			c-2.957-0.084-6.964-1.385-8.232-2.6c-1.27-1.217,0.328-3.822,1.179-5.574c1.368-2.268,3.052-4.172,4.895-5.945
			c1.432-0.555,3.693,0.387,4.303,0.801c0.395,0.266,0.931,0.873,0.931,0.873c4.445-3.084,9.707-5.238,15.217-6.295
			C34.474,148.848,32.946,157.946,28.639,160.887z M25.091,150.11c1.351-1.035,3.93-1.979,4.933-2.422
			c0.643,3.26-0.456,7.596-2.005,10.541C28.134,155.506,26.42,151.84,25.091,150.11z M77.731,143.823
			c-10.269,2.975-16.364,5.465-19.275,6.984c-2.911,1.52-6.8,4.766-6.8,4.766s2.62-5.428,6.558-7.979
			c2.114-1.367,7.14-3.674,10.826-4.637c13.541-3.543,36.626-12.561,44.347-16.621C105.716,132.098,87.79,140.915,77.731,143.823z
			 M105.232,115.159l3.463,8.809l-13.544-1.117c0,0-11.27,8.945-17.177,13.123l8.313-14.119l-14.843-0.857
			c0,0,14.721-5.238,20.883-7.359l6.914-10.708l2.904,6.724l14.396-6.248L105.232,115.159z M147.977,102.527l-9.725-1.007
			l-14.494,12.512l6.168-11.167l-9.694-1.16l15.039-7.076l4.634-8.255l3.453,4.812l10.988-5.595l-9.27,9.818L147.977,102.527z
			 M157.902,73.61c-23.287,11.591-64.944,26.264-88.785,33.792c-7.714,3.01-14.554,7.24-18.854,16
			c4.622-3.396,11.535-4.861,12.908-5.279c-1.667,1.238-9.215,6.629-12.759,15.555c1.785-1.141,6.477-4.111,10.985-4.686
			c-2.129,1.967-7.068,8.5-8.739,12.262c0,0,3.513-2.088,4.829-2.348c0,0-2.064,4.047-3.372,6.232
			c-7.832-1.828-13.88,0.131-17.98,2.828c0.043-1.828-0.245-3.357-0.509-5.223c0.442-0.27,1.902-0.711,3.03-1.262
			c-0.981-0.195-2.343-0.375-3.4-0.229c-8.206,1.146-11.37,2.303-17.212,5.518c-1.18-1.09-4.888-1.939-6.792-0.811
			c-1.274-0.686-0.77-3.355-0.555-4.066c0.412-2.9,2.345-6.67,3.372-8.336c1.7-2.762,4.471-5.539,5.941-6.738
			c-0.018,0.523-0.7,2.566-0.346,3.551c0,0,0.097,0.203,0.282-0.012c0.366-0.84,0.961-1.707,1.296-2.318
			c1.25-2.316,4.156-6.84,12.397-10.764c-0.605,0.646-1.358,3.285-1.41,4.303c0,0,0.143,0.338,0.337,0.076
			c0.791-1.061,1.674-2.18,2.497-2.842c2.005-1.609,4.083-3.367,11.431-6.947c3.084-1.504,8.022-3.168,11.821-4.355
			c4.676-1.639,10-3.136,13.888-4.25c27.329-7.832,80.88-25.294,106.156-41.381C175.893,64.522,165.745,69.707,157.902,73.61z
			 M80.599,97.513l-13.25-2.34l-16.978,10.275l8.237-11.729L40.971,92.03l23.337-7.292l7.838-8.917l3.129,5.947l15.83-5.022
			L76.609,88.528L80.599,97.513z M135.728,76.417l-14.354-0.52L103.016,88.65l8.965-13.336c0,0-11.54-0.306-15.738-0.232
			c7.346-1.669,15.671-5.388,22.228-7.574l7.445-10.138l3.416,6.05l14.932-6.263c-3.918,3.857-8.566,7.324-12.119,11.266
			L135.728,76.417z M175.762,47.412l3.091,7.358l-10.551-0.605l-15.844,13.859l6.79-12.048l-10.52-0.758l16.391-8.164l5.097-8.913
			l3.712,4.906l11.977-6.413L175.762,47.412z M174.877,32.496c-10.343,4.903-24.308,11.519-32.33,14.595
			c-12.94,4.959-43.952,19.009-82.407,27.646c-8.551,1.92-32.189,5.482-41.064,16.628c1.258-3.615,4.328-7.593,8.86-10.084
			c4.531-2.49,13.242-5.498,18.36-6.55c43.866-9.017,85.138-23.63,120.168-39.11c7.511-3.317,14.82-7.154,21.778-11.055
			C188.242,24.567,183.43,28.439,174.877,32.496z"/>
		<path fill="#231F20" d="M12.583,153.557c-0.165,0.902,0.216,1.826,0.513,1.984c-0.069-2.074,2.437-3.898,3.158-4.547
			c-0.613-0.67-1.377-0.932-1.843-1.018C13.385,151.286,12.748,152.653,12.583,153.557z"/>
		<path fill="#231F20" d="M22.965,133.997c-0.333,2.189-2.698,7.346-3.287,8.014c-0.792,0.33-2.722,0.607-2.722,0.607
			c1.07,0.9,3.543,0.93,4.011,0.846c0.327-0.416,0.709-1.262,0.709-1.262c1.542,0.654,3.936,0.238,5.111-1.059
			c1.664-1.842,1.199-3.744,0.509-5.328c1.37-0.629,3.43-0.605,3.43-0.605l0.319-0.395C27.718,133.86,23.513,133.795,22.965,133.997
			z M24.086,136.338c0.424-0.434,1.434,0.039,1.84,0.734c0.493,0.846,0.668,2.088-0.307,3.063c-0.894,0.889-2.42,1.041-3.148,0.555
			c0.141-0.322,0.281-0.656,0.415-0.996c0.411,0.309,0.977,0.412,1.513,0.221c0.826-0.297,1.264-1.178,0.979-1.969
			c-0.228-0.629-0.843-1.008-1.5-0.984c0.067-0.211,0.128-0.408,0.185-0.598C24.069,136.356,24.078,136.344,24.086,136.338z"/>
		<path fill="#231F20" d="M200.56,125.047c-2.225,0-4.027,1.801-4.027,4.025s1.803,4.027,4.027,4.027
			c2.224,0,4.028-1.803,4.028-4.027S202.783,125.047,200.56,125.047z M200.56,132.237c-1.747,0-3.164-1.416-3.164-3.164
			c0-1.746,1.417-3.166,3.164-3.166c1.748,0,3.166,1.42,3.166,3.166C203.726,130.821,202.308,132.237,200.56,132.237z"/>
		<path fill="#231F20" d="M202.214,128.139c0-0.754-0.612-1.365-1.366-1.365h-1.942v4.6h0.865v-1.869h0.618l0.872,1.869h0.955
			l-0.909-1.947C201.834,129.239,202.214,128.733,202.214,128.139z M200.848,128.643h-1.077v-1.008h1.077
			c0.277,0,0.503,0.225,0.503,0.504C201.351,128.417,201.125,128.643,200.848,128.643z"/>
	</g>
</g>
</svg>
