<svg xmlns="http://www.w3.org/2000/svg" viewBox="0 0 2240 212.40001"><defs><style>.cls-1{fill:#00468a;}</style></defs><title>New York Islanders wordmark logo</title><path class="cls-1" d="M74.3,121.3V0h31.8V212.3H74.3L31.8,91.1V212.3H0V0H31.8Z"/><path class="cls-1" d="M138.1,212.4V0H244.3V31.8H170V90.2h42.5V122H170v58.4h74.3v31.8H138.1Z"/><path class="cls-1" d="M359.3,87.7,365.9,0h31.8L381.8,212.3H351.7l-15.3-77.5L321,212.4H290.9L275,0h31.8l6.6,87.7L330.8,0h11Z"/><path class="cls-1" d="M549.7,55.2,569,0h33.8L565.6,106.2V212.4H533.8V106.2L496.6,0h33.8Z"/><path class="cls-1" d="M653.9,0h53.9l26.1,26.1V186.2l-26.1,26.1H653.9l-26.1-26.1V26.2Zm48.2,180.5V31.9H659.6V180.5Z"/><path class="cls-1" d="M765.4,0h80l26.1,26.1v79.4l-26.1,26.1,26.1,80.7H838l-26.1-80.7h-14.6v80.7h-31.8V0Zm74.3,99.8V31.9H797.2V99.8Z"/><path class="cls-1" d="M972,0h37.4l-49,80.7,49,131.6h-34l-36.3-97-4,6.8v90.2h-31.8V0h31.8V60.7Z"/><path class="cls-1" d="M1112.80005,212.4V0h31.80005V212.3h-31.80005Z"/><path class="cls-1" d="M1202.2,0h53.9l26.1,26.1V59.6H1250.3999V31.8h-42.5V90.2h48.2l26.1,26.1v69.9l-26.1,26.1h-53.9l-26.1-26.1V146.1h31.8v34.4h42.5V122.1H1202.2L1176.1,96V26.2Z"/><path class="cls-1" d="M1345.6,0V180.5h74.3v31.8H1313.70007V0Z"/><path class="cls-1" d="M1478.80005,0h42.5l31.80005,212.3h-32.30005l-4.69995-31.8h-32.30005l-4.69995,31.8H1447Zm10,148.7h22.5L1500,73.5Z"/><path class="cls-1" d="M1657,121.3V0h31.80005V212.3H1657L1614.5,91.1V212.3H1582.7V0H1614.5Z"/><path class="cls-1" d="M1720.80005,0h80l26.1,26.1V186.2l-26.1,26.1h-80ZM1795.1,180.5V31.9h-42.5V180.5Z"/><path class="cls-1" d="M1858.6,212.4V0h106.19995V31.8h-74.3V90.2h42.5V122h-42.5v58.4h74.3v31.8H1858.6Z"/><path class="cls-1" d="M1996.4,0h79.99988L2102.5,26.1v79.4l-26.1001,26.1L2102.5,212.3H2069l-26.1-80.7h-14.6v80.7H1996.5V0ZM2070.7,99.8V31.9h-42.5V99.8Z"/><path class="cls-1" d="M2160,0h53.8999L2240,26.2V59.7h-31.8V31.9h-42.5V90.3h48.19995L2240,116.4v69.8l-26.1001,26.1H2160l-26.1001-26.1V146.1H2165.7v34.4h42.5V122.1H2160L2133.8999,96V26.2Z"/></svg>