<?xml version="1.0" encoding="utf-8"?>
<!-- Generator: Adobe Illustrator 14.0.0, SVG Export Plug-In . SVG Version: 6.00 Build 43363)  -->
<!DOCTYPE svg PUBLIC "-//W3C//DTD SVG 1.1//EN" "http://www.w3.org/Graphics/SVG/1.1/DTD/svg11.dtd">
<svg version="1.1" id="Layer_1" xmlns="http://www.w3.org/2000/svg" xmlns:xlink="http://www.w3.org/1999/xlink" x="0px" y="0px"
	 width="250px" height="250px" viewBox="0 0 250 250" enable-background="new 0 0 250 250" xml:space="preserve">
<g>
	<g>
		<path fill="#B31E3B" d="M128.683,245c-1.51,0-6.074,0-7.509-3.258c-0.786-1.794-0.325-3.769,1.374-5.879
			c1.468-8.236,2.16-20.717-0.732-24.223c-0.416-0.489-0.802-0.683-1.403-0.683c-0.773,0-2.551,0.35-5.739,2.72
			c-0.103,0.082-0.21,0.147-0.325,0.214c-0.958,0.526-9.499,5.188-14.884,5.191c-3.052,0-4.542-1.407-5.249-2.583
			c-0.724-1.21-0.88-2.597-0.708-4.016c-0.732,0.617-1.563,1.309-2.493,2.106c-0.275,0.23-0.592,0.42-0.938,0.543
			c-0.987,0.35-24.321,8.61-34.334,8.61h-0.024c-2.357,0-4.023-0.433-5.2-1.366c-0.864-0.567-2.855-2.217-3.333-5.517
			c-0.872-6.076,4.032-14.3,14.58-24.428c-0.551-0.275-1.555-0.666-3.316-1.021c-2.39-0.419-3.933-1.896-3.974-3.842
			c-0.058-2.596,1.777-4.41,11.469-6.948c-4.83-0.37-11.791-0.745-21.824-1.049c-0.284,0.024-0.852,0.065-1.543,0.065
			c-4.838,0-6.45-1.95-6.952-3.583c-0.955-3.114,1.349-6.311,8.17-11.136c-2.041-1.193-7.174-3.419-19.837-6.463
			c-0.625,0.173-1.464,0.35-2.341,0.35c-1.896,0-3.443-0.848-4.25-2.329c-1.362-2.477-0.387-6.006,3.25-11.757
			c-0.115-0.584-0.979-3.237-7.726-8.079c-2.361-1.362-7.372-4.806-6.294-8.911c1.144-4.307,7.594-4.891,13.761-4.891
			c0.629,0,1.292,0.008,1.975,0.024c0.152,0.004,0.321,0.021,0.478,0.054c0.016,0,1.279,0.222,2.941,0.222
			c1.728,0,4.834-0.255,6.188-1.991c1.028-1.316,0.926-3.447,0.568-5.225c-1.67-1.81-2.197-3.513-1.576-5.084
			c0.218-0.535,1.106-2.25,3.69-2.25c1.975,0,6.101,0.914,20.569,8.001c0.691,0.198,2.995,0.79,5.126,0.79
			c1.646,0,2.254-0.378,2.333-0.473c0.062-0.086,0.206-0.695-0.234-2.086c-0.09-0.288-0.14-0.592-0.14-0.896
			c0-4.069,2-8.454,6.364-8.454c2.115,0,4.422,1.099,7.063,3.353c1.135,0.522,3.604,1.481,5.418,1.481
			c0.588,0,0.864-0.107,0.917-0.148c0,0,0.679-1.176-0.93-5.562c-0.042-0.099-2.954-7.911-11.659-12.955
			c-1.708-0.917-4.624-2.982-3.966-5.944c0.695-3.168,4.538-3.579,6.508-3.711c1.024-0.321,5.397-1.868,8.828-5.891
			c0.058-0.498-0.198-1.892-1.876-4.081c-0.07-0.095-0.132-0.181-0.189-0.276c-0.058-0.09-5.512-9.063-11.412-14.69
			c-0.14-0.123-0.259-0.271-0.37-0.419c-2.522-3.538-1.637-5.253-1.349-5.817c0.596-1.148,1.744-1.827,3.093-1.827
			c1.448,0,3.365,0.724,8.302,4.295c1.296,0.461,5.973,2.007,9.98,2.007c1.243,0,3.456-0.173,4.271-1.3
			c0.765-1.069,0.65-3.365-0.309-6.319c-1.209-2.785-2.875-7.75-0.967-10.675c0.872-1.333,2.271-2.061,3.958-2.061
			c1.432,0,3.036,0.519,5.039,1.629c0.292,0.062,0.811,0.144,1.465,0.144c2.752,0,4.727-1.39,6.019-4.258
			c0.354-1.082,1.736-5.047,7.269-19.532C114.792,9.994,117.154,5,121.038,5c4.163,0,5.553,5.233,6.078,7.199
			c0.198,0.794,0.403,1.654,0.584,2.616c1.045,3.628,3.514,9.988,5.776,11.914c0.106,0.095,0.23,0.23,0.329,0.333
			c0.013,0.012,1.136,1.238,2.464,1.238c0.07,0,0.148,0,0.227-0.013c1.012-0.728,2.986-1.904,5.052-1.904
			c1.596,0,2.986,0.674,3.957,1.888c1.852,2.333,1.954,6.446,0.329,13.325c-0.181,0.962-0.173,2.879,0.366,3.534
			c0.05,0.062,0.193,0.234,0.827,0.234c0.818,0,2.72-0.309,6.344-2.382c0.872-0.477,8.203-4.39,12.794-4.39
			c3.089,0,4.385,1.654,4.896,2.637c1.456,2.855,0.086,6.775-4.748,13.498c-2.953,8.495-5.85,21.885-3.176,25.834
			c0.239,0.358,0.507,0.625,0.976,0.773c0.88-0.44,1.896-0.811,2.838-0.811c1.366,0,2.555,0.732,3.106,1.913
			c0.93,1.995,0.082,3.974-3.797,8.668c-2.119,5.689-3.995,14.752-1.77,18.022c0.424,0.609,1.148,1.308,3.127,1.308
			c0.757,0,1.621-0.107,2.579-0.321c3.057-2.065,16.616-10.963,23.987-10.963c2.859,0,4.423,1.238,5.225,2.271
			c1.362,1.756,1.642,4.184,0.827,7.405c-0.074,0.481-0.074,1.539,0.379,2.069c0.444,0.526,1.53,0.609,2.147,0.609
			c1.991,0,5.829-0.757,12.884-4.369c0.396-0.209,2.382-1.144,4.263-1.144c1.703,0,3.118,0.765,3.883,2.11
			c1.185,2.098,0.535,4.92-2.172,9.433c-0.132,0.222-0.321,0.453-0.502,0.633c-0.346,0.325-0.699,0.839-0.831,1.168
			c0.313,0.23,1.275,0.765,3.785,1.127c0.197,0.024,0.432,0.086,0.621,0.156c0.021,0.008,2.357,0.818,8.33,1.193
			c0.396-0.025,1.226-0.074,2.201-0.074c1.757,0,7.104,0,8.166,3.777c1.069,3.78-3.341,7.092-8.269,10.115
			c-4.196,2.547-10.523,7.64-10.808,10.486c-0.021,0.197-0.012,0.379,0.189,0.626c6.121,3.303,8.841,6.499,8.104,9.498
			c-0.976,3.929-6.595,3.929-8.997,3.929c-1.646,0-3.604-0.095-5.842-0.296c-1.95,0.008-4.451,0.563-5.315,1.777
			c-0.666,0.946-0.419,2.477-0.032,3.727c0.979,1.387,3.118,4.999,1.571,8.162c-1.099,2.238-3.493,3.378-7.108,3.378
			c-1.284,0-2.781-0.141-4.456-0.424c-3.364,0.452-6.98,1.678-7.672,2.607c0.115,0.264,0.567,1.087,2.345,2.436
			c0.074,0.041,0.148,0.111,0.214,0.173c0.021,0.017,1.917,1.728,4.163,2.954c0.971,0.283,2.115,0.963,2.971,2.155
			c1.304,1.818,1.657,4.36,1.053,7.562c0.21,2.226,1.069,7.372,3.003,9.943c0.041,0.053,0.083,0.119,0.124,0.177
			c1.934,3.003,6.187,10.449,3.842,14.769c-0.567,1.028-1.995,2.772-5.208,2.772c-3.78,0-9.572-2.443-18.216-7.692
			c-0.189-0.124-0.374-0.243-0.567-0.358c0.485,1.378,0.744,3.122-0.104,4.669c-0.481,0.889-1.715,2.37-4.541,2.378
			c-2.309,0-6.817-0.855-19.355-7.939c-1.3,1.411-3.267,2.871-5.817,2.871c-2.259,0-4.34-1.114-6.22-3.323
			c-1.284-0.585-4.682-1.975-7.746-1.975c-2.489,0-4.817,0.707-4.995,5.903c-0.012,0.103-0.012,0.209-0.028,0.316
			c-0.732,5.109-1.078,14.415,1.012,18.002c0.777,0.938,2.72,3.67,1.465,6.5c-1.551,3.546-6.45,3.546-8.071,3.546
			c-0.757,0-1.597-0.033-2.484-0.099C131.057,244.901,129.934,245,128.683,245"/>
		<path fill="#FFFFFF" d="M54.114,119.376c0,0,14.25,4.397,11.14-5.451c0,0,0-10.354,8.804-2.583c0,0,15.542,7.767,9.84-7.771
			c0,0-3.102-8.8-12.95-14.501c0,0-6.73-3.624,1.555-4.134c0,0,6.22-1.559,10.877-7.261c0,0,1.802-2.423-2.082-7.479
			c0,0-5.632-9.318-11.897-15.299c0,0-5.184-7.252,6.22,1.041c0,0,24.329,9.317,18.117-9.331c0,0-5.694-12.942,4.146-7.249
			c0,0,7.754,2.415,11.379-5.862c0,0,0.395-1.559,7.257-19.516c0,0,4.583-12.802,7.713-1.012c0.193,0.753,0.391,1.604,0.58,2.571
			c0,0,2.902,10.19,6.728,13.46c0,0,2.592,3.106,6.22,2.065c0,0,9.322-7.758,5.176,9.849c0,0-2.584,12.942,11.913,4.657
			c0,0,23.819-12.946,8.804,7.763c0,0-10.885,30.562,1.037,31.084c0,0,6.729-4.143-1.037,5.171c0,0-10.885,27.978,7.767,23.301
			c0,0,30.039-20.717,25.901-4.653c0,0-2.592,12.954,19.672,1.551c0,0,8.285-4.134,2.073,6.22c0,0-6.294,5.858,4.591,7.401
			c0,0,2.522,0.975,9.388,1.398c0,0,16.579-1.551,0.519,8.289c0,0-17.089,10.351-10.877,16.061c0,0,18.644,9.832-4.656,7.755
			c0,0-11.914-0.511-8.285,9.853c0,0,7.248,9.313-7.249,6.73c0,0-18.257,2.064-7.187,10.411c0,0,2.328,2.136,5.113,3.567
			c0,0,3.423,0.403,2.073,6.729c0,0,0.567,7.857,3.628,11.914c0,0,16.053,24.864-15.541,5.693c0,0-6.336-4.122-7.249-3.624
			c0,0-2.147,0.9,1.547,5.188c0,0,8.293,12.942-21.228-4.163c0,0-4.146,7.791-9.321,1.045c0,0-17.094-8.804-17.607,6.22
			c0,0-2.073,14.506,1.551,20.19c0,0,5.689,6.212-6.734,5.184c0,0-11.912,1.547-6.21-4.665c0,0,7.765-40.899-12.432-25.893
			c0,0-23.301,12.959-14.497-3.628c0,0,5.175-7.755-9.33,4.665c0,0-32.442,11.543-36.811,7.635c0,0-9.799-5.043,11.955-25.761
			c0,0,4.262-3.788-5.183-5.705c0,0-8.795-1.547,15.023-6.727c0,0,21.754-3.628-30.039-5.175c0,0-14.497,1.547,3.11-10.354
			c0,0,7.249-3.633-23.3-10.873c0,0-8.812,3.62-0.519-9.322c0,0,2.834-3.604-8.812-11.913c0,0-15.525-8.812,7.771-8.289
			c0,0,16.575,3.105,12.951-11.4C35.219,114.444,25.625,105.394,54.114,119.376"/>
	</g>
	<path fill="#213970" d="M122.547,159.293l3.097-14.036l3.503,13.892L122.547,159.293z M110.259,178.57h8.207l2.312-11.182h9.336
		l2.72,11.182h7.964l-10.219-56.429h-9.427L110.259,178.57z"/>
	<path fill="#213970" d="M91.484,145.906V165.2c0,1.941,0.131,4.641,2.143,4.641c2.526,0,2.526-2.941,2.526-4.793v-6.323
		l7.915,0.074c0,10.725,0.572,19.599-9.762,19.788c-14.472,0.283-11.342-16.365-11.732-25.227l-0.239-7.61"/>
	<path fill="#213970" d="M82.573,154.87l-0.239-8.202c0.395-8.857-2.353-26.037,12.066-24.86c9.988,0.831,9.762,9.083,9.762,19.787
		l-7.898,0.083v-6.315c0-1.867,0-4.801-2.534-4.801c-2.016,0-2.147,2.707-2.147,4.637l-0.115,19.352"/>
	<path fill="#213970" d="M156.089,145.906V165.2c0,1.941,0.136,4.641,2.147,4.641c2.53,0,2.53-2.941,2.53-4.793v-6.323l7.898,0.074
		c0,10.721,0.58,19.599-9.762,19.788c-14.469,0.283-11.325-16.365-11.729-25.227l-0.227-7.61"/>
	<path fill="#213970" d="M147.175,154.87l-0.227-8.202c0.391-8.857-2.365-26.037,12.058-24.86c9.988,0.831,9.762,9.083,9.762,19.787
		l-7.902,0.083v-6.315c0-1.867,0-4.801-2.534-4.801c-2.008,0-2.139,2.707-2.139,4.637l-0.124,19.352"/>
	<polygon fill="#B31E3B" points="147.857,230.289 152.646,230.289 152.646,231.186 150.77,231.186 150.77,236.217 149.729,236.217 
		149.729,231.186 147.857,231.186 	"/>
	<polygon fill="#B31E3B" points="153.324,230.289 154.785,230.289 156.414,234.93 156.435,234.93 158.022,230.289 159.467,230.289 
		159.467,236.217 158.479,236.217 158.479,231.643 158.463,231.643 156.821,236.217 155.966,236.217 154.328,231.643 
		154.316,231.643 154.316,236.217 153.324,236.217 	"/>
</g>
</svg>
