<?xml version="1.0"?>
<svg xmlns="http://www.w3.org/2000/svg" xmlns:xlink="http://www.w3.org/1999/xlink" width="190.139" height="216" viewBox="0 0 190.139 216">
<g>
	<path fill="#FFFFFF" d="M95.056,4.674c-22.721,0-43.483,8.385-59.363,22.228H46.43c13.703-9.792,30.482-15.555,48.607-15.555
		c8.986,0,17.639,1.419,25.752,4.04l-10.54,11.515L73.158,67.418c-2.177-1.542-4.155-2.948-5.248-4.354
		c-3.088-3.969-6.615-10.143-9.701-12.789c-3.087-2.646-12.792-6.615-12.792-6.615c-7.938,6.174-18.521,12.347-26.9,11.906
		c-1.166-0.062-1.953-0.879-2.482-1.879c-0.249-0.472-0.438-0.982-0.586-1.475C8.568,64.967,4.66,79.56,4.66,95.067
		c0,27.253,12.063,51.688,31.138,68.262l-3.197,3.401L5.44,195.645l116.266-92.851l-25.143,3.485l54.179-48.474l-25.776,3.607
		l28.085-26.679c3.633,3.494,6.957,7.306,9.914,11.404l0.012,0.009c9.921,13.756,15.766,30.648,15.766,48.903
		c0,23.462-9.659,44.666-25.211,59.865c-0.237,1.436-0.475,2.859-0.697,4.226c-0.524,3.214-0.97,6.099-1.129,8.005
		c-0.441,5.293-3.088,9.703-8.379,10.586c-5.293,0.882-11.469,0.44-14.114-3.529c-2.646-3.969-5.733-8.379-7.939-11.024
		c-2.203-2.646-8.818-4.852-10.583-7.498c-1.765-2.646-3.087-7.938-5.292-10.584c-0.951-1.142-2.21-3.126-3.6-5.534l-3.332,2.644
		c2.318,4.313,4.561,8.16,6.05,9.946c2.205,2.647,3.528,7.939,5.292,10.584c1.764,2.647,8.38,4.852,10.585,7.498
		c0.836,1.004,1.8,2.263,2.819,3.654c-8.805,3.146-18.288,4.865-28.175,4.865c-11.998,0-23.404-2.53-33.721-7.078l-5.877,4.662
		c11.965,5.843,25.406,9.125,39.616,9.125c11.322,0,22.153-2.086,32.141-5.887c0.386,0.565,0.765,1.129,1.134,1.684
		c0.563,0.844,1.292,1.521,2.133,2.067c3.108,2.021,7.813,2.155,11.979,1.461c5.293-0.882,6.963-6.611,8.748-11.613
		c0.193-0.542,0.372-1.137,0.536-1.761c0.583-2.182,0.993-4.744,1.198-6.904c19.875-16.582,32.526-41.533,32.526-69.44
		C185.451,45.146,144.979,4.674,95.056,4.674z M66.939,130.178L50.3,147.891l-9.915,10.555c-17.79-15.349-29.05-38.057-29.05-63.396
		c0-11.495,2.319-22.449,6.513-32.419c8.345,0.327,18.817-5.792,26.688-11.915c0,0,9.704,3.97,12.791,6.616
		c3.087,2.646,6.615,8.82,9.703,12.79c0.486,0.626,1.148,1.252,1.925,1.89L37.813,106.03l42.57-6.472l-17.159,17.545l-15.95,16.311
		L66.939,130.178z"/>
	<g>
		<path fill="#8E8E91" d="M153.531,154.914c15.552-15.199,25.211-36.402,25.211-59.865c0-18.255-5.845-35.146-15.766-48.903
			l-0.012-0.009c0.008,0.011,0.017,0.022,0.023,0.034l-12.246,11.634v19.161L136.226,89.88
			c5.952,12.459,13.078,27.285,15.038,30.958c3.529,6.615,4.409,14.996,3.969,21.611
			C155.019,145.666,154.281,150.346,153.531,154.914z"/>
		<path fill="#8E8E91" d="M109.808,162.734c-1.764-2.645-3.087-7.937-5.292-10.584c-1.489-1.786-3.731-5.633-6.05-9.946
			l-37.149,29.47c10.316,4.548,21.723,7.078,33.721,7.078c9.887,0,19.37-1.719,28.175-4.865c-1.02-1.392-1.983-2.65-2.819-3.654
			C118.188,167.586,111.571,165.382,109.808,162.734z"/>
		<path fill="#8E8E91" d="M91.981,31.035h4.851v-4.134h13.417l10.54-11.515c-8.113-2.621-16.766-4.04-25.752-4.04
			c-18.125,0-34.904,5.763-48.607,15.555h45.552V31.035z"/>
		<path fill="#8E8E91" d="M47.273,133.414l15.95-16.311l-25.411,3.863V106.03l31.142-34.019c-0.776-0.638-1.438-1.264-1.925-1.89
			c-3.088-3.97-6.616-10.144-9.703-12.79c-3.087-2.646-12.791-6.616-12.791-6.616c-7.87,6.123-18.343,12.242-26.688,11.915
			c-4.193,9.971-6.513,20.925-6.513,32.419c0,25.339,11.26,48.047,29.05,63.396l9.915-10.555l-3.026,0.459V133.414z"/>
	</g>
	<g>
		<path fill="#003876" d="M128.33,181.258c-0.369-0.555-0.748-1.118-1.134-1.684c-9.987,3.801-20.818,5.887-32.141,5.887
			c-14.21,0-27.651-3.282-39.616-9.125l-4.032,3.2c13.075,6.772,27.92,10.601,43.661,10.601c12.51,0,24.454-2.421,35.395-6.812
			C129.622,182.779,128.893,182.102,128.33,181.258z"/>
		<path fill="#003876" d="M95.068,0C42.563,0,0,42.565,0,95.068c0,28.592,12.625,54.234,32.601,71.662l3.197-3.401
			C16.723,146.755,4.66,122.32,4.66,95.067c0-15.507,3.908-30.101,10.788-42.855c0.147,0.493,0.337,1.003,0.586,1.475
			c0.529,1,1.316,1.818,2.482,1.879c8.379,0.441,18.963-5.732,26.9-11.906c0,0,9.705,3.969,12.792,6.615
			c3.086,2.646,6.613,8.82,9.701,12.789c1.093,1.406,3.071,2.812,5.248,4.354l37.091-40.517H96.832v4.134h-4.851v-4.134H46.43
			H35.692C51.572,13.059,72.335,4.674,95.056,4.674c49.924,0,90.396,40.472,90.396,90.394c0,27.907-12.651,52.858-32.526,69.44
			c-0.205,2.16-0.615,4.723-1.198,6.904c23.31-17.326,38.412-45.07,38.412-76.344C190.139,42.565,147.572,0,95.068,0z"/>
		<path fill="#003876" d="M153.531,154.914c0.75-4.568,1.487-9.248,1.701-12.465c0.44-6.615-0.439-14.996-3.969-21.611
			c-1.96-3.673-9.086-18.499-15.038-30.958l-14.52,12.914v20.974l-19.908,15.793c1.39,2.408,2.648,4.393,3.6,5.534
			c2.205,2.646,3.527,7.938,5.292,10.584c1.765,2.646,8.38,4.852,10.583,7.498c2.206,2.646,5.294,7.056,7.939,11.024
			c2.646,3.97,8.821,4.411,14.114,3.529c5.291-0.883,7.938-5.293,8.379-10.586c0.159-1.906,0.604-4.791,1.129-8.005
			C153.057,157.773,153.294,156.35,153.531,154.914z"/>
	</g>
	<g>
		<polygon fill="#231F20" points="80.383,99.558 37.813,106.03 37.813,120.967 63.224,117.104 		"/>
		<polygon fill="#231F20" points="47.273,148.35 50.3,147.891 66.939,130.178 47.273,133.414 		"/>
		<polygon fill="#231F20" points="5.44,216 51.407,179.536 55.439,176.336 61.316,171.674 98.466,142.204 101.798,139.561 
			121.706,123.768 121.706,102.794 5.44,195.645 		"/>
		<polygon fill="#231F20" points="150.742,57.805 96.563,106.279 121.706,102.794 136.226,89.88 150.742,76.966 		"/>
		<path fill="#231F20" d="M162.965,46.138c-2.957-4.099-6.281-7.91-9.914-11.404l-28.085,26.679l25.776-3.607l12.246-11.634
			C162.981,46.16,162.973,46.149,162.965,46.138z"/>
		<path fill="#231F20" d="M157.172,179.495c-3.894,0-7.051,3.156-7.051,7.05c0,3.893,3.157,7.049,7.051,7.049
			c3.892,0,7.05-3.156,7.05-7.049C164.222,182.651,161.063,179.495,157.172,179.495z M157.172,192.084
			c-3.059,0-5.539-2.48-5.539-5.539s2.48-5.539,5.539-5.539c3.06,0,5.538,2.48,5.538,5.539S160.231,192.084,157.172,192.084z"/>
		<path fill="#231F20" d="M160.066,184.909c0-1.32-1.071-2.392-2.391-2.392l-3.4-0.001v8.058h1.512V187.3h1.084l1.528,3.274h1.668
			l-1.591-3.412C159.402,186.832,160.066,185.949,160.066,184.909z M157.676,185.789h-1.889v-1.76h1.889
			c0.484,0,0.88,0.394,0.88,0.88C158.556,185.395,158.16,185.789,157.676,185.789z"/>
	</g>
</g>
</svg>
