<svg xmlns="http://www.w3.org/2000/svg" viewBox="0.0 0.0 313.7275 265.58824" width="343.86742168334314" height="290.80975310329603"><defs><style>.cls-1{fill:#fedb00;}.cls-2{fill:#003087;}</style></defs><title>StLouisBlues1967</title><path class="cls-1" d="M66.84192,265.58824C28.7357,265.58824,0,247.422,0,223.33172c0-25.21522,30.60952-46.5173,66.84192-46.5173a66.80982,66.80982,0,0,1,27.24177,5.87946L10.14642,0H31.92465L49.85091,39.013c3.16714-1.59069,7.26005-4.46283,9.21022-9.2292,2.44721-5.97763,1.151-13.79067-3.8515-23.22237L51.72947,0h261.998L310.171,6.58991C293.326,37.80506,266.80612,38.92812,266.80612,38.92812c10.39495,1.20795,16.09322,5.40519,16.09322,5.40519S268.14118,66.81962,232.707,73.47119c8.71794.39554,25.28351,1.98528,25.28351,1.98528s-18.16482,23.77725-47.4018,28.25479l10.91046,3.5845s-28.13672,19.27413-59.84936,21.082l17.94617,10.27637s-24.24251,8.58846-48.21612,6.40447l10.89671,12.90949s-19.96465,1.49915-38.48089-3.78369l26.13482,51.90591a44.00883,44.00883,0,0,1,3.7448,17.24142c0,24.09028-28.73191,42.2565-66.83338,42.2565Z"/><path class="cls-2" d="M306.23887,4.46805H59.15693c15.72283,29.643-6.29965,38.6208-11.583,40.29068L29.061,4.46805H17.1162l86.89858,189.14056a63.17983,63.17983,0,0,0-37.17287-12.32614c-34.45059,0-62.37387,20.01161-62.37387,42.04973,0,22.049,27.92281,37.788,62.37387,37.788,34.442,0,62.36581-15.73894,62.36581-37.788a39.47845,39.47845,0,0,0-3.308-15.314L94.03387,145.57507c5.35635,2.496,18.65947,7.61479,37.94971,7.61479l-13.23814-15.68394s26.58728,8.80852,46.34941-1.51384L145.27724,124.191s32.868,2.21672,64.50616-15.739c0,0-6.21193-2.06068-18.81077-2.06068H101.88771l-2.653-5.77038h98.39s28.31691-.31775,49.62515-21.29923c0,0-17.39744-1.51432-26.048-1.51432H90.7439L87.24,70.17031H216.81059s34.0579-.36614,53.98461-23.43343c0,0-7.82679-4.86263-29.16254-4.86263H76.22429l-3.50386-7.63993H265.39711s25.04117-.48707,40.84179-29.76675Z"/></svg>