<?xml version="1.0" encoding="UTF-8" standalone="no"?>
<svg xmlns:rdf="http://www.w3.org/1999/02/22-rdf-syntax-ns#" xmlns="http://www.w3.org/2000/svg" height="163.95901" width="230.53479" version="1.1" xmlns:cc="http://creativecommons.org/ns#" xmlns:dc="http://purl.org/dc/elements/1.1/" viewBox="0 0 230.53479 163.95901"><path d="M218.1011,94.48856a26.48325,26.48325,0,0,0-7.39048-6.35033l-6.67881-3.83209,2.354-4.43429L195.54647,66.45952H192.864L171.18528,39.79907a13.93846,13.93846,0,0,0-10.94885-5.20069H150.492c-.82116-.657-2.18977-1.14964-4.59852-1.14964-6.13137,0-8.15689-.87593-9.25179-.87593,0-.05474,0-.05474-.05474-.10948,1.916-1.86129,5.146-5.63865,5.146-10.12769,0-11.16782-10.18243-16.31377-12.64592-17.35392A14.17063,14.17063,0,0,0,118.08335,0c-7.71894,0-18.0656,7.55471-18.22984,13.13861-2.73721,2.354-13.57657,12.208-15.27363,21.45977H72.75511a13.9384,13.9384,0,0,0-10.94885,5.20069L48.77713,55.78438a8.8521,8.8521,0,0,1-1.75181-1.75182L37.883,42.7005a2.79977,2.79977,0,0,0-2.24454-1.09488l-8.92329.38321a3.75561,3.75561,0,0,0-2.40876,6.51456L37.06187,60.54713a18.39278,18.39278,0,0,0,5.09121,3.39414l-1.97079,2.51825h-7.281v7.00725L0,119.94464,9.52552,134.1234H55.62016a78.65228,78.65228,0,0,0,123.33879,0h36.35017a10.165,10.165,0,0,0,8.75908-5.09122l4.8175-8.59484a12.41072,12.41072,0,0,0-1.09487-13.95978Z" fill="#fe5000"/><path d="M57.70047,59.89019l9.9087-13.30284a9.72475,9.72475,0,0,1,7.88318-3.94159h9.30652c.27372-.219.60218-.38321.93065-.60219a20.25686,20.25686,0,0,1-.4927-5.03646,2.24538,2.24538,0,0,1,.05475-.60219H72.75513a12.17479,12.17479,0,0,0-9.5255,4.54377L49.7078,57.591a12.96951,12.96951,0,0,0,5.03647,1.80655Z" fill="#00205b"/><path d="M218.86752,125.30958a3.14941,3.14941,0,0,1-2.68245,1.53284H197.90049l3.12042-5.69341h16.64225a8.02452,8.02452,0,0,0,4.32479-1.36861Zm-34.32464,1.53284,2.62772-5.69341h11.16784l-3.17517,5.69341Zm-13.2481,0,1.86131-5.69341h11.71527l-2.573,5.69341Zm-22.55464,0,1.14964-5.69341h21.624l-1.8613,5.69341Zm-17.18969,19.32471c-19.76267,0-32.90129-11.05831-45.87568-11.05831-5.41968,0-8.81382,1.42332-10.94885,2.90144a1.01121,1.01121,0,0,1-1.47809-1.31389c1.86131-3.12041,5.85764-6.56929,14.61671-6.56929,15.76634,0,29.5619,13.19338,50.25522,13.19338a35.37971,35.37971,0,0,0,9.79923-1.31389S143.43,146.16713,131.55045,146.16713ZM54.14208,126.84242,52.0618,121.149H81.45947v.54745a24.21834,24.21834,0,0,0-9.5255,5.146Zm9.197-59.0143a4.9603,4.9603,0,0,1,.76641-2.90145c.54745-2.90145.16424-5.74814,2.18978-5.74814,1.42335,0,2.18977-1.75182,3.8321-.54744,0,0-2.62773,1.31386-2.62773,3.72261a9.01555,9.01555,0,0,1-.60219,3.94156l.87592.1095a8.64591,8.64591,0,0,0,.65692-3.94158c0-2.02554,2.62772-4.27,4.87225-4.27a2.25828,2.25828,0,0,1,2.29926,1.20436c-.32848,0-3.4489,1.14964-3.4489,3.66787a9.20241,9.20241,0,0,1-.71167,3.94158l.87591.10948a8.8152,8.8152,0,0,0,.76641-3.88683c0-2.29925,3.33941-3.88684,4.54378-3.88684a2.19762,2.19762,0,0,1,2.24451,1.53283c-.60219,0-3.12042,1.9708-3.12042,2.9562a10.41741,10.41741,0,0,1-.76641,3.88683l.8759.1095a9.83855,9.83855,0,0,0,.82116-3.88685c0-.82116,2.4635-2.46349,3.17517-2.46349.65693,0,3.06567,1.36861,3.06567,2.135,0,.71167-2.573.71167-2.573.71167a16.39074,16.39074,0,0,1-.4927,2.95618c1.31386.38321.93065,1.36861.93065,1.36861,1.916.219,2.29926,1.31387,2.29926,1.31387C80.36458,73.412,77.18941,71.277,77.18941,71.277a3.66432,3.66432,0,0,1-5.03647-.54745c-3.61312,2.46349-4.98172-.65693-4.98172-.65693S63.33912,71.00327,63.33912,67.82812ZM110.0907,121.149v3.33942A69.11867,69.11867,0,0,0,98.266,121.149Zm5.85764-102.48123c1.04014,0,2.29926,1.04016,5.85763,1.04016,2.135,0,3.06569-.38323,4.27006-.38323,1.3686,0,.93065,1.80657.93065,1.80657a2.06167,2.06167,0,0,0-1.42336-.60219c-1.58759,0-1.8613,1.86132-2.79195,1.86132-.9854,0-1.14963-.60219-1.14963-.60219s-.16424.8759-.93065.8759c-1.916,0-2.62773-2.68247-5.25545-2.68247a2.96278,2.96278,0,0,0-2.573,2.08028,3.47182,3.47182,0,0,1,2.135-.71168,2.09676,2.09676,0,0,1,1.916,1.25912c-2.02553-.76641-2.40874,1.20438-3.83209.65694.71167.93064,2.24451.38319,3.66785.38319,1.75182,0,3.12043,2.135,3.12043,2.135.438-.32848-.10947-1.64234-.10947-1.916.76641,0,.93064-.93067,1.69705-.93067,1.36861,0,1.31387,2.40876,1.31387,3.88685a1.0463,1.0463,0,0,1,.32846.76641c0,.82116-1.09488,1.31387-1.47809,1.31387-.219,0-.65693-.8759-1.20438-.8759H119.452c-1.04013,0-.4927-1.14964-.4927-1.14964a8.43221,8.43221,0,0,0-5.09121,1.9708,3.32394,3.32394,0,0,0-.9854-1.64232,4.17376,4.17376,0,0,1,2.573-.76645,3.74253,3.74253,0,0,0-3.55838-.60216c-.54743-1.25912-1.53283-2.2445-1.53283-3.17517C110.36443,22.00718,113.21112,18.66778,115.94834,18.66778Zm11.551,6.1861a1.90511,1.90511,0,0,1,.438,1.42335c0,2.08028-3.61312,1.91605-4.16056,1.69709a.96187.96187,0,0,1,.71167-.82116,2.001,2.001,0,0,0-.93066-.54745s-.16422-2.4635,3.17517-2.18977c0,0,.60219-1.86131-.54744-1.86131a1.28566,1.28566,0,0,0-.9854.32845s.438-1.31386,1.53284-1.31386C128.53952,21.56922,127.49938,24.85388,127.49938,24.85388ZM114.087,121.97018V119.7804a5.96278,5.96278,0,0,0,3.94159,1.36861h7.39047l-.438,5.69341H119.014A4.89492,4.89492,0,0,1,114.087,121.97018Zm30.38306-.82117a6.01353,6.01353,0,0,0,3.83209-1.36861l-.93065,4.59851a3.05554,3.05554,0,0,1-3.01094,2.46351H126.67822l.49269-5.69341Zm-5.09122-43.35744c1.53284,0,.65692,1.53284,1.75182,2.40874,1.09488.82117.93065,1.69708,0,1.69708a2.72388,2.72388,0,0,1-2.9562-2.68248C138.1745,78.50325,138.39348,77.79157,139.37888,77.79157Zm3.06568-6.40509a2.90929,2.90929,0,0,1,2.9562-2.95617,4.78156,4.78156,0,0,1,2.84668,1.04013c.76643,0,.82117-.8759,2.40876-.8759,2.40875,0,2.02554,1.58759,3.61311,1.58759,4.3248,0,2.68249,2.02552,4.489,2.02552,3.28467,0,2.792,4.10582,2.792,4.10582-1.53285-.9854-2.354,1.69709-2.354,2.90144s1.53283,1.14965,1.53283,1.14965a2.25635,2.25635,0,0,1-2.02552,1.31385,2.59357,2.59357,0,0,1-2.84671-2.51823,12.9013,12.9013,0,0,1,.93064-4.37954l-.8759-.219a15.99742,15.99742,0,0,0-1.20438,5.03646c0,1.09489,1.20438,1.53286,1.42336,2.29927h-2.90145c-.71167-.438-2.135-1.53283-2.135-3.01093a23.8205,23.8205,0,0,1,1.25911-5.47443l-.9854-.219a22.58688,22.58688,0,0,0-1.36861,6.02186c0,1.04015,1.14964,1.80657,1.36861,2.68248h-3.39413a4.435,4.435,0,0,1-1.80656-3.22992,33.20737,33.20737,0,0,1,1.09487-6.18609l-.82116-.219s-1.47809,4.54379-1.47809,6.56931c0,1.25912,2.46349,3.06569.219,3.06569-2.135,0-3.99633-2.90144-3.99633-4.3248C141.18544,75.4923,142.44456,72.97407,142.44456,71.38648ZM47.3538,126.84242H29.2882L26.66048,121.149H47.24431a3.34869,3.34869,0,0,0,2.573-1.36861l.60218,3.50365A3.09756,3.09756,0,0,1,47.3538,126.84242Zm-34.21516,0L9.2518,121.149h14.781l2.68246,5.69341Zm213.22887-19.21523-9.68976-12.04373A25.32519,25.32519,0,0,0,209.78,89.72582l-8.15688-4.708,2.573-4.927-9.52549-11.82476H191.9881L169.76194,40.94869a12.09474,12.09474,0,0,0-9.5255-4.54377h-8.6496c1.86131,1.0949,5.03648,3.39415,5.52918,6.24084h.38321a9.72474,9.72474,0,0,1,7.88316,3.94158L181.532,68.26606h-7.88317a3.24783,3.24783,0,0,0-3.2299,3.28467v3.77734l-5.4197-.82117V70.51058c0-3.01094-1.916-2.95618-1.916-5.09122,0-.93064.27372-1.25911.27372-2.51823,0-1.97078-1.58758-1.58757-1.58758-3.39414,0-1.09489.10948-2.08028.10948-3.17517,0-4.87224-5.58391-7.062-5.58391-9.30652V43.41218c0-3.88682-6.45982-6.95252-6.45982-6.95252s-.4927-1.20438-3.9416-1.20438c-7.49995,0-7.49995-.93064-10.51088-.93064a3.48779,3.48779,0,0,0-1.25912-2.08028s5.8029-4.4343,5.8029-9.90872c0-11.332-11.989-15.87583-11.989-15.87583a12.106,12.106,0,0,0-9.854-4.65327c-6.02186,0-16.53276,6.4051-16.478,12.208,0,0-15.43789,12.75539-15.43789,22.99257,0,4.2153.65693,5.47441.65693,5.47441-7.66419,4.27006-7.82842,5.25546-11.989,12.9744-2.84671-.65694-3.94158.438-3.94158.438A5.402,5.402,0,0,0,63.50335,57.153a4.09507,4.09507,0,0,0-4.43428,3.83211l-4.43429-.65693a14.41189,14.41189,0,0,1-9.0328-5.20072L36.45969,43.79539a.93972.93972,0,0,0-.82116-.32847l-8.81383.32847a1.97432,1.97432,0,0,0-1.31386,3.39414L38.321,59.23326a16.48806,16.48806,0,0,0,8.81382,4.27006L61.53256,65.6931c-.38322,4.27,2.24451,5.31017,2.24451,5.31017s-3.77736,8.15691-2.573,10.89412H57.64572V68.26606h-6.1861l2.135-2.8467L47.02533,64.434a19.88257,19.88257,0,0,1-2.46349-.54745l-3.55837,4.37953H34.70788V74.069L2.24454,119.99939l8.26638,12.31745H56.55083a76.79886,76.79886,0,0,0,121.53222,0h37.28084a8.25694,8.25694,0,0,0,7.11674-4.16056l4.81752-8.59484A10.58422,10.58422,0,0,0,226.36751,107.62719Z" fill="#00205b"/><path d="M139.70735,140.58322c18.01085,0,20.31011-11.16782,20.31011-11.16782s-4.2153,6.24084-13.8503,6.24084c-12.48168,0-23.978-6.67879-36.07646-11.16783A69.12064,69.12064,0,0,0,98.26594,121.149a41.36693,41.36693,0,0,0-7.44521-.71167,33.97611,33.97611,0,0,0-9.36127,1.25911,24.21874,24.21874,0,0,0-9.5255,5.146,23.77417,23.77417,0,0,0-4.76274,5.91239,1.0441,1.0441,0,0,0,1.58758,1.31385c3.50363-3.22991,9.58024-6.78828,19.21523-6.78828C103.95935,127.28038,117.97388,140.58322,139.70735,140.58322Z" fill="#009ca6"/><path d="M117.70015,16.09479s4.927,1.25913,8.86857,0c0,0,4.927-.82115,8.26639,7.00729,1.58758-1.36861.4927-13.41235-12.91964-13.41235-17.18969,0-35.69326,24.25172-30.65679,29.99985C89.34263,32.57284,107.35349,16.09479,117.70015,16.09479ZM81.45947,60.76611s1.58757-.60219,3.12042,2.135c0,0-.38321-2.73721.71167-4.2153a3.43474,3.43474,0,0,0-2.40874,1.47809,4.6031,4.6031,0,0,0-2.40875-2.68247s0-.49269.76642-.93066c-.219-1.14962,1.75181-4.927,2.62772-4.927A3.16244,3.16244,0,0,1,86.058,53.04716,2.95128,2.95128,0,0,0,85.18208,50.31c1.69707-2.29925,8.92331-1.916,14.89043-8.37586,0-.9854-1.53285-.87592-1.53285-.87592-5.96711,5.80291-14.99992,5.91238-15.43787,8.81383-1.75181,0-3.94158,5.03648-3.66786,6.13136a3.61712,3.61712,0,0,0-1.86131,2.18978A4.51709,4.51709,0,0,1,81.45947,60.76611Zm14.28824,5.03647a8.29343,8.29343,0,0,0-.219-4.43428,8.63445,8.63445,0,0,0-4.489,0,10.46848,10.46848,0,0,1,.27372,3.77734Zm6.1861-1.58758c.65693-3.8321,11.551-14.2335,11.551-19.81742a2.96158,2.96158,0,0,0-2.46349-3.06568c-3.83211-.93064-5.41968-5.58391-5.41968-5.58391-1.58759,3.77737,2.84671,6.78829,2.84671,6.78829a14.89637,14.89637,0,0,0-4.927,4.37953c-1.9708-2.573-1.31387-7.66419-1.31387-7.66419-3.22992,4.59851-.27372,9.96345,1.20438,10.89411,0,0,8.0474-8.92332,8.0474-5.69341,0,4.16057-9.0328,16.25905-13.7408,16.916a7.75191,7.75191,0,0,1-.71168,4.59851l4.10582.60219A5.64645,5.64645,0,0,0,101.93381,64.215Zm15.98532-11.33206a1.58343,1.58343,0,0,1-1.47809-1.64233,1.46864,1.46864,0,1,1,2.90144,0A1.5788,1.5788,0,0,1,117.91913,52.88294Zm-6.13135,11.3868a1.7133,1.7133,0,1,1,1.47809-1.69707A1.59639,1.59639,0,0,1,111.78778,64.26974ZM129.96287,40.675c-2.51824,8.37587-8.59485,9.68974-8.59485,9.68974,0-2.62773-4.32479-5.03648-4.32479-5.03648.27371,6.62405-9.14229,12.81015-9.14229,20.09113a3.8723,3.8723,0,0,0,.60218,2.29926l23.59478,3.50363a3.07651,3.07651,0,0,0,2.95618-3.3394c0-1.42333-.60217-1.42333-.60217-2.18975,0-2.4635,3.77733-3.3394,3.77733-5.80291a5.55578,5.55578,0,0,0-1.58757-3.94157c-7.60946-1.09489-6.45982,2.24452-9.74448,2.24452-1.69708,3.83208-1.20437,10.23717-1.20437,10.23717-2.08029-3.4489-1.75181-9.25178-1.75181-9.25178a15.42385,15.42385,0,0,1-5.25546.38321l-1.47809,4.10582-.49271-5.09122c10.40142,0,11.87951-6.40508,20.0364-4.87223,0-5.09122,3.06568-5.63867,3.06568-5.63867s-1.04014,1.25911-1.04014,4.43429c0,4.65325,2.573,5.96712,2.573,5.96712,2.4635-3.99632,6.45982-5.36493,6.45982-3.77736,0,1.20438-4.10582,4.59851-4.10582,6.07662,0,.65693.60219.8759,1.0949.8759,1.80655,0,2.68245-2.40875,8.978-2.40875.82116,0,1.04013,1.20438.10948,1.20438-7.88317,0-8.37587,6.45981-8.37587,6.45981,6.13137-3.50363,13.79557-.16422,13.79557-.16422,0-4.10582-1.91607-5.09122-1.91607-6.35033,0-1.14964.49271-2.02554.49271-3.61313,0-3.06566-3.66787-5.09121-3.66787-5.09121s-1.4781,2.135-2.68247,2.135.05474-1.36861.65693-1.97078c.54744-.54745,0-4.43429,0-7.99267,0-1.14963-1.25912-1.47809-2.354-2.29925-1.09489-.87591-2.24451-2.90143-4.43427-2.90143-1.64235,0-2.90146,1.80655-2.90146,1.80655a4.65283,4.65283,0,0,1,1.04014-2.29925c-2.95619,1.14961-3.66786-.10949-3.66786-.10949h-6.843ZM107.35349,81.07622a1.50766,1.50766,0,0,1-1.42335-1.64233,1.44542,1.44542,0,1,1,2.8467,0A1.50766,1.50766,0,0,1,107.35349,81.07622Zm24.47067-2.40875c.65695,0,1.31387.1095,2.62775.1095,1.47807,0,2.354-1.31388.54743-2.135l-3.99633-.60219c-5.58391,0-12.09848,6.07661-20.09115,3.50363,0,0,10.45616-.71169,11.44156-4.76275L107.244,72.48138c-.438,3.06567-3.50363,5.91238-3.8321,9.416H119.014C122.90087,81.131,128.70374,78.66747,131.82416,78.66747ZM88.3025,74.78064a3.77308,3.77308,0,0,0,.82116-4.8175,5.51789,5.51789,0,0,1-1.916,3.72262c0,3.06567-4.59852,6.95251-6.1861,8.21163H92.18934c6.78827-6.35034,7.82843-10.62038,7.82843-10.62038-4.10582,1.916-4.37954,7.55469-14.72621,9.416A8.49155,8.49155,0,0,0,88.3025,74.78064Zm-20.967,5.31018s.4927.8759,3.88684.8759c6.45982,0,11.71526-7.66417,11.71526-7.66417H81.51421s-4.37954,4.98172-10.12768,4.98172c-6.51457,0-3.66787-5.47443-3.66787-5.47443L66.569,71.44123c-3.01093,1.916-1.69707,5.69341-1.69707,5.69341a3.11262,3.11262,0,0,0,.10949,4.76275h3.01093C67.06173,80.8025,67.33545,80.09082,67.33545,80.09082Zm62.02524,68.81352c-21.624,0-28.1933-10.23717-41.87936-10.23717-6.843,0-9.5255,2.573-10.62038,4.37955a.52389.52389,0,0,0,.71167.71168,9.24206,9.24206,0,0,1,5.03647-1.36861c11.66054,0,22.00719,11.989,44.39759,11.989,27.5911,0,37.49981-20.69332,37.49981-20.69332S153.83136,148.90434,129.36069,148.90434Z" fill="#009ca6"/><path d="M151.64158,66.89747a4.754,4.754,0,0,1,2.135,1.53284h2.08028c1.80655,0,2.68247,2.95618,5.14595,2.95618C161.00284,71.38649,161.605,65.5836,151.64158,66.89747Zm-32.956-61.20408c-5.36494,0-7.82843,4.98175-7.82843,4.98175s4.2153-2.51824,11.77-2.51824A4.522,4.522,0,0,0,118.68555,5.69339Z" fill="#009ca6"/><path d="M159.47,38.102h-1.80655v1.14961h1.31386a11.09962,11.09962,0,0,1,8.81381,4.27006l1.53285,1.97078h1.64233l-2.40875-3.01092A11.49259,11.49259,0,0,0,159.47,38.102ZM65.63838,44.01437l-2.18977,2.792h1.58758l1.3686-1.75181a10.39643,10.39643,0,0,1,8.32113-4.10582h3.39414V39.79907H74.23322A10.78675,10.78675,0,0,0,65.63838,44.01437Zm95.36448,33.832,9.416,1.42334V78.339l-9.03279-1.36861A6.081,6.081,0,0,0,161.00286,77.84632Zm-19.76268-3.88684L82.88281,65.25514a5.53114,5.53114,0,0,1-.16423.93065l58.24788,8.70433C141.07594,74.56166,141.1307,74.288,141.24018,73.95948ZM43.467,55.72963s2.354,4.927,9.25178,5.96714l10.83936,1.58757a4.79185,4.79185,0,0,1,.10949-.8759L52.883,60.76611A17.88281,17.88281,0,0,1,43.467,55.72963ZM90.328,122.7366c-8.26638,0-9.96346,2.62773-9.96346,2.62773s3.17517-1.31387,9.25179-1.31387c12.7554,0,36.35017,14.781,50.52894,14.781a28.73147,28.73147,0,0,0,9.5255-1.80656,65.92411,65.92411,0,0,1-7.6642.38321C126.6782,137.40806,107.7367,122.7366,90.328,122.7366ZM114.9082,31.53269c2.573,0,2.46349,1.04015,3.77735,1.04015a3.79353,3.79353,0,0,0,2.46349-1.25912,2.27721,2.27721,0,0,0,2.08028,1.20438s2.792-.76645,3.28466,1.86128a3.56978,3.56978,0,0,0-2.73721-1.09487c-4.21531,0-4.43429,3.61312-10.18244,3.61312,0,0,.27373-2.95618-2.135-3.28466A4.72793,4.72793,0,0,1,114.9082,31.53269Zm3.72261,5.91238a25.73843,25.73843,0,0,0,5.09121-1.916,2.74176,2.74176,0,0,1-.98539,1.20438,6.41778,6.41778,0,0,0,1.3686-.05474S122.4629,37.82827,118.63081,37.44507Zm-9.36126-1.53286a1.31527,1.31527,0,0,1-.76643.60219s1.04014,2.02554,2.90145,1.53286a1.29456,1.29456,0,0,1-.76642.60217s1.25911,2.18978,6.45981,2.18978c4.76275,0,6.89779-2.08027,6.89779-2.08027s3.55837,2.7372,8.15688-2.51825c0,0-2.90144-1.04015-2.90144-3.72259,0-1.25912.65693-3.99634-.9854-4.708,0,1.20435-1.04014,1.9708-.93065,2.95618a1.98648,1.98648,0,0,0-1.09489-.8759,3.39358,3.39358,0,0,1,.16424,1.86128,4.80537,4.80537,0,0,0-3.88685-2.40873,1.95743,1.95743,0,0,0-1.53283.93064c-.82117-1.69705-3.22992-.32845-2.90145-2.18976-3.22991,0-5.85763,3.28466-5.85763,3.28466a3.67944,3.67944,0,0,1,.4927-2.29928c-1.14964.438-1.3686,1.04016-1.3686,1.04016a2.29887,2.29887,0,0,1,.60217-1.91606,3.76233,3.76233,0,0,0-1.75181,1.47809,11.02552,11.02552,0,0,1,.16424-4.32478s-3.22992,1.47809-3.22992,6.40506C107.13451,36.7334,109.26955,35.91221,109.26955,35.91221Z" fill="#a4a9ad"/><path d="M52.82822,72.26239H39.47062l-.87591,1.25914s2.4635,0,1.42336,1.53283l-28.95971,41.3319a3.51089,3.51089,0,0,1-2.24451,1.20438l-.9854,1.42335H24.68968Zm121.7512,3.06568,6.67881,11.16783a16.52377,16.52377,0,0,0,5.47442,5.52917l18.99626,11.66052a2.67954,2.67954,0,0,1,.65694.71169l2.18978,3.44888H197.572a4.03927,4.03927,0,0,1-3.06569-1.916h-1.58756L200.7472,119.014h17.95609a4.89334,4.89334,0,0,0,3.99633-7.719l-7.88315-11.22256a15.54856,15.54856,0,0,0-4.98174-4.65325l-20.03638-11.989a2.20937,2.20937,0,0,1-.71169-.71169l-1.8613-3.17515h6.95251a2.7272,2.7272,0,0,1,2.18977,1.04012h1.69707l-5.63865-8.32112H176.33124A2.02918,2.02918,0,0,0,174.57942,75.32807ZM176.167,100.8389l-4.05108-8.86857h1.09489a1.60105,1.60105,0,0,1,1.4781.87591l2.8467,5.69341A1.57225,1.57225,0,0,1,176.167,100.8389Zm6.7883,8.5401,4.87224,9.635h11.33206l-.76642-1.25912a3.34127,3.34127,0,0,1-2.73721-1.64232l-7.22624-12.91965a4.59641,4.59641,0,0,0-4.10582-2.354,3.16212,3.16212,0,0,0,.60216-3.99634l-4.65325-8.26636a6.60437,6.60437,0,0,0-5.69341-3.3394H159.47l.54743,1.31385a2.46546,2.46546,0,0,1,2.18978,1.47809L173.594,115.07241c1.09489,2.68246-1.36861,2.68246-1.36861,2.68246l.49271,1.25912h11.77l-5.58393-12.09848A4.45483,4.45483,0,0,1,182.95531,109.379ZM143.92265,88.02874l7.55471,28.08381a1.2,1.2,0,0,1-1.20437,1.64232l.38321,1.25912h20.85756L166.751,107.57243h-.8759s.71168,1.80657-1.75181,1.80657h-5.31019l-1.97079-6.1861h4.05106a1.25688,1.25688,0,0,1,1.20438.76642h1.14963l-3.28465-8.86857h-1.09488s.32846,1.04014-.54744,1.04014h-3.66788l-1.31386-4.16056h5.47443a1.51175,1.51175,0,0,1,1.25913.93064h1.14962L158.2109,85.2368H141.56865l.38321,1.31385A2.07088,2.07088,0,0,1,143.92265,88.02874Zm-9.58024,3.94159a1.65053,1.65053,0,0,1,1.64233,1.31385l3.06566,15.49263a1.65611,1.65611,0,0,1-1.64231,1.916H135.93l-3.2299-18.72252Zm-9.36128-3.94159,3.12042,28.08381a1.34275,1.34275,0,0,1-1.31385,1.64232l.10949,1.25912h16.42327a4.59746,4.59746,0,0,0,4.489-5.69341l-5.96712-23.43053a6.14907,6.14907,0,0,0-5.96713-4.65325H123.33882l.10948,1.31385A1.57047,1.57047,0,0,1,124.98113,88.02874ZM88.3025,94.70754l.54744,8.64959H85.12733Zm-4.21531-6.6788L72.04345,116.16728l2.08029-6.78828H66.35005l7.82843-21.95245a1.65655,1.65655,0,0,0-1.53284-2.18975H65.25516l-.54744,1.31385s1.58759,0,.9854,1.47809L52.5545,119.014h28.467l.438-1.25912s-1.64234,0-.9854-1.64232l2.02553-5.47443h6.7883l.38321,5.47443c.10948,1.64232-1.04015,1.64232-1.04015,1.64232l.10949,1.25912h20.58384l.05474-1.25912s-1.31386,0-1.25912-1.64232l.38321-14.343,6.73354,13.79554a6.03679,6.03679,0,0,0,5.47443,3.4489h4.65325L121.97021,85.2368h-9.30653l.05475,1.31385s2.02554,0,2.08028,1.47809l.32847,11.44155L109.43377,85.2368h-8.92331l-.10948,1.31385s1.14962,0,.98539,1.47809L98.7039,116.11255a2.80245,2.80245,0,0,1-.54744,1.14962l-3.94158-30.602a1.6526,1.6526,0,0,0-1.64233-1.42333H83.704l-.54744,1.31385S84.74412,86.55065,84.08719,88.02874Zm-49.4888,19.27L27.8101,119.014H47.13482a2.02366,2.02366,0,0,0,1.86131-1.20437l5.2007-11.60579a1.95568,1.95568,0,0,0,.10948-1.36861L51.35013,93.22945a.835.835,0,0,1,.16423-.87591.92112.92112,0,0,1,.82116-.38321h4.37955c2.51823,0,1.42335,2.40875,1.42335,2.40875H59.507l4.10582-9.14228H48.61291a1.96188,1.96188,0,0,0-1.75181,1.04012l-4.37954,7.55472a1.89366,1.89366,0,0,0-.219,1.53283l3.50364,12.70067a.85756.85756,0,0,1-.16424.8759,1.03955,1.03955,0,0,1-.82116.438H36.8429c-1.75181,0-.87591-2.08028-.87591-2.08028Zm82.11636-73.7405-2.46349,1.42335a2.351,2.351,0,0,1,.05476,1.25912s3.61311-.4927,5.47443-2.90143c-3.12043,0-2.792-.71168-4.4343-.71168a2.04389,2.04389,0,0,0-1.8613,1.04013,2.90223,2.90223,0,0,1,.54743.65693Zm63.01065,33.7772-.438-.60219-.65692-.38321-1.53283.9854Zm-10.23719,5.58392-.4927-.32848-1.97078,1.31388,2.46348.32845ZM69.68945,45.6567a11.82685,11.82685,0,0,0-1.36861,1.47809l-1.04013,1.3686,3.33939-2.2445Zm7.1715,3.55837.32846.16424c.16424-.27373.32847-.49271.4927-.76642ZM58.57637,75.4923l2.08028,1.3686a40.00048,40.00048,0,0,1,1.36861-4.10581l-.60219-.38321-2.8467,2.08029Zm0-2.135,2.02553-1.53284-2.02553-1.31386Zm-5.20071-6.13135-.10949.10949h.32848Zm14.124-17.73714,3.8321,2.46349,3.88684-2.73721-3.77735-2.40875Zm7.062-5.91237a8.53983,8.53983,0,0,0-4.10582,1.53283l.9854.60219Zm8.75909-.05474H77.90109l2.792,1.80655A30.729,30.729,0,0,1,83.32078,43.52168Zm-7.281,5.14595,3.88683-2.73721L76.204,43.52168l-3.94158,2.73721Zm.65692,1.4781-.65692-.38321-3.88685,2.73721,2.40875,1.53283C75.38286,52.49973,76.03979,51.24061,76.69671,50.14573ZM62.18949,71.82444l.219.1095a1.39286,1.39286,0,0,0,.10948-.38321Zm-3.61312-2.354,2.792,1.80657.65694-.49269A6.19994,6.19994,0,0,1,60.6019,66.788l-2.02553,1.47809Zm-.27372-2.135L59.726,66.29526,54.58,65.5836l-.65693.87592,1.3686.8759ZM70.83908,54.85373a4.97,4.97,0,0,1,2.51823-.4927l-2.02553-1.31387-1.80656,1.25913A13.37249,13.37249,0,0,1,70.83908,54.85373ZM64.5435,55.018l-1.42336-.93064-1.8613,2.51823a5.60389,5.60389,0,0,1,1.80656-.32847A5.65837,5.65837,0,0,1,64.5435,55.018Zm3.72261-.93064,2.24451-1.58759-3.8321-2.46349-1.04014.71168-1.9708,2.62771,1.80656,1.14964A5.57124,5.57124,0,0,1,68.26611,54.08732ZM58.57637,79.48865,60.32819,78.12c.05474-.10948.05474-.219.10949-.32847l-1.86131-1.20438ZM163.9043,49.37931l1.58759-1.14963-.82116-1.09489a10.39062,10.39062,0,0,0-2.24451-2.135L159.908,46.80632Zm4.65326,2.95619-2.51823-3.3394-1.31386.8759ZM177.69984,64.653l-2.02552-2.792-1.0949.71168Zm-7.9379,1.09487,2.68246,1.80657a3.12042,3.12042,0,0,1,1.20438-.219h1.80656l2.354-1.53284-4.05106-2.68247Zm-1.58758,6.2956-2.29927-1.53285v3.01095Zm-9.854-25.18235-1.09489-.71169v.87591a.88307.88307,0,0,0,.16422.4927Zm-.38321,1.3686a37.21452,37.21452,0,0,1,3.01093,3.2299l2.135-1.53284-3.94159-2.573Zm6.02186,2.24451-2.4635,1.69707a8.15831,8.15831,0,0,1,1.14963,2.62772l1.42336.93065,3.88683-2.68247Zm9.79923,11.551,1.36861-.8759L172.4444,57.591l-2.73721,1.80655ZM168.886,59.945l-3.88686,2.62772,3.94159,2.62772,3.99634-2.62772Zm-4.927,5.47441c0,.9854.65692,1.47809,1.20438,2.29926l2.95617-1.97079-3.83208-2.573C164.23276,64.32448,163.95905,64.70769,163.95905,65.41936Zm-.71168-9.14228-.43794-.27372v.60219Zm-.4927,1.47809a15.7667,15.7667,0,0,0-.10949,1.75182c0,.93065,1.14965,1.09488,1.53286,2.51823l3.88683-2.573-3.99633-2.62771Zm6.13137,1.09488,3.01093-2.02552-1.80657-2.40876-1.31385-.82116-3.88685,2.68247Zm2.573,9.1423-2.51823-1.69709-3.39413,2.24454a3.13688,3.13688,0,0,1,.219.76641l3.22991,2.18977.4927-.27373A4.16383,4.16383,0,0,1,171.459,67.99235Zm-9.90869-23.48528a8.68373,8.68373,0,0,0-4.05108-.98539h-.27372v1.53283l1.86131,1.20438ZM58.57637,80.96672h1.47809a7.75622,7.75622,0,0,1,.10949-1.53283l-1.58758,1.14962Z" fill="#fff"/></svg>