<svg xmlns="http://www.w3.org/2000/svg" id="Layer_3" viewBox="0.0 0.0 1900.53 1456.02" width="361.4031611621005" height="276.6992952647332"><defs><style>.cls-1{fill:#e51535;}.cls-2{fill:#fff;}.cls-3{fill:#0e2b58;}</style></defs><path class="cls-2" d="M752.95,1385.44c-1.77,11.63-8.91,8.6-21.78,24.33-10.5,12.82-11.18,18.94-14.34,24.72-1.65,3.03-11.77,21.27-11.77,21.27,0,0-9.08-15.06-10.94-18.35l-7.16-12.65-21.06-34.44-23.56-36.52-5.96-8.95-11.13-16.1-10.2-14.25-6.75-9.41c-16.57-23.12-52.18-67.34-73.11-85.42-3.46-2.99-6.63-6.65-10.4-9.46l-48.84-36.4-37.91-27.75c-11.19-8.19-22.1-15.04-33.83-22.64-43.21-27.99-85.14-57.04-123.37-91.38l-8.48-7.63-9.37-8.47c-27.68-25.05-62.38-63.29-83.18-94.16l-6.88-10.21c-25.41-37.7-48.78-93.74-54.34-138.75l-1.87-15.12c-.28-2.3-.84-5.39-.83-7.54l.05-40.3c.03-21.81,7.33-6.69-8.84-30.96-31.02-46.57-59.42-96.62-72.77-151.34-3.92-16.05-7.43-31.35-8.76-47.67l-1.7-20.67-.86-15.07c-.3-5.28-.34-10.68,0-15.94l1.01-16,.83-10.33.84-11.31,5.41-42.11c.9-6.94,10.92-16.66,10.92-16.66C24.24,291.5,7.99,254.75,3.02,208.56l-1.82-16.93c-.19-1.81-.42-3.79-.95-4.69v-42.24c1.63-18.81,5.1-37.61,10.31-56.36l15.92-53.51C28.63,29.92,39.71.25,39.71.25c0,0,9.55,32.28,11.12,38.49,8.28,32.62,29.21,65.53,48.68,93.04,44.12,62.33,97.81,111.21,159.65,155.73,14.17,10.2,27.68,20.01,42.47,29.06l19.8,12.12c27.08,16.58,54.47,31.17,82.72,45.9,83.68,43.63,194.02,105.77,258.05,174.57,26.72,28.72,45.15,66.24,60,102.49,12.93,31.55,23.94,63.05,35.06,95.24l11.33,32.82c1.63,4.72,2.83,9.15,5.69,14.03l28.9-113.62,26.59-105.62c2.41-9.55,3.66-18.69,7.26-27.67,5.75-14.34,19.91-28.85,33.11-36.17,18.13-10.05,38.14-14.68,58.89-16.2,13.3-.98,26.51-1.3,39.74-.09l16.33,1.5c26.76,2.46,64.52,12.39,82.11,34.08,11.39,3.07,22.86,5.85,32.65,12.42,12.19,8.18,22.28,18.48,28,32.02,6.23,14.77,9.24,32.15,6.86,47.8-3.32,21.87-13.67,49.77-26.53,66.98-2.71,3.62-10.65,12.19-10.65,12.19,0,0-7.16-7.91-9.87-10.54-7.37-7.16-14.87-13.53-25.2-16.71l40.5,96.94,7.79,18.59,8,18.4c.68,1.44,1.35,3.25,1.22.74,10.99-37.87,21.62-74.41,35.24-110.81,20.74-55.42,45.73-108.37,86.54-151.9,4.09-4.36,7.87-8.23,12.2-12.22l15.63-14.4c6.1-5.63,12.3-10.8,18.84-15.86l20.26-15.66c39.91-30.87,83.33-55.94,127.48-80.44l18.75-10.41,24.95-13.56,12.99-6.87c36.44-19.29,72.67-38.05,106.94-60.97l32.26-21.59c30.15-20.17,58.44-42.16,84.6-67.14l19.26-18.38c1.79-1.71,3.5-3.42,5.2-5.21l18.35-19.32c29.86-31.44,63.76-80.77,80.58-121.22,3.33-7.99,6.27-15.75,8.69-24.08,3.09-10.62,13.97-38.49,13.97-38.49,0,0,11.97,30.49,13.13,34.58l10.38,36.79c6.3,22.31,14.65,75.04,14.03,100.37-2.98,120.96-36.69,160.73-34.74,164.61,2.55,5.08,5.3,16.98,6.08,22.64,1.16,8.36,2.42,16.4,3.13,24.8l.95,11.28.87,10.37c6.18,73.39-8.04,139.76-41.86,204.76-14.1,27.1-29.88,52.58-47.26,77.42-6.44,9.2-2.34,7.05-1.94,22.93.7,28.26,1,36.87-3.4,64.91-13.05,83.11-59.25,153.44-116.39,212.82-4.7,4.88-8.92,9.27-13.75,13.8l-15.93,14.96-10.35,9.36-15.69,13.59c-33.68,29.17-70.17,53.66-107.02,78.49l-14.11,9.51-12.34,8.41-37.37,26.49-42.41,31.64c-9.1,6.79-18.03,12.95-26.49,20.6-8.71,7.88-16.88,16-24.87,24.73l-8.96,9.79-22.23,26.79c-28.89,34.8-53.66,72.33-77.74,110.69l-7.33,11.66-13.47,22.06c-2.87,4.69-5.55,9.43-8.32,14.15-2.61,4.44-13.07,20.51-13.07,20.51,0,0-8.81-15.91-11.25-21.27-5.36-11.76-10.35-23.62-19.94-32.51-7.72-7.16-13.3-6.96-15.08-17.11-6.28-35.71-18-69.59-35.08-101.69-22.05-41.44-54.39-80.38-99.06-98-5.05-1.99-12.09-3.69-13.88-9.45-8.73-28.18-19.22-21.09-21.67-35.07l-27.74-157.85-28.46,158.62c-.99,5.54-3.87,8.62-8.1,12.09-5.46,4.48-10,11.86-11.61,18.79-1.34,5.78-3.37,9.12-9.19,11.15-9.29,3.25-18.32,7.1-26.99,12.34-45.09,27.26-74.55,73.77-94.02,121.66-9,22.13-15.61,44.36-19.22,67.98Z"/><path id="path2630" class="cls-3" d="M950.25,913.71s39.12,217.81,40.31,227.01c13.56,9.74,18.73,22.54,20.4,31.04,89.82,29.32,138.35,142.61,149.17,213.29,9.2,5.7,26.53,19.58,34.87,47.5,0,0,103.91-182.63,185.33-240.73,25.35-18.07,58.23-44.86,99.56-72.03,89.55-58.74,290.76-190.97,293.72-386.67.22-13.88-.75-28.24-2.58-42.82,65.49-93.17,92.72-161.27,94.77-244.81,1.02-42.12-7.91-97.2-7.91-97.2-3.55,9.2-7.05,17.7-11.68,27.7-15.5,33.94-69.9,95.05-176.13,169.93,97.56-86.23,215.74-222.33,218.86-374.67,1.08-52.39-11.79-86.66-26.15-138.46,0,0-31.05,181.66-349.95,347.08-103.16,53.47-197.01,108.93-256.91,168.75-55.16,55.19-93.42,143.41-133.83,300.11-25.24-59.87-68.99-164.77-76.04-181.66,2.96-1.51,5.17-2.58,6.78-3.5,2.96-.7,15.12-8.93,44.34,19.47,12.7-16.19,25.83-50.51,26.1-72.08.11-14.47-4.52-60.79-62.8-69.39-9.15-12.86-34.06-35.67-114.14-35.99-9.53,0-92.88-1.34-102.68,61.49-.7,4.79-67.97,270.53-67.97,270.53-55.7-156.7-75.93-233.79-131.09-288.98-59.89-59.82-153.75-115.28-256.91-168.75C68.73,214.45,37.73,32.79,37.73,32.79c-14.37,51.8-27.23,86.07-26.15,138.46,3.12,152.34,121.3,288.44,218.86,374.67-106.23-74.88-160.63-135.99-176.19-169.93-4.57-10.01-8.07-18.5-11.62-27.7,0,0-8.93,55.08-7.91,97.2,1.99,83.54,29.27,151.59,94.77,244.81-1.83,14.58-2.8,28.94-2.58,42.82,2.96,195.7,204.17,327.93,293.72,386.67,41.33,27.17,74.21,53.95,99.56,72.03,81.42,58.1,185.33,240.73,185.33,240.73,8.34-27.92,25.67-41.8,34.82-47.5,10.87-70.68,59.41-183.97,149.17-213.29,1.72-8.5,6.89-21.3,20.45-31.04,1.18-9.2,40.31-227.01,40.31-227.01"/><path id="path2634" class="cls-2" d="M779.39,946.38l163.59-244.17,183.61,238.74-116.08-287.58,34.98-17.48c8.83-1.88,19.32-5.65,44.29,13.07,15.07-54.06,2.64-79.56-47.89-80.91-.48-22.81-44.77-29.43-47.84-30.29-12.7-2.85-44.29-3.77-48.49-3.82,0,0-68.45-2.31-74.8,37.66l-91.38,374.78Z"/><path id="path2638" class="cls-3" d="M967.73,579.08s3.07,9.36,15.12,12c13.78,3.17,24.54-8.66,24.54-8.66-40.25-19.31-79.16-12-79.16-12,11.19,1.13,39.5,8.66,39.5,8.66"/><path id="path2642" class="cls-1" d="M456.44,946.39c-121.51-67.3-268.48-135.29-303.78-219.59,4.47,130.07,86.59,217.86,175.11,287.63,89.76,70.68,187.06,121.04,220.85,158.37l-64.85-159.23c77.55,45.78,148.26,91.18,198.9,137.33-16.31-19.37-121.83-146.75-226.23-204.52M276.33,555.64l28.41,69.72c-111.18-64.28-213.16-132.44-244.64-210.82,7.64,247.13,226.39,387.85,381.05,494.47l-93.26-228.73c165.32,93.01,331.82,181.5,394.99,275.8-30.19-46.96-64.15-92.26-104.34-132.87-77.71-76.87-222.57-159.71-362.22-267.57M299.09,555.96l-109.08-267.41C117.53,239.17,61.18,186.88,38.26,129.49c5.92,192.42,129.15,324.7,260.83,426.47"/><path id="path2646" class="cls-1" d="M1217.82,1150.94c50.64-46.21,121.35-91.56,198.9-137.33l-64.85,159.17c33.79-37.28,131.09-87.63,220.85-158.31,88.52-69.77,170.64-157.56,175.16-287.63-35.36,84.24-182.32,152.29-303.83,219.59-104.4,57.77-209.93,185.16-226.23,204.52M1262,823.23c-40.2,40.61-74.21,85.85-104.4,132.87,63.18-94.35,229.68-182.79,394.99-275.85l-93.26,228.73c154.66-106.56,373.41-247.34,381.05-494.42-31.43,78.32-133.46,146.53-244.64,210.82l28.41-69.77c-139.59,107.91-284.51,190.75-362.17,267.62M1862.29,129.51c-22.98,57.4-79.32,109.63-151.81,159.01l-109.08,267.46c131.68-101.78,254.97-234.11,260.89-426.47"/></svg>