<?xml version="1.0"?>
<svg xmlns="http://www.w3.org/2000/svg" width="370.555" height="251.702">
<path fill="#FFFFFF" d="M360,178.39c0,40.49-30.863,73.312-68.936,73.312H68.936C30.863,251.702,0,218.88,0,178.39V73.312
	C0,32.823,30.863,0,68.936,0h222.128C329.136,0,360,32.823,360,73.312V178.39z"/>
<path fill="#00693F" d="M351,175.071c0,37.932-29.32,68.68-65.489,68.68H74.489C38.32,243.75,9,213.002,9,175.071V76.631
	C9,38.7,38.32,7.951,74.489,7.951H285.51C321.679,7.951,351,38.7,351,76.631V175.071z"/>
<path fill="#FFFFFF" d="M338.824,169.506c0,33.644-27.232,60.917-60.826,60.917H82.002c-33.594,0-60.826-27.273-60.826-60.917
	V82.195c0-33.643,27.232-60.916,60.826-60.916h195.995c33.594,0,60.826,27.273,60.826,60.916V169.506z"/>
<path fill="#003876" d="M333,167.181c0,31.85-26.232,57.67-58.596,57.67H85.596c-32.362,0-58.596-25.82-58.596-57.67v-82.66
	c0-31.85,26.234-57.67,58.596-57.67h188.808c32.363,0,58.596,25.82,58.596,57.67V167.181z"/>
<path fill="#FFFFFF" d="M358.05,135.326c0,0-198.02,0-201.408,0c-6.91,0-16.121-1.053-28.623-12.633
	c-22.132-20.502-39.442-37.09-40.203-37.768c-0.716-0.638-1.579-0.687-2.27,0.115c-0.579,0.671-9.904,11.982-10.29,12.51
	c-0.567,0.777-0.629,1.949,0.062,2.615c1.499,1.445,32.961,32.332,35.856,34.898s10.922,10.264,27.108,10.264
	c21.582,0,219.767,0,219.767,0V135.326z"/>
<path fill="#003876" d="M352.547,240.481v-10.807h-3.674v-1.884h9.269v1.884h-3.702v10.807H352.547z M359.408,240.481v-12.69
	h2.783l2.867,10.137l2.77-10.137h2.728v12.69h-1.726v-10.65l-2.923,10.65h-1.712l-3.047-10.807v10.807H359.408z"/>
</svg>