<svg enable-background="new 0 0 99.572 77.43" height="277.488739" viewBox="0 0 99.572 77.43" width="360.374985" xmlns="http://www.w3.org/2000/svg"><g fill="#fff"><path d="m72.43 41.6 11.577-7.15c-7.217-4.821-15.061-6.658-24.023-7.362l.056-7.523 8.484-6.592-9.772-.463-2.712-7.016-5.737 7.637-9.754 1.926 4.787 4.376c-11.439 3.771-26.042 9.112-36.726 23.283l-4.48 10.478c4.703 3.232 11.552 7.282 21.912 8.787l-4.756.448c-.783.036-1.016.595-.879 1.235 0 0 1.001 4.09 1 4.082.847 3.533 4.235 5.344 8.431 4.504.019-.003.037-.008.057-.014 0 0 7.677-2.002 7.681-2.002 6.044-1.607 8.71-3.596 10.115-7.836 16.833-2.757 31.751-5.705 46.153-.888-8.374-13.022-14.216-17.277-21.414-19.91zm-66.988 11.229 4.036-9.559c7.729-10.387 18.996-17.563 36.277-22.931l-3.651 8.829c-11.295 4.132-20.391 9.39-29.296 17.857 7.764 5.966 19.581 7.46 29.255 7l-.723 3.325c-.827 2.752-2.675 3.345-4.997 3.583l-5.782.657c-11.1-1.251-18.026-4.007-25.119-8.761zm27.218-9.156c3.946-2.655 10.613-5.257 12.926-5.78l-3.269 14.999c-7.589.459-19.311-.191-27.929-5.953 7.678-7.086 15.092-11.33 21.852-14.324l-4.792 10.072c-.607 1.365-.323 2.02 1.212.986zm15.35 17.681 1.741-8.151c5.786-1.252 11.49-2.563 17.889-2.72.971-.027.761-.561-.147-.971-5.653-2.301-12.246-3.232-16.235-3.36l.809-3.791 11.426-5.644c.971-.532.225-.995-.585-1.144-2.862-.629-6.504-.652-10.386-.142l-5.4 25.329c-1.123 4.584-3.21 6.754-9.801 8.508l-7.677 2.001c-3.755.751-6.553-.803-7.261-3.755l-1.001-4.088 15.055-1.42c3.47-.499 5.223-1.668 5.866-4.34l4.593-21.158c-5.194 1.287-11.427 4.053-14.31 6.025l4.912-10.183c3.313-1.517 6.667-2.888 11.046-3.615l.719-3.3-5.015 2.441 3.2-7.867-4.792-4.38 8.218-1.62 4.874-6.489 2.292 5.93 7.803.371-6.8 5.286.003 7.77-4.221-2.228-.738 3.455c11.106-.478 20.535 1.778 27.972 6.373l-12.012 7.42c7.579 2.169 14.386 6.62 21.538 18.081-11.84-3.384-23.874-1.967-43.575 1.376zm1.991-9.212 1.072-5c3.375.085 8.824.783 13.883 2.485-6.492.501-11.289 1.704-14.955 2.515zm2.375-11.053s.965-4.607.951-4.718c3.184-.354 6.123-.333 8.502.051z"/><path d="m58.517 29.579-1.106 1.212-1.613.237.794.891-.719 1.315 1.599-.659 1.164.574.193-1.298 1.442-.961-1.479-.143z"/><path d="m44.224 31.575-.972 1.425-1.616.632.928.644-.563 1.426 1.547-1.028 1.267.248.027-1.276 1.346-1.273-1.529.237z"/><path d="m34.217 30.371 1.629-1.383 1.369.03-.009-1.367 1.408-1.607-1.636.539-.499-1.023-1.001 1.701-1.717.974 1.017.512z"/><path d="m23.558 36.107 1.441-1.509 1.357-.281-.178-1.127 1.197-1.641-1.551.812-.618-.735-.781 1.629-1.578 1.188 1.069.196z"/><path d="m14.065 42.983 1.335-1.459 1.259-.271-.164-1.092 1.104-1.593-1.437.785-.573-.714-.725 1.581-1.459 1.15.99.191z"/><path d="m80.326 52.671-.682-1.331-.661 1.235-1.501.098 1.097 1.078-.243 1.391 1.338-.568 1.351.761-.273-1.427 1.081-.923z"/><path d="m68.376 53.339-.671-1.113-.787 1.378-1.643.497 1.137.752-.345 1.419 1.491-.913 1.431.381-.216-1.315 1.228-1.184z"/><path d="m56.627 54.896-.672-1.111-.788 1.374-1.645.5 1.139.752-.345 1.416 1.492-.908 1.43.379-.216-1.315 1.227-1.184z"/><path d="m20.755 54.579-.669-1.438-.763 1.05-1.609-.236 1.119 1.283-.325 1.294 1.457-.256 1.408 1.036-.221-1.444 1.197-.652z"/><path d="m31.649 58.901 1.415.85-.222-1.408 1.198-.803-1.598-.429-.674-1.348-.767 1.142-1.615-.028 1.128 1.138-.328 1.329z"/><path d="m73.423 45.12-1.493.776-1.458-.446.24 1.264-1.221 1.049 1.645.003.705 1.092.771-1.257 1.655-.374-1.164-.783z"/><path d="m70.035 34.534.71 1.001.656-1.223 1.527-.428-1.126-.689.236-1.267-1.354.801-1.381-.356.288 1.183-1.087 1.045z"/><path d="m62.196 40.173-1.058 1.268-1.7.273.942.908-.638 1.367 1.639-.707 1.304.574.073-1.343 1.444-1.015-1.594-.124z"/></g><path d="m47.969 37.872-4.388 20.059c-.742 2.701-2.784 4.271-4.899 4.717l-15.382 1.779.667 2.922c.334 2.169 2.004 2.755 4.507 2.169l.06-.013-.978-4.326 9.317-1.329c1.755-.096 5.806-.844 7.204-5.182-.103 3.694-2.668 6.511-8.065 7.816.85.491 2.283.515 3.723.09 3.799-1.854 5.121-4.604 5.679-7.738l4.779-21.375z" fill="#dae251"/><path d="m99.235 62.935c-6.754-10.422-11.73-16.551-16.422-20.018l1.743-1.112c.239-.155.446-.36.604-.604l3.712-5.763c.496-.938.343-2.205-.646-2.799-8.604-5.173-13.547-7.443-22.362-8.731l.035-1.581 6.897-5.63c.256-.207.455-.474.582-.778l1.54-3.675c.528-1.479-.569-2.697-1.751-2.776l-11.101-.528-3.841-7.804c-.848-1.525-2.531-1.396-3.398-.318l-6.704 8.925-11.581 2.284c-1.191.23-2.319 1.692-1.125 3.279l2.364 2.724c-14.328 5.27-25.463 13.026-32.316 22.541l-5.311 12.575c-.311.744-.144 1.605.424 2.182l8.283 8.379c2.057 1.381 5.028 2.615 8.674 4.041.89 3.446 2.645 6.127 5.124 7.793 2.514 1.688 5.65 2.28 8.823 1.634 2.179-.444 7.918-2.06 7.922-2.06 4.943-1.313 7.992-3.002 10-5.565 13.168-3.126 24.597-4.396 40.273-1.234.33.067.67.048.992-.05l7.478-2.332c1.403-.514 1.78-1.931 1.088-2.999zm-9.162 3.417c-16.686-3.364-28.481-1.806-41.845 1.416-1.761 2.595-4.592 4.149-9.337 5.409-.01.004-7.688 2.006-7.688 2.006-.038.01-.075.02-.112.027-4.72.942-10.346-1.172-11.854-9.009-2.906-.89-6.357-2.532-8.952-3.9l-8.282-8.382 5.088-12.178c7.058-9.8 18.84-17.665 34.135-22.798l-4.297-4.949 12.336-2.433 7.163-9.542 4.361 8.865 12.281.583-1.541 3.677-7.613 6.212-.098 4.295c9.816 1.225 14.604 3.396 23.371 8.698l-3.714 5.766s-2.203 1.407-4.386 2.794c4.867 2.605 10.099 8.168 18.461 21.113z" fill="#a7b1b7"/><path d="m51.91 14.948 1.623 2.282 1.204-6.304z" fill="#a7b1b7"/><path d="m52.077 18.078-7.358-1.813 4.488 3.32z" fill="#a7b1b7"/><path d="m52.479 21.758.509-2.538-6.183 6.098z" fill="#a7b1b7"/><path d="m54.47 19.014 3.238 5.413-.316-5.078z" fill="#a7b1b7"/><path d="m55.497 17.451 7.826-2.793-5.611.174z" fill="#a7b1b7"/><path d="m67.475 42.308 12.632-7.804c-12.279-7.127-31.154-7.01-41.874-1.407l-3.427 7.089c5.113-2.927 11.51-5.04 17.845-5.757 4.371-.539 8.427-.411 11.474.439 2.639.581 5.086 1.539 7.211 2.932l-3.873 2.513c.148-1.233 1.807-2.029-1.575-3.659l-9.295 4.588c-1.275.6-2.112 1.52-2.157 2.104l-.401 1.977c5.876.564 14.181 2.436 19.509 6.336-4.304-.518-11.641-.139-18.896 1.507-1.331.302-2.668.692-3.057 2.362l-.89 4.446c1.269-.204 2.487-.472 3.662-.69 12.943-2.387 27.61-3.095 34.961-.842-5.645-8.259-11.878-14.136-21.849-16.134zm-22.633-8.662-.026 1.276-1.267-.249-1.547 1.028.563-1.425-.929-.644 1.616-.632.972-1.425.435 1.035 1.529-.237zm13.987-1.795-.193 1.298-1.164-.575-1.599.659.719-1.315-.794-.891 1.613-.238 1.105-1.211.275 1.168 1.479.143zm11.916 3.684-.71-1.001-1.531.067 1.087-1.045-.288-1.183 1.381.355 1.354-.8-.236 1.267 1.126.689-1.526.428zm-7.987 6.978-.073 1.344-1.304-.574-1.639.707.638-1.367-.941-.908 1.699-.272 1.059-1.269.412 1.201 1.594.124zm-5.52 14.785-1.431-.379-1.491.908.345-1.416-1.139-.752 1.645-.5.788-1.374.672 1.11 1.622-.097-1.227 1.185zm11.751-1.558-1.432-.381-1.49.913.345-1.42-1.137-.752 1.643-.496.787-1.379.671 1.113 1.625-.098-1.228 1.184zm3.623-8.139-.771 1.258-.705-1.093-1.645-.003 1.221-1.049-.24-1.264 1.458.445 1.493-.775-.32 1.324 1.164.782zm8.413 7.734-1.352-.761-1.338.567.243-1.391-1.097-1.078 1.501-.098.66-1.235.683 1.331 1.507.314-1.081.923z" fill="#e03a3e"/><path d="m12.139 47.776c-1.599 1.575-2.378 4.721-.449 7.549 5.955 2.931 12.442 4.541 18.827 5.229l5.668-.533c3.337-.49 3.854-1.518 4.166-2.81l.464-2.134c-9.414.291-20.838-1.24-28.676-7.301zm9.234 9.536-1.407-1.035-1.458.256.326-1.294-1.119-1.283 1.608.236.763-1.051.669 1.438 1.594.637-1.197.652zm11.691 2.439-1.415-.85-1.463.442.328-1.329-1.127-1.138 1.615.028.767-1.143.674 1.349 1.598.429-1.198.803z" fill="#e03a3e"/><path d="m41.293 28.409 2.668-6.45c-15.276 4.885-26.858 12.48-33.616 21.864l-2.317 5.354c-.152.36.313.773.746.43 10.789-11.314 21.324-16.979 32.519-21.198zm-5.815-1.148 1.001-1.701.499 1.023 1.636-.539-1.409 1.607.01 1.366-1.369-.029-1.629 1.382.561-1.624-1.017-.512zm-11.053 5.994.78-1.629.619.735 1.55-.812-1.197 1.641.178 1.127-1.357.281-1.441 1.509.358-1.468-1.069-.196zm-9.561 6.965.725-1.581.573.713 1.437-.784-1.104 1.593.165 1.092-1.26.271-1.335 1.459.33-1.423-.99-.19z" fill="#e03a3e"/><path d="m36.239 32.615c-6.76 2.994-14.174 7.238-21.852 14.324 8.619 5.762 20.34 6.412 27.929 5.953l3.269-14.999c-2.313.523-8.979 3.125-12.926 5.78-1.536 1.034-1.819.379-1.213-.986z" fill="#00275d"/><path d="m79.091 42.911c2.183-1.387 4.386-2.794 4.386-2.794l3.714-5.766c-8.768-5.302-13.555-7.473-23.371-8.698l.098-4.295 7.613-6.212 1.541-3.677-12.282-.584-4.361-8.865-7.163 9.542-12.336 2.432 4.297 4.949c-15.295 5.134-27.078 12.998-34.135 22.798l-5.089 12.178 8.282 8.382c2.594 1.368 6.045 3.011 8.952 3.9 1.508 7.837 7.134 9.951 11.854 9.009.038-.008.074-.018.112-.027 0 0 7.678-2.002 7.688-2.006 4.745-1.26 7.576-2.814 9.337-5.409 13.363-3.222 25.159-4.78 41.845-1.416l7.479-2.327c-8.363-12.946-13.594-18.508-18.461-21.114zm-31.4 19.488c-1.405 4.24-4.071 6.229-10.115 7.836-.004 0-7.681 2.002-7.681 2.002-.02.006-.038.011-.057.014-4.196.84-7.583-.971-8.431-4.504.001.008-1-4.082-1-4.082-.136-.641.097-1.199.879-1.235l4.756-.448c-10.36-1.505-17.209-5.555-21.912-8.787l4.48-10.479c10.685-14.171 25.287-19.512 36.726-23.283l-4.787-4.376 9.754-1.926 5.737-7.637 2.711 7.015 9.772.463-8.484 6.592-.056 7.523c8.963.704 16.807 2.541 24.023 7.362l-11.576 7.151c7.198 2.634 13.04 6.889 21.415 19.912-14.403-4.818-29.321-1.869-46.154.887z" fill="#00275d"/><path d="m53.327 36.371c.014.111-.951 4.718-.951 4.718l9.453-4.667c-2.379-.384-5.318-.405-8.502-.051z" fill="#00275d"/><path d="m50.001 52.142c3.666-.811 8.463-2.014 14.955-2.515-5.059-1.702-10.508-2.4-13.883-2.485z" fill="#00275d"/><path d="m70.045 41.896 12.012-7.42c-7.437-4.595-16.865-6.851-27.972-6.373l.738-3.455 4.221 2.228-.003-7.77 6.8-5.286-7.803-.371-2.292-5.93-4.874 6.489-8.218 1.62 4.792 4.38-3.2 7.867 5.015-2.441-.719 3.3c-4.379.728-7.733 2.098-11.046 3.615l-4.912 10.183c2.883-1.972 9.116-4.738 14.31-6.025l-4.593 21.158c-.643 2.672-2.396 3.841-5.866 4.34l-15.055 1.42 1.001 4.088c.708 2.952 3.505 4.506 7.261 3.755l7.677-2.001c6.591-1.754 8.679-3.924 9.801-8.508l5.4-25.329c3.882-.51 7.523-.487 10.386.142.81.148 1.556.611.585 1.144l-11.426 5.644-.809 3.791c3.989.128 10.582 1.06 16.235 3.36.908.41 1.118.943.147.971-6.398.157-12.103 1.468-17.889 2.72l-1.741 8.151c19.701-3.344 31.735-4.761 43.573-1.377-7.15-11.459-13.957-15.911-21.536-18.08zm-15.575-22.882 2.922.334.316 5.079zm3.242-4.182 5.611-.174-7.826 2.792zm-2.975-3.906-1.204 6.304-1.623-2.282zm-10.018 5.339 7.358 1.813-2.87 1.507zm2.086 9.053 6.183-6.099-.509 2.538zm-1.39 33.518c-.558 3.134-1.88 5.885-5.679 7.738-1.44.425-2.873.401-3.723-.09 5.397-1.306 7.962-4.122 8.065-7.816-1.398 4.338-5.449 5.086-7.204 5.182l-9.317 1.329.978 4.326-.06.013c-2.503.586-4.173 0-4.507-2.169l-.668-2.922 15.382-1.779c2.115-.446 4.157-2.016 4.899-4.717l4.388-20.059 2.226-.411zm8.946.446c-1.175.219-2.394.486-3.662.69l.89-4.446c.389-1.67 1.726-2.061 3.057-2.362 7.256-1.646 14.593-2.024 18.896-1.507-5.328-3.9-13.633-5.771-19.509-6.336l.401-1.977c.045-.584.882-1.504 2.157-2.104l9.295-4.588c3.382 1.63 1.724 2.426 1.575 3.659l3.873-2.513c-2.125-1.393-4.572-2.351-7.211-2.932-3.047-.851-7.103-.978-11.474-.439-6.334.717-12.731 2.83-17.845 5.757l3.427-7.089c10.72-5.603 29.595-5.721 41.874 1.407l-12.632 7.804c9.972 1.998 16.204 7.875 21.848 16.133-7.349-2.251-22.016-1.543-34.96.843z" fill="#00275d"/><path d="m36.343 60.934c2.322-.238 4.17-.831 4.997-3.583l.723-3.325c-9.675.46-21.492-1.034-29.255-7 8.906-8.467 18.001-13.725 29.296-17.857l3.651-8.829c-17.281 5.368-28.548 12.544-36.277 22.931l-4.036 9.559c7.093 4.754 14.019 7.51 25.118 8.762zm-28.315-11.757 2.317-5.354c6.758-9.384 18.34-16.979 33.616-21.864l-2.668 6.45c-11.195 4.219-21.73 9.884-32.519 21.198-.433.343-.898-.07-.746-.43zm3.662 6.148c-1.929-2.828-1.15-5.974.449-7.549 7.837 6.061 19.262 7.592 28.676 7.301l-.464 2.134c-.312 1.292-.829 2.319-4.166 2.81l-5.668.533c-6.385-.688-12.872-2.298-18.827-5.229z" fill="#00275d"/><path d="m97.331 67.899c-1.184 0-2.145.961-2.145 2.145 0 1.185.961 2.146 2.145 2.146 1.186 0 2.146-.961 2.146-2.146.001-1.184-.96-2.145-2.146-2.145zm0 3.83c-.931 0-1.686-.754-1.686-1.686 0-.93.755-1.685 1.686-1.685.932 0 1.686.755 1.686 1.685 0 .933-.754 1.686-1.686 1.686z" fill="#00275d"/><path d="m98.212 69.547c0-.401-.325-.729-.727-.729h-1.035v2.453h.461v-.996h.33l.464.996h.508l-.484-1.039c.282-.101.483-.369.483-.685zm-.727.267h-.574v-.536h.574c.147 0 .268.119.268.269 0 .147-.12.267-.268.267z" fill="#00275d"/></svg>