<svg version="1.2" xmlns="http://www.w3.org/2000/svg" viewBox="0 0 2400 2400" width="316" height="316">
	<style>
		.s0 { fill: #000000 } 
		.s1 { fill: #ffffff } 
		.s2 { fill: #ffd100 } 
	</style>
	<g id="Layer 1">
		<path class="s0" d="m1200 0c-662.78 0-1200 537.22-1200 1200 0 662.74 537.22 1200 1200 1200 662.74 0 1200-537.26 1200-1200 0-662.78-537.26-1200-1200-1200z"/>
		<path class="s1" d="m1988.78 1874.33q-13.17 15.37-26.93 30.26-13.76 14.89-28.09 29.21-14.36 14.33-29.21 28.09-14.89 13.72-30.26 26.92c-162.19 138.75-367.61 228.34-593.36 245.74-26.7 2.06-53.63 3.45-80.93 3.45-27.3 0-54.22-1.39-81-3.45-225.71-17.4-431.1-106.95-593.32-245.74q-15.38-13.2-30.27-26.96-14.85-13.76-29.17-28.09-14.33-14.32-28.09-29.21-13.76-14.89-26.96-30.26c-138.75-162.15-228.3-367.58-245.74-593.33-2.02-26.74-3.41-53.66-3.41-80.96 0-27.26 1.39-54.19 3.41-80.93 17.44-225.75 106.99-431.17 245.74-593.36q13.2-15.37 26.96-30.26 13.76-14.89 28.09-29.21 14.32-14.33 29.17-28.09 14.89-13.76 30.27-26.96c162.26-138.75 367.61-228.27 593.32-245.74 26.78-2.06 53.7-3.41 81-3.41 27.3 0 54.23 1.35 80.93 3.41 225.75 17.47 431.13 106.99 593.36 245.74q15.37 13.2 30.26 26.96 14.89 13.76 29.21 28.09 14.33 14.32 28.09 29.21 13.76 14.89 26.93 30.26c138.78 162.19 228.3 367.61 245.73 593.36 2.06 26.74 3.45 53.67 3.45 80.93 0 27.3-1.39 54.22-3.45 80.96-17.43 225.75-106.95 431.18-245.73 593.37z"/>
		<path class="s2" d="m1789.95 1280.96h444.56c2.06-26.74 3.45-53.7 3.45-80.96 0-27.26-1.39-54.19-3.45-80.96h-455.17l10.61-9.26v-352.17l-17.66-15.45 216.49-216.45q-13.17-15.41-26.93-30.26-13.76-14.89-28.09-29.21-14.32-14.36-29.21-28.13-14.89-13.76-30.26-26.92l-224.03 224.02-136.91-119.96h-232.42v-349.8c-26.7-2.06-53.63-3.41-80.93-3.41-27.3 0-54.22 1.35-81 3.41v349.8h-443.1v46.16l-150.23-150.22q-15.37 13.16-30.26 26.96-14.85 13.76-29.17 28.09-14.33 14.32-28.09 29.21-13.76 14.89-26.96 30.26l264.71 264.68v328.65h-510.45c-2.02 26.77-3.41 53.7-3.41 80.96 0 27.26 1.39 54.22 3.41 80.96h510.45v328.65l-264.71 264.64q13.2 15.41 26.96 30.26 13.76 14.89 28.09 29.21 14.32 14.37 29.17 28.13 14.89 13.76 30.26 26.92l150.23-150.18v36.33h443.1v359.59c26.77 2.1 53.7 3.45 81 3.45 27.3 0 54.22-1.35 80.92-3.45v-359.59h232.43l131.66-115.35 229.28 229.2q15.37-13.16 30.26-26.92 14.85-13.76 29.21-28.09 14.33-14.32 28.09-29.17 13.76-14.89 26.92-30.27l-221.7-221.73 22.88-20.07zm-723.45 81.42h283.24l49.61 44.02v89.93l-49.61 44.02h-283.24zm0-512.59h283.24l49.61 44.07v89.88l-49.61 44.07h-283.24z"/>
		<path class="s0" d="m732.22 571.57v1247.07h759.94l241.46-211.65v-300.94l-127.68-110.96 127.68-110.96v-300.94l-241.46-211.61zm723.45 950.02l-84.56 75.11h-360.98v-290.66h360.98l84.56 75.04zm0-512.51l-84.56 75h-360.98v-290.63h360.98l84.56 75.08z"/>
	</g>
</svg>