<?xml version="1.0"?>
<svg xmlns="http://www.w3.org/2000/svg" xmlns:xlink="http://www.w3.org/1999/xlink" width="216" height="167.411" viewBox="0 0 216 167.411">
<g>
	<g>
		<path fill="#FFFFFF" d="M108,164.221c-0.238-0.307-2.941-3.809-7.332-9.492c-0.965-0.043-1.847-0.121-2.629-0.215L108,167.411
			l14.717-19.051c-1.281,0.777-2.945,1.756-4.412,2.521C112.182,158.809,108.287,163.85,108,164.221z"/>
		<path fill="#FFFFFF" d="M40.277,76.546c-0.027-0.018-0.054-0.034-0.082-0.053c-3.598-2.496-6.233-5.937-7.684-10.001
			C16.848,46.214,4.77,30.576,3.97,29.542c0.877,0,11.918,0,28.498,0c0.023-0.023,0.041-0.043,0.065-0.067
			c0.705-0.665,1.412-1.277,2.238-1.883H0l45.408,58.786c-0.672-2.061-1.179-3.799-1.554-5.201
			C42.652,79.62,41.459,78.076,40.277,76.546z"/>
		<path fill="#FFFFFF" d="M184.439,27.592c0.977,0.078,2.129,0.137,3.631,0.211c2.287,0.114,5.023,0.813,7.787,1.739
			c9.557,0,15.536,0,16.172,0c-1.341,1.736-34.441,44.59-62.951,81.5c-1.203,2.285-2.27,4.826-3.381,7.477
			c-0.027,0.064-0.055,0.131-0.082,0.195L216,27.592H184.439z"/>
		<path fill="#FFFFFF" d="M151.014,104.051c0,0,9.955-12.834,21.266-27.417c0.422-2.376,1.389-8.203,1.441-11.935
			c0.064-4.783,0.002-8.034-2.947-17.792c-2.949-9.763-7.469-14.416-7.469-14.416s1.516-1.008,2.816-2.62
			c1.334-1.649,1.828-2.689,1.828-2.689s0.129-0.333,0.359-0.759c0.191-0.358,0.359-0.663,0.359-0.663s0.256-0.482,0.518-0.804
			c0.246-0.297,0.539-0.523,0.539-0.523l-0.084-0.187c-0.254,0.196-0.5,0.402-0.74,0.616c-0.98,0.882-1.918,2.224-2.99,3.91
			c-1.074,1.688-3.527,3.221-4.369,3.373c-0.045,0.008-0.09,0.008-0.135,0.013c1.361,1.555,2.82,3.504,4.518,6.745
			c3.844,7.339,4.971,19.308,4.83,24.351c-0.123,4.358,0.344,13.402-9.406,26.655c-2.52,3.893-5.807,7.043-9.461,10.807
			c-6.393,6.582-12.033,18.629-12.033,18.629c-2.498,6.443-4.994,12.92-8.104,16.268c-0.377,0.404-0.779,0.83-1.199,1.268
			c0.236,0.623,0.467,1.227,0.689,1.811c1.535-1.871,4.787-5.908,6.242-8.201c2.693-4.248,4.512-8.59,6.271-12.789
			c1.549-3.691,3.01-7.178,4.91-10.164C150.9,104.213,150.988,104.084,151.014,104.051z"/>
		<path fill="#FFFFFF" d="M124.732,120.952c0.234,0.67,0.469,1.328,0.699,1.98c0.693-1.553,1.238-3.031,1.545-4.332
			c1.398-5.938,4.543-14.672,4.893-19.568c0.346-4.889,1.301-17.428-2.414-26.374c-2.49-6.004-6.088-9.728-11.895-12.463
			c-2.863-1.347-7.203-1.706-11.826-1.371c1.29,0.051,2.256,0.207,2.902,0.361c0.221,0.007,0.432,0.012,0.658,0.022
			c3.75,0.179,9.727,3.004,13.088,7.809c3.363,4.803,6.365,8.887,6.725,21.736c0.295,10.486-3.328,21.93-5.781,28.135
			C123.785,118.233,124.252,119.584,124.732,120.952z"/>
		<path fill="#FFFFFF" d="M193.748,48.952c1.078-1.391,2.1-2.707,3.053-3.938c-0.092-0.256-0.223-0.609-0.414-1.1
			c-0.785-2.033-2.27-3.146-2.27-3.146s0.23,2.106,0.102,4.661C194.146,46.818,193.926,48.103,193.748,48.952z"/>
		<path fill="#FFFFFF" d="M181.908,54.44c-0.094,5.553-1.504,10.428-2.293,12.734c2.258-2.91,4.49-5.789,6.645-8.568
			c0.037-1.94,0.031-6.494-0.682-9.997c-1.57-7.73-5.438-9.413-5.438-9.413S182.045,46.467,181.908,54.44z"/>
		<path fill="#FFFFFF" d="M90.505,99.042c0.788,0.686,0.035-1.611-1.015-2.605c-1.053-1-0.551-0.152-2.049-2.102
			c-1.037-1.346-0.701-3.248-1.002-2.598c-0.17,0.373-0.248,1.551-0.248,1.551c-0.42,1.889,0.007,6.068,0.375,7.701
			c0.367,1.625,2.156,5.744,2.523,7.74c0.368,1.994,1.137,1.477,1.699,1.4c1.851-0.25,2.059-1.977,2.1-2.25
			c0.174-1.135,0.139-1.537-0.123-3.006c-0.263-1.471-0.787-2.258-1.893-3.68c-1.104-1.414-1.576-2.361-1.629-2.729
			C89.195,98.096,89.718,98.36,90.505,99.042z"/>
		<path fill="#FFFFFF" d="M93.052,125.149c-1.571-0.086-4.278-0.436-5.064-0.961c-0.785-0.525-1.312-1.223-1.486-1.658
			c-0.174-0.439-0.348-0.873-0.348-0.873l-0.523-0.088c-0.101,0.434-0.175,0.828-0.205,1.182c-0.048,0.572,0.021,1.029,0.29,1.354
			c0.438,0.521,2.011,1.395,3.059,1.48c1.048,0.09,3.407,0.525,5.154,0.352c1.746-0.178,4.891-0.611,6.116-0.963
			c0.156-0.045,0.182-0.072,0.106-0.09C99.637,124.772,94.423,125.227,93.052,125.149z"/>
		<path fill="#FFFFFF" d="M111.844,131.311c0-0.23-0.199-0.783-0.447-1.377c-1.695-2.699-3.6-5.977-5.721-10.023
			c0.153,0.738,0.359,1.596,0.645,2.523c0.208,0.682,0.46,1.398,0.762,2.133c0.068,0.164,0.137,0.33,0.209,0.496
			c1.156,2.635,2.632,5.445,3.458,6.475c0.088,0.109,0.17,0.205,0.242,0.273c0.492,0.457,1.082,0.686,1.967,0.623
			c0.016-0.002,0.031-0.006,0.049-0.008c-0.07-0.105-0.143-0.215-0.215-0.324c-0.371,0.041-0.543-0.018-0.543-0.018
			s0.166-0.248,0.195-0.512c-0.08-0.121-0.16-0.248-0.24-0.371c0.09,0.383,0.129,0.543-0.016,0.666c-0.164,0.137-0.51,0-0.51,0
			S111.844,131.801,111.844,131.311z"/>
		<path fill="#FFFFFF" d="M98.339,131.04c-0.601,0.127-0.574,0.943-0.441,2.191c0.13,1.25,0.395,2.074,0.395,2.074
			s-0.832-1.104-2.192-2.402c-1.456-1.387-1.993-1.934-2.387-1.867c-0.395,0.064-0.579,0.432-0.316,2.01
			c0.263,1.576,0.513,2.98,0.513,2.98s0.002,0.006,0.002,0.008c0.028,0.068,0.701,1.697,2.631,1.439
			c1.972-0.264,1.901-1.576,1.901-1.576s0.594,1.051,2.039,0.854c1.445-0.199,1.576-1.445,1.576-1.445s0.43,1.102,2.27,0.77
			c1.839-0.328,1.342-2.082,1.342-2.082s0.592,1.051,2.761,0.592c2.168-0.461,1.443-2.893,1.443-2.893s-0.01-0.016-0.025-0.047
			c-0.121-0.213-0.67-1.152-1.676-2.236c-1.1-1.186-2.505-2.115-2.891-2.008c-0.324,0.096-0.348,0.936-0.117,3.568
			c0.117,1.332,0.308,2.498,0.308,2.498s-0.352-0.494-1.403-1.611c-1.052-1.117-1.707-1.908-2.377-1.68
			c-0.748,0.258-0.431,1.219-0.188,2.518c0.169,0.896,0.263,1.129,0.421,2.143c-0.888-0.99-0.869-0.873-1.492-1.816
			C99.616,131.778,99.178,130.866,98.339,131.04z M96.445,137.102c0,0,0.279-0.51,0.276-0.938c-0.002-0.514-0.415-1.309-0.831-1.908
			c-0.416-0.605-1.541-2.318-1.541-2.318s1.577,1.811,2.131,2.619c0.559,0.814,0.594,0.928,0.698,1.34
			c0.07,0.277-0.186,1.047-0.301,1.117C96.761,137.086,96.445,137.102,96.445,137.102z M97.926,136.502
			c-0.414,0.346-0.922,0.521-0.922,0.521s0.337-0.662,0.337-0.986c0-0.322-0.169-0.797-0.777-1.578
			c-0.324-0.42-2.17-2.703-2.17-2.703s1.493,1.367,2.226,2.127c0.73,0.766,1.291,1.328,1.439,1.748
			C98.18,135.967,98.186,136.286,97.926,136.502z M108.262,129.844c0.918,0.965,1.297,1.605,1.385,2.072
			c0.088,0.469,0.082,0.932-0.092,1.398c-0.178,0.473-0.662,0.74-0.662,0.74s0.17-0.568,0.141-1.152
			c-0.029-0.588,0-0.967-0.645-1.908c-0.646-0.936-2.084-2.873-2.084-2.873C107.125,128.735,107.43,128.965,108.262,129.844z
			 M107.943,130.602c0.602,0.904,0.833,1.199,0.922,2.24c0.063,0.717-0.045,0.996-0.162,1.203c-0.115,0.211-0.89,0.248-0.89,0.248
			s0.503-0.34,0.525-1.176c0.021-0.84-0.262-1.531-0.517-2.061c-0.255-0.537-1.6-2.84-1.6-2.84
			C107.506,129.965,107.52,129.969,107.943,130.602z M104.369,132.551c0.469,0.559,0.857,0.805,1.033,1.303
			c0.14,0.412,0.202,0.98-0.046,1.246c-0.454,0.486-0.754,0.584-0.754,0.584s0.207-0.58,0.178-1.08
			c-0.029-0.496-0.173-1.074-0.41-1.455c-0.234-0.381-1.79-2.416-1.79-2.416S103.9,131.993,104.369,132.551z M104.008,132.879
			c0.463,0.699,0.649,1.494,0.659,1.779c0.01,0.26-0.057,0.846-0.196,1.029c-0.09,0.119-0.635,0.115-0.635,0.115
			s0.463-0.273,0.334-1.35c-0.075-0.646-0.265-1.256-0.717-1.971c-0.29-0.455-1.021-1.695-1.021-1.695
			S103.416,131.973,104.008,132.879z M100.067,136.481c0,0,0.287-0.254,0.333-0.742c0.047-0.486-0.046-0.842-0.23-1.273
			c-0.311-0.727-1.23-2.854-1.23-2.854s0.761,1.574,1.175,2.314c0.402,0.719,0.635,0.93,0.714,1.396
			c0.105,0.619-0.049,0.91-0.218,1.098C100.467,136.577,100.067,136.481,100.067,136.481z M101.48,135.932
			c-0.325,0.381-0.724,0.494-0.724,0.494s0.246-0.365,0.246-0.865c0-0.498-0.387-1.104-0.741-1.662
			c-0.351-0.555-1.231-2.377-1.231-2.377s0.872,1.35,1.373,1.994c0.447,0.576,1.121,1.117,1.208,1.439
			C101.699,135.28,101.803,135.549,101.48,135.932z"/>
		<path fill="#FFFFFF" d="M88.877,130.584c-2.16-2.914-3.316-4.281-4.351-6.045c-1.597-2.723-1.768-2.982-2.227-2.852
			c-0.458,0.129-0.557,0.785-0.393,2.195c0.163,1.408,1.047,3.83,2.424,7.305c1.375,3.471,2.883,5.928,3.537,6.975
			c0.237,0.381,0.595,0.645,1.02,0.811c0.747,0.291,1.708,0.27,2.618-0.023c1.113-0.359,1.834-0.721,2.162-1.67
			c0.16-0.467,0.156-0.785,0.057-1.049c-0.143-0.379-0.489-0.641-0.875-1.047C92.192,134.495,91.04,133.499,88.877,130.584z
			 M91.798,138.452c-0.261,0.113-0.789,0.277-0.789,0.277s0.516-0.545,0.303-1.273c-0.368-1.254-2.67-3.49-3.874-5.518
			c-1.206-2.029-4.251-8.395-4.251-8.395s2.998,5.727,5.063,8.695c1.345,1.936,3.186,3.559,3.687,4.754
			C92.176,137.569,91.971,138.379,91.798,138.452z M93.338,137.127c-0.235,0.703-0.678,0.951-1.027,1.146
			c-0.594,0.324,0.042-0.223-0.179-1.135c-0.291-1.215-2.106-2.732-3.82-5.07c-1.719-2.342-4.996-8.736-4.996-8.736
			s3.488,5.396,5.004,7.518c1.029,1.441,3.677,4.119,4.224,4.664C93.093,136.059,93.617,136.292,93.338,137.127z"/>
		<path fill="#FFFFFF" d="M130.947,141.092c-1.924-4.996-4.459-11.736-7.283-19.764c-0.338-0.961-0.666-1.908-0.99-2.846
			c-0.705-2.045-1.375-4.037-2.012-5.979c-0.635-1.928-1.234-3.803-1.805-5.631c-2.947-9.438-5.088-17.582-6.652-24.635
			c-0.172-0.783-0.34-1.556-0.5-2.313c-0.18-0.844-0.336-1.672-0.48-2.483c-1.584-9.009-1.107-15.813-1.191-16.724
			c-0.059-0.611,0-0.948-0.406-1.197c0.035,0.035-0.416-0.059-1.453-0.11c0.281,0.26,0.41,0.658,0.348,1.294
			c-0.164,1.609-0.518,5.747,0.889,14.243c1.811,10.938,4.172,21.811,12.133,44.639c8.166,23.41,11.855,31.729,11.855,31.729
			s-6.75-11.119-11.262-20.625c-4.51-9.506-11.598-27.066-16.595-43.66c-4.219-14.025-5.146-24.197-5.333-27.011
			c-0.582,0.152-0.924,0.308-1.158,0.441c0,0-0.336,0.359-0.342,0.685c-0.018,0.955,0.124,2.465,0.124,2.465
			c0.547,6.085,3.012,20.627,9.342,38.651c7.73,22.014,21.096,45.6,21.096,45.6s-8.549-13.734-16.736-30.801
			c-3.834-7.984-7.896-18.729-10.649-28.162c-0.349-1.191-0.982-3.402-1.65-3.352c-1.461,0.117-1.064,1.662-0.766,3.211
			c0.412,2.125,1.324,6.27,1.324,6.27s-1.396-3.117-3.102-9.535c-1.401-5.29-1.672-8.587-1.672-8.587s1.096,3.62,1.782,5.119
			c0.674,1.476,0.965,1.3,1.726,1.111c0.872-0.223,0.262-1.967,0-3.672c-0.263-1.702-0.697-3.335-1.599-8.3
			c-0.894-4.913-1.057-8.368-1.323-8.981c-0.086-0.203-0.807-1.038-2.258-0.643c-3.721,1.277-5.757,2.699-6.516,3.304
			c0,0.002-0.001,0.006-0.001,0.009c-0.009,0.086-0.01,0.175,0.003,0.277c0.078,0.558,0.559,13.968,11.453,38.766
			c10.893,24.799,17.749,32.102,21.18,36.842c0.215,0.299,0.443,0.602,0.678,0.904c0.574,0.738,1.201,1.486,1.854,2.225
			c-3.363,2.691-6.967,4.953-10.201,5.684c-24.614,5.553-2.455-3.346,3.746-11.766c0.041-0.057,0.088-0.121,0.133-0.182
			c-0.852-1.131-1.799-2.428-2.85-3.959c-0.393,0.287-0.813,0.58-1.238,0.852c-1.779,1.131-3.461,1.621-5.565,3.395
			c-2.101,1.783-1.828,2.654-2.427,2.842c-0.595,0.186-2.216-1.004-4.48-1.084c-2.263-0.08-4.254,0.596-7.995,0.615
			c-1.066,0.006-2.081-0.127-2.974-0.311c0.296,0.646,0.585,1.275,0.865,1.887c1.067,0.027,3.098,0.807,3.869,2.094
			c0.787,1.309,1.311,4.453,2.36,5.502c1.048,1.047,3.93,2.357-0.787,1.572c-0.453-0.076-0.88-0.15-1.293-0.227
			c0.156,0.334,0.303,0.65,0.444,0.949c0.027,0.006,0.054,0.006,0.081,0.014c0.104,0.031,10.549,3.068,21.721-2.266
			c2.764-1.32,7.236-4.172,7.281-4.201c0.141-0.088,0.295-0.137,0.451-0.154c3.063,3.291,6.322,6.178,7.129,6.871
			c0.795,0.684,1.615,1.309,2.682,1.006c1.059-0.299,1.02-1.232,0.711-2.311C134.498,150.118,133.107,146.704,130.947,141.092z"/>
		<path fill="#FFFFFF" d="M87.127,65.425c-0.068-0.04-0.151-0.081-0.251-0.121c-0.471-0.19-1.264-0.359-2.16-0.231
			c-1.877,0.27-2.446,1.476-2.446,1.476s-0.842-0.371-1.629-0.232c-1.126,0.192-1.283,1.008-1.283,1.008s-0.62-0.506-1.747-0.311
			c-0.824,0.144-1.28,0.971-1.28,0.971s-0.814-0.465-1.632-0.31c-0.815,0.152-1.436,0.853-1.436,0.853s-0.892-0.504-2.058-0.31
			c-1.166,0.195-1.787,1.126-1.787,1.126s-1.356-0.816-2.716-0.583c-1.36,0.232-1.903,0.624-2.057,0.931
			c-0.034,0.066-0.054,0.153-0.066,0.252c-0.09,0.781,0.469,2.507,1.191,4.366c0.815,2.098,1.863,4.078,2.214,4.467
			c0.349,0.387,0.698,0.659,1.126,0.582c0.424-0.078,0.93-0.853,1.047-1.434c0.118-0.583,0.466-3.301,0.35-4.349
			c-0.118-1.049-0.039-1.438-0.039-1.438s0.66,1.475,1.24,2.094c0.584,0.624,0.934,1.089,1.439,1.009
			c0.617-0.093,0.813-0.969,0.931-1.434c0.116-0.467,0.116-1.945,0.116-1.945s0.582,1.478,0.971,1.713
			c0.389,0.232,1.785-0.041,1.978-0.391c0.195-0.348,0-1.94,0-1.94s0.468,1.36,0.932,1.593c0.469,0.232,1.632-0.078,1.904-0.388
			c0.271-0.311,0.271-2.408,0.271-2.408s0.35,1.126,0.776,1.787c0.428,0.658,0.695,1.364,1.321,1.278
			c0.581-0.075,0.697-1.281,0.736-2.02c0.039-0.734-0.038-1.589-0.038-1.589s0.816,2.482,1.396,3.726
			c0.584,1.243,0.894,1.748,1.205,2.018c0.311,0.272,0.504,0.546,0.854,0.39c0.35-0.155,0.506-0.464,0.699-0.813
			c0.15-0.272,0.438-0.663,0.58-2.059c0.042-0.411,0.071-0.905,0.081-1.515c0.039-2.677-0.466-5.513-0.544-5.668
			C87.295,65.536,87.224,65.481,87.127,65.425z M68.4,72.817c-0.392-1.533-0.816-2.367-1.141-2.759
			c-0.419-0.506-0.455-0.436-1.025-0.799l0.531-0.102c0,0,0.594,0.254,1.193,1.091c0.595,0.831,0.852,2.417,1.156,4.493
			c0.307,2.081,0.477,3.732,0.477,3.732S68.917,74.845,68.4,72.817z M69.742,78.206c-0.148,0.244-0.13-2.395-0.653-5.178
			c-0.18-0.948-0.422-2.475-1.134-3.224c-0.383-0.402-1.036-0.808-1.036-0.808s1.71-0.024,2.202,0.665
			c0.491,0.687,0.972,2.779,1.02,4.548C70.189,75.981,69.888,77.96,69.742,78.206z M72.608,71.099
			c-0.445-1.057-1.396-2.354-1.396-2.354l0.322-0.083c0.102,0.083,0.799,1.005,1.328,2.469c0.527,1.466,0.664,3.356,0.664,3.356
			S73.049,72.151,72.608,71.099z M73.625,74.127c0,0-0.182-2.103-0.845-3.708c-0.354-0.85-1.122-1.897-1.122-1.897
			s0.909-0.263,1.251,0.327c0.346,0.59,0.598,1.607,0.793,2.789C73.898,72.816,73.625,74.127,73.625,74.127z M75.416,69.77
			c-0.51-1.039-1.089-1.517-1.089-1.517l0.272-0.102c0.102,0.035,0.749,0.527,1.294,1.975c0.544,1.448,0.835,3.099,0.835,3.099
			S75.927,70.808,75.416,69.77z M76.828,73.042c0,0-0.42-2.104-1.086-3.706c-0.351-0.85-1.073-1.398-1.073-1.398
			s1.053-0.213,1.398,0.375c0.343,0.592,0.451,1.559,0.647,2.738C76.912,72.229,76.828,73.042,76.828,73.042z M78.568,69.139
			c-0.716-1.43-1.192-1.668-1.192-1.668s0.237-0.189,0.357-0.087c0.119,0.103,0.699,0.461,1.259,2.212
			c0.563,1.754,0.75,2.898,0.75,2.898S79.006,70.017,78.568,69.139z M79.843,72.322c0,0-0.371-2.115-0.996-3.734
			c-0.332-0.857-1.041-1.418-1.041-1.418s1.059-0.188,1.389,0.409c0.33,0.6,0.414,1.566,0.582,2.75
			C79.947,71.514,79.843,72.322,79.843,72.322z M81.343,68.473c-0.306-0.708-0.937-1.531-0.955-1.549
			c-0.016-0.017,0.256-0.052,0.256-0.052s0.631,0.496,1.125,1.995c0.372,1.131,0.835,3.662,0.835,3.662S81.992,69.973,81.343,68.473
			z M82.717,72.256c0,0-0.616-3.112-0.918-3.893c-0.504-1.295-1.048-1.709-1.048-1.709s0.93-0.255,1.275,0.333
			c0.344,0.588,0.54,1.35,0.711,2.64C82.896,70.811,82.717,72.256,82.717,72.256z M85.738,68.271
			c-0.478-1.728-1.521-2.548-1.521-2.548s0.297-0.22,0.584-0.078c0.288,0.146,1.189,1.229,1.576,3.146
			c0.383,1.916,0.619,5.557,0.619,5.557S86.217,69.995,85.738,68.271z M87.238,73.584c0,0-0.507-4.75-0.736-5.554
			c-0.591-2.063-1.621-2.605-1.621-2.605s1.671-0.295,2.016,0.296c0.342,0.587,0.469,2.663,0.543,3.821
			C87.516,70.735,87.238,73.584,87.238,73.584z"/>
		<path fill="#FFFFFF" d="M94.342,153.834c-1.324-2.834-3.703-7.883-6.834-14.754c-0.173-0.381-0.349-0.766-0.526-1.156
			c-1.287-2.83-2.689-5.943-4.192-9.324c-2.034-4.578-3.851-8.936-5.489-13.082c-0.103-4.012-0.192-7.959-0.192-11.996
			c0-4.68-0.6-8.164-1.2-11.289c-0.6-3.121-1.562-6.482-5.523-10.566c-1.282-1.321-3.131-2.427-5.101-3.353
			c-0.959-4.326-1.396-7.315-1.558-8.368c-0.02-0.131-0.036-0.235-0.049-0.304c-0.058-0.329-0.098-0.612-0.2-0.854
			c-0.208-0.123-0.596-0.281-1.277-0.4c0.05,0.18,0.076,0.389,0.076,0.642c-0.002,1.62,0.687,6.027,2.921,14.343
			c2.874,10.709,5.771,22.417,15.93,44.354c10.419,22.498,13.745,30.121,13.745,30.121s-7.54-11.279-12.725-20.434
			c-10.325-18.227-11.358-23.102-18.851-42.146c-5.427-13.789-7.463-23.738-7.953-26.417c-0.25,0.13-0.414,0.258-0.587,0.358
			c0,0-0.99,0.545-0.858,1.466c0.104,0.737,0.285,1.353,0.285,1.353c3.563,16.235,7.637,28.749,11.555,37.29
			c10.49,22.854,23.799,43.16,23.799,43.16s-6.008-7.721-15.429-24.141c-6.006-10.479-11.042-20.771-14.632-31.176
			c-0.407-1.174-1.256-3.313-1.918-3.205c-1.445,0.234-0.86,1.662-0.437,3.182c0.583,2.096,0.732,1.834,1.984,5.92
			c0,0-1.869-2.693-4.084-8.955c-1.826-5.156-2.362-8.42-2.362-8.42s1.387,3.52,2.189,4.959c0.791,1.418,1.066,1.217,1.811,0.965
			c0.851-0.291,0.109-1.895-0.289-3.57c-0.398-1.678-0.909-3.295-2.209-8.169c-1.289-4.823-1.848-8.297-2.393-8.686
			c-0.37-0.261-0.702-0.338-2.148,0.064c-2.845,0.789-4.797,2.085-4.797,2.085c-0.609,0.497-0.91,0.843-0.91,0.843
			c0.002,0.065,0.012,0.134,0.029,0.208c0.019,0.085,0.078,0.484,0.209,1.181c-0.318-0.005-0.677-0.06-1.088-0.183
			c-1.281-0.383-2.033-0.896-2.009-2.747c0.019-1.502,1.962-3.309,6.169-5.253c3.099-1.434,5.92-1.627,7.863-4.024
			c1.823-2.249,0.643-4.875,1.429-8.281c0.785-3.405,1.492,0.09,3.59,2.451c2.096,2.36,3.362,3.391,5.198,4.699
			c1.834,1.311,2.03,2.772,1.309,3.438c-0.989,0.914-2.187,1.796-3.948,2.312c0.365,0.191,0.601,0.399,0.751,0.578
			c0.219,0.18,0.549,0.376,1.136,0.353c0.414-0.015,2.633-0.881,3.304-1.41c0.617-0.488,1.531-1.243,0.993-2.938
			c-0.538-1.691-2.23-1.999-7.693-8c-0.569-0.628-1.051-1.066-0.861-1.724c0.107-0.364,0.766-0.661,1.501-0.972
			c0,0,0.327-0.095,0.646-0.38c0.184-0.167,0.241-0.482,0.127-0.749c-0.225-0.522-1.161-1.094-2.413-1.215
			c-1.25-0.121-1.966,0.217-2.49,0.217c-0.39,0-0.67-0.338-0.754-0.792c-0.101,0.021-0.183,0.025-0.242,0.003
			c-0.829-0.307-1.384-1.564-1.977-2.311c-1.155-1.464-1.385-2.233-1.385-2.463c0-0.232,0.152-0.693,0.461-1.231
			c0.308-0.538,0.538-0.463,1.075-0.463c0.539,0,6.31,0,13.924-1.076c7.756-1.098,7.789-1.131,16.311-3.846
			c0.54,0,0.693,0.074,1.616,0.309c0.922,0.229,1.308,0.459,0.847,0.845c-0.461,0.386-2.937,2.992-4.771,5.768
			c-0.517,0.783-1.035,0.717-1.464,0.476c-0.066,0.129-0.258,0.253-0.567,0.315c-0.606,0.123-1.454,0.686-2.178,1.614
			c-0.727,0.929-0.356,1.827-0.477,1.987c1.592-0.482,3.03-1.344,2.761-0.673c-0.66,1.637-1.11,3.238-1.46,4.592
			c-0.615,2.385-0.308,6.076,1.384,8.231c1.694,2.154,4.19,1.634,5.959,1.48c0.15-0.011,0.359-0.074,0.564-0.15
			c0.173-0.16,0.418-0.371,0.698-0.592c-2.43,0.42-6.069,0.043-2.825-0.842c3.844-1.047,11.073-6.684,14.502-14.068
			c2-4.311,7.358-9.737,19.121-9.103c2.406,0.131,4.324,0.633,5.676,0.931c-1.584-0.811-3.551-1.549-6.346-2.417
			c-7.6-2.359-18.52-2.098-18.52-2.098s1.911-0.574,4.98-1.172c2.516-0.667,6.907-1.787,10.213-2.353
			c1.568-0.266,4.352-2.166,5.352-4.344c1.037-2.258,3.506-4.64,5.271-6.498c4.357-4.581,3.828-5.381,5.273-7.846
			c2.086-3.557,9.434-7.323,15.816-3.557c6.715,3.961,2.533,1.878-0.123,4.537c-1.959,1.961-0.039,6.79,2.453,8.826
			c0.656,0.537,1.33,0.964,2.035,1.352c0.145-0.05,0.463-0.035,1.006,0.068c2.834,0.535,2.988,0.535,6.287-0.23
			c3.295-0.769,5.365-1.457,8.586-2.226c1.801-0.428,4.348-0.93,6.711-1.381c0.754-0.377,1.559-0.702,2.336-0.869
			c2.609-0.559,3.557-1.016,3.887-1.232c-0.223-0.274-0.865-0.784-2.33-1.254c-1.525-0.49-3.721-1.007-6.148-1.529
			c0.014,0.086,0.031,0.186,0.051,0.304c0.133,0.801,1.068,2.137,1.068,2.137s-1.604-1.069-2.402-2.539
			c-0.039-0.071-0.07-0.133-0.104-0.196c-1.207-0.253-2.449-0.506-3.682-0.756c0.002,0.235,0.045,0.512,0.178,0.819
			c0.4,0.934,2.137,3.339,2.137,3.339s-3.072-2.004-4.006-3.607c-0.236-0.403-0.344-0.721-0.375-0.973
			c-1.432-0.294-2.785-0.578-3.998-0.852c-0.021,0.34,0.025,0.775,0.23,1.29c0.535,1.337,3.607,4.409,3.607,4.409
			s-4.939-2.807-6.277-4.541c-0.609-0.794-0.662-1.392-0.539-1.808c-3.047-0.594-4.111-0.521-4.125-0.52
			c-0.232,0.019-0.479-0.039-0.674-0.166c-0.074-0.048-7.484-4.846-14.086-7.047c-8.635-2.88-18.926-4.167-27.529-3.442
			c-5.683,0.478-9.6,1.543-12.303,2.52c-0.201,0.186-0.397,0.386-0.583,0.602c-1.971,2.294,2.426,2.424,2.09,2.535
			c-0.337,0.112-3.399,1.051-6.653,2.957c-3.254,1.91-5.255,3.38-5.535,3.372c-0.707-0.02-2.028-1.527-5.099-2.811
			c-3.081-1.284-5.67-1.724-5.67-1.724s1.292-0.158,3.536-0.718c2.245-0.561,3.229-1.101,5.924-2.449
			c0.045-0.022,0.088-0.043,0.131-0.065c-2.268-0.083-5.082-0.043-8.398,0.378c-9.567,1.213-16.48,5.799-21.056,8.833
			c0,0-1.101,0.727-1.102,0.727c-2.301,1.502-3.915,3.432-3.932,3.451c-0.165,0.199-0.401,0.331-0.656,0.37
			c-0.016,0.002-1.52,0.237-2.797,1.109c-1.184,0.811-1.875,1.409-2.486,1.936c-0.161,0.14-0.318,0.274-0.477,0.407
			c-0.278,0.52-0.625,1.105-1.236,1.882c-1.441,1.837-4.717,4.458-4.717,4.458s1.275-1.542,2.846-3.637
			c0.332-0.442,0.591-0.806,0.801-1.11c-0.443,0.247-0.958,0.512-1.575,0.804c-1.554,1.795-4.394,4.068-4.394,4.068
			s1.084-1.316,2.486-3.163c-0.674,0.335-1.266,0.651-1.794,0.954c-1.308,1.2-2.612,2.177-2.612,2.177s0.544-0.479,1.256-1.341
			c-1.155,0.771-1.94,1.465-2.699,2.182c-1.104,1.042-1.216,1.739-1.167,1.924c0.174,0.072,0.525,0.188,1.181,0.308
			c1.488,0.268,2.915,1.218,4.493,2.991l0.131,0.147c1.388,1.563,2.305,2.595,2.066,4.264l-0.135,0.814
			c-0.038,0.193-0.052,0.265-0.129,1.271l-0.145,2.475c-0.042,0.963-0.066,1.493-0.213,1.936c-0.148,0.441-0.501,0.757-1.205,1.387
			c-0.992,0.889-2.494,2.231-3.728,4.212c-1.938,3.109-2.296,7.477-0.984,11.98c1.201,4.114,3.709,7.588,7.253,10.046
			c1.224,0.851,2.59,0.974,2.604,0.976c0.065,0.005,0.129,0.018,0.191,0.035c0.787,4.072,3.81,16.879,14.487,36.709
			c12.841,23.846,19.654,30.791,23.455,35.244c3.799,4.457,8.854,9.318,10.088,10.225c0.846,0.613,1.714,1.168,2.753,0.783
			c1.032-0.383,0.917-1.309,0.522-2.357C95.399,156.11,95,155.245,94.342,153.834z M67.723,87.719
			c-0.881-2.969-1.578-5.677-2.131-8.049c2.846,1.457,5.363,3.635,6.763,7.135c2.795,6.984,2.427,10.053,3.083,15.338
			c0.273,2.207,0.305,5.584,0.337,9.449C72.291,102.44,69.715,94.446,67.723,87.719z M156.557,22.514
			c3.582-0.523,11.793-1.484,11.793-1.484s-4.719,0.785-7.34,1.31c-2.619,0.524-5.676,1.662-7.422,1.662s-4.02-1.311-4.893-1.575
			C148.695,22.426,152.977,23.04,156.557,22.514z M89.734,20.768c0.918-1.312,2.098-2.753,4.455-3.799
			c2.358-1.049,3.537-1.312,6.813-2.1c3.276-0.784,4.457-0.784,4.457-0.784s-2.621,1.18-5.636,2.357
			c-3.014,1.179-2.881,1.049-4.585,2.752c-1.705,1.703-1.966,3.013-4.847,3.931c-2.885,0.916-4.195,0.523-4.195,0.523
			C86.852,23.256,88.817,22.076,89.734,20.768z M86.619,36.65c0.937-1.404,2.187-2.73,2.261-4.563
			c0.078-1.941-1.583-2.918-1.934-3.855c0,0,0.002,0.003,0.006,0.007c-0.076-0.144-0.028-0.212,0.161-0.137
			c0.656,0.263,1.513,0.495,2.542,0.272c0.848-0.184,1.299-0.537,2.7-1.582c2.416-1.803,3.275-2.622,7.729-4.586
			c4.455-1.965,3.933-1.31,7.994-1.834c4.061-0.523,9.041-1.309,13.494-2.488c4.455-1.18,6.16-3.538,6.16-3.538
			s-0.393,1.181-1.182,2.096c-0.785,0.919-1.309,1.701-3.143,3.277c-1.717,1.47-4.154,3.568-5.488,5.521
			c-0.184,0.316-0.391,0.545-0.547,0.686c-0.143,0.129-0.242,0.19-0.242,0.19c-0.424,0.258-3.529,0.812-7.705,1.355
			c-3.881,0.499-12.369,2.852-15.164,5.395c-1.873,1.706-1.764,2.163-4.25,4.094c-2.106,1.639-2.106,1.562-3.042,2.03
			c-0.936,0.466-1.405-0.236-1.405-0.236S85.682,38.054,86.619,36.65z M68.563,40.118c-4.212,0.496-7.43-0.578-7.43-0.578
			s4.293,0,8.583-0.493c3.782-0.441,13.291-2.973,13.291-2.973S72.771,39.623,68.563,40.118z M72.539,37.058
			c-3.218,0.378-5.681-0.442-5.681-0.442s3.283,0,6.563-0.382c2.892-0.332,10.164-2.271,10.164-2.271S75.757,36.678,72.539,37.058z
			 M83.773,31.955c0,0-5.713,1.979-8.064,2.257c-2.35,0.279-4.146-0.322-4.146-0.322s2.395,0,4.792-0.274
			C78.465,33.368,83.773,31.955,83.773,31.955z M57.372,21.553c2.359-0.263,3.8-1.18,6.158-1.703
			c2.358-0.523,4.062-0.785,6.288-0.13c2.228,0.654,5.635,3.273,7.338,3.799c0,0,1.178,0.654,0.656,0.916
			c-0.523,0.261-0.656,0.523-2.883,0.916c-2.228,0.392-1.966-0.13-4.325-1.438c-2.358-1.312-1.834-1.181-4.454-1.836
			c-2.621-0.656-4.848,0.131-6.945,0.263C57.109,22.471,55.013,21.814,57.372,21.553z M47.02,27.874c0,0,0.432,0.396,1.676,0.721
			c0.76,0.195,1.082,0.189,3.238-0.098c2.156-0.285,1.647-0.341,4.521-0.818c2.874-0.481,6.612-0.284,9.104-0.047
			c2.492,0.242,4.885,1.058,6.179,1.105c1.293,0.045,1.867-0.241,2.586-0.528c0,0-1.313,1.106-2.539,2.106
			c-0.943,0.775-1.501,1.284-2.012,1.669c-0.232,0.27-0.684,0.497-1.168,0.78c-0.802,0.47-1.666,1.073-2.027,1.275
			c-0.002,0.001-0.006,0.002-0.009,0.004c-0.646,0.436-1.507,1.022-2.307,1.58c-2.3,1.602-1.254,0.993-1.696,0.496
			c-0.333-0.376-1.132-0.425-3.324-0.566c-2.192-0.142-3.572,0.024-4.918-0.742c-0.863-0.487-1.396-2.234-1.496-2.585
			c-0.742-0.964-1.784-2.063-2.347-2.344c-0.593-0.298-1.047-0.398-1.859-0.806C46.979,28.252,47.02,27.874,47.02,27.874z
			 M43.341,44.003c0,0,0.382-1.781,0.784-3.049c0.501-1.579,1.323-3.156,1.323-3.156s0.574,0.82,1.335,2.415
			c0.354,0.749,0.782,1.742,0.782,1.742s0.643-0.306,3.789-0.565c3.144-0.264,5.101-0.183,5.101-0.183s-2.43,0.047-7.147,1.358
			c-0.586,0.164-1.149,0.342-1.686,0.531c-2.309,0.813-4.112,1.802-5.164,2.447c-0.666,0.408-1.03,0.678-1.03,0.678L43.341,44.003z
			 M40.592,38.428c-0.392-0.74-1.012-1.441-1.74-2.26l-0.13-0.146c-0.673-0.757-1.32-1.365-1.96-1.843
			c0.413,0.038,0.916,0.065,1.531,0.065c1.975,0,3.675-0.197,3.675-0.197s-0.333,0.41-0.825,2.017
			C40.893,36.874,40.722,37.692,40.592,38.428z"/>
		<path fill="#FFFFFF" d="M57.502,32.886c0.328,0,0.353-1.04,1.481-1.909c0.222-0.17,0.625-0.365,1.096-0.557
			c0.621-0.254,1.358-0.505,1.97-0.701c0.691-0.221,1.219-0.373,1.219-0.373s-0.592-0.044-1.398-0.068
			c-0.442-0.014-0.948-0.02-1.459-0.009c-0.14,0.003-0.279,0.007-0.417,0.012c-1.574,0.065-2.358,0.065-2.554,0.198
			c-0.198,0.13-0.451,1.023-0.471,1.754C56.947,31.998,57.173,32.886,57.502,32.886z"/>
		<path fill="#FFFFFF" d="M107.762,25.378c0.328,0,0.099-1.148,1.705-2.199c0.309-0.202,0.893-0.48,1.523-0.759
			c0.576-0.255,1.186-0.507,1.67-0.703c0.521-0.211,0.893-0.355,0.893-0.355s-0.424,0.052-1.037,0.114
			c-0.35,0.034-0.76,0.072-1.191,0.105c-0.381,0.029-0.777,0.055-1.16,0.071c-1.574,0.065-2.427,0.272-2.625,0.406
			c-0.197,0.129-0.292,0.715-0.269,1.503C107.292,24.295,107.435,25.378,107.762,25.378z"/>
	</g>
	<g>
		<path fill="#00BFF3" d="M57.48,46.95c2.096-0.13,3.733-0.116,8.757-1.026c0.1-0.018,0.198-0.037,0.298-0.055
			c0.167,0.075,0.444,0.265,0.511,0.761c0.192,1.416,1.186,4.318,2.961,8.41c2.214,5.098,5.109,9.316,5.109,9.316
			s-3.065-6.31-4.218-9.955c-1.003-3.165-2.462-7.296-0.846-9.048c0.101-0.11,0.336-0.229,0.612-0.344
			c5.916-1.371,9.634-2.841,9.634-2.841s-10.242,2.357-15.241,2.836c-4.7,0.453-10.526,0.438-10.526,0.438s-0.591,0,0,1.049
			c0.588,1.048,0.719,1.441,1.112,1.441C56.038,47.933,55.382,47.082,57.48,46.95z"/>
		<path fill="#00BFF3" d="M109.41,74.948c-1.406-8.496-1.053-12.633-0.889-14.243c0.063-0.637-0.066-1.034-0.348-1.294
			c-0.899-0.045-2.237-0.058-4.1,0.073c-1.912,0.136-3.097,0.333-3.865,0.535c0.186,2.814,1.114,12.986,5.333,27.011
			c4.998,16.594,12.085,34.154,16.595,43.66c4.512,9.506,11.262,20.625,11.262,20.625s-3.689-8.318-11.855-31.729
			C113.582,96.758,111.221,85.885,109.41,74.948z"/>
		<path fill="#00BFF3" d="M65.197,83.373c-2.234-8.316-2.923-12.723-2.921-14.343c0-0.252-0.026-0.462-0.076-0.642
			c-0.69-0.123-1.682-0.205-3.106-0.167c-2.289,0.062-3.218,0.352-3.75,0.629c0.49,2.679,2.525,12.629,7.953,26.417
			c7.492,19.045,8.526,23.92,18.851,42.146c5.185,9.154,12.725,20.434,12.725,20.434s-3.325-7.623-13.745-30.121
			C70.967,105.79,68.07,94.083,65.197,83.373z"/>
		<path fill="#00BFF3" d="M200.264,32.616c-3.168-1.584-7.959-2.828-11.777-3.294c-3.822-0.468-5.508,0.278-9.598-1.55
			c-2.986-1.333-9.164-3.338-9.164-3.338s-0.293,0.226-0.539,0.523c-0.262,0.322-0.518,0.804-0.518,0.804s4.115,1.318,7.564,3.275
			c3.449,1.958,6.572,3.533,10.766,3.814c4.193,0.279,8.055,0.379,11.037,1.498c2.982,1.116,5.446,2.79,5.446,2.79l1.693-2.126
			C205.175,35.014,203.433,34.2,200.264,32.616z"/>
	</g>
	<path fill="#0099D8" d="M198.035,34.35c-2.982-1.119-6.844-1.219-11.037-1.498c-4.193-0.281-7.316-1.856-10.766-3.814
		c-3.449-1.957-7.564-3.275-7.564-3.275s-0.168,0.305-0.359,0.663c-0.23,0.426-0.359,0.759-0.359,0.759s0.793-0.194,4.199,1.442
		c3.408,1.64,8.256,6.16,12.906,7.993c4.65,1.835,8.059,0.133,11.072,0.461s5.699,2.227,5.699,2.227l1.655-2.167
		C203.481,37.14,201.018,35.465,198.035,34.35z"/>
	<g>
		<path fill="#FDB827" d="M59.992,29.282c0.139-0.005,0.278-0.009,0.417-0.012c0.161-0.423,0.327-0.753,0.421-0.925
			c-0.968-0.004-1.795,0.021-2.54,0.067c-0.441,0.212-1.953,1.066-1.916,2.78c0.042,1.838,1.47,2.97,1.921,3.283
			c0.714-0.003,1.473-0.026,2.251-0.054c-0.153-0.395-0.491-1.402-0.569-2.754c-0.024-0.428,0.021-0.85,0.1-1.247
			c-0.471,0.192-0.874,0.387-1.096,0.557c-1.128,0.869-1.153,1.909-1.481,1.909c-0.329,0-0.555-0.888-0.535-1.652
			c0.02-0.73,0.273-1.624,0.471-1.754C57.634,29.347,58.418,29.347,59.992,29.282z"/>
		<path fill="#FDB827" d="M54.913,28.83c-2.29,0.405-3.071,0.577-3.388,0.692c-0.318,0.118-0.175,0.607,0.461,1.419
			c0.256,0.326,0.526,0.787,0.833,1.26c0.459,0.703,1.006,1.432,1.744,1.779c0.371,0.176,0.84,0.292,1.381,0.369
			c-0.272-0.394-1.173-1.79-1.154-2.978c0.018-1.154,0.877-2.34,1.172-2.715C55.612,28.709,55.266,28.768,54.913,28.83z"/>
		<path fill="#FDB827" d="M64.12,28.443c-0.105-0.007-0.212-0.015-0.321-0.019c-0.88-0.04-1.666-0.063-2.379-0.074
			c0.098,0.181,0.271,0.518,0.45,0.928c0.807,0.024,1.398,0.068,1.398,0.068s-0.527,0.151-1.219,0.373
			c0.21,0.544,0.396,1.16,0.437,1.721c0.08,1.113-0.306,2.412-0.48,2.932c0.135-0.004,0.27-0.008,0.404-0.012
			c0.703-0.02,1.321-0.033,1.853-0.049c0.368-0.166,1.352-0.777,1.458-2.607C65.856,29.403,64.469,28.607,64.12,28.443z"/>
		<path fill="#FDB827" d="M66.409,28.872c0.252,0.249,0.935,1.044,1.003,2.436c0.071,1.424-0.705,2.477-0.968,2.792
			c0.047-0.018,0.088-0.035,0.125-0.055c0.003-0.001,0.007-0.002,0.009-0.004c0.362-0.202,1.226-0.805,2.027-1.275
			c0.485-0.283,0.937-0.51,1.168-0.78c0.1-0.116,0.163-0.238,0.163-0.377C69.936,31.36,68.973,29.696,66.409,28.872z"/>
		<path fill="#FDB827" d="M110.164,21.653c0.383-0.016,0.779-0.042,1.16-0.071c0.152-0.304,0.301-0.532,0.383-0.646
			c-1.156,0.124-2.307,0.258-3.346,0.393c-0.428,0.246-1.675,1.108-1.51,2.766c0.174,1.736,1.489,2.535,2.016,2.789
			c0.633-0.081,1.297-0.146,1.996-0.186c0.189-0.011,0.375-0.021,0.555-0.032c-0.18-0.431-0.535-1.427-0.611-2.73
			c-0.033-0.559,0.053-1.073,0.184-1.516c-0.631,0.278-1.215,0.557-1.523,0.759c-1.606,1.051-1.377,2.199-1.705,2.199
			c-0.327,0-0.471-1.083-0.493-1.816c-0.023-0.788,0.072-1.374,0.269-1.503C107.737,21.925,108.59,21.718,110.164,21.653z"/>
		<path fill="#FDB827" d="M106.193,21.643c-0.316,0.052-0.601,0.103-0.848,0.152c-2.387,0.478-4.447,1.434-5.56,2.785
			c-0.836,1.017-1.327,1.846-1.487,2.298c-0.053,0.15-0.07,0.259-0.05,0.318c0.081,0.236,1.701,1.154,3.612,0.994
			c1.19-0.099,2.789-0.563,4.828-0.955c-0.345-0.412-1.333-1.686-1.404-2.834C105.213,23.257,105.933,22.042,106.193,21.643z"/>
		<path fill="#FDB827" d="M114.457,20.661c-0.754,0.07-1.547,0.148-2.344,0.232c0.09,0.115,0.24,0.323,0.402,0.584
			c0.613-0.062,1.037-0.114,1.037-0.114s-0.371,0.144-0.893,0.355c0.297,0.52,0.598,1.197,0.646,1.887
			c0.078,1.103-0.334,2.429-0.525,2.976c1.002-0.066,1.803-0.128,2.432-0.185c0.477-0.227,1.477-0.931,1.453-2.858
			C116.639,21.299,115.111,20.78,114.457,20.661z"/>
		<path fill="#FDB827" d="M117.057,20.443c-0.215,0.016-0.441,0.032-0.676,0.051c0.436,0.196,1.74,0.912,1.939,2.519
			c0.107,0.871-0.053,1.535-0.287,2.022c0.52-0.784,1.188-1.875,1.963-2.878c1.352-1.75,3.664-4.062,3.664-4.062
			S120.402,20.209,117.057,20.443z"/>
	</g>
	<g>
		<path fill="#F79239" d="M151.736,53.336c0,0-2.135-0.912-2.424-2.07c-0.289-1.154,1.348-4.429,1.348-4.429
			s-0.865,1.535-1.682,2.353c-0.75,0.75-1.225,1.266-1.225,1.266l0.857,2.652L151.736,53.336z"/>
		<path fill="#F79239" d="M152.393,54.397l-3.006,1.551c0,0,0.123,0.491,0.326,1.531c0.188,0.955,0.225,1.348,0.225,1.348
			l3.469,0.913c0,0-2.65-1.205-2.842-2.358C150.373,56.226,152.393,54.397,152.393,54.397z"/>
		<path fill="#F79239" d="M151.291,63.358c-0.068-1.171,2.178-2.712,2.178-2.712l-3.063,1.102c0,0,0.08,0.489,0.123,1.549
			c0.039,0.981,0.063,1.469,0.063,1.469l3.184,1.37C153.775,66.137,151.363,64.526,151.291,63.358z"/>
		<path fill="#F79239" d="M153.613,67.177l-3.166,0.613c0,0-0.021,0.696-0.164,1.571c-0.143,0.878-0.283,1.717-0.283,1.717l2.693,2
			c0,0-1.693-1.754-1.469-3.207C151.449,68.424,153.613,67.177,153.613,67.177z"/>
		<path fill="#F79239" d="M152.551,74.1l-3.225,0.224c0,0-0.166,0.798-0.473,1.982c-0.305,1.184-0.672,2.265-0.672,2.265
			s0.797,0.451,1.695,1.388c0.824,0.86,1.594,2.225,1.594,2.225s-1.982-3.918-1.697-5.328C150.059,75.448,152.551,74.1,152.551,74.1
			z"/>
		<path fill="#F79239" d="M125.766,34.85c0,0-0.043-0.82-0.131-2.029c-0.076-1.053-0.631-2.916-0.631-2.916
			s-0.832,3.299-1.092,4.087c-0.264,0.786-1.16,1.639-2.6,2.032c-1.441,0.393-7.859,0.489-7.859,0.489s8.926,1.764,13.018,4.477
			c6.078,4.024,11.1,12.957,11.1,12.957s-2.373-8.919-6.563-13.919C126.945,35.178,125.766,34.85,125.766,34.85z"/>
		<path fill="#F79239" d="M88.101,10.673c-2.463,0.205-2.036-0.088-4.107-0.45c-1.951-0.342-4.238-0.406-4.238-0.406
			s2.375,0.798,4.105,1.538c1.914,0.822,3.47,2.126,3.711,2.103c0.342-0.038,2.443-1.455,4.906-2.921
			c2.013-1.204,5.247-2.348,5.247-2.348s-3.33,0.805-5.45,1.454C90.155,10.291,90.569,10.467,88.101,10.673z"/>
		<path fill="#F79239" d="M56.375,31.192c-0.037-1.713,1.474-2.568,1.916-2.78c-0.854,0.053-1.6,0.138-2.328,0.245
			c-0.295,0.375-1.155,1.561-1.172,2.715c-0.02,1.188,0.881,2.583,1.154,2.978c0.684,0.096,1.484,0.126,2.352,0.125
			C57.845,34.162,56.418,33.03,56.375,31.192z"/>
		<path fill="#F79239" d="M64.12,28.443c0.349,0.164,1.736,0.96,1.601,3.26c-0.107,1.83-1.09,2.441-1.458,2.607
			c1.076-0.033,1.803-0.078,2.181-0.212c0.263-0.314,1.039-1.368,0.968-2.792c-0.068-1.391-0.751-2.187-1.003-2.436
			C65.754,28.662,64.994,28.506,64.12,28.443z"/>
		<path fill="#F79239" d="M106.851,24.094c-0.165-1.658,1.083-2.52,1.51-2.766c-0.808,0.105-1.548,0.211-2.168,0.314
			c-0.26,0.399-0.98,1.614-0.908,2.758c0.071,1.148,1.059,2.423,1.404,2.834c0.676-0.131,1.403-0.252,2.178-0.352
			C108.34,26.629,107.025,25.83,106.851,24.094z"/>
		<path fill="#F79239" d="M116.666,23.537c0.023,1.927-0.977,2.631-1.453,2.858c1.107-0.102,1.688-0.191,1.918-0.279
			c0,0,0.1-0.061,0.242-0.19c0.156-0.141,0.363-0.37,0.547-0.686c0.037-0.066,0.076-0.131,0.113-0.205
			c0.234-0.487,0.395-1.151,0.287-2.022c-0.199-1.607-1.504-2.323-1.939-2.519c-0.592,0.046-1.24,0.102-1.924,0.166
			C115.111,20.78,116.639,21.299,116.666,23.537z"/>
		<path fill="#F79239" d="M45.481,42.999C45,42.42,45,39.968,45,39.968s-0.285,0.53-0.575,1.681
			c-0.29,1.154-0.624,2.568-0.624,2.568l-1.343,1.326c1.052-0.646,2.855-1.635,5.164-2.447
			C47.025,43.228,45.836,43.425,45.481,42.999z"/>
		<path fill="#F79239" d="M179.967,53.261c-0.529,2.993-1.318,4.487-2.816,4.312c-1.4-0.165-2.619-3.447-3.344-6.333
			c-1.23-4.927-4.133-10.205-4.133-10.205s4.838,12.315,5.012,19.882c0.182,7.741-0.648,12.132-1.201,14.165
			c1.469-1.895,2.955-3.813,4.441-5.729c0.752-2.036,2.008-5.986,2.566-10.898c0.793-6.952-0.262-13.46-0.262-13.46
			S180.492,50.268,179.967,53.261z"/>
		<path fill="#F79239" d="M193.426,42.881c0,0-0.529,2.902-1.23,5.015c-0.705,2.111-1.139,3.186-2.023,3.431
			c-1.584,0.438-2.07-2.47-2.992-4.309c-1.055-2.115-2.639-4.49-2.639-4.49s1.846,3.081,2.551,8.092
			c0.361,2.581,0.238,5.403,0.148,6.722c1.834-2.365,3.6-4.64,5.254-6.773c0.234-0.944,0.553-2.408,0.756-4.08
			C193.602,43.586,193.426,42.881,193.426,42.881z"/>
	</g>
	<g>
		<path fill="#6C98AC" d="M153.588,24c1.746,0,4.803-1.137,7.422-1.662c2.621-0.524,7.34-1.31,7.34-1.31s-8.211,0.961-11.793,1.484
			c-3.58,0.526-7.861-0.088-7.861-0.088C149.568,22.689,151.842,24,153.588,24z"/>
		<path fill="#6C98AC" d="M165.924,38.905c-1.697-3.241-3.156-5.19-4.518-6.745c-0.18-0.205-0.357-0.402-0.533-0.596
			c-1.516-1.659-2.48-2.175-3.104-2.626c-2.715-1.976-4.924-2.748-6.895-3.833c-0.705-0.388-1.379-0.814-2.035-1.352
			c-2.492-2.036-4.412-6.865-2.453-8.826c2.656-2.659,6.838-0.576,0.123-4.537c-6.383-3.767-13.73,0-15.816,3.557
			c-1.445,2.465-0.916,3.266-5.273,7.846c-1.766,1.858-4.234,4.24-5.271,6.498c-1,2.178-3.783,4.078-5.352,4.344
			c-3.307,0.566-7.698,1.686-10.213,2.353c2.141-0.417,4.846-0.845,7.862-1.097c7.338-0.612,7.359-0.677,7.359-0.677
			s1.18-0.458,2.488-2.555c1.311-2.094,2.686-3.078,2.686-3.078s0.744,1.506,1.006,2.815c0.262,1.312,0.83,3.932,0.83,3.932
			s3.713,2.357,7.906,9.87c4.191,7.512,4.891,16.424,4.891,16.424s-3.844-9.521-8.125-14.065c-2.705-2.87-4.295-4.485-7.018-5.881
			c-1.352-0.298-3.27-0.799-5.676-0.931c-11.763-0.635-17.121,4.792-19.121,9.103c-3.429,7.384-10.658,13.021-14.502,14.068
			c-3.244,0.885,0.395,1.262,2.825,0.842c0.266-0.209,0.557-0.424,0.837-0.608c1.069-0.701,2.813-1.584,5.199-2.437
			c2.727-0.977,4.586-1.425,8.302-1.779c1.316-0.126,2.445-0.146,3.402-0.108c4.623-0.335,8.962,0.024,11.826,1.371
			c5.807,2.735,9.404,6.459,11.895,12.463c3.715,8.946,2.76,21.485,2.414,26.374c-0.35,4.896-3.494,13.631-4.893,19.568
			c-0.307,1.301-0.852,2.779-1.545,4.332c1.879,5.291,3.625,10.004,5.119,13.949c0.42-0.438,0.822-0.863,1.199-1.268
			c3.109-3.348,5.605-9.824,8.104-16.268c0,0,1.063-6.029,4.072-11.984c3.008-5.955,5.076-11.16,6.52-14.418
			c1.441-3.26,2.381-6.203,1.066-9.404c-1.318-3.2-4.076-4.764-4.076-4.764s0.375-1.034,0.842-2.736
			c0.182-0.66,0.564-2.259,0.564-2.259l3.734-0.148l-3.258-2.193c0,0,0.225-1.308,0.32-2.002c0.096-0.687,0.244-2.129,0.244-2.129
			l3.756-0.637l-3.613-1.543c0,0,0.006-1.186-0.035-1.964c-0.031-0.588-0.145-1.757-0.145-1.757l3.527-1.22l-3.83-0.903
			c0,0-0.23-1.259-0.365-1.859c-0.131-0.612-0.416-1.757-0.416-1.757l3.443-1.805l-4.045-0.332c0,0-0.396-1.262-0.563-1.746
			c-0.316-0.917-0.531-1.454-0.531-1.454s3.883-2.914,5.049-8.355c1.166-5.438-1.555-11.461-1.555-11.461
			s10.916,11.773,13.863,22.557c2.945,10.784,3.135,16.173,1.129,26.267c-0.859,4.323-2.318,7.655-4.205,10.571
			c9.75-13.252,9.283-22.296,9.406-26.655C170.895,58.213,169.768,46.244,165.924,38.905z"/>
		<path fill="#6C98AC" d="M43.914,74.174c0,0-0.167-2.152,5.832-4.552c2.688-1.078,4.528-1.73,8.241-2.117
			c2.509-0.261,3.897,0.062,4.679,0.47c1.761-0.516,2.959-1.397,3.948-2.312c0.721-0.666,0.525-2.127-1.309-3.438
			c-1.835-1.309-3.102-2.339-5.198-4.699c-2.098-2.36-2.805-5.855-3.59-2.451c-0.787,3.406,0.394,6.033-1.429,8.281
			c-1.943,2.397-4.764,2.59-7.863,4.024c-4.207,1.945-6.15,3.751-6.169,5.253c-0.023,1.85,0.728,2.363,2.009,2.747
			c0.411,0.123,0.77,0.177,1.088,0.183c-0.131-0.697-0.19-1.096-0.209-1.181C43.926,74.308,43.917,74.239,43.914,74.174z"/>
		<path fill="#6C98AC" d="M96.242,149.432c-1.049-1.049-1.573-4.193-2.36-5.502c-0.771-1.287-2.802-2.066-3.869-2.094
			c1.684,3.664,3.092,6.684,4.148,8.941c0.414,0.076,0.84,0.15,1.293,0.227C100.172,151.79,97.291,150.479,96.242,149.432z"/>
		<path fill="#6C98AC" d="M96.621,133.883c-0.733-0.76-2.226-2.127-2.226-2.127s1.846,2.283,2.17,2.703
			c0.608,0.781,0.777,1.256,0.777,1.578c0,0.324-0.337,0.986-0.337,0.986s0.508-0.176,0.922-0.521
			c0.26-0.217,0.254-0.535,0.134-0.871C97.912,135.211,97.351,134.649,96.621,133.883z"/>
		<path fill="#6C98AC" d="M101.61,134.956c-0.087-0.322-0.761-0.863-1.208-1.439c-0.5-0.645-1.373-1.994-1.373-1.994
			s0.881,1.822,1.231,2.377c0.354,0.559,0.741,1.164,0.741,1.662c0,0.5-0.246,0.865-0.246,0.865s0.399-0.113,0.724-0.494
			C101.803,135.549,101.699,135.28,101.61,134.956z"/>
		<path fill="#6C98AC" d="M105.356,135.1c0.248-0.266,0.186-0.834,0.046-1.246c-0.175-0.498-0.563-0.744-1.033-1.303
			s-1.789-1.818-1.789-1.818s1.555,2.035,1.79,2.416c0.236,0.381,0.381,0.959,0.41,1.455c0.029,0.5-0.178,1.08-0.178,1.08
			S104.902,135.586,105.356,135.1z"/>
		<path fill="#6C98AC" d="M109.555,133.315c0.174-0.467,0.18-0.93,0.092-1.398c-0.088-0.467-0.467-1.107-1.385-2.072
			c-0.832-0.879-1.137-1.109-1.957-1.723c0,0,1.438,1.938,2.084,2.873c0.645,0.941,0.615,1.32,0.645,1.908
			c0.029,0.584-0.141,1.152-0.141,1.152S109.377,133.788,109.555,133.315z"/>
		<path fill="#6C98AC" d="M88.313,132.069c1.713,2.338,3.529,3.855,3.82,5.07c0.221,0.912-0.415,1.459,0.179,1.135
			c0.349-0.195,0.792-0.443,1.027-1.146c0.279-0.836-0.245-1.068-0.793-1.613c-0.547-0.545-3.195-3.223-4.224-4.664
			c-1.516-2.121-5.004-7.518-5.004-7.518S86.594,129.727,88.313,132.069z"/>
		<path fill="#6C98AC" d="M120.469,140.735c-3.432-4.74-10.287-12.043-21.18-36.842C88.395,79.096,87.914,65.686,87.836,65.127
			c-0.014-0.102-0.012-0.191-0.003-0.277l-0.006-0.002l-0.699,0.577c0.097,0.056,0.168,0.111,0.19,0.152
			c0.078,0.155,0.583,2.991,0.544,5.668c-0.009,0.61-0.039,1.104-0.081,1.515c0.536,2.742,1.325,6.09,2.485,10.042
			c0.362,1.235,0.762,2.532,1.201,3.883c1.641,5.066,3.838,10.953,6.785,17.662c2.723,6.199,5.193,11.307,7.423,15.563
			c2.122,4.047,4.026,7.324,5.721,10.023c0.275,0.438,0.543,0.857,0.809,1.268c0.08,0.123,0.16,0.25,0.24,0.371
			c-0.029,0.264-0.195,0.512-0.195,0.512s0.172,0.059,0.543,0.018c0.072,0.109,0.145,0.219,0.215,0.324
			c0.281,0.422,0.553,0.826,0.82,1.215c1.051,1.531,1.998,2.828,2.85,3.959c-0.045,0.061-0.092,0.125-0.133,0.182
			c-6.201,8.42-28.36,17.318-3.746,11.766c3.234-0.73,6.838-2.992,10.201-5.684c-0.652-0.738-1.279-1.486-1.854-2.225
			C120.912,141.336,120.684,141.034,120.469,140.735z"/>
		<path fill="#6C98AC" d="M98.833,63.609c0,0-0.578-1.603-1.461-2.15c-0.773-0.476-2.126-0.222-2.671-0.04
			c-0.119,0.04-0.236,0.079-0.352,0.119c1.451-0.395,2.172,0.439,2.258,0.643c0.266,0.613,0.429,4.068,1.323,8.981
			c0.901,4.965,1.336,6.599,1.599,8.3c0.262,1.705,0.872,3.449,0,3.672c-0.761,0.189-1.052,0.365-1.726-1.111
			c-0.686-1.499-1.782-5.119-1.782-5.119s0.271,3.298,1.672,8.587c1.705,6.418,3.102,9.535,3.102,9.535s-0.913-4.145-1.324-6.27
			c-0.298-1.549-0.696-3.094,0.766-3.211c0.667-0.051,1.301,2.16,1.65,3.352c2.752,9.434,6.815,20.178,10.649,28.162
			c8.188,17.066,16.736,30.801,16.736,30.801s-13.365-23.586-21.096-45.6C101.846,84.237,99.38,69.694,98.833,63.609z"/>
		<path fill="#6C98AC" d="M66.918,68.996c0,0,0.653,0.405,1.036,0.808c0.711,0.749,0.954,2.275,1.134,3.224
			c0.523,2.784,0.505,5.422,0.653,5.178c0.146-0.246,0.448-2.225,0.399-3.997c-0.048-1.769-0.529-3.861-1.02-4.548
			C68.629,68.972,66.918,68.996,66.918,68.996z"/>
		<path fill="#6C98AC" d="M71.658,68.521c0,0,0.769,1.047,1.122,1.897c0.664,1.605,0.845,3.708,0.845,3.708s0.273-1.311,0.077-2.49
			c-0.195-1.182-0.447-2.199-0.793-2.789C72.567,68.259,71.658,68.521,71.658,68.521z"/>
		<path fill="#6C98AC" d="M74.669,67.938c0,0,0.722,0.548,1.073,1.398c0.666,1.602,1.086,3.706,1.086,3.706s0.083-0.813-0.113-1.991
			c-0.196-1.179-0.305-2.146-0.647-2.738C75.723,67.725,74.669,67.938,74.669,67.938z"/>
		<path fill="#6C98AC" d="M78.847,68.588c0.625,1.62,0.996,3.734,0.996,3.734s0.104-0.808-0.066-1.993
			c-0.168-1.185-0.252-2.151-0.582-2.75c-0.33-0.597-1.389-0.409-1.389-0.409S78.516,67.73,78.847,68.588z"/>
		<path fill="#6C98AC" d="M81.799,68.364c0.302,0.781,0.918,3.893,0.918,3.893s0.18-1.445,0.02-2.629
			c-0.172-1.291-0.367-2.052-0.711-2.64c-0.345-0.588-1.275-0.333-1.275-0.333S81.295,67.069,81.799,68.364z"/>
		<path fill="#6C98AC" d="M87.238,73.584c0,0,0.278-2.849,0.202-4.042c-0.075-1.159-0.202-3.234-0.543-3.821
			c-0.345-0.591-2.016-0.296-2.016-0.296s1.03,0.542,1.621,2.605C86.73,68.834,87.238,73.584,87.238,73.584z"/>
		<path fill="#6C98AC" d="M54.183,72.027c-0.606-1.083-0.621-1.042-1.111-1.414c-0.828-0.631-2.006-0.287-2.562-0.148
			c-2.681,0.686-4.625,1.999-5.686,2.865c0,0,1.952-1.297,4.797-2.085c1.447-0.402,1.779-0.325,2.148-0.064
			c0.544,0.388,1.104,3.862,2.393,8.686c1.3,4.875,1.811,6.492,2.209,8.169c0.398,1.676,1.14,3.279,0.289,3.57
			c-0.744,0.252-1.02,0.453-1.811-0.965c-0.803-1.439-2.189-4.959-2.189-4.959s0.537,3.264,2.362,8.42
			c2.215,6.262,4.084,8.955,4.084,8.955c-1.252-4.086-1.401-3.824-1.984-5.92c-0.424-1.52-1.009-2.947,0.437-3.182
			c0.662-0.107,1.511,2.031,1.918,3.205c3.59,10.404,8.626,20.697,14.632,31.176c9.421,16.42,15.429,24.141,15.429,24.141
			s-13.309-20.307-23.799-43.16C61.82,100.776,57.747,88.262,54.183,72.027z"/>
		<path fill="#6C98AC" d="M59.206,22.339c2.097-0.131,4.324-0.918,6.945-0.263c2.62,0.655,2.096,0.524,4.454,1.836
			c2.359,1.309,2.097,1.831,4.325,1.438c2.227-0.393,2.36-0.655,2.883-0.916c0.522-0.262-0.656-0.916-0.656-0.916
			c-1.703-0.526-5.111-3.146-7.338-3.799c-2.226-0.655-3.93-0.393-6.288,0.13c-2.358,0.523-3.799,1.44-6.158,1.703
			C55.013,21.814,57.109,22.471,59.206,22.339z"/>
		<path fill="#6C98AC" d="M90.391,23.125c2.881-0.918,3.143-2.228,4.847-3.931c1.704-1.703,1.571-1.573,4.585-2.752
			c3.015-1.178,5.636-2.357,5.636-2.357s-1.181,0-4.457,0.784c-3.276,0.788-4.455,1.051-6.813,2.1
			c-2.357,1.045-3.537,2.487-4.455,3.799c-0.917,1.309-2.882,2.489-3.538,2.881C86.196,23.649,87.506,24.042,90.391,23.125z"/>
		<path fill="#6C98AC" d="M54.324,34.811c1.346,0.766,2.727,0.6,4.918,0.742c2.191,0.142,2.991,0.19,3.324,0.566
			c0.442,0.497-0.604,1.106,1.696-0.496c0.8-0.558,1.66-1.144,2.307-1.58c-0.037,0.02-0.078,0.038-0.125,0.055
			c-0.378,0.134-1.105,0.179-2.181,0.212c-0.532,0.016-1.149,0.029-1.853,0.049c-0.134,0.004-0.269,0.008-0.404,0.012
			c-0.489,0.016-0.977,0.033-1.458,0.049c-0.778,0.027-1.537,0.051-2.251,0.054c-0.868,0.001-1.668-0.029-2.352-0.125
			c-0.541-0.076-1.01-0.193-1.381-0.369c-0.738-0.348-1.285-1.077-1.744-1.779c0.002,0.006,0.005,0.015,0.008,0.023
			C52.927,32.576,53.46,34.323,54.324,34.811z"/>
		<path fill="#6C98AC" d="M86.971,38.99c0.936-0.469,0.936-0.392,3.042-2.03c2.486-1.931,2.377-2.388,4.25-4.094
			c2.794-2.543,11.282-4.896,15.164-5.395c4.176-0.544,7.281-1.098,7.705-1.355c-0.23,0.087-0.811,0.177-1.918,0.279
			c-0.629,0.057-1.43,0.119-2.432,0.185c-0.418,0.027-0.873,0.056-1.363,0.086c-0.18,0.01-0.365,0.021-0.555,0.032
			c-0.699,0.04-1.363,0.105-1.996,0.186c-0.775,0.099-1.502,0.22-2.178,0.352c-2.039,0.392-3.638,0.856-4.828,0.955
			c-1.912,0.16-3.531-0.757-3.612-0.994c-0.02-0.059-0.002-0.168,0.05-0.318c-0.005-0.018-0.016-0.039-0.018-0.056
			c-0.152-1.695,0.155-0.468-3.355,0.583c-3.51,1.054-3.627,1.289-5.498,1.406c-1.768,0.108-2.409-0.504-2.476-0.571
			c-0.003-0.004-0.006-0.007-0.006-0.007c0.35,0.937,2.012,1.914,1.934,3.855c-0.074,1.832-1.324,3.159-2.261,4.563
			c-0.937,1.403-1.053,2.104-1.053,2.104S86.035,39.456,86.971,38.99z"/>
	</g>
	<g>
		<path fill="#C80751" d="M98.252,104.348c-2.947-6.709-5.144-12.596-6.785-17.662c-5.57,1.68-6.714,6.973-6.714,9.939
			c0,3.207,2.475,8.742,2.475,15.41c0,5.953-2.097,7.736-2.097,9.518c0,0.363,0.086,0.777,0.295,1.197
			c0.03-0.354,0.104-0.748,0.205-1.182l0.523,0.088c0,0,0.174,0.434,0.348,0.873c0.175,0.436,0.701,1.133,1.486,1.658
			c0.786,0.525,3.493,0.875,5.064,0.961c1.371,0.078,6.584-0.377,7.098-0.266c2.733-0.686,4.816-1.672,6.17-2.449
			c-0.286-0.928-0.492-1.785-0.645-2.523C103.445,115.655,100.975,110.547,98.252,104.348z M92.889,107.879
			c-0.041,0.273-0.25,2-2.1,2.25c-0.562,0.076-1.331,0.594-1.699-1.4c-0.367-1.996-2.156-6.115-2.523-7.74
			c-0.368-1.633-0.795-5.813-0.375-7.701c0,0,0.078-1.178,0.248-1.551c0.301-0.65-0.035,1.252,1.002,2.598
			c1.499,1.949,0.997,1.102,2.049,2.102c1.05,0.994,1.803,3.291,1.015,2.605c-0.787-0.682-1.311-0.945-1.262-0.576
			c0.054,0.367,0.526,1.314,1.629,2.729c1.105,1.422,1.629,2.209,1.893,3.68C93.027,106.342,93.063,106.745,92.889,107.879z"/>
		<path fill="#C80751" d="M113.875,81.907c-0.535,0-1.131,0.146-1.67,0.332c1.564,7.053,3.705,15.198,6.652,24.635
			c0.316-3.434,0.678-11.115,0.678-13.645C119.535,81.907,115.32,81.907,113.875,81.907z"/>
	</g>
	<g>
		<path fill="#900028" d="M117.271,76.057c-2.371,0-4.666,0.794-6.047,1.385c0.145,0.811,0.301,1.639,0.48,2.483
			c0.16,0.757,0.328,1.53,0.5,2.313c0.539-0.185,1.135-0.332,1.67-0.332c1.445,0,5.66,0,5.66,11.322
			c0,2.529-0.361,10.211-0.678,13.645c0.57,1.828,1.17,3.703,1.805,5.631c1.514-2.906,2.199-5.994,2.584-7.199
			c0.504-1.572,1.07-9.373,1.07-18.43C124.316,77.818,121.045,76.057,117.271,76.057z"/>
		<path fill="#900028" d="M100.15,124.883c0.075,0.018,0.05,0.045-0.106,0.09c-1.225,0.352-4.37,0.785-6.116,0.963
			c-1.747,0.174-4.105-0.262-5.154-0.352c-1.047-0.086-2.62-0.959-3.059-1.48c-0.269-0.324-0.338-0.781-0.29-1.354
			c-0.209-0.42-0.295-0.834-0.295-1.197c0-1.781,2.097-3.564,2.097-9.518c0-6.668-2.475-12.203-2.475-15.41
			c0-2.967,1.145-8.26,6.714-9.939c-0.439-1.352-0.839-2.648-1.201-3.883c-4.939,3.469-6.142,9.76-6.142,13.444
			c0,4.467,2.517,8.869,2.517,14.74c0,6.752-2.349,8.848-2.349,10.902c0,3.543,1.866,5.996,8.324,5.996
			c7.525,0,12.467-2.213,14.467-3.318c-0.301-0.734-0.553-1.451-0.762-2.133C104.966,123.211,102.883,124.198,100.15,124.883z"/>
		<path fill="#900028" d="M62.049,29.719c-0.612,0.195-1.35,0.447-1.97,0.701c-0.078,0.397-0.124,0.819-0.1,1.247
			c0.078,1.352,0.416,2.359,0.569,2.754c0.48-0.016,0.969-0.034,1.458-0.049c0.174-0.52,0.56-1.819,0.48-2.932
			C62.445,30.879,62.259,30.264,62.049,29.719z"/>
		<path fill="#900028" d="M61.869,29.278c-0.178-0.41-0.352-0.747-0.45-0.928c-0.202-0.003-0.398-0.005-0.589-0.006
			c-0.094,0.171-0.26,0.502-0.421,0.925C60.921,29.258,61.427,29.265,61.869,29.278z"/>
		<path fill="#900028" d="M112.113,20.893c-0.135,0.014-0.271,0.028-0.406,0.043c-0.082,0.114-0.23,0.342-0.383,0.646
			c0.432-0.033,0.842-0.071,1.191-0.105C112.354,21.215,112.203,21.008,112.113,20.893z"/>
		<path fill="#900028" d="M112.781,26.58c0.191-0.547,0.604-1.873,0.525-2.976c-0.049-0.69-0.35-1.367-0.646-1.887
			c-0.484,0.195-1.094,0.447-1.67,0.703c-0.131,0.442-0.217,0.957-0.184,1.516c0.076,1.303,0.432,2.299,0.611,2.73
			C111.908,26.636,112.363,26.607,112.781,26.58z"/>
	</g>
	<g>
		<path fill="#00275D" d="M195.857,29.542c-2.764-0.925-5.5-1.625-7.787-1.739c-1.502-0.074-2.654-0.133-3.631-0.211
			c-2.635-0.21-3.932-0.57-7.021-1.82c-1.332-0.538-2.125-0.77-2.824-0.975c-0.582-0.171-1.09-0.32-1.826-0.624
			c0.977-0.641,2.303-1.393,3.475-1.645c3.572-0.764,5.184-1.535,5.561-2.661c0.15-0.459,0.098-0.976-0.148-1.46
			c-0.504-0.986-1.766-1.827-3.654-2.432c-2.658-0.854-7.125-1.761-11.445-2.639c-2.441-0.496-4.746-0.965-6.629-1.403
			c-4.031-0.94-5.979-1.079-6.754-1.083c-1.406-0.895-8.061-5.024-14.291-7.103c-8.895-2.966-19.5-4.291-28.373-3.543
			c-8.82,0.741-13.582,2.852-16.141,3.985c-0.686,0.304-1.333,0.591-1.587,0.62l0,0c-0.369,0.043-1.199-0.031-2.16-0.118
			c-2.587-0.233-6.918-0.622-12.762,0.119c-10.056,1.276-17.217,6.024-21.956,9.167l-1.089,0.72
			c-2.061,1.346-3.576,2.939-4.145,3.576c-0.661,0.146-2.025,0.523-3.277,1.376c-1.283,0.879-2.022,1.518-2.674,2.082
			c-1.025,0.885-1.765,1.525-4.265,2.671c-2.588,1.186-4.301,2.178-5.68,3.188c-0.826,0.605-1.534,1.218-2.238,1.883
			c-0.024,0.023-0.042,0.044-0.065,0.067c-16.58,0-27.621,0-28.498,0c0.799,1.035,12.878,16.672,28.542,36.951
			c1.451,4.064,4.086,7.505,7.684,10.001c0.027,0.019,0.055,0.035,0.082,0.053c1.182,1.53,2.375,3.074,3.577,4.63
			c0.375,1.402,0.882,3.141,1.554,5.201c2.267,6.951,6.422,17.549,13.854,31.146c10.657,19.506,18.565,28.115,22.366,32.252
			l0.443,0.482c3.303,3.617,5.711,5.912,7.631,7.68c1.035,0.951,3.782,3.477,6.1,2.17c0.938-0.529,2.289-1.889,0.795-5.061
			c0,0-0.161-0.354-0.368-0.803c0.521,0.094,1.129,0.188,1.81,0.27c0.782,0.094,1.664,0.172,2.629,0.215
			c4.391,5.684,7.094,9.186,7.332,9.492c0.287-0.371,4.182-5.412,10.305-13.34c1.467-0.766,3.131-1.744,4.412-2.521
			c0.541-0.33,1.016-0.623,1.375-0.848c0.916,0.945,2.662,2.721,3.709,3.594l0.684,0.627c1.535,1.445,4.389,4.137,6.85,2.406
			c2.002-1.404,0.75-4.482-0.162-6.73l-0.344-0.859c-0.771-2.004-1.906-4.793-2.395-5.99c1.26-1.523,5.127-6.258,6.828-8.941
			c2.744-4.33,4.584-8.686,6.354-12.904c0.027-0.064,0.055-0.131,0.082-0.195c1.111-2.65,2.178-5.191,3.381-7.477
			c28.51-36.91,61.61-79.764,62.951-81.5C211.394,29.542,205.414,29.542,195.857,29.542z M88.101,10.673
			c2.468-0.206,2.054-0.382,4.174-1.031c2.12-0.649,5.45-1.454,5.45-1.454s-3.234,1.145-5.247,2.348
			c-2.463,1.467-4.564,2.884-4.906,2.921c-0.242,0.023-1.797-1.281-3.711-2.103c-1.73-0.739-4.105-1.538-4.105-1.538
			s2.288,0.064,4.238,0.406C86.065,10.585,85.638,10.877,88.101,10.673z M148.664,107.538c-1.9,2.986-3.361,6.473-4.91,10.164
			c-1.76,4.199-3.578,8.541-6.271,12.789c-1.455,2.293-4.707,6.33-6.242,8.201c-0.223-0.584-0.453-1.188-0.689-1.811
			c-1.494-3.945-3.24-8.658-5.119-13.949c-0.23-0.652-0.465-1.311-0.699-1.98c-0.48-1.367-0.947-2.719-1.406-4.064
			c-0.23,0.58-0.447,1.111-0.652,1.596c0.324,0.938,0.652,1.885,0.99,2.846c2.824,8.027,5.359,14.768,7.283,19.764
			c2.16,5.611,3.551,9.025,3.715,9.594c0.309,1.078,0.348,2.012-0.711,2.311c-1.066,0.303-1.887-0.322-2.682-1.006
			c-0.807-0.693-4.066-3.58-7.129-6.871c-0.156,0.018-0.311,0.066-0.451,0.154c-0.045,0.029-4.518,2.881-7.281,4.201
			c-11.172,5.334-21.617,2.297-21.721,2.266c-0.027-0.008-0.054-0.008-0.081-0.014c-0.141-0.299-0.288-0.615-0.444-0.949
			c-1.057-2.258-2.464-5.277-4.148-8.941c-0.28-0.611-0.568-1.24-0.865-1.887c0.894,0.184,1.908,0.316,2.974,0.311
			c3.741-0.02,5.732-0.695,7.995-0.615c2.265,0.08,3.886,1.27,4.48,1.084c0.599-0.188,0.326-1.059,2.427-2.842
			c2.104-1.773,3.786-2.264,5.565-3.395c0.426-0.271,0.846-0.564,1.238-0.852c-0.268-0.389-0.539-0.793-0.82-1.215
			c-0.018,0.002-0.033,0.006-0.049,0.008c-0.885,0.063-1.475-0.166-1.967-0.623c-0.072-0.068-0.154-0.164-0.242-0.273
			c-0.219-0.109-0.408-0.176-0.588-0.109c-0.143,0.055-0.24,0.129-0.311,0.217c0.016,0.031,0.025,0.047,0.025,0.047
			s0.725,2.432-1.443,2.893c-2.169,0.459-2.761-0.592-2.761-0.592s0.497,1.754-1.342,2.082c-1.84,0.332-2.27-0.77-2.27-0.77
			s-0.131,1.246-1.576,1.445c-1.445,0.197-2.039-0.854-2.039-0.854s0.07,1.313-1.901,1.576c-1.93,0.258-2.604-1.371-2.631-1.439
			c-0.057,0.01-0.092,0.021-0.092,0.021c-0.043-0.014-0.068,0.055-0.097,0.176c0.099,0.264,0.103,0.582-0.057,1.049
			c-0.328,0.949-1.049,1.311-2.162,1.67c-0.91,0.293-1.871,0.314-2.618,0.023c-0.937-0.197-1.539-0.648-1.904-1.049
			c0.177,0.391,0.353,0.775,0.526,1.156c3.131,6.871,5.51,11.92,6.834,14.754c0.658,1.41,1.057,2.275,1.157,2.543
			c0.395,1.049,0.509,1.975-0.522,2.357c-1.039,0.385-1.907-0.17-2.753-0.783c-1.234-0.906-6.29-5.768-10.088-10.225
			c-3.8-4.453-10.613-11.398-23.455-35.244c-10.678-19.83-13.7-32.637-14.487-36.709c-0.062-0.017-0.126-0.03-0.191-0.035
			c-0.014-0.002-1.38-0.125-2.604-0.976c-3.544-2.458-6.052-5.932-7.253-10.046c-1.313-4.504-0.954-8.871,0.984-11.98
			c1.234-1.98,2.736-3.323,3.728-4.212c0.704-0.63,1.057-0.946,1.205-1.387c0.147-0.443,0.17-0.973,0.213-1.936l0.145-2.475
			c0.077-1.006,0.091-1.079,0.129-1.271l0.135-0.814c0.238-1.669-0.678-2.702-2.066-4.264l-0.131-0.147
			c-1.578-1.773-3.004-2.723-4.493-2.991c-0.656-0.12-1.007-0.235-1.181-0.308c-0.049-0.185,0.063-0.882,1.167-1.924
			c0.759-0.717,1.544-1.411,2.699-2.182c-0.712,0.862-1.256,1.341-1.256,1.341s1.304-0.978,2.612-2.177
			c0.528-0.302,1.121-0.619,1.794-0.954c-1.402,1.847-2.486,3.163-2.486,3.163s2.84-2.273,4.394-4.068
			c0.617-0.292,1.132-0.557,1.575-0.804c-0.209,0.305-0.469,0.668-0.801,1.11c-1.571,2.095-2.846,3.637-2.846,3.637
			s3.276-2.62,4.717-4.458c0.611-0.777,0.958-1.363,1.236-1.882c0.158-0.133,0.315-0.268,0.477-0.407
			c0.61-0.527,1.302-1.125,2.486-1.936c1.278-0.872,2.782-1.106,2.797-1.109c0.255-0.039,0.492-0.17,0.656-0.37
			c0.017-0.019,1.631-1.948,3.932-3.451c0.001,0,1.102-0.727,1.102-0.727c4.575-3.034,11.488-7.62,21.056-8.833
			c3.316-0.421,6.131-0.462,8.398-0.378c-0.043,0.022-0.085,0.043-0.131,0.065c-2.694,1.348-3.679,1.888-5.924,2.449
			c-2.244,0.56-3.536,0.718-3.536,0.718s2.589,0.44,5.67,1.724c3.07,1.283,4.392,2.791,5.099,2.811
			c0.28,0.009,2.281-1.462,5.535-3.372c3.254-1.906,6.316-2.845,6.653-2.957c0.336-0.111-4.061-0.241-2.09-2.535
			c0.187-0.215,0.383-0.416,0.583-0.602c2.703-0.977,6.62-2.042,12.303-2.52c8.604-0.725,18.895,0.562,27.529,3.442
			c6.602,2.202,14.012,7,14.086,7.047c0.195,0.127,0.441,0.185,0.674,0.166c0.014-0.001,1.078-0.074,4.125,0.52
			c-0.123,0.416-0.07,1.014,0.539,1.808c1.338,1.734,6.277,4.541,6.277,4.541s-3.072-3.072-3.607-4.409
			c-0.205-0.514-0.252-0.949-0.23-1.29c1.213,0.273,2.566,0.557,3.998,0.852c0.031,0.251,0.139,0.57,0.375,0.973
			c0.934,1.603,4.006,3.607,4.006,3.607s-1.736-2.405-2.137-3.339c-0.133-0.307-0.176-0.584-0.178-0.819
			c1.232,0.25,2.475,0.503,3.682,0.756c0.033,0.063,0.064,0.125,0.104,0.196c0.799,1.469,2.402,2.539,2.402,2.539
			s-0.936-1.336-1.068-2.137c-0.02-0.119-0.037-0.218-0.051-0.304c2.428,0.522,4.623,1.04,6.148,1.529
			c1.465,0.47,2.107,0.98,2.33,1.254c-0.33,0.217-1.277,0.674-3.887,1.232c-0.777,0.167-1.582,0.491-2.336,0.869l-3.824,2.912
			l0.084,0.187c0,0,6.178,2.005,9.164,3.338c4.09,1.828,5.775,1.082,9.598,1.55c3.818,0.466,8.609,1.709,11.777,3.294
			c3.169,1.583,4.911,2.397,4.911,2.397l-1.693,2.126l-1.655,2.167c0,0-2.686-1.899-5.699-2.227s-6.422,1.374-11.072-0.461
			c-4.65-1.833-9.498-6.354-12.906-7.993c-3.406-1.636-4.199-1.442-4.199-1.442s-0.494,1.04-1.828,2.689
			c-1.301,1.611-2.816,2.62-2.816,2.62s4.52,4.652,7.469,14.416c2.949,9.758,3.012,13.009,2.947,17.792
			c-0.053,3.732-1.02,9.559-1.441,11.935c-11.311,14.583-21.266,27.417-21.266,27.417
			C150.988,104.084,150.9,104.213,148.664,107.538z M174.686,60.916c-0.174-7.567-5.012-19.882-5.012-19.882
			s2.902,5.278,4.133,10.205c0.725,2.887,1.943,6.168,3.344,6.333c1.498,0.176,2.287-1.318,2.816-4.312
			c0.525-2.993,0.264-8.268,0.264-8.268s1.055,6.509,0.262,13.46c-0.559,4.912-1.814,8.862-2.566,10.898
			c-1.486,1.917-2.973,3.834-4.441,5.729C174.037,73.048,174.867,68.657,174.686,60.916z M194.117,40.769
			c0,0,1.484,1.113,2.27,3.146c0.191,0.491,0.322,0.844,0.414,1.1c-0.953,1.23-1.975,2.547-3.053,3.938
			c0.178-0.85,0.398-2.134,0.471-3.522C194.348,42.875,194.117,40.769,194.117,40.769z M193.25,46.489
			c-0.203,1.671-0.521,3.136-0.756,4.08c-1.654,2.133-3.42,4.408-5.254,6.773c0.09-1.318,0.213-4.141-0.148-6.722
			c-0.705-5.012-2.551-8.092-2.551-8.092s1.584,2.375,2.639,4.49c0.922,1.839,1.408,4.747,2.992,4.309
			c0.885-0.245,1.318-1.319,2.023-3.431c0.701-2.112,1.23-5.015,1.23-5.015S193.602,43.586,193.25,46.489z M185.578,48.609
			c0.713,3.502,0.719,8.057,0.682,9.997c-2.154,2.779-4.387,5.658-6.645,8.568c0.789-2.306,2.199-7.181,2.293-12.734
			c0.137-7.973-1.768-15.244-1.768-15.244S184.008,40.879,185.578,48.609z"/>
		<path fill="#00275D" d="M161.348,89.911c1.887-2.916,3.346-6.248,4.205-10.571c2.006-10.093,1.816-15.482-1.129-26.267
			c-2.947-10.784-13.863-22.557-13.863-22.557s2.721,6.023,1.555,11.461c-1.166,5.441-5.049,8.355-5.049,8.355
			s0.215,0.537,0.531,1.454c0.166,0.484,0.563,1.746,0.563,1.746l4.045,0.332l-3.443,1.805c0,0,0.285,1.145,0.416,1.757
			c0.135,0.6,0.365,1.859,0.365,1.859l3.83,0.903l-3.527,1.22c0,0,0.113,1.169,0.145,1.757c0.041,0.779,0.035,1.964,0.035,1.964
			l3.613,1.543l-3.756,0.637c0,0-0.148,1.442-0.244,2.129c-0.096,0.694-0.32,2.002-0.32,2.002l3.258,2.193l-3.734,0.148
			c0,0-0.383,1.599-0.564,2.259c-0.467,1.702-0.842,2.736-0.842,2.736s2.758,1.564,4.076,4.764c1.314,3.201,0.375,6.144-1.066,9.404
			c-1.443,3.258-3.512,8.463-6.52,14.418c-3.01,5.955-4.072,11.984-4.072,11.984s5.641-12.047,12.033-18.629
			C155.541,96.954,158.828,93.803,161.348,89.911z M148.611,53.108l-0.857-2.652c0,0,0.475-0.516,1.225-1.266
			c0.816-0.818,1.682-2.353,1.682-2.353s-1.637,3.275-1.348,4.429c0.289,1.158,2.424,2.07,2.424,2.07L148.611,53.108z
			 M149.938,58.827c0,0-0.037-0.393-0.225-1.348c-0.203-1.04-0.326-1.531-0.326-1.531l3.006-1.551c0,0-2.02,1.828-1.828,2.984
			c0.191,1.154,2.842,2.358,2.842,2.358L149.938,58.827z M150.592,64.767c0,0-0.023-0.488-0.063-1.469
			c-0.043-1.06-0.123-1.549-0.123-1.549l3.063-1.102c0,0-2.246,1.541-2.178,2.712c0.072,1.168,2.484,2.778,2.484,2.778
			L150.592,64.767z M150,71.079c0,0,0.141-0.839,0.283-1.717c0.143-0.875,0.164-1.571,0.164-1.571l3.166-0.613
			c0,0-2.164,1.247-2.389,2.695c-0.225,1.453,1.469,3.207,1.469,3.207L150,71.079z M149.773,76.856
			c-0.285,1.41,1.697,5.328,1.697,5.328s-0.77-1.365-1.594-2.225c-0.898-0.938-1.695-1.388-1.695-1.388s0.367-1.082,0.672-2.265
			c0.307-1.184,0.473-1.982,0.473-1.982l3.225-0.224C152.551,74.1,150.059,75.448,149.773,76.856z"/>
		<path fill="#00275D" d="M126.814,34.327c0,0-0.568-2.62-0.83-3.932c-0.262-1.309-1.006-2.815-1.006-2.815
			s-1.375,0.984-2.686,3.078c-1.309,2.097-2.488,2.555-2.488,2.555s-0.021,0.065-7.359,0.677c-3.016,0.252-5.721,0.68-7.862,1.097
			c-3.069,0.598-4.98,1.172-4.98,1.172s10.92-0.262,18.52,2.098c2.795,0.867,4.762,1.605,6.346,2.417
			c2.723,1.396,4.313,3.011,7.018,5.881c4.281,4.544,8.125,14.065,8.125,14.065s-0.699-8.912-4.891-16.424
			C130.527,36.685,126.814,34.327,126.814,34.327z M126.471,40.99c-4.092-2.712-13.018-4.477-13.018-4.477s6.418-0.097,7.859-0.489
			c1.439-0.393,2.336-1.246,2.6-2.032c0.26-0.789,1.092-4.087,1.092-4.087s0.555,1.863,0.631,2.916
			c0.088,1.209,0.131,2.029,0.131,2.029s1.18,0.328,5.242,5.178c4.189,5,6.563,13.919,6.563,13.919S132.549,45.015,126.471,40.99z"
			/>
		<path fill="#00275D" d="M72.355,86.805c-1.4-3.5-3.917-5.678-6.763-7.135c0.553,2.372,1.25,5.08,2.131,8.049
			c1.993,6.727,4.568,14.721,8.052,23.873c-0.032-3.865-0.064-7.242-0.337-9.449C74.782,96.858,75.15,93.79,72.355,86.805z"/>
		<path fill="#00275D" d="M105.735,58.825c-0.957-0.038-2.086-0.018-3.402,0.108c-3.715,0.354-5.575,0.802-8.302,1.779
			c-2.386,0.853-4.13,1.736-5.199,2.437c-0.281,0.184-0.572,0.399-0.837,0.608c-0.28,0.221-0.524,0.432-0.698,0.592
			c-0.206,0.077-0.415,0.139-0.564,0.15c-1.769,0.154-4.265,0.674-5.959-1.48c-1.691-2.155-1.999-5.846-1.384-8.231
			c0.35-1.354,0.8-2.955,1.46-4.592c0.269-0.67-1.169,0.191-2.761,0.673c-0.121,0.163-0.371,0.23-1.742,0.432
			c-1.373,0.201-2.582-0.202-3.428-1.291c-0.847-1.09-0.281-2.341,1.532-3.146c1.708-0.758,3.106-0.929,5.849-0.486
			c0,0,0.483,0.081,0.848,0.242c0.177,0.08,0.228,0.207,0.164,0.331c0.429,0.242,0.947,0.308,1.464-0.476
			c1.834-2.775,4.31-5.382,4.771-5.768c0.461-0.386,0.075-0.616-0.847-0.845c-0.923-0.234-1.076-0.309-1.616-0.309
			c-8.521,2.715-8.554,2.748-16.311,3.846c-7.615,1.076-13.385,1.076-13.924,1.076c-0.537,0-0.768-0.075-1.075,0.463
			c-0.31,0.539-0.461,0.999-0.461,1.231c0,0.229,0.23,0.999,1.385,2.463c0.593,0.747,1.148,2.004,1.977,2.311
			c0.059,0.022,0.141,0.018,0.242-0.003c-0.029-0.155-0.034-0.325-0.012-0.499c0.08-0.646,1.43-1.334,2.419-1.453
			c1.372-0.159,3.106,0.444,3.712,0.887c1.431,1.051,1.33,1.979,1.169,2.785c-0.161,0.808-1.479,1.078-2.406,1.199
			c-0.736,0.311-1.395,0.607-1.501,0.972c-0.19,0.657,0.292,1.096,0.861,1.724c5.463,6.001,7.156,6.309,7.693,8
			c0.539,1.695-0.375,2.45-0.993,2.938c-0.671,0.529-2.891,1.396-3.304,1.41c-0.587,0.023-0.917-0.173-1.136-0.353
			c-0.15-0.179-0.387-0.387-0.751-0.578c-0.782-0.408-2.17-0.73-4.679-0.47c-3.713,0.386-5.554,1.039-8.241,2.117
			c-5.998,2.4-5.832,4.552-5.832,4.552s0.301-0.347,0.91-0.843c1.061-0.867,3.005-2.18,5.686-2.865
			c0.556-0.139,1.734-0.483,2.562,0.148c0.49,0.372,0.504,0.331,1.111,1.414c0,0-0.182-0.615-0.285-1.353
			c-0.132-0.92,0.858-1.466,0.858-1.466c0.173-0.101,0.337-0.228,0.587-0.358c0.531-0.277,1.461-0.567,3.75-0.629
			c1.424-0.038,2.416,0.044,3.106,0.167c0.681,0.12,1.068,0.278,1.277,0.4c0.102,0.241,0.142,0.524,0.2,0.854
			c0.013,0.069,0.029,0.173,0.049,0.304l0.855-0.002c0.012-0.1,0.032-0.186,0.066-0.252c0.154-0.307,0.697-0.699,2.057-0.931
			c1.36-0.233,2.716,0.583,2.716,0.583s0.622-0.931,1.787-1.126c1.166-0.194,2.058,0.31,2.058,0.31s0.621-0.701,1.436-0.853
			c0.817-0.155,1.632,0.31,1.632,0.31s0.456-0.828,1.28-0.971c1.126-0.195,1.747,0.311,1.747,0.311s0.156-0.816,1.283-1.008
			c0.787-0.139,1.629,0.232,1.629,0.232s0.569-1.207,2.446-1.476c0.896-0.128,1.689,0.041,2.16,0.231
			c0.101,0.041,0.183,0.081,0.251,0.121l0.699-0.577l0.006,0.002c0-0.003,0.001-0.006,0.001-0.009
			c0.758-0.605,2.795-2.027,6.516-3.304c0.116-0.04,0.232-0.079,0.352-0.119c0.545-0.182,1.898-0.436,2.671,0.04
			c0.883,0.548,1.461,2.15,1.461,2.15s-0.142-1.51-0.124-2.465c0.006-0.325,0.342-0.685,0.342-0.685
			c0.233-0.133,0.576-0.289,1.158-0.441c0.768-0.202,1.953-0.399,3.865-0.535c1.863-0.131,3.201-0.118,4.1-0.073
			c1.037,0.051,1.488,0.145,1.453,0.11c-0.043-0.045-0.375-0.188-0.99-0.334C107.991,59.032,107.025,58.875,105.735,58.825z
			 M70.008,55.04c-1.775-4.092-2.77-6.994-2.961-8.41c-0.067-0.496-0.344-0.686-0.511-0.761c-0.1,0.018-0.198,0.037-0.298,0.055
			c-5.024,0.91-6.662,0.896-8.757,1.026c-2.098,0.132-1.443,0.983-1.835,0.983c-0.393,0-0.524-0.393-1.112-1.441
			c-0.591-1.049,0-1.049,0-1.049s5.827,0.015,10.526-0.438c5-0.479,15.241-2.836,15.241-2.836s-3.718,1.47-9.634,2.841
			c-0.276,0.114-0.512,0.233-0.612,0.344c-1.617,1.752-0.158,5.883,0.846,9.048c1.152,3.645,4.218,9.955,4.218,9.955
			S72.222,60.138,70.008,55.04z"/>
		<path fill="#00275D" d="M68.563,40.118c4.208-0.495,14.443-4.043,14.443-4.043s-9.509,2.531-13.291,2.973
			c-4.29,0.493-8.583,0.493-8.583,0.493S64.351,40.613,68.563,40.118z"/>
		<path fill="#00275D" d="M72.539,37.058c3.218-0.38,11.045-3.095,11.045-3.095s-7.271,1.938-10.164,2.271
			c-3.28,0.382-6.563,0.382-6.563,0.382S69.321,37.436,72.539,37.058z"/>
		<path fill="#00275D" d="M75.709,34.212c2.351-0.278,8.064-2.257,8.064-2.257s-5.309,1.413-7.418,1.66
			c-2.397,0.274-4.792,0.274-4.792,0.274S73.359,34.491,75.709,34.212z"/>
		<path fill="#00275D" d="M45,39.968c0,0,0.001,2.452,0.481,3.031c0.355,0.426,1.544,0.229,2.141,0.097
			c0.536-0.189,1.099-0.367,1.686-0.531c4.718-1.311,7.147-1.358,7.147-1.358s-1.957-0.081-5.101,0.183
			c-3.146,0.259-3.789,0.565-3.789,0.565s-0.428-0.993-0.782-1.742c-0.761-1.595-1.335-2.415-1.335-2.415s-0.821,1.577-1.323,3.156
			c-0.402,1.268-0.784,3.049-0.784,3.049l-1.914,2.218c0,0,0.364-0.27,1.03-0.678l1.343-1.326c0,0,0.334-1.414,0.624-2.568
			C44.714,40.498,45,39.968,45,39.968z"/>
		<polygon fill="#00275D" points="116.803,161.84 118.646,161.84 118.646,167.411 119.316,167.411 119.316,161.84 121.26,161.84 
			121.26,161.17 116.803,161.17 		"/>
		<polygon fill="#00275D" points="124.826,166.249 123.225,161.17 122.15,161.17 122.15,167.411 122.818,167.411 122.818,162.11 
			124.49,167.411 125.16,167.411 126.83,162.11 126.83,167.411 127.5,167.411 127.5,161.17 126.426,161.17 		"/>
	</g>
	<g>
		<path fill="#231F20" d="M166.754,22.718c-3.221,0.77-5.291,1.457-8.586,2.226c-3.299,0.765-3.453,0.765-6.287,0.23
			c-0.543-0.104-0.861-0.119-1.006-0.068c1.971,1.085,4.18,1.856,6.895,3.833c0.623,0.452,1.588,0.967,3.104,2.626
			c0.176,0.193,0.354,0.391,0.533,0.596c0.045-0.005,0.09-0.005,0.135-0.013c0.842-0.152,3.295-1.684,4.369-3.373
			c1.072-1.687,2.01-3.028,2.99-3.91c0.24-0.214,0.486-0.42,0.74-0.616l3.824-2.912C171.102,21.788,168.555,22.29,166.754,22.718z"
			/>
		<path fill="#231F20" d="M107.082,124.567c-2,1.105-6.941,3.318-14.467,3.318c-6.458,0-8.324-2.453-8.324-5.996
			c0-2.055,2.349-4.15,2.349-10.902c0-5.871-2.517-10.273-2.517-14.74c0-3.684,1.203-9.975,6.142-13.444
			c-1.16-3.953-1.949-7.301-2.485-10.042c-0.142,1.396-0.43,1.787-0.58,2.059c-0.193,0.349-0.349,0.658-0.699,0.813
			c-0.349,0.156-0.543-0.117-0.854-0.39c-0.312-0.27-0.621-0.775-1.205-2.018c-0.58-1.243-1.396-3.726-1.396-3.726
			s0.076,0.854,0.038,1.589c-0.039,0.739-0.155,1.944-0.736,2.02c-0.626,0.086-0.893-0.62-1.321-1.278
			c-0.426-0.661-0.776-1.787-0.776-1.787s0,2.097-0.271,2.408c-0.271,0.31-1.435,0.62-1.904,0.388
			c-0.463-0.232-0.932-1.593-0.932-1.593s0.195,1.593,0,1.94c-0.193,0.351-1.589,0.623-1.978,0.391
			c-0.389-0.235-0.971-1.713-0.971-1.713s0,1.478-0.116,1.945c-0.118,0.465-0.314,1.34-0.931,1.434
			c-0.506,0.08-0.855-0.385-1.439-1.009c-0.58-0.62-1.24-2.094-1.24-2.094s-0.079,0.389,0.039,1.438
			c0.116,1.048-0.232,3.766-0.35,4.349c-0.117,0.581-0.623,1.356-1.047,1.434c-0.428,0.077-0.777-0.195-1.126-0.582
			c-0.351-0.389-1.399-2.369-2.214-4.467c-0.722-1.859-1.281-3.585-1.191-4.366l-0.855,0.002c0.162,1.053,0.599,4.042,1.558,8.368
			c1.97,0.926,3.819,2.032,5.101,3.353c3.962,4.083,4.924,7.445,5.523,10.566c0.6,3.125,1.2,6.609,1.2,11.289
			c0,4.037,0.09,7.984,0.192,11.996c1.639,4.146,3.455,8.504,5.489,13.082c1.503,3.381,2.906,6.494,4.192,9.324
			c0.366,0.4,0.967,0.852,1.904,1.049c-0.425-0.166-0.782-0.43-1.02-0.811c-0.654-1.047-2.162-3.504-3.537-6.975
			c-1.376-3.475-2.261-5.896-2.424-7.305c-0.164-1.41-0.064-2.066,0.393-2.195c0.459-0.131,0.63,0.129,2.227,2.852
			c1.035,1.764,2.191,3.131,4.351,6.045c2.163,2.914,3.315,3.91,3.971,4.6c0.386,0.406,0.732,0.668,0.875,1.047
			c0.028-0.121,0.054-0.189,0.097-0.176c0,0,0.036-0.012,0.092-0.021c0-0.002-0.002-0.008-0.002-0.008s-0.25-1.404-0.513-2.98
			c-0.263-1.578-0.079-1.945,0.316-2.01c0.394-0.066,0.931,0.48,2.387,1.867c1.361,1.299,2.192,2.402,2.192,2.402
			s-0.265-0.824-0.395-2.074c-0.132-1.248-0.159-2.064,0.441-2.191c0.838-0.174,1.276,0.738,2.098,1.98
			c0.623,0.943,0.604,0.826,1.492,1.816c-0.158-1.014-0.252-1.246-0.421-2.143c-0.242-1.299-0.559-2.26,0.188-2.518
			c0.67-0.229,1.325,0.563,2.377,1.68c1.051,1.117,1.403,1.611,1.403,1.611s-0.191-1.166-0.308-2.498
			c-0.231-2.633-0.208-3.473,0.117-3.568c0.385-0.107,1.791,0.822,2.891,2.008c1.006,1.084,1.555,2.023,1.676,2.236
			c0.07-0.088,0.168-0.162,0.311-0.217c0.18-0.066,0.369,0,0.588,0.109c-0.826-1.029-2.303-3.84-3.458-6.475
			C107.219,124.897,107.15,124.731,107.082,124.567z"/>
		<path fill="#231F20" d="M122.383,67.017c-3.361-4.805-9.338-7.629-13.088-7.809c-0.227-0.01-0.438-0.015-0.658-0.022
			c0.615,0.146,0.947,0.29,0.99,0.334c0.406,0.25,0.348,0.586,0.406,1.197c0.084,0.912-0.393,7.715,1.191,16.724
			c1.381-0.59,3.676-1.385,6.047-1.385c3.773,0,7.045,1.761,7.045,10.818c0,9.057-0.566,16.857-1.07,18.43
			c-0.385,1.205-1.07,4.293-2.584,7.199c0.637,1.941,1.307,3.934,2.012,5.979c0.205-0.484,0.422-1.016,0.652-1.596
			c2.453-6.205,6.076-17.648,5.781-28.135C128.748,75.903,125.746,71.819,122.383,67.017z"/>
		<path fill="#231F20" d="M72.917,50.011c0.846,1.089,2.056,1.491,3.428,1.291c1.372-0.202,1.621-0.27,1.742-0.432
			c0.121-0.16-0.25-1.059,0.477-1.987c0.724-0.928,1.571-1.491,2.178-1.614c0.31-0.062,0.501-0.187,0.567-0.315
			c0.064-0.124,0.014-0.251-0.164-0.331c-0.365-0.162-0.848-0.242-0.848-0.242c-2.743-0.443-4.141-0.272-5.849,0.486
			C72.637,47.67,72.07,48.921,72.917,50.011z"/>
		<path fill="#231F20" d="M61.797,53.861c0.927-0.121,2.246-0.391,2.406-1.199c0.16-0.805,0.262-1.734-1.169-2.785
			c-0.606-0.442-2.34-1.046-3.712-0.887c-0.99,0.119-2.34,0.806-2.419,1.453c-0.022,0.174-0.017,0.343,0.012,0.499
			c0.083,0.454,0.364,0.792,0.754,0.792c0.523,0,1.24-0.338,2.49-0.217c1.252,0.121,2.188,0.692,2.413,1.215
			c0.114,0.267,0.057,0.582-0.127,0.749C62.124,53.767,61.797,53.861,61.797,53.861z"/>
		<path fill="#231F20" d="M88.251,132.239c-2.065-2.969-5.063-8.695-5.063-8.695s3.045,6.365,4.251,8.395
			c1.203,2.027,3.506,4.264,3.874,5.518c0.213,0.729-0.303,1.273-0.303,1.273s0.528-0.164,0.789-0.277
			c0.173-0.072,0.378-0.883,0.14-1.459C91.438,135.797,89.596,134.174,88.251,132.239z"/>
		<path fill="#231F20" d="M96.48,134.557c-0.555-0.809-2.131-2.619-2.131-2.619s1.125,1.713,1.541,2.318
			c0.417,0.6,0.829,1.395,0.831,1.908c0.003,0.428-0.276,0.938-0.276,0.938s0.316-0.016,0.432-0.088
			c0.116-0.07,0.372-0.84,0.301-1.117C97.074,135.485,97.039,135.372,96.48,134.557z"/>
		<path fill="#231F20" d="M100.115,133.926c-0.414-0.74-1.175-2.314-1.175-2.314s0.92,2.127,1.23,2.854
			c0.184,0.432,0.277,0.787,0.23,1.273c-0.046,0.488-0.333,0.742-0.333,0.742s0.4,0.096,0.544-0.061
			c0.168-0.188,0.323-0.479,0.218-1.098C100.75,134.856,100.517,134.645,100.115,133.926z"/>
		<path fill="#231F20" d="M104.008,132.879c-0.592-0.906-1.576-2.092-1.576-2.092s0.731,1.24,1.021,1.695
			c0.452,0.715,0.643,1.324,0.717,1.971c0.129,1.076-0.334,1.35-0.334,1.35s0.544,0.004,0.635-0.115
			c0.139-0.184,0.206-0.77,0.196-1.029C104.657,134.374,104.471,133.579,104.008,132.879z"/>
		<path fill="#231F20" d="M107.943,130.602c-0.423-0.633-0.437-0.637-1.722-2.385c0,0,1.345,2.303,1.6,2.84
			c0.255,0.529,0.539,1.221,0.517,2.061c-0.021,0.836-0.525,1.176-0.525,1.176s0.775-0.037,0.89-0.248
			c0.117-0.207,0.225-0.486,0.162-1.203C108.775,131.801,108.545,131.506,107.943,130.602z"/>
		<path fill="#231F20" d="M111.396,129.934c0.248,0.594,0.447,1.146,0.447,1.377c0,0.49-0.164,0.557-0.164,0.557s0.346,0.137,0.51,0
			c0.145-0.123,0.105-0.283,0.016-0.666C111.939,130.792,111.672,130.372,111.396,129.934z"/>
		<path fill="#231F20" d="M85.738,68.271c0.479,1.724,1.258,6.077,1.258,6.077s-0.236-3.641-0.619-5.557
			c-0.387-1.917-1.288-3-1.576-3.146c-0.287-0.143-0.584,0.078-0.584,0.078S85.26,66.543,85.738,68.271z"/>
		<path fill="#231F20" d="M80.645,66.872c0,0-0.272,0.035-0.256,0.052c0.018,0.018,0.648,0.841,0.955,1.549
			c0.648,1.5,1.261,4.055,1.261,4.055s-0.463-2.531-0.835-3.662C81.275,67.368,80.645,66.872,80.645,66.872z"/>
		<path fill="#231F20" d="M77.733,67.384c-0.12-0.102-0.357,0.087-0.357,0.087s0.477,0.238,1.192,1.668
			c0.438,0.878,1.174,3.356,1.174,3.356s-0.187-1.144-0.75-2.898C78.432,67.845,77.852,67.487,77.733,67.384z"/>
		<path fill="#231F20" d="M74.599,68.151l-0.272,0.102c0,0,0.579,0.478,1.089,1.517c0.511,1.038,1.312,3.455,1.312,3.455
			s-0.291-1.651-0.835-3.099C75.348,68.678,74.701,68.186,74.599,68.151z"/>
		<path fill="#231F20" d="M71.534,68.662l-0.322,0.083c0,0,0.951,1.297,1.396,2.354c0.441,1.053,0.918,3.388,0.918,3.388
			s-0.137-1.89-0.664-3.356C72.333,69.667,71.635,68.745,71.534,68.662z"/>
		<path fill="#231F20" d="M67.958,70.248c-0.599-0.837-1.193-1.091-1.193-1.091l-0.531,0.102c0.57,0.363,0.605,0.293,1.025,0.799
			c0.324,0.392,0.749,1.227,1.141,2.759c0.517,2.028,1.191,5.656,1.191,5.656s-0.17-1.651-0.477-3.732
			C68.81,72.665,68.553,71.079,67.958,70.248z"/>
		<path fill="#231F20" d="M60.831,28.345c0.19,0.001,0.387,0.003,0.589,0.006c0.713,0.011,1.499,0.034,2.379,0.074
			c0.109,0.004,0.216,0.012,0.321,0.019c0.875,0.063,1.634,0.219,2.289,0.428c2.564,0.824,3.527,2.488,3.527,2.736
			c0,0.139-0.063,0.262-0.163,0.377c0.51-0.385,1.068-0.895,2.012-1.669c1.226-1,2.539-2.106,2.539-2.106
			c-0.719,0.288-1.293,0.573-2.586,0.528c-1.294-0.047-3.687-0.863-6.179-1.105c-2.492-0.237-6.23-0.435-9.104,0.047
			c-2.874,0.477-2.365,0.533-4.521,0.818c-2.156,0.288-2.478,0.293-3.238,0.098c-1.244-0.325-1.676-0.721-1.676-0.721
			s-0.041,0.378,1.602,1.201c0.812,0.408,1.266,0.508,1.859,0.806c0.563,0.281,1.605,1.38,2.347,2.344
			c-0.003-0.008-0.005-0.017-0.008-0.023c-0.308-0.473-0.577-0.934-0.833-1.26c-0.637-0.812-0.78-1.301-0.461-1.419
			c0.317-0.115,1.098-0.288,3.388-0.692c0.353-0.063,0.699-0.121,1.051-0.173c0.728-0.107,1.474-0.192,2.328-0.245
			C59.036,28.365,59.863,28.341,60.831,28.345z"/>
		<path fill="#231F20" d="M89.428,28.812c1.871-0.118,1.988-0.353,5.498-1.406c3.51-1.051,3.203-2.278,3.355-0.583
			c0.001,0.017,0.012,0.038,0.018,0.056c0.16-0.452,0.65-1.281,1.487-2.298c1.113-1.351,3.173-2.308,5.56-2.785
			c0.247-0.05,0.532-0.101,0.848-0.152c0.62-0.103,1.36-0.208,2.168-0.314c1.039-0.135,2.189-0.27,3.346-0.393
			c0.135-0.015,0.271-0.029,0.406-0.043c0.797-0.084,1.59-0.162,2.344-0.232c0.684-0.064,1.332-0.12,1.924-0.166
			c0.234-0.019,0.461-0.036,0.676-0.051c3.346-0.234,6.604-2.348,6.604-2.348s-2.313,2.311-3.664,4.062
			c-0.775,1.004-1.443,2.095-1.963,2.878c-0.037,0.074-0.076,0.139-0.113,0.205c1.334-1.954,3.771-4.051,5.488-5.521
			c1.834-1.576,2.357-2.357,3.143-3.277c0.789-0.915,1.182-2.096,1.182-2.096s-1.705,2.358-6.16,3.538
			c-4.453,1.18-9.434,1.965-13.494,2.488c-4.061,0.524-3.539-0.13-7.994,1.834c-4.453,1.965-5.313,2.783-7.729,4.586
			c-1.401,1.045-1.853,1.398-2.7,1.582c-1.029,0.223-1.886-0.009-2.542-0.272c-0.189-0.076-0.237-0.007-0.161,0.137
			C87.019,28.308,87.66,28.92,89.428,28.812z"/>
		<path fill="#231F20" d="M36.762,34.179c0.64,0.478,1.287,1.086,1.96,1.843l0.13,0.146c0.728,0.819,1.348,1.52,1.74,2.26
			c0.13-0.736,0.301-1.554,0.551-2.364c0.492-1.607,0.825-2.017,0.825-2.017s-1.701,0.197-3.675,0.197
			C37.678,34.244,37.175,34.217,36.762,34.179z"/>
	</g>
</g>
</svg>
