<?xml version="1.0" encoding="UTF-8"?><svg id="Art_Deco_Crest" xmlns="http://www.w3.org/2000/svg" viewBox="0 0 340.16 340.16"><defs><style>.cls-1{fill:#fff;}.cls-2{fill:#ce181e;}</style></defs><rect class="cls-2" width="340.16" height="340.16"/><g id="Group"><g id="Border"><path id="Background" class="cls-1" d="M166.02,19.54L38.01,93.45V245.95l132.07,76.26,132.07-76.26V93.45L170.08,17.2l-4.06,2.35Z"/><path id="path9" class="cls-2" d="M283.24,234.15V104.71L169.79,38.87,56.35,104.71V234.2l113.44,65.76,113.44-65.8Z"/><polygon id="polygon11" class="cls-1" points="263.85 115.91 169.79 61.39 75.74 115.91 75.74 223 169.79 277.48 263.85 223 263.85 115.91"/></g><g id="F"><path id="path17" class="cls-2" d="M171.07,139.84c5.77,.18,10.89,1.94,15.43,5.11-1.72,2.42-3.35,4.28-4.98,5.6-3.61,2.73-7.14,2.51-10.45-.62v-10.09h0Z"/><path id="path21" class="cls-2" d="M153.09,144.95c4.54-3.13,9.65-4.94,15.43-5.11v10.05c-3.31,3.13-6.79,3.35-10.36,.62-1.72-1.28-3.39-3.17-5.07-5.55h0Z"/><path id="path23" class="cls-2" d="M182.22,153.19c4.67,3.88,7.05,8.64,7.14,14.37h-5.86c-.53-1.32-1.94-2.6-4.23-3.57-2.6-1.1-5.82-1.63-9.65-1.63-3.61,0-6.74,.53-9.34,1.63h-.09c-2.25,.97-3.7,2.2-4.19,3.57h-5.77c.09-5.69,2.38-10.49,7.14-14.37,4.28,2.86,8.42,2.51,12.34-.97,4.05,3.48,8.2,3.83,12.52,.97Z"/><path id="path25" class="cls-2" d="M191.88,168.92v-.13c.35-6.88-2.2-12.65-7.58-17.32,1.37-1.28,2.78-2.91,4.28-4.94,.62,.53,1.28,1.1,1.94,1.72,5.64,5.73,8.42,12.56,8.46,20.54-.04,7.98-2.86,14.85-8.46,20.63-.62,.57-1.28,1.15-1.94,1.72-1.5-1.98-2.91-3.7-4.28-4.98,5.38-4.63,7.93-10.36,7.58-17.23h0Z"/><path id="path27" class="cls-2" d="M183.5,170.11h5.86c-.09,5.69-2.47,10.49-7.14,14.37-4.32-2.86-8.46-2.51-12.43,.97-3.97-3.48-8.11-3.79-12.34-.97-4.76-3.88-7.05-8.68-7.14-14.37h5.77c.48,1.37,1.94,2.6,4.19,3.57h.09c2.51,1.06,5.77,1.59,9.56,1.67,3.66-.09,6.79-.57,9.39-1.67,2.29-.97,3.7-2.2,4.19-3.57h0Z"/><path id="path29" class="cls-2" d="M161.33,166.41c2.25-.97,5.02-1.45,8.33-1.45s6.3,.48,8.68,1.45h-.09c1.72,.71,2.64,1.54,2.86,2.42-.18,.93-1.15,1.76-2.86,2.47h.09c-2.34,.97-5.11,1.41-8.42,1.5-3.39-.09-6.26-.53-8.59-1.5-1.72-.71-2.64-1.54-2.86-2.47,.18-.88,1.15-1.72,2.86-2.42Z"/><path id="path31" class="cls-2" d="M158.16,187.21c3.57-2.78,7.05-2.51,10.36,.66v10c-5.77-.26-10.89-1.98-15.43-5.2,1.67-2.34,3.35-4.19,5.07-5.47Z"/><path id="path33" class="cls-2" d="M171.07,197.92v-10c3.31-3.17,6.79-3.44,10.45-.66,1.63,1.28,3.31,3.13,4.98,5.51-4.54,3.13-9.65,4.89-15.43,5.16Z"/><path id="path35" class="cls-2" d="M151.06,191.18c-.71-.57-1.37-1.15-1.94-1.72-5.64-5.77-8.51-12.6-8.51-20.63s2.86-14.81,8.51-20.54c.57-.62,1.23-1.23,1.94-1.72,1.41,1.98,2.86,3.61,4.19,4.94-5.33,4.67-7.89,10.45-7.54,17.32v.13c-.35,6.88,2.2,12.6,7.54,17.28-1.32,1.23-2.78,2.95-4.19,4.94Z"/></g><g id="AC"><polygon id="polygon13" class="cls-2" points="106.99 220.18 82.18 168.7 106.99 117.23 169.79 99.64 237.14 123.09 246.39 144.99 169.79 114.01 119.95 132.12 103.86 168.7 119.73 204.93 119.99 205.37 169.79 223.44 246.13 192.64 246.26 192.81 237.14 214.36 169.79 237.81 106.99 220.18"/><polygon id="polygon15" class="cls-2" points="129.6 132.08 152.3 123.84 121.67 201.19 107.56 169.06 129.6 132.08"/><polygon id="polygon19" class="cls-2" points="193.55 104.49 177.38 98.89 169.79 79.68 162.39 98.41 147.1 102.64 169.79 64.6 193.55 104.49"/><polygon id="polygon37" class="cls-2" points="112.24 225.07 106.86 238.6 99.01 213.79 76.01 221.94 91.65 195.72 104.74 222.91 112.24 225.07"/><polygon id="polygon39" class="cls-2" points="244.45 189.77 217.7 200.57 187.64 124.76 211.36 134.33 244.45 189.77"/><polygon id="polygon41" class="cls-2" points="239.61 216.96 232.73 238.6 226.08 221.68 239.52 216.96 239.61 216.96"/><polygon id="polygon43" class="cls-2" points="248.33 196.34 263.63 221.94 240.88 213.92 248.33 196.34"/></g></g></svg>