<?xml version="1.0" encoding="UTF-8" standalone="no"?>
<!-- Generator: Adobe Illustrator 13.0.0, SVG Export Plug-In . SVG Version: 6.00 Build 14948)  -->
<svg
   xmlns:dc="http://purl.org/dc/elements/1.1/"
   xmlns:cc="http://creativecommons.org/ns#"
   xmlns:rdf="http://www.w3.org/1999/02/22-rdf-syntax-ns#"
   xmlns:svg="http://www.w3.org/2000/svg"
   xmlns="http://www.w3.org/2000/svg"
   xmlns:sodipodi="http://sodipodi.sourceforge.net/DTD/sodipodi-0.dtd"
   xmlns:inkscape="http://www.inkscape.org/namespaces/inkscape"
   version="1.1"
   id="Layer_1"
   x="0px"
   y="0px"
   width="192.756px"
   height="192.756px"
   viewBox="0 0 192.756 192.756"
   enable-background="new 0 0 192.756 192.756"
   xml:space="preserve"
   sodipodi:version="0.32"
   inkscape:version="0.46"
   sodipodi:docname="Everton_FC_Crest.svg"
   inkscape:output_extension="org.inkscape.output.svg.inkscape"><metadata
   id="metadata2915"><rdf:RDF><cc:Work
       rdf:about=""><dc:format>image/svg+xml</dc:format><dc:type
         rdf:resource="http://purl.org/dc/dcmitype/StillImage" /></cc:Work></rdf:RDF></metadata><defs
   id="defs2913"><inkscape:perspective
   sodipodi:type="inkscape:persp3d"
   inkscape:vp_x="0 : 96.377998 : 1"
   inkscape:vp_y="0 : 1000 : 0"
   inkscape:vp_z="192.756 : 96.377998 : 1"
   inkscape:persp3d-origin="96.377998 : 64.251999 : 1"
   id="perspective2917" />
	
	
	
	
	
	
	
	
	
	
	
	
	
	
	
	
	
	
	
	
	
	
	
	
	
	
	
	
	
	
	
	
	
	
	
	
	
	
	
	
	
	
	
	
	
	
	
	
	
	
	
	
	
	
	
	
	
	
	
	
	
	
	
	
	
	
	
	
	
	
	
	
	
	
	
	
	
	
	
	
	
	
	
	
	
	
	
	
	
	
	
	
	
	
	
	
	
	
	
	
	
	
	
	
	
	
	
	
	
	
	
	
	
	
	
	
	
	
	
</defs><sodipodi:namedview
   inkscape:window-height="744"
   inkscape:window-width="1280"
   inkscape:pageshadow="2"
   inkscape:pageopacity="0.0"
   guidetolerance="10.0"
   gridtolerance="10.0"
   objecttolerance="10.0"
   borderopacity="1.0"
   bordercolor="#666666"
   pagecolor="#ffffff"
   id="base"
   showgrid="false"
   inkscape:zoom="2.3968126"
   inkscape:cx="96.377998"
   inkscape:cy="96.377998"
   inkscape:window-x="-4"
   inkscape:window-y="-4"
   inkscape:current-layer="Layer_1" />
<path
   style="fill:#24559b;fill-rule:evenodd"
   id="path2676"
   d="M 178.634,106.166 C 176.149,102.467 174.87,92.948 174.87,89.698 C 174.87,87.551 173.712,82.555 162.994,82.555 C 157.529,82.555 152.386,85.81 149.806,87.751 C 148.229,88.938 143.078,93.088 143.078,96.637 C 143.078,99.539 144.75,101.379 146.093,102.857 C 146.494,103.298 146.864,103.709 147.183,104.125 C 136.156,112.59 123.239,118.162 109.557,120.344 C 110.614,119.17 111.171,117.68 111.171,115.951 C 111.171,114.851 110.716,113.265 108.553,111.965 C 108.197,111.744 107.196,111.229 105.115,110.789 C 106.53,110.393 108.045,110.008 109.543,109.629 C 116.666,107.818 125.534,105.568 132.701,100.572 C 141.253,94.611 145.589,85.832 145.589,74.479 C 145.589,63.865 142.513,55.532 140.041,48.836 C 138.491,44.64 137.153,41.017 137.153,38.215 C 137.153,33.002 142.65,26.86 144.546,25.33 L 146.749,23.549 L 144.619,21.68 L 131.69,10.327 L 130.377,9.174 L 128.882,10.079 L 128.737,10.167 C 122.577,13.895 118.508,16.357 110.801,16.357 C 105.025,16.357 98.975,13.096 98.113,12.397 L 96.61,11.176 L 95.106,12.397 C 94.245,13.096 88.195,16.357 82.418,16.357 C 74.713,16.357 70.643,13.895 64.485,10.168 L 64.34,10.08 L 62.843,9.175 L 61.53,10.33 L 48.601,21.682 L 46.474,23.55 L 48.676,25.33 C 50.57,26.861 56.066,33.006 56.066,38.217 C 56.066,41.018 54.729,44.642 53.181,48.838 C 50.709,55.534 47.633,63.866 47.633,74.481 C 47.633,85.834 51.967,94.612 60.52,100.574 C 67.685,105.57 76.555,107.82 83.679,109.631 C 85.13,109.998 86.592,110.369 87.967,110.752 C 85.645,111.221 84.568,111.789 84.231,111.996 C 82.475,113.055 81.585,114.387 81.585,115.953 C 81.585,117.682 82.141,119.172 83.2,120.346 C 69.517,118.164 56.599,112.592 45.573,104.127 C 45.892,103.711 46.262,103.299 46.661,102.859 C 48.007,101.38 49.679,99.541 49.679,96.639 C 49.679,93.091 44.529,88.94 42.951,87.752 C 40.371,85.812 35.226,82.557 29.763,82.557 C 19.042,82.557 17.887,87.553 17.887,89.7 C 17.887,92.95 16.606,102.467 14.123,106.168 C 13.704,106.723 13.412,107.453 13.412,108.332 C 13.412,109.16 13.665,110.109 14.304,111.148 L 14.326,111.185 L 14.349,111.224 C 14.391,111.288 18.866,117.814 23.217,117.816 C 23.543,118.109 23.868,118.402 23.868,118.402 C 42.816,135.466 67.277,145.336 92.744,146.193 L 95.301,146.279 C 95.301,146.279 95.107,137.98 95.048,135.461 C 95.538,135.369 95.989,135.318 96.377,135.318 C 96.763,135.318 97.216,135.369 97.707,135.461 C 97.649,137.981 97.456,146.279 97.456,146.279 L 100.012,146.193 C 125.477,145.336 149.941,135.466 168.888,118.402 C 168.888,118.402 169.212,118.109 169.537,117.816 C 173.891,117.814 178.36,111.289 178.405,111.224 L 178.43,111.185 L 178.453,111.148 C 179.091,110.111 179.344,109.16 179.344,108.332 C 179.345,107.451 179.052,106.721 178.634,106.166 L 178.634,106.166 z"
   clip-rule="evenodd" /><path
   style="fill:#24559b;fill-rule:evenodd"
   id="path2678"
   d="M 176.632,107.518 C 173.716,103.18 172.452,93.092 172.452,89.699 C 172.452,86.31 168.196,84.971 162.994,84.971 C 155.033,84.971 145.493,93.643 145.493,96.638 C 145.493,100.108 149.118,101.448 150.293,104.764 C 138.192,114.526 123.391,121.077 107.189,123.123 L 107.093,119.332 C 108.059,118.633 108.755,117.594 108.755,115.951 C 108.755,115.244 108.248,114.597 107.298,114.027 C 107.298,114.027 104.953,112.464 96.432,112.464 C 87.97,112.464 85.491,114.054 85.491,114.054 C 84.533,114.628 83.997,115.242 83.997,115.95 C 83.997,117.593 84.696,118.632 85.661,119.331 L 85.564,123.122 C 69.361,121.075 54.563,114.524 42.462,104.763 C 43.635,101.447 47.262,100.107 47.262,96.637 C 47.262,93.642 37.723,84.97 29.761,84.97 C 24.557,84.97 20.298,86.309 20.298,89.698 C 20.298,93.091 19.037,103.179 16.123,107.517 C 15.65,107.988 15.73,108.855 16.359,109.88 C 17.148,111.064 20.695,115.4 23.218,115.4 C 24.4,115.4 25.028,114.847 25.189,113.746 C 25.244,113.162 25.554,111.861 26.032,110.217 C 26.556,110.678 27.119,111.158 27.722,111.666 L 25.483,116.605 C 43.443,132.779 66.962,142.906 92.827,143.777 L 92.587,133.607 C 93.298,133.373 94.876,132.9 96.375,132.9 C 97.876,132.9 99.452,133.373 100.165,133.607 L 99.926,143.777 C 125.79,142.906 149.308,132.779 167.269,116.605 L 164.612,110.744 C 165.209,110.221 165.807,109.691 166.401,109.156 C 167.059,111.291 167.494,113.039 167.566,113.746 C 167.723,114.848 168.352,115.4 169.536,115.4 C 172.059,115.4 175.606,111.064 176.395,109.88 C 177.026,108.855 177.105,107.988 176.632,107.518 L 176.632,107.518 z"
   clip-rule="evenodd" /><path
   style="fill:#ffffff;fill-rule:evenodd"
   id="path2680"
   d="M 40.756,102.914 C 39.456,101.799 38.03,100.57 36.794,99.377 C 37.328,98.764 37.644,98.688 37.959,98.688 C 38.669,98.764 42.217,99.87 42.927,99.713 C 42.138,100.342 40.872,102.488 40.756,102.914 L 40.756,102.914 z"
   clip-rule="evenodd" /><path
   style="fill:#ffffff;fill-rule:evenodd"
   id="path2682"
   d="M 88.354,120.539 C 89.822,121.006 91.094,121.299 91.094,122.102 C 91.094,122.416 90.78,123.756 88.256,123.442 L 88.354,120.539 L 88.354,120.539 z"
   clip-rule="evenodd" /><path
   style="fill:#ffffff;fill-rule:evenodd"
   id="path2684"
   d="M 104.4,120.539 C 102.933,121.006 101.661,121.299 101.661,122.102 C 101.661,122.416 101.975,123.756 104.498,123.442 L 104.4,120.539 L 104.4,120.539 z"
   clip-rule="evenodd" /><path
   style="fill:#ffffff;fill-rule:evenodd"
   id="path2686"
   d="M 96.377,114.689 C 103.001,114.689 105.444,115.558 105.444,116.66 C 105.444,118.476 98.822,118.162 98.822,122.181 C 98.822,124.226 99.767,124.859 100.38,125.337 L 100.275,129.903 C 98.43,129.51 97.641,129.272 96.378,129.272 C 95.116,129.272 94.327,129.51 92.483,129.903 L 92.376,125.337 C 92.99,124.858 93.935,124.226 93.935,122.181 C 93.935,118.161 87.31,118.476 87.31,116.66 C 87.309,115.559 89.754,114.689 96.377,114.689 L 96.377,114.689 z"
   clip-rule="evenodd" /><path
   style="fill:#ffffff;fill-rule:evenodd"
   id="path2688"
   d="M 151.997,102.914 C 153.297,101.799 154.726,100.57 155.958,99.377 C 155.426,98.766 155.111,98.688 154.794,98.688 C 154.087,98.766 150.537,99.87 149.829,99.713 C 150.618,100.342 151.882,102.488 151.997,102.914 L 151.997,102.914 z"
   clip-rule="evenodd" /><path
   style="fill:#ffffff;fill-rule:evenodd"
   id="path2690"
   d="M 26.691,108.076 C 28.282,103.148 30.829,96.859 32.835,96.087 C 30.156,95.769 23.769,93.643 23.769,89.227 C 23.769,88.045 26.448,87.257 29.21,87.257 C 36.066,87.257 44.107,93.917 44.107,96.481 C 44.107,97.582 43.005,97.582 42.373,97.582 C 41.112,97.582 39.85,96.714 37.804,96.714 C 36.854,96.714 34.43,96.739 32.923,100.197 L 28.601,109.732 C 27.909,109.143 27.27,108.588 26.691,108.076 L 26.691,108.076 z"
   clip-rule="evenodd" /><path
   style="fill:#ffffff;fill-rule:evenodd"
   id="path2692"
   d="M 163.73,108.795 L 159.832,100.197 C 158.324,96.739 155.898,96.714 154.952,96.714 C 152.902,96.714 151.642,97.582 150.379,97.582 C 149.75,97.582 148.648,97.582 148.648,96.481 C 148.648,93.917 156.688,87.257 163.547,87.257 C 166.305,87.257 168.986,88.045 168.986,89.227 C 168.986,93.643 162.6,95.77 159.919,96.087 C 161.785,96.805 164.117,102.289 165.715,107.018 C 165.054,107.619 164.395,108.213 163.73,108.795 L 163.73,108.795 z"
   clip-rule="evenodd" /><path
   style="fill:#ffffff;fill-rule:evenodd"
   id="path2694"
   d="M 163.026,97.287 C 169.412,95.277 170.475,92.085 170.556,91.22 C 170.355,97.407 173.471,106.08 174.456,107.655 C 174.929,108.444 174.809,109.153 174.652,109.389 C 174.375,109.784 171.105,113.371 170.04,113.727 C 168.62,114.041 168.701,113.174 168.62,112.78 C 167.36,105.922 163.656,98.313 163.026,97.287 L 163.026,97.287 z"
   clip-rule="evenodd" /><path
   style="fill:#ffffff;fill-rule:evenodd"
   id="path2696"
   d="M 29.319,97.287 C 28.688,98.312 24.985,105.922 23.721,112.779 C 23.644,113.174 23.721,114.041 22.304,113.726 C 21.238,113.371 17.969,109.783 17.691,109.388 C 17.535,109.152 17.415,108.443 17.89,107.654 C 18.874,106.08 21.99,97.406 21.791,91.219 C 21.871,92.084 22.934,95.277 29.319,97.287 L 29.319,97.287 z"
   clip-rule="evenodd" /><path
   style="fill:#ffffff;fill-rule:evenodd"
   id="path2698"
   d="M 34.875,100.445 C 49.311,114.629 68.641,123.845 90.102,125.338 L 90.572,142.068 C 66.501,140.773 44.601,131.314 27.59,116.416 L 34.875,100.445 L 34.875,100.445 z"
   clip-rule="evenodd" /><path
   style="fill:#ffffff;fill-rule:evenodd"
   id="path2700"
   d="M 102.244,125.338 C 123.704,123.846 143.034,114.629 157.471,100.445 L 164.758,116.416 C 147.745,131.314 125.844,140.773 101.773,142.068 L 102.244,125.338 L 102.244,125.338 z"
   clip-rule="evenodd" /><path
   style="fill:#24559b;fill-rule:evenodd"
   id="path2702"
   d="M 27.034,98.039 C 26.168,97.801 23.248,95.988 22.934,95.514 C 22.895,99.654 19.781,107.338 19.229,107.971 C 18.995,108.207 18.955,108.758 19.229,109.153 C 19.466,109.469 21.556,111.44 22.028,111.755 C 22.54,112.112 22.581,111.558 22.581,111.558 C 23.369,107.064 26.561,99.064 27.034,98.039 L 27.034,98.039 z"
   clip-rule="evenodd" /><path
   style="fill:#24559b;fill-rule:evenodd"
   id="path2704"
   d="M 35.644,103.381 L 29.902,115.912 C 45.866,129.41 66.255,138.432 88.37,140.115 L 88.052,126.73 C 68.08,124.91 49.617,116.186 35.644,103.381 L 35.644,103.381 z"
   clip-rule="evenodd" /><path
   style="fill:#24559b;fill-rule:evenodd"
   id="path2706"
   d="M 104.294,126.73 L 103.978,140.115 C 126.091,138.431 146.479,129.41 162.446,115.912 L 156.703,103.381 C 142.728,116.186 124.266,124.91 104.294,126.73 L 104.294,126.73 z"
   clip-rule="evenodd" /><path
   style="fill:#24559b;fill-rule:evenodd"
   id="path2708"
   d="M 165.312,98.039 C 165.784,99.064 168.977,107.066 169.767,111.559 C 169.767,111.559 169.804,112.112 170.318,111.754 C 170.79,111.44 172.88,109.469 173.118,109.152 C 173.393,108.757 173.355,108.207 173.118,107.97 C 172.565,107.337 169.451,99.654 169.413,95.513 C 169.097,95.988 166.178,97.801 165.312,98.039 L 165.312,98.039 z"
   clip-rule="evenodd" /><path
   style="fill:#24559b;fill-rule:evenodd"
   id="path2710"
   d="M 25.762,41.727 C 24.051,41.727 22.175,41.727 22.175,41.727 L 23.859,43.411 L 23.859,53.785 L 22.175,55.469 L 29.347,55.469 L 27.663,53.785 L 27.663,43.41 L 29.347,41.726 C 29.347,41.727 27.471,41.727 25.762,41.727 L 25.762,41.727 z"
   clip-rule="evenodd" /><polygon
   style="fill:#24559b;fill-rule:evenodd"
   id="polygon2712"
   points="146.089,46.537 146.089,41.778 158.214,41.778 151.69,59.737 151.69,61.502 148.237,61.502 155.528,44.465 148.008,44.465 146.089,46.537 "
   clip-rule="evenodd" /><path
   style="fill:#24559b;fill-rule:evenodd"
   id="path2714"
   d="M 43.124,44.996 C 43.288,44.894 45.882,43.246 45.882,40.811 C 45.882,37.071 43.37,35.283 39.769,35.28 C 39.768,35.28 39.762,35.28 39.76,35.28 C 39.758,35.28 39.753,35.28 39.751,35.28 C 36.15,35.283 33.638,37.071 33.638,40.811 C 33.638,43.246 36.232,44.894 36.396,44.996 C 36.232,45.098 32.721,46.174 32.721,50.281 C 32.721,54.387 36.15,55.809 39.751,55.811 C 39.752,55.811 39.758,55.811 39.76,55.811 C 39.762,55.811 39.768,55.811 39.769,55.811 C 43.37,55.809 46.799,54.387 46.799,50.281 C 46.798,46.174 43.288,45.098 43.124,44.996 L 43.124,44.996 z M 39.755,36.021 C 41.347,36.021 42.638,37.957 42.638,40.345 C 42.638,42.732 41.347,44.669 39.755,44.669 C 38.163,44.669 36.872,42.732 36.872,40.345 C 36.873,37.957 38.163,36.021 39.755,36.021 L 39.755,36.021 z M 39.755,55.192 C 37.814,55.192 36.239,52.967 36.239,50.222 C 36.239,47.477 37.814,45.252 39.755,45.252 C 41.699,45.252 43.275,47.477 43.275,50.222 C 43.275,52.967 41.699,55.192 39.755,55.192 L 39.755,55.192 z"
   clip-rule="evenodd" /><path
   style="fill:#24559b;fill-rule:evenodd"
   id="path2716"
   d="M 171.169,44.996 C 171.333,44.894 173.927,43.246 173.927,40.811 C 173.927,37.071 171.414,35.283 167.814,35.28 C 167.813,35.28 167.808,35.28 167.805,35.28 C 167.802,35.28 167.797,35.28 167.796,35.28 C 164.194,35.283 161.683,37.071 161.683,40.811 C 161.683,43.246 164.277,44.894 164.44,44.996 C 164.277,45.098 160.766,46.174 160.766,50.281 C 160.766,54.387 164.195,55.809 167.796,55.811 C 167.797,55.811 167.803,55.811 167.805,55.811 C 167.807,55.811 167.813,55.811 167.814,55.811 C 171.415,55.809 174.844,54.387 174.844,50.281 C 174.844,46.174 171.333,45.098 171.169,44.996 L 171.169,44.996 z M 167.801,36.021 C 169.392,36.021 170.684,37.957 170.684,40.345 C 170.684,42.732 169.392,44.669 167.801,44.669 C 166.208,44.669 164.918,42.732 164.918,40.345 C 164.918,37.957 166.208,36.021 167.801,36.021 L 167.801,36.021 z M 167.801,55.192 C 165.86,55.192 164.285,52.967 164.285,50.222 C 164.285,47.477 165.859,45.252 167.801,45.252 C 169.743,45.252 171.32,47.477 171.32,50.222 C 171.319,52.967 169.743,55.192 167.801,55.192 L 167.801,55.192 z"
   clip-rule="evenodd" /><path
   style="fill:#24559b;fill-rule:evenodd"
   id="path2718"
   d="M 25.236,167.33 C 25.236,162.955 25.236,155.273 25.236,155.273 L 21.876,152.111 L 43.025,152.111 L 43.025,158.634 L 39.27,154.679 L 30.968,154.679 L 30.968,165.353 L 37.095,165.353 L 39.467,162.585 L 39.467,170.302 L 37.095,167.534 L 30.968,167.534 L 30.968,179.979 L 39.27,179.979 L 43.025,176.026 L 43.025,182.549 L 21.876,182.549 L 25.236,179.387 C 25.236,179.389 25.236,171.707 25.236,167.33 L 25.236,167.33 z"
   clip-rule="evenodd" /><polygon
   style="fill:#24559b;fill-rule:evenodd"
   id="polygon2720"
   points="55.873,161.402 44.013,161.402 47.176,164.367 54.489,182.551 58.047,182.551 65.163,163.973 68.325,161.4 60.023,161.4 62.989,163.773 58.047,176.227 53.105,163.973 55.873,161.402 "
   clip-rule="evenodd" /><path
   style="fill:#24559b;fill-rule:evenodd"
   id="path2722"
   d="M 103.155,160.121 C 101.875,160.121 98.306,163.648 97.183,164.793 L 97.183,160.166 C 94.596,161.029 88.486,163.131 88.486,163.131 L 91.649,166.295 L 91.649,179.537 L 88.881,182.502 L 99.95,182.502 L 97.183,179.537 L 97.183,168.168 L 100.939,163.922 C 100.939,163.922 101.423,163.315 101.899,163.315 C 102.375,163.315 102.782,163.926 102.782,163.926 L 107.062,168.307 L 107.062,160.121 C 107.063,160.121 104.684,160.121 103.155,160.121 L 103.155,160.121 z"
   clip-rule="evenodd" /><path
   style="fill:#24559b;fill-rule:evenodd"
   id="path2724"
   d="M 157.769,168.217 L 157.769,179.586 L 160.537,182.551 L 149.468,182.551 L 152.236,179.586 L 152.236,166.344 L 149.074,163.182 C 149.074,163.182 155.184,161.078 157.77,160.215 L 157.77,164.842 C 157.77,164.842 161.54,159.721 166.934,159.721 C 170.047,159.721 171.913,162.209 171.913,164.285 L 171.913,179.639 L 175.026,182.543 L 166.311,182.543 C 166.311,182.543 166.311,167.979 166.311,165.697 C 166.311,163.414 165.481,162.832 163.614,162.832 C 161.747,162.832 157.769,168.217 157.769,168.217 L 157.769,168.217 z"
   clip-rule="evenodd" /><path
   style="fill:#24559b;fill-rule:evenodd"
   id="path2726"
   d="M 122.946,162.832 L 122.946,160.758 L 116.722,160.758 C 116.722,157.389 116.722,154.947 116.722,154.947 L 109.252,162.625 L 109.252,164.492 L 111.119,164.492 C 111.119,164.492 111.119,174.035 111.119,178.601 C 111.119,181.298 114.438,183.58 117.344,183.58 C 120.248,183.58 122.739,179.846 122.739,179.846 L 121.909,178.602 C 119.004,181.92 116.722,181.92 116.722,180.262 C 116.722,179.239 116.722,169.875 116.722,162.832 L 122.946,162.832 L 122.946,162.832 z"
   clip-rule="evenodd" /><path
   style="fill:#24559b;fill-rule:evenodd"
   id="path2728"
   d="M 135.604,160.234 C 129.379,160.234 124.333,165.461 124.333,171.908 C 124.333,178.355 129.379,183.58 135.604,183.58 C 141.829,183.58 146.875,178.355 146.875,171.908 C 146.875,165.461 141.828,160.234 135.604,160.234 L 135.604,160.234 z M 135.604,181.568 C 132.714,181.568 130.372,177.244 130.372,171.908 C 130.372,166.572 132.715,162.246 135.604,162.246 C 138.493,162.246 140.836,166.572 140.836,171.908 C 140.836,177.244 138.492,181.568 135.604,181.568 L 135.604,181.568 z"
   clip-rule="evenodd" /><path
   style="fill:#24559b;fill-rule:evenodd"
   id="path2730"
   d="M 79.394,181.209 C 77.573,181.209 76.291,180.67 75.39,179.846 C 73.617,178.381 73.097,175.049 73.097,171.17 L 88.073,171.117 C 87.748,164.949 83.184,160.058 77.601,160.058 C 71.808,160.058 67.112,165.326 67.112,171.82 C 67.112,178.316 71.808,183.58 77.601,183.58 C 81.223,183.58 85.473,182.158 87.359,179.031 L 86.115,178.047 C 86.115,178.047 83.94,181.209 79.394,181.209 L 79.394,181.209 z M 77.808,161.84 C 82.546,161.844 82.151,169.153 82.151,169.153 C 82.151,169.153 79.946,169.153 77.808,169.153 C 75.67,169.153 73.464,169.153 73.464,169.153 C 73.464,169.153 73.069,161.844 77.808,161.84 L 77.808,161.84 z"
   clip-rule="evenodd" /><polygon
   style="fill:#ffffff;fill-rule:evenodd"
   id="polygon2732"
   points="43.96,113.391 44.916,114.025 40.145,121.197 39.123,120.52 40.528,114.076 40.515,114.068 37.113,119.182 36.161,118.547 40.93,111.375 42.005,112.092 40.626,118.375 40.639,118.387 43.96,113.391 "
   clip-rule="evenodd" /><polygon
   style="fill:#ffffff;fill-rule:evenodd"
   id="polygon2734"
   points="43.426,123.182 42.374,122.555 46.793,115.158 47.846,115.789 43.426,123.182 "
   clip-rule="evenodd" /><polygon
   style="fill:#ffffff;fill-rule:evenodd"
   id="polygon2736"
   points="47.552,123.736 50.121,125.125 49.38,126.496 45.733,124.523 49.83,116.945 50.907,117.531 47.552,123.736 "
   clip-rule="evenodd" /><path
   style="fill:#ffffff;fill-rule:evenodd"
   id="path2738"
   d="M 56.598,127.016 C 56.416,127.455 56.202,128.358 57.185,128.786 C 57.721,129.016 58.393,129.087 58.756,128.251 C 59.022,127.634 58.689,127.292 58.204,126.847 L 57.714,126.4 C 56.972,125.724 56.257,125.074 57.009,123.336 C 57.39,122.455 58.387,121.043 60.134,121.799 C 61.784,122.516 61.541,124.293 61.129,125.266 L 60.046,124.797 C 60.17,124.432 60.443,123.557 59.459,123.129 C 59.031,122.943 58.423,122.955 58.11,123.668 C 57.843,124.287 58.131,124.566 58.322,124.74 L 59.43,125.787 C 60.05,126.367 60.535,127.101 59.92,128.519 C 58.891,130.898 57.149,130.392 56.677,130.187 C 54.711,129.333 55.094,127.527 55.516,126.546 L 56.598,127.016 L 56.598,127.016 z"
   clip-rule="evenodd" /><path
   style="fill:#ffffff;fill-rule:evenodd"
   id="path2740"
   d="M 65.58,126.299 L 65.593,126.305 L 65.123,129.758 L 63.714,129.248 L 65.58,126.299 L 65.58,126.299 L 65.58,126.299 z M 62.901,130.537 L 64.94,131.271 L 64.69,133.068 L 65.945,133.519 L 66.924,124.72 L 65.592,124.236 L 60.698,131.627 L 61.914,132.068 L 62.901,130.537 L 62.901,130.537 z"
   clip-rule="evenodd" /><polygon
   style="fill:#ffffff;fill-rule:evenodd"
   id="polygon2742"
   points="69.872,134.713 68.694,134.361 70.717,127.568 69.017,127.061 69.451,125.602 74.03,126.963 73.593,128.424 71.893,127.918 69.872,134.713 "
   clip-rule="evenodd" /><polygon
   style="fill:#ffffff;fill-rule:evenodd"
   id="polygon2744"
   points="74.838,136.027 73.645,135.736 75.695,127.369 76.888,127.662 74.838,136.027 "
   clip-rule="evenodd" /><path
   style="fill:#ffffff;fill-rule:evenodd"
   id="path2746"
   d="M 78.797,134.193 C 78.716,134.67 78.705,135.593 79.76,135.791 C 80.33,135.9 81.003,135.822 81.173,134.924 C 81.298,134.264 80.899,134.006 80.327,133.68 L 79.747,133.348 C 78.877,132.856 78.033,132.375 78.386,130.516 C 78.565,129.573 79.224,127.975 81.098,128.328 C 82.865,128.664 83.019,130.449 82.83,131.488 L 81.672,131.271 C 81.712,130.886 81.786,129.974 80.732,129.775 C 80.274,129.687 79.681,129.832 79.537,130.595 C 79.411,131.257 79.754,131.47 79.98,131.597 L 81.288,132.37 C 82.024,132.8 82.657,133.411 82.37,134.931 C 81.887,137.478 80.077,137.367 79.57,137.271 C 77.466,136.875 77.442,135.025 77.64,133.976 L 78.797,134.193 L 78.797,134.193 z"
   clip-rule="evenodd" /><polygon
   style="fill:#ffffff;fill-rule:evenodd"
   id="polygon2748"
   points="110.029,128.68 111.166,128.527 112.337,137.061 111.121,137.227 107.912,131.469 107.896,131.471 108.732,137.555 107.598,137.709 106.425,129.18 107.704,128.998 110.833,134.625 110.848,134.623 110.029,128.68 "
   clip-rule="evenodd" /><polygon
   style="fill:#ffffff;fill-rule:evenodd"
   id="polygon2750"
   points="114.874,136.572 113.669,136.801 112.08,128.334 113.286,128.107 114.874,136.572 "
   clip-rule="evenodd" /><path
   style="fill:#ffffff;fill-rule:evenodd"
   id="path2752"
   d="M 116.498,133.535 C 116.617,134 116.984,134.849 118.027,134.605 C 118.594,134.472 119.174,134.125 118.967,133.238 C 118.813,132.584 118.34,132.508 117.689,132.443 L 117.024,132.375 C 116.027,132.277 115.064,132.184 114.629,130.338 C 114.41,129.404 114.365,127.676 116.22,127.242 C 117.973,126.83 118.836,128.4 119.086,129.426 L 117.94,129.697 C 117.821,129.33 117.516,128.465 116.473,128.709 C 116.019,128.816 115.535,129.188 115.713,129.947 C 115.866,130.603 116.266,130.656 116.524,130.683 L 118.036,130.855 C 118.882,130.955 119.71,131.251 120.064,132.761 C 120.656,135.281 118.957,135.913 118.455,136.031 C 116.37,136.519 115.596,134.843 115.351,133.802 L 116.498,133.535 L 116.498,133.535 z"
   clip-rule="evenodd" /><polygon
   style="fill:#ffffff;fill-rule:evenodd"
   id="polygon2754"
   points="122.882,134.633 121.703,134.971 119.355,126.68 120.537,126.344 122.882,134.633 "
   clip-rule="evenodd" /><path
   style="fill:#ffffff;fill-rule:evenodd"
   id="path2756"
   d="M 125.87,129.18 C 125.045,126.914 125.714,126.034 126.338,125.809 C 126.959,125.577 128.041,125.825 128.867,128.088 C 129.691,130.356 129.022,131.234 128.398,131.465 C 127.778,131.691 126.695,131.447 125.87,129.18 L 125.87,129.18 L 125.87,129.18 z M 124.719,129.602 C 126.103,133.403 128.191,133.163 128.923,132.895 C 129.651,132.629 131.402,131.469 130.021,127.668 C 128.637,123.871 126.547,124.109 125.817,124.375 C 125.084,124.641 123.334,125.803 124.719,129.602 L 124.719,129.602 z"
   clip-rule="evenodd" /><path
   style="fill:#ffffff;fill-rule:evenodd"
   id="path2758"
   d="M 132.014,126.488 L 130.995,124.172 L 131.888,123.781 C 132.584,123.474 133.015,123.664 133.352,124.433 C 133.507,124.785 133.894,125.663 133.054,126.031 L 132.014,126.488 L 132.014,126.488 L 132.014,126.488 z M 132.611,127.852 L 133.899,127.284 C 135.344,126.651 134.823,124.733 134.509,124.02 C 133.829,122.469 132.77,121.768 131.729,122.223 L 129.273,123.305 L 132.738,131.19 L 133.861,130.696 L 132.611,127.852 L 132.611,127.852 z"
   clip-rule="evenodd" /><polygon
   style="fill:#ffffff;fill-rule:evenodd"
   id="polygon2760"
   points="140.227,127.697 139.132,128.252 135.93,121.926 134.347,122.727 133.658,121.365 137.92,119.209 138.609,120.57 137.024,121.371 140.227,127.697 "
   clip-rule="evenodd" /><polygon
   style="fill:#ffffff;fill-rule:evenodd"
   id="polygon2762"
   points="143.61,125.883 142.538,126.477 138.372,118.936 139.444,118.342 143.61,125.883 "
   clip-rule="evenodd" /><polygon
   style="fill:#ffffff;fill-rule:evenodd"
   id="polygon2764"
   points="149.649,122.283 148.672,122.879 144.921,116.736 144.908,116.746 147.725,123.459 146.698,124.086 142.032,118.502 142.017,118.51 145.77,124.652 144.79,125.252 140.301,117.898 141.831,116.965 146.277,122.205 146.291,122.195 143.647,115.857 145.159,114.93 149.649,122.283 "
   clip-rule="evenodd" /><path
   style="fill:#ffffff;fill-rule:evenodd"
   id="path2766"
   d="M 153.06,116.293 C 154.35,118.156 154.136,119.486 152.918,120.326 C 152.474,120.637 151.706,120.933 150.791,120.531 C 150.228,120.279 149.73,119.777 149.227,119.076 L 145.977,114.381 L 147.004,113.668 L 150.187,118.262 C 150.87,119.252 151.561,119.418 152.031,119.088 C 152.723,118.609 152.665,117.922 152.072,117.063 L 148.842,112.397 L 149.871,111.686 L 153.06,116.293 L 153.06,116.293 z"
   clip-rule="evenodd" /><polygon
   style="fill:#ffffff;fill-rule:evenodd"
   id="polygon2768"
   points="160.454,114.436 159.549,115.135 155.146,109.441 155.132,109.449 158.669,115.814 157.719,116.551 152.467,111.514 152.453,111.525 156.859,117.217 155.95,117.918 150.682,111.105 152.099,110.01 157.095,114.727 157.109,114.721 153.781,108.707 155.187,107.621 160.454,114.436 "
   clip-rule="evenodd" /><path
   style="fill:#ffffff;fill-rule:evenodd"
   id="path2770"
   d="M 50.176,23.474 L 63.102,12.122 C 69.49,15.985 73.981,18.743 82.418,18.743 C 88.723,18.743 95.347,15.275 96.609,14.25 C 97.873,15.275 104.497,18.743 110.8,18.743 C 119.235,18.743 123.73,15.985 130.114,12.122 L 143.045,23.474 C 140.994,25.13 134.766,31.91 134.766,38.216 C 134.766,46.179 143.202,57.347 143.202,74.48 C 143.202,108.614 102.762,104.752 96.609,112.163 C 90.46,104.753 50.018,108.614 50.018,74.48 C 50.018,57.348 58.453,46.179 58.453,38.216 C 58.453,31.91 52.225,25.13 50.176,23.474 L 50.176,23.474 z"
   clip-rule="evenodd" /><path
   style="fill:#24559b;fill-rule:evenodd"
   id="path2772"
   d="M 83.285,33.412 C 83.285,34.358 83.601,34.831 84.231,34.831 C 86.124,34.831 85.885,31.677 85.729,30.337 C 85.492,31.755 83.285,32.23 83.285,33.412 L 83.285,33.412 z"
   clip-rule="evenodd" /><path
   style="fill:#24559b;fill-rule:evenodd"
   id="path2774"
   d="M 68.78,24.977 C 70.907,24.977 70.514,21.508 72.09,21.272 C 70.907,21.351 67.675,22.06 67.675,23.874 C 67.675,24.503 68.228,24.977 68.78,24.977 L 68.78,24.977 z"
   clip-rule="evenodd" /><path
   style="fill:#24559b;fill-rule:evenodd"
   id="path2776"
   d="M 65.548,27.894 C 66.019,27.894 66.73,27.184 66.73,26.553 C 66.73,25.922 66.019,24.424 66.811,23.636 C 66.178,23.872 64.601,24.582 64.601,26.946 C 64.601,27.419 64.997,27.894 65.548,27.894 L 65.548,27.894 z"
   clip-rule="evenodd" /><path
   style="fill:#24559b;fill-rule:evenodd"
   id="path2778"
   d="M 68.228,27.735 C 69.095,27.735 71.065,26.002 70.907,24.583 C 70.357,25.844 67.125,25.056 67.125,26.869 C 67.125,27.262 67.519,27.735 68.228,27.735 L 68.228,27.735 z"
   clip-rule="evenodd" /><path
   style="fill:#24559b;fill-rule:evenodd"
   id="path2780"
   d="M 63.972,31.283 C 64.523,31.283 64.916,30.731 64.916,29.707 C 64.916,28.919 63.499,27.263 63.343,26.475 C 62.946,27.262 62.08,31.283 63.972,31.283 L 63.972,31.283 z"
   clip-rule="evenodd" /><path
   style="fill:#24559b;fill-rule:evenodd"
   id="path2782"
   d="M 65.39,29.942 C 65.39,30.179 65.706,30.651 66.337,30.651 C 66.811,30.651 69.175,29.548 69.409,27.813 C 68.544,28.839 65.39,27.894 65.39,29.942 L 65.39,29.942 z"
   clip-rule="evenodd" /><path
   style="fill:#24559b;fill-rule:evenodd"
   id="path2784"
   d="M 63.263,34.831 C 63.891,34.831 64.207,34.358 64.207,33.412 C 64.207,32.23 61.999,31.756 61.766,30.337 C 61.604,31.677 61.369,34.831 63.263,34.831 L 63.263,34.831 z"
   clip-rule="evenodd" /><path
   style="fill:#24559b;fill-rule:evenodd"
   id="path2786"
   d="M 64.129,38.852 C 64.681,38.852 65.233,38.537 65.233,37.748 C 65.233,35.935 62.394,36.645 61.766,34.91 C 61.684,35.855 62.474,38.852 64.129,38.852 L 64.129,38.852 z"
   clip-rule="evenodd" /><path
   style="fill:#24559b;fill-rule:evenodd"
   id="path2788"
   d="M 67.887,30.782 C 67.951,30.765 68.013,30.748 68.069,30.73 C 68.005,30.736 67.944,30.753 67.887,30.782 L 67.887,30.782 z"
   clip-rule="evenodd" /><path
   style="fill:#24559b;fill-rule:evenodd"
   id="path2790"
   d="M 67.887,30.782 C 66.798,31.07 64.761,31.313 64.761,33.175 C 64.761,33.805 65.313,34.042 65.863,34.042 C 66.971,34.042 67.04,31.204 67.887,30.782 L 67.887,30.782 z"
   clip-rule="evenodd" /><path
   style="fill:#24559b;fill-rule:evenodd"
   id="path2792"
   d="M 66.258,37.433 C 67.675,37.433 67.125,34.437 67.597,33.806 C 66.888,34.279 65.232,34.91 65.232,36.409 C 65.232,36.723 65.39,37.433 66.258,37.433 L 66.258,37.433 z"
   clip-rule="evenodd" /><path
   style="fill:#24559b;fill-rule:evenodd"
   id="path2794"
   d="M 66.888,41.453 C 66.888,39.481 63.263,40.269 62.789,39.008 C 63.024,40.269 64.681,42.32 65.548,42.32 C 65.941,42.32 66.888,42.398 66.888,41.453 L 66.888,41.453 z"
   clip-rule="evenodd" /><path
   style="fill:#24559b;fill-rule:evenodd"
   id="path2796"
   d="M 68.308,40.822 C 68.78,40.822 69.095,40.269 69.095,39.718 C 69.095,39.088 67.283,37.747 67.832,36.644 C 67.204,37.51 66.02,40.822 68.308,40.822 L 68.308,40.822 z"
   clip-rule="evenodd" /><path
   style="fill:#24559b;fill-rule:evenodd"
   id="path2798"
   d="M 69.645,42.713 C 68.544,42.713 67.283,44.054 65.785,43.344 C 66.731,44.133 68.386,44.998 69.491,44.998 C 70.121,44.998 70.988,44.605 70.988,43.737 C 70.987,43.186 70.436,42.713 69.645,42.713 L 69.645,42.713 z"
   clip-rule="evenodd" /><path
   style="fill:#24559b;fill-rule:evenodd"
   id="path2800"
   d="M 78.712,24.977 C 79.264,24.977 79.818,24.503 79.818,23.873 C 79.818,22.06 76.587,21.35 75.403,21.271 C 76.978,21.508 76.587,24.977 78.712,24.977 L 78.712,24.977 z"
   clip-rule="evenodd" /><path
   style="fill:#24559b;fill-rule:evenodd"
   id="path2802"
   d="M 80.762,26.553 C 80.762,27.184 81.471,27.894 81.944,27.894 C 82.496,27.894 82.893,27.419 82.893,26.947 C 82.893,24.583 81.316,23.873 80.684,23.637 C 81.471,24.424 80.762,25.922 80.762,26.553 L 80.762,26.553 z"
   clip-rule="evenodd" /><path
   style="fill:#24559b;fill-rule:evenodd"
   id="path2804"
   d="M 76.587,24.583 C 76.426,26.002 78.4,27.735 79.265,27.735 C 79.974,27.735 80.37,27.262 80.37,26.868 C 80.37,25.055 77.137,25.844 76.587,24.583 L 76.587,24.583 z"
   clip-rule="evenodd" /><path
   style="fill:#24559b;fill-rule:evenodd"
   id="path2806"
   d="M 83.522,31.283 C 85.416,31.283 84.547,27.262 84.151,26.474 C 83.994,27.262 82.577,28.918 82.577,29.706 C 82.578,30.73 82.969,31.283 83.522,31.283 L 83.522,31.283 z"
   clip-rule="evenodd" /><path
   style="fill:#24559b;fill-rule:evenodd"
   id="path2808"
   d="M 82.103,29.942 C 82.103,27.894 78.95,28.838 78.082,27.814 C 78.32,29.549 80.684,30.652 81.156,30.652 C 81.788,30.652 82.103,30.18 82.103,29.942 L 82.103,29.942 z"
   clip-rule="evenodd" /><path
   style="fill:#24559b;fill-rule:evenodd"
   id="path2810"
   d="M 82.26,37.748 C 82.26,38.537 82.813,38.852 83.365,38.852 C 85.019,38.852 85.809,35.855 85.729,34.91 C 85.098,36.645 82.26,35.935 82.26,37.748 L 82.26,37.748 z"
   clip-rule="evenodd" /><path
   style="fill:#24559b;fill-rule:evenodd"
   id="path2812"
   d="M 79.603,30.782 C 79.546,30.753 79.485,30.736 79.421,30.73 C 79.478,30.748 79.54,30.765 79.603,30.782 L 79.603,30.782 z"
   clip-rule="evenodd" /><path
   style="fill:#24559b;fill-rule:evenodd"
   id="path2814"
   d="M 82.733,33.175 C 82.733,31.313 80.693,31.07 79.603,30.782 C 80.451,31.204 80.521,34.042 81.631,34.042 C 82.182,34.042 82.733,33.805 82.733,33.175 L 82.733,33.175 z"
   clip-rule="evenodd" /><path
   style="fill:#24559b;fill-rule:evenodd"
   id="path2816"
   d="M 81.234,37.433 C 82.102,37.433 82.26,36.723 82.26,36.408 C 82.26,34.91 80.606,34.278 79.894,33.805 C 80.37,34.437 79.818,37.433 81.234,37.433 L 81.234,37.433 z"
   clip-rule="evenodd" /><path
   style="fill:#24559b;fill-rule:evenodd"
   id="path2818"
   d="M 80.606,41.453 C 80.606,42.398 81.551,42.32 81.944,42.32 C 82.813,42.32 84.466,40.269 84.703,39.008 C 84.231,40.269 80.606,39.481 80.606,41.453 L 80.606,41.453 z"
   clip-rule="evenodd" /><path
   style="fill:#24559b;fill-rule:evenodd"
   id="path2820"
   d="M 79.187,40.822 C 81.472,40.822 80.291,37.51 79.66,36.645 C 80.213,37.748 78.4,39.089 78.4,39.719 C 78.4,40.269 78.712,40.822 79.187,40.822 L 79.187,40.822 z"
   clip-rule="evenodd" /><path
   style="fill:#24559b;fill-rule:evenodd"
   id="path2822"
   d="M 77.847,42.713 C 77.059,42.713 76.505,43.186 76.505,43.738 C 76.505,44.606 77.375,44.999 78.004,44.999 C 79.106,44.999 80.762,44.133 81.709,43.345 C 80.212,44.054 78.949,42.713 77.847,42.713 L 77.847,42.713 z"
   clip-rule="evenodd" /><path
   style="fill:#24559b;fill-rule:evenodd"
   id="path2824"
   d="M 75.167,42.241 C 75.167,42.149 75.164,42.061 75.158,41.976 C 75.354,42.262 75.71,42.558 76.033,42.558 C 77.767,42.558 78.003,39.877 78.003,38.931 C 77.857,39.956 75.399,40.099 75.05,41.315 C 74.797,40.404 74.176,40.113 73.745,40.113 C 73.313,40.113 72.693,40.405 72.442,41.32 C 72.099,40.099 69.633,39.958 69.489,38.931 C 69.489,39.877 69.725,42.558 71.459,42.558 C 71.784,42.558 72.142,42.26 72.337,41.972 C 72.332,42.058 72.328,42.148 72.328,42.242 C 72.328,42.793 72.404,46.105 71.302,46.499 C 72.64,46.814 72.877,45.789 73.745,45.789 C 74.612,45.789 74.85,46.814 76.19,46.499 C 75.086,46.104 75.167,42.792 75.167,42.241 L 75.167,42.241 z"
   clip-rule="evenodd" /><path
   style="fill:#24559b;fill-rule:evenodd"
   id="path2826"
   d="M 108.988,34.831 C 109.618,34.831 109.934,34.358 109.934,33.412 C 109.934,32.23 107.726,31.756 107.491,30.337 C 107.335,31.677 107.096,34.831 108.988,34.831 L 108.988,34.831 z"
   clip-rule="evenodd" /><path
   style="fill:#24559b;fill-rule:evenodd"
   id="path2828"
   d="M 124.441,24.977 C 124.99,24.977 125.545,24.503 125.545,23.873 C 125.545,22.06 122.313,21.35 121.129,21.271 C 122.705,21.508 122.313,24.977 124.441,24.977 L 124.441,24.977 z"
   clip-rule="evenodd" /><path
   style="fill:#24559b;fill-rule:evenodd"
   id="path2830"
   d="M 126.488,26.553 C 126.488,27.184 127.198,27.894 127.671,27.894 C 128.223,27.894 128.617,27.419 128.617,26.947 C 128.617,24.583 127.042,23.873 126.41,23.637 C 127.198,24.424 126.488,25.922 126.488,26.553 L 126.488,26.553 z"
   clip-rule="evenodd" /><path
   style="fill:#24559b;fill-rule:evenodd"
   id="path2832"
   d="M 122.313,24.583 C 122.154,26.002 124.126,27.735 124.991,27.735 C 125.702,27.735 126.095,27.262 126.095,26.868 C 126.095,25.055 122.862,25.844 122.313,24.583 L 122.313,24.583 z"
   clip-rule="evenodd" /><path
   style="fill:#24559b;fill-rule:evenodd"
   id="path2834"
   d="M 129.248,31.283 C 131.14,31.283 130.273,27.262 129.88,26.474 C 129.721,27.262 128.303,28.918 128.303,29.706 C 128.303,30.73 128.695,31.283 129.248,31.283 L 129.248,31.283 z"
   clip-rule="evenodd" /><path
   style="fill:#24559b;fill-rule:evenodd"
   id="path2836"
   d="M 127.83,29.942 C 127.83,27.894 124.675,28.838 123.81,27.814 C 124.046,29.549 126.41,30.652 126.883,30.652 C 127.514,30.652 127.83,30.18 127.83,29.942 L 127.83,29.942 z"
   clip-rule="evenodd" /><path
   style="fill:#24559b;fill-rule:evenodd"
   id="path2838"
   d="M 129.012,33.412 C 129.012,34.358 129.327,34.831 129.959,34.831 C 131.851,34.831 131.615,31.677 131.456,30.337 C 131.22,31.755 129.012,32.23 129.012,33.412 L 129.012,33.412 z"
   clip-rule="evenodd" /><path
   style="fill:#24559b;fill-rule:evenodd"
   id="path2840"
   d="M 127.989,37.748 C 127.989,38.537 128.54,38.852 129.091,38.852 C 130.746,38.852 131.535,35.855 131.456,34.91 C 130.825,36.645 127.989,35.935 127.989,37.748 L 127.989,37.748 z"
   clip-rule="evenodd" /><path
   style="fill:#24559b;fill-rule:evenodd"
   id="path2842"
   d="M 125.33,30.782 C 125.274,30.753 125.214,30.736 125.149,30.73 C 125.206,30.748 125.268,30.765 125.33,30.782 L 125.33,30.782 z"
   clip-rule="evenodd" /><path
   style="fill:#24559b;fill-rule:evenodd"
   id="path2844"
   d="M 128.461,33.175 C 128.461,31.313 126.42,31.07 125.33,30.782 C 126.178,31.204 126.247,34.042 127.357,34.042 C 127.908,34.042 128.461,33.805 128.461,33.175 L 128.461,33.175 z"
   clip-rule="evenodd" /><path
   style="fill:#24559b;fill-rule:evenodd"
   id="path2846"
   d="M 126.964,37.433 C 127.83,37.433 127.989,36.723 127.989,36.408 C 127.989,34.91 126.332,34.278 125.623,33.805 C 126.095,34.437 125.545,37.433 126.964,37.433 L 126.964,37.433 z"
   clip-rule="evenodd" /><path
   style="fill:#24559b;fill-rule:evenodd"
   id="path2848"
   d="M 126.332,41.453 C 126.332,42.398 127.278,42.32 127.671,42.32 C 128.54,42.32 130.195,40.269 130.432,39.008 C 129.959,40.269 126.332,39.481 126.332,41.453 L 126.332,41.453 z"
   clip-rule="evenodd" /><path
   style="fill:#24559b;fill-rule:evenodd"
   id="path2850"
   d="M 124.913,40.822 C 127.198,40.822 126.017,37.511 125.387,36.645 C 125.938,37.748 124.125,39.089 124.125,39.719 C 124.125,40.269 124.441,40.822 124.913,40.822 L 124.913,40.822 z"
   clip-rule="evenodd" /><path
   style="fill:#24559b;fill-rule:evenodd"
   id="path2852"
   d="M 123.573,42.713 C 122.784,42.713 122.232,43.186 122.232,43.739 C 122.232,44.606 123.099,44.999 123.73,44.999 C 124.835,44.999 126.488,44.133 127.435,43.345 C 125.938,44.054 124.675,42.713 123.573,42.713 L 123.573,42.713 z"
   clip-rule="evenodd" /><path
   style="fill:#24559b;fill-rule:evenodd"
   id="path2854"
   d="M 114.506,24.977 C 116.635,24.977 116.24,21.508 117.819,21.272 C 116.635,21.351 113.404,22.06 113.404,23.874 C 113.403,24.503 113.956,24.977 114.506,24.977 L 114.506,24.977 z"
   clip-rule="evenodd" /><path
   style="fill:#24559b;fill-rule:evenodd"
   id="path2856"
   d="M 111.274,27.894 C 111.747,27.894 112.457,27.184 112.457,26.553 C 112.457,25.922 111.747,24.424 112.536,23.636 C 111.906,23.872 110.33,24.582 110.33,26.946 C 110.33,27.419 110.723,27.894 111.274,27.894 L 111.274,27.894 z"
   clip-rule="evenodd" /><path
   style="fill:#24559b;fill-rule:evenodd"
   id="path2858"
   d="M 113.956,27.735 C 114.823,27.735 116.794,26.002 116.635,24.583 C 116.083,25.844 112.852,25.056 112.852,26.869 C 112.852,27.262 113.245,27.735 113.956,27.735 L 113.956,27.735 z"
   clip-rule="evenodd" /><path
   style="fill:#24559b;fill-rule:evenodd"
   id="path2860"
   d="M 109.697,31.283 C 110.251,31.283 110.643,30.731 110.643,29.707 C 110.643,28.919 109.225,27.263 109.067,26.475 C 108.672,27.262 107.806,31.283 109.697,31.283 L 109.697,31.283 z"
   clip-rule="evenodd" /><path
   style="fill:#24559b;fill-rule:evenodd"
   id="path2862"
   d="M 111.117,29.942 C 111.117,30.179 111.431,30.651 112.063,30.651 C 112.536,30.651 114.901,29.548 115.137,27.813 C 114.271,28.839 111.117,27.894 111.117,29.942 L 111.117,29.942 z"
   clip-rule="evenodd" /><path
   style="fill:#24559b;fill-rule:evenodd"
   id="path2864"
   d="M 109.854,38.852 C 110.406,38.852 110.958,38.537 110.958,37.748 C 110.958,35.935 108.122,36.645 107.491,34.91 C 107.411,35.855 108.2,38.852 109.854,38.852 L 109.854,38.852 z"
   clip-rule="evenodd" /><path
   style="fill:#24559b;fill-rule:evenodd"
   id="path2866"
   d="M 113.615,30.782 C 112.526,31.07 110.486,31.313 110.486,33.175 C 110.486,33.805 111.038,34.042 111.589,34.042 C 112.699,34.042 112.769,31.204 113.615,30.782 L 113.615,30.782 z"
   clip-rule="evenodd" /><path
   style="fill:#24559b;fill-rule:evenodd"
   id="path2868"
   d="M 113.615,30.782 C 113.678,30.765 113.741,30.748 113.798,30.73 C 113.732,30.736 113.673,30.753 113.615,30.782 L 113.615,30.782 z"
   clip-rule="evenodd" /><path
   style="fill:#24559b;fill-rule:evenodd"
   id="path2870"
   d="M 111.984,37.433 C 113.403,37.433 112.851,34.437 113.326,33.806 C 112.614,34.279 110.958,34.91 110.958,36.409 C 110.958,36.723 111.117,37.433 111.984,37.433 L 111.984,37.433 z"
   clip-rule="evenodd" /><path
   style="fill:#24559b;fill-rule:evenodd"
   id="path2872"
   d="M 112.614,41.453 C 112.614,39.481 108.988,40.269 108.516,39.008 C 108.751,40.269 110.406,42.32 111.274,42.32 C 111.667,42.32 112.614,42.398 112.614,41.453 L 112.614,41.453 z"
   clip-rule="evenodd" /><path
   style="fill:#24559b;fill-rule:evenodd"
   id="path2874"
   d="M 114.033,40.822 C 114.506,40.822 114.823,40.269 114.823,39.718 C 114.823,39.088 113.007,37.747 113.56,36.644 C 112.932,37.511 111.747,40.822 114.033,40.822 L 114.033,40.822 z"
   clip-rule="evenodd" /><path
   style="fill:#24559b;fill-rule:evenodd"
   id="path2876"
   d="M 115.374,42.713 C 114.27,42.713 113.007,44.054 111.512,43.344 C 112.457,44.133 114.113,44.998 115.216,44.998 C 115.846,44.998 116.714,44.605 116.714,43.738 C 116.714,43.186 116.161,42.713 115.374,42.713 L 115.374,42.713 z"
   clip-rule="evenodd" /><path
   style="fill:#24559b;fill-rule:evenodd"
   id="path2878"
   d="M 120.893,42.241 C 120.893,42.149 120.889,42.061 120.884,41.975 C 121.08,42.262 121.436,42.557 121.759,42.557 C 123.493,42.557 123.731,39.876 123.731,38.93 C 123.585,39.956 121.126,40.098 120.778,41.315 C 120.524,40.403 119.904,40.113 119.474,40.113 C 119.042,40.113 118.422,40.404 118.169,41.316 C 117.822,40.099 115.363,39.957 115.216,38.931 C 115.216,39.877 115.453,42.558 117.187,42.558 C 117.51,42.558 117.867,42.263 118.063,41.975 C 118.057,42.061 118.054,42.149 118.054,42.242 C 118.054,42.793 118.133,46.105 117.029,46.499 C 118.372,46.814 118.606,45.789 119.474,45.789 C 120.342,45.789 120.576,46.814 121.917,46.499 C 120.814,46.104 120.893,42.792 120.893,42.241 L 120.893,42.241 z"
   clip-rule="evenodd" /><path
   style="fill:#24559b;fill-rule:evenodd"
   id="path2880"
   d="M 112.457,57.536 C 113.682,57.361 114.314,56.829 114.314,55.485 C 114.314,54.556 113.56,53.512 111.61,52.609 L 98.622,27.229 L 99.787,24.938 C 100.645,23.254 98.636,22.249 97.764,23.951 L 97.362,24.779 L 96.955,23.951 C 96.083,22.249 94.074,23.255 94.934,24.938 L 96.097,27.212 L 83.111,52.609 C 81.159,53.512 80.403,54.556 80.403,55.485 C 80.403,56.83 81.039,57.361 82.263,57.536 L 82.263,64.799 C 81.257,65.444 78.905,67.574 78.905,72.592 C 78.905,76.448 79.363,79.671 82.263,81.33 L 82.263,98.027 L 84.524,97.316 L 84.524,82.482 L 108.6,94.745 C 110.442,95.77 110.212,97.977 110.212,98.922 C 112.742,98.213 114.278,94.506 114.278,91.038 C 114.278,87.837 113.444,85.455 112.456,83.807 L 112.456,57.536 L 112.457,57.536 z M 82.972,79.523 L 82.953,79.513 C 81.751,78.89 81.255,77.245 81.048,75.701 C 81.297,76.126 82.149,76.722 82.971,77.233 L 82.971,79.523 L 82.972,79.523 z M 82.972,74.994 C 82.061,74.411 81.14,73.774 80.902,73.427 C 80.902,73.296 80.9,73.173 80.9,73.066 C 80.9,72.501 80.962,71.829 81.068,71.14 C 81.187,71.517 82.047,72.167 82.971,72.779 L 82.971,74.994 L 82.972,74.994 z M 82.972,70.594 C 82.116,70.008 81.423,69.418 81.512,69.049 C 81.741,68.224 82.011,67.525 82.28,67.154 C 82.28,67.515 82.56,67.893 82.972,68.266 L 82.972,70.594 L 82.972,70.594 z M 97.364,29.685 L 98.989,32.864 C 98.352,32.858 97.704,32.857 97.026,32.868 C 96.472,32.858 96.393,33.842 97.105,33.941 C 97.903,33.938 98.726,33.949 99.555,33.967 L 100.086,35.008 C 99.73,35.001 99.368,34.993 98.995,34.988 C 97.893,35.027 97.814,35.972 99.074,36.083 C 99.6,36.092 100.13,36.107 100.658,36.126 L 101.316,37.416 C 100.188,37.368 98.982,37.344 97.696,37.353 C 96.749,37.392 96.591,38.375 97.733,38.436 C 99.096,38.439 100.503,38.474 101.895,38.548 L 102.559,39.845 C 101.502,39.78 100.371,39.735 99.156,39.72 C 98.524,39.718 98.289,40.773 99.274,40.817 C 100.563,40.842 101.87,40.899 103.145,40.992 L 104.067,42.796 C 102.814,42.687 101.425,42.606 99.906,42.572 C 99.156,42.557 98.603,43.586 99.865,43.664 C 101.474,43.707 103.121,43.805 104.665,43.966 L 105.724,46.037 C 103.865,45.821 101.607,45.657 98.996,45.633 C 98.011,45.632 96.75,46.766 98.446,46.766 C 101.112,46.793 103.916,46.924 106.353,47.267 L 107.409,49.334 C 105.875,49.105 103.971,48.897 101.721,48.787 C 100.695,48.785 99.001,49.622 101.799,49.893 C 104.039,50.01 106.226,50.237 108.07,50.626 L 108.561,51.586 C 105.941,50.949 102.28,50.519 97.351,50.519 C 92.417,50.519 88.783,50.949 86.162,51.586 L 97.364,29.685 L 97.364,29.685 z M 86.806,81.494 L 84.585,80.351 L 84.585,78.182 C 84.594,78.188 84.61,78.198 84.622,78.203 L 86.807,79.338 L 86.807,81.494 L 86.806,81.494 z M 86.806,77.182 L 84.903,76.183 C 84.83,76.137 84.718,76.071 84.585,75.989 L 84.585,73.794 C 84.832,73.944 85.043,74.073 85.187,74.162 L 86.806,75.02 L 86.806,77.182 L 86.806,77.182 z M 86.806,72.854 L 85.473,72.14 C 85.246,71.999 84.933,71.816 84.585,71.607 L 84.585,69.41 C 84.996,69.663 85.407,69.903 85.755,70.119 L 86.806,70.688 L 86.806,72.854 L 86.806,72.854 z M 91.335,83.822 L 88.649,82.441 L 88.649,80.295 L 91.335,81.69 L 91.335,83.822 L 91.335,83.822 z M 91.335,79.555 L 88.649,78.146 L 88.649,75.994 L 91.335,77.416 L 91.335,79.555 L 91.335,79.555 z M 91.335,75.275 L 88.649,73.838 L 88.649,71.685 L 91.335,73.14 L 91.335,75.275 L 91.335,75.275 z M 95.938,86.189 L 93.175,84.769 L 93.175,82.645 L 95.938,84.08 L 95.938,86.189 L 95.938,86.189 z M 95.938,81.966 L 93.175,80.519 L 93.175,78.391 L 95.938,79.853 L 95.938,81.966 L 95.938,81.966 z M 95.938,77.734 L 93.175,76.259 L 93.175,74.135 L 95.938,75.631 L 95.938,77.734 L 95.938,77.734 z M 100.392,88.478 L 97.783,87.137 L 97.783,85.037 L 100.392,86.391 L 100.392,88.478 L 100.392,88.478 z M 100.392,84.301 L 97.783,82.933 L 97.783,80.829 L 100.392,82.209 L 100.392,84.301 L 100.392,84.301 z M 100.392,80.115 L 97.783,78.72 L 97.783,76.628 L 100.392,78.041 L 100.392,80.115 L 100.392,80.115 z M 104.765,90.727 L 102.232,89.426 L 102.232,87.347 L 104.765,88.661 L 104.765,90.727 L 104.765,90.727 z M 104.765,86.594 L 102.232,85.266 L 102.232,83.184 L 104.765,84.523 L 104.765,86.594 L 104.765,86.594 z M 104.765,82.452 L 102.232,81.099 L 102.232,79.037 L 104.765,80.407 L 104.765,82.452 L 104.765,82.452 z M 108.677,92.738 L 106.606,91.674 L 106.606,89.618 L 108.677,90.694 L 108.677,92.738 L 108.677,92.738 z M 108.677,88.645 L 106.606,87.559 L 106.606,85.5 L 108.677,86.596 L 108.677,88.645 L 108.677,88.645 z M 108.677,84.544 L 106.606,83.436 L 106.606,81.404 L 108.677,82.525 L 108.677,84.544 L 108.677,84.544 z M 110.195,58.829 C 107.922,58.275 103.345,57.459 96.946,57.469 C 95.603,57.536 95.052,58.446 97.104,58.541 C 101.707,58.606 107.021,58.996 110.194,60.199 L 110.194,61.556 C 108.448,61.187 106.579,60.852 104.579,60.575 C 102.61,60.325 102.342,61.073 104.293,61.396 C 104.992,61.483 107.301,61.912 110.194,62.604 L 110.194,64.426 C 108.398,63.988 105.17,63.386 100.722,63.157 L 100.722,62.521 L 100.722,59.19 L 94.107,59.19 L 94.107,63.122 C 92.374,63.189 90.533,63.319 88.586,63.526 C 86.616,63.762 86.536,64.551 88.505,64.393 C 89.175,64.312 91.328,64.177 94.107,64.139 L 94.107,65.495 L 100.722,65.495 L 100.722,64.257 C 104.287,64.451 107.828,64.897 110.194,65.794 L 110.194,67.531 C 108.47,67.168 106.63,66.838 104.659,66.565 C 102.688,66.316 102.419,67.063 104.371,67.388 C 105.065,67.473 107.338,67.894 110.194,68.575 L 110.194,70.258 C 107.382,69.574 101.054,68.489 92.125,69.057 C 89.691,69.123 89.493,70.078 92.331,70 C 97.373,69.852 105.836,69.979 110.195,71.625 L 110.195,73.648 C 108.43,73.219 105.282,72.63 100.965,72.394 C 99.944,72.511 98.203,73.316 101.122,73.504 C 104.547,73.711 107.921,74.154 110.195,75.016 L 110.195,76.88 C 109.461,76.701 108.489,76.494 107.288,76.297 C 106.249,76.217 105.453,76.89 107.506,77.499 C 108.504,77.704 109.414,77.951 110.195,78.246 L 110.195,81.274 C 110.093,81.206 109.994,81.148 109.905,81.102 L 86.041,68.099 C 85.573,67.81 85.039,67.499 84.524,67.173 L 84.524,57.417 C 86.301,57.002 89.523,55.958 97.349,55.958 C 105.174,55.958 108.417,57.002 110.195,57.417 L 110.195,58.829 L 110.195,58.829 z M 99.528,62.54 C 99.528,63.304 98.908,63.924 98.144,63.924 C 97.379,63.924 96.76,63.304 96.76,62.54 C 96.76,61.776 97.379,61.157 98.144,61.157 C 98.908,61.157 99.528,61.776 99.528,62.54 L 99.528,62.54 z M 97.35,54.066 C 89.912,54.066 85.126,55.652 84.335,55.652 C 83.539,55.652 83.231,55.445 83.231,54.932 C 83.231,54.341 84.039,54.065 84.641,53.819 C 87.287,52.95 91.424,52.338 97.35,52.331 C 103.324,52.331 107.419,52.947 110.081,53.819 C 110.683,54.066 111.49,54.341 111.49,54.933 C 111.49,55.446 111.18,55.652 110.386,55.652 C 109.592,55.652 104.783,54.066 97.35,54.066 L 97.35,54.066 z M 111.576,86.363 C 111.302,86.114 110.77,85.74 110.29,85.433 L 110.29,83.872 C 110.827,84.576 111.255,85.44 111.576,86.363 L 111.576,86.363 z M 111.652,95.454 C 111.652,94.849 111.004,94.233 110.29,93.725 L 110.29,91.655 C 111.163,92.206 111.925,92.771 112.13,93.404 C 112.132,93.404 112.132,93.402 112.132,93.4 C 112.031,94.058 111.879,94.741 111.652,95.454 L 111.652,95.454 z M 112.303,91.603 C 112.297,91.531 112.291,91.473 112.283,91.433 C 112.176,90.815 111.25,90.159 110.29,89.571 L 110.29,87.484 C 111.182,87.989 111.85,88.375 112.153,88.701 C 112.265,89.407 112.323,90.097 112.323,90.724 C 112.323,91.01 112.317,91.302 112.303,91.603 L 112.303,91.603 z"
   clip-rule="evenodd" /><path
   style="fill:#24559b;fill-rule:evenodd"
   id="path2882"
   d="M 89.999,89.584 C 89.296,89.626 88.781,89.665 88.507,89.698 C 86.538,89.857 86.618,89.066 88.588,88.831 C 89.065,88.78 89.536,88.733 90.003,88.693 C 90.362,88.673 91.098,89.47 89.999,89.584 L 89.999,89.584 z"
   clip-rule="evenodd" /><path
   style="fill:#24559b;fill-rule:evenodd"
   id="path2884"
   d="M 94.499,88.414 C 94.007,88.431 93.509,88.452 93,88.478 C 92.292,88.555 91.465,89.636 92.844,89.47 C 93.368,89.457 93.92,89.446 94.501,89.438 C 95.053,89.344 95.598,88.351 94.499,88.414 L 94.499,88.414 z"
   clip-rule="evenodd" /><path
   style="fill:#24559b;fill-rule:evenodd"
   id="path2886"
   d="M 100.253,91.515 C 98.467,91.435 96.493,91.417 94.345,91.494 C 93.633,91.55 93.118,92.452 94.579,92.515 C 96.323,92.497 98.283,92.521 100.252,92.614 C 100.967,92.613 101.708,91.597 100.253,91.515 L 100.253,91.515 z"
   clip-rule="evenodd" /><path
   style="fill:#24559b;fill-rule:evenodd"
   id="path2888"
   d="M 90.326,96.188 C 89.453,96.233 88.821,96.281 88.507,96.319 C 86.538,96.477 86.618,95.689 88.588,95.453 C 89.175,95.389 89.753,95.334 90.322,95.286 C 90.875,95.295 91.627,96.135 90.326,96.188 L 90.326,96.188 z"
   clip-rule="evenodd" /><path
   style="fill:#24559b;fill-rule:evenodd"
   id="path2890"
   d="M 95.445,95.01 C 94.931,95.02 94.405,95.036 93.87,95.058 C 93.356,95.097 92.725,96.057 93.87,96.07 C 94.399,96.062 94.954,96.057 95.526,96.055 C 96.08,96.044 96.588,95 95.445,95.01 L 95.445,95.01 z"
   clip-rule="evenodd" /><path
   style="fill:#24559b;fill-rule:evenodd"
   id="path2892"
   d="M 102.31,95.185 C 101.514,95.124 100.671,95.077 99.787,95.044 C 98.996,95.058 98.329,95.955 99.709,96.137 C 100.573,96.175 101.445,96.223 102.305,96.291 C 103.018,96.319 103.691,95.274 102.31,95.185 L 102.31,95.185 z"
   clip-rule="evenodd" /><path
   style="fill:#24559b;fill-rule:evenodd"
   id="path2894"
   d="M 108.522,95.99 C 107.779,95.847 106.916,95.703 105.939,95.567 C 105.263,95.49 104.615,96.435 105.924,96.692 C 106.759,96.82 107.553,96.968 108.288,97.146 C 108.851,97.305 109.891,96.528 108.522,95.99 L 108.522,95.99 z"
   clip-rule="evenodd" /><path
   style="fill:#24559b;fill-rule:evenodd"
   id="path2896"
   d="M 96.629,48.724 C 96.228,48.733 95.82,48.745 95.404,48.761 C 94.895,48.745 94.619,49.637 95.76,49.803 C 96.047,49.797 96.337,49.793 96.629,49.792 C 97.183,49.809 97.577,48.82 96.629,48.724 L 96.629,48.724 z"
   clip-rule="evenodd" /><path
   style="fill:#24559b;fill-rule:evenodd"
   id="path2898"
   d="M 90.907,45.992 C 90.697,46.012 90.489,46.034 90.279,46.055 C 89.768,46.185 89.552,46.94 90.342,46.94 C 90.493,46.93 90.752,46.927 90.915,46.917 C 91.307,46.893 91.646,45.96 90.907,45.992 L 90.907,45.992 z"
   clip-rule="evenodd" /><path
   style="fill:#24559b;fill-rule:evenodd"
   id="path2900"
   d="M 94.933,45.707 C 94.52,45.726 94.099,45.748 93.673,45.774 C 93.003,45.868 93.042,46.741 93.789,46.777 C 94.161,46.765 94.543,46.753 94.933,46.744 C 95.367,46.694 95.759,45.625 94.933,45.707 L 94.933,45.707 z"
   clip-rule="evenodd" /><path
   style="fill:#24559b;fill-rule:evenodd"
   id="path2902"
   d="M 95.526,42.607 C 94.971,42.629 94.405,42.655 93.827,42.689 C 93.437,42.674 92.924,43.617 93.947,43.697 C 94.427,43.681 94.931,43.668 95.448,43.657 C 95.999,43.661 96.236,42.658 95.526,42.607 L 95.526,42.607 z"
   clip-rule="evenodd" /><path
   style="fill:#24559b;fill-rule:evenodd"
   id="path2904"
   d="M 97.065,39.729 C 96.512,39.737 95.944,39.754 95.367,39.776 C 94.935,39.797 94.699,40.689 95.76,40.815 C 96.188,40.809 96.621,40.803 97.065,40.801 C 97.34,40.782 97.894,39.776 97.065,39.729 L 97.065,39.729 z"
   clip-rule="evenodd" /><path
   style="fill:#24559b;fill-rule:evenodd"
   id="path2906"
   d="M 95.76,37.397 C 95.464,37.406 95.161,37.418 94.853,37.433 C 94.5,37.472 93.789,38.354 95.013,38.465 C 95.259,38.46 95.507,38.453 95.76,38.45 C 96.236,38.456 96.509,37.399 95.76,37.397 L 95.76,37.397 z"
   clip-rule="evenodd" /><path
   style="fill:#24559b;fill-rule:evenodd"
   id="path2908"
   d="M 95.959,36.082 C 96.207,36.077 96.458,36.075 96.709,36.074 C 97.381,36.055 97.105,35.068 96.471,35.01 C 96.327,35.015 96.183,35.018 96.037,35.023 C 95.644,35.067 95.132,35.953 95.959,36.082 L 95.959,36.082 z"
   clip-rule="evenodd" /><path
   style="fill:#24559b;fill-rule:evenodd"
   id="path2910"
   d="M 88.907,58.756 C 88.743,58.771 88.609,58.784 88.507,58.797 C 86.538,58.954 86.618,58.166 88.588,57.929 C 89.613,57.929 90.171,58.718 88.907,58.756 L 88.907,58.756 z"
   clip-rule="evenodd" />
</svg>