<?xml version="1.0" encoding="UTF-8" standalone="no"?>
<!-- Created with Inkscape (http://www.inkscape.org/) -->

<svg
   version="1.1"
   id="svg2"
   width="575.24207"
   height="575.24207"
   viewBox="0 0 575.24207 575.24207"
   xmlns="http://www.w3.org/2000/svg"
   xmlns:svg="http://www.w3.org/2000/svg"
   xmlns:rdf="http://www.w3.org/1999/02/22-rdf-syntax-ns#"
   xmlns:cc="http://creativecommons.org/ns#"
   xmlns:dc="http://purl.org/dc/elements/1.1/">
  <metadata
     id="metadata8">
    <rdf:RDF>
      <cc:Work
         rdf:about="">
        <dc:format>image/svg+xml</dc:format>
        <dc:type
           rdf:resource="http://purl.org/dc/dcmitype/StillImage" />
      </cc:Work>
    </rdf:RDF>
  </metadata>
  <defs
     id="defs6">
    <filter
       style="color-interpolation-filters:sRGB"
       id="filter59753"
       x="-0.010206722"
       y="-0.0091773328"
       width="1.0204134"
       height="1.0183547">
      <feGaussianBlur
         stdDeviation="1.4041748"
         id="feGaussianBlur59755" />
    </filter>
  </defs>
  <circle
     style="fill:#f0c033;fill-opacity:1;stroke:none;stroke-width:33.4411"
     id="path1675"
     cx="287.62103"
     cy="287.62103"
     r="287.62103" />
  <circle
     style="fill:#1964aa;fill-opacity:1;stroke:none;stroke-width:31.3245"
     id="path1675-7"
     cx="287.62103"
     cy="287.62103"
     r="269.41714" />
  <circle
     style="fill:#f0c033;fill-opacity:1;stroke:none;stroke-width:32.3843"
     id="path9333"
     cx="287.62103"
     cy="287.62103"
     r="247.57253" />
  <circle
     style="fill:#020002;fill-opacity:1;stroke:none;stroke-width:31.5141"
     id="path11448"
     cx="287.62103"
     cy="287.62103"
     r="227.54828" />
  <circle
     style="fill:#f0c033;fill-opacity:1;stroke:none;stroke-width:27.9201"
     id="path11448-2"
     cx="287.62103"
     cy="287.62103"
     r="201.59727" />
  <path
     id="path49701-0"
     style="fill:#a05a2c;fill-opacity:1;stroke:none;stroke-width:1px;stroke-linecap:butt;stroke-linejoin:miter;stroke-opacity:1;filter:url(#filter59753)"
     d="m 272.46885,108.2435 c 0,30.74349 0,61.48697 0,92.23046 8.4414,0 16.8828,0 25.3242,0 0,-31.41015 0,-62.82031 0,-94.23046 -8.4414,0 -16.8828,0 -25.3242,0 0,0.66666 0,1.33333 0,2 z m 35.8809,9.6875 c 0,10.18033 0,20.36067 0,30.54101 13.4202,2.11066 26.5588,6.05369 38.8627,11.8239 22.1428,10.31535 41.5866,26.39972 55.7746,46.29264 3.4708,4.88297 6.7065,10.13939 9.5883,15.474 0.4778,0.87563 0.9564,1.7508 1.4345,2.62626 7.7435,-8.3906 15.4882,-16.78004 23.2325,-25.16992 -10.7993,-17.86038 -24.6636,-33.90047 -41.0188,-46.88905 -24.5243,-19.58162 -54.3819,-32.47415 -85.4974,-36.66615 -0.7921,-0.11387 -1.5843,-0.22751 -2.3764,-0.34129 0,0.76953 0,1.53906 0,2.3086 z m -47.5996,-1.65625 c -3.7703,0.43762 -7.6226,1.14505 -11.3846,1.96597 -20.7785,4.4833 -40.7259,12.77413 -58.5574,24.34434 -22.263,14.41594 -41.1868,33.94655 -54.88176,56.661 -12.05686,19.92846 -20.0793,42.28027 -23.46322,65.32458 -3.35716,22.71351 -2.20495,46.08306 3.38167,68.3544 6.55946,26.29991 19.30994,51.0303 36.94281,71.61763 14.728,17.25059 32.8372,31.59734 52.994,41.99782 13.2461,6.85748 27.3775,11.97967 41.9166,15.29989 2.72,0.50844 5.1852,1.91613 7.9454,2.26103 2.1321,0.32892 4.286,0.48669 6.4248,0.76904 0,-10.91927 0,-21.83854 0,-32.75781 -2.3358,-0.24951 -4.6583,-0.71845 -6.8164,-1.67188 -3.1981,-1.21314 -6.5841,-1.81486 -9.8333,-2.87098 -7.5053,-2.2314 -14.8206,-5.09951 -21.8561,-8.53527 -1.4701,-0.7289 -3.1323,-1.55562 -4.6498,-2.37558 -15.4153,-8.24922 -29.3096,-19.33214 -40.7485,-32.55654 -9.1609,-10.5546 -16.7912,-22.52395 -22.5118,-35.33024 -1.1151,-2.5001 -2.1633,-5.02101 -3.1041,-7.48219 -4.90578,-12.88389 -7.94818,-26.47336 -8.9875,-40.22101 -0.38945,-4.99179 -0.48037,-10.00455 -0.35576,-15.00905 0.0502,-1.95063 0.18002,-4.10073 0.31186,-6.12522 0.32028,-4.55281 0.8904,-9.17494 1.63384,-13.59722 0.48944,-2.9406 1.12866,-6.0613 1.83086,-9.04053 0.8571,-3.72353 1.9542,-7.53161 3.0887,-11.08468 4.2585,-13.22238 10.5153,-25.95843 18.4571,-37.43308 5.7314,-8.3318 12.3586,-16.01278 19.7378,-22.97941 1.5109,-1.42932 2.9339,-2.68025 4.4965,-4.05068 12.0139,-10.40107 25.7811,-18.76311 40.5332,-24.66574 2.0309,-0.81575 4.2569,-1.64189 6.3964,-2.37213 3.8705,-1.34423 7.7608,-2.51498 11.7731,-3.51416 1.8069,-0.45991 3.4175,-0.84083 5.2571,-1.22904 2.0869,-0.45903 4.1959,-0.80463 6.3019,-1.16201 0,-10.94922 0,-21.89844 0,-32.84766 -0.7578,0.10547 -1.5156,0.21094 -2.2734,0.31641 z m -2.4395,42.32031 c -14.565,1.90905 -28.7854,6.6673 -41.3955,14.23277 -2.1481,1.26377 -4.2218,2.64754 -6.3057,4.01332 4.2633,5.46054 8.5219,10.9247 12.7832,16.38672 -0.1016,12.9987 -0.2026,25.9974 -0.3046,38.99609 8.2623,10.20453 16.5231,20.41041 24.7851,30.61524 -0.118,-9.16601 -0.2357,-18.33203 -0.3535,-27.49805 27.1927,-0.10169 54.3854,-0.20236 81.5781,-0.30469 0,-8.5371 0,-17.07421 0,-25.61132 -0.1418,-0.47012 -1.0717,-0.1522 -1.5918,-0.24414 -24.2876,-0.0142 -48.5753,0.0292 -72.8628,-0.0234 -2.4917,-0.009 -4.9834,-0.0182 -7.4751,-0.0274 -0.089,-8.54622 -0.1771,-17.09244 -0.2656,-25.63867 4.5618,-1.01466 9.1243,-2.02599 13.6856,-3.04297 0,-7.39062 0,-14.78125 0,-22.17187 -0.7592,0.10612 -1.5183,0.21224 -2.2774,0.31836 z m 52.1719,2.3164 c 0.111,6.94401 0.2191,13.88806 0.332,20.83204 1.4684,0.26029 3.1643,0.54527 4.4766,0.87304 7.9465,2.00422 15.3185,5.72005 22.5325,9.52102 3.9257,2.09142 7.7826,4.30801 11.6589,6.48875 3.4639,-6.19536 6.9346,-12.38685 10.4023,-18.58008 -7.9349,-5.53207 -16.4167,-10.29176 -25.352,-14.00878 -7.6831,-3.24731 -15.6865,-5.66429 -23.7742,-7.67231 -0.6581,-0.24072 -0.1492,1.00418 -0.2937,1.41724 0.01,0.37636 0.012,0.75272 0.018,1.12908 z m -124.9121,43.92383 c -3.682,3.45377 -7.0035,7.29884 -9.7269,11.55568 -1.7673,2.67944 -3.5223,5.36697 -5.3141,8.03026 5.8073,7.74218 11.6089,15.4886 17.414,23.23242 0.042,40.54941 0.5972,81.0965 0.6043,121.64608 0,2.33607 0.01,4.67215 0.011,7.00822 5.5228,4.93334 11.0997,9.88149 17.4503,13.74166 2.5685,1.60437 5.2382,3.03719 7.8719,4.52982 0,-37.42914 -0.4279,-74.85636 -0.5973,-112.28476 0,-2.16289 -0.01,-4.32578 -0.012,-6.48867 15.6974,19.15415 31.3933,38.30956 47.0918,57.46289 0.2373,-14.06838 0.4763,-28.13673 0.7148,-42.20508 -7.7813,-8.4804 -15.1112,-17.3599 -22.5206,-26.16341 -17.1488,-20.52125 -34.0968,-41.20612 -51.454,-61.55144 -0.5111,0.49545 -1.0221,0.99089 -1.5332,1.48633 z m 197.0742,0.54492 c -20.3466,23.87456 -40.1108,48.24005 -60.3874,72.17486 -4.0041,4.69667 -8.0475,9.4207 -12.2024,13.91303 0.238,14.06836 0.4756,28.13672 0.7128,42.20508 15.699,-19.15347 31.3957,-38.30871 47.0938,-57.46289 -0.096,37.53929 -0.5812,75.07675 -0.5989,112.61639 0,2.05235 -0.01,4.1047 -0.01,6.15705 5.1608,-2.84453 10.3034,-5.777 14.9425,-9.434 3.6013,-2.77461 6.974,-5.8281 10.3778,-8.83748 10e-4,-33.72796 0.3145,-67.45464 0.5262,-101.18163 0.05,-9.15749 0.079,-18.31505 0.089,-27.47267 5.8057,-7.74384 11.6082,-15.49015 17.416,-23.23242 -2.7523,-4.00216 -5.2408,-8.18701 -8.1642,-12.06917 -2.478,-3.29027 -5.4466,-6.16028 -8.412,-9.0031 -0.4609,0.54232 -0.9218,1.08464 -1.3828,1.62695 z m -121.6094,7.80079 c 21.3236,0.0787 42.6472,0.15756 63.9707,0.23632 0,5.39193 0,10.78386 0,16.17578 -31.0364,0 -62.0729,1e-5 -93.1094,0 0,-5.4707 0,-10.9414 0,-16.4121 9.7129,0 19.4258,0 29.1387,0 z m 35.2344,33.87109 c -7.6152,0.0477 -15.2366,-0.0155 -22.8516,0.041 -1.7941,0.11704 -3.037,2.00094 -2.75,3.71094 1.1389,63.30271 0.2981,126.6163 0.071,189.92295 -0.042,10.59464 -0.056,21.18937 -0.063,31.78408 5.8269,0.60995 11.6869,1.16665 17.5509,0.85371 3.9285,-0.12766 7.8448,-0.47995 11.7519,-0.89863 -1.0207,-63.3471 -0.3175,-126.70299 -0.1,-190.05332 0.037,-10.88721 0.077,-21.77726 0.048,-32.66283 -0.1414,-1.78116 -1.9936,-2.86153 -3.6576,-2.69791 z m -73.1758,66.69727 c 0.2056,29.20963 0.4121,58.41926 0.6172,87.6289 6.8842,3.97697 14.1644,7.64315 22.0965,8.89752 0.4416,-0.0707 1.5499,0.66067 1.382,-0.14322 0,-25.08412 0,-50.16823 0,-75.25235 -8.0432,-8.77631 -16.088,-17.55123 -24.1328,-26.32617 0.012,1.73177 0.025,3.46354 0.037,5.19532 z m 191.2168,41.33398 c -5.5327,10.94567 -12.399,21.23144 -20.582,30.37659 -1.5589,1.76225 -3.0718,3.37256 -4.7266,5.07263 -16.1563,16.53354 -36.3782,29.05065 -58.3821,36.13638 -6.2827,2.04968 -12.7302,3.55117 -19.2234,4.7601 0,10.97917 0,21.95834 0,32.9375 11.0602,-1.651 21.991,-4.21639 32.5675,-7.85914 25.8306,-8.81993 49.4714,-23.87354 68.5168,-43.41278 10.7675,-11.0377 20.1145,-23.47718 27.5642,-36.98394 0.1471,-0.50797 0.9283,-1.12612 0.6609,-1.56209 -8.4121,-7.24063 -16.8235,-14.48194 -25.2351,-21.72306 -0.3868,0.7526 -0.7735,1.50521 -1.1602,2.25781 z" />
  <g
     id="g54814"
     style="fill:#ffffff;fill-opacity:1"
     transform="translate(-122.22032,-118.33694)">
    <path
       id="rect21317-4"
       style="fill:#ffffff;fill-opacity:1;stroke:none;stroke-width:26.63"
       d="m 352.52983,329.51849 c 0,6.80376 0,13.6076 0,20.41136 32.37005,0 64.73999,0 97.11003,0 0,-6.80376 0,-13.6076 0,-20.41136 -32.37004,0 -64.73998,0 -97.11003,0 z" />
    <path
       id="path49701"
       style="fill:#ffffff;fill-opacity:1;stroke:none;stroke-width:1px;stroke-linecap:butt;stroke-linejoin:miter;stroke-opacity:1"
       d="m 381.22194,278.91318 v 18.26942 l -13.70206,3.04491 0.30449,29.23107 81.90791,0.30449 v 21.61882 l -81.60342,0.30449 0.30449,23.75025 -20.70535,-25.57719 0.30449,-38.97477 -11.87512,-15.22452 c 14.17099,-9.40974 29.27041,-14.64151 45.06457,-16.74697 z m 53.8948,0.30449 0.30449,19.18289 c 10.45341,1.72367 23.07899,8.51575 35.92986,15.8335 l 8.52573,-15.22452 c -14.92003,-10.21795 -29.84005,-16.05061 -44.76008,-19.79187 z m -87.38874,152.85417 0.60898,86.47526 c 7.27721,4.20174 13.83366,6.96197 19.48739,7.91675 V 453.99514 Z M 506.80308,325.01183 c 7.17906,6.84308 8.42687,9.86932 13.98578,18.08304 l -16.9645,22.63323 c -0.003,38.40471 -0.60865,77.66116 -0.61498,128.42127 -7.73109,6.88585 -12.25069,10.75275 -21.31702,15.75139 0.005,-42.49621 0.61298,-87.6902 0.61498,-120.96344 l -47.19645,57.59097 -0.60898,-35.95905 c 12.58677,-13.54017 47.70921,-56.98984 72.10117,-85.55741 z M 309.59785,324.6074 c -7.17906,6.84308 -8.42687,9.86932 -13.98578,18.08304 l 16.9645,22.63323 c 0.003,38.40471 0.60865,77.66116 0.61498,128.42127 7.73109,6.88585 12.25069,10.75275 21.31702,15.75139 -0.005,-42.49621 -0.61298,-87.6902 -0.61498,-120.96344 l 47.19645,57.59097 0.60898,-35.95905 C 369.11225,396.62464 333.98981,353.17497 309.59785,324.6074 Z m 109.21465,42.79885 c -7.5024,0.004 -15.00571,-0.009 -22.50781,0.008 -0.8642,0.0531 -1.13161,0.94147 -1.00391,1.60742 1.31789,71.05904 0.002,147.16443 0.0117,220.01758 3.52414,0.38875 7.0619,0.6422 10.60547,0.75977 4.90069,-0.007 9.79753,-0.2748 14.66992,-0.80078 -1.16596,-72.36647 0.008,-148.82499 -0.0117,-220.66602 -0.059,-0.80465 -1.03677,-1.0433 -1.76367,-0.92578 z m 14.17188,-131.13867 v 28.85547 c 1.19218,0.20031 2.50508,0.42803 3.72851,0.66601 6.90675,1.33063 13.7145,3.16927 20.35742,5.48047 1.18247,0.42076 2.59159,0.92636 3.85157,1.4082 7.23541,2.75502 14.24824,6.09362 20.95507,9.96094 1.32126,0.77348 2.83313,1.66489 4.20313,2.52735 3.50848,2.18302 6.97386,4.55651 10.21875,6.99023 9.40459,7.02987 18.09562,15.35635 25.56445,24.52734 5.78131,7.08464 10.82741,14.82652 15.20117,22.9375 l 20.31055,-22.0039 c -10.19411,-16.60056 -23.10317,-31.53413 -38.21289,-43.83789 -21.68114,-17.73574 -47.72048,-30.08616 -75.16797,-35.66992 -3.64663,-0.74424 -7.323,-1.33175 -11.00976,-1.8418 z m -49.32618,0.32422 c -1.59606,0.23723 -3.20372,0.39158 -4.79297,0.67187 -4.0394,0.71509 -8.0557,1.56846 -12.0332,2.57422 -3.10857,0.76942 -6.19482,1.64068 -9.25195,2.59375 -3.95065,1.22527 -7.85813,2.59211 -11.71094,4.0957 -3.8528,1.50733 -7.65164,3.14998 -11.39062,4.91993 -3.38693,1.61446 -6.71353,3.34635 -10.00196,5.15234 -3.57485,2.0148 -7.08872,4.13284 -10.52734,6.37305 -3.48719,2.28598 -6.8944,4.6961 -10.21484,7.21875 -3.3162,2.52719 -6.53727,5.17731 -9.66602,7.93359 -3.10303,2.73497 -6.1053,5.58586 -9.00195,8.53906 -2.2479,2.28036 -4.42995,4.62779 -6.53907,7.03711 -2.73306,3.10438 -5.35794,6.30466 -7.85742,9.59961 -2.50242,3.29416 -4.88857,6.67665 -7.15234,10.13867 -2.27338,3.49569 -4.42864,7.06712 -6.45899,10.70899 -1.81375,3.28508 -3.52061,6.62407 -5.14257,10.00781 -1.75501,3.74635 -3.39344,7.54634 -4.89844,11.40039 -1.50221,3.88916 -2.87251,7.82932 -4.10547,11.8125 -1.22692,3.98516 -2.30428,8.01584 -3.24609,12.07813 -0.92244,3.9968 -1.7024,8.02681 -2.33594,12.08007 -0.5094,3.1619 -0.91348,6.34465 -1.23242,9.53125 -0.41819,4.11467 -0.6837,8.24347 -0.8086,12.37696 -0.11852,4.1688 -0.0964,8.34136 0.0801,12.50781 0.1852,4.16614 0.5072,8.32507 0.97461,12.46875 0.43306,3.694 0.98326,7.37051 1.62891,11.0332 0.74869,4.0678 1.62226,8.11181 2.64062,12.1211 1.02575,4.00752 2.19084,7.97846 3.4961,11.90429 1.30452,3.92409 2.75237,7.80262 4.33593,11.62305 1.21936,2.96165 2.52712,5.88927 3.91992,8.77344 1.7875,3.72917 3.71003,7.39336 5.76368,10.98242 2.06985,3.61977 4.26772,7.16669 6.58789,10.63086 2.30842,3.43387 4.73671,6.78642 7.27343,10.05469 2.31399,2.95368 4.72213,5.82823 7.20118,8.64453 2.76151,3.08022 5.61891,6.07336 8.57617,8.96679 2.99106,2.90548 6.08333,5.70553 9.26758,8.39844 3.18675,2.68839 6.47322,5.25643 9.84375,7.71094 3.3443,2.434 6.78074,4.74436 10.29297,6.92969 3.4492,2.15833 6.97931,4.18846 10.58007,6.08398 2.90829,1.56327 5.88,3.01036 8.87891,4.39063 3.7599,1.72518 7.58203,3.31918 11.45508,4.77148 3.90677,1.45825 7.86192,2.78467 11.85937,3.9707 3.63243,1.06836 7.29945,2.00123 10.98633,2.86133 4.00794,0.87654 4.03848,1.64526 8.09375,2.27149 1.22065,0.18366 2.45372,0.26559 3.67773,0.42382 v -28.76367 c -0.0715,-0.0108 -0.14337,-0.0184 -0.21484,-0.0293 -4.30188,-0.69219 -4.57392,-1.56749 -8.80273,-2.61719 -3.36751,-0.8578 -6.70144,-1.83349 -10.00782,-2.90235 -3.69363,-1.23168 -7.34088,-2.59672 -10.93554,-4.09375 -3.99787,-1.69976 -7.926,-3.56323 -11.76758,-5.59179 -3.08451,-1.64997 -6.10891,-3.40319 -9.08203,-5.2461 -3.22446,-2.04353 -6.37752,-4.19673 -9.44727,-6.46679 -3.12823,-2.32706 -6.1554,-4.78739 -9.09765,-7.34571 -2.92688,-2.57201 -5.74793,-5.26126 -8.47266,-8.04687 -2.70053,-2.7925 -5.29218,-5.68991 -7.77539,-8.67774 -2.50599,-3.02801 -4.87103,-6.16912 -7.13672,-9.38085 -2.26049,-3.2417 -4.37674,-6.58166 -6.38672,-9.98438 -1.94268,-3.36083 -3.76413,-6.78941 -5.45703,-10.2832 -1.86097,-3.91302 -3.56716,-7.89997 -5.09961,-11.95313 -1.24776,-3.37244 -2.37668,-6.78651 -3.41015,-10.23047 -1.18125,-4.12565 -2.21466,-8.29325 -3.05469,-12.50195 -0.74885,-3.82874 -1.35696,-7.68433 -1.8125,-11.55859 -0.44045,-3.97438 -0.76088,-7.96193 -0.88281,-11.95899 -0.1212,-3.98729 -0.1048,-7.97905 0.0996,-11.96289 0.20545,-4.01867 0.55469,-8.03289 1.10157,-12.01953 0.61446,-4.69437 1.47393,-9.35503 2.56054,-13.96289 0.88871,-3.86253 1.96803,-7.68074 3.1836,-11.45313 1.20589,-3.77146 2.58501,-7.48674 4.10156,-11.14453 1.50555,-3.6376 3.17021,-7.20866 4.96484,-10.71289 1.79983,-3.50168 3.74901,-6.92599 5.82227,-10.27343 2.04875,-3.29929 4.23759,-6.51101 6.54297,-9.63672 2.30995,-3.14045 4.76361,-6.17404 7.32031,-9.11719 2.53439,-2.9149 5.19326,-5.72104 7.95313,-8.42383 2.79715,-2.74299 5.71579,-5.36217 8.72656,-7.86914 3.01437,-2.5219 6.15097,-4.89509 9.36133,-7.16211 3.22883,-2.27824 6.56542,-4.40257 9.96679,-6.41406 3.44841,-2.02684 6.99062,-3.8897 10.58594,-5.64258 3.95368,-1.88809 7.98787,-3.60944 12.08789,-5.1543 3.77939,-1.3894 7.60262,-2.66209 11.47852,-3.7539 3.84599,-1.07321 7.72972,-2.01156 11.65039,-2.76758 0.76125,-0.1483 1.52761,-0.26398 2.29101,-0.40039 z m 155.06641,237.74218 c -4.12883,8.13035 -8.93441,15.91798 -14.51172,23.13282 -0.93735,1.2114 -2.02817,2.58238 -3.06445,3.82617 -6.83858,8.26705 -14.60598,15.76408 -23.0918,22.32812 -1.04572,0.7981 -2.35596,1.78839 -3.42578,2.56446 -4.10947,2.98758 -8.37875,5.75428 -12.77734,8.29687 -1.32913,0.76341 -2.85564,1.62369 -4.28907,2.37891 -6.5945,3.52062 -13.46448,6.52138 -20.52148,8.98633 -1.18645,0.41311 -2.60911,0.88674 -3.89453,1.29687 -5.61008,1.77739 -11.33425,3.17873 -17.11719,4.26758 v 28.94141 c 19.21201,-3.00954 37.93417,-9.16751 55.08203,-18.34375 25.35765,-13.50398 47.25158,-33.42593 63.08984,-57.39454 2.40418,-3.62185 4.61698,-7.36294 6.73829,-11.15625 z M 397.10295,316.81053 c 7.10825,0 14.21658,0 21.32483,0 0,-30.07638 0,-60.15275 0,-90.22912 -7.10825,0 -14.21658,0 -21.32483,0 0,30.07637 0,60.15274 0,90.22912 z" />
  </g>
</svg>
