<?xml version="1.0" encoding="UTF-8" standalone="no"?>
<!-- Created with Inkscape (http://www.inkscape.org/) -->

<svg
   xmlns:osb="http://www.openswatchbook.org/uri/2009/osb"
   xmlns:dc="http://purl.org/dc/elements/1.1/"
   xmlns:cc="http://creativecommons.org/ns#"
   xmlns:rdf="http://www.w3.org/1999/02/22-rdf-syntax-ns#"
   xmlns:svg="http://www.w3.org/2000/svg"
   xmlns="http://www.w3.org/2000/svg"
   xmlns:xlink="http://www.w3.org/1999/xlink"
   xmlns:sodipodi="http://sodipodi.sourceforge.net/DTD/sodipodi-0.dtd"
   xmlns:inkscape="http://www.inkscape.org/namespaces/inkscape"
   version="1.1"
   id="svg2"
   width="800"
   height="800"
   viewBox="0 0 800 800"
   sodipodi:docname="Escudo_ac_milan_1946.svg"
   inkscape:version="0.92.4 (5da689c313, 2019-01-14)">
  <metadata
     id="metadata8">
    <rdf:RDF>
      <cc:Work
         rdf:about="">
        <dc:format>image/svg+xml</dc:format>
        <dc:type
           rdf:resource="http://purl.org/dc/dcmitype/StillImage" />
        <dc:title />
      </cc:Work>
    </rdf:RDF>
  </metadata>
  <defs
     id="defs6">
    <linearGradient
       id="linearGradient4888"
       osb:paint="solid">
      <stop
         style="stop-color:#e9f0ff;stop-opacity:1;"
         offset="0"
         id="stop4886" />
    </linearGradient>
    <linearGradient
       id="linearGradient4882"
       osb:paint="solid">
      <stop
         style="stop-color:#e9f0ff;stop-opacity:1;"
         offset="0"
         id="stop4880" />
    </linearGradient>
    <linearGradient
       id="linearGradient4876"
       osb:paint="solid">
      <stop
         style="stop-color:#e9f0ff;stop-opacity:1;"
         offset="0"
         id="stop4874" />
    </linearGradient>
    <linearGradient
       id="linearGradient4870"
       osb:paint="solid">
      <stop
         style="stop-color:#e9f0ff;stop-opacity:1;"
         offset="0"
         id="stop4868" />
    </linearGradient>
    <linearGradient
       id="linearGradient4864"
       osb:paint="solid">
      <stop
         style="stop-color:#e9f0ff;stop-opacity:1;"
         offset="0"
         id="stop4862" />
    </linearGradient>
    <linearGradient
       id="linearGradient4858"
       osb:paint="solid">
      <stop
         style="stop-color:#000000;stop-opacity:1;"
         offset="0"
         id="stop4856" />
    </linearGradient>
    <linearGradient
       inkscape:collect="always"
       xlink:href="#linearGradient4858"
       id="linearGradient4860"
       x1="345.28439"
       y1="119.60657"
       x2="435.40182"
       y2="119.60657"
       gradientUnits="userSpaceOnUse"
       gradientTransform="translate(2.62712)" />
    <linearGradient
       inkscape:collect="always"
       xlink:href="#linearGradient4858"
       id="linearGradient4866"
       x1="243.91977"
       y1="145.80116"
       x2="347.42523"
       y2="145.80116"
       gradientUnits="userSpaceOnUse"
       gradientTransform="translate(2.62712)" />
    <linearGradient
       inkscape:collect="always"
       xlink:href="#linearGradient4858"
       id="linearGradient4872"
       x1="1151.0389"
       y1="659.0199"
       x2="1211.1965"
       y2="659.0199"
       gradientUnits="userSpaceOnUse"
       gradientTransform="translate(-686.7797)" />
    <linearGradient
       inkscape:collect="always"
       xlink:href="#linearGradient4858"
       id="linearGradient4878"
       x1="1088.5226"
       y1="669.67914"
       x2="1144.6749"
       y2="669.67914"
       gradientUnits="userSpaceOnUse"
       gradientTransform="translate(-686.7797)" />
    <linearGradient
       inkscape:collect="always"
       xlink:href="#linearGradient4858"
       id="linearGradient4884"
       x1="1017.2942"
       y1="669.14679"
       x2="1077.6188"
       y2="669.14679"
       gradientUnits="userSpaceOnUse"
       gradientTransform="translate(-686.7797)" />
    <linearGradient
       inkscape:collect="always"
       xlink:href="#linearGradient4858"
       id="linearGradient4890"
       x1="970.00055"
       y1="663.64417"
       x2="1009.8053"
       y2="663.64417"
       gradientUnits="userSpaceOnUse"
       gradientTransform="translate(-686.7797)" />
  </defs>
  <sodipodi:namedview
     pagecolor="#ffffff"
     bordercolor="#666666"
     borderopacity="1"
     objecttolerance="10"
     gridtolerance="10"
     guidetolerance="10"
     inkscape:pageopacity="0"
     inkscape:pageshadow="2"
     inkscape:window-width="1920"
     inkscape:window-height="1017"
     id="namedview4"
     showgrid="false"
     inkscape:zoom="0.834386"
     inkscape:cx="317.11582"
     inkscape:cy="410.73363"
     inkscape:window-x="-8"
     inkscape:window-y="-8"
     inkscape:window-maximized="1"
     inkscape:current-layer="svg2" />
  <path
     id="path1041"
     d="m 401.56968,779.19545 c 123.4087,0 252.7486,-169.52305 252.7486,-378.62958 0,-209.10653 -129.3399,-378.629583 -252.7486,-378.629583 -123.40863,0 -253.94701,169.520133 -253.94701,378.629583 0,209.10945 130.53838,378.62958 253.94701,378.62958 z"
     style="fill:#ffffff;fill-opacity:1;stroke:#000000;stroke-width:17.03000069;stroke-miterlimit:4;stroke-dasharray:none;stroke-opacity:1"
     inkscape:connector-curvature="0"
     sodipodi:nodetypes="sssss" />
  <path
     inkscape:connector-curvature="0"
     style="fill:#ffffff;fill-opacity:1;stroke:#fde525;stroke-width:14.61833477;stroke-miterlimit:4;stroke-dasharray:none;stroke-opacity:1"
     d="m 401.36718,778.89354 c 123.3103,0 253.7446,-169.38788 253.7446,-378.32767 0,-208.93979 -130.4343,-378.327669 -253.7446,-378.327669 -123.31022,0 -253.74451,169.384959 -253.74451,378.327669 0,208.94271 130.43429,378.32767 253.74451,378.32767 z"
     id="path68"
     sodipodi:nodetypes="sssss" />
  <path
     style="fill:#e22939;fill-opacity:1;stroke:#e22939;stroke-width:1px;stroke-linecap:butt;stroke-linejoin:miter;stroke-opacity:1"
     d="m 290.76271,241.94915 -51.69492,50.42373 1.69492,223.30509 27.11864,31.35593 31.77966,25.42373 -0.84745,-335.59322 z"
     id="path4830"
     inkscape:connector-curvature="0" />
  <polygon
     transform="matrix(3.5156405,0,0,3.0365777,173.01904,-16.26297)"
     points="46.233,199.5 46.233,76.833 33.267,86.833 33.267,189.5 "
     id="polygon74"
     style="fill:#1a171b;fill-opacity:1" />
  <rect
     style="fill:#e22939;fill-opacity:1;fill-rule:evenodd;stroke-width:0.90683061"
     id="rect1067"
     width="48.453506"
     height="372.6731"
     x="326.36349"
     y="217.19205" />
  <rect
     y="-593.65564"
     x="381.7934"
     height="201.48666"
     width="49.300964"
     id="rect1073"
     style="fill:#e22939;fill-opacity:1;fill-rule:evenodd;stroke-width:0.67259002"
     transform="rotate(90)" />
  <polygon
     id="polygon1071"
     points="46.267,199.5 59.233,204.5 59.233,68.833 46.267,76.833 "
     style="fill:#e22939;fill-opacity:1"
     transform="matrix(-3.71036,0,0,2.5949703,694.02548,46.374432)" />
  <circle
     style="fill:none;stroke:#000000;stroke-width:13.55136013"
     cx="401.5697"
     cy="404.56586"
     r="195.47836"
     id="circle92" />
  <rect
     style="fill:#000000;fill-opacity:0;fill-rule:evenodd"
     id="rect1063"
     width="52.690773"
     height="416.74091"
     x="356.194"
     y="191.76833" />
  <rect
     transform="scale(-1)"
     style="fill:#1a171b;fill-opacity:1;fill-rule:evenodd;stroke-width:0.82598609"
     id="rect1089"
     width="38.284016"
     height="391.3172"
     x="-402.98633"
     y="-599.56012" />
  <path
     style="fill:#1a171b;fill-opacity:1;stroke:#000000;stroke-width:1px;stroke-linecap:butt;stroke-linejoin:miter;stroke-opacity:1"
     d="m 251.35593,279.66102 -23.30509,31.77966 -16.94915,47.0339 -6.77966,40.25423 4.23729,40.25424 13.13559,42.37288 14.83051,30.50848 13.98305,15.25423 V 286.01695 Z"
     id="path4832"
     inkscape:connector-curvature="0" />
  <circle
     id="circle4834"
     r="193.84023"
     cy="404.56586"
     cx="401.5697"
     style="fill:none;stroke:#000000;stroke-width:13.4377985" />
  <circle
     id="circle1091"
     r="194.65929"
     cy="404.56586"
     cx="401.5697"
     style="fill:#000000;fill-opacity:0;stroke:#fde626;stroke-width:13.49457836;stroke-opacity:1" />
  <path
     sodipodi:nodetypes="ccccccccccccc"
     inkscape:connector-curvature="0"
     d="m 289.21662,624.77068 3.48439,-0.0127 c 12.39595,-0.75603 11.64853,-7.0414 13.47247,-10.42032 l 16.85214,1.97291 -9.93183,80.71945 7.06663,1.16905 -1.7102,14.75161 -35.22934,-3.43801 1.96599,-15.97577 7.69327,0.8556 6.27456,-57.06465 -11.44395,-1.25195 z"
     id="path4808"
     style="fill:#fde525;fill-opacity:1;stroke-width:2.88596344" />
  <path
     sodipodi:nodetypes="cccccccccccccccccccc"
     inkscape:connector-curvature="0"
     d="m 369.67482,651.25542 -3.5641,3.88856 -1.4744,-0.96985 c -2.2337,-1.69071 -7.1498,-7.80158 -4.6289,-15.14115 2.4483,-2.42215 4.0833,-3.81995 8.1167,-2.43123 8.3617,3.21958 1.5507,14.65367 1.5507,14.65367 z m 20.9903,43.61055 c 1.4073,-12.59854 -5.9749,-21.69569 -13.023,-27.90192 6.802,-2.80881 10.3837,-11.13436 11.3176,-19.48726 1.4997,-13.42083 -4.3718,-25.3369 -20.7331,-28.6867 -13.7993,-2.82613 -28.9661,4.36874 -30.8178,20.94032 -1.0106,9.03669 1.6407,22.0893 7.445,27.20058 -12.7857,4.38846 -13.6337,18.44178 -14.1837,23.37125 -1.484,13.28234 7.6959,26.50718 25.5524,29.56673 21.4388,2.28989 33.0644,-12.67712 34.4426,-25.003 z m -24.245,-2.53214 c -0.6035,8.85078 -4.3151,9.89544 -7.8574,9.85885 -2.4712,-0.20252 -7.9702,-1.19459 -5.8935,-12.503 1.7716,-3.96751 6.3872,-7.31756 6.3872,-7.31756 0,0 5.2468,3.18885 7.3637,9.96171 z"
     id="path4810"
     style="fill:#fde525;fill-opacity:1;stroke:url(#linearGradient4884);stroke-width:1.20000005;stroke-miterlimit:4;stroke-dasharray:none" />
  <path
     sodipodi:nodetypes="cccccccccccsscsssssc"
     inkscape:connector-curvature="0"
     d="m 421.43052,651.34727 c -0.7792,-9.38804 2.2372,-12.6095 3.4442,-12.83863 6.1819,-1.1203 7.8948,10.97655 8.1428,12.37287 0.05,2.92935 1.2679,12.97781 -3.6163,13.90478 -3.5209,0.1518 -7.1541,-3.5921 -7.9707,-13.43902 z m -15.3601,48.4754 c 2.0778,10.2971 12.8824,20.8048 25.1305,19.78891 24.1874,-0.5593 28.3146,-33.01225 26.2165,-58.31923 -0.7648,-9.20335 -8.834,-43.58821 -33.7372,-41.52475 -18.7263,0.72266 -23.0454,17.84467 -21.7149,33.85889 0.9063,10.95225 5.1467,29.28959 21.7888,29.29604 4.8599,-0.40404 10.535,-2.19472 10.1265,-3.48132 l 1.1657,3.67127 c 0.6512,2.0509 -0.6571,21.81321 -6.5301,22.29806 -0.5438,0.045 -3.0357,0.56269 -5.4882,-1.28551 -1.4572,-1.098 -2.2987,-4.28079 -1.4329,-4.48308 1.8306,-0.42763 3.5065,-1.43454 4.3107,-3.4524 0.5229,-1.31159 1.9441,-8.7374 -3.548,-11.18419 -5.7103,-2.544 -10.0004,-1.28594 -13.6514,2.30333 -3.0815,3.02955 -2.636,12.51398 -2.636,12.51398 z"
     id="path4812"
     style="fill:#fde525;fill-opacity:1;stroke:url(#linearGradient4878);stroke-width:1.20000005;stroke-miterlimit:4;stroke-dasharray:none" />
  <path
     style="fill:#fde525;fill-opacity:1;stroke:url(#linearGradient4872);stroke-width:1.20000005;stroke-miterlimit:4;stroke-dasharray:none"
     id="path4814"
     d="m 484.60112,641.4031 c -1.9647,-9.33312 0.6196,-12.94733 1.7877,-13.32877 5.9911,-1.90022 9.2254,10.03707 9.6491,11.40864 0.4207,2.93644 2.9049,12.87797 -1.8233,14.42131 -3.4739,0.59378 -7.5536,-2.7118 -9.6135,-12.50118 z m -9.0873,50.62127 c 3.3686,10.08353 15.4213,19.28491 27.4435,16.7293 23.9263,-3.59337 23.9018,-36.71131 18.6091,-61.87059 -1.9267,-9.14937 -14.2957,-42.67949 -38.7406,-37.48544 -18.487,3.07296 -20.5992,20.81427 -17.2471,36.73468 2.2891,10.88853 8.8232,28.7779 25.3349,26.69855 4.7703,-1.01493 10.1733,-3.52505 9.6046,-4.76629 l 1.6227,3.54184 c 0.9058,1.97864 2.116,21.99489 -3.649,23.21804 -0.5341,0.11346 -2.9405,0.94576 -5.6081,-0.60348 -1.5851,-0.92044 -2.8237,-4.01223 -1.9903,-4.32394 1.7615,-0.65901 3.2965,-1.88054 3.8385,-4.0084 0.3522,-1.38312 0.8198,-9.02086 -4.9395,-10.79041 -5.9879,-1.83992 -10.0847,-0.0382 -13.2512,4.02478 -2.6731,3.42957 -1.0275,12.90136 -1.0275,12.90136 z"
     inkscape:connector-curvature="0"
     sodipodi:nodetypes="cccccccccccsscsssssc" />
  <path
     style="fill:#fde525;fill-opacity:1;stroke:url(#linearGradient4890);stroke-width:1.20000005;stroke-miterlimit:4;stroke-dasharray:none"
     id="path4818"
     d="m 289.21662,624.77068 3.48439,-0.0127 c 12.39595,-0.75603 11.64853,-7.0414 13.47247,-10.42032 l 16.85214,1.97291 -9.8007,80.53219 6.9884,0.82665 -1.7631,15.28127 -35.22934,-3.43801 1.96599,-15.97577 7.69327,0.8556 6.27456,-57.06465 -11.44395,-1.25195 z"
     inkscape:connector-curvature="0"
     sodipodi:nodetypes="ccccccccccccc" />
  <path
     style="fill:#fde525;fill-opacity:1;stroke:url(#linearGradient4860);stroke-width:1.5;stroke-miterlimit:4;stroke-dasharray:none;stroke-opacity:1"
     id="path4838"
     d="m 399.16512,81.390036 c -19.7301,0.395783 -34.087,16.204418 -33.7747,39.039364 0.3096,22.67664 15.3239,37.18739 35.1959,36.78815 9.794,-0.19615 16.8688,-5.04576 23.3006,-12.36946 l 14.1421,12.56281 c -8.9506,10.0357 -23.8989,18.92714 -37.6685,19.20247 -28.3881,0.56787 -52.0143,-24.45595 -52.443,-55.89144 -0.4288,-31.435473 22.0756,-57.54338 51.0318,-58.121568 13.7694,-0.275326 26.1959,5.10732 35.2772,15.094817 l -12.3373,14.153647 c -5.7289,-5.570919 -12.7881,-10.658403 -22.7241,-10.45879 z"
     inkscape:connector-curvature="0"
     sodipodi:nodetypes="ccccccscccc" />
  <path
     sodipodi:nodetypes="cccccccccccc"
     inkscape:connector-curvature="0"
     d="M 351.55042,184.72932 327.12522,65.592416 C 302.42999,112.2699 265.60003,180.10065 242.35217,227.50801 l 27.81323,-11.88687 26.06899,-50.28465 30.02193,-0.40267 4.3719,27.17237 z m -46.48047,-36.63133 14.93857,-27.89892 4.097,27.90151 z"
     id="path4852"
     style="fill:#fde525;fill-opacity:1;stroke:url(#linearGradient4866);stroke-width:1.5;stroke-miterlimit:4;stroke-dasharray:none" />
  <path
     style="fill:#fde525;fill-opacity:1;stroke:#000000;stroke-width:1.5;stroke-linecap:butt;stroke-linejoin:miter;stroke-miterlimit:4;stroke-dasharray:none;stroke-opacity:1"
     d="m 442.47152,175.88838 12.8838,-92.28343 18.8761,28.46404 7.1909,-30.56139 81.4971,151.00924 -30.861,-15.28069 -43.7448,-83.89403 -6.5916,27.8648 -14.0822,-17.37804 -4.4944,41.34777 z"
     id="path4854"
     inkscape:connector-curvature="0" />
</svg>
